M48
;DRILL file {KiCad 5.0.2-bee76a0~70~ubuntu18.04.1} date Sun 23 Jun 2019 06:14:24 PM PDT
;FORMAT={-:-/ absolute / inch / decimal}
FMAT,2
INCH,TZ
T1C0.0118
T2C0.0157
T3C0.0197
T4C0.0299
T5C0.0300
T6C0.0315
T7C0.0394
T8C0.0433
T9C0.0472
T10C0.0591
T11C0.1063
%
G90
G05
T1
X4.39Y-3.7
X4.465Y-3.68
X4.5Y-3.625
X4.575Y-3.475
X4.575Y-4.15
X4.7Y-4.9
X4.875Y-4.9703
X5.1Y-3.825
X5.1Y-3.86
X5.1Y-3.9
X5.1Y-3.94
X5.1Y-3.98
X5.135Y-4.015
X6.Y-3.94
X6.Y-3.9
X6.Y-4.25
X6.0333Y-3.4
X6.07Y-3.435
X6.1Y-4.08
X6.15Y-3.2
X6.185Y-3.23
X6.225Y-3.425
X6.52Y-3.12
X6.55Y-4.59
X6.635Y-3.085
X6.8Y-4.65
X6.8Y-4.455
X7.3Y-4.37
X7.4Y-4.55
T2
X6.245Y-3.46
X6.245Y-3.81
X6.245Y-4.16
X6.245Y-4.51
X6.275Y-3.46
X6.275Y-4.16
X6.275Y-4.51
X6.275Y-3.81
X6.28Y-3.38
X6.28Y-3.73
X6.28Y-4.08
X6.28Y-4.43
X6.315Y-3.38
X6.315Y-3.73
X6.315Y-4.08
X6.315Y-4.43
X6.45Y-3.45
X6.5Y-3.995
X6.5Y-3.45
X6.545Y-3.95
X6.6Y-4.5
X6.6Y-3.8
X6.65Y-3.8
X6.65Y-4.45
X6.7Y-3.2
X6.85Y-3.2
X7.15Y-4.1
X7.155Y-3.8
X7.2Y-3.8
X7.2Y-4.15
T3
X4.0553Y-4.885
X4.0786Y-4.8286
X4.0786Y-4.9414
X4.135Y-4.8053
X4.135Y-4.9647
X4.1914Y-4.8286
X4.1914Y-4.9414
X4.2147Y-4.885
X7.5403Y-2.99
X7.5636Y-2.9336
X7.5636Y-3.0464
X7.62Y-2.9103
X7.62Y-3.0697
X7.6764Y-2.9336
X7.6764Y-3.0464
X7.6997Y-2.99
X7.5403Y-4.885
X7.5636Y-4.8286
X7.5636Y-4.9414
X7.62Y-4.8053
X7.62Y-4.9647
X7.6764Y-4.8286
X7.6764Y-4.9414
X7.6997Y-4.885
X4.0553Y-2.99
X4.0786Y-2.9336
X4.0786Y-3.0464
X4.135Y-2.9103
X4.135Y-3.0697
X4.1914Y-2.9336
X4.1914Y-3.0464
X4.2147Y-2.99
T4
X5.4Y-4.25
X5.45Y-4.35
X5.5Y-4.25
X5.55Y-4.35
X5.6Y-4.25
X5.65Y-4.35
X7.25Y-4.05
X7.3Y-4.15
X7.35Y-4.05
X7.4Y-4.15
X7.45Y-4.05
X7.5Y-4.15
X7.25Y-3.35
X7.3Y-3.45
X7.35Y-3.35
X7.4Y-3.45
X7.45Y-3.35
X7.5Y-3.45
X6.6Y-4.05
X6.65Y-4.15
X6.7Y-4.05
X6.75Y-4.15
X6.8Y-4.05
X6.85Y-4.15
X6.6Y-3.35
X6.65Y-3.45
X6.7Y-3.35
X6.75Y-3.45
X6.8Y-3.35
X6.85Y-3.45
T5
X4.35Y-2.95
X4.35Y-3.05
X4.35Y-3.15
X4.35Y-3.25
X4.35Y-3.35
X4.35Y-3.45
X4.35Y-3.55
X4.35Y-3.65
X4.35Y-3.75
X4.35Y-3.85
X4.35Y-3.95
X4.35Y-4.05
X4.35Y-4.15
X4.35Y-4.25
X4.35Y-4.35
X4.35Y-4.45
X4.35Y-4.55
X4.35Y-4.65
X4.35Y-4.75
X4.35Y-4.85
X4.95Y-2.95
X4.95Y-3.05
X4.95Y-3.15
X4.95Y-3.25
X4.95Y-3.35
X4.95Y-3.45
X4.95Y-3.55
X4.95Y-3.65
X4.95Y-3.75
X4.95Y-3.85
X4.95Y-3.95
X4.95Y-4.05
X4.95Y-4.15
X4.95Y-4.25
X4.95Y-4.35
X4.95Y-4.45
X4.95Y-4.55
X4.95Y-4.65
X4.95Y-4.75
X4.95Y-4.85
T6
X5.887Y-3.4248
X5.95Y-3.3
X5.95Y-3.3984
X6.013Y-3.2736
T7
X6.7Y-2.95
X6.15Y-3.95
X6.Y-3.805
X7.4Y-3.05
X6.85Y-3.05
X4.2Y-4.715
X6.7Y-4.85
X6.15Y-4.25
X7.25Y-4.85
X4.2Y-3.165
X6.15Y-2.95
X6.55Y-4.75
X6.85Y-4.75
X6.3Y-2.95
X5.3Y-3.85
X5.4Y-3.85
X5.5Y-3.85
X5.6Y-3.85
X5.7Y-3.85
X5.8Y-3.85
X6.Y-4.4
X7.25Y-2.95
X7.4Y-4.75
X7.1Y-4.75
X5.75Y-3.65
X6.15Y-4.55
X5.3Y-4.05
X5.4Y-4.05
X5.5Y-4.05
X5.6Y-4.05
X5.7Y-4.05
X5.8Y-4.05
X5.9Y-3.65
X6.15Y-3.65
X7.1Y-3.05
X6.55Y-3.05
T8
X5.3Y-3.7
X5.4Y-3.7
X5.5Y-3.7
T9
X4.2Y-3.34
X4.2Y-3.49
X4.2Y-3.64
X4.2Y-3.79
X4.2Y-3.94
X4.2Y-4.09
X4.2Y-4.24
X4.2Y-4.39
X4.2Y-4.54
T10
X5.75Y-3.
X5.95Y-3.
T11
X7.62Y-2.99
X4.135Y-2.99
X4.135Y-4.885
X7.62Y-4.885
T0
M30
