G04 #@! TF.GenerationSoftware,KiCad,Pcbnew,5.0.2-bee76a0~70~ubuntu18.04.1*
G04 #@! TF.CreationDate,2019-06-23T18:14:28-07:00*
G04 #@! TF.ProjectId,aa-input-controller,61612d69-6e70-4757-942d-636f6e74726f,rev?*
G04 #@! TF.SameCoordinates,Original*
G04 #@! TF.FileFunction,Soldermask,Top*
G04 #@! TF.FilePolarity,Negative*
%FSLAX46Y46*%
G04 Gerber Fmt 4.6, Leading zero omitted, Abs format (unit mm)*
G04 Created by KiCad (PCBNEW 5.0.2-bee76a0~70~ubuntu18.04.1) date Sun 23 Jun 2019 06:14:28 PM PDT*
%MOMM*%
%LPD*%
G01*
G04 APERTURE LIST*
%ADD10C,0.100000*%
G04 APERTURE END LIST*
D10*
G36*
X194335560Y-121482759D02*
X194786084Y-121669372D01*
X194826930Y-121686291D01*
X194846736Y-121699525D01*
X195269153Y-121981775D01*
X195645225Y-122357847D01*
X195645227Y-122357850D01*
X195930781Y-122785211D01*
X195940710Y-122800072D01*
X196144241Y-123291440D01*
X196248000Y-123813072D01*
X196248000Y-124344928D01*
X196144241Y-124866560D01*
X195940710Y-125357928D01*
X195645225Y-125800153D01*
X195269153Y-126176225D01*
X195269150Y-126176227D01*
X194826930Y-126471709D01*
X194826929Y-126471710D01*
X194826928Y-126471710D01*
X194335560Y-126675241D01*
X193813928Y-126779000D01*
X193282072Y-126779000D01*
X192760440Y-126675241D01*
X192269072Y-126471710D01*
X192269071Y-126471710D01*
X192269070Y-126471709D01*
X191826850Y-126176227D01*
X191826847Y-126176225D01*
X191450775Y-125800153D01*
X191155290Y-125357928D01*
X190951759Y-124866560D01*
X190848000Y-124344928D01*
X190848000Y-123813072D01*
X190951759Y-123291440D01*
X191155290Y-122800072D01*
X191165220Y-122785211D01*
X191450773Y-122357850D01*
X191450775Y-122357847D01*
X191826847Y-121981775D01*
X192249264Y-121699525D01*
X192269070Y-121686291D01*
X192309916Y-121669372D01*
X192760440Y-121482759D01*
X193282072Y-121379000D01*
X193813928Y-121379000D01*
X194335560Y-121482759D01*
X194335560Y-121482759D01*
G37*
G36*
X105816560Y-121482759D02*
X106267084Y-121669372D01*
X106307930Y-121686291D01*
X106327736Y-121699525D01*
X106750153Y-121981775D01*
X107126225Y-122357847D01*
X107126227Y-122357850D01*
X107411781Y-122785211D01*
X107421710Y-122800072D01*
X107625241Y-123291440D01*
X107729000Y-123813072D01*
X107729000Y-124344928D01*
X107625241Y-124866560D01*
X107421710Y-125357928D01*
X107126225Y-125800153D01*
X106750153Y-126176225D01*
X106750150Y-126176227D01*
X106307930Y-126471709D01*
X106307929Y-126471710D01*
X106307928Y-126471710D01*
X105816560Y-126675241D01*
X105294928Y-126779000D01*
X104763072Y-126779000D01*
X104241440Y-126675241D01*
X103750072Y-126471710D01*
X103750071Y-126471710D01*
X103750070Y-126471709D01*
X103307850Y-126176227D01*
X103307847Y-126176225D01*
X102931775Y-125800153D01*
X102636290Y-125357928D01*
X102432759Y-124866560D01*
X102329000Y-124344928D01*
X102329000Y-123813072D01*
X102432759Y-123291440D01*
X102636290Y-122800072D01*
X102646220Y-122785211D01*
X102931773Y-122357850D01*
X102931775Y-122357847D01*
X103307847Y-121981775D01*
X103730264Y-121699525D01*
X103750070Y-121686291D01*
X103790916Y-121669372D01*
X104241440Y-121482759D01*
X104763072Y-121379000D01*
X105294928Y-121379000D01*
X105816560Y-121482759D01*
X105816560Y-121482759D01*
G37*
G36*
X115817764Y-121944402D02*
X115940445Y-121968805D01*
X116171571Y-122064541D01*
X116379581Y-122203529D01*
X116556471Y-122380419D01*
X116556473Y-122380422D01*
X116695459Y-122588429D01*
X116791195Y-122819555D01*
X116791195Y-122819557D01*
X116840000Y-123064914D01*
X116840000Y-123315086D01*
X116820669Y-123412267D01*
X116791195Y-123560445D01*
X116695459Y-123791571D01*
X116556471Y-123999581D01*
X116379581Y-124176471D01*
X116379578Y-124176473D01*
X116171571Y-124315459D01*
X115940445Y-124411195D01*
X115828435Y-124433475D01*
X115695086Y-124460000D01*
X115444914Y-124460000D01*
X115311565Y-124433475D01*
X115199555Y-124411195D01*
X114968429Y-124315459D01*
X114760422Y-124176473D01*
X114760419Y-124176471D01*
X114583529Y-123999581D01*
X114444541Y-123791571D01*
X114348805Y-123560445D01*
X114319331Y-123412267D01*
X114300000Y-123315086D01*
X114300000Y-123064914D01*
X114348805Y-122819557D01*
X114348805Y-122819555D01*
X114444541Y-122588429D01*
X114583527Y-122380422D01*
X114583529Y-122380419D01*
X114760419Y-122203529D01*
X114968429Y-122064541D01*
X115199555Y-121968805D01*
X115322236Y-121944402D01*
X115444914Y-121920000D01*
X115695086Y-121920000D01*
X115817764Y-121944402D01*
X115817764Y-121944402D01*
G37*
G36*
X170346497Y-122203527D02*
X170471689Y-122228429D01*
X170653678Y-122303811D01*
X170817463Y-122413249D01*
X170956751Y-122552537D01*
X171066189Y-122716322D01*
X171141571Y-122898311D01*
X171155380Y-122967734D01*
X171180000Y-123091507D01*
X171180000Y-123288493D01*
X171174710Y-123315086D01*
X171141571Y-123481689D01*
X171066189Y-123663678D01*
X170956751Y-123827463D01*
X170817463Y-123966751D01*
X170653678Y-124076189D01*
X170471689Y-124151571D01*
X170355770Y-124174628D01*
X170278493Y-124190000D01*
X170081507Y-124190000D01*
X170004230Y-124174628D01*
X169888311Y-124151571D01*
X169706322Y-124076189D01*
X169542537Y-123966751D01*
X169403249Y-123827463D01*
X169293811Y-123663678D01*
X169218429Y-123481689D01*
X169185290Y-123315086D01*
X169180000Y-123288493D01*
X169180000Y-123091507D01*
X169204620Y-122967734D01*
X169218429Y-122898311D01*
X169293811Y-122716322D01*
X169403249Y-122552537D01*
X169542537Y-122413249D01*
X169706322Y-122303811D01*
X169888311Y-122228429D01*
X170013503Y-122203527D01*
X170081507Y-122190000D01*
X170278493Y-122190000D01*
X170346497Y-122203527D01*
X170346497Y-122203527D01*
G37*
G36*
X184316497Y-122203527D02*
X184441689Y-122228429D01*
X184623678Y-122303811D01*
X184787463Y-122413249D01*
X184926751Y-122552537D01*
X185036189Y-122716322D01*
X185111571Y-122898311D01*
X185125380Y-122967734D01*
X185150000Y-123091507D01*
X185150000Y-123288493D01*
X185144710Y-123315086D01*
X185111571Y-123481689D01*
X185036189Y-123663678D01*
X184926751Y-123827463D01*
X184787463Y-123966751D01*
X184623678Y-124076189D01*
X184441689Y-124151571D01*
X184325770Y-124174628D01*
X184248493Y-124190000D01*
X184051507Y-124190000D01*
X183974230Y-124174628D01*
X183858311Y-124151571D01*
X183676322Y-124076189D01*
X183512537Y-123966751D01*
X183373249Y-123827463D01*
X183263811Y-123663678D01*
X183188429Y-123481689D01*
X183155290Y-123315086D01*
X183150000Y-123288493D01*
X183150000Y-123091507D01*
X183174620Y-122967734D01*
X183188429Y-122898311D01*
X183263811Y-122716322D01*
X183373249Y-122552537D01*
X183512537Y-122413249D01*
X183676322Y-122303811D01*
X183858311Y-122228429D01*
X183983503Y-122203527D01*
X184051507Y-122190000D01*
X184248493Y-122190000D01*
X184316497Y-122203527D01*
X184316497Y-122203527D01*
G37*
G36*
X126492000Y-123952000D02*
X124968000Y-123952000D01*
X124968000Y-122428000D01*
X126492000Y-122428000D01*
X126492000Y-123952000D01*
X126492000Y-123952000D01*
G37*
G36*
X110663195Y-122447522D02*
X110712267Y-122457283D01*
X110850942Y-122514724D01*
X110975750Y-122598118D01*
X111081882Y-122704250D01*
X111165276Y-122829058D01*
X111222717Y-122967734D01*
X111252000Y-123114948D01*
X111252000Y-123265052D01*
X111222717Y-123412266D01*
X111165276Y-123550942D01*
X111081882Y-123675750D01*
X110975750Y-123781882D01*
X110975747Y-123781884D01*
X110850942Y-123865276D01*
X110712267Y-123922717D01*
X110663195Y-123932478D01*
X110565052Y-123952000D01*
X110414948Y-123952000D01*
X110316805Y-123932478D01*
X110267733Y-123922717D01*
X110129058Y-123865276D01*
X110004253Y-123781884D01*
X110004250Y-123781882D01*
X109898118Y-123675750D01*
X109814724Y-123550942D01*
X109757283Y-123412266D01*
X109728000Y-123265052D01*
X109728000Y-123114948D01*
X109757283Y-122967734D01*
X109814724Y-122829058D01*
X109898118Y-122704250D01*
X110004250Y-122598118D01*
X110129058Y-122514724D01*
X110267733Y-122457283D01*
X110316805Y-122447522D01*
X110414948Y-122428000D01*
X110565052Y-122428000D01*
X110663195Y-122447522D01*
X110663195Y-122447522D01*
G37*
G36*
X113215223Y-122579403D02*
X113330784Y-122627270D01*
X113434792Y-122696766D01*
X113523234Y-122785208D01*
X113592730Y-122889216D01*
X113598064Y-122902094D01*
X113640597Y-123004777D01*
X113665000Y-123127458D01*
X113665000Y-123252542D01*
X113652559Y-123315086D01*
X113640597Y-123375223D01*
X113592730Y-123490784D01*
X113523234Y-123594792D01*
X113434792Y-123683234D01*
X113330784Y-123752730D01*
X113215223Y-123800597D01*
X113092542Y-123825000D01*
X112967458Y-123825000D01*
X112844777Y-123800597D01*
X112729216Y-123752730D01*
X112625208Y-123683234D01*
X112536766Y-123594792D01*
X112467270Y-123490784D01*
X112419403Y-123375223D01*
X112407441Y-123315086D01*
X112395000Y-123252542D01*
X112395000Y-123127458D01*
X112419403Y-123004777D01*
X112461936Y-122902094D01*
X112467270Y-122889216D01*
X112536766Y-122785208D01*
X112625208Y-122696766D01*
X112729216Y-122627270D01*
X112844777Y-122579403D01*
X112967458Y-122555000D01*
X113092542Y-122555000D01*
X113215223Y-122579403D01*
X113215223Y-122579403D01*
G37*
G36*
X174151369Y-119662507D02*
X174281689Y-119688429D01*
X174463678Y-119763811D01*
X174627463Y-119873249D01*
X174766751Y-120012537D01*
X174876189Y-120176322D01*
X174951571Y-120358311D01*
X174965380Y-120427734D01*
X174987264Y-120537751D01*
X174990000Y-120551509D01*
X174990000Y-120748491D01*
X174951571Y-120941689D01*
X174876189Y-121123678D01*
X174766751Y-121287463D01*
X174627463Y-121426751D01*
X174463678Y-121536189D01*
X174281689Y-121611571D01*
X174165770Y-121634628D01*
X174088493Y-121650000D01*
X173891507Y-121650000D01*
X173814230Y-121634628D01*
X173698311Y-121611571D01*
X173516322Y-121536189D01*
X173352537Y-121426751D01*
X173213249Y-121287463D01*
X173103811Y-121123678D01*
X173028429Y-120941689D01*
X172990000Y-120748491D01*
X172990000Y-120551509D01*
X172992737Y-120537751D01*
X173014620Y-120427734D01*
X173028429Y-120358311D01*
X173103811Y-120176322D01*
X173213249Y-120012537D01*
X173352537Y-119873249D01*
X173516322Y-119763811D01*
X173698311Y-119688429D01*
X173828631Y-119662507D01*
X173891507Y-119650000D01*
X174088493Y-119650000D01*
X174151369Y-119662507D01*
X174151369Y-119662507D01*
G37*
G36*
X188121369Y-119662507D02*
X188251689Y-119688429D01*
X188433678Y-119763811D01*
X188597463Y-119873249D01*
X188736751Y-120012537D01*
X188846189Y-120176322D01*
X188921571Y-120358311D01*
X188935380Y-120427734D01*
X188957264Y-120537751D01*
X188960000Y-120551509D01*
X188960000Y-120748491D01*
X188921571Y-120941689D01*
X188846189Y-121123678D01*
X188736751Y-121287463D01*
X188597463Y-121426751D01*
X188433678Y-121536189D01*
X188251689Y-121611571D01*
X188135770Y-121634628D01*
X188058493Y-121650000D01*
X187861507Y-121650000D01*
X187784230Y-121634628D01*
X187668311Y-121611571D01*
X187486322Y-121536189D01*
X187322537Y-121426751D01*
X187183249Y-121287463D01*
X187073811Y-121123678D01*
X186998429Y-120941689D01*
X186960000Y-120748491D01*
X186960000Y-120551509D01*
X186962737Y-120537751D01*
X186984620Y-120427734D01*
X186998429Y-120358311D01*
X187073811Y-120176322D01*
X187183249Y-120012537D01*
X187322537Y-119873249D01*
X187486322Y-119763811D01*
X187668311Y-119688429D01*
X187798631Y-119662507D01*
X187861507Y-119650000D01*
X188058493Y-119650000D01*
X188121369Y-119662507D01*
X188121369Y-119662507D01*
G37*
G36*
X166531369Y-119662507D02*
X166661689Y-119688429D01*
X166843678Y-119763811D01*
X167007463Y-119873249D01*
X167146751Y-120012537D01*
X167256189Y-120176322D01*
X167331571Y-120358311D01*
X167345380Y-120427734D01*
X167367264Y-120537751D01*
X167370000Y-120551509D01*
X167370000Y-120748491D01*
X167331571Y-120941689D01*
X167256189Y-121123678D01*
X167146751Y-121287463D01*
X167007463Y-121426751D01*
X166843678Y-121536189D01*
X166661689Y-121611571D01*
X166545770Y-121634628D01*
X166468493Y-121650000D01*
X166271507Y-121650000D01*
X166194230Y-121634628D01*
X166078311Y-121611571D01*
X165896322Y-121536189D01*
X165732537Y-121426751D01*
X165593249Y-121287463D01*
X165483811Y-121123678D01*
X165408429Y-120941689D01*
X165370000Y-120748491D01*
X165370000Y-120551509D01*
X165372737Y-120537751D01*
X165394620Y-120427734D01*
X165408429Y-120358311D01*
X165483811Y-120176322D01*
X165593249Y-120012537D01*
X165732537Y-119873249D01*
X165896322Y-119763811D01*
X166078311Y-119688429D01*
X166208631Y-119662507D01*
X166271507Y-119650000D01*
X166468493Y-119650000D01*
X166531369Y-119662507D01*
X166531369Y-119662507D01*
G37*
G36*
X180501369Y-119662507D02*
X180631689Y-119688429D01*
X180813678Y-119763811D01*
X180977463Y-119873249D01*
X181116751Y-120012537D01*
X181226189Y-120176322D01*
X181301571Y-120358311D01*
X181315380Y-120427734D01*
X181337264Y-120537751D01*
X181340000Y-120551509D01*
X181340000Y-120748491D01*
X181301571Y-120941689D01*
X181226189Y-121123678D01*
X181116751Y-121287463D01*
X180977463Y-121426751D01*
X180813678Y-121536189D01*
X180631689Y-121611571D01*
X180515770Y-121634628D01*
X180438493Y-121650000D01*
X180241507Y-121650000D01*
X180164230Y-121634628D01*
X180048311Y-121611571D01*
X179866322Y-121536189D01*
X179702537Y-121426751D01*
X179563249Y-121287463D01*
X179453811Y-121123678D01*
X179378429Y-120941689D01*
X179340000Y-120748491D01*
X179340000Y-120551509D01*
X179342737Y-120537751D01*
X179364620Y-120427734D01*
X179378429Y-120358311D01*
X179453811Y-120176322D01*
X179563249Y-120012537D01*
X179702537Y-119873249D01*
X179866322Y-119763811D01*
X180048311Y-119688429D01*
X180178631Y-119662507D01*
X180241507Y-119650000D01*
X180438493Y-119650000D01*
X180501369Y-119662507D01*
X180501369Y-119662507D01*
G37*
G36*
X110663195Y-119907522D02*
X110712267Y-119917283D01*
X110850942Y-119974724D01*
X110975750Y-120058118D01*
X111081882Y-120164250D01*
X111165276Y-120289058D01*
X111222717Y-120427734D01*
X111252000Y-120574948D01*
X111252000Y-120725052D01*
X111222717Y-120872266D01*
X111165276Y-121010942D01*
X111081882Y-121135750D01*
X110975750Y-121241882D01*
X110975747Y-121241884D01*
X110850942Y-121325276D01*
X110712267Y-121382717D01*
X110663195Y-121392478D01*
X110565052Y-121412000D01*
X110414948Y-121412000D01*
X110316805Y-121392478D01*
X110267733Y-121382717D01*
X110129058Y-121325276D01*
X110004253Y-121241884D01*
X110004250Y-121241882D01*
X109898118Y-121135750D01*
X109814724Y-121010942D01*
X109757283Y-120872266D01*
X109728000Y-120725052D01*
X109728000Y-120574948D01*
X109757283Y-120427734D01*
X109814724Y-120289058D01*
X109898118Y-120164250D01*
X110004250Y-120058118D01*
X110129058Y-119974724D01*
X110267733Y-119917283D01*
X110316805Y-119907522D01*
X110414948Y-119888000D01*
X110565052Y-119888000D01*
X110663195Y-119907522D01*
X110663195Y-119907522D01*
G37*
G36*
X125903195Y-119907522D02*
X125952267Y-119917283D01*
X126090942Y-119974724D01*
X126215750Y-120058118D01*
X126321882Y-120164250D01*
X126405276Y-120289058D01*
X126462717Y-120427734D01*
X126492000Y-120574948D01*
X126492000Y-120725052D01*
X126462717Y-120872266D01*
X126405276Y-121010942D01*
X126321882Y-121135750D01*
X126215750Y-121241882D01*
X126215747Y-121241884D01*
X126090942Y-121325276D01*
X125952267Y-121382717D01*
X125903195Y-121392478D01*
X125805052Y-121412000D01*
X125654948Y-121412000D01*
X125556805Y-121392478D01*
X125507733Y-121382717D01*
X125369058Y-121325276D01*
X125244253Y-121241884D01*
X125244250Y-121241882D01*
X125138118Y-121135750D01*
X125054724Y-121010942D01*
X124997283Y-120872266D01*
X124968000Y-120725052D01*
X124968000Y-120574948D01*
X124997283Y-120427734D01*
X125054724Y-120289058D01*
X125138118Y-120164250D01*
X125244250Y-120058118D01*
X125369058Y-119974724D01*
X125507733Y-119917283D01*
X125556805Y-119907522D01*
X125654948Y-119888000D01*
X125805052Y-119888000D01*
X125903195Y-119907522D01*
X125903195Y-119907522D01*
G37*
G36*
X106855770Y-118776372D02*
X106971689Y-118799429D01*
X107153678Y-118874811D01*
X107317463Y-118984249D01*
X107456751Y-119123537D01*
X107566189Y-119287322D01*
X107641571Y-119469311D01*
X107664628Y-119585230D01*
X107680000Y-119662507D01*
X107680000Y-119859493D01*
X107668505Y-119917283D01*
X107641571Y-120052689D01*
X107566189Y-120234678D01*
X107456751Y-120398463D01*
X107317463Y-120537751D01*
X107153678Y-120647189D01*
X106971689Y-120722571D01*
X106855770Y-120745628D01*
X106778493Y-120761000D01*
X106581507Y-120761000D01*
X106504230Y-120745628D01*
X106388311Y-120722571D01*
X106206322Y-120647189D01*
X106042537Y-120537751D01*
X105903249Y-120398463D01*
X105793811Y-120234678D01*
X105718429Y-120052689D01*
X105691495Y-119917283D01*
X105680000Y-119859493D01*
X105680000Y-119662507D01*
X105695372Y-119585230D01*
X105718429Y-119469311D01*
X105793811Y-119287322D01*
X105903249Y-119123537D01*
X106042537Y-118984249D01*
X106206322Y-118874811D01*
X106388311Y-118799429D01*
X106504230Y-118776372D01*
X106581507Y-118761000D01*
X106778493Y-118761000D01*
X106855770Y-118776372D01*
X106855770Y-118776372D01*
G37*
G36*
X125903195Y-117367522D02*
X125952267Y-117377283D01*
X126090942Y-117434724D01*
X126215750Y-117518118D01*
X126321882Y-117624250D01*
X126321884Y-117624253D01*
X126405276Y-117749058D01*
X126462717Y-117887733D01*
X126492000Y-118034950D01*
X126492000Y-118185050D01*
X126462717Y-118332267D01*
X126407737Y-118465000D01*
X126405276Y-118470942D01*
X126321882Y-118595750D01*
X126215750Y-118701882D01*
X126215747Y-118701884D01*
X126090942Y-118785276D01*
X125952267Y-118842717D01*
X125903195Y-118852478D01*
X125805052Y-118872000D01*
X125654948Y-118872000D01*
X125556805Y-118852478D01*
X125507733Y-118842717D01*
X125369058Y-118785276D01*
X125244253Y-118701884D01*
X125244250Y-118701882D01*
X125138118Y-118595750D01*
X125054724Y-118470942D01*
X125052263Y-118465000D01*
X124997283Y-118332267D01*
X124968000Y-118185050D01*
X124968000Y-118034950D01*
X124997283Y-117887733D01*
X125054724Y-117749058D01*
X125138116Y-117624253D01*
X125138118Y-117624250D01*
X125244250Y-117518118D01*
X125369058Y-117434724D01*
X125507733Y-117377283D01*
X125556805Y-117367522D01*
X125654948Y-117348000D01*
X125805052Y-117348000D01*
X125903195Y-117367522D01*
X125903195Y-117367522D01*
G37*
G36*
X110663195Y-117367522D02*
X110712267Y-117377283D01*
X110850942Y-117434724D01*
X110975750Y-117518118D01*
X111081882Y-117624250D01*
X111081884Y-117624253D01*
X111165276Y-117749058D01*
X111222717Y-117887733D01*
X111252000Y-118034950D01*
X111252000Y-118185050D01*
X111222717Y-118332267D01*
X111167737Y-118465000D01*
X111165276Y-118470942D01*
X111081882Y-118595750D01*
X110975750Y-118701882D01*
X110975747Y-118701884D01*
X110850942Y-118785276D01*
X110712267Y-118842717D01*
X110663195Y-118852478D01*
X110565052Y-118872000D01*
X110414948Y-118872000D01*
X110316805Y-118852478D01*
X110267733Y-118842717D01*
X110129058Y-118785276D01*
X110004253Y-118701884D01*
X110004250Y-118701882D01*
X109898118Y-118595750D01*
X109814724Y-118470942D01*
X109812263Y-118465000D01*
X109757283Y-118332267D01*
X109728000Y-118185050D01*
X109728000Y-118034950D01*
X109757283Y-117887733D01*
X109814724Y-117749058D01*
X109898116Y-117624253D01*
X109898118Y-117624250D01*
X110004250Y-117518118D01*
X110129058Y-117434724D01*
X110267733Y-117377283D01*
X110316805Y-117367522D01*
X110414948Y-117348000D01*
X110565052Y-117348000D01*
X110663195Y-117367522D01*
X110663195Y-117367522D01*
G37*
G36*
X145883992Y-115277447D02*
X145883994Y-115277448D01*
X145883995Y-115277448D01*
X146179726Y-115399943D01*
X146442286Y-115575380D01*
X146445880Y-115577782D01*
X146672218Y-115804120D01*
X146672220Y-115804123D01*
X146850057Y-116070274D01*
X146964575Y-116346747D01*
X146972553Y-116366008D01*
X147035000Y-116679950D01*
X147035000Y-117000049D01*
X146972552Y-117313995D01*
X146850057Y-117609726D01*
X146850056Y-117609727D01*
X146672218Y-117875880D01*
X146445880Y-118102218D01*
X146445877Y-118102220D01*
X146179726Y-118280057D01*
X145883995Y-118402552D01*
X145883994Y-118402552D01*
X145883992Y-118402553D01*
X145570050Y-118465000D01*
X145249950Y-118465000D01*
X144936008Y-118402553D01*
X144936006Y-118402552D01*
X144936005Y-118402552D01*
X144640274Y-118280057D01*
X144374123Y-118102220D01*
X144374120Y-118102218D01*
X144147782Y-117875880D01*
X143969944Y-117609727D01*
X143969943Y-117609726D01*
X143847448Y-117313995D01*
X143785000Y-117000049D01*
X143785000Y-116679950D01*
X143847447Y-116366008D01*
X143855425Y-116346747D01*
X143969943Y-116070274D01*
X144147780Y-115804123D01*
X144147782Y-115804120D01*
X144374120Y-115577782D01*
X144377714Y-115575380D01*
X144640274Y-115399943D01*
X144936005Y-115277448D01*
X144936006Y-115277448D01*
X144936008Y-115277447D01*
X145249950Y-115215000D01*
X145570050Y-115215000D01*
X145883992Y-115277447D01*
X145883992Y-115277447D01*
G37*
G36*
X135723992Y-115277447D02*
X135723994Y-115277448D01*
X135723995Y-115277448D01*
X136019726Y-115399943D01*
X136282286Y-115575380D01*
X136285880Y-115577782D01*
X136512218Y-115804120D01*
X136512220Y-115804123D01*
X136690057Y-116070274D01*
X136804575Y-116346747D01*
X136812553Y-116366008D01*
X136875000Y-116679950D01*
X136875000Y-117000049D01*
X136812552Y-117313995D01*
X136690057Y-117609726D01*
X136690056Y-117609727D01*
X136512218Y-117875880D01*
X136285880Y-118102218D01*
X136285877Y-118102220D01*
X136019726Y-118280057D01*
X135723995Y-118402552D01*
X135723994Y-118402552D01*
X135723992Y-118402553D01*
X135410050Y-118465000D01*
X135089950Y-118465000D01*
X134776008Y-118402553D01*
X134776006Y-118402552D01*
X134776005Y-118402552D01*
X134480274Y-118280057D01*
X134214123Y-118102220D01*
X134214120Y-118102218D01*
X133987782Y-117875880D01*
X133809944Y-117609727D01*
X133809943Y-117609726D01*
X133687448Y-117313995D01*
X133625000Y-117000049D01*
X133625000Y-116679950D01*
X133687447Y-116366008D01*
X133695425Y-116346747D01*
X133809943Y-116070274D01*
X133987780Y-115804123D01*
X133987782Y-115804120D01*
X134214120Y-115577782D01*
X134217714Y-115575380D01*
X134480274Y-115399943D01*
X134776005Y-115277448D01*
X134776006Y-115277448D01*
X134776008Y-115277447D01*
X135089950Y-115215000D01*
X135410050Y-115215000D01*
X135723992Y-115277447D01*
X135723992Y-115277447D01*
G37*
G36*
X156385770Y-114585372D02*
X156501689Y-114608429D01*
X156683678Y-114683811D01*
X156847463Y-114793249D01*
X156986751Y-114932537D01*
X157096189Y-115096322D01*
X157171571Y-115278311D01*
X157210000Y-115471509D01*
X157210000Y-115668491D01*
X157171571Y-115861689D01*
X157096189Y-116043678D01*
X156986751Y-116207463D01*
X156847463Y-116346751D01*
X156683678Y-116456189D01*
X156501689Y-116531571D01*
X156385770Y-116554628D01*
X156308493Y-116570000D01*
X156111507Y-116570000D01*
X156034230Y-116554628D01*
X155918311Y-116531571D01*
X155736322Y-116456189D01*
X155572537Y-116346751D01*
X155433249Y-116207463D01*
X155323811Y-116043678D01*
X155248429Y-115861689D01*
X155210000Y-115668491D01*
X155210000Y-115471509D01*
X155248429Y-115278311D01*
X155323811Y-115096322D01*
X155433249Y-114932537D01*
X155572537Y-114793249D01*
X155736322Y-114683811D01*
X155918311Y-114608429D01*
X156034230Y-114585372D01*
X156111507Y-114570000D01*
X156308493Y-114570000D01*
X156385770Y-114585372D01*
X156385770Y-114585372D01*
G37*
G36*
X107880000Y-116516000D02*
X105480000Y-116516000D01*
X105480000Y-114116000D01*
X107880000Y-114116000D01*
X107880000Y-116516000D01*
X107880000Y-116516000D01*
G37*
G36*
X125903195Y-114827522D02*
X125952267Y-114837283D01*
X126090942Y-114894724D01*
X126215750Y-114978118D01*
X126321882Y-115084250D01*
X126321884Y-115084253D01*
X126405276Y-115209058D01*
X126448641Y-115313750D01*
X126462717Y-115347734D01*
X126492000Y-115494948D01*
X126492000Y-115645052D01*
X126487337Y-115668493D01*
X126462717Y-115792267D01*
X126433963Y-115861686D01*
X126405276Y-115930942D01*
X126321882Y-116055750D01*
X126215750Y-116161882D01*
X126215747Y-116161884D01*
X126090942Y-116245276D01*
X125952267Y-116302717D01*
X125903195Y-116312478D01*
X125805052Y-116332000D01*
X125654948Y-116332000D01*
X125556805Y-116312478D01*
X125507733Y-116302717D01*
X125369058Y-116245276D01*
X125244253Y-116161884D01*
X125244250Y-116161882D01*
X125138118Y-116055750D01*
X125054724Y-115930942D01*
X125026037Y-115861686D01*
X124997283Y-115792267D01*
X124972663Y-115668493D01*
X124968000Y-115645052D01*
X124968000Y-115494948D01*
X124997283Y-115347734D01*
X125011360Y-115313750D01*
X125054724Y-115209058D01*
X125138116Y-115084253D01*
X125138118Y-115084250D01*
X125244250Y-114978118D01*
X125369058Y-114894724D01*
X125507733Y-114837283D01*
X125556805Y-114827522D01*
X125654948Y-114808000D01*
X125805052Y-114808000D01*
X125903195Y-114827522D01*
X125903195Y-114827522D01*
G37*
G36*
X110663195Y-114827522D02*
X110712267Y-114837283D01*
X110850942Y-114894724D01*
X110975750Y-114978118D01*
X111081882Y-115084250D01*
X111081884Y-115084253D01*
X111165276Y-115209058D01*
X111208641Y-115313750D01*
X111222717Y-115347734D01*
X111252000Y-115494948D01*
X111252000Y-115645052D01*
X111247337Y-115668493D01*
X111222717Y-115792267D01*
X111193963Y-115861686D01*
X111165276Y-115930942D01*
X111081882Y-116055750D01*
X110975750Y-116161882D01*
X110975747Y-116161884D01*
X110850942Y-116245276D01*
X110712267Y-116302717D01*
X110663195Y-116312478D01*
X110565052Y-116332000D01*
X110414948Y-116332000D01*
X110316805Y-116312478D01*
X110267733Y-116302717D01*
X110129058Y-116245276D01*
X110004253Y-116161884D01*
X110004250Y-116161882D01*
X109898118Y-116055750D01*
X109814724Y-115930942D01*
X109786037Y-115861686D01*
X109757283Y-115792267D01*
X109732663Y-115668493D01*
X109728000Y-115645052D01*
X109728000Y-115494948D01*
X109757283Y-115347734D01*
X109771360Y-115313750D01*
X109814724Y-115209058D01*
X109898116Y-115084253D01*
X109898118Y-115084250D01*
X110004250Y-114978118D01*
X110129058Y-114894724D01*
X110267733Y-114837283D01*
X110316805Y-114827522D01*
X110414948Y-114808000D01*
X110565052Y-114808000D01*
X110663195Y-114827522D01*
X110663195Y-114827522D01*
G37*
G36*
X113824116Y-115098595D02*
X113853313Y-115107452D01*
X113880218Y-115121833D01*
X113903808Y-115141192D01*
X113923167Y-115164782D01*
X113937548Y-115191687D01*
X113946405Y-115220884D01*
X113950000Y-115257390D01*
X113950000Y-115882610D01*
X113946405Y-115919116D01*
X113937548Y-115948313D01*
X113923167Y-115975218D01*
X113903808Y-115998808D01*
X113880218Y-116018167D01*
X113853313Y-116032548D01*
X113824116Y-116041405D01*
X113787610Y-116045000D01*
X113237390Y-116045000D01*
X113200884Y-116041405D01*
X113171687Y-116032548D01*
X113144782Y-116018167D01*
X113121192Y-115998808D01*
X113101833Y-115975218D01*
X113087452Y-115948313D01*
X113078595Y-115919116D01*
X113075000Y-115882610D01*
X113075000Y-115257390D01*
X113078595Y-115220884D01*
X113087452Y-115191687D01*
X113101833Y-115164782D01*
X113121192Y-115141192D01*
X113144782Y-115121833D01*
X113171687Y-115107452D01*
X113200884Y-115098595D01*
X113237390Y-115095000D01*
X113787610Y-115095000D01*
X113824116Y-115098595D01*
X113824116Y-115098595D01*
G37*
G36*
X115399116Y-115098595D02*
X115428313Y-115107452D01*
X115455218Y-115121833D01*
X115478808Y-115141192D01*
X115498167Y-115164782D01*
X115512548Y-115191687D01*
X115521405Y-115220884D01*
X115525000Y-115257390D01*
X115525000Y-115882610D01*
X115521405Y-115919116D01*
X115512548Y-115948313D01*
X115498167Y-115975218D01*
X115478808Y-115998808D01*
X115455218Y-116018167D01*
X115428313Y-116032548D01*
X115399116Y-116041405D01*
X115362610Y-116045000D01*
X114812390Y-116045000D01*
X114775884Y-116041405D01*
X114746687Y-116032548D01*
X114719782Y-116018167D01*
X114696192Y-115998808D01*
X114676833Y-115975218D01*
X114662452Y-115948313D01*
X114653595Y-115919116D01*
X114650000Y-115882610D01*
X114650000Y-115257390D01*
X114653595Y-115220884D01*
X114662452Y-115191687D01*
X114676833Y-115164782D01*
X114696192Y-115141192D01*
X114719782Y-115121833D01*
X114746687Y-115107452D01*
X114775884Y-115098595D01*
X114812390Y-115095000D01*
X115362610Y-115095000D01*
X115399116Y-115098595D01*
X115399116Y-115098595D01*
G37*
G36*
X159370000Y-115175000D02*
X158670000Y-115175000D01*
X158670000Y-114725000D01*
X159370000Y-114725000D01*
X159370000Y-115175000D01*
X159370000Y-115175000D01*
G37*
G36*
X161370000Y-114525000D02*
X160670000Y-114525000D01*
X160670000Y-114075000D01*
X161370000Y-114075000D01*
X161370000Y-114525000D01*
X161370000Y-114525000D01*
G37*
G36*
X159370000Y-113875000D02*
X158670000Y-113875000D01*
X158670000Y-113425000D01*
X159370000Y-113425000D01*
X159370000Y-113875000D01*
X159370000Y-113875000D01*
G37*
G36*
X125903195Y-112287522D02*
X125952267Y-112297283D01*
X126063241Y-112343250D01*
X126090942Y-112354724D01*
X126215750Y-112438118D01*
X126321882Y-112544250D01*
X126321884Y-112544253D01*
X126405276Y-112669058D01*
X126462717Y-112807733D01*
X126492000Y-112954950D01*
X126492000Y-113105050D01*
X126462717Y-113252267D01*
X126430964Y-113328926D01*
X126405276Y-113390942D01*
X126321882Y-113515750D01*
X126215750Y-113621882D01*
X126215747Y-113621884D01*
X126090942Y-113705276D01*
X125952267Y-113762717D01*
X125903195Y-113772478D01*
X125805052Y-113792000D01*
X125654948Y-113792000D01*
X125556805Y-113772478D01*
X125507733Y-113762717D01*
X125369058Y-113705276D01*
X125244253Y-113621884D01*
X125244250Y-113621882D01*
X125138118Y-113515750D01*
X125054724Y-113390942D01*
X125029036Y-113328926D01*
X124997283Y-113252267D01*
X124968000Y-113105050D01*
X124968000Y-112954950D01*
X124997283Y-112807733D01*
X125054724Y-112669058D01*
X125138116Y-112544253D01*
X125138118Y-112544250D01*
X125244250Y-112438118D01*
X125369058Y-112354724D01*
X125396759Y-112343250D01*
X125507733Y-112297283D01*
X125556805Y-112287522D01*
X125654948Y-112268000D01*
X125805052Y-112268000D01*
X125903195Y-112287522D01*
X125903195Y-112287522D01*
G37*
G36*
X110663195Y-112287522D02*
X110712267Y-112297283D01*
X110823241Y-112343250D01*
X110850942Y-112354724D01*
X110975750Y-112438118D01*
X111081882Y-112544250D01*
X111081884Y-112544253D01*
X111165276Y-112669058D01*
X111222717Y-112807733D01*
X111252000Y-112954950D01*
X111252000Y-113105050D01*
X111222717Y-113252267D01*
X111190964Y-113328926D01*
X111165276Y-113390942D01*
X111081882Y-113515750D01*
X110975750Y-113621882D01*
X110975747Y-113621884D01*
X110850942Y-113705276D01*
X110712267Y-113762717D01*
X110663195Y-113772478D01*
X110565052Y-113792000D01*
X110414948Y-113792000D01*
X110316805Y-113772478D01*
X110267733Y-113762717D01*
X110129058Y-113705276D01*
X110004253Y-113621884D01*
X110004250Y-113621882D01*
X109898118Y-113515750D01*
X109814724Y-113390942D01*
X109789036Y-113328926D01*
X109757283Y-113252267D01*
X109728000Y-113105050D01*
X109728000Y-112954950D01*
X109757283Y-112807733D01*
X109814724Y-112669058D01*
X109898116Y-112544253D01*
X109898118Y-112544250D01*
X110004250Y-112438118D01*
X110129058Y-112354724D01*
X110156759Y-112343250D01*
X110267733Y-112297283D01*
X110316805Y-112287522D01*
X110414948Y-112268000D01*
X110565052Y-112268000D01*
X110663195Y-112287522D01*
X110663195Y-112287522D01*
G37*
G36*
X115399116Y-112558595D02*
X115428313Y-112567452D01*
X115455218Y-112581833D01*
X115478808Y-112601192D01*
X115498167Y-112624782D01*
X115512548Y-112651687D01*
X115521405Y-112680884D01*
X115525000Y-112717390D01*
X115525000Y-113342610D01*
X115521405Y-113379116D01*
X115512548Y-113408313D01*
X115498167Y-113435218D01*
X115478808Y-113458808D01*
X115455218Y-113478167D01*
X115428313Y-113492548D01*
X115399116Y-113501405D01*
X115362610Y-113505000D01*
X114812390Y-113505000D01*
X114775884Y-113501405D01*
X114746687Y-113492548D01*
X114719782Y-113478167D01*
X114696192Y-113458808D01*
X114676833Y-113435218D01*
X114662452Y-113408313D01*
X114653595Y-113379116D01*
X114650000Y-113342610D01*
X114650000Y-112717390D01*
X114653595Y-112680884D01*
X114662452Y-112651687D01*
X114676833Y-112624782D01*
X114696192Y-112601192D01*
X114719782Y-112581833D01*
X114746687Y-112567452D01*
X114775884Y-112558595D01*
X114812390Y-112555000D01*
X115362610Y-112555000D01*
X115399116Y-112558595D01*
X115399116Y-112558595D01*
G37*
G36*
X113824116Y-112558595D02*
X113853313Y-112567452D01*
X113880218Y-112581833D01*
X113903808Y-112601192D01*
X113923167Y-112624782D01*
X113937548Y-112651687D01*
X113946405Y-112680884D01*
X113950000Y-112717390D01*
X113950000Y-113342610D01*
X113946405Y-113379116D01*
X113937548Y-113408313D01*
X113923167Y-113435218D01*
X113903808Y-113458808D01*
X113880218Y-113478167D01*
X113853313Y-113492548D01*
X113824116Y-113501405D01*
X113787610Y-113505000D01*
X113237390Y-113505000D01*
X113200884Y-113501405D01*
X113171687Y-113492548D01*
X113144782Y-113478167D01*
X113121192Y-113458808D01*
X113101833Y-113435218D01*
X113087452Y-113408313D01*
X113078595Y-113379116D01*
X113075000Y-113342610D01*
X113075000Y-112717390D01*
X113078595Y-112680884D01*
X113087452Y-112651687D01*
X113101833Y-112624782D01*
X113121192Y-112601192D01*
X113144782Y-112581833D01*
X113171687Y-112567452D01*
X113200884Y-112558595D01*
X113237390Y-112555000D01*
X113787610Y-112555000D01*
X113824116Y-112558595D01*
X113824116Y-112558595D01*
G37*
G36*
X166203992Y-110197447D02*
X166203994Y-110197448D01*
X166203995Y-110197448D01*
X166499726Y-110319943D01*
X166642205Y-110415145D01*
X166765880Y-110497782D01*
X166992218Y-110724120D01*
X166992220Y-110724123D01*
X167170057Y-110990274D01*
X167281115Y-111258393D01*
X167292553Y-111286008D01*
X167321344Y-111430750D01*
X167355000Y-111599951D01*
X167355000Y-111920049D01*
X167292552Y-112233995D01*
X167170057Y-112529726D01*
X167041870Y-112721571D01*
X166992218Y-112795880D01*
X166765880Y-113022218D01*
X166765877Y-113022220D01*
X166499726Y-113200057D01*
X166203995Y-113322552D01*
X166203994Y-113322552D01*
X166203992Y-113322553D01*
X165890050Y-113385000D01*
X165569950Y-113385000D01*
X165256008Y-113322553D01*
X165256006Y-113322552D01*
X165256005Y-113322552D01*
X164960274Y-113200057D01*
X164694123Y-113022220D01*
X164694120Y-113022218D01*
X164467782Y-112795880D01*
X164418130Y-112721571D01*
X164289943Y-112529726D01*
X164167448Y-112233995D01*
X164105000Y-111920049D01*
X164105000Y-111599951D01*
X164138656Y-111430750D01*
X164167447Y-111286008D01*
X164178885Y-111258393D01*
X164289943Y-110990274D01*
X164467780Y-110724123D01*
X164467782Y-110724120D01*
X164694120Y-110497782D01*
X164817795Y-110415145D01*
X164960274Y-110319943D01*
X165256005Y-110197448D01*
X165256006Y-110197448D01*
X165256008Y-110197447D01*
X165569950Y-110135000D01*
X165890050Y-110135000D01*
X166203992Y-110197447D01*
X166203992Y-110197447D01*
G37*
G36*
X192873992Y-110197447D02*
X192873994Y-110197448D01*
X192873995Y-110197448D01*
X193169726Y-110319943D01*
X193312205Y-110415145D01*
X193435880Y-110497782D01*
X193662218Y-110724120D01*
X193662220Y-110724123D01*
X193840057Y-110990274D01*
X193951115Y-111258393D01*
X193962553Y-111286008D01*
X193991344Y-111430750D01*
X194025000Y-111599951D01*
X194025000Y-111920049D01*
X193962552Y-112233995D01*
X193840057Y-112529726D01*
X193711870Y-112721571D01*
X193662218Y-112795880D01*
X193435880Y-113022218D01*
X193435877Y-113022220D01*
X193169726Y-113200057D01*
X192873995Y-113322552D01*
X192873994Y-113322552D01*
X192873992Y-113322553D01*
X192560050Y-113385000D01*
X192239950Y-113385000D01*
X191926008Y-113322553D01*
X191926006Y-113322552D01*
X191926005Y-113322552D01*
X191630274Y-113200057D01*
X191364123Y-113022220D01*
X191364120Y-113022218D01*
X191137782Y-112795880D01*
X191088130Y-112721571D01*
X190959943Y-112529726D01*
X190837448Y-112233995D01*
X190775000Y-111920049D01*
X190775000Y-111599951D01*
X190808656Y-111430750D01*
X190837447Y-111286008D01*
X190848885Y-111258393D01*
X190959943Y-110990274D01*
X191137780Y-110724123D01*
X191137782Y-110724120D01*
X191364120Y-110497782D01*
X191487795Y-110415145D01*
X191630274Y-110319943D01*
X191926005Y-110197448D01*
X191926006Y-110197448D01*
X191926008Y-110197447D01*
X192239950Y-110135000D01*
X192560050Y-110135000D01*
X192873992Y-110197447D01*
X192873992Y-110197447D01*
G37*
G36*
X182713992Y-110197447D02*
X182713994Y-110197448D01*
X182713995Y-110197448D01*
X183009726Y-110319943D01*
X183152205Y-110415145D01*
X183275880Y-110497782D01*
X183502218Y-110724120D01*
X183502220Y-110724123D01*
X183680057Y-110990274D01*
X183791115Y-111258393D01*
X183802553Y-111286008D01*
X183831344Y-111430750D01*
X183865000Y-111599951D01*
X183865000Y-111920049D01*
X183802552Y-112233995D01*
X183680057Y-112529726D01*
X183551870Y-112721571D01*
X183502218Y-112795880D01*
X183275880Y-113022218D01*
X183275877Y-113022220D01*
X183009726Y-113200057D01*
X182713995Y-113322552D01*
X182713994Y-113322552D01*
X182713992Y-113322553D01*
X182400050Y-113385000D01*
X182079950Y-113385000D01*
X181766008Y-113322553D01*
X181766006Y-113322552D01*
X181766005Y-113322552D01*
X181470274Y-113200057D01*
X181204123Y-113022220D01*
X181204120Y-113022218D01*
X180977782Y-112795880D01*
X180928130Y-112721571D01*
X180799943Y-112529726D01*
X180677448Y-112233995D01*
X180615000Y-111920049D01*
X180615000Y-111599951D01*
X180648656Y-111430750D01*
X180677447Y-111286008D01*
X180688885Y-111258393D01*
X180799943Y-110990274D01*
X180977780Y-110724123D01*
X180977782Y-110724120D01*
X181204120Y-110497782D01*
X181327795Y-110415145D01*
X181470274Y-110319943D01*
X181766005Y-110197448D01*
X181766006Y-110197448D01*
X181766008Y-110197447D01*
X182079950Y-110135000D01*
X182400050Y-110135000D01*
X182713992Y-110197447D01*
X182713992Y-110197447D01*
G37*
G36*
X176363992Y-110197447D02*
X176363994Y-110197448D01*
X176363995Y-110197448D01*
X176659726Y-110319943D01*
X176802205Y-110415145D01*
X176925880Y-110497782D01*
X177152218Y-110724120D01*
X177152220Y-110724123D01*
X177330057Y-110990274D01*
X177441115Y-111258393D01*
X177452553Y-111286008D01*
X177481344Y-111430750D01*
X177515000Y-111599951D01*
X177515000Y-111920049D01*
X177452552Y-112233995D01*
X177330057Y-112529726D01*
X177201870Y-112721571D01*
X177152218Y-112795880D01*
X176925880Y-113022218D01*
X176925877Y-113022220D01*
X176659726Y-113200057D01*
X176363995Y-113322552D01*
X176363994Y-113322552D01*
X176363992Y-113322553D01*
X176050050Y-113385000D01*
X175729950Y-113385000D01*
X175416008Y-113322553D01*
X175416006Y-113322552D01*
X175416005Y-113322552D01*
X175120274Y-113200057D01*
X174854123Y-113022220D01*
X174854120Y-113022218D01*
X174627782Y-112795880D01*
X174578130Y-112721571D01*
X174449943Y-112529726D01*
X174327448Y-112233995D01*
X174265000Y-111920049D01*
X174265000Y-111599951D01*
X174298656Y-111430750D01*
X174327447Y-111286008D01*
X174338885Y-111258393D01*
X174449943Y-110990274D01*
X174627780Y-110724123D01*
X174627782Y-110724120D01*
X174854120Y-110497782D01*
X174977795Y-110415145D01*
X175120274Y-110319943D01*
X175416005Y-110197448D01*
X175416006Y-110197448D01*
X175416008Y-110197447D01*
X175729950Y-110135000D01*
X176050050Y-110135000D01*
X176363992Y-110197447D01*
X176363992Y-110197447D01*
G37*
G36*
X152575770Y-110775372D02*
X152691689Y-110798429D01*
X152873678Y-110873811D01*
X153037463Y-110983249D01*
X153176751Y-111122537D01*
X153286189Y-111286322D01*
X153361571Y-111468311D01*
X153400000Y-111661509D01*
X153400000Y-111858491D01*
X153361571Y-112051689D01*
X153286189Y-112233678D01*
X153176751Y-112397463D01*
X153037463Y-112536751D01*
X152873678Y-112646189D01*
X152691689Y-112721571D01*
X152575770Y-112744628D01*
X152498493Y-112760000D01*
X152301507Y-112760000D01*
X152224230Y-112744628D01*
X152108311Y-112721571D01*
X151926322Y-112646189D01*
X151762537Y-112536751D01*
X151623249Y-112397463D01*
X151513811Y-112233678D01*
X151438429Y-112051689D01*
X151400000Y-111858491D01*
X151400000Y-111661509D01*
X151438429Y-111468311D01*
X151513811Y-111286322D01*
X151623249Y-111122537D01*
X151762537Y-110983249D01*
X151926322Y-110873811D01*
X152108311Y-110798429D01*
X152224230Y-110775372D01*
X152301507Y-110760000D01*
X152498493Y-110760000D01*
X152575770Y-110775372D01*
X152575770Y-110775372D01*
G37*
G36*
X107030026Y-110352115D02*
X107248412Y-110442573D01*
X107444958Y-110573901D01*
X107612099Y-110741042D01*
X107743427Y-110937588D01*
X107833885Y-111155974D01*
X107880000Y-111387809D01*
X107880000Y-111624191D01*
X107833885Y-111856026D01*
X107743427Y-112074412D01*
X107612099Y-112270958D01*
X107444958Y-112438099D01*
X107248412Y-112569427D01*
X107030026Y-112659885D01*
X106798191Y-112706000D01*
X106561809Y-112706000D01*
X106329974Y-112659885D01*
X106111588Y-112569427D01*
X105915042Y-112438099D01*
X105747901Y-112270958D01*
X105616573Y-112074412D01*
X105526115Y-111856026D01*
X105480000Y-111624191D01*
X105480000Y-111387809D01*
X105526115Y-111155974D01*
X105616573Y-110937588D01*
X105747901Y-110741042D01*
X105915042Y-110573901D01*
X106111588Y-110442573D01*
X106329974Y-110352115D01*
X106561809Y-110306000D01*
X106798191Y-110306000D01*
X107030026Y-110352115D01*
X107030026Y-110352115D01*
G37*
G36*
X160312992Y-111191076D02*
X160346883Y-111201357D01*
X160378111Y-111218048D01*
X160405485Y-111240515D01*
X160427952Y-111267889D01*
X160444643Y-111299117D01*
X160454924Y-111333008D01*
X160459000Y-111374391D01*
X160459000Y-112399609D01*
X160454924Y-112440992D01*
X160444643Y-112474883D01*
X160427952Y-112506111D01*
X160405485Y-112533485D01*
X160378111Y-112555952D01*
X160346883Y-112572643D01*
X160312992Y-112582924D01*
X160271609Y-112587000D01*
X159671391Y-112587000D01*
X159630008Y-112582924D01*
X159596117Y-112572643D01*
X159564889Y-112555952D01*
X159537515Y-112533485D01*
X159515048Y-112506111D01*
X159498357Y-112474883D01*
X159488076Y-112440992D01*
X159484000Y-112399609D01*
X159484000Y-111374391D01*
X159488076Y-111333008D01*
X159498357Y-111299117D01*
X159515048Y-111267889D01*
X159537515Y-111240515D01*
X159564889Y-111218048D01*
X159596117Y-111201357D01*
X159630008Y-111191076D01*
X159671391Y-111187000D01*
X160271609Y-111187000D01*
X160312992Y-111191076D01*
X160312992Y-111191076D01*
G37*
G36*
X162187992Y-111191076D02*
X162221883Y-111201357D01*
X162253111Y-111218048D01*
X162280485Y-111240515D01*
X162302952Y-111267889D01*
X162319643Y-111299117D01*
X162329924Y-111333008D01*
X162334000Y-111374391D01*
X162334000Y-112399609D01*
X162329924Y-112440992D01*
X162319643Y-112474883D01*
X162302952Y-112506111D01*
X162280485Y-112533485D01*
X162253111Y-112555952D01*
X162221883Y-112572643D01*
X162187992Y-112582924D01*
X162146609Y-112587000D01*
X161546391Y-112587000D01*
X161505008Y-112582924D01*
X161471117Y-112572643D01*
X161439889Y-112555952D01*
X161412515Y-112533485D01*
X161390048Y-112506111D01*
X161373357Y-112474883D01*
X161363076Y-112440992D01*
X161359000Y-112399609D01*
X161359000Y-111374391D01*
X161363076Y-111333008D01*
X161373357Y-111299117D01*
X161390048Y-111267889D01*
X161412515Y-111240515D01*
X161439889Y-111218048D01*
X161471117Y-111201357D01*
X161505008Y-111191076D01*
X161546391Y-111187000D01*
X162146609Y-111187000D01*
X162187992Y-111191076D01*
X162187992Y-111191076D01*
G37*
G36*
X125903195Y-109747522D02*
X125952267Y-109757283D01*
X126090942Y-109814724D01*
X126215750Y-109898118D01*
X126321882Y-110004250D01*
X126321884Y-110004253D01*
X126405276Y-110129058D01*
X126448641Y-110233750D01*
X126462717Y-110267734D01*
X126492000Y-110414948D01*
X126492000Y-110565052D01*
X126472478Y-110663195D01*
X126462717Y-110712267D01*
X126405668Y-110849995D01*
X126405276Y-110850942D01*
X126321882Y-110975750D01*
X126215750Y-111081882D01*
X126215747Y-111081884D01*
X126090942Y-111165276D01*
X125952267Y-111222717D01*
X125925310Y-111228079D01*
X125805052Y-111252000D01*
X125654948Y-111252000D01*
X125534690Y-111228079D01*
X125507733Y-111222717D01*
X125369058Y-111165276D01*
X125244253Y-111081884D01*
X125244250Y-111081882D01*
X125138118Y-110975750D01*
X125054724Y-110850942D01*
X125054332Y-110849995D01*
X124997283Y-110712267D01*
X124987522Y-110663195D01*
X124968000Y-110565052D01*
X124968000Y-110414948D01*
X124997283Y-110267734D01*
X125011360Y-110233750D01*
X125054724Y-110129058D01*
X125138116Y-110004253D01*
X125138118Y-110004250D01*
X125244250Y-109898118D01*
X125369058Y-109814724D01*
X125507733Y-109757283D01*
X125556805Y-109747522D01*
X125654948Y-109728000D01*
X125805052Y-109728000D01*
X125903195Y-109747522D01*
X125903195Y-109747522D01*
G37*
G36*
X110663195Y-109747522D02*
X110712267Y-109757283D01*
X110850942Y-109814724D01*
X110975750Y-109898118D01*
X111081882Y-110004250D01*
X111081884Y-110004253D01*
X111165276Y-110129058D01*
X111208641Y-110233750D01*
X111222717Y-110267734D01*
X111252000Y-110414948D01*
X111252000Y-110565052D01*
X111232478Y-110663195D01*
X111222717Y-110712267D01*
X111165668Y-110849995D01*
X111165276Y-110850942D01*
X111081882Y-110975750D01*
X110975750Y-111081882D01*
X110975747Y-111081884D01*
X110850942Y-111165276D01*
X110712267Y-111222717D01*
X110685310Y-111228079D01*
X110565052Y-111252000D01*
X110414948Y-111252000D01*
X110294690Y-111228079D01*
X110267733Y-111222717D01*
X110129058Y-111165276D01*
X110004253Y-111081884D01*
X110004250Y-111081882D01*
X109898118Y-110975750D01*
X109814724Y-110850942D01*
X109814332Y-110849995D01*
X109757283Y-110712267D01*
X109747522Y-110663195D01*
X109728000Y-110565052D01*
X109728000Y-110414948D01*
X109757283Y-110267734D01*
X109771360Y-110233750D01*
X109814724Y-110129058D01*
X109898116Y-110004253D01*
X109898118Y-110004250D01*
X110004250Y-109898118D01*
X110129058Y-109814724D01*
X110267733Y-109757283D01*
X110316805Y-109747522D01*
X110414948Y-109728000D01*
X110565052Y-109728000D01*
X110663195Y-109747522D01*
X110663195Y-109747522D01*
G37*
G36*
X138651683Y-109759206D02*
X138789992Y-109816495D01*
X138914476Y-109899673D01*
X139020327Y-110005524D01*
X139020329Y-110005527D01*
X139020330Y-110005528D01*
X139069469Y-110079070D01*
X139103505Y-110130008D01*
X139160794Y-110268317D01*
X139190000Y-110415145D01*
X139190000Y-110564855D01*
X139160794Y-110711683D01*
X139103505Y-110849992D01*
X139103503Y-110849995D01*
X139057524Y-110918808D01*
X139020327Y-110974476D01*
X138914476Y-111080327D01*
X138789992Y-111163505D01*
X138651683Y-111220794D01*
X138504855Y-111250000D01*
X138355145Y-111250000D01*
X138208317Y-111220794D01*
X138070008Y-111163505D01*
X137945524Y-111080327D01*
X137839673Y-110974476D01*
X137802477Y-110918808D01*
X137756497Y-110849995D01*
X137756495Y-110849992D01*
X137699206Y-110711683D01*
X137670000Y-110564855D01*
X137670000Y-110415145D01*
X137699206Y-110268317D01*
X137756495Y-110130008D01*
X137790531Y-110079070D01*
X137839670Y-110005528D01*
X137839671Y-110005527D01*
X137839673Y-110005524D01*
X137945524Y-109899673D01*
X138070008Y-109816495D01*
X138208317Y-109759206D01*
X138355145Y-109730000D01*
X138504855Y-109730000D01*
X138651683Y-109759206D01*
X138651683Y-109759206D01*
G37*
G36*
X141191683Y-109759206D02*
X141329992Y-109816495D01*
X141454476Y-109899673D01*
X141560327Y-110005524D01*
X141560329Y-110005527D01*
X141560330Y-110005528D01*
X141609469Y-110079070D01*
X141643505Y-110130008D01*
X141700794Y-110268317D01*
X141730000Y-110415145D01*
X141730000Y-110564855D01*
X141700794Y-110711683D01*
X141643505Y-110849992D01*
X141643503Y-110849995D01*
X141597524Y-110918808D01*
X141560327Y-110974476D01*
X141454476Y-111080327D01*
X141329992Y-111163505D01*
X141191683Y-111220794D01*
X141044855Y-111250000D01*
X140895145Y-111250000D01*
X140748317Y-111220794D01*
X140610008Y-111163505D01*
X140485524Y-111080327D01*
X140379673Y-110974476D01*
X140342477Y-110918808D01*
X140296497Y-110849995D01*
X140296495Y-110849992D01*
X140239206Y-110711683D01*
X140210000Y-110564855D01*
X140210000Y-110415145D01*
X140239206Y-110268317D01*
X140296495Y-110130008D01*
X140330531Y-110079070D01*
X140379670Y-110005528D01*
X140379671Y-110005527D01*
X140379673Y-110005524D01*
X140485524Y-109899673D01*
X140610008Y-109816495D01*
X140748317Y-109759206D01*
X140895145Y-109730000D01*
X141044855Y-109730000D01*
X141191683Y-109759206D01*
X141191683Y-109759206D01*
G37*
G36*
X143731683Y-109759206D02*
X143869992Y-109816495D01*
X143994476Y-109899673D01*
X144100327Y-110005524D01*
X144100329Y-110005527D01*
X144100330Y-110005528D01*
X144149469Y-110079070D01*
X144183505Y-110130008D01*
X144240794Y-110268317D01*
X144270000Y-110415145D01*
X144270000Y-110564855D01*
X144240794Y-110711683D01*
X144183505Y-110849992D01*
X144183503Y-110849995D01*
X144137524Y-110918808D01*
X144100327Y-110974476D01*
X143994476Y-111080327D01*
X143869992Y-111163505D01*
X143731683Y-111220794D01*
X143584855Y-111250000D01*
X143435145Y-111250000D01*
X143288317Y-111220794D01*
X143150008Y-111163505D01*
X143025524Y-111080327D01*
X142919673Y-110974476D01*
X142882477Y-110918808D01*
X142836497Y-110849995D01*
X142836495Y-110849992D01*
X142779206Y-110711683D01*
X142750000Y-110564855D01*
X142750000Y-110415145D01*
X142779206Y-110268317D01*
X142836495Y-110130008D01*
X142870531Y-110079070D01*
X142919670Y-110005528D01*
X142919671Y-110005527D01*
X142919673Y-110005524D01*
X143025524Y-109899673D01*
X143150008Y-109816495D01*
X143288317Y-109759206D01*
X143435145Y-109730000D01*
X143584855Y-109730000D01*
X143731683Y-109759206D01*
X143731683Y-109759206D01*
G37*
G36*
X115399116Y-110018595D02*
X115428313Y-110027452D01*
X115455218Y-110041833D01*
X115478808Y-110061192D01*
X115498167Y-110084782D01*
X115512548Y-110111687D01*
X115521405Y-110140884D01*
X115525000Y-110177390D01*
X115525000Y-110802610D01*
X115521405Y-110839116D01*
X115512548Y-110868313D01*
X115498167Y-110895218D01*
X115478808Y-110918808D01*
X115455218Y-110938167D01*
X115428313Y-110952548D01*
X115399116Y-110961405D01*
X115362610Y-110965000D01*
X114812390Y-110965000D01*
X114775884Y-110961405D01*
X114746687Y-110952548D01*
X114719782Y-110938167D01*
X114696192Y-110918808D01*
X114676833Y-110895218D01*
X114662452Y-110868313D01*
X114653595Y-110839116D01*
X114650000Y-110802610D01*
X114650000Y-110177390D01*
X114653595Y-110140884D01*
X114662452Y-110111687D01*
X114676833Y-110084782D01*
X114696192Y-110061192D01*
X114719782Y-110041833D01*
X114746687Y-110027452D01*
X114775884Y-110018595D01*
X114812390Y-110015000D01*
X115362610Y-110015000D01*
X115399116Y-110018595D01*
X115399116Y-110018595D01*
G37*
G36*
X113824116Y-110018595D02*
X113853313Y-110027452D01*
X113880218Y-110041833D01*
X113903808Y-110061192D01*
X113923167Y-110084782D01*
X113937548Y-110111687D01*
X113946405Y-110140884D01*
X113950000Y-110177390D01*
X113950000Y-110802610D01*
X113946405Y-110839116D01*
X113937548Y-110868313D01*
X113923167Y-110895218D01*
X113903808Y-110918808D01*
X113880218Y-110938167D01*
X113853313Y-110952548D01*
X113824116Y-110961405D01*
X113787610Y-110965000D01*
X113237390Y-110965000D01*
X113200884Y-110961405D01*
X113171687Y-110952548D01*
X113144782Y-110938167D01*
X113121192Y-110918808D01*
X113101833Y-110895218D01*
X113087452Y-110868313D01*
X113078595Y-110839116D01*
X113075000Y-110802610D01*
X113075000Y-110177390D01*
X113078595Y-110140884D01*
X113087452Y-110111687D01*
X113101833Y-110084782D01*
X113121192Y-110061192D01*
X113144782Y-110041833D01*
X113171687Y-110027452D01*
X113200884Y-110018595D01*
X113237390Y-110015000D01*
X113787610Y-110015000D01*
X113824116Y-110018595D01*
X113824116Y-110018595D01*
G37*
G36*
X156385770Y-106965372D02*
X156501689Y-106988429D01*
X156683678Y-107063811D01*
X156847463Y-107173249D01*
X156986751Y-107312537D01*
X157096189Y-107476322D01*
X157171571Y-107658311D01*
X157210000Y-107851509D01*
X157210000Y-108048491D01*
X157171571Y-108241689D01*
X157096189Y-108423678D01*
X156986751Y-108587463D01*
X156847463Y-108726751D01*
X156683678Y-108836189D01*
X156501689Y-108911571D01*
X156385770Y-108934628D01*
X156308493Y-108950000D01*
X156111507Y-108950000D01*
X156034230Y-108934628D01*
X155918311Y-108911571D01*
X155736322Y-108836189D01*
X155572537Y-108726751D01*
X155433249Y-108587463D01*
X155323811Y-108423678D01*
X155248429Y-108241689D01*
X155210000Y-108048491D01*
X155210000Y-107851509D01*
X155248429Y-107658311D01*
X155323811Y-107476322D01*
X155433249Y-107312537D01*
X155572537Y-107173249D01*
X155736322Y-107063811D01*
X155918311Y-106988429D01*
X156034230Y-106965372D01*
X156111507Y-106950000D01*
X156308493Y-106950000D01*
X156385770Y-106965372D01*
X156385770Y-106965372D01*
G37*
G36*
X107030026Y-106542115D02*
X107248412Y-106632573D01*
X107444958Y-106763901D01*
X107612099Y-106931042D01*
X107743427Y-107127588D01*
X107833885Y-107345974D01*
X107880000Y-107577809D01*
X107880000Y-107814191D01*
X107833885Y-108046026D01*
X107743427Y-108264412D01*
X107612099Y-108460958D01*
X107444958Y-108628099D01*
X107248412Y-108759427D01*
X107030026Y-108849885D01*
X106798191Y-108896000D01*
X106561809Y-108896000D01*
X106329974Y-108849885D01*
X106111588Y-108759427D01*
X105915042Y-108628099D01*
X105747901Y-108460958D01*
X105616573Y-108264412D01*
X105526115Y-108046026D01*
X105480000Y-107814191D01*
X105480000Y-107577809D01*
X105526115Y-107345974D01*
X105616573Y-107127588D01*
X105747901Y-106931042D01*
X105915042Y-106763901D01*
X106111588Y-106632573D01*
X106329974Y-106542115D01*
X106561809Y-106496000D01*
X106798191Y-106496000D01*
X107030026Y-106542115D01*
X107030026Y-106542115D01*
G37*
G36*
X125903195Y-107207522D02*
X125952267Y-107217283D01*
X126090942Y-107274724D01*
X126215750Y-107358118D01*
X126321882Y-107464250D01*
X126321884Y-107464253D01*
X126405276Y-107589058D01*
X126448641Y-107693750D01*
X126462717Y-107727734D01*
X126492000Y-107874948D01*
X126492000Y-108025052D01*
X126487337Y-108048493D01*
X126462717Y-108172267D01*
X126405668Y-108309995D01*
X126405276Y-108310942D01*
X126321882Y-108435750D01*
X126215750Y-108541882D01*
X126215747Y-108541884D01*
X126090942Y-108625276D01*
X125952267Y-108682717D01*
X125903195Y-108692478D01*
X125805052Y-108712000D01*
X125654948Y-108712000D01*
X125556805Y-108692478D01*
X125507733Y-108682717D01*
X125369058Y-108625276D01*
X125244253Y-108541884D01*
X125244250Y-108541882D01*
X125138118Y-108435750D01*
X125054724Y-108310942D01*
X125054332Y-108309995D01*
X124997283Y-108172267D01*
X124972663Y-108048493D01*
X124968000Y-108025052D01*
X124968000Y-107874948D01*
X124997283Y-107727734D01*
X125011360Y-107693750D01*
X125054724Y-107589058D01*
X125138116Y-107464253D01*
X125138118Y-107464250D01*
X125244250Y-107358118D01*
X125369058Y-107274724D01*
X125507733Y-107217283D01*
X125556805Y-107207522D01*
X125654948Y-107188000D01*
X125805052Y-107188000D01*
X125903195Y-107207522D01*
X125903195Y-107207522D01*
G37*
G36*
X110663195Y-107207522D02*
X110712267Y-107217283D01*
X110850942Y-107274724D01*
X110975750Y-107358118D01*
X111081882Y-107464250D01*
X111081884Y-107464253D01*
X111165276Y-107589058D01*
X111208641Y-107693750D01*
X111222717Y-107727734D01*
X111252000Y-107874948D01*
X111252000Y-108025052D01*
X111247337Y-108048493D01*
X111222717Y-108172267D01*
X111165668Y-108309995D01*
X111165276Y-108310942D01*
X111081882Y-108435750D01*
X110975750Y-108541882D01*
X110975747Y-108541884D01*
X110850942Y-108625276D01*
X110712267Y-108682717D01*
X110663195Y-108692478D01*
X110565052Y-108712000D01*
X110414948Y-108712000D01*
X110316805Y-108692478D01*
X110267733Y-108682717D01*
X110129058Y-108625276D01*
X110004253Y-108541884D01*
X110004250Y-108541882D01*
X109898118Y-108435750D01*
X109814724Y-108310942D01*
X109814332Y-108309995D01*
X109757283Y-108172267D01*
X109732663Y-108048493D01*
X109728000Y-108025052D01*
X109728000Y-107874948D01*
X109757283Y-107727734D01*
X109771360Y-107693750D01*
X109814724Y-107589058D01*
X109898116Y-107464253D01*
X109898118Y-107464250D01*
X110004250Y-107358118D01*
X110129058Y-107274724D01*
X110267733Y-107217283D01*
X110316805Y-107207522D01*
X110414948Y-107188000D01*
X110565052Y-107188000D01*
X110663195Y-107207522D01*
X110663195Y-107207522D01*
G37*
G36*
X142461683Y-107219206D02*
X142599992Y-107276495D01*
X142599995Y-107276497D01*
X142703975Y-107345974D01*
X142724476Y-107359673D01*
X142830327Y-107465524D01*
X142830329Y-107465527D01*
X142830330Y-107465528D01*
X142879469Y-107539070D01*
X142913505Y-107590008D01*
X142970794Y-107728317D01*
X143000000Y-107875145D01*
X143000000Y-108024855D01*
X142970794Y-108171683D01*
X142913505Y-108309992D01*
X142913503Y-108309995D01*
X142867524Y-108378808D01*
X142830327Y-108434476D01*
X142724476Y-108540327D01*
X142724473Y-108540329D01*
X142724472Y-108540330D01*
X142653928Y-108587466D01*
X142599992Y-108623505D01*
X142461683Y-108680794D01*
X142314855Y-108710000D01*
X142165145Y-108710000D01*
X142018317Y-108680794D01*
X141880008Y-108623505D01*
X141826072Y-108587466D01*
X141755528Y-108540330D01*
X141755527Y-108540329D01*
X141755524Y-108540327D01*
X141649673Y-108434476D01*
X141612477Y-108378808D01*
X141566497Y-108309995D01*
X141566495Y-108309992D01*
X141509206Y-108171683D01*
X141480000Y-108024855D01*
X141480000Y-107875145D01*
X141509206Y-107728317D01*
X141566495Y-107590008D01*
X141600531Y-107539070D01*
X141649670Y-107465528D01*
X141649671Y-107465527D01*
X141649673Y-107465524D01*
X141755524Y-107359673D01*
X141776026Y-107345974D01*
X141880005Y-107276497D01*
X141880008Y-107276495D01*
X142018317Y-107219206D01*
X142165145Y-107190000D01*
X142314855Y-107190000D01*
X142461683Y-107219206D01*
X142461683Y-107219206D01*
G37*
G36*
X139921683Y-107219206D02*
X140059992Y-107276495D01*
X140059995Y-107276497D01*
X140163975Y-107345974D01*
X140184476Y-107359673D01*
X140290327Y-107465524D01*
X140290329Y-107465527D01*
X140290330Y-107465528D01*
X140339469Y-107539070D01*
X140373505Y-107590008D01*
X140430794Y-107728317D01*
X140460000Y-107875145D01*
X140460000Y-108024855D01*
X140430794Y-108171683D01*
X140373505Y-108309992D01*
X140373503Y-108309995D01*
X140327524Y-108378808D01*
X140290327Y-108434476D01*
X140184476Y-108540327D01*
X140184473Y-108540329D01*
X140184472Y-108540330D01*
X140113928Y-108587466D01*
X140059992Y-108623505D01*
X139921683Y-108680794D01*
X139774855Y-108710000D01*
X139625145Y-108710000D01*
X139478317Y-108680794D01*
X139340008Y-108623505D01*
X139286072Y-108587466D01*
X139215528Y-108540330D01*
X139215527Y-108540329D01*
X139215524Y-108540327D01*
X139109673Y-108434476D01*
X139072477Y-108378808D01*
X139026497Y-108309995D01*
X139026495Y-108309992D01*
X138969206Y-108171683D01*
X138940000Y-108024855D01*
X138940000Y-107875145D01*
X138969206Y-107728317D01*
X139026495Y-107590008D01*
X139060531Y-107539070D01*
X139109670Y-107465528D01*
X139109671Y-107465527D01*
X139109673Y-107465524D01*
X139215524Y-107359673D01*
X139236026Y-107345974D01*
X139340005Y-107276497D01*
X139340008Y-107276495D01*
X139478317Y-107219206D01*
X139625145Y-107190000D01*
X139774855Y-107190000D01*
X139921683Y-107219206D01*
X139921683Y-107219206D01*
G37*
G36*
X137920000Y-108710000D02*
X136400000Y-108710000D01*
X136400000Y-107190000D01*
X137920000Y-107190000D01*
X137920000Y-108710000D01*
X137920000Y-108710000D01*
G37*
G36*
X115399116Y-107478595D02*
X115428313Y-107487452D01*
X115455218Y-107501833D01*
X115478808Y-107521192D01*
X115498167Y-107544782D01*
X115512548Y-107571687D01*
X115521405Y-107600884D01*
X115525000Y-107637390D01*
X115525000Y-108262610D01*
X115521405Y-108299116D01*
X115512548Y-108328313D01*
X115498167Y-108355218D01*
X115478808Y-108378808D01*
X115455218Y-108398167D01*
X115428313Y-108412548D01*
X115399116Y-108421405D01*
X115362610Y-108425000D01*
X114812390Y-108425000D01*
X114775884Y-108421405D01*
X114746687Y-108412548D01*
X114719782Y-108398167D01*
X114696192Y-108378808D01*
X114676833Y-108355218D01*
X114662452Y-108328313D01*
X114653595Y-108299116D01*
X114650000Y-108262610D01*
X114650000Y-107637390D01*
X114653595Y-107600884D01*
X114662452Y-107571687D01*
X114676833Y-107544782D01*
X114696192Y-107521192D01*
X114719782Y-107501833D01*
X114746687Y-107487452D01*
X114775884Y-107478595D01*
X114812390Y-107475000D01*
X115362610Y-107475000D01*
X115399116Y-107478595D01*
X115399116Y-107478595D01*
G37*
G36*
X113824116Y-107478595D02*
X113853313Y-107487452D01*
X113880218Y-107501833D01*
X113903808Y-107521192D01*
X113923167Y-107544782D01*
X113937548Y-107571687D01*
X113946405Y-107600884D01*
X113950000Y-107637390D01*
X113950000Y-108262610D01*
X113946405Y-108299116D01*
X113937548Y-108328313D01*
X113923167Y-108355218D01*
X113903808Y-108378808D01*
X113880218Y-108398167D01*
X113853313Y-108412548D01*
X113824116Y-108421405D01*
X113787610Y-108425000D01*
X113237390Y-108425000D01*
X113200884Y-108421405D01*
X113171687Y-108412548D01*
X113144782Y-108398167D01*
X113121192Y-108378808D01*
X113101833Y-108355218D01*
X113087452Y-108328313D01*
X113078595Y-108299116D01*
X113075000Y-108262610D01*
X113075000Y-107637390D01*
X113078595Y-107600884D01*
X113087452Y-107571687D01*
X113101833Y-107544782D01*
X113121192Y-107521192D01*
X113144782Y-107501833D01*
X113171687Y-107487452D01*
X113200884Y-107478595D01*
X113237390Y-107475000D01*
X113787610Y-107475000D01*
X113824116Y-107478595D01*
X113824116Y-107478595D01*
G37*
G36*
X159370000Y-106285000D02*
X158670000Y-106285000D01*
X158670000Y-105835000D01*
X159370000Y-105835000D01*
X159370000Y-106285000D01*
X159370000Y-106285000D01*
G37*
G36*
X125903195Y-104667522D02*
X125952267Y-104677283D01*
X126090942Y-104734724D01*
X126215750Y-104818118D01*
X126321882Y-104924250D01*
X126321884Y-104924253D01*
X126405276Y-105049058D01*
X126462717Y-105187733D01*
X126492000Y-105334950D01*
X126492000Y-105485050D01*
X126462717Y-105632267D01*
X126405668Y-105769995D01*
X126405276Y-105770942D01*
X126321882Y-105895750D01*
X126215750Y-106001882D01*
X126215747Y-106001884D01*
X126090942Y-106085276D01*
X125952267Y-106142717D01*
X125903195Y-106152478D01*
X125805052Y-106172000D01*
X125654948Y-106172000D01*
X125556805Y-106152478D01*
X125507733Y-106142717D01*
X125369058Y-106085276D01*
X125244253Y-106001884D01*
X125244250Y-106001882D01*
X125138118Y-105895750D01*
X125054724Y-105770942D01*
X125054332Y-105769995D01*
X124997283Y-105632267D01*
X124968000Y-105485050D01*
X124968000Y-105334950D01*
X124997283Y-105187733D01*
X125054724Y-105049058D01*
X125138116Y-104924253D01*
X125138118Y-104924250D01*
X125244250Y-104818118D01*
X125369058Y-104734724D01*
X125507733Y-104677283D01*
X125556805Y-104667522D01*
X125654948Y-104648000D01*
X125805052Y-104648000D01*
X125903195Y-104667522D01*
X125903195Y-104667522D01*
G37*
G36*
X110663195Y-104667522D02*
X110712267Y-104677283D01*
X110850942Y-104734724D01*
X110975750Y-104818118D01*
X111081882Y-104924250D01*
X111081884Y-104924253D01*
X111165276Y-105049058D01*
X111222717Y-105187733D01*
X111252000Y-105334950D01*
X111252000Y-105485050D01*
X111222717Y-105632267D01*
X111165668Y-105769995D01*
X111165276Y-105770942D01*
X111081882Y-105895750D01*
X110975750Y-106001882D01*
X110975747Y-106001884D01*
X110850942Y-106085276D01*
X110712267Y-106142717D01*
X110663195Y-106152478D01*
X110565052Y-106172000D01*
X110414948Y-106172000D01*
X110316805Y-106152478D01*
X110267733Y-106142717D01*
X110129058Y-106085276D01*
X110004253Y-106001884D01*
X110004250Y-106001882D01*
X109898118Y-105895750D01*
X109814724Y-105770942D01*
X109814332Y-105769995D01*
X109757283Y-105632267D01*
X109728000Y-105485050D01*
X109728000Y-105334950D01*
X109757283Y-105187733D01*
X109814724Y-105049058D01*
X109898116Y-104924253D01*
X109898118Y-104924250D01*
X110004250Y-104818118D01*
X110129058Y-104734724D01*
X110267733Y-104677283D01*
X110316805Y-104667522D01*
X110414948Y-104648000D01*
X110565052Y-104648000D01*
X110663195Y-104667522D01*
X110663195Y-104667522D01*
G37*
G36*
X185641683Y-104679206D02*
X185779992Y-104736495D01*
X185779995Y-104736497D01*
X185902124Y-104818101D01*
X185904476Y-104819673D01*
X186010327Y-104925524D01*
X186093505Y-105050008D01*
X186150794Y-105188317D01*
X186180000Y-105335145D01*
X186180000Y-105484855D01*
X186150794Y-105631683D01*
X186093505Y-105769992D01*
X186010327Y-105894476D01*
X185904476Y-106000327D01*
X185779992Y-106083505D01*
X185641683Y-106140794D01*
X185494855Y-106170000D01*
X185345145Y-106170000D01*
X185198317Y-106140794D01*
X185060008Y-106083505D01*
X184935524Y-106000327D01*
X184829673Y-105894476D01*
X184746495Y-105769992D01*
X184689206Y-105631683D01*
X184660000Y-105484855D01*
X184660000Y-105335145D01*
X184689206Y-105188317D01*
X184746495Y-105050008D01*
X184829673Y-104925524D01*
X184935524Y-104819673D01*
X184937877Y-104818101D01*
X185060005Y-104736497D01*
X185060008Y-104736495D01*
X185198317Y-104679206D01*
X185345145Y-104650000D01*
X185494855Y-104650000D01*
X185641683Y-104679206D01*
X185641683Y-104679206D01*
G37*
G36*
X190721683Y-104679206D02*
X190859992Y-104736495D01*
X190859995Y-104736497D01*
X190982124Y-104818101D01*
X190984476Y-104819673D01*
X191090327Y-104925524D01*
X191173505Y-105050008D01*
X191230794Y-105188317D01*
X191260000Y-105335145D01*
X191260000Y-105484855D01*
X191230794Y-105631683D01*
X191173505Y-105769992D01*
X191090327Y-105894476D01*
X190984476Y-106000327D01*
X190859992Y-106083505D01*
X190721683Y-106140794D01*
X190574855Y-106170000D01*
X190425145Y-106170000D01*
X190278317Y-106140794D01*
X190140008Y-106083505D01*
X190015524Y-106000327D01*
X189909673Y-105894476D01*
X189826495Y-105769992D01*
X189769206Y-105631683D01*
X189740000Y-105484855D01*
X189740000Y-105335145D01*
X189769206Y-105188317D01*
X189826495Y-105050008D01*
X189909673Y-104925524D01*
X190015524Y-104819673D01*
X190017877Y-104818101D01*
X190140005Y-104736497D01*
X190140008Y-104736495D01*
X190278317Y-104679206D01*
X190425145Y-104650000D01*
X190574855Y-104650000D01*
X190721683Y-104679206D01*
X190721683Y-104679206D01*
G37*
G36*
X188181683Y-104679206D02*
X188319992Y-104736495D01*
X188319995Y-104736497D01*
X188442124Y-104818101D01*
X188444476Y-104819673D01*
X188550327Y-104925524D01*
X188633505Y-105050008D01*
X188690794Y-105188317D01*
X188720000Y-105335145D01*
X188720000Y-105484855D01*
X188690794Y-105631683D01*
X188633505Y-105769992D01*
X188550327Y-105894476D01*
X188444476Y-106000327D01*
X188319992Y-106083505D01*
X188181683Y-106140794D01*
X188034855Y-106170000D01*
X187885145Y-106170000D01*
X187738317Y-106140794D01*
X187600008Y-106083505D01*
X187475524Y-106000327D01*
X187369673Y-105894476D01*
X187286495Y-105769992D01*
X187229206Y-105631683D01*
X187200000Y-105484855D01*
X187200000Y-105335145D01*
X187229206Y-105188317D01*
X187286495Y-105050008D01*
X187369673Y-104925524D01*
X187475524Y-104819673D01*
X187477877Y-104818101D01*
X187600005Y-104736497D01*
X187600008Y-104736495D01*
X187738317Y-104679206D01*
X187885145Y-104650000D01*
X188034855Y-104650000D01*
X188181683Y-104679206D01*
X188181683Y-104679206D01*
G37*
G36*
X169131683Y-104679206D02*
X169269992Y-104736495D01*
X169269995Y-104736497D01*
X169392124Y-104818101D01*
X169394476Y-104819673D01*
X169500327Y-104925524D01*
X169583505Y-105050008D01*
X169640794Y-105188317D01*
X169670000Y-105335145D01*
X169670000Y-105484855D01*
X169640794Y-105631683D01*
X169583505Y-105769992D01*
X169500327Y-105894476D01*
X169394476Y-106000327D01*
X169269992Y-106083505D01*
X169131683Y-106140794D01*
X168984855Y-106170000D01*
X168835145Y-106170000D01*
X168688317Y-106140794D01*
X168550008Y-106083505D01*
X168425524Y-106000327D01*
X168319673Y-105894476D01*
X168236495Y-105769992D01*
X168179206Y-105631683D01*
X168150000Y-105484855D01*
X168150000Y-105335145D01*
X168179206Y-105188317D01*
X168236495Y-105050008D01*
X168319673Y-104925524D01*
X168425524Y-104819673D01*
X168427877Y-104818101D01*
X168550005Y-104736497D01*
X168550008Y-104736495D01*
X168688317Y-104679206D01*
X168835145Y-104650000D01*
X168984855Y-104650000D01*
X169131683Y-104679206D01*
X169131683Y-104679206D01*
G37*
G36*
X171671683Y-104679206D02*
X171809992Y-104736495D01*
X171809995Y-104736497D01*
X171932124Y-104818101D01*
X171934476Y-104819673D01*
X172040327Y-104925524D01*
X172123505Y-105050008D01*
X172180794Y-105188317D01*
X172210000Y-105335145D01*
X172210000Y-105484855D01*
X172180794Y-105631683D01*
X172123505Y-105769992D01*
X172040327Y-105894476D01*
X171934476Y-106000327D01*
X171809992Y-106083505D01*
X171671683Y-106140794D01*
X171524855Y-106170000D01*
X171375145Y-106170000D01*
X171228317Y-106140794D01*
X171090008Y-106083505D01*
X170965524Y-106000327D01*
X170859673Y-105894476D01*
X170776495Y-105769992D01*
X170719206Y-105631683D01*
X170690000Y-105484855D01*
X170690000Y-105335145D01*
X170719206Y-105188317D01*
X170776495Y-105050008D01*
X170859673Y-104925524D01*
X170965524Y-104819673D01*
X170967877Y-104818101D01*
X171090005Y-104736497D01*
X171090008Y-104736495D01*
X171228317Y-104679206D01*
X171375145Y-104650000D01*
X171524855Y-104650000D01*
X171671683Y-104679206D01*
X171671683Y-104679206D01*
G37*
G36*
X174211683Y-104679206D02*
X174349992Y-104736495D01*
X174349995Y-104736497D01*
X174472124Y-104818101D01*
X174474476Y-104819673D01*
X174580327Y-104925524D01*
X174663505Y-105050008D01*
X174720794Y-105188317D01*
X174750000Y-105335145D01*
X174750000Y-105484855D01*
X174720794Y-105631683D01*
X174663505Y-105769992D01*
X174580327Y-105894476D01*
X174474476Y-106000327D01*
X174349992Y-106083505D01*
X174211683Y-106140794D01*
X174064855Y-106170000D01*
X173915145Y-106170000D01*
X173768317Y-106140794D01*
X173630008Y-106083505D01*
X173505524Y-106000327D01*
X173399673Y-105894476D01*
X173316495Y-105769992D01*
X173259206Y-105631683D01*
X173230000Y-105484855D01*
X173230000Y-105335145D01*
X173259206Y-105188317D01*
X173316495Y-105050008D01*
X173399673Y-104925524D01*
X173505524Y-104819673D01*
X173507877Y-104818101D01*
X173630005Y-104736497D01*
X173630008Y-104736495D01*
X173768317Y-104679206D01*
X173915145Y-104650000D01*
X174064855Y-104650000D01*
X174211683Y-104679206D01*
X174211683Y-104679206D01*
G37*
G36*
X161370000Y-105635000D02*
X160670000Y-105635000D01*
X160670000Y-105185000D01*
X161370000Y-105185000D01*
X161370000Y-105635000D01*
X161370000Y-105635000D01*
G37*
G36*
X107030026Y-102732115D02*
X107248412Y-102822573D01*
X107444958Y-102953901D01*
X107612099Y-103121042D01*
X107743427Y-103317588D01*
X107833885Y-103535974D01*
X107880000Y-103767809D01*
X107880000Y-104004191D01*
X107833885Y-104236026D01*
X107743427Y-104454412D01*
X107612099Y-104650958D01*
X107444958Y-104818099D01*
X107248412Y-104949427D01*
X107030026Y-105039885D01*
X106798191Y-105086000D01*
X106561809Y-105086000D01*
X106329974Y-105039885D01*
X106111588Y-104949427D01*
X105915042Y-104818099D01*
X105747901Y-104650958D01*
X105616573Y-104454412D01*
X105526115Y-104236026D01*
X105480000Y-104004191D01*
X105480000Y-103767809D01*
X105526115Y-103535974D01*
X105616573Y-103317588D01*
X105747901Y-103121042D01*
X105915042Y-102953901D01*
X106111588Y-102822573D01*
X106329974Y-102732115D01*
X106561809Y-102686000D01*
X106798191Y-102686000D01*
X107030026Y-102732115D01*
X107030026Y-102732115D01*
G37*
G36*
X159370000Y-104985000D02*
X158670000Y-104985000D01*
X158670000Y-104535000D01*
X159370000Y-104535000D01*
X159370000Y-104985000D01*
X159370000Y-104985000D01*
G37*
G36*
X139866630Y-102032299D02*
X140026855Y-102080903D01*
X140174520Y-102159831D01*
X140303949Y-102266051D01*
X140410169Y-102395480D01*
X140489097Y-102543145D01*
X140537701Y-102703370D01*
X140554112Y-102870000D01*
X140537701Y-103036630D01*
X140489097Y-103196855D01*
X140410169Y-103344520D01*
X140303949Y-103473949D01*
X140174520Y-103580169D01*
X140026855Y-103659097D01*
X139866630Y-103707701D01*
X139741752Y-103720000D01*
X139658248Y-103720000D01*
X139533370Y-103707701D01*
X139373145Y-103659097D01*
X139225480Y-103580169D01*
X139096051Y-103473949D01*
X138989831Y-103344520D01*
X138910903Y-103196855D01*
X138862299Y-103036630D01*
X138845888Y-102870000D01*
X138862299Y-102703370D01*
X138910903Y-102543145D01*
X138989831Y-102395480D01*
X139096051Y-102266051D01*
X139225480Y-102159831D01*
X139373145Y-102080903D01*
X139533370Y-102032299D01*
X139658248Y-102020000D01*
X139741752Y-102020000D01*
X139866630Y-102032299D01*
X139866630Y-102032299D01*
G37*
G36*
X137326630Y-102032299D02*
X137486855Y-102080903D01*
X137634520Y-102159831D01*
X137763949Y-102266051D01*
X137870169Y-102395480D01*
X137949097Y-102543145D01*
X137997701Y-102703370D01*
X138014112Y-102870000D01*
X137997701Y-103036630D01*
X137949097Y-103196855D01*
X137870169Y-103344520D01*
X137763949Y-103473949D01*
X137634520Y-103580169D01*
X137486855Y-103659097D01*
X137326630Y-103707701D01*
X137201752Y-103720000D01*
X137118248Y-103720000D01*
X136993370Y-103707701D01*
X136833145Y-103659097D01*
X136685480Y-103580169D01*
X136556051Y-103473949D01*
X136449831Y-103344520D01*
X136370903Y-103196855D01*
X136322299Y-103036630D01*
X136305888Y-102870000D01*
X136322299Y-102703370D01*
X136370903Y-102543145D01*
X136449831Y-102395480D01*
X136556051Y-102266051D01*
X136685480Y-102159831D01*
X136833145Y-102080903D01*
X136993370Y-102032299D01*
X137118248Y-102020000D01*
X137201752Y-102020000D01*
X137326630Y-102032299D01*
X137326630Y-102032299D01*
G37*
G36*
X142406630Y-102032299D02*
X142566855Y-102080903D01*
X142714520Y-102159831D01*
X142843949Y-102266051D01*
X142950169Y-102395480D01*
X143029097Y-102543145D01*
X143077701Y-102703370D01*
X143094112Y-102870000D01*
X143077701Y-103036630D01*
X143029097Y-103196855D01*
X142950169Y-103344520D01*
X142843949Y-103473949D01*
X142714520Y-103580169D01*
X142566855Y-103659097D01*
X142406630Y-103707701D01*
X142281752Y-103720000D01*
X142198248Y-103720000D01*
X142073370Y-103707701D01*
X141913145Y-103659097D01*
X141765480Y-103580169D01*
X141636051Y-103473949D01*
X141529831Y-103344520D01*
X141450903Y-103196855D01*
X141402299Y-103036630D01*
X141385888Y-102870000D01*
X141402299Y-102703370D01*
X141450903Y-102543145D01*
X141529831Y-102395480D01*
X141636051Y-102266051D01*
X141765480Y-102159831D01*
X141913145Y-102080903D01*
X142073370Y-102032299D01*
X142198248Y-102020000D01*
X142281752Y-102020000D01*
X142406630Y-102032299D01*
X142406630Y-102032299D01*
G37*
G36*
X147486630Y-102032299D02*
X147646855Y-102080903D01*
X147794520Y-102159831D01*
X147923949Y-102266051D01*
X148030169Y-102395480D01*
X148109097Y-102543145D01*
X148157701Y-102703370D01*
X148174112Y-102870000D01*
X148157701Y-103036630D01*
X148109097Y-103196855D01*
X148030169Y-103344520D01*
X147923949Y-103473949D01*
X147794520Y-103580169D01*
X147646855Y-103659097D01*
X147486630Y-103707701D01*
X147361752Y-103720000D01*
X147278248Y-103720000D01*
X147153370Y-103707701D01*
X146993145Y-103659097D01*
X146845480Y-103580169D01*
X146716051Y-103473949D01*
X146609831Y-103344520D01*
X146530903Y-103196855D01*
X146482299Y-103036630D01*
X146465888Y-102870000D01*
X146482299Y-102703370D01*
X146530903Y-102543145D01*
X146609831Y-102395480D01*
X146716051Y-102266051D01*
X146845480Y-102159831D01*
X146993145Y-102080903D01*
X147153370Y-102032299D01*
X147278248Y-102020000D01*
X147361752Y-102020000D01*
X147486630Y-102032299D01*
X147486630Y-102032299D01*
G37*
G36*
X135470000Y-103720000D02*
X133770000Y-103720000D01*
X133770000Y-102020000D01*
X135470000Y-102020000D01*
X135470000Y-103720000D01*
X135470000Y-103720000D01*
G37*
G36*
X144946630Y-102032299D02*
X145106855Y-102080903D01*
X145254520Y-102159831D01*
X145383949Y-102266051D01*
X145490169Y-102395480D01*
X145569097Y-102543145D01*
X145617701Y-102703370D01*
X145634112Y-102870000D01*
X145617701Y-103036630D01*
X145569097Y-103196855D01*
X145490169Y-103344520D01*
X145383949Y-103473949D01*
X145254520Y-103580169D01*
X145106855Y-103659097D01*
X144946630Y-103707701D01*
X144821752Y-103720000D01*
X144738248Y-103720000D01*
X144613370Y-103707701D01*
X144453145Y-103659097D01*
X144305480Y-103580169D01*
X144176051Y-103473949D01*
X144069831Y-103344520D01*
X143990903Y-103196855D01*
X143942299Y-103036630D01*
X143925888Y-102870000D01*
X143942299Y-102703370D01*
X143990903Y-102543145D01*
X144069831Y-102395480D01*
X144176051Y-102266051D01*
X144305480Y-102159831D01*
X144453145Y-102080903D01*
X144613370Y-102032299D01*
X144738248Y-102020000D01*
X144821752Y-102020000D01*
X144946630Y-102032299D01*
X144946630Y-102032299D01*
G37*
G36*
X162187992Y-102301076D02*
X162221883Y-102311357D01*
X162253111Y-102328048D01*
X162280485Y-102350515D01*
X162302952Y-102377889D01*
X162319643Y-102409117D01*
X162329924Y-102443008D01*
X162334000Y-102484391D01*
X162334000Y-103509609D01*
X162329924Y-103550992D01*
X162319643Y-103584883D01*
X162302952Y-103616111D01*
X162280485Y-103643485D01*
X162253111Y-103665952D01*
X162221883Y-103682643D01*
X162187992Y-103692924D01*
X162146609Y-103697000D01*
X161546391Y-103697000D01*
X161505008Y-103692924D01*
X161471117Y-103682643D01*
X161439889Y-103665952D01*
X161412515Y-103643485D01*
X161390048Y-103616111D01*
X161373357Y-103584883D01*
X161363076Y-103550992D01*
X161359000Y-103509609D01*
X161359000Y-102484391D01*
X161363076Y-102443008D01*
X161373357Y-102409117D01*
X161390048Y-102377889D01*
X161412515Y-102350515D01*
X161439889Y-102328048D01*
X161471117Y-102311357D01*
X161505008Y-102301076D01*
X161546391Y-102297000D01*
X162146609Y-102297000D01*
X162187992Y-102301076D01*
X162187992Y-102301076D01*
G37*
G36*
X160312992Y-102301076D02*
X160346883Y-102311357D01*
X160378111Y-102328048D01*
X160405485Y-102350515D01*
X160427952Y-102377889D01*
X160444643Y-102409117D01*
X160454924Y-102443008D01*
X160459000Y-102484391D01*
X160459000Y-103509609D01*
X160454924Y-103550992D01*
X160444643Y-103584883D01*
X160427952Y-103616111D01*
X160405485Y-103643485D01*
X160378111Y-103665952D01*
X160346883Y-103682643D01*
X160312992Y-103692924D01*
X160271609Y-103697000D01*
X159671391Y-103697000D01*
X159630008Y-103692924D01*
X159596117Y-103682643D01*
X159564889Y-103665952D01*
X159537515Y-103643485D01*
X159515048Y-103616111D01*
X159498357Y-103584883D01*
X159488076Y-103550992D01*
X159484000Y-103509609D01*
X159484000Y-102484391D01*
X159488076Y-102443008D01*
X159498357Y-102409117D01*
X159515048Y-102377889D01*
X159537515Y-102350515D01*
X159564889Y-102328048D01*
X159596117Y-102311357D01*
X159630008Y-102301076D01*
X159671391Y-102297000D01*
X160271609Y-102297000D01*
X160312992Y-102301076D01*
X160312992Y-102301076D01*
G37*
G36*
X125903195Y-102127522D02*
X125952267Y-102137283D01*
X126006705Y-102159832D01*
X126090942Y-102194724D01*
X126215750Y-102278118D01*
X126321882Y-102384250D01*
X126321884Y-102384253D01*
X126405276Y-102509058D01*
X126405670Y-102510008D01*
X126462717Y-102647734D01*
X126492000Y-102794948D01*
X126492000Y-102945052D01*
X126473784Y-103036629D01*
X126462717Y-103092267D01*
X126405668Y-103229995D01*
X126405276Y-103230942D01*
X126321882Y-103355750D01*
X126215750Y-103461882D01*
X126215747Y-103461884D01*
X126090942Y-103545276D01*
X125952267Y-103602717D01*
X125903195Y-103612478D01*
X125805052Y-103632000D01*
X125654948Y-103632000D01*
X125556805Y-103612478D01*
X125507733Y-103602717D01*
X125369058Y-103545276D01*
X125244253Y-103461884D01*
X125244250Y-103461882D01*
X125138118Y-103355750D01*
X125054724Y-103230942D01*
X125054332Y-103229995D01*
X124997283Y-103092267D01*
X124986216Y-103036629D01*
X124968000Y-102945052D01*
X124968000Y-102794948D01*
X124997283Y-102647734D01*
X125054331Y-102510008D01*
X125054724Y-102509058D01*
X125138116Y-102384253D01*
X125138118Y-102384250D01*
X125244250Y-102278118D01*
X125369058Y-102194724D01*
X125453295Y-102159832D01*
X125507733Y-102137283D01*
X125556805Y-102127522D01*
X125654948Y-102108000D01*
X125805052Y-102108000D01*
X125903195Y-102127522D01*
X125903195Y-102127522D01*
G37*
G36*
X110663195Y-102127522D02*
X110712267Y-102137283D01*
X110766705Y-102159832D01*
X110850942Y-102194724D01*
X110975750Y-102278118D01*
X111081882Y-102384250D01*
X111081884Y-102384253D01*
X111165276Y-102509058D01*
X111165670Y-102510008D01*
X111222717Y-102647734D01*
X111252000Y-102794948D01*
X111252000Y-102945052D01*
X111233784Y-103036629D01*
X111222717Y-103092267D01*
X111165668Y-103229995D01*
X111165276Y-103230942D01*
X111081882Y-103355750D01*
X110975750Y-103461882D01*
X110975747Y-103461884D01*
X110850942Y-103545276D01*
X110712267Y-103602717D01*
X110663195Y-103612478D01*
X110565052Y-103632000D01*
X110414948Y-103632000D01*
X110316805Y-103612478D01*
X110267733Y-103602717D01*
X110129058Y-103545276D01*
X110004253Y-103461884D01*
X110004250Y-103461882D01*
X109898118Y-103355750D01*
X109814724Y-103230942D01*
X109814332Y-103229995D01*
X109757283Y-103092267D01*
X109746216Y-103036629D01*
X109728000Y-102945052D01*
X109728000Y-102794948D01*
X109757283Y-102647734D01*
X109814331Y-102510008D01*
X109814724Y-102509058D01*
X109898116Y-102384253D01*
X109898118Y-102384250D01*
X110004250Y-102278118D01*
X110129058Y-102194724D01*
X110213295Y-102159832D01*
X110267733Y-102137283D01*
X110316805Y-102127522D01*
X110414948Y-102108000D01*
X110565052Y-102108000D01*
X110663195Y-102127522D01*
X110663195Y-102127522D01*
G37*
G36*
X172941683Y-102139206D02*
X173079992Y-102196495D01*
X173079995Y-102196497D01*
X173184090Y-102266051D01*
X173204476Y-102279673D01*
X173310327Y-102385524D01*
X173310329Y-102385527D01*
X173310330Y-102385528D01*
X173348737Y-102443008D01*
X173393505Y-102510008D01*
X173450794Y-102648317D01*
X173480000Y-102795145D01*
X173480000Y-102944855D01*
X173450794Y-103091683D01*
X173393505Y-103229992D01*
X173393503Y-103229995D01*
X173316980Y-103344520D01*
X173310327Y-103354476D01*
X173204476Y-103460327D01*
X173204473Y-103460329D01*
X173204472Y-103460330D01*
X173143900Y-103500803D01*
X173079992Y-103543505D01*
X172941683Y-103600794D01*
X172794855Y-103630000D01*
X172645145Y-103630000D01*
X172498317Y-103600794D01*
X172360008Y-103543505D01*
X172296100Y-103500803D01*
X172235528Y-103460330D01*
X172235527Y-103460329D01*
X172235524Y-103460327D01*
X172129673Y-103354476D01*
X172123021Y-103344520D01*
X172046497Y-103229995D01*
X172046495Y-103229992D01*
X171989206Y-103091683D01*
X171960000Y-102944855D01*
X171960000Y-102795145D01*
X171989206Y-102648317D01*
X172046495Y-102510008D01*
X172091263Y-102443008D01*
X172129670Y-102385528D01*
X172129671Y-102385527D01*
X172129673Y-102385524D01*
X172235524Y-102279673D01*
X172255911Y-102266051D01*
X172360005Y-102196497D01*
X172360008Y-102196495D01*
X172498317Y-102139206D01*
X172645145Y-102110000D01*
X172794855Y-102110000D01*
X172941683Y-102139206D01*
X172941683Y-102139206D01*
G37*
G36*
X170401683Y-102139206D02*
X170539992Y-102196495D01*
X170539995Y-102196497D01*
X170644090Y-102266051D01*
X170664476Y-102279673D01*
X170770327Y-102385524D01*
X170770329Y-102385527D01*
X170770330Y-102385528D01*
X170808737Y-102443008D01*
X170853505Y-102510008D01*
X170910794Y-102648317D01*
X170940000Y-102795145D01*
X170940000Y-102944855D01*
X170910794Y-103091683D01*
X170853505Y-103229992D01*
X170853503Y-103229995D01*
X170776980Y-103344520D01*
X170770327Y-103354476D01*
X170664476Y-103460327D01*
X170664473Y-103460329D01*
X170664472Y-103460330D01*
X170603900Y-103500803D01*
X170539992Y-103543505D01*
X170401683Y-103600794D01*
X170254855Y-103630000D01*
X170105145Y-103630000D01*
X169958317Y-103600794D01*
X169820008Y-103543505D01*
X169756100Y-103500803D01*
X169695528Y-103460330D01*
X169695527Y-103460329D01*
X169695524Y-103460327D01*
X169589673Y-103354476D01*
X169583021Y-103344520D01*
X169506497Y-103229995D01*
X169506495Y-103229992D01*
X169449206Y-103091683D01*
X169420000Y-102944855D01*
X169420000Y-102795145D01*
X169449206Y-102648317D01*
X169506495Y-102510008D01*
X169551263Y-102443008D01*
X169589670Y-102385528D01*
X169589671Y-102385527D01*
X169589673Y-102385524D01*
X169695524Y-102279673D01*
X169715911Y-102266051D01*
X169820005Y-102196497D01*
X169820008Y-102196495D01*
X169958317Y-102139206D01*
X170105145Y-102110000D01*
X170254855Y-102110000D01*
X170401683Y-102139206D01*
X170401683Y-102139206D01*
G37*
G36*
X186911683Y-102139206D02*
X187049992Y-102196495D01*
X187049995Y-102196497D01*
X187154090Y-102266051D01*
X187174476Y-102279673D01*
X187280327Y-102385524D01*
X187280329Y-102385527D01*
X187280330Y-102385528D01*
X187318737Y-102443008D01*
X187363505Y-102510008D01*
X187420794Y-102648317D01*
X187450000Y-102795145D01*
X187450000Y-102944855D01*
X187420794Y-103091683D01*
X187363505Y-103229992D01*
X187363503Y-103229995D01*
X187286980Y-103344520D01*
X187280327Y-103354476D01*
X187174476Y-103460327D01*
X187174473Y-103460329D01*
X187174472Y-103460330D01*
X187113900Y-103500803D01*
X187049992Y-103543505D01*
X186911683Y-103600794D01*
X186764855Y-103630000D01*
X186615145Y-103630000D01*
X186468317Y-103600794D01*
X186330008Y-103543505D01*
X186266100Y-103500803D01*
X186205528Y-103460330D01*
X186205527Y-103460329D01*
X186205524Y-103460327D01*
X186099673Y-103354476D01*
X186093021Y-103344520D01*
X186016497Y-103229995D01*
X186016495Y-103229992D01*
X185959206Y-103091683D01*
X185930000Y-102944855D01*
X185930000Y-102795145D01*
X185959206Y-102648317D01*
X186016495Y-102510008D01*
X186061263Y-102443008D01*
X186099670Y-102385528D01*
X186099671Y-102385527D01*
X186099673Y-102385524D01*
X186205524Y-102279673D01*
X186225911Y-102266051D01*
X186330005Y-102196497D01*
X186330008Y-102196495D01*
X186468317Y-102139206D01*
X186615145Y-102110000D01*
X186764855Y-102110000D01*
X186911683Y-102139206D01*
X186911683Y-102139206D01*
G37*
G36*
X168400000Y-103630000D02*
X166880000Y-103630000D01*
X166880000Y-102110000D01*
X168400000Y-102110000D01*
X168400000Y-103630000D01*
X168400000Y-103630000D01*
G37*
G36*
X189451683Y-102139206D02*
X189589992Y-102196495D01*
X189589995Y-102196497D01*
X189694090Y-102266051D01*
X189714476Y-102279673D01*
X189820327Y-102385524D01*
X189820329Y-102385527D01*
X189820330Y-102385528D01*
X189858737Y-102443008D01*
X189903505Y-102510008D01*
X189960794Y-102648317D01*
X189990000Y-102795145D01*
X189990000Y-102944855D01*
X189960794Y-103091683D01*
X189903505Y-103229992D01*
X189903503Y-103229995D01*
X189826980Y-103344520D01*
X189820327Y-103354476D01*
X189714476Y-103460327D01*
X189714473Y-103460329D01*
X189714472Y-103460330D01*
X189653900Y-103500803D01*
X189589992Y-103543505D01*
X189451683Y-103600794D01*
X189304855Y-103630000D01*
X189155145Y-103630000D01*
X189008317Y-103600794D01*
X188870008Y-103543505D01*
X188806100Y-103500803D01*
X188745528Y-103460330D01*
X188745527Y-103460329D01*
X188745524Y-103460327D01*
X188639673Y-103354476D01*
X188633021Y-103344520D01*
X188556497Y-103229995D01*
X188556495Y-103229992D01*
X188499206Y-103091683D01*
X188470000Y-102944855D01*
X188470000Y-102795145D01*
X188499206Y-102648317D01*
X188556495Y-102510008D01*
X188601263Y-102443008D01*
X188639670Y-102385528D01*
X188639671Y-102385527D01*
X188639673Y-102385524D01*
X188745524Y-102279673D01*
X188765911Y-102266051D01*
X188870005Y-102196497D01*
X188870008Y-102196495D01*
X189008317Y-102139206D01*
X189155145Y-102110000D01*
X189304855Y-102110000D01*
X189451683Y-102139206D01*
X189451683Y-102139206D01*
G37*
G36*
X184910000Y-103630000D02*
X183390000Y-103630000D01*
X183390000Y-102110000D01*
X184910000Y-102110000D01*
X184910000Y-103630000D01*
X184910000Y-103630000D01*
G37*
G36*
X156385770Y-99345372D02*
X156501689Y-99368429D01*
X156683678Y-99443811D01*
X156847463Y-99553249D01*
X156986751Y-99692537D01*
X157096189Y-99856322D01*
X157171571Y-100038311D01*
X157210000Y-100231509D01*
X157210000Y-100428491D01*
X157171571Y-100621689D01*
X157096189Y-100803678D01*
X156986751Y-100967463D01*
X156847463Y-101106751D01*
X156683678Y-101216189D01*
X156501689Y-101291571D01*
X156385770Y-101314628D01*
X156308493Y-101330000D01*
X156111507Y-101330000D01*
X156034230Y-101314628D01*
X155918311Y-101291571D01*
X155736322Y-101216189D01*
X155572537Y-101106751D01*
X155433249Y-100967463D01*
X155323811Y-100803678D01*
X155248429Y-100621689D01*
X155210000Y-100428491D01*
X155210000Y-100231509D01*
X155248429Y-100038311D01*
X155323811Y-99856322D01*
X155433249Y-99692537D01*
X155572537Y-99553249D01*
X155736322Y-99443811D01*
X155918311Y-99368429D01*
X156034230Y-99345372D01*
X156111507Y-99330000D01*
X156308493Y-99330000D01*
X156385770Y-99345372D01*
X156385770Y-99345372D01*
G37*
G36*
X107030026Y-98922115D02*
X107248412Y-99012573D01*
X107444958Y-99143901D01*
X107612099Y-99311042D01*
X107743427Y-99507588D01*
X107833885Y-99725974D01*
X107880000Y-99957809D01*
X107880000Y-100194191D01*
X107833885Y-100426026D01*
X107743427Y-100644412D01*
X107612099Y-100840958D01*
X107444958Y-101008099D01*
X107248412Y-101139427D01*
X107030026Y-101229885D01*
X106798191Y-101276000D01*
X106561809Y-101276000D01*
X106329974Y-101229885D01*
X106111588Y-101139427D01*
X105915042Y-101008099D01*
X105747901Y-100840958D01*
X105616573Y-100644412D01*
X105526115Y-100426026D01*
X105480000Y-100194191D01*
X105480000Y-99957809D01*
X105526115Y-99725974D01*
X105616573Y-99507588D01*
X105747901Y-99311042D01*
X105915042Y-99143901D01*
X106111588Y-99012573D01*
X106329974Y-98922115D01*
X106561809Y-98876000D01*
X106798191Y-98876000D01*
X107030026Y-98922115D01*
X107030026Y-98922115D01*
G37*
G36*
X110663195Y-99587522D02*
X110712267Y-99597283D01*
X110850942Y-99654724D01*
X110975750Y-99738118D01*
X111081882Y-99844250D01*
X111165276Y-99969058D01*
X111222717Y-100107734D01*
X111252000Y-100254948D01*
X111252000Y-100405052D01*
X111222717Y-100552266D01*
X111165276Y-100690942D01*
X111081882Y-100815750D01*
X110975750Y-100921882D01*
X110975747Y-100921884D01*
X110850942Y-101005276D01*
X110712267Y-101062717D01*
X110663195Y-101072478D01*
X110565052Y-101092000D01*
X110414948Y-101092000D01*
X110316805Y-101072478D01*
X110267733Y-101062717D01*
X110129058Y-101005276D01*
X110004253Y-100921884D01*
X110004250Y-100921882D01*
X109898118Y-100815750D01*
X109814724Y-100690942D01*
X109757283Y-100552266D01*
X109728000Y-100405052D01*
X109728000Y-100254948D01*
X109757283Y-100107734D01*
X109814724Y-99969058D01*
X109898118Y-99844250D01*
X110004250Y-99738118D01*
X110129058Y-99654724D01*
X110267733Y-99597283D01*
X110316805Y-99587522D01*
X110414948Y-99568000D01*
X110565052Y-99568000D01*
X110663195Y-99587522D01*
X110663195Y-99587522D01*
G37*
G36*
X125903195Y-99587522D02*
X125952267Y-99597283D01*
X126090942Y-99654724D01*
X126215750Y-99738118D01*
X126321882Y-99844250D01*
X126405276Y-99969058D01*
X126462717Y-100107734D01*
X126492000Y-100254948D01*
X126492000Y-100405052D01*
X126462717Y-100552266D01*
X126405276Y-100690942D01*
X126321882Y-100815750D01*
X126215750Y-100921882D01*
X126215747Y-100921884D01*
X126090942Y-101005276D01*
X125952267Y-101062717D01*
X125903195Y-101072478D01*
X125805052Y-101092000D01*
X125654948Y-101092000D01*
X125556805Y-101072478D01*
X125507733Y-101062717D01*
X125369058Y-101005276D01*
X125244253Y-100921884D01*
X125244250Y-100921882D01*
X125138118Y-100815750D01*
X125054724Y-100690942D01*
X124997283Y-100552266D01*
X124968000Y-100405052D01*
X124968000Y-100254948D01*
X124997283Y-100107734D01*
X125054724Y-99969058D01*
X125138118Y-99844250D01*
X125244250Y-99738118D01*
X125369058Y-99654724D01*
X125507733Y-99597283D01*
X125556805Y-99587522D01*
X125654948Y-99568000D01*
X125805052Y-99568000D01*
X125903195Y-99587522D01*
X125903195Y-99587522D01*
G37*
G36*
X135470000Y-98640000D02*
X133770000Y-98640000D01*
X133770000Y-96940000D01*
X135470000Y-96940000D01*
X135470000Y-98640000D01*
X135470000Y-98640000D01*
G37*
G36*
X137326630Y-96952299D02*
X137486855Y-97000903D01*
X137634520Y-97079831D01*
X137763949Y-97186051D01*
X137870169Y-97315480D01*
X137949097Y-97463145D01*
X137997701Y-97623370D01*
X138014112Y-97790000D01*
X137997701Y-97956630D01*
X137949097Y-98116855D01*
X137870169Y-98264520D01*
X137763949Y-98393949D01*
X137634520Y-98500169D01*
X137486855Y-98579097D01*
X137326630Y-98627701D01*
X137201752Y-98640000D01*
X137118248Y-98640000D01*
X136993370Y-98627701D01*
X136833145Y-98579097D01*
X136685480Y-98500169D01*
X136556051Y-98393949D01*
X136449831Y-98264520D01*
X136370903Y-98116855D01*
X136322299Y-97956630D01*
X136305888Y-97790000D01*
X136322299Y-97623370D01*
X136370903Y-97463145D01*
X136449831Y-97315480D01*
X136556051Y-97186051D01*
X136685480Y-97079831D01*
X136833145Y-97000903D01*
X136993370Y-96952299D01*
X137118248Y-96940000D01*
X137201752Y-96940000D01*
X137326630Y-96952299D01*
X137326630Y-96952299D01*
G37*
G36*
X142406630Y-96952299D02*
X142566855Y-97000903D01*
X142714520Y-97079831D01*
X142843949Y-97186051D01*
X142950169Y-97315480D01*
X143029097Y-97463145D01*
X143077701Y-97623370D01*
X143094112Y-97790000D01*
X143077701Y-97956630D01*
X143029097Y-98116855D01*
X142950169Y-98264520D01*
X142843949Y-98393949D01*
X142714520Y-98500169D01*
X142566855Y-98579097D01*
X142406630Y-98627701D01*
X142281752Y-98640000D01*
X142198248Y-98640000D01*
X142073370Y-98627701D01*
X141913145Y-98579097D01*
X141765480Y-98500169D01*
X141636051Y-98393949D01*
X141529831Y-98264520D01*
X141450903Y-98116855D01*
X141402299Y-97956630D01*
X141385888Y-97790000D01*
X141402299Y-97623370D01*
X141450903Y-97463145D01*
X141529831Y-97315480D01*
X141636051Y-97186051D01*
X141765480Y-97079831D01*
X141913145Y-97000903D01*
X142073370Y-96952299D01*
X142198248Y-96940000D01*
X142281752Y-96940000D01*
X142406630Y-96952299D01*
X142406630Y-96952299D01*
G37*
G36*
X139866630Y-96952299D02*
X140026855Y-97000903D01*
X140174520Y-97079831D01*
X140303949Y-97186051D01*
X140410169Y-97315480D01*
X140489097Y-97463145D01*
X140537701Y-97623370D01*
X140554112Y-97790000D01*
X140537701Y-97956630D01*
X140489097Y-98116855D01*
X140410169Y-98264520D01*
X140303949Y-98393949D01*
X140174520Y-98500169D01*
X140026855Y-98579097D01*
X139866630Y-98627701D01*
X139741752Y-98640000D01*
X139658248Y-98640000D01*
X139533370Y-98627701D01*
X139373145Y-98579097D01*
X139225480Y-98500169D01*
X139096051Y-98393949D01*
X138989831Y-98264520D01*
X138910903Y-98116855D01*
X138862299Y-97956630D01*
X138845888Y-97790000D01*
X138862299Y-97623370D01*
X138910903Y-97463145D01*
X138989831Y-97315480D01*
X139096051Y-97186051D01*
X139225480Y-97079831D01*
X139373145Y-97000903D01*
X139533370Y-96952299D01*
X139658248Y-96940000D01*
X139741752Y-96940000D01*
X139866630Y-96952299D01*
X139866630Y-96952299D01*
G37*
G36*
X144946630Y-96952299D02*
X145106855Y-97000903D01*
X145254520Y-97079831D01*
X145383949Y-97186051D01*
X145490169Y-97315480D01*
X145569097Y-97463145D01*
X145617701Y-97623370D01*
X145634112Y-97790000D01*
X145617701Y-97956630D01*
X145569097Y-98116855D01*
X145490169Y-98264520D01*
X145383949Y-98393949D01*
X145254520Y-98500169D01*
X145106855Y-98579097D01*
X144946630Y-98627701D01*
X144821752Y-98640000D01*
X144738248Y-98640000D01*
X144613370Y-98627701D01*
X144453145Y-98579097D01*
X144305480Y-98500169D01*
X144176051Y-98393949D01*
X144069831Y-98264520D01*
X143990903Y-98116855D01*
X143942299Y-97956630D01*
X143925888Y-97790000D01*
X143942299Y-97623370D01*
X143990903Y-97463145D01*
X144069831Y-97315480D01*
X144176051Y-97186051D01*
X144305480Y-97079831D01*
X144453145Y-97000903D01*
X144613370Y-96952299D01*
X144738248Y-96940000D01*
X144821752Y-96940000D01*
X144946630Y-96952299D01*
X144946630Y-96952299D01*
G37*
G36*
X147486630Y-96952299D02*
X147646855Y-97000903D01*
X147794520Y-97079831D01*
X147923949Y-97186051D01*
X148030169Y-97315480D01*
X148109097Y-97463145D01*
X148157701Y-97623370D01*
X148174112Y-97790000D01*
X148157701Y-97956630D01*
X148109097Y-98116855D01*
X148030169Y-98264520D01*
X147923949Y-98393949D01*
X147794520Y-98500169D01*
X147646855Y-98579097D01*
X147486630Y-98627701D01*
X147361752Y-98640000D01*
X147278248Y-98640000D01*
X147153370Y-98627701D01*
X146993145Y-98579097D01*
X146845480Y-98500169D01*
X146716051Y-98393949D01*
X146609831Y-98264520D01*
X146530903Y-98116855D01*
X146482299Y-97956630D01*
X146465888Y-97790000D01*
X146482299Y-97623370D01*
X146530903Y-97463145D01*
X146609831Y-97315480D01*
X146716051Y-97186051D01*
X146845480Y-97079831D01*
X146993145Y-97000903D01*
X147153370Y-96952299D01*
X147278248Y-96940000D01*
X147361752Y-96940000D01*
X147486630Y-96952299D01*
X147486630Y-96952299D01*
G37*
G36*
X125903195Y-97047522D02*
X125952267Y-97057283D01*
X126006705Y-97079832D01*
X126090942Y-97114724D01*
X126215750Y-97198118D01*
X126321882Y-97304250D01*
X126405276Y-97429058D01*
X126462717Y-97567734D01*
X126492000Y-97714948D01*
X126492000Y-97865052D01*
X126462717Y-98012266D01*
X126405276Y-98150942D01*
X126321882Y-98275750D01*
X126215750Y-98381882D01*
X126215747Y-98381884D01*
X126090942Y-98465276D01*
X125952267Y-98522717D01*
X125903195Y-98532478D01*
X125805052Y-98552000D01*
X125654948Y-98552000D01*
X125556805Y-98532478D01*
X125507733Y-98522717D01*
X125369058Y-98465276D01*
X125244253Y-98381884D01*
X125244250Y-98381882D01*
X125138118Y-98275750D01*
X125054724Y-98150942D01*
X124997283Y-98012266D01*
X124968000Y-97865052D01*
X124968000Y-97714948D01*
X124997283Y-97567734D01*
X125054724Y-97429058D01*
X125138118Y-97304250D01*
X125244250Y-97198118D01*
X125369058Y-97114724D01*
X125453295Y-97079832D01*
X125507733Y-97057283D01*
X125556805Y-97047522D01*
X125654948Y-97028000D01*
X125805052Y-97028000D01*
X125903195Y-97047522D01*
X125903195Y-97047522D01*
G37*
G36*
X110663195Y-97047522D02*
X110712267Y-97057283D01*
X110766705Y-97079832D01*
X110850942Y-97114724D01*
X110975750Y-97198118D01*
X111081882Y-97304250D01*
X111165276Y-97429058D01*
X111222717Y-97567734D01*
X111252000Y-97714948D01*
X111252000Y-97865052D01*
X111222717Y-98012266D01*
X111165276Y-98150942D01*
X111081882Y-98275750D01*
X110975750Y-98381882D01*
X110975747Y-98381884D01*
X110850942Y-98465276D01*
X110712267Y-98522717D01*
X110663195Y-98532478D01*
X110565052Y-98552000D01*
X110414948Y-98552000D01*
X110316805Y-98532478D01*
X110267733Y-98522717D01*
X110129058Y-98465276D01*
X110004253Y-98381884D01*
X110004250Y-98381882D01*
X109898118Y-98275750D01*
X109814724Y-98150942D01*
X109757283Y-98012266D01*
X109728000Y-97865052D01*
X109728000Y-97714948D01*
X109757283Y-97567734D01*
X109814724Y-97429058D01*
X109898118Y-97304250D01*
X110004250Y-97198118D01*
X110129058Y-97114724D01*
X110213295Y-97079832D01*
X110267733Y-97057283D01*
X110316805Y-97047522D01*
X110414948Y-97028000D01*
X110565052Y-97028000D01*
X110663195Y-97047522D01*
X110663195Y-97047522D01*
G37*
G36*
X152575770Y-95662372D02*
X152691689Y-95685429D01*
X152873678Y-95760811D01*
X153037463Y-95870249D01*
X153176751Y-96009537D01*
X153286189Y-96173322D01*
X153361571Y-96355311D01*
X153400000Y-96548509D01*
X153400000Y-96745491D01*
X153361571Y-96938689D01*
X153286189Y-97120678D01*
X153176751Y-97284463D01*
X153037463Y-97423751D01*
X152873678Y-97533189D01*
X152691689Y-97608571D01*
X152575770Y-97631628D01*
X152498493Y-97647000D01*
X152301507Y-97647000D01*
X152224230Y-97631628D01*
X152108311Y-97608571D01*
X151926322Y-97533189D01*
X151762537Y-97423751D01*
X151623249Y-97284463D01*
X151513811Y-97120678D01*
X151438429Y-96938689D01*
X151400000Y-96745491D01*
X151400000Y-96548509D01*
X151438429Y-96355311D01*
X151513811Y-96173322D01*
X151623249Y-96009537D01*
X151762537Y-95870249D01*
X151926322Y-95760811D01*
X152108311Y-95685429D01*
X152224230Y-95662372D01*
X152301507Y-95647000D01*
X152498493Y-95647000D01*
X152575770Y-95662372D01*
X152575770Y-95662372D01*
G37*
G36*
X107030026Y-95112115D02*
X107248412Y-95202573D01*
X107444958Y-95333901D01*
X107612099Y-95501042D01*
X107743427Y-95697588D01*
X107833885Y-95915974D01*
X107880000Y-96147809D01*
X107880000Y-96384191D01*
X107833885Y-96616026D01*
X107743427Y-96834412D01*
X107612099Y-97030958D01*
X107444958Y-97198099D01*
X107248412Y-97329427D01*
X107030026Y-97419885D01*
X106798191Y-97466000D01*
X106561809Y-97466000D01*
X106329974Y-97419885D01*
X106111588Y-97329427D01*
X105915042Y-97198099D01*
X105747901Y-97030958D01*
X105616573Y-96834412D01*
X105526115Y-96616026D01*
X105480000Y-96384191D01*
X105480000Y-96147809D01*
X105526115Y-95915974D01*
X105616573Y-95697588D01*
X105747901Y-95501042D01*
X105915042Y-95333901D01*
X106111588Y-95202573D01*
X106329974Y-95112115D01*
X106561809Y-95066000D01*
X106798191Y-95066000D01*
X107030026Y-95112115D01*
X107030026Y-95112115D01*
G37*
G36*
X159370000Y-97395000D02*
X158670000Y-97395000D01*
X158670000Y-96945000D01*
X159370000Y-96945000D01*
X159370000Y-97395000D01*
X159370000Y-97395000D01*
G37*
G36*
X161370000Y-96745000D02*
X160670000Y-96745000D01*
X160670000Y-96295000D01*
X161370000Y-96295000D01*
X161370000Y-96745000D01*
X161370000Y-96745000D01*
G37*
G36*
X159370000Y-96095000D02*
X158670000Y-96095000D01*
X158670000Y-95645000D01*
X159370000Y-95645000D01*
X159370000Y-96095000D01*
X159370000Y-96095000D01*
G37*
G36*
X125903195Y-94507522D02*
X125952267Y-94517283D01*
X126063241Y-94563250D01*
X126090942Y-94574724D01*
X126215750Y-94658118D01*
X126321882Y-94764250D01*
X126321884Y-94764253D01*
X126405276Y-94889058D01*
X126437237Y-94966218D01*
X126462717Y-95027734D01*
X126492000Y-95174948D01*
X126492000Y-95325052D01*
X126473102Y-95420056D01*
X126462717Y-95472267D01*
X126407737Y-95605000D01*
X126405276Y-95610942D01*
X126321882Y-95735750D01*
X126215750Y-95841882D01*
X126215747Y-95841884D01*
X126090942Y-95925276D01*
X125952267Y-95982717D01*
X125903195Y-95992478D01*
X125805052Y-96012000D01*
X125654948Y-96012000D01*
X125556805Y-95992478D01*
X125507733Y-95982717D01*
X125369058Y-95925276D01*
X125244253Y-95841884D01*
X125244250Y-95841882D01*
X125138118Y-95735750D01*
X125054724Y-95610942D01*
X125052263Y-95605000D01*
X124997283Y-95472267D01*
X124986898Y-95420056D01*
X124968000Y-95325052D01*
X124968000Y-95174948D01*
X124997283Y-95027734D01*
X125022764Y-94966218D01*
X125054724Y-94889058D01*
X125138116Y-94764253D01*
X125138118Y-94764250D01*
X125244250Y-94658118D01*
X125369058Y-94574724D01*
X125396759Y-94563250D01*
X125507733Y-94517283D01*
X125556805Y-94507522D01*
X125654948Y-94488000D01*
X125805052Y-94488000D01*
X125903195Y-94507522D01*
X125903195Y-94507522D01*
G37*
G36*
X110663195Y-94507522D02*
X110712267Y-94517283D01*
X110823241Y-94563250D01*
X110850942Y-94574724D01*
X110975750Y-94658118D01*
X111081882Y-94764250D01*
X111081884Y-94764253D01*
X111165276Y-94889058D01*
X111197237Y-94966218D01*
X111222717Y-95027734D01*
X111252000Y-95174948D01*
X111252000Y-95325052D01*
X111233102Y-95420056D01*
X111222717Y-95472267D01*
X111167737Y-95605000D01*
X111165276Y-95610942D01*
X111081882Y-95735750D01*
X110975750Y-95841882D01*
X110975747Y-95841884D01*
X110850942Y-95925276D01*
X110712267Y-95982717D01*
X110663195Y-95992478D01*
X110565052Y-96012000D01*
X110414948Y-96012000D01*
X110316805Y-95992478D01*
X110267733Y-95982717D01*
X110129058Y-95925276D01*
X110004253Y-95841884D01*
X110004250Y-95841882D01*
X109898118Y-95735750D01*
X109814724Y-95610942D01*
X109812263Y-95605000D01*
X109757283Y-95472267D01*
X109746898Y-95420056D01*
X109728000Y-95325052D01*
X109728000Y-95174948D01*
X109757283Y-95027734D01*
X109782764Y-94966218D01*
X109814724Y-94889058D01*
X109898116Y-94764253D01*
X109898118Y-94764250D01*
X110004250Y-94658118D01*
X110129058Y-94574724D01*
X110156759Y-94563250D01*
X110267733Y-94517283D01*
X110316805Y-94507522D01*
X110414948Y-94488000D01*
X110565052Y-94488000D01*
X110663195Y-94507522D01*
X110663195Y-94507522D01*
G37*
G36*
X176363992Y-92417447D02*
X176363994Y-92417448D01*
X176363995Y-92417448D01*
X176659726Y-92539943D01*
X176922286Y-92715380D01*
X176925880Y-92717782D01*
X177152218Y-92944120D01*
X177152220Y-92944123D01*
X177330057Y-93210274D01*
X177441115Y-93478393D01*
X177452553Y-93506008D01*
X177500246Y-93745776D01*
X177515000Y-93819951D01*
X177515000Y-94140049D01*
X177452552Y-94453995D01*
X177330057Y-94749726D01*
X177280890Y-94823309D01*
X177152218Y-95015880D01*
X176925880Y-95242218D01*
X176925877Y-95242220D01*
X176659726Y-95420057D01*
X176363995Y-95542552D01*
X176363994Y-95542552D01*
X176363992Y-95542553D01*
X176050050Y-95605000D01*
X175729950Y-95605000D01*
X175416008Y-95542553D01*
X175416006Y-95542552D01*
X175416005Y-95542552D01*
X175120274Y-95420057D01*
X174854123Y-95242220D01*
X174854120Y-95242218D01*
X174627782Y-95015880D01*
X174499110Y-94823309D01*
X174449943Y-94749726D01*
X174327448Y-94453995D01*
X174265000Y-94140049D01*
X174265000Y-93819951D01*
X174279754Y-93745776D01*
X174327447Y-93506008D01*
X174338885Y-93478393D01*
X174449943Y-93210274D01*
X174627780Y-92944123D01*
X174627782Y-92944120D01*
X174854120Y-92717782D01*
X174857714Y-92715380D01*
X175120274Y-92539943D01*
X175416005Y-92417448D01*
X175416006Y-92417448D01*
X175416008Y-92417447D01*
X175729950Y-92355000D01*
X176050050Y-92355000D01*
X176363992Y-92417447D01*
X176363992Y-92417447D01*
G37*
G36*
X182713992Y-92417447D02*
X182713994Y-92417448D01*
X182713995Y-92417448D01*
X183009726Y-92539943D01*
X183272286Y-92715380D01*
X183275880Y-92717782D01*
X183502218Y-92944120D01*
X183502220Y-92944123D01*
X183680057Y-93210274D01*
X183791115Y-93478393D01*
X183802553Y-93506008D01*
X183850246Y-93745776D01*
X183865000Y-93819951D01*
X183865000Y-94140049D01*
X183802552Y-94453995D01*
X183680057Y-94749726D01*
X183630890Y-94823309D01*
X183502218Y-95015880D01*
X183275880Y-95242218D01*
X183275877Y-95242220D01*
X183009726Y-95420057D01*
X182713995Y-95542552D01*
X182713994Y-95542552D01*
X182713992Y-95542553D01*
X182400050Y-95605000D01*
X182079950Y-95605000D01*
X181766008Y-95542553D01*
X181766006Y-95542552D01*
X181766005Y-95542552D01*
X181470274Y-95420057D01*
X181204123Y-95242220D01*
X181204120Y-95242218D01*
X180977782Y-95015880D01*
X180849110Y-94823309D01*
X180799943Y-94749726D01*
X180677448Y-94453995D01*
X180615000Y-94140049D01*
X180615000Y-93819951D01*
X180629754Y-93745776D01*
X180677447Y-93506008D01*
X180688885Y-93478393D01*
X180799943Y-93210274D01*
X180977780Y-92944123D01*
X180977782Y-92944120D01*
X181204120Y-92717782D01*
X181207714Y-92715380D01*
X181470274Y-92539943D01*
X181766005Y-92417448D01*
X181766006Y-92417448D01*
X181766008Y-92417447D01*
X182079950Y-92355000D01*
X182400050Y-92355000D01*
X182713992Y-92417447D01*
X182713992Y-92417447D01*
G37*
G36*
X166203992Y-92417447D02*
X166203994Y-92417448D01*
X166203995Y-92417448D01*
X166499726Y-92539943D01*
X166762286Y-92715380D01*
X166765880Y-92717782D01*
X166992218Y-92944120D01*
X166992220Y-92944123D01*
X167170057Y-93210274D01*
X167281115Y-93478393D01*
X167292553Y-93506008D01*
X167340246Y-93745776D01*
X167355000Y-93819951D01*
X167355000Y-94140049D01*
X167292552Y-94453995D01*
X167170057Y-94749726D01*
X167120890Y-94823309D01*
X166992218Y-95015880D01*
X166765880Y-95242218D01*
X166765877Y-95242220D01*
X166499726Y-95420057D01*
X166203995Y-95542552D01*
X166203994Y-95542552D01*
X166203992Y-95542553D01*
X165890050Y-95605000D01*
X165569950Y-95605000D01*
X165256008Y-95542553D01*
X165256006Y-95542552D01*
X165256005Y-95542552D01*
X164960274Y-95420057D01*
X164694123Y-95242220D01*
X164694120Y-95242218D01*
X164467782Y-95015880D01*
X164339110Y-94823309D01*
X164289943Y-94749726D01*
X164167448Y-94453995D01*
X164105000Y-94140049D01*
X164105000Y-93819951D01*
X164119754Y-93745776D01*
X164167447Y-93506008D01*
X164178885Y-93478393D01*
X164289943Y-93210274D01*
X164467780Y-92944123D01*
X164467782Y-92944120D01*
X164694120Y-92717782D01*
X164697714Y-92715380D01*
X164960274Y-92539943D01*
X165256005Y-92417448D01*
X165256006Y-92417448D01*
X165256008Y-92417447D01*
X165569950Y-92355000D01*
X165890050Y-92355000D01*
X166203992Y-92417447D01*
X166203992Y-92417447D01*
G37*
G36*
X192873992Y-92417447D02*
X192873994Y-92417448D01*
X192873995Y-92417448D01*
X193169726Y-92539943D01*
X193432286Y-92715380D01*
X193435880Y-92717782D01*
X193662218Y-92944120D01*
X193662220Y-92944123D01*
X193840057Y-93210274D01*
X193951115Y-93478393D01*
X193962553Y-93506008D01*
X194010246Y-93745776D01*
X194025000Y-93819951D01*
X194025000Y-94140049D01*
X193962552Y-94453995D01*
X193840057Y-94749726D01*
X193790890Y-94823309D01*
X193662218Y-95015880D01*
X193435880Y-95242218D01*
X193435877Y-95242220D01*
X193169726Y-95420057D01*
X192873995Y-95542552D01*
X192873994Y-95542552D01*
X192873992Y-95542553D01*
X192560050Y-95605000D01*
X192239950Y-95605000D01*
X191926008Y-95542553D01*
X191926006Y-95542552D01*
X191926005Y-95542552D01*
X191630274Y-95420057D01*
X191364123Y-95242220D01*
X191364120Y-95242218D01*
X191137782Y-95015880D01*
X191009110Y-94823309D01*
X190959943Y-94749726D01*
X190837448Y-94453995D01*
X190775000Y-94140049D01*
X190775000Y-93819951D01*
X190789754Y-93745776D01*
X190837447Y-93506008D01*
X190848885Y-93478393D01*
X190959943Y-93210274D01*
X191137780Y-92944123D01*
X191137782Y-92944120D01*
X191364120Y-92717782D01*
X191367714Y-92715380D01*
X191630274Y-92539943D01*
X191926005Y-92417448D01*
X191926006Y-92417448D01*
X191926008Y-92417447D01*
X192239950Y-92355000D01*
X192560050Y-92355000D01*
X192873992Y-92417447D01*
X192873992Y-92417447D01*
G37*
G36*
X139886723Y-92993782D02*
X140066268Y-93048247D01*
X140231741Y-93136693D01*
X140376778Y-93255722D01*
X140495807Y-93400759D01*
X140584253Y-93566231D01*
X140638718Y-93745776D01*
X140652500Y-93885711D01*
X140652500Y-94074288D01*
X140638718Y-94214223D01*
X140584253Y-94393768D01*
X140495807Y-94559241D01*
X140376778Y-94704278D01*
X140231741Y-94823307D01*
X140066269Y-94911753D01*
X139886724Y-94966218D01*
X139700000Y-94984608D01*
X139513277Y-94966218D01*
X139333732Y-94911753D01*
X139168264Y-94823309D01*
X139168263Y-94823308D01*
X139168259Y-94823306D01*
X139023222Y-94704278D01*
X139023221Y-94704276D01*
X139023219Y-94704275D01*
X138904193Y-94559241D01*
X138815747Y-94393769D01*
X138761282Y-94214224D01*
X138747500Y-94074289D01*
X138747500Y-93885712D01*
X138761282Y-93745777D01*
X138815747Y-93566232D01*
X138904193Y-93400759D01*
X139023222Y-93255722D01*
X139168259Y-93136693D01*
X139333731Y-93048247D01*
X139513276Y-92993782D01*
X139700000Y-92975392D01*
X139886723Y-92993782D01*
X139886723Y-92993782D01*
G37*
G36*
X137346723Y-92993782D02*
X137526268Y-93048247D01*
X137691741Y-93136693D01*
X137836778Y-93255722D01*
X137955807Y-93400759D01*
X138044253Y-93566231D01*
X138098718Y-93745776D01*
X138112500Y-93885711D01*
X138112500Y-94074288D01*
X138098718Y-94214223D01*
X138044253Y-94393768D01*
X137955807Y-94559241D01*
X137836778Y-94704278D01*
X137691741Y-94823307D01*
X137526269Y-94911753D01*
X137346724Y-94966218D01*
X137160000Y-94984608D01*
X136973277Y-94966218D01*
X136793732Y-94911753D01*
X136628264Y-94823309D01*
X136628263Y-94823308D01*
X136628259Y-94823306D01*
X136483222Y-94704278D01*
X136483221Y-94704276D01*
X136483219Y-94704275D01*
X136364193Y-94559241D01*
X136275747Y-94393769D01*
X136221282Y-94214224D01*
X136207500Y-94074289D01*
X136207500Y-93885712D01*
X136221282Y-93745777D01*
X136275747Y-93566232D01*
X136364193Y-93400759D01*
X136483222Y-93255722D01*
X136628259Y-93136693D01*
X136793731Y-93048247D01*
X136973276Y-92993782D01*
X137160000Y-92975392D01*
X137346723Y-92993782D01*
X137346723Y-92993782D01*
G37*
G36*
X135572500Y-94980000D02*
X133667500Y-94980000D01*
X133667500Y-92980000D01*
X135572500Y-92980000D01*
X135572500Y-94980000D01*
X135572500Y-94980000D01*
G37*
G36*
X162187992Y-93411076D02*
X162221883Y-93421357D01*
X162253111Y-93438048D01*
X162280485Y-93460515D01*
X162302952Y-93487889D01*
X162319643Y-93519117D01*
X162329924Y-93553008D01*
X162334000Y-93594391D01*
X162334000Y-94619609D01*
X162329924Y-94660992D01*
X162319643Y-94694883D01*
X162302952Y-94726111D01*
X162280485Y-94753485D01*
X162253111Y-94775952D01*
X162221883Y-94792643D01*
X162187992Y-94802924D01*
X162146609Y-94807000D01*
X161546391Y-94807000D01*
X161505008Y-94802924D01*
X161471117Y-94792643D01*
X161439889Y-94775952D01*
X161412515Y-94753485D01*
X161390048Y-94726111D01*
X161373357Y-94694883D01*
X161363076Y-94660992D01*
X161359000Y-94619609D01*
X161359000Y-93594391D01*
X161363076Y-93553008D01*
X161373357Y-93519117D01*
X161390048Y-93487889D01*
X161412515Y-93460515D01*
X161439889Y-93438048D01*
X161471117Y-93421357D01*
X161505008Y-93411076D01*
X161546391Y-93407000D01*
X162146609Y-93407000D01*
X162187992Y-93411076D01*
X162187992Y-93411076D01*
G37*
G36*
X160312992Y-93411076D02*
X160346883Y-93421357D01*
X160378111Y-93438048D01*
X160405485Y-93460515D01*
X160427952Y-93487889D01*
X160444643Y-93519117D01*
X160454924Y-93553008D01*
X160459000Y-93594391D01*
X160459000Y-94619609D01*
X160454924Y-94660992D01*
X160444643Y-94694883D01*
X160427952Y-94726111D01*
X160405485Y-94753485D01*
X160378111Y-94775952D01*
X160346883Y-94792643D01*
X160312992Y-94802924D01*
X160271609Y-94807000D01*
X159671391Y-94807000D01*
X159630008Y-94802924D01*
X159596117Y-94792643D01*
X159564889Y-94775952D01*
X159537515Y-94753485D01*
X159515048Y-94726111D01*
X159498357Y-94694883D01*
X159488076Y-94660992D01*
X159484000Y-94619609D01*
X159484000Y-93594391D01*
X159488076Y-93553008D01*
X159498357Y-93519117D01*
X159515048Y-93487889D01*
X159537515Y-93460515D01*
X159564889Y-93438048D01*
X159596117Y-93421357D01*
X159630008Y-93411076D01*
X159671391Y-93407000D01*
X160271609Y-93407000D01*
X160312992Y-93411076D01*
X160312992Y-93411076D01*
G37*
G36*
X156385770Y-91725372D02*
X156501689Y-91748429D01*
X156683678Y-91823811D01*
X156847463Y-91933249D01*
X156986751Y-92072537D01*
X157096189Y-92236322D01*
X157171571Y-92418311D01*
X157210000Y-92611509D01*
X157210000Y-92808491D01*
X157171571Y-93001689D01*
X157096189Y-93183678D01*
X156986751Y-93347463D01*
X156847463Y-93486751D01*
X156683678Y-93596189D01*
X156501689Y-93671571D01*
X156385770Y-93694628D01*
X156308493Y-93710000D01*
X156111507Y-93710000D01*
X156034230Y-93694628D01*
X155918311Y-93671571D01*
X155736322Y-93596189D01*
X155572537Y-93486751D01*
X155433249Y-93347463D01*
X155323811Y-93183678D01*
X155248429Y-93001689D01*
X155210000Y-92808491D01*
X155210000Y-92611509D01*
X155248429Y-92418311D01*
X155323811Y-92236322D01*
X155433249Y-92072537D01*
X155572537Y-91933249D01*
X155736322Y-91823811D01*
X155918311Y-91748429D01*
X156034230Y-91725372D01*
X156111507Y-91710000D01*
X156308493Y-91710000D01*
X156385770Y-91725372D01*
X156385770Y-91725372D01*
G37*
G36*
X146225770Y-91725372D02*
X146341689Y-91748429D01*
X146523678Y-91823811D01*
X146687463Y-91933249D01*
X146826751Y-92072537D01*
X146936189Y-92236322D01*
X147011571Y-92418311D01*
X147050000Y-92611509D01*
X147050000Y-92808491D01*
X147011571Y-93001689D01*
X146936189Y-93183678D01*
X146826751Y-93347463D01*
X146687463Y-93486751D01*
X146523678Y-93596189D01*
X146341689Y-93671571D01*
X146225770Y-93694628D01*
X146148493Y-93710000D01*
X145951507Y-93710000D01*
X145874230Y-93694628D01*
X145758311Y-93671571D01*
X145576322Y-93596189D01*
X145412537Y-93486751D01*
X145273249Y-93347463D01*
X145163811Y-93183678D01*
X145088429Y-93001689D01*
X145050000Y-92808491D01*
X145050000Y-92611509D01*
X145088429Y-92418311D01*
X145163811Y-92236322D01*
X145273249Y-92072537D01*
X145412537Y-91933249D01*
X145576322Y-91823811D01*
X145758311Y-91748429D01*
X145874230Y-91725372D01*
X145951507Y-91710000D01*
X146148493Y-91710000D01*
X146225770Y-91725372D01*
X146225770Y-91725372D01*
G37*
G36*
X150035770Y-91725372D02*
X150151689Y-91748429D01*
X150333678Y-91823811D01*
X150497463Y-91933249D01*
X150636751Y-92072537D01*
X150746189Y-92236322D01*
X150821571Y-92418311D01*
X150860000Y-92611509D01*
X150860000Y-92808491D01*
X150821571Y-93001689D01*
X150746189Y-93183678D01*
X150636751Y-93347463D01*
X150497463Y-93486751D01*
X150333678Y-93596189D01*
X150151689Y-93671571D01*
X150035770Y-93694628D01*
X149958493Y-93710000D01*
X149761507Y-93710000D01*
X149684230Y-93694628D01*
X149568311Y-93671571D01*
X149386322Y-93596189D01*
X149222537Y-93486751D01*
X149083249Y-93347463D01*
X148973811Y-93183678D01*
X148898429Y-93001689D01*
X148860000Y-92808491D01*
X148860000Y-92611509D01*
X148898429Y-92418311D01*
X148973811Y-92236322D01*
X149083249Y-92072537D01*
X149222537Y-91933249D01*
X149386322Y-91823811D01*
X149568311Y-91748429D01*
X149684230Y-91725372D01*
X149761507Y-91710000D01*
X149958493Y-91710000D01*
X150035770Y-91725372D01*
X150035770Y-91725372D01*
G37*
G36*
X107030026Y-91302115D02*
X107248412Y-91392573D01*
X107444958Y-91523901D01*
X107612099Y-91691042D01*
X107743427Y-91887588D01*
X107833885Y-92105974D01*
X107880000Y-92337809D01*
X107880000Y-92574191D01*
X107833885Y-92806026D01*
X107743427Y-93024412D01*
X107612099Y-93220958D01*
X107444958Y-93388099D01*
X107248412Y-93519427D01*
X107030026Y-93609885D01*
X106798191Y-93656000D01*
X106561809Y-93656000D01*
X106329974Y-93609885D01*
X106111588Y-93519427D01*
X105915042Y-93388099D01*
X105747901Y-93220958D01*
X105616573Y-93024412D01*
X105526115Y-92806026D01*
X105480000Y-92574191D01*
X105480000Y-92337809D01*
X105526115Y-92105974D01*
X105616573Y-91887588D01*
X105747901Y-91691042D01*
X105915042Y-91523901D01*
X106111588Y-91392573D01*
X106329974Y-91302115D01*
X106561809Y-91256000D01*
X106798191Y-91256000D01*
X107030026Y-91302115D01*
X107030026Y-91302115D01*
G37*
G36*
X125903195Y-91967522D02*
X125952267Y-91977283D01*
X126090942Y-92034724D01*
X126215750Y-92118118D01*
X126321882Y-92224250D01*
X126321884Y-92224253D01*
X126405276Y-92349058D01*
X126433604Y-92417447D01*
X126462717Y-92487734D01*
X126492000Y-92634948D01*
X126492000Y-92785052D01*
X126487337Y-92808493D01*
X126462717Y-92932267D01*
X126414676Y-93048248D01*
X126405276Y-93070942D01*
X126321882Y-93195750D01*
X126215750Y-93301882D01*
X126215747Y-93301884D01*
X126090942Y-93385276D01*
X125952267Y-93442717D01*
X125925310Y-93448079D01*
X125805052Y-93472000D01*
X125654948Y-93472000D01*
X125534690Y-93448079D01*
X125507733Y-93442717D01*
X125369058Y-93385276D01*
X125244253Y-93301884D01*
X125244250Y-93301882D01*
X125138118Y-93195750D01*
X125054724Y-93070942D01*
X125045324Y-93048248D01*
X124997283Y-92932267D01*
X124972663Y-92808493D01*
X124968000Y-92785052D01*
X124968000Y-92634948D01*
X124997283Y-92487734D01*
X125026397Y-92417447D01*
X125054724Y-92349058D01*
X125138116Y-92224253D01*
X125138118Y-92224250D01*
X125244250Y-92118118D01*
X125369058Y-92034724D01*
X125507733Y-91977283D01*
X125556805Y-91967522D01*
X125654948Y-91948000D01*
X125805052Y-91948000D01*
X125903195Y-91967522D01*
X125903195Y-91967522D01*
G37*
G36*
X110663195Y-91967522D02*
X110712267Y-91977283D01*
X110850942Y-92034724D01*
X110975750Y-92118118D01*
X111081882Y-92224250D01*
X111081884Y-92224253D01*
X111165276Y-92349058D01*
X111193604Y-92417447D01*
X111222717Y-92487734D01*
X111252000Y-92634948D01*
X111252000Y-92785052D01*
X111247337Y-92808493D01*
X111222717Y-92932267D01*
X111174676Y-93048248D01*
X111165276Y-93070942D01*
X111081882Y-93195750D01*
X110975750Y-93301882D01*
X110975747Y-93301884D01*
X110850942Y-93385276D01*
X110712267Y-93442717D01*
X110685310Y-93448079D01*
X110565052Y-93472000D01*
X110414948Y-93472000D01*
X110294690Y-93448079D01*
X110267733Y-93442717D01*
X110129058Y-93385276D01*
X110004253Y-93301884D01*
X110004250Y-93301882D01*
X109898118Y-93195750D01*
X109814724Y-93070942D01*
X109805324Y-93048248D01*
X109757283Y-92932267D01*
X109732663Y-92808493D01*
X109728000Y-92785052D01*
X109728000Y-92634948D01*
X109757283Y-92487734D01*
X109786397Y-92417447D01*
X109814724Y-92349058D01*
X109898116Y-92224253D01*
X109898118Y-92224250D01*
X110004250Y-92118118D01*
X110129058Y-92034724D01*
X110267733Y-91977283D01*
X110316805Y-91967522D01*
X110414948Y-91948000D01*
X110565052Y-91948000D01*
X110663195Y-91967522D01*
X110663195Y-91967522D01*
G37*
G36*
X110663195Y-89427522D02*
X110712267Y-89437283D01*
X110850942Y-89494724D01*
X110975750Y-89578118D01*
X111081882Y-89684250D01*
X111081884Y-89684253D01*
X111165276Y-89809058D01*
X111222717Y-89947733D01*
X111252000Y-90094950D01*
X111252000Y-90245050D01*
X111222717Y-90392267D01*
X111190964Y-90468926D01*
X111165276Y-90530942D01*
X111081882Y-90655750D01*
X110975750Y-90761882D01*
X110975747Y-90761884D01*
X110850942Y-90845276D01*
X110712267Y-90902717D01*
X110663195Y-90912478D01*
X110565052Y-90932000D01*
X110414948Y-90932000D01*
X110316805Y-90912478D01*
X110267733Y-90902717D01*
X110129058Y-90845276D01*
X110004253Y-90761884D01*
X110004250Y-90761882D01*
X109898118Y-90655750D01*
X109814724Y-90530942D01*
X109789036Y-90468926D01*
X109757283Y-90392267D01*
X109728000Y-90245050D01*
X109728000Y-90094950D01*
X109757283Y-89947733D01*
X109814724Y-89809058D01*
X109898116Y-89684253D01*
X109898118Y-89684250D01*
X110004250Y-89578118D01*
X110129058Y-89494724D01*
X110267733Y-89437283D01*
X110316805Y-89427522D01*
X110414948Y-89408000D01*
X110565052Y-89408000D01*
X110663195Y-89427522D01*
X110663195Y-89427522D01*
G37*
G36*
X125903195Y-89427522D02*
X125952267Y-89437283D01*
X126090942Y-89494724D01*
X126215750Y-89578118D01*
X126321882Y-89684250D01*
X126321884Y-89684253D01*
X126405276Y-89809058D01*
X126462717Y-89947733D01*
X126492000Y-90094950D01*
X126492000Y-90245050D01*
X126462717Y-90392267D01*
X126430964Y-90468926D01*
X126405276Y-90530942D01*
X126321882Y-90655750D01*
X126215750Y-90761882D01*
X126215747Y-90761884D01*
X126090942Y-90845276D01*
X125952267Y-90902717D01*
X125903195Y-90912478D01*
X125805052Y-90932000D01*
X125654948Y-90932000D01*
X125556805Y-90912478D01*
X125507733Y-90902717D01*
X125369058Y-90845276D01*
X125244253Y-90761884D01*
X125244250Y-90761882D01*
X125138118Y-90655750D01*
X125054724Y-90530942D01*
X125029036Y-90468926D01*
X124997283Y-90392267D01*
X124968000Y-90245050D01*
X124968000Y-90094950D01*
X124997283Y-89947733D01*
X125054724Y-89809058D01*
X125138116Y-89684253D01*
X125138118Y-89684250D01*
X125244250Y-89578118D01*
X125369058Y-89494724D01*
X125507733Y-89437283D01*
X125556805Y-89427522D01*
X125654948Y-89408000D01*
X125805052Y-89408000D01*
X125903195Y-89427522D01*
X125903195Y-89427522D01*
G37*
G36*
X113824116Y-89698595D02*
X113853313Y-89707452D01*
X113880218Y-89721833D01*
X113903808Y-89741192D01*
X113923167Y-89764782D01*
X113937548Y-89791687D01*
X113946405Y-89820884D01*
X113950000Y-89857390D01*
X113950000Y-90482610D01*
X113946405Y-90519116D01*
X113937548Y-90548313D01*
X113923167Y-90575218D01*
X113903808Y-90598808D01*
X113880218Y-90618167D01*
X113853313Y-90632548D01*
X113824116Y-90641405D01*
X113787610Y-90645000D01*
X113237390Y-90645000D01*
X113200884Y-90641405D01*
X113171687Y-90632548D01*
X113144782Y-90618167D01*
X113121192Y-90598808D01*
X113101833Y-90575218D01*
X113087452Y-90548313D01*
X113078595Y-90519116D01*
X113075000Y-90482610D01*
X113075000Y-89857390D01*
X113078595Y-89820884D01*
X113087452Y-89791687D01*
X113101833Y-89764782D01*
X113121192Y-89741192D01*
X113144782Y-89721833D01*
X113171687Y-89707452D01*
X113200884Y-89698595D01*
X113237390Y-89695000D01*
X113787610Y-89695000D01*
X113824116Y-89698595D01*
X113824116Y-89698595D01*
G37*
G36*
X115399116Y-89698595D02*
X115428313Y-89707452D01*
X115455218Y-89721833D01*
X115478808Y-89741192D01*
X115498167Y-89764782D01*
X115512548Y-89791687D01*
X115521405Y-89820884D01*
X115525000Y-89857390D01*
X115525000Y-90482610D01*
X115521405Y-90519116D01*
X115512548Y-90548313D01*
X115498167Y-90575218D01*
X115478808Y-90598808D01*
X115455218Y-90618167D01*
X115428313Y-90632548D01*
X115399116Y-90641405D01*
X115362610Y-90645000D01*
X114812390Y-90645000D01*
X114775884Y-90641405D01*
X114746687Y-90632548D01*
X114719782Y-90618167D01*
X114696192Y-90598808D01*
X114676833Y-90575218D01*
X114662452Y-90548313D01*
X114653595Y-90519116D01*
X114650000Y-90482610D01*
X114650000Y-89857390D01*
X114653595Y-89820884D01*
X114662452Y-89791687D01*
X114676833Y-89764782D01*
X114696192Y-89741192D01*
X114719782Y-89721833D01*
X114746687Y-89707452D01*
X114775884Y-89698595D01*
X114812390Y-89695000D01*
X115362610Y-89695000D01*
X115399116Y-89698595D01*
X115399116Y-89698595D01*
G37*
G36*
X107030026Y-87492115D02*
X107248412Y-87582573D01*
X107444958Y-87713901D01*
X107612099Y-87881042D01*
X107743427Y-88077588D01*
X107833885Y-88295974D01*
X107880000Y-88527809D01*
X107880000Y-88764191D01*
X107833885Y-88996026D01*
X107743427Y-89214412D01*
X107612099Y-89410958D01*
X107444958Y-89578099D01*
X107248412Y-89709427D01*
X107030026Y-89799885D01*
X106798191Y-89846000D01*
X106561809Y-89846000D01*
X106329974Y-89799885D01*
X106111588Y-89709427D01*
X105915042Y-89578099D01*
X105747901Y-89410958D01*
X105616573Y-89214412D01*
X105526115Y-88996026D01*
X105480000Y-88764191D01*
X105480000Y-88527809D01*
X105526115Y-88295974D01*
X105616573Y-88077588D01*
X105747901Y-87881042D01*
X105915042Y-87713901D01*
X106111588Y-87582573D01*
X106329974Y-87492115D01*
X106561809Y-87446000D01*
X106798191Y-87446000D01*
X107030026Y-87492115D01*
X107030026Y-87492115D01*
G37*
G36*
X159370000Y-88505000D02*
X158670000Y-88505000D01*
X158670000Y-88055000D01*
X159370000Y-88055000D01*
X159370000Y-88505000D01*
X159370000Y-88505000D01*
G37*
G36*
X125883990Y-86883702D02*
X125952267Y-86897283D01*
X126058777Y-86941401D01*
X126090942Y-86954724D01*
X126215750Y-87038118D01*
X126321882Y-87144250D01*
X126321884Y-87144253D01*
X126405276Y-87269058D01*
X126448641Y-87373750D01*
X126462717Y-87407734D01*
X126492000Y-87554948D01*
X126492000Y-87705052D01*
X126481031Y-87760194D01*
X126462717Y-87852267D01*
X126405668Y-87989995D01*
X126405276Y-87990942D01*
X126321882Y-88115750D01*
X126215750Y-88221882D01*
X126215747Y-88221884D01*
X126090942Y-88305276D01*
X125952267Y-88362717D01*
X125903195Y-88372478D01*
X125805052Y-88392000D01*
X125654948Y-88392000D01*
X125556805Y-88372478D01*
X125507733Y-88362717D01*
X125369058Y-88305276D01*
X125244253Y-88221884D01*
X125244250Y-88221882D01*
X125138118Y-88115750D01*
X125054724Y-87990942D01*
X125054332Y-87989995D01*
X124997283Y-87852267D01*
X124978969Y-87760194D01*
X124968000Y-87705052D01*
X124968000Y-87554948D01*
X124997283Y-87407734D01*
X125011360Y-87373750D01*
X125054724Y-87269058D01*
X125138116Y-87144253D01*
X125138118Y-87144250D01*
X125244250Y-87038118D01*
X125369058Y-86954724D01*
X125401223Y-86941401D01*
X125507733Y-86897283D01*
X125576010Y-86883702D01*
X125654948Y-86868000D01*
X125805052Y-86868000D01*
X125883990Y-86883702D01*
X125883990Y-86883702D01*
G37*
G36*
X110643990Y-86883702D02*
X110712267Y-86897283D01*
X110818777Y-86941401D01*
X110850942Y-86954724D01*
X110975750Y-87038118D01*
X111081882Y-87144250D01*
X111081884Y-87144253D01*
X111165276Y-87269058D01*
X111208641Y-87373750D01*
X111222717Y-87407734D01*
X111252000Y-87554948D01*
X111252000Y-87705052D01*
X111241031Y-87760194D01*
X111222717Y-87852267D01*
X111165668Y-87989995D01*
X111165276Y-87990942D01*
X111081882Y-88115750D01*
X110975750Y-88221882D01*
X110975747Y-88221884D01*
X110850942Y-88305276D01*
X110712267Y-88362717D01*
X110663195Y-88372478D01*
X110565052Y-88392000D01*
X110414948Y-88392000D01*
X110316805Y-88372478D01*
X110267733Y-88362717D01*
X110129058Y-88305276D01*
X110004253Y-88221884D01*
X110004250Y-88221882D01*
X109898118Y-88115750D01*
X109814724Y-87990942D01*
X109814332Y-87989995D01*
X109757283Y-87852267D01*
X109738969Y-87760194D01*
X109728000Y-87705052D01*
X109728000Y-87554948D01*
X109757283Y-87407734D01*
X109771360Y-87373750D01*
X109814724Y-87269058D01*
X109898116Y-87144253D01*
X109898118Y-87144250D01*
X110004250Y-87038118D01*
X110129058Y-86954724D01*
X110161223Y-86941401D01*
X110267733Y-86897283D01*
X110336010Y-86883702D01*
X110414948Y-86868000D01*
X110565052Y-86868000D01*
X110643990Y-86883702D01*
X110643990Y-86883702D01*
G37*
G36*
X169131683Y-86899206D02*
X169269992Y-86956495D01*
X169269995Y-86956497D01*
X169378430Y-87028951D01*
X169394476Y-87039673D01*
X169500327Y-87145524D01*
X169500329Y-87145527D01*
X169500330Y-87145528D01*
X169540068Y-87205000D01*
X169583505Y-87270008D01*
X169640794Y-87408317D01*
X169670000Y-87555145D01*
X169670000Y-87704855D01*
X169640794Y-87851683D01*
X169583505Y-87989992D01*
X169583503Y-87989995D01*
X169537524Y-88058808D01*
X169500327Y-88114476D01*
X169394476Y-88220327D01*
X169269992Y-88303505D01*
X169131683Y-88360794D01*
X168984855Y-88390000D01*
X168835145Y-88390000D01*
X168688317Y-88360794D01*
X168550008Y-88303505D01*
X168425524Y-88220327D01*
X168319673Y-88114476D01*
X168282477Y-88058808D01*
X168236497Y-87989995D01*
X168236495Y-87989992D01*
X168179206Y-87851683D01*
X168150000Y-87704855D01*
X168150000Y-87555145D01*
X168179206Y-87408317D01*
X168236495Y-87270008D01*
X168279932Y-87205000D01*
X168319670Y-87145528D01*
X168319671Y-87145527D01*
X168319673Y-87145524D01*
X168425524Y-87039673D01*
X168441571Y-87028951D01*
X168550005Y-86956497D01*
X168550008Y-86956495D01*
X168688317Y-86899206D01*
X168835145Y-86870000D01*
X168984855Y-86870000D01*
X169131683Y-86899206D01*
X169131683Y-86899206D01*
G37*
G36*
X171671683Y-86899206D02*
X171809992Y-86956495D01*
X171809995Y-86956497D01*
X171918430Y-87028951D01*
X171934476Y-87039673D01*
X172040327Y-87145524D01*
X172040329Y-87145527D01*
X172040330Y-87145528D01*
X172080068Y-87205000D01*
X172123505Y-87270008D01*
X172180794Y-87408317D01*
X172210000Y-87555145D01*
X172210000Y-87704855D01*
X172180794Y-87851683D01*
X172123505Y-87989992D01*
X172123503Y-87989995D01*
X172077524Y-88058808D01*
X172040327Y-88114476D01*
X171934476Y-88220327D01*
X171809992Y-88303505D01*
X171671683Y-88360794D01*
X171524855Y-88390000D01*
X171375145Y-88390000D01*
X171228317Y-88360794D01*
X171090008Y-88303505D01*
X170965524Y-88220327D01*
X170859673Y-88114476D01*
X170822477Y-88058808D01*
X170776497Y-87989995D01*
X170776495Y-87989992D01*
X170719206Y-87851683D01*
X170690000Y-87704855D01*
X170690000Y-87555145D01*
X170719206Y-87408317D01*
X170776495Y-87270008D01*
X170819932Y-87205000D01*
X170859670Y-87145528D01*
X170859671Y-87145527D01*
X170859673Y-87145524D01*
X170965524Y-87039673D01*
X170981571Y-87028951D01*
X171090005Y-86956497D01*
X171090008Y-86956495D01*
X171228317Y-86899206D01*
X171375145Y-86870000D01*
X171524855Y-86870000D01*
X171671683Y-86899206D01*
X171671683Y-86899206D01*
G37*
G36*
X190721683Y-86899206D02*
X190859992Y-86956495D01*
X190859995Y-86956497D01*
X190968430Y-87028951D01*
X190984476Y-87039673D01*
X191090327Y-87145524D01*
X191090329Y-87145527D01*
X191090330Y-87145528D01*
X191130068Y-87205000D01*
X191173505Y-87270008D01*
X191230794Y-87408317D01*
X191260000Y-87555145D01*
X191260000Y-87704855D01*
X191230794Y-87851683D01*
X191173505Y-87989992D01*
X191173503Y-87989995D01*
X191127524Y-88058808D01*
X191090327Y-88114476D01*
X190984476Y-88220327D01*
X190859992Y-88303505D01*
X190721683Y-88360794D01*
X190574855Y-88390000D01*
X190425145Y-88390000D01*
X190278317Y-88360794D01*
X190140008Y-88303505D01*
X190015524Y-88220327D01*
X189909673Y-88114476D01*
X189872477Y-88058808D01*
X189826497Y-87989995D01*
X189826495Y-87989992D01*
X189769206Y-87851683D01*
X189740000Y-87704855D01*
X189740000Y-87555145D01*
X189769206Y-87408317D01*
X189826495Y-87270008D01*
X189869932Y-87205000D01*
X189909670Y-87145528D01*
X189909671Y-87145527D01*
X189909673Y-87145524D01*
X190015524Y-87039673D01*
X190031571Y-87028951D01*
X190140005Y-86956497D01*
X190140008Y-86956495D01*
X190278317Y-86899206D01*
X190425145Y-86870000D01*
X190574855Y-86870000D01*
X190721683Y-86899206D01*
X190721683Y-86899206D01*
G37*
G36*
X188181683Y-86899206D02*
X188319992Y-86956495D01*
X188319995Y-86956497D01*
X188428430Y-87028951D01*
X188444476Y-87039673D01*
X188550327Y-87145524D01*
X188550329Y-87145527D01*
X188550330Y-87145528D01*
X188590068Y-87205000D01*
X188633505Y-87270008D01*
X188690794Y-87408317D01*
X188720000Y-87555145D01*
X188720000Y-87704855D01*
X188690794Y-87851683D01*
X188633505Y-87989992D01*
X188633503Y-87989995D01*
X188587524Y-88058808D01*
X188550327Y-88114476D01*
X188444476Y-88220327D01*
X188319992Y-88303505D01*
X188181683Y-88360794D01*
X188034855Y-88390000D01*
X187885145Y-88390000D01*
X187738317Y-88360794D01*
X187600008Y-88303505D01*
X187475524Y-88220327D01*
X187369673Y-88114476D01*
X187332477Y-88058808D01*
X187286497Y-87989995D01*
X187286495Y-87989992D01*
X187229206Y-87851683D01*
X187200000Y-87704855D01*
X187200000Y-87555145D01*
X187229206Y-87408317D01*
X187286495Y-87270008D01*
X187329932Y-87205000D01*
X187369670Y-87145528D01*
X187369671Y-87145527D01*
X187369673Y-87145524D01*
X187475524Y-87039673D01*
X187491571Y-87028951D01*
X187600005Y-86956497D01*
X187600008Y-86956495D01*
X187738317Y-86899206D01*
X187885145Y-86870000D01*
X188034855Y-86870000D01*
X188181683Y-86899206D01*
X188181683Y-86899206D01*
G37*
G36*
X185641683Y-86899206D02*
X185779992Y-86956495D01*
X185779995Y-86956497D01*
X185888430Y-87028951D01*
X185904476Y-87039673D01*
X186010327Y-87145524D01*
X186010329Y-87145527D01*
X186010330Y-87145528D01*
X186050068Y-87205000D01*
X186093505Y-87270008D01*
X186150794Y-87408317D01*
X186180000Y-87555145D01*
X186180000Y-87704855D01*
X186150794Y-87851683D01*
X186093505Y-87989992D01*
X186093503Y-87989995D01*
X186047524Y-88058808D01*
X186010327Y-88114476D01*
X185904476Y-88220327D01*
X185779992Y-88303505D01*
X185641683Y-88360794D01*
X185494855Y-88390000D01*
X185345145Y-88390000D01*
X185198317Y-88360794D01*
X185060008Y-88303505D01*
X184935524Y-88220327D01*
X184829673Y-88114476D01*
X184792477Y-88058808D01*
X184746497Y-87989995D01*
X184746495Y-87989992D01*
X184689206Y-87851683D01*
X184660000Y-87704855D01*
X184660000Y-87555145D01*
X184689206Y-87408317D01*
X184746495Y-87270008D01*
X184789932Y-87205000D01*
X184829670Y-87145528D01*
X184829671Y-87145527D01*
X184829673Y-87145524D01*
X184935524Y-87039673D01*
X184951571Y-87028951D01*
X185060005Y-86956497D01*
X185060008Y-86956495D01*
X185198317Y-86899206D01*
X185345145Y-86870000D01*
X185494855Y-86870000D01*
X185641683Y-86899206D01*
X185641683Y-86899206D01*
G37*
G36*
X174211683Y-86899206D02*
X174349992Y-86956495D01*
X174349995Y-86956497D01*
X174458430Y-87028951D01*
X174474476Y-87039673D01*
X174580327Y-87145524D01*
X174580329Y-87145527D01*
X174580330Y-87145528D01*
X174620068Y-87205000D01*
X174663505Y-87270008D01*
X174720794Y-87408317D01*
X174750000Y-87555145D01*
X174750000Y-87704855D01*
X174720794Y-87851683D01*
X174663505Y-87989992D01*
X174663503Y-87989995D01*
X174617524Y-88058808D01*
X174580327Y-88114476D01*
X174474476Y-88220327D01*
X174349992Y-88303505D01*
X174211683Y-88360794D01*
X174064855Y-88390000D01*
X173915145Y-88390000D01*
X173768317Y-88360794D01*
X173630008Y-88303505D01*
X173505524Y-88220327D01*
X173399673Y-88114476D01*
X173362477Y-88058808D01*
X173316497Y-87989995D01*
X173316495Y-87989992D01*
X173259206Y-87851683D01*
X173230000Y-87704855D01*
X173230000Y-87555145D01*
X173259206Y-87408317D01*
X173316495Y-87270008D01*
X173359932Y-87205000D01*
X173399670Y-87145528D01*
X173399671Y-87145527D01*
X173399673Y-87145524D01*
X173505524Y-87039673D01*
X173521571Y-87028951D01*
X173630005Y-86956497D01*
X173630008Y-86956495D01*
X173768317Y-86899206D01*
X173915145Y-86870000D01*
X174064855Y-86870000D01*
X174211683Y-86899206D01*
X174211683Y-86899206D01*
G37*
G36*
X113824116Y-87158595D02*
X113853313Y-87167452D01*
X113880218Y-87181833D01*
X113903808Y-87201192D01*
X113923167Y-87224782D01*
X113937548Y-87251687D01*
X113946405Y-87280884D01*
X113950000Y-87317390D01*
X113950000Y-87942610D01*
X113946405Y-87979116D01*
X113937548Y-88008313D01*
X113923167Y-88035218D01*
X113903808Y-88058808D01*
X113880218Y-88078167D01*
X113853313Y-88092548D01*
X113824116Y-88101405D01*
X113787610Y-88105000D01*
X113237390Y-88105000D01*
X113200884Y-88101405D01*
X113171687Y-88092548D01*
X113144782Y-88078167D01*
X113121192Y-88058808D01*
X113101833Y-88035218D01*
X113087452Y-88008313D01*
X113078595Y-87979116D01*
X113075000Y-87942610D01*
X113075000Y-87317390D01*
X113078595Y-87280884D01*
X113087452Y-87251687D01*
X113101833Y-87224782D01*
X113121192Y-87201192D01*
X113144782Y-87181833D01*
X113171687Y-87167452D01*
X113200884Y-87158595D01*
X113237390Y-87155000D01*
X113787610Y-87155000D01*
X113824116Y-87158595D01*
X113824116Y-87158595D01*
G37*
G36*
X122079116Y-87158595D02*
X122108313Y-87167452D01*
X122135218Y-87181833D01*
X122158808Y-87201192D01*
X122178167Y-87224782D01*
X122192548Y-87251687D01*
X122201405Y-87280884D01*
X122205000Y-87317390D01*
X122205000Y-87942610D01*
X122201405Y-87979116D01*
X122192548Y-88008313D01*
X122178167Y-88035218D01*
X122158808Y-88058808D01*
X122135218Y-88078167D01*
X122108313Y-88092548D01*
X122079116Y-88101405D01*
X122042610Y-88105000D01*
X121492390Y-88105000D01*
X121455884Y-88101405D01*
X121426687Y-88092548D01*
X121399782Y-88078167D01*
X121376192Y-88058808D01*
X121356833Y-88035218D01*
X121342452Y-88008313D01*
X121333595Y-87979116D01*
X121330000Y-87942610D01*
X121330000Y-87317390D01*
X121333595Y-87280884D01*
X121342452Y-87251687D01*
X121356833Y-87224782D01*
X121376192Y-87201192D01*
X121399782Y-87181833D01*
X121426687Y-87167452D01*
X121455884Y-87158595D01*
X121492390Y-87155000D01*
X122042610Y-87155000D01*
X122079116Y-87158595D01*
X122079116Y-87158595D01*
G37*
G36*
X123654116Y-87158595D02*
X123683313Y-87167452D01*
X123710218Y-87181833D01*
X123733808Y-87201192D01*
X123753167Y-87224782D01*
X123767548Y-87251687D01*
X123776405Y-87280884D01*
X123780000Y-87317390D01*
X123780000Y-87942610D01*
X123776405Y-87979116D01*
X123767548Y-88008313D01*
X123753167Y-88035218D01*
X123733808Y-88058808D01*
X123710218Y-88078167D01*
X123683313Y-88092548D01*
X123654116Y-88101405D01*
X123617610Y-88105000D01*
X123067390Y-88105000D01*
X123030884Y-88101405D01*
X123001687Y-88092548D01*
X122974782Y-88078167D01*
X122951192Y-88058808D01*
X122931833Y-88035218D01*
X122917452Y-88008313D01*
X122908595Y-87979116D01*
X122905000Y-87942610D01*
X122905000Y-87317390D01*
X122908595Y-87280884D01*
X122917452Y-87251687D01*
X122931833Y-87224782D01*
X122951192Y-87201192D01*
X122974782Y-87181833D01*
X123001687Y-87167452D01*
X123030884Y-87158595D01*
X123067390Y-87155000D01*
X123617610Y-87155000D01*
X123654116Y-87158595D01*
X123654116Y-87158595D01*
G37*
G36*
X115399116Y-87158595D02*
X115428313Y-87167452D01*
X115455218Y-87181833D01*
X115478808Y-87201192D01*
X115498167Y-87224782D01*
X115512548Y-87251687D01*
X115521405Y-87280884D01*
X115525000Y-87317390D01*
X115525000Y-87942610D01*
X115521405Y-87979116D01*
X115512548Y-88008313D01*
X115498167Y-88035218D01*
X115478808Y-88058808D01*
X115455218Y-88078167D01*
X115428313Y-88092548D01*
X115399116Y-88101405D01*
X115362610Y-88105000D01*
X114812390Y-88105000D01*
X114775884Y-88101405D01*
X114746687Y-88092548D01*
X114719782Y-88078167D01*
X114696192Y-88058808D01*
X114676833Y-88035218D01*
X114662452Y-88008313D01*
X114653595Y-87979116D01*
X114650000Y-87942610D01*
X114650000Y-87317390D01*
X114653595Y-87280884D01*
X114662452Y-87251687D01*
X114676833Y-87224782D01*
X114696192Y-87201192D01*
X114719782Y-87181833D01*
X114746687Y-87167452D01*
X114775884Y-87158595D01*
X114812390Y-87155000D01*
X115362610Y-87155000D01*
X115399116Y-87158595D01*
X115399116Y-87158595D01*
G37*
G36*
X161370000Y-87855000D02*
X160670000Y-87855000D01*
X160670000Y-87405000D01*
X161370000Y-87405000D01*
X161370000Y-87855000D01*
X161370000Y-87855000D01*
G37*
G36*
X151363352Y-85550743D02*
X151508941Y-85611048D01*
X151639973Y-85698601D01*
X151751399Y-85810027D01*
X151838952Y-85941059D01*
X151899257Y-86086648D01*
X151930000Y-86241205D01*
X151930000Y-86398795D01*
X151899257Y-86553352D01*
X151838952Y-86698941D01*
X151751399Y-86829973D01*
X151639973Y-86941399D01*
X151508941Y-87028952D01*
X151363352Y-87089257D01*
X151208795Y-87120000D01*
X151051205Y-87120000D01*
X150896648Y-87089257D01*
X150751059Y-87028952D01*
X150620027Y-86941399D01*
X150543388Y-86864760D01*
X150524446Y-86849214D01*
X150502835Y-86837663D01*
X150479386Y-86830550D01*
X150455000Y-86828148D01*
X150430614Y-86830550D01*
X150407165Y-86837663D01*
X150385554Y-86849214D01*
X150366612Y-86864760D01*
X150351066Y-86883702D01*
X150339515Y-86905313D01*
X150332402Y-86928762D01*
X150330000Y-86953148D01*
X150330000Y-87069732D01*
X150299257Y-87224289D01*
X150238952Y-87369878D01*
X150151399Y-87500910D01*
X150039973Y-87612336D01*
X149908941Y-87699889D01*
X149763352Y-87760194D01*
X149608795Y-87790937D01*
X149451205Y-87790937D01*
X149296648Y-87760194D01*
X149151059Y-87699889D01*
X149020027Y-87612336D01*
X148908601Y-87500910D01*
X148821048Y-87369878D01*
X148760743Y-87224289D01*
X148730000Y-87069732D01*
X148730000Y-86912142D01*
X148760743Y-86757585D01*
X148821048Y-86611996D01*
X148908601Y-86480964D01*
X149020027Y-86369538D01*
X149151059Y-86281985D01*
X149296648Y-86221680D01*
X149451205Y-86190937D01*
X149608795Y-86190937D01*
X149763352Y-86221680D01*
X149908941Y-86281985D01*
X150039973Y-86369538D01*
X150116612Y-86446177D01*
X150135554Y-86461723D01*
X150157165Y-86473274D01*
X150180614Y-86480387D01*
X150205000Y-86482789D01*
X150229386Y-86480387D01*
X150252835Y-86473274D01*
X150274446Y-86461723D01*
X150293388Y-86446177D01*
X150308934Y-86427235D01*
X150320485Y-86405624D01*
X150327598Y-86382175D01*
X150330000Y-86357789D01*
X150330000Y-86241205D01*
X150360743Y-86086648D01*
X150421048Y-85941059D01*
X150508601Y-85810027D01*
X150620027Y-85698601D01*
X150751059Y-85611048D01*
X150896648Y-85550743D01*
X151051205Y-85520000D01*
X151208795Y-85520000D01*
X151363352Y-85550743D01*
X151363352Y-85550743D01*
G37*
G36*
X159370000Y-87205000D02*
X158670000Y-87205000D01*
X158670000Y-86755000D01*
X159370000Y-86755000D01*
X159370000Y-87205000D01*
X159370000Y-87205000D01*
G37*
G36*
X107030026Y-83682115D02*
X107248412Y-83772573D01*
X107444958Y-83903901D01*
X107612099Y-84071042D01*
X107743427Y-84267588D01*
X107833885Y-84485974D01*
X107880000Y-84717809D01*
X107880000Y-84954191D01*
X107833885Y-85186026D01*
X107743427Y-85404412D01*
X107612099Y-85600958D01*
X107444958Y-85768099D01*
X107248412Y-85899427D01*
X107030026Y-85989885D01*
X106798191Y-86036000D01*
X106561809Y-86036000D01*
X106329974Y-85989885D01*
X106111588Y-85899427D01*
X105915042Y-85768099D01*
X105747901Y-85600958D01*
X105616573Y-85404412D01*
X105526115Y-85186026D01*
X105480000Y-84954191D01*
X105480000Y-84717809D01*
X105526115Y-84485974D01*
X105616573Y-84267588D01*
X105747901Y-84071042D01*
X105915042Y-83903901D01*
X106111588Y-83772573D01*
X106329974Y-83682115D01*
X106561809Y-83636000D01*
X106798191Y-83636000D01*
X107030026Y-83682115D01*
X107030026Y-83682115D01*
G37*
G36*
X162187992Y-84521076D02*
X162221883Y-84531357D01*
X162253111Y-84548048D01*
X162280485Y-84570515D01*
X162302952Y-84597889D01*
X162319643Y-84629117D01*
X162329924Y-84663008D01*
X162334000Y-84704391D01*
X162334000Y-85729609D01*
X162329924Y-85770992D01*
X162319643Y-85804883D01*
X162302952Y-85836111D01*
X162280485Y-85863485D01*
X162253111Y-85885952D01*
X162221883Y-85902643D01*
X162187992Y-85912924D01*
X162146609Y-85917000D01*
X161546391Y-85917000D01*
X161505008Y-85912924D01*
X161471117Y-85902643D01*
X161439889Y-85885952D01*
X161412515Y-85863485D01*
X161390048Y-85836111D01*
X161373357Y-85804883D01*
X161363076Y-85770992D01*
X161359000Y-85729609D01*
X161359000Y-84704391D01*
X161363076Y-84663008D01*
X161373357Y-84629117D01*
X161390048Y-84597889D01*
X161412515Y-84570515D01*
X161439889Y-84548048D01*
X161471117Y-84531357D01*
X161505008Y-84521076D01*
X161546391Y-84517000D01*
X162146609Y-84517000D01*
X162187992Y-84521076D01*
X162187992Y-84521076D01*
G37*
G36*
X160312992Y-84521076D02*
X160346883Y-84531357D01*
X160378111Y-84548048D01*
X160405485Y-84570515D01*
X160427952Y-84597889D01*
X160444643Y-84629117D01*
X160454924Y-84663008D01*
X160459000Y-84704391D01*
X160459000Y-85729609D01*
X160454924Y-85770992D01*
X160444643Y-85804883D01*
X160427952Y-85836111D01*
X160405485Y-85863485D01*
X160378111Y-85885952D01*
X160346883Y-85902643D01*
X160312992Y-85912924D01*
X160271609Y-85917000D01*
X159671391Y-85917000D01*
X159630008Y-85912924D01*
X159596117Y-85902643D01*
X159564889Y-85885952D01*
X159537515Y-85863485D01*
X159515048Y-85836111D01*
X159498357Y-85804883D01*
X159488076Y-85770992D01*
X159484000Y-85729609D01*
X159484000Y-84704391D01*
X159488076Y-84663008D01*
X159498357Y-84629117D01*
X159515048Y-84597889D01*
X159537515Y-84570515D01*
X159564889Y-84548048D01*
X159596117Y-84531357D01*
X159630008Y-84521076D01*
X159671391Y-84517000D01*
X160271609Y-84517000D01*
X160312992Y-84521076D01*
X160312992Y-84521076D01*
G37*
G36*
X110663195Y-84347522D02*
X110712267Y-84357283D01*
X110850942Y-84414724D01*
X110975750Y-84498118D01*
X111081882Y-84604250D01*
X111081884Y-84604253D01*
X111165276Y-84729058D01*
X111208641Y-84833750D01*
X111222717Y-84867734D01*
X111252000Y-85014948D01*
X111252000Y-85165052D01*
X111232478Y-85263195D01*
X111222717Y-85312267D01*
X111165668Y-85449995D01*
X111165276Y-85450942D01*
X111081882Y-85575750D01*
X110975750Y-85681882D01*
X110975747Y-85681884D01*
X110850942Y-85765276D01*
X110712267Y-85822717D01*
X110663195Y-85832478D01*
X110565052Y-85852000D01*
X110414948Y-85852000D01*
X110316805Y-85832478D01*
X110267733Y-85822717D01*
X110129058Y-85765276D01*
X110004253Y-85681884D01*
X110004250Y-85681882D01*
X109898118Y-85575750D01*
X109814724Y-85450942D01*
X109814332Y-85449995D01*
X109757283Y-85312267D01*
X109747522Y-85263195D01*
X109728000Y-85165052D01*
X109728000Y-85014948D01*
X109757283Y-84867734D01*
X109771360Y-84833750D01*
X109814724Y-84729058D01*
X109898116Y-84604253D01*
X109898118Y-84604250D01*
X110004250Y-84498118D01*
X110129058Y-84414724D01*
X110267733Y-84357283D01*
X110316805Y-84347522D01*
X110414948Y-84328000D01*
X110565052Y-84328000D01*
X110663195Y-84347522D01*
X110663195Y-84347522D01*
G37*
G36*
X125903195Y-84347522D02*
X125952267Y-84357283D01*
X126090942Y-84414724D01*
X126215750Y-84498118D01*
X126321882Y-84604250D01*
X126321884Y-84604253D01*
X126405276Y-84729058D01*
X126448641Y-84833750D01*
X126462717Y-84867734D01*
X126492000Y-85014948D01*
X126492000Y-85165052D01*
X126472478Y-85263195D01*
X126462717Y-85312267D01*
X126405668Y-85449995D01*
X126405276Y-85450942D01*
X126321882Y-85575750D01*
X126215750Y-85681882D01*
X126215747Y-85681884D01*
X126090942Y-85765276D01*
X125952267Y-85822717D01*
X125903195Y-85832478D01*
X125805052Y-85852000D01*
X125654948Y-85852000D01*
X125556805Y-85832478D01*
X125507733Y-85822717D01*
X125369058Y-85765276D01*
X125244253Y-85681884D01*
X125244250Y-85681882D01*
X125138118Y-85575750D01*
X125054724Y-85450942D01*
X125054332Y-85449995D01*
X124997283Y-85312267D01*
X124987522Y-85263195D01*
X124968000Y-85165052D01*
X124968000Y-85014948D01*
X124997283Y-84867734D01*
X125011360Y-84833750D01*
X125054724Y-84729058D01*
X125138116Y-84604253D01*
X125138118Y-84604250D01*
X125244250Y-84498118D01*
X125369058Y-84414724D01*
X125507733Y-84357283D01*
X125556805Y-84347522D01*
X125654948Y-84328000D01*
X125805052Y-84328000D01*
X125903195Y-84347522D01*
X125903195Y-84347522D01*
G37*
G36*
X170401683Y-84359206D02*
X170539992Y-84416495D01*
X170539995Y-84416497D01*
X170643975Y-84485974D01*
X170664476Y-84499673D01*
X170770327Y-84605524D01*
X170770329Y-84605527D01*
X170770330Y-84605528D01*
X170808737Y-84663008D01*
X170853505Y-84730008D01*
X170910794Y-84868317D01*
X170940000Y-85015145D01*
X170940000Y-85164855D01*
X170910794Y-85311683D01*
X170853505Y-85449992D01*
X170853503Y-85449995D01*
X170807524Y-85518808D01*
X170770327Y-85574476D01*
X170664476Y-85680327D01*
X170664473Y-85680329D01*
X170664472Y-85680330D01*
X170603900Y-85720803D01*
X170539992Y-85763505D01*
X170401683Y-85820794D01*
X170254855Y-85850000D01*
X170105145Y-85850000D01*
X169958317Y-85820794D01*
X169820008Y-85763505D01*
X169756100Y-85720803D01*
X169695528Y-85680330D01*
X169695527Y-85680329D01*
X169695524Y-85680327D01*
X169589673Y-85574476D01*
X169552477Y-85518808D01*
X169506497Y-85449995D01*
X169506495Y-85449992D01*
X169449206Y-85311683D01*
X169420000Y-85164855D01*
X169420000Y-85015145D01*
X169449206Y-84868317D01*
X169506495Y-84730008D01*
X169551263Y-84663008D01*
X169589670Y-84605528D01*
X169589671Y-84605527D01*
X169589673Y-84605524D01*
X169695524Y-84499673D01*
X169716026Y-84485974D01*
X169820005Y-84416497D01*
X169820008Y-84416495D01*
X169958317Y-84359206D01*
X170105145Y-84330000D01*
X170254855Y-84330000D01*
X170401683Y-84359206D01*
X170401683Y-84359206D01*
G37*
G36*
X172941683Y-84359206D02*
X173079992Y-84416495D01*
X173079995Y-84416497D01*
X173183975Y-84485974D01*
X173204476Y-84499673D01*
X173310327Y-84605524D01*
X173310329Y-84605527D01*
X173310330Y-84605528D01*
X173348737Y-84663008D01*
X173393505Y-84730008D01*
X173450794Y-84868317D01*
X173480000Y-85015145D01*
X173480000Y-85164855D01*
X173450794Y-85311683D01*
X173393505Y-85449992D01*
X173393503Y-85449995D01*
X173347524Y-85518808D01*
X173310327Y-85574476D01*
X173204476Y-85680327D01*
X173204473Y-85680329D01*
X173204472Y-85680330D01*
X173143900Y-85720803D01*
X173079992Y-85763505D01*
X172941683Y-85820794D01*
X172794855Y-85850000D01*
X172645145Y-85850000D01*
X172498317Y-85820794D01*
X172360008Y-85763505D01*
X172296100Y-85720803D01*
X172235528Y-85680330D01*
X172235527Y-85680329D01*
X172235524Y-85680327D01*
X172129673Y-85574476D01*
X172092477Y-85518808D01*
X172046497Y-85449995D01*
X172046495Y-85449992D01*
X171989206Y-85311683D01*
X171960000Y-85164855D01*
X171960000Y-85015145D01*
X171989206Y-84868317D01*
X172046495Y-84730008D01*
X172091263Y-84663008D01*
X172129670Y-84605528D01*
X172129671Y-84605527D01*
X172129673Y-84605524D01*
X172235524Y-84499673D01*
X172256026Y-84485974D01*
X172360005Y-84416497D01*
X172360008Y-84416495D01*
X172498317Y-84359206D01*
X172645145Y-84330000D01*
X172794855Y-84330000D01*
X172941683Y-84359206D01*
X172941683Y-84359206D01*
G37*
G36*
X184910000Y-85850000D02*
X183390000Y-85850000D01*
X183390000Y-84330000D01*
X184910000Y-84330000D01*
X184910000Y-85850000D01*
X184910000Y-85850000D01*
G37*
G36*
X186911683Y-84359206D02*
X187049992Y-84416495D01*
X187049995Y-84416497D01*
X187153975Y-84485974D01*
X187174476Y-84499673D01*
X187280327Y-84605524D01*
X187280329Y-84605527D01*
X187280330Y-84605528D01*
X187318737Y-84663008D01*
X187363505Y-84730008D01*
X187420794Y-84868317D01*
X187450000Y-85015145D01*
X187450000Y-85164855D01*
X187420794Y-85311683D01*
X187363505Y-85449992D01*
X187363503Y-85449995D01*
X187317524Y-85518808D01*
X187280327Y-85574476D01*
X187174476Y-85680327D01*
X187174473Y-85680329D01*
X187174472Y-85680330D01*
X187113900Y-85720803D01*
X187049992Y-85763505D01*
X186911683Y-85820794D01*
X186764855Y-85850000D01*
X186615145Y-85850000D01*
X186468317Y-85820794D01*
X186330008Y-85763505D01*
X186266100Y-85720803D01*
X186205528Y-85680330D01*
X186205527Y-85680329D01*
X186205524Y-85680327D01*
X186099673Y-85574476D01*
X186062477Y-85518808D01*
X186016497Y-85449995D01*
X186016495Y-85449992D01*
X185959206Y-85311683D01*
X185930000Y-85164855D01*
X185930000Y-85015145D01*
X185959206Y-84868317D01*
X186016495Y-84730008D01*
X186061263Y-84663008D01*
X186099670Y-84605528D01*
X186099671Y-84605527D01*
X186099673Y-84605524D01*
X186205524Y-84499673D01*
X186226026Y-84485974D01*
X186330005Y-84416497D01*
X186330008Y-84416495D01*
X186468317Y-84359206D01*
X186615145Y-84330000D01*
X186764855Y-84330000D01*
X186911683Y-84359206D01*
X186911683Y-84359206D01*
G37*
G36*
X168400000Y-85850000D02*
X166880000Y-85850000D01*
X166880000Y-84330000D01*
X168400000Y-84330000D01*
X168400000Y-85850000D01*
X168400000Y-85850000D01*
G37*
G36*
X189451683Y-84359206D02*
X189589992Y-84416495D01*
X189589995Y-84416497D01*
X189693975Y-84485974D01*
X189714476Y-84499673D01*
X189820327Y-84605524D01*
X189820329Y-84605527D01*
X189820330Y-84605528D01*
X189858737Y-84663008D01*
X189903505Y-84730008D01*
X189960794Y-84868317D01*
X189990000Y-85015145D01*
X189990000Y-85164855D01*
X189960794Y-85311683D01*
X189903505Y-85449992D01*
X189903503Y-85449995D01*
X189857524Y-85518808D01*
X189820327Y-85574476D01*
X189714476Y-85680327D01*
X189714473Y-85680329D01*
X189714472Y-85680330D01*
X189653900Y-85720803D01*
X189589992Y-85763505D01*
X189451683Y-85820794D01*
X189304855Y-85850000D01*
X189155145Y-85850000D01*
X189008317Y-85820794D01*
X188870008Y-85763505D01*
X188806100Y-85720803D01*
X188745528Y-85680330D01*
X188745527Y-85680329D01*
X188745524Y-85680327D01*
X188639673Y-85574476D01*
X188602477Y-85518808D01*
X188556497Y-85449995D01*
X188556495Y-85449992D01*
X188499206Y-85311683D01*
X188470000Y-85164855D01*
X188470000Y-85015145D01*
X188499206Y-84868317D01*
X188556495Y-84730008D01*
X188601263Y-84663008D01*
X188639670Y-84605528D01*
X188639671Y-84605527D01*
X188639673Y-84605524D01*
X188745524Y-84499673D01*
X188766026Y-84485974D01*
X188870005Y-84416497D01*
X188870008Y-84416495D01*
X189008317Y-84359206D01*
X189155145Y-84330000D01*
X189304855Y-84330000D01*
X189451683Y-84359206D01*
X189451683Y-84359206D01*
G37*
G36*
X123654116Y-84618595D02*
X123683313Y-84627452D01*
X123710218Y-84641833D01*
X123733808Y-84661192D01*
X123753167Y-84684782D01*
X123767548Y-84711687D01*
X123776405Y-84740884D01*
X123780000Y-84777390D01*
X123780000Y-85402610D01*
X123776405Y-85439116D01*
X123767548Y-85468313D01*
X123753167Y-85495218D01*
X123733808Y-85518808D01*
X123710218Y-85538167D01*
X123683313Y-85552548D01*
X123654116Y-85561405D01*
X123617610Y-85565000D01*
X123067390Y-85565000D01*
X123030884Y-85561405D01*
X123001687Y-85552548D01*
X122974782Y-85538167D01*
X122951192Y-85518808D01*
X122931833Y-85495218D01*
X122917452Y-85468313D01*
X122908595Y-85439116D01*
X122905000Y-85402610D01*
X122905000Y-84777390D01*
X122908595Y-84740884D01*
X122917452Y-84711687D01*
X122931833Y-84684782D01*
X122951192Y-84661192D01*
X122974782Y-84641833D01*
X123001687Y-84627452D01*
X123030884Y-84618595D01*
X123067390Y-84615000D01*
X123617610Y-84615000D01*
X123654116Y-84618595D01*
X123654116Y-84618595D01*
G37*
G36*
X122079116Y-84618595D02*
X122108313Y-84627452D01*
X122135218Y-84641833D01*
X122158808Y-84661192D01*
X122178167Y-84684782D01*
X122192548Y-84711687D01*
X122201405Y-84740884D01*
X122205000Y-84777390D01*
X122205000Y-85402610D01*
X122201405Y-85439116D01*
X122192548Y-85468313D01*
X122178167Y-85495218D01*
X122158808Y-85518808D01*
X122135218Y-85538167D01*
X122108313Y-85552548D01*
X122079116Y-85561405D01*
X122042610Y-85565000D01*
X121492390Y-85565000D01*
X121455884Y-85561405D01*
X121426687Y-85552548D01*
X121399782Y-85538167D01*
X121376192Y-85518808D01*
X121356833Y-85495218D01*
X121342452Y-85468313D01*
X121333595Y-85439116D01*
X121330000Y-85402610D01*
X121330000Y-84777390D01*
X121333595Y-84740884D01*
X121342452Y-84711687D01*
X121356833Y-84684782D01*
X121376192Y-84661192D01*
X121399782Y-84641833D01*
X121426687Y-84627452D01*
X121455884Y-84618595D01*
X121492390Y-84615000D01*
X122042610Y-84615000D01*
X122079116Y-84618595D01*
X122079116Y-84618595D01*
G37*
G36*
X115399116Y-84618595D02*
X115428313Y-84627452D01*
X115455218Y-84641833D01*
X115478808Y-84661192D01*
X115498167Y-84684782D01*
X115512548Y-84711687D01*
X115521405Y-84740884D01*
X115525000Y-84777390D01*
X115525000Y-85402610D01*
X115521405Y-85439116D01*
X115512548Y-85468313D01*
X115498167Y-85495218D01*
X115478808Y-85518808D01*
X115455218Y-85538167D01*
X115428313Y-85552548D01*
X115399116Y-85561405D01*
X115362610Y-85565000D01*
X114812390Y-85565000D01*
X114775884Y-85561405D01*
X114746687Y-85552548D01*
X114719782Y-85538167D01*
X114696192Y-85518808D01*
X114676833Y-85495218D01*
X114662452Y-85468313D01*
X114653595Y-85439116D01*
X114650000Y-85402610D01*
X114650000Y-84777390D01*
X114653595Y-84740884D01*
X114662452Y-84711687D01*
X114676833Y-84684782D01*
X114696192Y-84661192D01*
X114719782Y-84641833D01*
X114746687Y-84627452D01*
X114775884Y-84618595D01*
X114812390Y-84615000D01*
X115362610Y-84615000D01*
X115399116Y-84618595D01*
X115399116Y-84618595D01*
G37*
G36*
X113824116Y-84618595D02*
X113853313Y-84627452D01*
X113880218Y-84641833D01*
X113903808Y-84661192D01*
X113923167Y-84684782D01*
X113937548Y-84711687D01*
X113946405Y-84740884D01*
X113950000Y-84777390D01*
X113950000Y-85402610D01*
X113946405Y-85439116D01*
X113937548Y-85468313D01*
X113923167Y-85495218D01*
X113903808Y-85518808D01*
X113880218Y-85538167D01*
X113853313Y-85552548D01*
X113824116Y-85561405D01*
X113787610Y-85565000D01*
X113237390Y-85565000D01*
X113200884Y-85561405D01*
X113171687Y-85552548D01*
X113144782Y-85538167D01*
X113121192Y-85518808D01*
X113101833Y-85495218D01*
X113087452Y-85468313D01*
X113078595Y-85439116D01*
X113075000Y-85402610D01*
X113075000Y-84777390D01*
X113078595Y-84740884D01*
X113087452Y-84711687D01*
X113101833Y-84684782D01*
X113121192Y-84661192D01*
X113144782Y-84641833D01*
X113171687Y-84627452D01*
X113200884Y-84618595D01*
X113237390Y-84615000D01*
X113787610Y-84615000D01*
X113824116Y-84618595D01*
X113824116Y-84618595D01*
G37*
G36*
X153530000Y-83949063D02*
X152055000Y-83949063D01*
X152030614Y-83951465D01*
X152007165Y-83958578D01*
X151985554Y-83970129D01*
X151966612Y-83985675D01*
X151951066Y-84004617D01*
X151939515Y-84026228D01*
X151932402Y-84049677D01*
X151930000Y-84074063D01*
X151930000Y-84620000D01*
X150330000Y-84620000D01*
X150330000Y-83020000D01*
X151805000Y-83020000D01*
X151829386Y-83017598D01*
X151852835Y-83010485D01*
X151874446Y-82998934D01*
X151893388Y-82983388D01*
X151908934Y-82964446D01*
X151920485Y-82942835D01*
X151927598Y-82919386D01*
X151930000Y-82895000D01*
X151930000Y-82349063D01*
X153530000Y-82349063D01*
X153530000Y-83949063D01*
X153530000Y-83949063D01*
G37*
G36*
X110663195Y-81807522D02*
X110712267Y-81817283D01*
X110850942Y-81874724D01*
X110975750Y-81958118D01*
X111081882Y-82064250D01*
X111081884Y-82064253D01*
X111165276Y-82189058D01*
X111222717Y-82327733D01*
X111252000Y-82474950D01*
X111252000Y-82625050D01*
X111222717Y-82772267D01*
X111190964Y-82848926D01*
X111165276Y-82910942D01*
X111081882Y-83035750D01*
X110975750Y-83141882D01*
X110975747Y-83141884D01*
X110850942Y-83225276D01*
X110712267Y-83282717D01*
X110663195Y-83292478D01*
X110565052Y-83312000D01*
X110414948Y-83312000D01*
X110316805Y-83292478D01*
X110267733Y-83282717D01*
X110129058Y-83225276D01*
X110004253Y-83141884D01*
X110004250Y-83141882D01*
X109898118Y-83035750D01*
X109814724Y-82910942D01*
X109789036Y-82848926D01*
X109757283Y-82772267D01*
X109728000Y-82625050D01*
X109728000Y-82474950D01*
X109757283Y-82327733D01*
X109814724Y-82189058D01*
X109898116Y-82064253D01*
X109898118Y-82064250D01*
X110004250Y-81958118D01*
X110129058Y-81874724D01*
X110267733Y-81817283D01*
X110316805Y-81807522D01*
X110414948Y-81788000D01*
X110565052Y-81788000D01*
X110663195Y-81807522D01*
X110663195Y-81807522D01*
G37*
G36*
X125903195Y-81807522D02*
X125952267Y-81817283D01*
X126090942Y-81874724D01*
X126215750Y-81958118D01*
X126321882Y-82064250D01*
X126321884Y-82064253D01*
X126405276Y-82189058D01*
X126462717Y-82327733D01*
X126492000Y-82474950D01*
X126492000Y-82625050D01*
X126462717Y-82772267D01*
X126430964Y-82848926D01*
X126405276Y-82910942D01*
X126321882Y-83035750D01*
X126215750Y-83141882D01*
X126215747Y-83141884D01*
X126090942Y-83225276D01*
X125952267Y-83282717D01*
X125903195Y-83292478D01*
X125805052Y-83312000D01*
X125654948Y-83312000D01*
X125556805Y-83292478D01*
X125507733Y-83282717D01*
X125369058Y-83225276D01*
X125244253Y-83141884D01*
X125244250Y-83141882D01*
X125138118Y-83035750D01*
X125054724Y-82910942D01*
X125029036Y-82848926D01*
X124997283Y-82772267D01*
X124968000Y-82625050D01*
X124968000Y-82474950D01*
X124997283Y-82327733D01*
X125054724Y-82189058D01*
X125138116Y-82064253D01*
X125138118Y-82064250D01*
X125244250Y-81958118D01*
X125369058Y-81874724D01*
X125507733Y-81817283D01*
X125556805Y-81807522D01*
X125654948Y-81788000D01*
X125805052Y-81788000D01*
X125903195Y-81807522D01*
X125903195Y-81807522D01*
G37*
G36*
X113824116Y-82078595D02*
X113853313Y-82087452D01*
X113880218Y-82101833D01*
X113903808Y-82121192D01*
X113923167Y-82144782D01*
X113937548Y-82171687D01*
X113946405Y-82200884D01*
X113950000Y-82237390D01*
X113950000Y-82862610D01*
X113946405Y-82899116D01*
X113937548Y-82928313D01*
X113923167Y-82955218D01*
X113903808Y-82978808D01*
X113880218Y-82998167D01*
X113853313Y-83012548D01*
X113824116Y-83021405D01*
X113787610Y-83025000D01*
X113237390Y-83025000D01*
X113200884Y-83021405D01*
X113171687Y-83012548D01*
X113144782Y-82998167D01*
X113121192Y-82978808D01*
X113101833Y-82955218D01*
X113087452Y-82928313D01*
X113078595Y-82899116D01*
X113075000Y-82862610D01*
X113075000Y-82237390D01*
X113078595Y-82200884D01*
X113087452Y-82171687D01*
X113101833Y-82144782D01*
X113121192Y-82121192D01*
X113144782Y-82101833D01*
X113171687Y-82087452D01*
X113200884Y-82078595D01*
X113237390Y-82075000D01*
X113787610Y-82075000D01*
X113824116Y-82078595D01*
X113824116Y-82078595D01*
G37*
G36*
X115399116Y-82078595D02*
X115428313Y-82087452D01*
X115455218Y-82101833D01*
X115478808Y-82121192D01*
X115498167Y-82144782D01*
X115512548Y-82171687D01*
X115521405Y-82200884D01*
X115525000Y-82237390D01*
X115525000Y-82862610D01*
X115521405Y-82899116D01*
X115512548Y-82928313D01*
X115498167Y-82955218D01*
X115478808Y-82978808D01*
X115455218Y-82998167D01*
X115428313Y-83012548D01*
X115399116Y-83021405D01*
X115362610Y-83025000D01*
X114812390Y-83025000D01*
X114775884Y-83021405D01*
X114746687Y-83012548D01*
X114719782Y-82998167D01*
X114696192Y-82978808D01*
X114676833Y-82955218D01*
X114662452Y-82928313D01*
X114653595Y-82899116D01*
X114650000Y-82862610D01*
X114650000Y-82237390D01*
X114653595Y-82200884D01*
X114662452Y-82171687D01*
X114676833Y-82144782D01*
X114696192Y-82121192D01*
X114719782Y-82101833D01*
X114746687Y-82087452D01*
X114775884Y-82078595D01*
X114812390Y-82075000D01*
X115362610Y-82075000D01*
X115399116Y-82078595D01*
X115399116Y-82078595D01*
G37*
G36*
X192017764Y-80034402D02*
X192140445Y-80058805D01*
X192371571Y-80154541D01*
X192579581Y-80293529D01*
X192756471Y-80470419D01*
X192756473Y-80470422D01*
X192895459Y-80678429D01*
X192991195Y-80909555D01*
X193040000Y-81154916D01*
X193040000Y-81405084D01*
X192991195Y-81650445D01*
X192898295Y-81874724D01*
X192895459Y-81881571D01*
X192756471Y-82089581D01*
X192579581Y-82266471D01*
X192579578Y-82266473D01*
X192371571Y-82405459D01*
X192140445Y-82501195D01*
X192017765Y-82525597D01*
X191895086Y-82550000D01*
X191644914Y-82550000D01*
X191522236Y-82525598D01*
X191399555Y-82501195D01*
X191168429Y-82405459D01*
X190960422Y-82266473D01*
X190960419Y-82266471D01*
X190783529Y-82089581D01*
X190644541Y-81881571D01*
X190641705Y-81874724D01*
X190548805Y-81650445D01*
X190500000Y-81405084D01*
X190500000Y-81154916D01*
X190548805Y-80909555D01*
X190644541Y-80678429D01*
X190783527Y-80470422D01*
X190783529Y-80470419D01*
X190960419Y-80293529D01*
X191168429Y-80154541D01*
X191399555Y-80058805D01*
X191522235Y-80034403D01*
X191644914Y-80010000D01*
X191895086Y-80010000D01*
X192017764Y-80034402D01*
X192017764Y-80034402D01*
G37*
G36*
X194495223Y-80669403D02*
X194610784Y-80717270D01*
X194714792Y-80786766D01*
X194803234Y-80875208D01*
X194872730Y-80979216D01*
X194893130Y-81028466D01*
X194920597Y-81094777D01*
X194945000Y-81217458D01*
X194945000Y-81342542D01*
X194932559Y-81405086D01*
X194920597Y-81465223D01*
X194872730Y-81580784D01*
X194803234Y-81684792D01*
X194714792Y-81773234D01*
X194610784Y-81842730D01*
X194495223Y-81890597D01*
X194372542Y-81915000D01*
X194247458Y-81915000D01*
X194124777Y-81890597D01*
X194009216Y-81842730D01*
X193905208Y-81773234D01*
X193816766Y-81684792D01*
X193747270Y-81580784D01*
X193699403Y-81465223D01*
X193687441Y-81405086D01*
X193675000Y-81342542D01*
X193675000Y-81217458D01*
X193699403Y-81094777D01*
X193726870Y-81028466D01*
X193747270Y-80979216D01*
X193816766Y-80875208D01*
X193905208Y-80786766D01*
X194009216Y-80717270D01*
X194124777Y-80669403D01*
X194247458Y-80645000D01*
X194372542Y-80645000D01*
X194495223Y-80669403D01*
X194495223Y-80669403D01*
G37*
G36*
X106855770Y-79406372D02*
X106971689Y-79429429D01*
X107153678Y-79504811D01*
X107317463Y-79614249D01*
X107456751Y-79753537D01*
X107566189Y-79917322D01*
X107641571Y-80099311D01*
X107680000Y-80292509D01*
X107680000Y-80489491D01*
X107641571Y-80682689D01*
X107566189Y-80864678D01*
X107456751Y-81028463D01*
X107317463Y-81167751D01*
X107153678Y-81277189D01*
X106971689Y-81352571D01*
X106855770Y-81375628D01*
X106778493Y-81391000D01*
X106581507Y-81391000D01*
X106504230Y-81375628D01*
X106388311Y-81352571D01*
X106206322Y-81277189D01*
X106042537Y-81167751D01*
X105903249Y-81028463D01*
X105793811Y-80864678D01*
X105718429Y-80682689D01*
X105680000Y-80489491D01*
X105680000Y-80292509D01*
X105718429Y-80099311D01*
X105793811Y-79917322D01*
X105903249Y-79753537D01*
X106042537Y-79614249D01*
X106206322Y-79504811D01*
X106388311Y-79429429D01*
X106504230Y-79406372D01*
X106581507Y-79391000D01*
X106778493Y-79391000D01*
X106855770Y-79406372D01*
X106855770Y-79406372D01*
G37*
G36*
X110663195Y-79267522D02*
X110712267Y-79277283D01*
X110850942Y-79334724D01*
X110975750Y-79418118D01*
X111081882Y-79524250D01*
X111081884Y-79524253D01*
X111165276Y-79649058D01*
X111208641Y-79753750D01*
X111222717Y-79787734D01*
X111252000Y-79934948D01*
X111252000Y-80085052D01*
X111249163Y-80099314D01*
X111222717Y-80232267D01*
X111197765Y-80292507D01*
X111165276Y-80370942D01*
X111081882Y-80495750D01*
X110975750Y-80601882D01*
X110975747Y-80601884D01*
X110850942Y-80685276D01*
X110712267Y-80742717D01*
X110663195Y-80752478D01*
X110565052Y-80772000D01*
X110414948Y-80772000D01*
X110316805Y-80752478D01*
X110267733Y-80742717D01*
X110129058Y-80685276D01*
X110004253Y-80601884D01*
X110004250Y-80601882D01*
X109898118Y-80495750D01*
X109814724Y-80370942D01*
X109782235Y-80292507D01*
X109757283Y-80232267D01*
X109730837Y-80099314D01*
X109728000Y-80085052D01*
X109728000Y-79934948D01*
X109757283Y-79787734D01*
X109771360Y-79753750D01*
X109814724Y-79649058D01*
X109898116Y-79524253D01*
X109898118Y-79524250D01*
X110004250Y-79418118D01*
X110129058Y-79334724D01*
X110267733Y-79277283D01*
X110316805Y-79267522D01*
X110414948Y-79248000D01*
X110565052Y-79248000D01*
X110663195Y-79267522D01*
X110663195Y-79267522D01*
G37*
G36*
X125903195Y-79267522D02*
X125952267Y-79277283D01*
X126090942Y-79334724D01*
X126215750Y-79418118D01*
X126321882Y-79524250D01*
X126321884Y-79524253D01*
X126405276Y-79649058D01*
X126448641Y-79753750D01*
X126462717Y-79787734D01*
X126492000Y-79934948D01*
X126492000Y-80085052D01*
X126489163Y-80099314D01*
X126462717Y-80232267D01*
X126437765Y-80292507D01*
X126405276Y-80370942D01*
X126321882Y-80495750D01*
X126215750Y-80601882D01*
X126215747Y-80601884D01*
X126090942Y-80685276D01*
X125952267Y-80742717D01*
X125903195Y-80752478D01*
X125805052Y-80772000D01*
X125654948Y-80772000D01*
X125556805Y-80752478D01*
X125507733Y-80742717D01*
X125369058Y-80685276D01*
X125244253Y-80601884D01*
X125244250Y-80601882D01*
X125138118Y-80495750D01*
X125054724Y-80370942D01*
X125022235Y-80292507D01*
X124997283Y-80232267D01*
X124970837Y-80099314D01*
X124968000Y-80085052D01*
X124968000Y-79934948D01*
X124997283Y-79787734D01*
X125011360Y-79753750D01*
X125054724Y-79649058D01*
X125138116Y-79524253D01*
X125138118Y-79524250D01*
X125244250Y-79418118D01*
X125369058Y-79334724D01*
X125507733Y-79277283D01*
X125556805Y-79267522D01*
X125654948Y-79248000D01*
X125805052Y-79248000D01*
X125903195Y-79267522D01*
X125903195Y-79267522D01*
G37*
G36*
X115399116Y-79538595D02*
X115428313Y-79547452D01*
X115455218Y-79561833D01*
X115478808Y-79581192D01*
X115498167Y-79604782D01*
X115512548Y-79631687D01*
X115521405Y-79660884D01*
X115525000Y-79697390D01*
X115525000Y-80322610D01*
X115521405Y-80359116D01*
X115512548Y-80388313D01*
X115498167Y-80415218D01*
X115478808Y-80438808D01*
X115455218Y-80458167D01*
X115428313Y-80472548D01*
X115399116Y-80481405D01*
X115362610Y-80485000D01*
X114812390Y-80485000D01*
X114775884Y-80481405D01*
X114746687Y-80472548D01*
X114719782Y-80458167D01*
X114696192Y-80438808D01*
X114676833Y-80415218D01*
X114662452Y-80388313D01*
X114653595Y-80359116D01*
X114650000Y-80322610D01*
X114650000Y-79697390D01*
X114653595Y-79660884D01*
X114662452Y-79631687D01*
X114676833Y-79604782D01*
X114696192Y-79581192D01*
X114719782Y-79561833D01*
X114746687Y-79547452D01*
X114775884Y-79538595D01*
X114812390Y-79535000D01*
X115362610Y-79535000D01*
X115399116Y-79538595D01*
X115399116Y-79538595D01*
G37*
G36*
X113824116Y-79538595D02*
X113853313Y-79547452D01*
X113880218Y-79561833D01*
X113903808Y-79581192D01*
X113923167Y-79604782D01*
X113937548Y-79631687D01*
X113946405Y-79660884D01*
X113950000Y-79697390D01*
X113950000Y-80322610D01*
X113946405Y-80359116D01*
X113937548Y-80388313D01*
X113923167Y-80415218D01*
X113903808Y-80438808D01*
X113880218Y-80458167D01*
X113853313Y-80472548D01*
X113824116Y-80481405D01*
X113787610Y-80485000D01*
X113237390Y-80485000D01*
X113200884Y-80481405D01*
X113171687Y-80472548D01*
X113144782Y-80458167D01*
X113121192Y-80438808D01*
X113101833Y-80415218D01*
X113087452Y-80388313D01*
X113078595Y-80359116D01*
X113075000Y-80322610D01*
X113075000Y-79697390D01*
X113078595Y-79660884D01*
X113087452Y-79631687D01*
X113101833Y-79604782D01*
X113121192Y-79581192D01*
X113144782Y-79561833D01*
X113171687Y-79547452D01*
X113200884Y-79538595D01*
X113237390Y-79535000D01*
X113787610Y-79535000D01*
X113824116Y-79538595D01*
X113824116Y-79538595D01*
G37*
G36*
X137331665Y-75578440D02*
X137503060Y-75595321D01*
X137722977Y-75662032D01*
X137832937Y-75695388D01*
X137947323Y-75756529D01*
X138136952Y-75857888D01*
X138403424Y-76076576D01*
X138622112Y-76343048D01*
X138637783Y-76372367D01*
X138784612Y-76647063D01*
X138784612Y-76647064D01*
X138884679Y-76976940D01*
X138918467Y-77320000D01*
X138884679Y-77663060D01*
X138820321Y-77875218D01*
X138784612Y-77992937D01*
X138703185Y-78145276D01*
X138622112Y-78296952D01*
X138403424Y-78563424D01*
X138136952Y-78782112D01*
X137995437Y-78857753D01*
X137832937Y-78944612D01*
X137722977Y-78977968D01*
X137503060Y-79044679D01*
X137331665Y-79061560D01*
X137245969Y-79070000D01*
X137074031Y-79070000D01*
X136988335Y-79061560D01*
X136816940Y-79044679D01*
X136597023Y-78977968D01*
X136487063Y-78944612D01*
X136324563Y-78857753D01*
X136183048Y-78782112D01*
X135916576Y-78563424D01*
X135697888Y-78296952D01*
X135616815Y-78145276D01*
X135535388Y-77992937D01*
X135499679Y-77875218D01*
X135435321Y-77663060D01*
X135401533Y-77320000D01*
X135435321Y-76976940D01*
X135535388Y-76647064D01*
X135535388Y-76647063D01*
X135682217Y-76372367D01*
X135697888Y-76343048D01*
X135916576Y-76076576D01*
X136183048Y-75857888D01*
X136372677Y-75756529D01*
X136487063Y-75695388D01*
X136597023Y-75662032D01*
X136816940Y-75595321D01*
X136988335Y-75578440D01*
X137074031Y-75570000D01*
X137245969Y-75570000D01*
X137331665Y-75578440D01*
X137331665Y-75578440D01*
G37*
G36*
X194335560Y-73349759D02*
X194786084Y-73536372D01*
X194826930Y-73553291D01*
X194846736Y-73566525D01*
X195269153Y-73848775D01*
X195645225Y-74224847D01*
X195645227Y-74224850D01*
X195928713Y-74649116D01*
X195940710Y-74667072D01*
X196144241Y-75158440D01*
X196248000Y-75680072D01*
X196248000Y-76211928D01*
X196144241Y-76733560D01*
X195968685Y-77157390D01*
X195940709Y-77224930D01*
X195709472Y-77571000D01*
X195645225Y-77667153D01*
X195269153Y-78043225D01*
X195269150Y-78043227D01*
X194826930Y-78338709D01*
X194826929Y-78338710D01*
X194826928Y-78338710D01*
X194335560Y-78542241D01*
X193813928Y-78646000D01*
X193282072Y-78646000D01*
X192760440Y-78542241D01*
X192269072Y-78338710D01*
X192269071Y-78338710D01*
X192269070Y-78338709D01*
X191826850Y-78043227D01*
X191826847Y-78043225D01*
X191450775Y-77667153D01*
X191386528Y-77571000D01*
X191155291Y-77224930D01*
X191127315Y-77157390D01*
X190951759Y-76733560D01*
X190848000Y-76211928D01*
X190848000Y-75680072D01*
X190951759Y-75158440D01*
X191155290Y-74667072D01*
X191167288Y-74649116D01*
X191450773Y-74224850D01*
X191450775Y-74224847D01*
X191826847Y-73848775D01*
X192249264Y-73566525D01*
X192269070Y-73553291D01*
X192309916Y-73536372D01*
X192760440Y-73349759D01*
X193282072Y-73246000D01*
X193813928Y-73246000D01*
X194335560Y-73349759D01*
X194335560Y-73349759D01*
G37*
G36*
X105816560Y-73349759D02*
X106267084Y-73536372D01*
X106307930Y-73553291D01*
X106327736Y-73566525D01*
X106750153Y-73848775D01*
X107126225Y-74224847D01*
X107126227Y-74224850D01*
X107409713Y-74649116D01*
X107421710Y-74667072D01*
X107625241Y-75158440D01*
X107729000Y-75680072D01*
X107729000Y-76211928D01*
X107625241Y-76733560D01*
X107449685Y-77157390D01*
X107421709Y-77224930D01*
X107190472Y-77571000D01*
X107126225Y-77667153D01*
X106750153Y-78043225D01*
X106750150Y-78043227D01*
X106307930Y-78338709D01*
X106307929Y-78338710D01*
X106307928Y-78338710D01*
X105816560Y-78542241D01*
X105294928Y-78646000D01*
X104763072Y-78646000D01*
X104241440Y-78542241D01*
X103750072Y-78338710D01*
X103750071Y-78338710D01*
X103750070Y-78338709D01*
X103307850Y-78043227D01*
X103307847Y-78043225D01*
X102931775Y-77667153D01*
X102867528Y-77571000D01*
X102636291Y-77224930D01*
X102608315Y-77157390D01*
X102432759Y-76733560D01*
X102329000Y-76211928D01*
X102329000Y-75680072D01*
X102432759Y-75158440D01*
X102636290Y-74667072D01*
X102648288Y-74649116D01*
X102931773Y-74224850D01*
X102931775Y-74224847D01*
X103307847Y-73848775D01*
X103730264Y-73566525D01*
X103750070Y-73553291D01*
X103790916Y-73536372D01*
X104241440Y-73349759D01*
X104763072Y-73246000D01*
X105294928Y-73246000D01*
X105816560Y-73349759D01*
X105816560Y-73349759D01*
G37*
G36*
X174165770Y-76485372D02*
X174281689Y-76508429D01*
X174463678Y-76583811D01*
X174627463Y-76693249D01*
X174766751Y-76832537D01*
X174876189Y-76996322D01*
X174951571Y-77178311D01*
X174965380Y-77247734D01*
X174990000Y-77371507D01*
X174990000Y-77568493D01*
X174980446Y-77616525D01*
X174951571Y-77761689D01*
X174876189Y-77943678D01*
X174766751Y-78107463D01*
X174627463Y-78246751D01*
X174463678Y-78356189D01*
X174281689Y-78431571D01*
X174165770Y-78454628D01*
X174088493Y-78470000D01*
X173891507Y-78470000D01*
X173814230Y-78454628D01*
X173698311Y-78431571D01*
X173516322Y-78356189D01*
X173352537Y-78246751D01*
X173213249Y-78107463D01*
X173103811Y-77943678D01*
X173028429Y-77761689D01*
X172999554Y-77616525D01*
X172990000Y-77568493D01*
X172990000Y-77371507D01*
X173014620Y-77247734D01*
X173028429Y-77178311D01*
X173103811Y-76996322D01*
X173213249Y-76832537D01*
X173352537Y-76693249D01*
X173516322Y-76583811D01*
X173698311Y-76508429D01*
X173814230Y-76485372D01*
X173891507Y-76470000D01*
X174088493Y-76470000D01*
X174165770Y-76485372D01*
X174165770Y-76485372D01*
G37*
G36*
X188135770Y-76485372D02*
X188251689Y-76508429D01*
X188433678Y-76583811D01*
X188597463Y-76693249D01*
X188736751Y-76832537D01*
X188846189Y-76996322D01*
X188921571Y-77178311D01*
X188935380Y-77247734D01*
X188960000Y-77371507D01*
X188960000Y-77568493D01*
X188950446Y-77616525D01*
X188921571Y-77761689D01*
X188846189Y-77943678D01*
X188736751Y-78107463D01*
X188597463Y-78246751D01*
X188433678Y-78356189D01*
X188251689Y-78431571D01*
X188135770Y-78454628D01*
X188058493Y-78470000D01*
X187861507Y-78470000D01*
X187784230Y-78454628D01*
X187668311Y-78431571D01*
X187486322Y-78356189D01*
X187322537Y-78246751D01*
X187183249Y-78107463D01*
X187073811Y-77943678D01*
X186998429Y-77761689D01*
X186969554Y-77616525D01*
X186960000Y-77568493D01*
X186960000Y-77371507D01*
X186984620Y-77247734D01*
X186998429Y-77178311D01*
X187073811Y-76996322D01*
X187183249Y-76832537D01*
X187322537Y-76693249D01*
X187486322Y-76583811D01*
X187668311Y-76508429D01*
X187784230Y-76485372D01*
X187861507Y-76470000D01*
X188058493Y-76470000D01*
X188135770Y-76485372D01*
X188135770Y-76485372D01*
G37*
G36*
X166545770Y-76485372D02*
X166661689Y-76508429D01*
X166843678Y-76583811D01*
X167007463Y-76693249D01*
X167146751Y-76832537D01*
X167256189Y-76996322D01*
X167331571Y-77178311D01*
X167345380Y-77247734D01*
X167370000Y-77371507D01*
X167370000Y-77568493D01*
X167360446Y-77616525D01*
X167331571Y-77761689D01*
X167256189Y-77943678D01*
X167146751Y-78107463D01*
X167007463Y-78246751D01*
X166843678Y-78356189D01*
X166661689Y-78431571D01*
X166545770Y-78454628D01*
X166468493Y-78470000D01*
X166271507Y-78470000D01*
X166194230Y-78454628D01*
X166078311Y-78431571D01*
X165896322Y-78356189D01*
X165732537Y-78246751D01*
X165593249Y-78107463D01*
X165483811Y-77943678D01*
X165408429Y-77761689D01*
X165379554Y-77616525D01*
X165370000Y-77568493D01*
X165370000Y-77371507D01*
X165394620Y-77247734D01*
X165408429Y-77178311D01*
X165483811Y-76996322D01*
X165593249Y-76832537D01*
X165732537Y-76693249D01*
X165896322Y-76583811D01*
X166078311Y-76508429D01*
X166194230Y-76485372D01*
X166271507Y-76470000D01*
X166468493Y-76470000D01*
X166545770Y-76485372D01*
X166545770Y-76485372D01*
G37*
G36*
X180515770Y-76485372D02*
X180631689Y-76508429D01*
X180813678Y-76583811D01*
X180977463Y-76693249D01*
X181116751Y-76832537D01*
X181226189Y-76996322D01*
X181301571Y-77178311D01*
X181315380Y-77247734D01*
X181340000Y-77371507D01*
X181340000Y-77568493D01*
X181330446Y-77616525D01*
X181301571Y-77761689D01*
X181226189Y-77943678D01*
X181116751Y-78107463D01*
X180977463Y-78246751D01*
X180813678Y-78356189D01*
X180631689Y-78431571D01*
X180515770Y-78454628D01*
X180438493Y-78470000D01*
X180241507Y-78470000D01*
X180164230Y-78454628D01*
X180048311Y-78431571D01*
X179866322Y-78356189D01*
X179702537Y-78246751D01*
X179563249Y-78107463D01*
X179453811Y-77943678D01*
X179378429Y-77761689D01*
X179349554Y-77616525D01*
X179340000Y-77568493D01*
X179340000Y-77371507D01*
X179364620Y-77247734D01*
X179378429Y-77178311D01*
X179453811Y-76996322D01*
X179563249Y-76832537D01*
X179702537Y-76693249D01*
X179866322Y-76583811D01*
X180048311Y-76508429D01*
X180164230Y-76485372D01*
X180241507Y-76470000D01*
X180438493Y-76470000D01*
X180515770Y-76485372D01*
X180515770Y-76485372D01*
G37*
G36*
X125903195Y-76727522D02*
X125952267Y-76737283D01*
X126090942Y-76794724D01*
X126215750Y-76878118D01*
X126321882Y-76984250D01*
X126321884Y-76984253D01*
X126405276Y-77109058D01*
X126453272Y-77224930D01*
X126462717Y-77247734D01*
X126492000Y-77394948D01*
X126492000Y-77545052D01*
X126472478Y-77643195D01*
X126462717Y-77692267D01*
X126425296Y-77782610D01*
X126405276Y-77830942D01*
X126321882Y-77955750D01*
X126215750Y-78061882D01*
X126215747Y-78061884D01*
X126090942Y-78145276D01*
X125952267Y-78202717D01*
X125903195Y-78212478D01*
X125805052Y-78232000D01*
X125654948Y-78232000D01*
X125556805Y-78212478D01*
X125507733Y-78202717D01*
X125369058Y-78145276D01*
X125244253Y-78061884D01*
X125244250Y-78061882D01*
X125138118Y-77955750D01*
X125054724Y-77830942D01*
X125034704Y-77782610D01*
X124997283Y-77692267D01*
X124987522Y-77643195D01*
X124968000Y-77545052D01*
X124968000Y-77394948D01*
X124997283Y-77247734D01*
X125006729Y-77224930D01*
X125054724Y-77109058D01*
X125138116Y-76984253D01*
X125138118Y-76984250D01*
X125244250Y-76878118D01*
X125369058Y-76794724D01*
X125507733Y-76737283D01*
X125556805Y-76727522D01*
X125654948Y-76708000D01*
X125805052Y-76708000D01*
X125903195Y-76727522D01*
X125903195Y-76727522D01*
G37*
G36*
X110663195Y-76727522D02*
X110712267Y-76737283D01*
X110850942Y-76794724D01*
X110975750Y-76878118D01*
X111081882Y-76984250D01*
X111081884Y-76984253D01*
X111165276Y-77109058D01*
X111213272Y-77224930D01*
X111222717Y-77247734D01*
X111252000Y-77394948D01*
X111252000Y-77545052D01*
X111232478Y-77643195D01*
X111222717Y-77692267D01*
X111185296Y-77782610D01*
X111165276Y-77830942D01*
X111081882Y-77955750D01*
X110975750Y-78061882D01*
X110975747Y-78061884D01*
X110850942Y-78145276D01*
X110712267Y-78202717D01*
X110663195Y-78212478D01*
X110565052Y-78232000D01*
X110414948Y-78232000D01*
X110316805Y-78212478D01*
X110267733Y-78202717D01*
X110129058Y-78145276D01*
X110004253Y-78061884D01*
X110004250Y-78061882D01*
X109898118Y-77955750D01*
X109814724Y-77830942D01*
X109794704Y-77782610D01*
X109757283Y-77692267D01*
X109747522Y-77643195D01*
X109728000Y-77545052D01*
X109728000Y-77394948D01*
X109757283Y-77247734D01*
X109766729Y-77224930D01*
X109814724Y-77109058D01*
X109898116Y-76984253D01*
X109898118Y-76984250D01*
X110004250Y-76878118D01*
X110129058Y-76794724D01*
X110267733Y-76737283D01*
X110316805Y-76727522D01*
X110414948Y-76708000D01*
X110565052Y-76708000D01*
X110663195Y-76727522D01*
X110663195Y-76727522D01*
G37*
G36*
X151640473Y-74517193D02*
X151958963Y-74649116D01*
X152245601Y-74840641D01*
X152489359Y-75084399D01*
X152680884Y-75371037D01*
X152812807Y-75689527D01*
X152880060Y-76027633D01*
X152880060Y-76372367D01*
X152812807Y-76710473D01*
X152680884Y-77028963D01*
X152489359Y-77315601D01*
X152245601Y-77559359D01*
X151958963Y-77750884D01*
X151640473Y-77882807D01*
X151302367Y-77950060D01*
X150957633Y-77950060D01*
X150619527Y-77882807D01*
X150301037Y-77750884D01*
X150014399Y-77559359D01*
X149770641Y-77315601D01*
X149579116Y-77028963D01*
X149447193Y-76710473D01*
X149379940Y-76372367D01*
X149379940Y-76027633D01*
X149447193Y-75689527D01*
X149579116Y-75371037D01*
X149770641Y-75084399D01*
X150014399Y-74840641D01*
X150301037Y-74649116D01*
X150619527Y-74517193D01*
X150957633Y-74449940D01*
X151302367Y-74449940D01*
X151640473Y-74517193D01*
X151640473Y-74517193D01*
G37*
G36*
X147800060Y-77950060D02*
X144299940Y-77950060D01*
X144299940Y-74449940D01*
X147800060Y-74449940D01*
X147800060Y-77950060D01*
X147800060Y-77950060D01*
G37*
G36*
X113824116Y-76998595D02*
X113853313Y-77007452D01*
X113880218Y-77021833D01*
X113903808Y-77041192D01*
X113923167Y-77064782D01*
X113937548Y-77091687D01*
X113946405Y-77120884D01*
X113950000Y-77157390D01*
X113950000Y-77782610D01*
X113946405Y-77819116D01*
X113937548Y-77848313D01*
X113923167Y-77875218D01*
X113903808Y-77898808D01*
X113880218Y-77918167D01*
X113853313Y-77932548D01*
X113824116Y-77941405D01*
X113787610Y-77945000D01*
X113237390Y-77945000D01*
X113200884Y-77941405D01*
X113171687Y-77932548D01*
X113144782Y-77918167D01*
X113121192Y-77898808D01*
X113101833Y-77875218D01*
X113087452Y-77848313D01*
X113078595Y-77819116D01*
X113075000Y-77782610D01*
X113075000Y-77157390D01*
X113078595Y-77120884D01*
X113087452Y-77091687D01*
X113101833Y-77064782D01*
X113121192Y-77041192D01*
X113144782Y-77021833D01*
X113171687Y-77007452D01*
X113200884Y-76998595D01*
X113237390Y-76995000D01*
X113787610Y-76995000D01*
X113824116Y-76998595D01*
X113824116Y-76998595D01*
G37*
G36*
X115399116Y-76998595D02*
X115428313Y-77007452D01*
X115455218Y-77021833D01*
X115478808Y-77041192D01*
X115498167Y-77064782D01*
X115512548Y-77091687D01*
X115521405Y-77120884D01*
X115525000Y-77157390D01*
X115525000Y-77782610D01*
X115521405Y-77819116D01*
X115512548Y-77848313D01*
X115498167Y-77875218D01*
X115478808Y-77898808D01*
X115455218Y-77918167D01*
X115428313Y-77932548D01*
X115399116Y-77941405D01*
X115362610Y-77945000D01*
X114812390Y-77945000D01*
X114775884Y-77941405D01*
X114746687Y-77932548D01*
X114719782Y-77918167D01*
X114696192Y-77898808D01*
X114676833Y-77875218D01*
X114662452Y-77848313D01*
X114653595Y-77819116D01*
X114650000Y-77782610D01*
X114650000Y-77157390D01*
X114653595Y-77120884D01*
X114662452Y-77091687D01*
X114676833Y-77064782D01*
X114696192Y-77041192D01*
X114719782Y-77021833D01*
X114746687Y-77007452D01*
X114775884Y-76998595D01*
X114812390Y-76995000D01*
X115362610Y-76995000D01*
X115399116Y-76998595D01*
X115399116Y-76998595D01*
G37*
G36*
X160195770Y-73945372D02*
X160311689Y-73968429D01*
X160493678Y-74043811D01*
X160657463Y-74153249D01*
X160796751Y-74292537D01*
X160906189Y-74456322D01*
X160981571Y-74638311D01*
X160995380Y-74707734D01*
X161018668Y-74824809D01*
X161020000Y-74831509D01*
X161020000Y-75028491D01*
X160981571Y-75221689D01*
X160906189Y-75403678D01*
X160796751Y-75567463D01*
X160657463Y-75706751D01*
X160493678Y-75816189D01*
X160311689Y-75891571D01*
X160195770Y-75914628D01*
X160118493Y-75930000D01*
X159921507Y-75930000D01*
X159844230Y-75914628D01*
X159728311Y-75891571D01*
X159546322Y-75816189D01*
X159382537Y-75706751D01*
X159243249Y-75567463D01*
X159133811Y-75403678D01*
X159058429Y-75221689D01*
X159020000Y-75028491D01*
X159020000Y-74831509D01*
X159021333Y-74824809D01*
X159044620Y-74707734D01*
X159058429Y-74638311D01*
X159133811Y-74456322D01*
X159243249Y-74292537D01*
X159382537Y-74153249D01*
X159546322Y-74043811D01*
X159728311Y-73968429D01*
X159844230Y-73945372D01*
X159921507Y-73930000D01*
X160118493Y-73930000D01*
X160195770Y-73945372D01*
X160195770Y-73945372D01*
G37*
G36*
X184325770Y-73945372D02*
X184441689Y-73968429D01*
X184623678Y-74043811D01*
X184787463Y-74153249D01*
X184926751Y-74292537D01*
X185036189Y-74456322D01*
X185111571Y-74638311D01*
X185125380Y-74707734D01*
X185148668Y-74824809D01*
X185150000Y-74831509D01*
X185150000Y-75028491D01*
X185111571Y-75221689D01*
X185036189Y-75403678D01*
X184926751Y-75567463D01*
X184787463Y-75706751D01*
X184623678Y-75816189D01*
X184441689Y-75891571D01*
X184325770Y-75914628D01*
X184248493Y-75930000D01*
X184051507Y-75930000D01*
X183974230Y-75914628D01*
X183858311Y-75891571D01*
X183676322Y-75816189D01*
X183512537Y-75706751D01*
X183373249Y-75567463D01*
X183263811Y-75403678D01*
X183188429Y-75221689D01*
X183150000Y-75028491D01*
X183150000Y-74831509D01*
X183151333Y-74824809D01*
X183174620Y-74707734D01*
X183188429Y-74638311D01*
X183263811Y-74456322D01*
X183373249Y-74292537D01*
X183512537Y-74153249D01*
X183676322Y-74043811D01*
X183858311Y-73968429D01*
X183974230Y-73945372D01*
X184051507Y-73930000D01*
X184248493Y-73930000D01*
X184325770Y-73945372D01*
X184325770Y-73945372D01*
G37*
G36*
X170355770Y-73945372D02*
X170471689Y-73968429D01*
X170653678Y-74043811D01*
X170817463Y-74153249D01*
X170956751Y-74292537D01*
X171066189Y-74456322D01*
X171141571Y-74638311D01*
X171155380Y-74707734D01*
X171178668Y-74824809D01*
X171180000Y-74831509D01*
X171180000Y-75028491D01*
X171141571Y-75221689D01*
X171066189Y-75403678D01*
X170956751Y-75567463D01*
X170817463Y-75706751D01*
X170653678Y-75816189D01*
X170471689Y-75891571D01*
X170355770Y-75914628D01*
X170278493Y-75930000D01*
X170081507Y-75930000D01*
X170004230Y-75914628D01*
X169888311Y-75891571D01*
X169706322Y-75816189D01*
X169542537Y-75706751D01*
X169403249Y-75567463D01*
X169293811Y-75403678D01*
X169218429Y-75221689D01*
X169180000Y-75028491D01*
X169180000Y-74831509D01*
X169181333Y-74824809D01*
X169204620Y-74707734D01*
X169218429Y-74638311D01*
X169293811Y-74456322D01*
X169403249Y-74292537D01*
X169542537Y-74153249D01*
X169706322Y-74043811D01*
X169888311Y-73968429D01*
X170004230Y-73945372D01*
X170081507Y-73930000D01*
X170278493Y-73930000D01*
X170355770Y-73945372D01*
X170355770Y-73945372D01*
G37*
G36*
X156385770Y-73945372D02*
X156501689Y-73968429D01*
X156683678Y-74043811D01*
X156847463Y-74153249D01*
X156986751Y-74292537D01*
X157096189Y-74456322D01*
X157171571Y-74638311D01*
X157185380Y-74707734D01*
X157208668Y-74824809D01*
X157210000Y-74831509D01*
X157210000Y-75028491D01*
X157171571Y-75221689D01*
X157096189Y-75403678D01*
X156986751Y-75567463D01*
X156847463Y-75706751D01*
X156683678Y-75816189D01*
X156501689Y-75891571D01*
X156385770Y-75914628D01*
X156308493Y-75930000D01*
X156111507Y-75930000D01*
X156034230Y-75914628D01*
X155918311Y-75891571D01*
X155736322Y-75816189D01*
X155572537Y-75706751D01*
X155433249Y-75567463D01*
X155323811Y-75403678D01*
X155248429Y-75221689D01*
X155210000Y-75028491D01*
X155210000Y-74831509D01*
X155211333Y-74824809D01*
X155234620Y-74707734D01*
X155248429Y-74638311D01*
X155323811Y-74456322D01*
X155433249Y-74292537D01*
X155572537Y-74153249D01*
X155736322Y-74043811D01*
X155918311Y-73968429D01*
X156034230Y-73945372D01*
X156111507Y-73930000D01*
X156308493Y-73930000D01*
X156385770Y-73945372D01*
X156385770Y-73945372D01*
G37*
G36*
X110663195Y-74187522D02*
X110712267Y-74197283D01*
X110795357Y-74231700D01*
X110850942Y-74254724D01*
X110975750Y-74338118D01*
X111081882Y-74444250D01*
X111081884Y-74444253D01*
X111165276Y-74569058D01*
X111220997Y-74703580D01*
X111222717Y-74707734D01*
X111252000Y-74854948D01*
X111252000Y-75005052D01*
X111247337Y-75028493D01*
X111222717Y-75152267D01*
X111193963Y-75221686D01*
X111165276Y-75290942D01*
X111081882Y-75415750D01*
X110975750Y-75521882D01*
X110975747Y-75521884D01*
X110850942Y-75605276D01*
X110712267Y-75662717D01*
X110663195Y-75672478D01*
X110565052Y-75692000D01*
X110414948Y-75692000D01*
X110316805Y-75672478D01*
X110267733Y-75662717D01*
X110129058Y-75605276D01*
X110004253Y-75521884D01*
X110004250Y-75521882D01*
X109898118Y-75415750D01*
X109814724Y-75290942D01*
X109786037Y-75221686D01*
X109757283Y-75152267D01*
X109732663Y-75028493D01*
X109728000Y-75005052D01*
X109728000Y-74854948D01*
X109757283Y-74707734D01*
X109759004Y-74703580D01*
X109814724Y-74569058D01*
X109898116Y-74444253D01*
X109898118Y-74444250D01*
X110004250Y-74338118D01*
X110129058Y-74254724D01*
X110184643Y-74231700D01*
X110267733Y-74197283D01*
X110316805Y-74187522D01*
X110414948Y-74168000D01*
X110565052Y-74168000D01*
X110663195Y-74187522D01*
X110663195Y-74187522D01*
G37*
G36*
X125903195Y-74187522D02*
X125952267Y-74197283D01*
X126035357Y-74231700D01*
X126090942Y-74254724D01*
X126215750Y-74338118D01*
X126321882Y-74444250D01*
X126321884Y-74444253D01*
X126405276Y-74569058D01*
X126460997Y-74703580D01*
X126462717Y-74707734D01*
X126492000Y-74854948D01*
X126492000Y-75005052D01*
X126487337Y-75028493D01*
X126462717Y-75152267D01*
X126433963Y-75221686D01*
X126405276Y-75290942D01*
X126321882Y-75415750D01*
X126215750Y-75521882D01*
X126215747Y-75521884D01*
X126090942Y-75605276D01*
X125952267Y-75662717D01*
X125903195Y-75672478D01*
X125805052Y-75692000D01*
X125654948Y-75692000D01*
X125556805Y-75672478D01*
X125507733Y-75662717D01*
X125369058Y-75605276D01*
X125244253Y-75521884D01*
X125244250Y-75521882D01*
X125138118Y-75415750D01*
X125054724Y-75290942D01*
X125026037Y-75221686D01*
X124997283Y-75152267D01*
X124972663Y-75028493D01*
X124968000Y-75005052D01*
X124968000Y-74854948D01*
X124997283Y-74707734D01*
X124999004Y-74703580D01*
X125054724Y-74569058D01*
X125138116Y-74444253D01*
X125138118Y-74444250D01*
X125244250Y-74338118D01*
X125369058Y-74254724D01*
X125424643Y-74231700D01*
X125507733Y-74197283D01*
X125556805Y-74187522D01*
X125654948Y-74168000D01*
X125805052Y-74168000D01*
X125903195Y-74187522D01*
X125903195Y-74187522D01*
G37*
G36*
X113824116Y-74458595D02*
X113853313Y-74467452D01*
X113880218Y-74481833D01*
X113903808Y-74501192D01*
X113923167Y-74524782D01*
X113937548Y-74551687D01*
X113946405Y-74580884D01*
X113950000Y-74617390D01*
X113950000Y-75242610D01*
X113946405Y-75279116D01*
X113937548Y-75308313D01*
X113923167Y-75335218D01*
X113903808Y-75358808D01*
X113880218Y-75378167D01*
X113853313Y-75392548D01*
X113824116Y-75401405D01*
X113787610Y-75405000D01*
X113237390Y-75405000D01*
X113200884Y-75401405D01*
X113171687Y-75392548D01*
X113144782Y-75378167D01*
X113121192Y-75358808D01*
X113101833Y-75335218D01*
X113087452Y-75308313D01*
X113078595Y-75279116D01*
X113075000Y-75242610D01*
X113075000Y-74617390D01*
X113078595Y-74580884D01*
X113087452Y-74551687D01*
X113101833Y-74524782D01*
X113121192Y-74501192D01*
X113144782Y-74481833D01*
X113171687Y-74467452D01*
X113200884Y-74458595D01*
X113237390Y-74455000D01*
X113787610Y-74455000D01*
X113824116Y-74458595D01*
X113824116Y-74458595D01*
G37*
G36*
X115399116Y-74458595D02*
X115428313Y-74467452D01*
X115455218Y-74481833D01*
X115478808Y-74501192D01*
X115498167Y-74524782D01*
X115512548Y-74551687D01*
X115521405Y-74580884D01*
X115525000Y-74617390D01*
X115525000Y-75242610D01*
X115521405Y-75279116D01*
X115512548Y-75308313D01*
X115498167Y-75335218D01*
X115478808Y-75358808D01*
X115455218Y-75378167D01*
X115428313Y-75392548D01*
X115399116Y-75401405D01*
X115362610Y-75405000D01*
X114812390Y-75405000D01*
X114775884Y-75401405D01*
X114746687Y-75392548D01*
X114719782Y-75378167D01*
X114696192Y-75358808D01*
X114676833Y-75335218D01*
X114662452Y-75308313D01*
X114653595Y-75279116D01*
X114650000Y-75242610D01*
X114650000Y-74617390D01*
X114653595Y-74580884D01*
X114662452Y-74551687D01*
X114676833Y-74524782D01*
X114696192Y-74501192D01*
X114719782Y-74481833D01*
X114746687Y-74467452D01*
X114775884Y-74458595D01*
X114812390Y-74455000D01*
X115362610Y-74455000D01*
X115399116Y-74458595D01*
X115399116Y-74458595D01*
G37*
M02*
