G04 #@! TF.GenerationSoftware,KiCad,Pcbnew,5.0.2-bee76a0~70~ubuntu18.04.1*
G04 #@! TF.CreationDate,2019-05-04T20:09:11-07:00*
G04 #@! TF.ProjectId,aa-daughterboard-lvds,61612d64-6175-4676-9874-6572626f6172,rev?*
G04 #@! TF.SameCoordinates,Original*
G04 #@! TF.FileFunction,Legend,Bot*
G04 #@! TF.FilePolarity,Positive*
%FSLAX46Y46*%
G04 Gerber Fmt 4.6, Leading zero omitted, Abs format (unit mm)*
G04 Created by KiCad (PCBNEW 5.0.2-bee76a0~70~ubuntu18.04.1) date Sat 04 May 2019 08:09:11 PM PDT*
%MOMM*%
%LPD*%
G01*
G04 APERTURE LIST*
%ADD10C,0.101600*%
%ADD11C,0.120000*%
%ADD12C,0.150000*%
G04 APERTURE END LIST*
D10*
X171789271Y-130973285D02*
X171825557Y-131082142D01*
X171861842Y-131118428D01*
X171934414Y-131154714D01*
X172043271Y-131154714D01*
X172115842Y-131118428D01*
X172152128Y-131082142D01*
X172188414Y-131009571D01*
X172188414Y-130719285D01*
X171426414Y-130719285D01*
X171426414Y-130973285D01*
X171462700Y-131045857D01*
X171498985Y-131082142D01*
X171571557Y-131118428D01*
X171644128Y-131118428D01*
X171716700Y-131082142D01*
X171752985Y-131045857D01*
X171789271Y-130973285D01*
X171789271Y-130719285D01*
X172188414Y-131916714D02*
X171825557Y-131662714D01*
X172188414Y-131481285D02*
X171426414Y-131481285D01*
X171426414Y-131771571D01*
X171462700Y-131844142D01*
X171498985Y-131880428D01*
X171571557Y-131916714D01*
X171680414Y-131916714D01*
X171752985Y-131880428D01*
X171789271Y-131844142D01*
X171825557Y-131771571D01*
X171825557Y-131481285D01*
X172188414Y-132243285D02*
X171426414Y-132243285D01*
X172188414Y-132606142D02*
X171426414Y-132606142D01*
X171426414Y-132787571D01*
X171462700Y-132896428D01*
X171535271Y-132969000D01*
X171607842Y-133005285D01*
X171752985Y-133041571D01*
X171861842Y-133041571D01*
X172006985Y-133005285D01*
X172079557Y-132969000D01*
X172152128Y-132896428D01*
X172188414Y-132787571D01*
X172188414Y-132606142D01*
X171462700Y-133767285D02*
X171426414Y-133694714D01*
X171426414Y-133585857D01*
X171462700Y-133477000D01*
X171535271Y-133404428D01*
X171607842Y-133368142D01*
X171752985Y-133331857D01*
X171861842Y-133331857D01*
X172006985Y-133368142D01*
X172079557Y-133404428D01*
X172152128Y-133477000D01*
X172188414Y-133585857D01*
X172188414Y-133658428D01*
X172152128Y-133767285D01*
X172115842Y-133803571D01*
X171861842Y-133803571D01*
X171861842Y-133658428D01*
X171789271Y-134130142D02*
X171789271Y-134384142D01*
X172188414Y-134493000D02*
X172188414Y-134130142D01*
X171426414Y-134130142D01*
X171426414Y-134493000D01*
X171426414Y-135617857D02*
X171970700Y-135617857D01*
X172079557Y-135581571D01*
X172152128Y-135509000D01*
X172188414Y-135400142D01*
X172188414Y-135327571D01*
X172188414Y-135980714D02*
X171426414Y-135980714D01*
X171426414Y-136271000D01*
X171462700Y-136343571D01*
X171498985Y-136379857D01*
X171571557Y-136416142D01*
X171680414Y-136416142D01*
X171752985Y-136379857D01*
X171789271Y-136343571D01*
X171825557Y-136271000D01*
X171825557Y-135980714D01*
X171426414Y-137105571D02*
X171426414Y-136742714D01*
X171789271Y-136706428D01*
X171752985Y-136742714D01*
X171716700Y-136815285D01*
X171716700Y-136996714D01*
X171752985Y-137069285D01*
X171789271Y-137105571D01*
X171861842Y-137141857D01*
X172043271Y-137141857D01*
X172115842Y-137105571D01*
X172152128Y-137069285D01*
X172188414Y-136996714D01*
X172188414Y-136815285D01*
X172152128Y-136742714D01*
X172115842Y-136706428D01*
X172188414Y-138049000D02*
X171426414Y-138049000D01*
X171789271Y-138665857D02*
X171789271Y-138411857D01*
X172188414Y-138411857D02*
X171426414Y-138411857D01*
X171426414Y-138774714D01*
X171426414Y-139645571D02*
X172043271Y-139645571D01*
X172115842Y-139681857D01*
X172152128Y-139718142D01*
X172188414Y-139790714D01*
X172188414Y-139935857D01*
X172152128Y-140008428D01*
X172115842Y-140044714D01*
X172043271Y-140081000D01*
X171426414Y-140081000D01*
X171498985Y-140407571D02*
X171462700Y-140443857D01*
X171426414Y-140516428D01*
X171426414Y-140697857D01*
X171462700Y-140770428D01*
X171498985Y-140806714D01*
X171571557Y-140843000D01*
X171644128Y-140843000D01*
X171752985Y-140806714D01*
X172188414Y-140371285D01*
X172188414Y-140843000D01*
X173433014Y-131354285D02*
X172671014Y-131354285D01*
X173433014Y-131789714D01*
X172671014Y-131789714D01*
X172671014Y-132297714D02*
X172671014Y-132442857D01*
X172707300Y-132515428D01*
X172779871Y-132588000D01*
X172925014Y-132624285D01*
X173179014Y-132624285D01*
X173324157Y-132588000D01*
X173396728Y-132515428D01*
X173433014Y-132442857D01*
X173433014Y-132297714D01*
X173396728Y-132225142D01*
X173324157Y-132152571D01*
X173179014Y-132116285D01*
X172925014Y-132116285D01*
X172779871Y-132152571D01*
X172707300Y-132225142D01*
X172671014Y-132297714D01*
X172671014Y-132842000D02*
X172671014Y-133277428D01*
X173433014Y-133059714D02*
X172671014Y-133059714D01*
X173433014Y-134112000D02*
X172671014Y-134112000D01*
X172671014Y-134402285D01*
X172707300Y-134474857D01*
X172743585Y-134511142D01*
X172816157Y-134547428D01*
X172925014Y-134547428D01*
X172997585Y-134511142D01*
X173033871Y-134474857D01*
X173070157Y-134402285D01*
X173070157Y-134112000D01*
X172671014Y-135019142D02*
X172671014Y-135164285D01*
X172707300Y-135236857D01*
X172779871Y-135309428D01*
X172925014Y-135345714D01*
X173179014Y-135345714D01*
X173324157Y-135309428D01*
X173396728Y-135236857D01*
X173433014Y-135164285D01*
X173433014Y-135019142D01*
X173396728Y-134946571D01*
X173324157Y-134874000D01*
X173179014Y-134837714D01*
X172925014Y-134837714D01*
X172779871Y-134874000D01*
X172707300Y-134946571D01*
X172671014Y-135019142D01*
X173433014Y-135672285D02*
X172671014Y-135672285D01*
X172671014Y-135962571D01*
X172707300Y-136035142D01*
X172743585Y-136071428D01*
X172816157Y-136107714D01*
X172925014Y-136107714D01*
X172997585Y-136071428D01*
X173033871Y-136035142D01*
X173070157Y-135962571D01*
X173070157Y-135672285D01*
X172671014Y-136434285D02*
X173287871Y-136434285D01*
X173360442Y-136470571D01*
X173396728Y-136506857D01*
X173433014Y-136579428D01*
X173433014Y-136724571D01*
X173396728Y-136797142D01*
X173360442Y-136833428D01*
X173287871Y-136869714D01*
X172671014Y-136869714D01*
X173433014Y-137595428D02*
X173433014Y-137232571D01*
X172671014Y-137232571D01*
X173215300Y-137813142D02*
X173215300Y-138176000D01*
X173433014Y-137740571D02*
X172671014Y-137994571D01*
X173433014Y-138248571D01*
X172671014Y-138393714D02*
X172671014Y-138829142D01*
X173433014Y-138611428D02*
X172671014Y-138611428D01*
X173033871Y-139083142D02*
X173033871Y-139337142D01*
X173433014Y-139446000D02*
X173433014Y-139083142D01*
X172671014Y-139083142D01*
X172671014Y-139446000D01*
X173433014Y-139772571D02*
X172671014Y-139772571D01*
X172671014Y-139954000D01*
X172707300Y-140062857D01*
X172779871Y-140135428D01*
X172852442Y-140171714D01*
X172997585Y-140208000D01*
X173106442Y-140208000D01*
X173251585Y-140171714D01*
X173324157Y-140135428D01*
X173396728Y-140062857D01*
X173433014Y-139954000D01*
X173433014Y-139772571D01*
X154174371Y-131118428D02*
X154210657Y-131227285D01*
X154246942Y-131263571D01*
X154319514Y-131299857D01*
X154428371Y-131299857D01*
X154500942Y-131263571D01*
X154537228Y-131227285D01*
X154573514Y-131154714D01*
X154573514Y-130864428D01*
X153811514Y-130864428D01*
X153811514Y-131118428D01*
X153847800Y-131191000D01*
X153884085Y-131227285D01*
X153956657Y-131263571D01*
X154029228Y-131263571D01*
X154101800Y-131227285D01*
X154138085Y-131191000D01*
X154174371Y-131118428D01*
X154174371Y-130864428D01*
X154573514Y-132061857D02*
X154210657Y-131807857D01*
X154573514Y-131626428D02*
X153811514Y-131626428D01*
X153811514Y-131916714D01*
X153847800Y-131989285D01*
X153884085Y-132025571D01*
X153956657Y-132061857D01*
X154065514Y-132061857D01*
X154138085Y-132025571D01*
X154174371Y-131989285D01*
X154210657Y-131916714D01*
X154210657Y-131626428D01*
X154573514Y-132388428D02*
X153811514Y-132388428D01*
X154573514Y-132751285D02*
X153811514Y-132751285D01*
X153811514Y-132932714D01*
X153847800Y-133041571D01*
X153920371Y-133114142D01*
X153992942Y-133150428D01*
X154138085Y-133186714D01*
X154246942Y-133186714D01*
X154392085Y-133150428D01*
X154464657Y-133114142D01*
X154537228Y-133041571D01*
X154573514Y-132932714D01*
X154573514Y-132751285D01*
X153847800Y-133912428D02*
X153811514Y-133839857D01*
X153811514Y-133731000D01*
X153847800Y-133622142D01*
X153920371Y-133549571D01*
X153992942Y-133513285D01*
X154138085Y-133477000D01*
X154246942Y-133477000D01*
X154392085Y-133513285D01*
X154464657Y-133549571D01*
X154537228Y-133622142D01*
X154573514Y-133731000D01*
X154573514Y-133803571D01*
X154537228Y-133912428D01*
X154500942Y-133948714D01*
X154246942Y-133948714D01*
X154246942Y-133803571D01*
X154174371Y-134275285D02*
X154174371Y-134529285D01*
X154573514Y-134638142D02*
X154573514Y-134275285D01*
X153811514Y-134275285D01*
X153811514Y-134638142D01*
X153811514Y-135763000D02*
X154355800Y-135763000D01*
X154464657Y-135726714D01*
X154537228Y-135654142D01*
X154573514Y-135545285D01*
X154573514Y-135472714D01*
X154573514Y-136125857D02*
X153811514Y-136125857D01*
X153811514Y-136416142D01*
X153847800Y-136488714D01*
X153884085Y-136525000D01*
X153956657Y-136561285D01*
X154065514Y-136561285D01*
X154138085Y-136525000D01*
X154174371Y-136488714D01*
X154210657Y-136416142D01*
X154210657Y-136125857D01*
X153811514Y-136815285D02*
X153811514Y-137323285D01*
X154573514Y-136996714D01*
X153811514Y-138085285D02*
X153811514Y-138520714D01*
X154573514Y-138303000D02*
X153811514Y-138303000D01*
X153811514Y-138919857D02*
X153811514Y-139065000D01*
X153847800Y-139137571D01*
X153920371Y-139210142D01*
X154065514Y-139246428D01*
X154319514Y-139246428D01*
X154464657Y-139210142D01*
X154537228Y-139137571D01*
X154573514Y-139065000D01*
X154573514Y-138919857D01*
X154537228Y-138847285D01*
X154464657Y-138774714D01*
X154319514Y-138738428D01*
X154065514Y-138738428D01*
X153920371Y-138774714D01*
X153847800Y-138847285D01*
X153811514Y-138919857D01*
X154500942Y-140589000D02*
X154537228Y-140552714D01*
X154573514Y-140443857D01*
X154573514Y-140371285D01*
X154537228Y-140262428D01*
X154464657Y-140189857D01*
X154392085Y-140153571D01*
X154246942Y-140117285D01*
X154138085Y-140117285D01*
X153992942Y-140153571D01*
X153920371Y-140189857D01*
X153847800Y-140262428D01*
X153811514Y-140371285D01*
X153811514Y-140443857D01*
X153847800Y-140552714D01*
X153884085Y-140589000D01*
X153811514Y-141060714D02*
X153811514Y-141205857D01*
X153847800Y-141278428D01*
X153920371Y-141351000D01*
X154065514Y-141387285D01*
X154319514Y-141387285D01*
X154464657Y-141351000D01*
X154537228Y-141278428D01*
X154573514Y-141205857D01*
X154573514Y-141060714D01*
X154537228Y-140988142D01*
X154464657Y-140915571D01*
X154319514Y-140879285D01*
X154065514Y-140879285D01*
X153920371Y-140915571D01*
X153847800Y-140988142D01*
X153811514Y-141060714D01*
X154573514Y-141713857D02*
X153811514Y-141713857D01*
X154573514Y-142149285D01*
X153811514Y-142149285D01*
X154573514Y-142512142D02*
X153811514Y-142512142D01*
X154573514Y-142947571D01*
X153811514Y-142947571D01*
X154174371Y-143310428D02*
X154174371Y-143564428D01*
X154573514Y-143673285D02*
X154573514Y-143310428D01*
X153811514Y-143310428D01*
X153811514Y-143673285D01*
X154500942Y-144435285D02*
X154537228Y-144399000D01*
X154573514Y-144290142D01*
X154573514Y-144217571D01*
X154537228Y-144108714D01*
X154464657Y-144036142D01*
X154392085Y-143999857D01*
X154246942Y-143963571D01*
X154138085Y-143963571D01*
X153992942Y-143999857D01*
X153920371Y-144036142D01*
X153847800Y-144108714D01*
X153811514Y-144217571D01*
X153811514Y-144290142D01*
X153847800Y-144399000D01*
X153884085Y-144435285D01*
X153811514Y-144653000D02*
X153811514Y-145088428D01*
X154573514Y-144870714D02*
X153811514Y-144870714D01*
X155056114Y-134057571D02*
X155818114Y-134311571D01*
X155056114Y-134565571D01*
X155818114Y-134819571D02*
X155056114Y-134819571D01*
X155056114Y-135001000D01*
X155092400Y-135109857D01*
X155164971Y-135182428D01*
X155237542Y-135218714D01*
X155382685Y-135255000D01*
X155491542Y-135255000D01*
X155636685Y-135218714D01*
X155709257Y-135182428D01*
X155781828Y-135109857D01*
X155818114Y-135001000D01*
X155818114Y-134819571D01*
X155818114Y-135581571D02*
X155056114Y-135581571D01*
X155056114Y-135763000D01*
X155092400Y-135871857D01*
X155164971Y-135944428D01*
X155237542Y-135980714D01*
X155382685Y-136017000D01*
X155491542Y-136017000D01*
X155636685Y-135980714D01*
X155709257Y-135944428D01*
X155781828Y-135871857D01*
X155818114Y-135763000D01*
X155818114Y-135581571D01*
X155600400Y-136887857D02*
X155600400Y-137250714D01*
X155818114Y-136815285D02*
X155056114Y-137069285D01*
X155818114Y-137323285D01*
X155818114Y-137577285D02*
X155056114Y-137577285D01*
X155818114Y-138012714D01*
X155056114Y-138012714D01*
X155818114Y-138375571D02*
X155056114Y-138375571D01*
X155056114Y-138557000D01*
X155092400Y-138665857D01*
X155164971Y-138738428D01*
X155237542Y-138774714D01*
X155382685Y-138811000D01*
X155491542Y-138811000D01*
X155636685Y-138774714D01*
X155709257Y-138738428D01*
X155781828Y-138665857D01*
X155818114Y-138557000D01*
X155818114Y-138375571D01*
X155527828Y-139718142D02*
X155527828Y-140298714D01*
X155818114Y-140008428D02*
X155237542Y-140008428D01*
X155056114Y-141024428D02*
X155056114Y-140661571D01*
X155418971Y-140625285D01*
X155382685Y-140661571D01*
X155346400Y-140734142D01*
X155346400Y-140915571D01*
X155382685Y-140988142D01*
X155418971Y-141024428D01*
X155491542Y-141060714D01*
X155672971Y-141060714D01*
X155745542Y-141024428D01*
X155781828Y-140988142D01*
X155818114Y-140915571D01*
X155818114Y-140734142D01*
X155781828Y-140661571D01*
X155745542Y-140625285D01*
X155056114Y-141278428D02*
X155818114Y-141532428D01*
X155056114Y-141786428D01*
X157062714Y-132442857D02*
X156300714Y-132442857D01*
X156300714Y-132733142D01*
X156337000Y-132805714D01*
X156373285Y-132842000D01*
X156445857Y-132878285D01*
X156554714Y-132878285D01*
X156627285Y-132842000D01*
X156663571Y-132805714D01*
X156699857Y-132733142D01*
X156699857Y-132442857D01*
X156300714Y-133350000D02*
X156300714Y-133495142D01*
X156337000Y-133567714D01*
X156409571Y-133640285D01*
X156554714Y-133676571D01*
X156808714Y-133676571D01*
X156953857Y-133640285D01*
X157026428Y-133567714D01*
X157062714Y-133495142D01*
X157062714Y-133350000D01*
X157026428Y-133277428D01*
X156953857Y-133204857D01*
X156808714Y-133168571D01*
X156554714Y-133168571D01*
X156409571Y-133204857D01*
X156337000Y-133277428D01*
X156300714Y-133350000D01*
X156300714Y-133930571D02*
X157062714Y-134112000D01*
X156518428Y-134257142D01*
X157062714Y-134402285D01*
X156300714Y-134583714D01*
X156663571Y-134874000D02*
X156663571Y-135128000D01*
X157062714Y-135236857D02*
X157062714Y-134874000D01*
X156300714Y-134874000D01*
X156300714Y-135236857D01*
X157062714Y-135998857D02*
X156699857Y-135744857D01*
X157062714Y-135563428D02*
X156300714Y-135563428D01*
X156300714Y-135853714D01*
X156337000Y-135926285D01*
X156373285Y-135962571D01*
X156445857Y-135998857D01*
X156554714Y-135998857D01*
X156627285Y-135962571D01*
X156663571Y-135926285D01*
X156699857Y-135853714D01*
X156699857Y-135563428D01*
X157062714Y-136906000D02*
X156300714Y-136906000D01*
X157062714Y-137268857D02*
X156300714Y-137268857D01*
X157062714Y-137704285D01*
X156300714Y-137704285D01*
X157062714Y-138067142D02*
X156300714Y-138067142D01*
X156300714Y-138357428D01*
X156337000Y-138430000D01*
X156373285Y-138466285D01*
X156445857Y-138502571D01*
X156554714Y-138502571D01*
X156627285Y-138466285D01*
X156663571Y-138430000D01*
X156699857Y-138357428D01*
X156699857Y-138067142D01*
X156300714Y-138829142D02*
X156917571Y-138829142D01*
X156990142Y-138865428D01*
X157026428Y-138901714D01*
X157062714Y-138974285D01*
X157062714Y-139119428D01*
X157026428Y-139192000D01*
X156990142Y-139228285D01*
X156917571Y-139264571D01*
X156300714Y-139264571D01*
X156300714Y-139518571D02*
X156300714Y-139954000D01*
X157062714Y-139736285D02*
X156300714Y-139736285D01*
X157062714Y-140788571D02*
X156300714Y-140788571D01*
X156845000Y-141042571D01*
X156300714Y-141296571D01*
X157062714Y-141296571D01*
X156300714Y-141659428D02*
X156917571Y-141659428D01*
X156990142Y-141695714D01*
X157026428Y-141732000D01*
X157062714Y-141804571D01*
X157062714Y-141949714D01*
X157026428Y-142022285D01*
X156990142Y-142058571D01*
X156917571Y-142094857D01*
X156300714Y-142094857D01*
X157026428Y-142421428D02*
X157062714Y-142530285D01*
X157062714Y-142711714D01*
X157026428Y-142784285D01*
X156990142Y-142820571D01*
X156917571Y-142856857D01*
X156845000Y-142856857D01*
X156772428Y-142820571D01*
X156736142Y-142784285D01*
X156699857Y-142711714D01*
X156663571Y-142566571D01*
X156627285Y-142494000D01*
X156591000Y-142457714D01*
X156518428Y-142421428D01*
X156445857Y-142421428D01*
X156373285Y-142457714D01*
X156337000Y-142494000D01*
X156300714Y-142566571D01*
X156300714Y-142748000D01*
X156337000Y-142856857D01*
X156300714Y-143074571D02*
X156300714Y-143510000D01*
X157062714Y-143292285D02*
X156300714Y-143292285D01*
X157908171Y-134184571D02*
X157944457Y-134293428D01*
X157980742Y-134329714D01*
X158053314Y-134366000D01*
X158162171Y-134366000D01*
X158234742Y-134329714D01*
X158271028Y-134293428D01*
X158307314Y-134220857D01*
X158307314Y-133930571D01*
X157545314Y-133930571D01*
X157545314Y-134184571D01*
X157581600Y-134257142D01*
X157617885Y-134293428D01*
X157690457Y-134329714D01*
X157763028Y-134329714D01*
X157835600Y-134293428D01*
X157871885Y-134257142D01*
X157908171Y-134184571D01*
X157908171Y-133930571D01*
X157908171Y-134692571D02*
X157908171Y-134946571D01*
X158307314Y-135055428D02*
X158307314Y-134692571D01*
X157545314Y-134692571D01*
X157545314Y-135055428D01*
X158307314Y-136398000D02*
X157944457Y-136144000D01*
X158307314Y-135962571D02*
X157545314Y-135962571D01*
X157545314Y-136252857D01*
X157581600Y-136325428D01*
X157617885Y-136361714D01*
X157690457Y-136398000D01*
X157799314Y-136398000D01*
X157871885Y-136361714D01*
X157908171Y-136325428D01*
X157944457Y-136252857D01*
X157944457Y-135962571D01*
X157908171Y-136724571D02*
X157908171Y-136978571D01*
X158307314Y-137087428D02*
X158307314Y-136724571D01*
X157545314Y-136724571D01*
X157545314Y-137087428D01*
X157581600Y-137813142D02*
X157545314Y-137740571D01*
X157545314Y-137631714D01*
X157581600Y-137522857D01*
X157654171Y-137450285D01*
X157726742Y-137414000D01*
X157871885Y-137377714D01*
X157980742Y-137377714D01*
X158125885Y-137414000D01*
X158198457Y-137450285D01*
X158271028Y-137522857D01*
X158307314Y-137631714D01*
X158307314Y-137704285D01*
X158271028Y-137813142D01*
X158234742Y-137849428D01*
X157980742Y-137849428D01*
X157980742Y-137704285D01*
X157545314Y-138176000D02*
X158162171Y-138176000D01*
X158234742Y-138212285D01*
X158271028Y-138248571D01*
X158307314Y-138321142D01*
X158307314Y-138466285D01*
X158271028Y-138538857D01*
X158234742Y-138575142D01*
X158162171Y-138611428D01*
X157545314Y-138611428D01*
X158307314Y-139337142D02*
X158307314Y-138974285D01*
X157545314Y-138974285D01*
X158089600Y-139554857D02*
X158089600Y-139917714D01*
X158307314Y-139482285D02*
X157545314Y-139736285D01*
X158307314Y-139990285D01*
X157545314Y-140135428D02*
X157545314Y-140570857D01*
X158307314Y-140353142D02*
X157545314Y-140353142D01*
X157908171Y-140824857D02*
X157908171Y-141078857D01*
X158307314Y-141187714D02*
X158307314Y-140824857D01*
X157545314Y-140824857D01*
X157545314Y-141187714D01*
X158307314Y-141514285D02*
X157545314Y-141514285D01*
X157545314Y-141695714D01*
X157581600Y-141804571D01*
X157654171Y-141877142D01*
X157726742Y-141913428D01*
X157871885Y-141949714D01*
X157980742Y-141949714D01*
X158125885Y-141913428D01*
X158198457Y-141877142D01*
X158271028Y-141804571D01*
X158307314Y-141695714D01*
X158307314Y-141514285D01*
X159551914Y-131771571D02*
X158789914Y-131771571D01*
X158789914Y-131953000D01*
X158826200Y-132061857D01*
X158898771Y-132134428D01*
X158971342Y-132170714D01*
X159116485Y-132207000D01*
X159225342Y-132207000D01*
X159370485Y-132170714D01*
X159443057Y-132134428D01*
X159515628Y-132061857D01*
X159551914Y-131953000D01*
X159551914Y-131771571D01*
X158789914Y-132678714D02*
X158789914Y-132823857D01*
X158826200Y-132896428D01*
X158898771Y-132969000D01*
X159043914Y-133005285D01*
X159297914Y-133005285D01*
X159443057Y-132969000D01*
X159515628Y-132896428D01*
X159551914Y-132823857D01*
X159551914Y-132678714D01*
X159515628Y-132606142D01*
X159443057Y-132533571D01*
X159297914Y-132497285D01*
X159043914Y-132497285D01*
X158898771Y-132533571D01*
X158826200Y-132606142D01*
X158789914Y-132678714D01*
X159551914Y-133912428D02*
X158789914Y-133912428D01*
X159551914Y-134347857D01*
X158789914Y-134347857D01*
X158789914Y-134855857D02*
X158789914Y-135001000D01*
X158826200Y-135073571D01*
X158898771Y-135146142D01*
X159043914Y-135182428D01*
X159297914Y-135182428D01*
X159443057Y-135146142D01*
X159515628Y-135073571D01*
X159551914Y-135001000D01*
X159551914Y-134855857D01*
X159515628Y-134783285D01*
X159443057Y-134710714D01*
X159297914Y-134674428D01*
X159043914Y-134674428D01*
X158898771Y-134710714D01*
X158826200Y-134783285D01*
X158789914Y-134855857D01*
X158789914Y-135400142D02*
X158789914Y-135835571D01*
X159551914Y-135617857D02*
X158789914Y-135617857D01*
X159551914Y-136670142D02*
X158789914Y-136670142D01*
X158789914Y-136960428D01*
X158826200Y-137033000D01*
X158862485Y-137069285D01*
X158935057Y-137105571D01*
X159043914Y-137105571D01*
X159116485Y-137069285D01*
X159152771Y-137033000D01*
X159189057Y-136960428D01*
X159189057Y-136670142D01*
X158789914Y-137577285D02*
X158789914Y-137722428D01*
X158826200Y-137795000D01*
X158898771Y-137867571D01*
X159043914Y-137903857D01*
X159297914Y-137903857D01*
X159443057Y-137867571D01*
X159515628Y-137795000D01*
X159551914Y-137722428D01*
X159551914Y-137577285D01*
X159515628Y-137504714D01*
X159443057Y-137432142D01*
X159297914Y-137395857D01*
X159043914Y-137395857D01*
X158898771Y-137432142D01*
X158826200Y-137504714D01*
X158789914Y-137577285D01*
X159551914Y-138230428D02*
X158789914Y-138230428D01*
X158789914Y-138520714D01*
X158826200Y-138593285D01*
X158862485Y-138629571D01*
X158935057Y-138665857D01*
X159043914Y-138665857D01*
X159116485Y-138629571D01*
X159152771Y-138593285D01*
X159189057Y-138520714D01*
X159189057Y-138230428D01*
X158789914Y-138992428D02*
X159406771Y-138992428D01*
X159479342Y-139028714D01*
X159515628Y-139065000D01*
X159551914Y-139137571D01*
X159551914Y-139282714D01*
X159515628Y-139355285D01*
X159479342Y-139391571D01*
X159406771Y-139427857D01*
X158789914Y-139427857D01*
X159551914Y-140153571D02*
X159551914Y-139790714D01*
X158789914Y-139790714D01*
X159334200Y-140371285D02*
X159334200Y-140734142D01*
X159551914Y-140298714D02*
X158789914Y-140552714D01*
X159551914Y-140806714D01*
X158789914Y-140951857D02*
X158789914Y-141387285D01*
X159551914Y-141169571D02*
X158789914Y-141169571D01*
X159152771Y-141641285D02*
X159152771Y-141895285D01*
X159551914Y-142004142D02*
X159551914Y-141641285D01*
X158789914Y-141641285D01*
X158789914Y-142004142D01*
X158789914Y-142911285D02*
X159406771Y-142911285D01*
X159479342Y-142947571D01*
X159515628Y-142983857D01*
X159551914Y-143056428D01*
X159551914Y-143201571D01*
X159515628Y-143274142D01*
X159479342Y-143310428D01*
X159406771Y-143346714D01*
X158789914Y-143346714D01*
X158789914Y-143637000D02*
X158789914Y-144108714D01*
X159080200Y-143854714D01*
X159080200Y-143963571D01*
X159116485Y-144036142D01*
X159152771Y-144072428D01*
X159225342Y-144108714D01*
X159406771Y-144108714D01*
X159479342Y-144072428D01*
X159515628Y-144036142D01*
X159551914Y-143963571D01*
X159551914Y-143745857D01*
X159515628Y-143673285D01*
X159479342Y-143637000D01*
X161164814Y-95213714D02*
X161709100Y-95213714D01*
X161817957Y-95177428D01*
X161890528Y-95104857D01*
X161926814Y-94996000D01*
X161926814Y-94923428D01*
X161926814Y-95576571D02*
X161164814Y-95576571D01*
X161164814Y-95866857D01*
X161201100Y-95939428D01*
X161237385Y-95975714D01*
X161309957Y-96012000D01*
X161418814Y-96012000D01*
X161491385Y-95975714D01*
X161527671Y-95939428D01*
X161563957Y-95866857D01*
X161563957Y-95576571D01*
X161418814Y-96665142D02*
X161926814Y-96665142D01*
X161128528Y-96483714D02*
X161672814Y-96302285D01*
X161672814Y-96774000D01*
X161890528Y-97608571D02*
X161926814Y-97717428D01*
X161926814Y-97898857D01*
X161890528Y-97971428D01*
X161854242Y-98007714D01*
X161781671Y-98044000D01*
X161709100Y-98044000D01*
X161636528Y-98007714D01*
X161600242Y-97971428D01*
X161563957Y-97898857D01*
X161527671Y-97753714D01*
X161491385Y-97681142D01*
X161455100Y-97644857D01*
X161382528Y-97608571D01*
X161309957Y-97608571D01*
X161237385Y-97644857D01*
X161201100Y-97681142D01*
X161164814Y-97753714D01*
X161164814Y-97935142D01*
X161201100Y-98044000D01*
X161527671Y-98370571D02*
X161527671Y-98624571D01*
X161926814Y-98733428D02*
X161926814Y-98370571D01*
X161164814Y-98370571D01*
X161164814Y-98733428D01*
X161926814Y-99422857D02*
X161926814Y-99060000D01*
X161164814Y-99060000D01*
X161527671Y-99676857D02*
X161527671Y-99930857D01*
X161926814Y-100039714D02*
X161926814Y-99676857D01*
X161164814Y-99676857D01*
X161164814Y-100039714D01*
X161854242Y-100801714D02*
X161890528Y-100765428D01*
X161926814Y-100656571D01*
X161926814Y-100584000D01*
X161890528Y-100475142D01*
X161817957Y-100402571D01*
X161745385Y-100366285D01*
X161600242Y-100330000D01*
X161491385Y-100330000D01*
X161346242Y-100366285D01*
X161273671Y-100402571D01*
X161201100Y-100475142D01*
X161164814Y-100584000D01*
X161164814Y-100656571D01*
X161201100Y-100765428D01*
X161237385Y-100801714D01*
X161164814Y-101019428D02*
X161164814Y-101454857D01*
X161926814Y-101237142D02*
X161164814Y-101237142D01*
X161890528Y-101672571D02*
X161926814Y-101781428D01*
X161926814Y-101962857D01*
X161890528Y-102035428D01*
X161854242Y-102071714D01*
X161781671Y-102108000D01*
X161709100Y-102108000D01*
X161636528Y-102071714D01*
X161600242Y-102035428D01*
X161563957Y-101962857D01*
X161527671Y-101817714D01*
X161491385Y-101745142D01*
X161455100Y-101708857D01*
X161382528Y-101672571D01*
X161309957Y-101672571D01*
X161237385Y-101708857D01*
X161201100Y-101745142D01*
X161164814Y-101817714D01*
X161164814Y-101999142D01*
X161201100Y-102108000D01*
X161926814Y-103015142D02*
X161164814Y-103015142D01*
X161237385Y-103341714D02*
X161201100Y-103378000D01*
X161164814Y-103450571D01*
X161164814Y-103632000D01*
X161201100Y-103704571D01*
X161237385Y-103740857D01*
X161309957Y-103777142D01*
X161382528Y-103777142D01*
X161491385Y-103740857D01*
X161926814Y-103305428D01*
X161926814Y-103777142D01*
X161854242Y-104539142D02*
X161890528Y-104502857D01*
X161926814Y-104394000D01*
X161926814Y-104321428D01*
X161890528Y-104212571D01*
X161817957Y-104140000D01*
X161745385Y-104103714D01*
X161600242Y-104067428D01*
X161491385Y-104067428D01*
X161346242Y-104103714D01*
X161273671Y-104140000D01*
X161201100Y-104212571D01*
X161164814Y-104321428D01*
X161164814Y-104394000D01*
X161201100Y-104502857D01*
X161237385Y-104539142D01*
X161999385Y-104684285D02*
X161999385Y-105264857D01*
X161890528Y-105410000D02*
X161926814Y-105518857D01*
X161926814Y-105700285D01*
X161890528Y-105772857D01*
X161854242Y-105809142D01*
X161781671Y-105845428D01*
X161709100Y-105845428D01*
X161636528Y-105809142D01*
X161600242Y-105772857D01*
X161563957Y-105700285D01*
X161527671Y-105555142D01*
X161491385Y-105482571D01*
X161455100Y-105446285D01*
X161382528Y-105410000D01*
X161309957Y-105410000D01*
X161237385Y-105446285D01*
X161201100Y-105482571D01*
X161164814Y-105555142D01*
X161164814Y-105736571D01*
X161201100Y-105845428D01*
X161854242Y-106607428D02*
X161890528Y-106571142D01*
X161926814Y-106462285D01*
X161926814Y-106389714D01*
X161890528Y-106280857D01*
X161817957Y-106208285D01*
X161745385Y-106172000D01*
X161600242Y-106135714D01*
X161491385Y-106135714D01*
X161346242Y-106172000D01*
X161273671Y-106208285D01*
X161201100Y-106280857D01*
X161164814Y-106389714D01*
X161164814Y-106462285D01*
X161201100Y-106571142D01*
X161237385Y-106607428D01*
X161926814Y-107296857D02*
X161926814Y-106934000D01*
X161164814Y-106934000D01*
X163171414Y-96701428D02*
X162409414Y-96701428D01*
X162409414Y-96882857D01*
X162445700Y-96991714D01*
X162518271Y-97064285D01*
X162590842Y-97100571D01*
X162735985Y-97136857D01*
X162844842Y-97136857D01*
X162989985Y-97100571D01*
X163062557Y-97064285D01*
X163135128Y-96991714D01*
X163171414Y-96882857D01*
X163171414Y-96701428D01*
X162772271Y-97463428D02*
X162772271Y-97717428D01*
X163171414Y-97826285D02*
X163171414Y-97463428D01*
X162409414Y-97463428D01*
X162409414Y-97826285D01*
X162772271Y-98406857D02*
X162772271Y-98152857D01*
X163171414Y-98152857D02*
X162409414Y-98152857D01*
X162409414Y-98515714D01*
X162953700Y-98769714D02*
X162953700Y-99132571D01*
X163171414Y-98697142D02*
X162409414Y-98951142D01*
X163171414Y-99205142D01*
X162409414Y-99459142D02*
X163026271Y-99459142D01*
X163098842Y-99495428D01*
X163135128Y-99531714D01*
X163171414Y-99604285D01*
X163171414Y-99749428D01*
X163135128Y-99822000D01*
X163098842Y-99858285D01*
X163026271Y-99894571D01*
X162409414Y-99894571D01*
X163171414Y-100620285D02*
X163171414Y-100257428D01*
X162409414Y-100257428D01*
X162409414Y-100765428D02*
X162409414Y-101200857D01*
X163171414Y-100983142D02*
X162409414Y-100983142D01*
X163171414Y-102035428D02*
X162409414Y-102035428D01*
X163135128Y-102362000D02*
X163171414Y-102470857D01*
X163171414Y-102652285D01*
X163135128Y-102724857D01*
X163098842Y-102761142D01*
X163026271Y-102797428D01*
X162953700Y-102797428D01*
X162881128Y-102761142D01*
X162844842Y-102724857D01*
X162808557Y-102652285D01*
X162772271Y-102507142D01*
X162735985Y-102434571D01*
X162699700Y-102398285D01*
X162627128Y-102362000D01*
X162554557Y-102362000D01*
X162481985Y-102398285D01*
X162445700Y-102434571D01*
X162409414Y-102507142D01*
X162409414Y-102688571D01*
X162445700Y-102797428D01*
X163171414Y-103704571D02*
X162409414Y-103704571D01*
X162409414Y-103994857D01*
X162445700Y-104067428D01*
X162481985Y-104103714D01*
X162554557Y-104140000D01*
X162663414Y-104140000D01*
X162735985Y-104103714D01*
X162772271Y-104067428D01*
X162808557Y-103994857D01*
X162808557Y-103704571D01*
X162953700Y-104430285D02*
X162953700Y-104793142D01*
X163171414Y-104357714D02*
X162409414Y-104611714D01*
X163171414Y-104865714D01*
X162735985Y-105228571D02*
X162699700Y-105156000D01*
X162663414Y-105119714D01*
X162590842Y-105083428D01*
X162554557Y-105083428D01*
X162481985Y-105119714D01*
X162445700Y-105156000D01*
X162409414Y-105228571D01*
X162409414Y-105373714D01*
X162445700Y-105446285D01*
X162481985Y-105482571D01*
X162554557Y-105518857D01*
X162590842Y-105518857D01*
X162663414Y-105482571D01*
X162699700Y-105446285D01*
X162735985Y-105373714D01*
X162735985Y-105228571D01*
X162772271Y-105156000D01*
X162808557Y-105119714D01*
X162881128Y-105083428D01*
X163026271Y-105083428D01*
X163098842Y-105119714D01*
X163135128Y-105156000D01*
X163171414Y-105228571D01*
X163171414Y-105373714D01*
X163135128Y-105446285D01*
X163098842Y-105482571D01*
X163026271Y-105518857D01*
X162881128Y-105518857D01*
X162808557Y-105482571D01*
X162772271Y-105446285D01*
X162735985Y-105373714D01*
X164343442Y-95141142D02*
X164379728Y-95104857D01*
X164416014Y-94996000D01*
X164416014Y-94923428D01*
X164379728Y-94814571D01*
X164307157Y-94742000D01*
X164234585Y-94705714D01*
X164089442Y-94669428D01*
X163980585Y-94669428D01*
X163835442Y-94705714D01*
X163762871Y-94742000D01*
X163690300Y-94814571D01*
X163654014Y-94923428D01*
X163654014Y-94996000D01*
X163690300Y-95104857D01*
X163726585Y-95141142D01*
X163654014Y-95467714D02*
X164270871Y-95467714D01*
X164343442Y-95504000D01*
X164379728Y-95540285D01*
X164416014Y-95612857D01*
X164416014Y-95758000D01*
X164379728Y-95830571D01*
X164343442Y-95866857D01*
X164270871Y-95903142D01*
X163654014Y-95903142D01*
X163654014Y-96157142D02*
X163654014Y-96592571D01*
X164416014Y-96374857D02*
X163654014Y-96374857D01*
X164416014Y-97826285D02*
X164416014Y-97390857D01*
X164416014Y-97608571D02*
X163654014Y-97608571D01*
X163762871Y-97536000D01*
X163835442Y-97463428D01*
X163871728Y-97390857D01*
X164125728Y-98152857D02*
X164125728Y-98733428D01*
X163726585Y-99060000D02*
X163690300Y-99096285D01*
X163654014Y-99168857D01*
X163654014Y-99350285D01*
X163690300Y-99422857D01*
X163726585Y-99459142D01*
X163799157Y-99495428D01*
X163871728Y-99495428D01*
X163980585Y-99459142D01*
X164416014Y-99023714D01*
X164416014Y-99495428D01*
X164379728Y-99858285D02*
X164416014Y-99858285D01*
X164488585Y-99822000D01*
X164524871Y-99785714D01*
X164016871Y-101019428D02*
X164053157Y-101128285D01*
X164089442Y-101164571D01*
X164162014Y-101200857D01*
X164270871Y-101200857D01*
X164343442Y-101164571D01*
X164379728Y-101128285D01*
X164416014Y-101055714D01*
X164416014Y-100765428D01*
X163654014Y-100765428D01*
X163654014Y-101019428D01*
X163690300Y-101092000D01*
X163726585Y-101128285D01*
X163799157Y-101164571D01*
X163871728Y-101164571D01*
X163944300Y-101128285D01*
X163980585Y-101092000D01*
X164016871Y-101019428D01*
X164016871Y-100765428D01*
X164416014Y-101962857D02*
X164053157Y-101708857D01*
X164416014Y-101527428D02*
X163654014Y-101527428D01*
X163654014Y-101817714D01*
X163690300Y-101890285D01*
X163726585Y-101926571D01*
X163799157Y-101962857D01*
X163908014Y-101962857D01*
X163980585Y-101926571D01*
X164016871Y-101890285D01*
X164053157Y-101817714D01*
X164053157Y-101527428D01*
X164416014Y-102289428D02*
X163654014Y-102289428D01*
X164416014Y-102652285D02*
X163654014Y-102652285D01*
X163654014Y-102833714D01*
X163690300Y-102942571D01*
X163762871Y-103015142D01*
X163835442Y-103051428D01*
X163980585Y-103087714D01*
X164089442Y-103087714D01*
X164234585Y-103051428D01*
X164307157Y-103015142D01*
X164379728Y-102942571D01*
X164416014Y-102833714D01*
X164416014Y-102652285D01*
X163690300Y-103813428D02*
X163654014Y-103740857D01*
X163654014Y-103632000D01*
X163690300Y-103523142D01*
X163762871Y-103450571D01*
X163835442Y-103414285D01*
X163980585Y-103378000D01*
X164089442Y-103378000D01*
X164234585Y-103414285D01*
X164307157Y-103450571D01*
X164379728Y-103523142D01*
X164416014Y-103632000D01*
X164416014Y-103704571D01*
X164379728Y-103813428D01*
X164343442Y-103849714D01*
X164089442Y-103849714D01*
X164089442Y-103704571D01*
X164016871Y-104176285D02*
X164016871Y-104430285D01*
X164416014Y-104539142D02*
X164416014Y-104176285D01*
X163654014Y-104176285D01*
X163654014Y-104539142D01*
X163726585Y-105410000D02*
X163690300Y-105446285D01*
X163654014Y-105518857D01*
X163654014Y-105700285D01*
X163690300Y-105772857D01*
X163726585Y-105809142D01*
X163799157Y-105845428D01*
X163871728Y-105845428D01*
X163980585Y-105809142D01*
X164416014Y-105373714D01*
X164416014Y-105845428D01*
X164125728Y-106172000D02*
X164125728Y-106752571D01*
X163654014Y-107042857D02*
X163654014Y-107514571D01*
X163944300Y-107260571D01*
X163944300Y-107369428D01*
X163980585Y-107442000D01*
X164016871Y-107478285D01*
X164089442Y-107514571D01*
X164270871Y-107514571D01*
X164343442Y-107478285D01*
X164379728Y-107442000D01*
X164416014Y-107369428D01*
X164416014Y-107151714D01*
X164379728Y-107079142D01*
X164343442Y-107042857D01*
X164898614Y-96737714D02*
X164898614Y-97173142D01*
X165660614Y-96955428D02*
X164898614Y-96955428D01*
X164898614Y-97572285D02*
X164898614Y-97717428D01*
X164934900Y-97790000D01*
X165007471Y-97862571D01*
X165152614Y-97898857D01*
X165406614Y-97898857D01*
X165551757Y-97862571D01*
X165624328Y-97790000D01*
X165660614Y-97717428D01*
X165660614Y-97572285D01*
X165624328Y-97499714D01*
X165551757Y-97427142D01*
X165406614Y-97390857D01*
X165152614Y-97390857D01*
X165007471Y-97427142D01*
X164934900Y-97499714D01*
X164898614Y-97572285D01*
X165624328Y-98769714D02*
X165660614Y-98878571D01*
X165660614Y-99060000D01*
X165624328Y-99132571D01*
X165588042Y-99168857D01*
X165515471Y-99205142D01*
X165442900Y-99205142D01*
X165370328Y-99168857D01*
X165334042Y-99132571D01*
X165297757Y-99060000D01*
X165261471Y-98914857D01*
X165225185Y-98842285D01*
X165188900Y-98806000D01*
X165116328Y-98769714D01*
X165043757Y-98769714D01*
X164971185Y-98806000D01*
X164934900Y-98842285D01*
X164898614Y-98914857D01*
X164898614Y-99096285D01*
X164934900Y-99205142D01*
X165261471Y-99531714D02*
X165261471Y-99785714D01*
X165660614Y-99894571D02*
X165660614Y-99531714D01*
X164898614Y-99531714D01*
X164898614Y-99894571D01*
X165660614Y-100584000D02*
X165660614Y-100221142D01*
X164898614Y-100221142D01*
X165261471Y-100838000D02*
X165261471Y-101092000D01*
X165660614Y-101200857D02*
X165660614Y-100838000D01*
X164898614Y-100838000D01*
X164898614Y-101200857D01*
X165588042Y-101962857D02*
X165624328Y-101926571D01*
X165660614Y-101817714D01*
X165660614Y-101745142D01*
X165624328Y-101636285D01*
X165551757Y-101563714D01*
X165479185Y-101527428D01*
X165334042Y-101491142D01*
X165225185Y-101491142D01*
X165080042Y-101527428D01*
X165007471Y-101563714D01*
X164934900Y-101636285D01*
X164898614Y-101745142D01*
X164898614Y-101817714D01*
X164934900Y-101926571D01*
X164971185Y-101962857D01*
X164898614Y-102180571D02*
X164898614Y-102616000D01*
X165660614Y-102398285D02*
X164898614Y-102398285D01*
X165660614Y-103450571D02*
X164898614Y-103450571D01*
X164898614Y-103740857D01*
X164934900Y-103813428D01*
X164971185Y-103849714D01*
X165043757Y-103886000D01*
X165152614Y-103886000D01*
X165225185Y-103849714D01*
X165261471Y-103813428D01*
X165297757Y-103740857D01*
X165297757Y-103450571D01*
X165588042Y-104648000D02*
X165624328Y-104611714D01*
X165660614Y-104502857D01*
X165660614Y-104430285D01*
X165624328Y-104321428D01*
X165551757Y-104248857D01*
X165479185Y-104212571D01*
X165334042Y-104176285D01*
X165225185Y-104176285D01*
X165080042Y-104212571D01*
X165007471Y-104248857D01*
X164934900Y-104321428D01*
X164898614Y-104430285D01*
X164898614Y-104502857D01*
X164934900Y-104611714D01*
X164971185Y-104648000D01*
X165225185Y-105083428D02*
X165188900Y-105010857D01*
X165152614Y-104974571D01*
X165080042Y-104938285D01*
X165043757Y-104938285D01*
X164971185Y-104974571D01*
X164934900Y-105010857D01*
X164898614Y-105083428D01*
X164898614Y-105228571D01*
X164934900Y-105301142D01*
X164971185Y-105337428D01*
X165043757Y-105373714D01*
X165080042Y-105373714D01*
X165152614Y-105337428D01*
X165188900Y-105301142D01*
X165225185Y-105228571D01*
X165225185Y-105083428D01*
X165261471Y-105010857D01*
X165297757Y-104974571D01*
X165370328Y-104938285D01*
X165515471Y-104938285D01*
X165588042Y-104974571D01*
X165624328Y-105010857D01*
X165660614Y-105083428D01*
X165660614Y-105228571D01*
X165624328Y-105301142D01*
X165588042Y-105337428D01*
X165515471Y-105373714D01*
X165370328Y-105373714D01*
X165297757Y-105337428D01*
X165261471Y-105301142D01*
X165225185Y-105228571D01*
X158352671Y-55263142D02*
X158388957Y-55372000D01*
X158425242Y-55408285D01*
X158497814Y-55444571D01*
X158606671Y-55444571D01*
X158679242Y-55408285D01*
X158715528Y-55372000D01*
X158751814Y-55299428D01*
X158751814Y-55009142D01*
X157989814Y-55009142D01*
X157989814Y-55263142D01*
X158026100Y-55335714D01*
X158062385Y-55372000D01*
X158134957Y-55408285D01*
X158207528Y-55408285D01*
X158280100Y-55372000D01*
X158316385Y-55335714D01*
X158352671Y-55263142D01*
X158352671Y-55009142D01*
X158751814Y-56206571D02*
X158388957Y-55952571D01*
X158751814Y-55771142D02*
X157989814Y-55771142D01*
X157989814Y-56061428D01*
X158026100Y-56134000D01*
X158062385Y-56170285D01*
X158134957Y-56206571D01*
X158243814Y-56206571D01*
X158316385Y-56170285D01*
X158352671Y-56134000D01*
X158388957Y-56061428D01*
X158388957Y-55771142D01*
X158751814Y-56533142D02*
X157989814Y-56533142D01*
X158751814Y-56896000D02*
X157989814Y-56896000D01*
X157989814Y-57077428D01*
X158026100Y-57186285D01*
X158098671Y-57258857D01*
X158171242Y-57295142D01*
X158316385Y-57331428D01*
X158425242Y-57331428D01*
X158570385Y-57295142D01*
X158642957Y-57258857D01*
X158715528Y-57186285D01*
X158751814Y-57077428D01*
X158751814Y-56896000D01*
X158026100Y-58057142D02*
X157989814Y-57984571D01*
X157989814Y-57875714D01*
X158026100Y-57766857D01*
X158098671Y-57694285D01*
X158171242Y-57658000D01*
X158316385Y-57621714D01*
X158425242Y-57621714D01*
X158570385Y-57658000D01*
X158642957Y-57694285D01*
X158715528Y-57766857D01*
X158751814Y-57875714D01*
X158751814Y-57948285D01*
X158715528Y-58057142D01*
X158679242Y-58093428D01*
X158425242Y-58093428D01*
X158425242Y-57948285D01*
X158352671Y-58420000D02*
X158352671Y-58674000D01*
X158751814Y-58782857D02*
X158751814Y-58420000D01*
X157989814Y-58420000D01*
X157989814Y-58782857D01*
X157989814Y-59907714D02*
X158534100Y-59907714D01*
X158642957Y-59871428D01*
X158715528Y-59798857D01*
X158751814Y-59690000D01*
X158751814Y-59617428D01*
X158751814Y-60270571D02*
X157989814Y-60270571D01*
X157989814Y-60560857D01*
X158026100Y-60633428D01*
X158062385Y-60669714D01*
X158134957Y-60705999D01*
X158243814Y-60705999D01*
X158316385Y-60669714D01*
X158352671Y-60633428D01*
X158388957Y-60560857D01*
X158388957Y-60270571D01*
X157989814Y-61359142D02*
X157989814Y-61213999D01*
X158026100Y-61141428D01*
X158062385Y-61105142D01*
X158171242Y-61032571D01*
X158316385Y-60996285D01*
X158606671Y-60996285D01*
X158679242Y-61032571D01*
X158715528Y-61068857D01*
X158751814Y-61141428D01*
X158751814Y-61286571D01*
X158715528Y-61359142D01*
X158679242Y-61395428D01*
X158606671Y-61431714D01*
X158425242Y-61431714D01*
X158352671Y-61395428D01*
X158316385Y-61359142D01*
X158280100Y-61286571D01*
X158280100Y-61141428D01*
X158316385Y-61068857D01*
X158352671Y-61032571D01*
X158425242Y-60996285D01*
X157989814Y-62229999D02*
X157989814Y-62665428D01*
X158751814Y-62447714D02*
X157989814Y-62447714D01*
X157989814Y-63064571D02*
X157989814Y-63209714D01*
X158026100Y-63282285D01*
X158098671Y-63354857D01*
X158243814Y-63391142D01*
X158497814Y-63391142D01*
X158642957Y-63354857D01*
X158715528Y-63282285D01*
X158751814Y-63209714D01*
X158751814Y-63064571D01*
X158715528Y-62991999D01*
X158642957Y-62919428D01*
X158497814Y-62883142D01*
X158243814Y-62883142D01*
X158098671Y-62919428D01*
X158026100Y-62991999D01*
X157989814Y-63064571D01*
X157989814Y-64298285D02*
X158606671Y-64298285D01*
X158679242Y-64334571D01*
X158715528Y-64370857D01*
X158751814Y-64443428D01*
X158751814Y-64588571D01*
X158715528Y-64661142D01*
X158679242Y-64697428D01*
X158606671Y-64733714D01*
X157989814Y-64733714D01*
X158715528Y-65060285D02*
X158751814Y-65169142D01*
X158751814Y-65350571D01*
X158715528Y-65423142D01*
X158679242Y-65459428D01*
X158606671Y-65495714D01*
X158534100Y-65495714D01*
X158461528Y-65459428D01*
X158425242Y-65423142D01*
X158388957Y-65350571D01*
X158352671Y-65205428D01*
X158316385Y-65132857D01*
X158280100Y-65096571D01*
X158207528Y-65060285D01*
X158134957Y-65060285D01*
X158062385Y-65096571D01*
X158026100Y-65132857D01*
X157989814Y-65205428D01*
X157989814Y-65386857D01*
X158026100Y-65495714D01*
X158352671Y-65822285D02*
X158352671Y-66076285D01*
X158751814Y-66185142D02*
X158751814Y-65822285D01*
X157989814Y-65822285D01*
X157989814Y-66185142D01*
X159706128Y-54972857D02*
X159706128Y-55553428D01*
X159996414Y-55263142D02*
X159415842Y-55263142D01*
X159234414Y-56279142D02*
X159234414Y-55916285D01*
X159597271Y-55880000D01*
X159560985Y-55916285D01*
X159524700Y-55988857D01*
X159524700Y-56170285D01*
X159560985Y-56242857D01*
X159597271Y-56279142D01*
X159669842Y-56315428D01*
X159851271Y-56315428D01*
X159923842Y-56279142D01*
X159960128Y-56242857D01*
X159996414Y-56170285D01*
X159996414Y-55988857D01*
X159960128Y-55916285D01*
X159923842Y-55880000D01*
X159234414Y-56533142D02*
X159996414Y-56787142D01*
X159234414Y-57041142D01*
X159597271Y-58129714D02*
X159597271Y-57875714D01*
X159996414Y-57875714D02*
X159234414Y-57875714D01*
X159234414Y-58238571D01*
X159996414Y-58964285D02*
X159633557Y-58710285D01*
X159996414Y-58528857D02*
X159234414Y-58528857D01*
X159234414Y-58819142D01*
X159270700Y-58891714D01*
X159306985Y-58928000D01*
X159379557Y-58964285D01*
X159488414Y-58964285D01*
X159560985Y-58928000D01*
X159597271Y-58891714D01*
X159633557Y-58819142D01*
X159633557Y-58528857D01*
X159234414Y-59436000D02*
X159234414Y-59581142D01*
X159270700Y-59653714D01*
X159343271Y-59726285D01*
X159488414Y-59762571D01*
X159742414Y-59762571D01*
X159887557Y-59726285D01*
X159960128Y-59653714D01*
X159996414Y-59581142D01*
X159996414Y-59436000D01*
X159960128Y-59363428D01*
X159887557Y-59290857D01*
X159742414Y-59254571D01*
X159488414Y-59254571D01*
X159343271Y-59290857D01*
X159270700Y-59363428D01*
X159234414Y-59436000D01*
X159996414Y-60089142D02*
X159234414Y-60089142D01*
X159778700Y-60343142D01*
X159234414Y-60597142D01*
X159996414Y-60597142D01*
X159960128Y-61504285D02*
X159996414Y-61613142D01*
X159996414Y-61794571D01*
X159960128Y-61867142D01*
X159923842Y-61903428D01*
X159851271Y-61939714D01*
X159778700Y-61939714D01*
X159706128Y-61903428D01*
X159669842Y-61867142D01*
X159633557Y-61794571D01*
X159597271Y-61649428D01*
X159560985Y-61576857D01*
X159524700Y-61540571D01*
X159452128Y-61504285D01*
X159379557Y-61504285D01*
X159306985Y-61540571D01*
X159270700Y-61576857D01*
X159234414Y-61649428D01*
X159234414Y-61830857D01*
X159270700Y-61939714D01*
X159234414Y-62157428D02*
X159234414Y-62592857D01*
X159996414Y-62375142D02*
X159234414Y-62375142D01*
X159996414Y-62846857D02*
X159234414Y-62846857D01*
X159778700Y-63100857D01*
X159234414Y-63354857D01*
X159996414Y-63354857D01*
X159234414Y-63645142D02*
X159234414Y-64116857D01*
X159524700Y-63862857D01*
X159524700Y-63971714D01*
X159560985Y-64044285D01*
X159597271Y-64080571D01*
X159669842Y-64116857D01*
X159851271Y-64116857D01*
X159923842Y-64080571D01*
X159960128Y-64044285D01*
X159996414Y-63971714D01*
X159996414Y-63754000D01*
X159960128Y-63681428D01*
X159923842Y-63645142D01*
X159306985Y-64407142D02*
X159270700Y-64443428D01*
X159234414Y-64516000D01*
X159234414Y-64697428D01*
X159270700Y-64770000D01*
X159306985Y-64806285D01*
X159379557Y-64842571D01*
X159452128Y-64842571D01*
X159560985Y-64806285D01*
X159996414Y-64370857D01*
X159996414Y-64842571D01*
X159597271Y-65423142D02*
X159597271Y-65169142D01*
X159996414Y-65169142D02*
X159234414Y-65169142D01*
X159234414Y-65532000D01*
X159488414Y-66148857D02*
X159996414Y-66148857D01*
X159198128Y-65967428D02*
X159742414Y-65786000D01*
X159742414Y-66257714D01*
X161241014Y-54537428D02*
X160479014Y-54537428D01*
X160479014Y-54718857D01*
X160515300Y-54827714D01*
X160587871Y-54900285D01*
X160660442Y-54936571D01*
X160805585Y-54972857D01*
X160914442Y-54972857D01*
X161059585Y-54936571D01*
X161132157Y-54900285D01*
X161204728Y-54827714D01*
X161241014Y-54718857D01*
X161241014Y-54537428D01*
X161241014Y-55299428D02*
X160479014Y-55299428D01*
X161204728Y-55626000D02*
X161241014Y-55734857D01*
X161241014Y-55916285D01*
X161204728Y-55988857D01*
X161168442Y-56025142D01*
X161095871Y-56061428D01*
X161023300Y-56061428D01*
X160950728Y-56025142D01*
X160914442Y-55988857D01*
X160878157Y-55916285D01*
X160841871Y-55771142D01*
X160805585Y-55698571D01*
X160769300Y-55662285D01*
X160696728Y-55626000D01*
X160624157Y-55626000D01*
X160551585Y-55662285D01*
X160515300Y-55698571D01*
X160479014Y-55771142D01*
X160479014Y-55952571D01*
X160515300Y-56061428D01*
X161168442Y-56823428D02*
X161204728Y-56787142D01*
X161241014Y-56678285D01*
X161241014Y-56605714D01*
X161204728Y-56496857D01*
X161132157Y-56424285D01*
X161059585Y-56388000D01*
X160914442Y-56351714D01*
X160805585Y-56351714D01*
X160660442Y-56388000D01*
X160587871Y-56424285D01*
X160515300Y-56496857D01*
X160479014Y-56605714D01*
X160479014Y-56678285D01*
X160515300Y-56787142D01*
X160551585Y-56823428D01*
X160479014Y-57295142D02*
X160479014Y-57440285D01*
X160515300Y-57512857D01*
X160587871Y-57585428D01*
X160733014Y-57621714D01*
X160987014Y-57621714D01*
X161132157Y-57585428D01*
X161204728Y-57512857D01*
X161241014Y-57440285D01*
X161241014Y-57295142D01*
X161204728Y-57222571D01*
X161132157Y-57150000D01*
X160987014Y-57113714D01*
X160733014Y-57113714D01*
X160587871Y-57150000D01*
X160515300Y-57222571D01*
X160479014Y-57295142D01*
X160479014Y-57839428D02*
X161241014Y-58093428D01*
X160479014Y-58347428D01*
X160841871Y-58601428D02*
X160841871Y-58855428D01*
X161241014Y-58964285D02*
X161241014Y-58601428D01*
X160479014Y-58601428D01*
X160479014Y-58964285D01*
X161241014Y-59726285D02*
X160878157Y-59472285D01*
X161241014Y-59290857D02*
X160479014Y-59290857D01*
X160479014Y-59581142D01*
X160515300Y-59653714D01*
X160551585Y-59690000D01*
X160624157Y-59726285D01*
X160733014Y-59726285D01*
X160805585Y-59690000D01*
X160841871Y-59653714D01*
X160878157Y-59581142D01*
X160878157Y-59290857D01*
X160878157Y-60198000D02*
X161241014Y-60198000D01*
X160479014Y-59944000D02*
X160878157Y-60198000D01*
X160479014Y-60452000D01*
X160841871Y-61540571D02*
X160878157Y-61649428D01*
X160914442Y-61685714D01*
X160987014Y-61722000D01*
X161095871Y-61722000D01*
X161168442Y-61685714D01*
X161204728Y-61649428D01*
X161241014Y-61576857D01*
X161241014Y-61286571D01*
X160479014Y-61286571D01*
X160479014Y-61540571D01*
X160515300Y-61613142D01*
X160551585Y-61649428D01*
X160624157Y-61685714D01*
X160696728Y-61685714D01*
X160769300Y-61649428D01*
X160805585Y-61613142D01*
X160841871Y-61540571D01*
X160841871Y-61286571D01*
X160479014Y-62193714D02*
X160479014Y-62338857D01*
X160515300Y-62411428D01*
X160587871Y-62484000D01*
X160733014Y-62520285D01*
X160987014Y-62520285D01*
X161132157Y-62484000D01*
X161204728Y-62411428D01*
X161241014Y-62338857D01*
X161241014Y-62193714D01*
X161204728Y-62121142D01*
X161132157Y-62048571D01*
X160987014Y-62012285D01*
X160733014Y-62012285D01*
X160587871Y-62048571D01*
X160515300Y-62121142D01*
X160479014Y-62193714D01*
X161023300Y-62810571D02*
X161023300Y-63173428D01*
X161241014Y-62738000D02*
X160479014Y-62992000D01*
X161241014Y-63246000D01*
X161241014Y-63935428D02*
X160878157Y-63681428D01*
X161241014Y-63500000D02*
X160479014Y-63500000D01*
X160479014Y-63790285D01*
X160515300Y-63862857D01*
X160551585Y-63899142D01*
X160624157Y-63935428D01*
X160733014Y-63935428D01*
X160805585Y-63899142D01*
X160841871Y-63862857D01*
X160878157Y-63790285D01*
X160878157Y-63500000D01*
X161241014Y-64262000D02*
X160479014Y-64262000D01*
X160479014Y-64443428D01*
X160515300Y-64552285D01*
X160587871Y-64624857D01*
X160660442Y-64661142D01*
X160805585Y-64697428D01*
X160914442Y-64697428D01*
X161059585Y-64661142D01*
X161132157Y-64624857D01*
X161204728Y-64552285D01*
X161241014Y-64443428D01*
X161241014Y-64262000D01*
X161023300Y-65568285D02*
X161023300Y-65931142D01*
X161241014Y-65495714D02*
X160479014Y-65749714D01*
X161241014Y-66003714D01*
X161241014Y-66656857D02*
X161241014Y-66221428D01*
X161241014Y-66439142D02*
X160479014Y-66439142D01*
X160587871Y-66366571D01*
X160660442Y-66294000D01*
X160696728Y-66221428D01*
X162485614Y-54428571D02*
X161723614Y-54428571D01*
X161723614Y-54610000D01*
X161759900Y-54718857D01*
X161832471Y-54791428D01*
X161905042Y-54827714D01*
X162050185Y-54864000D01*
X162159042Y-54864000D01*
X162304185Y-54827714D01*
X162376757Y-54791428D01*
X162449328Y-54718857D01*
X162485614Y-54610000D01*
X162485614Y-54428571D01*
X161723614Y-55335714D02*
X161723614Y-55480857D01*
X161759900Y-55553428D01*
X161832471Y-55626000D01*
X161977614Y-55662285D01*
X162231614Y-55662285D01*
X162376757Y-55626000D01*
X162449328Y-55553428D01*
X162485614Y-55480857D01*
X162485614Y-55335714D01*
X162449328Y-55263142D01*
X162376757Y-55190571D01*
X162231614Y-55154285D01*
X161977614Y-55154285D01*
X161832471Y-55190571D01*
X161759900Y-55263142D01*
X161723614Y-55335714D01*
X162485614Y-56569428D02*
X161723614Y-56569428D01*
X162485614Y-57004857D01*
X161723614Y-57004857D01*
X161723614Y-57512857D02*
X161723614Y-57658000D01*
X161759900Y-57730571D01*
X161832471Y-57803142D01*
X161977614Y-57839428D01*
X162231614Y-57839428D01*
X162376757Y-57803142D01*
X162449328Y-57730571D01*
X162485614Y-57658000D01*
X162485614Y-57512857D01*
X162449328Y-57440285D01*
X162376757Y-57367714D01*
X162231614Y-57331428D01*
X161977614Y-57331428D01*
X161832471Y-57367714D01*
X161759900Y-57440285D01*
X161723614Y-57512857D01*
X161723614Y-58057142D02*
X161723614Y-58492571D01*
X162485614Y-58274857D02*
X161723614Y-58274857D01*
X162485614Y-59327142D02*
X161723614Y-59327142D01*
X161723614Y-59617428D01*
X161759900Y-59690000D01*
X161796185Y-59726285D01*
X161868757Y-59762571D01*
X161977614Y-59762571D01*
X162050185Y-59726285D01*
X162086471Y-59690000D01*
X162122757Y-59617428D01*
X162122757Y-59327142D01*
X161723614Y-60234285D02*
X161723614Y-60379428D01*
X161759900Y-60452000D01*
X161832471Y-60524571D01*
X161977614Y-60560857D01*
X162231614Y-60560857D01*
X162376757Y-60524571D01*
X162449328Y-60452000D01*
X162485614Y-60379428D01*
X162485614Y-60234285D01*
X162449328Y-60161714D01*
X162376757Y-60089142D01*
X162231614Y-60052857D01*
X161977614Y-60052857D01*
X161832471Y-60089142D01*
X161759900Y-60161714D01*
X161723614Y-60234285D01*
X162485614Y-60887428D02*
X161723614Y-60887428D01*
X161723614Y-61177714D01*
X161759900Y-61250285D01*
X161796185Y-61286571D01*
X161868757Y-61322857D01*
X161977614Y-61322857D01*
X162050185Y-61286571D01*
X162086471Y-61250285D01*
X162122757Y-61177714D01*
X162122757Y-60887428D01*
X161723614Y-61649428D02*
X162340471Y-61649428D01*
X162413042Y-61685714D01*
X162449328Y-61722000D01*
X162485614Y-61794571D01*
X162485614Y-61939714D01*
X162449328Y-62012285D01*
X162413042Y-62048571D01*
X162340471Y-62084857D01*
X161723614Y-62084857D01*
X162485614Y-62810571D02*
X162485614Y-62447714D01*
X161723614Y-62447714D01*
X162267900Y-63028285D02*
X162267900Y-63391142D01*
X162485614Y-62955714D02*
X161723614Y-63209714D01*
X162485614Y-63463714D01*
X161723614Y-63608857D02*
X161723614Y-64044285D01*
X162485614Y-63826571D02*
X161723614Y-63826571D01*
X162086471Y-64298285D02*
X162086471Y-64552285D01*
X162485614Y-64661142D02*
X162485614Y-64298285D01*
X161723614Y-64298285D01*
X161723614Y-64661142D01*
X161723614Y-65568285D02*
X162340471Y-65568285D01*
X162413042Y-65604571D01*
X162449328Y-65640857D01*
X162485614Y-65713428D01*
X162485614Y-65858571D01*
X162449328Y-65931142D01*
X162413042Y-65967428D01*
X162340471Y-66003714D01*
X161723614Y-66003714D01*
X161723614Y-66294000D02*
X161723614Y-66765714D01*
X162013900Y-66511714D01*
X162013900Y-66620571D01*
X162050185Y-66693142D01*
X162086471Y-66729428D01*
X162159042Y-66765714D01*
X162340471Y-66765714D01*
X162413042Y-66729428D01*
X162449328Y-66693142D01*
X162485614Y-66620571D01*
X162485614Y-66402857D01*
X162449328Y-66330285D01*
X162413042Y-66294000D01*
X127437242Y-55208714D02*
X127473528Y-55172428D01*
X127509814Y-55063571D01*
X127509814Y-54991000D01*
X127473528Y-54882142D01*
X127400957Y-54809571D01*
X127328385Y-54773285D01*
X127183242Y-54737000D01*
X127074385Y-54737000D01*
X126929242Y-54773285D01*
X126856671Y-54809571D01*
X126784100Y-54882142D01*
X126747814Y-54991000D01*
X126747814Y-55063571D01*
X126784100Y-55172428D01*
X126820385Y-55208714D01*
X126747814Y-55535285D02*
X127364671Y-55535285D01*
X127437242Y-55571571D01*
X127473528Y-55607857D01*
X127509814Y-55680428D01*
X127509814Y-55825571D01*
X127473528Y-55898142D01*
X127437242Y-55934428D01*
X127364671Y-55970714D01*
X126747814Y-55970714D01*
X126747814Y-56224714D02*
X126747814Y-56660142D01*
X127509814Y-56442428D02*
X126747814Y-56442428D01*
X126747814Y-57712428D02*
X127292100Y-57712428D01*
X127400957Y-57676142D01*
X127473528Y-57603571D01*
X127509814Y-57494714D01*
X127509814Y-57422142D01*
X127509814Y-58075285D02*
X126747814Y-58075285D01*
X126747814Y-58365571D01*
X126784100Y-58438142D01*
X126820385Y-58474428D01*
X126892957Y-58510714D01*
X127001814Y-58510714D01*
X127074385Y-58474428D01*
X127110671Y-58438142D01*
X127146957Y-58365571D01*
X127146957Y-58075285D01*
X127509814Y-59236428D02*
X127509814Y-58801000D01*
X127509814Y-59018714D02*
X126747814Y-59018714D01*
X126856671Y-58946142D01*
X126929242Y-58873571D01*
X126965528Y-58801000D01*
X127509814Y-60143571D02*
X126747814Y-60143571D01*
X127110671Y-60760428D02*
X127110671Y-60506428D01*
X127509814Y-60506428D02*
X126747814Y-60506428D01*
X126747814Y-60869285D01*
X127473528Y-61703857D02*
X127509814Y-61812714D01*
X127509814Y-61994142D01*
X127473528Y-62066714D01*
X127437242Y-62103000D01*
X127364671Y-62139285D01*
X127292100Y-62139285D01*
X127219528Y-62103000D01*
X127183242Y-62066714D01*
X127146957Y-61994142D01*
X127110671Y-61849000D01*
X127074385Y-61776428D01*
X127038100Y-61740142D01*
X126965528Y-61703857D01*
X126892957Y-61703857D01*
X126820385Y-61740142D01*
X126784100Y-61776428D01*
X126747814Y-61849000D01*
X126747814Y-62030428D01*
X126784100Y-62139285D01*
X126747814Y-62357000D02*
X126747814Y-62792428D01*
X127509814Y-62574714D02*
X126747814Y-62574714D01*
X127509814Y-63046428D02*
X126747814Y-63046428D01*
X127292100Y-63300428D01*
X126747814Y-63554428D01*
X127509814Y-63554428D01*
X126747814Y-63844714D02*
X126747814Y-64316428D01*
X127038100Y-64062428D01*
X127038100Y-64171285D01*
X127074385Y-64243857D01*
X127110671Y-64280142D01*
X127183242Y-64316428D01*
X127364671Y-64316428D01*
X127437242Y-64280142D01*
X127473528Y-64243857D01*
X127509814Y-64171285D01*
X127509814Y-63953571D01*
X127473528Y-63881000D01*
X127437242Y-63844714D01*
X126820385Y-64606714D02*
X126784100Y-64643000D01*
X126747814Y-64715571D01*
X126747814Y-64897000D01*
X126784100Y-64969571D01*
X126820385Y-65005857D01*
X126892957Y-65042142D01*
X126965528Y-65042142D01*
X127074385Y-65005857D01*
X127509814Y-64570428D01*
X127509814Y-65042142D01*
X127110671Y-65622714D02*
X127110671Y-65368714D01*
X127509814Y-65368714D02*
X126747814Y-65368714D01*
X126747814Y-65731571D01*
X127001814Y-66348428D02*
X127509814Y-66348428D01*
X126711528Y-66167000D02*
X127255814Y-65985571D01*
X127255814Y-66457285D01*
X128754414Y-54537428D02*
X127992414Y-54537428D01*
X127992414Y-54718857D01*
X128028700Y-54827714D01*
X128101271Y-54900285D01*
X128173842Y-54936571D01*
X128318985Y-54972857D01*
X128427842Y-54972857D01*
X128572985Y-54936571D01*
X128645557Y-54900285D01*
X128718128Y-54827714D01*
X128754414Y-54718857D01*
X128754414Y-54537428D01*
X128754414Y-55299428D02*
X127992414Y-55299428D01*
X128718128Y-55626000D02*
X128754414Y-55734857D01*
X128754414Y-55916285D01*
X128718128Y-55988857D01*
X128681842Y-56025142D01*
X128609271Y-56061428D01*
X128536700Y-56061428D01*
X128464128Y-56025142D01*
X128427842Y-55988857D01*
X128391557Y-55916285D01*
X128355271Y-55771142D01*
X128318985Y-55698571D01*
X128282700Y-55662285D01*
X128210128Y-55626000D01*
X128137557Y-55626000D01*
X128064985Y-55662285D01*
X128028700Y-55698571D01*
X127992414Y-55771142D01*
X127992414Y-55952571D01*
X128028700Y-56061428D01*
X128681842Y-56823428D02*
X128718128Y-56787142D01*
X128754414Y-56678285D01*
X128754414Y-56605714D01*
X128718128Y-56496857D01*
X128645557Y-56424285D01*
X128572985Y-56388000D01*
X128427842Y-56351714D01*
X128318985Y-56351714D01*
X128173842Y-56388000D01*
X128101271Y-56424285D01*
X128028700Y-56496857D01*
X127992414Y-56605714D01*
X127992414Y-56678285D01*
X128028700Y-56787142D01*
X128064985Y-56823428D01*
X127992414Y-57295142D02*
X127992414Y-57440285D01*
X128028700Y-57512857D01*
X128101271Y-57585428D01*
X128246414Y-57621714D01*
X128500414Y-57621714D01*
X128645557Y-57585428D01*
X128718128Y-57512857D01*
X128754414Y-57440285D01*
X128754414Y-57295142D01*
X128718128Y-57222571D01*
X128645557Y-57150000D01*
X128500414Y-57113714D01*
X128246414Y-57113714D01*
X128101271Y-57150000D01*
X128028700Y-57222571D01*
X127992414Y-57295142D01*
X127992414Y-57839428D02*
X128754414Y-58093428D01*
X127992414Y-58347428D01*
X128355271Y-58601428D02*
X128355271Y-58855428D01*
X128754414Y-58964285D02*
X128754414Y-58601428D01*
X127992414Y-58601428D01*
X127992414Y-58964285D01*
X128754414Y-59726285D02*
X128391557Y-59472285D01*
X128754414Y-59290857D02*
X127992414Y-59290857D01*
X127992414Y-59581142D01*
X128028700Y-59653714D01*
X128064985Y-59690000D01*
X128137557Y-59726285D01*
X128246414Y-59726285D01*
X128318985Y-59690000D01*
X128355271Y-59653714D01*
X128391557Y-59581142D01*
X128391557Y-59290857D01*
X128391557Y-60198000D02*
X128754414Y-60198000D01*
X127992414Y-59944000D02*
X128391557Y-60198000D01*
X127992414Y-60452000D01*
X128355271Y-61540571D02*
X128391557Y-61649428D01*
X128427842Y-61685714D01*
X128500414Y-61722000D01*
X128609271Y-61722000D01*
X128681842Y-61685714D01*
X128718128Y-61649428D01*
X128754414Y-61576857D01*
X128754414Y-61286571D01*
X127992414Y-61286571D01*
X127992414Y-61540571D01*
X128028700Y-61613142D01*
X128064985Y-61649428D01*
X128137557Y-61685714D01*
X128210128Y-61685714D01*
X128282700Y-61649428D01*
X128318985Y-61613142D01*
X128355271Y-61540571D01*
X128355271Y-61286571D01*
X127992414Y-62193714D02*
X127992414Y-62338857D01*
X128028700Y-62411428D01*
X128101271Y-62484000D01*
X128246414Y-62520285D01*
X128500414Y-62520285D01*
X128645557Y-62484000D01*
X128718128Y-62411428D01*
X128754414Y-62338857D01*
X128754414Y-62193714D01*
X128718128Y-62121142D01*
X128645557Y-62048571D01*
X128500414Y-62012285D01*
X128246414Y-62012285D01*
X128101271Y-62048571D01*
X128028700Y-62121142D01*
X127992414Y-62193714D01*
X128536700Y-62810571D02*
X128536700Y-63173428D01*
X128754414Y-62738000D02*
X127992414Y-62992000D01*
X128754414Y-63246000D01*
X128754414Y-63935428D02*
X128391557Y-63681428D01*
X128754414Y-63500000D02*
X127992414Y-63500000D01*
X127992414Y-63790285D01*
X128028700Y-63862857D01*
X128064985Y-63899142D01*
X128137557Y-63935428D01*
X128246414Y-63935428D01*
X128318985Y-63899142D01*
X128355271Y-63862857D01*
X128391557Y-63790285D01*
X128391557Y-63500000D01*
X128754414Y-64262000D02*
X127992414Y-64262000D01*
X127992414Y-64443428D01*
X128028700Y-64552285D01*
X128101271Y-64624857D01*
X128173842Y-64661142D01*
X128318985Y-64697428D01*
X128427842Y-64697428D01*
X128572985Y-64661142D01*
X128645557Y-64624857D01*
X128718128Y-64552285D01*
X128754414Y-64443428D01*
X128754414Y-64262000D01*
X128536700Y-65568285D02*
X128536700Y-65931142D01*
X128754414Y-65495714D02*
X127992414Y-65749714D01*
X128754414Y-66003714D01*
X128754414Y-66656857D02*
X128754414Y-66221428D01*
X128754414Y-66439142D02*
X127992414Y-66439142D01*
X128101271Y-66366571D01*
X128173842Y-66294000D01*
X128210128Y-66221428D01*
X129999014Y-55444571D02*
X129237014Y-55444571D01*
X129962728Y-55771142D02*
X129999014Y-55880000D01*
X129999014Y-56061428D01*
X129962728Y-56134000D01*
X129926442Y-56170285D01*
X129853871Y-56206571D01*
X129781300Y-56206571D01*
X129708728Y-56170285D01*
X129672442Y-56134000D01*
X129636157Y-56061428D01*
X129599871Y-55916285D01*
X129563585Y-55843714D01*
X129527300Y-55807428D01*
X129454728Y-55771142D01*
X129382157Y-55771142D01*
X129309585Y-55807428D01*
X129273300Y-55843714D01*
X129237014Y-55916285D01*
X129237014Y-56097714D01*
X129273300Y-56206571D01*
X129999014Y-57113714D02*
X129237014Y-57113714D01*
X129999014Y-57476571D02*
X129237014Y-57476571D01*
X129999014Y-57912000D01*
X129237014Y-57912000D01*
X129999014Y-58274857D02*
X129237014Y-58274857D01*
X129237014Y-58456285D01*
X129273300Y-58565142D01*
X129345871Y-58637714D01*
X129418442Y-58674000D01*
X129563585Y-58710285D01*
X129672442Y-58710285D01*
X129817585Y-58674000D01*
X129890157Y-58637714D01*
X129962728Y-58565142D01*
X129999014Y-58456285D01*
X129999014Y-58274857D01*
X129599871Y-59036857D02*
X129599871Y-59290857D01*
X129999014Y-59399714D02*
X129999014Y-59036857D01*
X129237014Y-59036857D01*
X129237014Y-59399714D01*
X129999014Y-59726285D02*
X129237014Y-59726285D01*
X129237014Y-60016571D01*
X129273300Y-60089142D01*
X129309585Y-60125428D01*
X129382157Y-60161714D01*
X129491014Y-60161714D01*
X129563585Y-60125428D01*
X129599871Y-60089142D01*
X129636157Y-60016571D01*
X129636157Y-59726285D01*
X129599871Y-60488285D02*
X129599871Y-60742285D01*
X129999014Y-60851142D02*
X129999014Y-60488285D01*
X129237014Y-60488285D01*
X129237014Y-60851142D01*
X129999014Y-61177714D02*
X129237014Y-61177714D01*
X129999014Y-61613142D01*
X129237014Y-61613142D01*
X129999014Y-61976000D02*
X129237014Y-61976000D01*
X129237014Y-62157428D01*
X129273300Y-62266285D01*
X129345871Y-62338857D01*
X129418442Y-62375142D01*
X129563585Y-62411428D01*
X129672442Y-62411428D01*
X129817585Y-62375142D01*
X129890157Y-62338857D01*
X129962728Y-62266285D01*
X129999014Y-62157428D01*
X129999014Y-61976000D01*
X129599871Y-62738000D02*
X129599871Y-62992000D01*
X129999014Y-63100857D02*
X129999014Y-62738000D01*
X129237014Y-62738000D01*
X129237014Y-63100857D01*
X129999014Y-63427428D02*
X129237014Y-63427428D01*
X129999014Y-63862857D01*
X129237014Y-63862857D01*
X129237014Y-64116857D02*
X129237014Y-64552285D01*
X129999014Y-64334571D02*
X129237014Y-64334571D01*
X129999014Y-65169142D02*
X129999014Y-64806285D01*
X129237014Y-64806285D01*
X129636157Y-65568285D02*
X129999014Y-65568285D01*
X129237014Y-65314285D02*
X129636157Y-65568285D01*
X129237014Y-65822285D01*
X131243614Y-58093428D02*
X130481614Y-58093428D01*
X130481614Y-58383714D01*
X130517900Y-58456285D01*
X130554185Y-58492571D01*
X130626757Y-58528857D01*
X130735614Y-58528857D01*
X130808185Y-58492571D01*
X130844471Y-58456285D01*
X130880757Y-58383714D01*
X130880757Y-58093428D01*
X130481614Y-59000571D02*
X130481614Y-59145714D01*
X130517900Y-59218285D01*
X130590471Y-59290857D01*
X130735614Y-59327142D01*
X130989614Y-59327142D01*
X131134757Y-59290857D01*
X131207328Y-59218285D01*
X131243614Y-59145714D01*
X131243614Y-59000571D01*
X131207328Y-58928000D01*
X131134757Y-58855428D01*
X130989614Y-58819142D01*
X130735614Y-58819142D01*
X130590471Y-58855428D01*
X130517900Y-58928000D01*
X130481614Y-59000571D01*
X130481614Y-59581142D02*
X131243614Y-59762571D01*
X130699328Y-59907714D01*
X131243614Y-60052857D01*
X130481614Y-60234285D01*
X130844471Y-60524571D02*
X130844471Y-60778571D01*
X131243614Y-60887428D02*
X131243614Y-60524571D01*
X130481614Y-60524571D01*
X130481614Y-60887428D01*
X131243614Y-61649428D02*
X130880757Y-61395428D01*
X131243614Y-61214000D02*
X130481614Y-61214000D01*
X130481614Y-61504285D01*
X130517900Y-61576857D01*
X130554185Y-61613142D01*
X130626757Y-61649428D01*
X130735614Y-61649428D01*
X130808185Y-61613142D01*
X130844471Y-61576857D01*
X130880757Y-61504285D01*
X130880757Y-61214000D01*
X130844471Y-61976000D02*
X130844471Y-62230000D01*
X131243614Y-62338857D02*
X131243614Y-61976000D01*
X130481614Y-61976000D01*
X130481614Y-62338857D01*
X131243614Y-62665428D02*
X130481614Y-62665428D01*
X130481614Y-62846857D01*
X130517900Y-62955714D01*
X130590471Y-63028285D01*
X130663042Y-63064571D01*
X130808185Y-63100857D01*
X130917042Y-63100857D01*
X131062185Y-63064571D01*
X131134757Y-63028285D01*
X131207328Y-62955714D01*
X131243614Y-62846857D01*
X131243614Y-62665428D01*
X220854814Y-124532571D02*
X220491957Y-124278571D01*
X220854814Y-124097142D02*
X220092814Y-124097142D01*
X220092814Y-124387428D01*
X220129100Y-124460000D01*
X220165385Y-124496285D01*
X220237957Y-124532571D01*
X220346814Y-124532571D01*
X220419385Y-124496285D01*
X220455671Y-124460000D01*
X220491957Y-124387428D01*
X220491957Y-124097142D01*
X220092814Y-125222000D02*
X220092814Y-124859142D01*
X220455671Y-124822857D01*
X220419385Y-124859142D01*
X220383100Y-124931714D01*
X220383100Y-125113142D01*
X220419385Y-125185714D01*
X220455671Y-125222000D01*
X220528242Y-125258285D01*
X220709671Y-125258285D01*
X220782242Y-125222000D01*
X220818528Y-125185714D01*
X220854814Y-125113142D01*
X220854814Y-124931714D01*
X220818528Y-124859142D01*
X220782242Y-124822857D01*
X220092814Y-125911428D02*
X220092814Y-125766285D01*
X220129100Y-125693714D01*
X220165385Y-125657428D01*
X220274242Y-125584857D01*
X220419385Y-125548571D01*
X220709671Y-125548571D01*
X220782242Y-125584857D01*
X220818528Y-125621142D01*
X220854814Y-125693714D01*
X220854814Y-125838857D01*
X220818528Y-125911428D01*
X220782242Y-125947714D01*
X220709671Y-125984000D01*
X220528242Y-125984000D01*
X220455671Y-125947714D01*
X220419385Y-125911428D01*
X220383100Y-125838857D01*
X220383100Y-125693714D01*
X220419385Y-125621142D01*
X220455671Y-125584857D01*
X220528242Y-125548571D01*
X220782242Y-127326571D02*
X220818528Y-127290285D01*
X220854814Y-127181428D01*
X220854814Y-127108857D01*
X220818528Y-127000000D01*
X220745957Y-126927428D01*
X220673385Y-126891142D01*
X220528242Y-126854857D01*
X220419385Y-126854857D01*
X220274242Y-126891142D01*
X220201671Y-126927428D01*
X220129100Y-127000000D01*
X220092814Y-127108857D01*
X220092814Y-127181428D01*
X220129100Y-127290285D01*
X220165385Y-127326571D01*
X220092814Y-127798285D02*
X220092814Y-127943428D01*
X220129100Y-128016000D01*
X220201671Y-128088571D01*
X220346814Y-128124857D01*
X220600814Y-128124857D01*
X220745957Y-128088571D01*
X220818528Y-128016000D01*
X220854814Y-127943428D01*
X220854814Y-127798285D01*
X220818528Y-127725714D01*
X220745957Y-127653142D01*
X220600814Y-127616857D01*
X220346814Y-127616857D01*
X220201671Y-127653142D01*
X220129100Y-127725714D01*
X220092814Y-127798285D01*
X220854814Y-128451428D02*
X220092814Y-128451428D01*
X220854814Y-128886857D01*
X220092814Y-128886857D01*
X220854814Y-129249714D02*
X220092814Y-129249714D01*
X220854814Y-129685142D01*
X220092814Y-129685142D01*
X220455671Y-130048000D02*
X220455671Y-130302000D01*
X220854814Y-130410857D02*
X220854814Y-130048000D01*
X220092814Y-130048000D01*
X220092814Y-130410857D01*
X220782242Y-131172857D02*
X220818528Y-131136571D01*
X220854814Y-131027714D01*
X220854814Y-130955142D01*
X220818528Y-130846285D01*
X220745957Y-130773714D01*
X220673385Y-130737428D01*
X220528242Y-130701142D01*
X220419385Y-130701142D01*
X220274242Y-130737428D01*
X220201671Y-130773714D01*
X220129100Y-130846285D01*
X220092814Y-130955142D01*
X220092814Y-131027714D01*
X220129100Y-131136571D01*
X220165385Y-131172857D01*
X220092814Y-131390571D02*
X220092814Y-131826000D01*
X220854814Y-131608285D02*
X220092814Y-131608285D01*
X220818528Y-132043714D02*
X220854814Y-132152571D01*
X220854814Y-132334000D01*
X220818528Y-132406571D01*
X220782242Y-132442857D01*
X220709671Y-132479142D01*
X220637100Y-132479142D01*
X220564528Y-132442857D01*
X220528242Y-132406571D01*
X220491957Y-132334000D01*
X220455671Y-132188857D01*
X220419385Y-132116285D01*
X220383100Y-132080000D01*
X220310528Y-132043714D01*
X220237957Y-132043714D01*
X220165385Y-132080000D01*
X220129100Y-132116285D01*
X220092814Y-132188857D01*
X220092814Y-132370285D01*
X220129100Y-132479142D01*
X221337414Y-124460000D02*
X222099414Y-124714000D01*
X221337414Y-124968000D01*
X222063128Y-125185714D02*
X222099414Y-125294571D01*
X222099414Y-125476000D01*
X222063128Y-125548571D01*
X222026842Y-125584857D01*
X221954271Y-125621142D01*
X221881700Y-125621142D01*
X221809128Y-125584857D01*
X221772842Y-125548571D01*
X221736557Y-125476000D01*
X221700271Y-125330857D01*
X221663985Y-125258285D01*
X221627700Y-125222000D01*
X221555128Y-125185714D01*
X221482557Y-125185714D01*
X221409985Y-125222000D01*
X221373700Y-125258285D01*
X221337414Y-125330857D01*
X221337414Y-125512285D01*
X221373700Y-125621142D01*
X221337414Y-125947714D02*
X221954271Y-125947714D01*
X222026842Y-125984000D01*
X222063128Y-126020285D01*
X222099414Y-126092857D01*
X222099414Y-126238000D01*
X222063128Y-126310571D01*
X222026842Y-126346857D01*
X221954271Y-126383142D01*
X221337414Y-126383142D01*
X222099414Y-126746000D02*
X221337414Y-126746000D01*
X221337414Y-127036285D01*
X221373700Y-127108857D01*
X221409985Y-127145142D01*
X221482557Y-127181428D01*
X221591414Y-127181428D01*
X221663985Y-127145142D01*
X221700271Y-127108857D01*
X221736557Y-127036285D01*
X221736557Y-126746000D01*
X222099414Y-127508000D02*
X221337414Y-127508000D01*
X221337414Y-127798285D01*
X221373700Y-127870857D01*
X221409985Y-127907142D01*
X221482557Y-127943428D01*
X221591414Y-127943428D01*
X221663985Y-127907142D01*
X221700271Y-127870857D01*
X221736557Y-127798285D01*
X221736557Y-127508000D01*
X222099414Y-128632857D02*
X222099414Y-128270000D01*
X221337414Y-128270000D01*
X221736557Y-129032000D02*
X222099414Y-129032000D01*
X221337414Y-128778000D02*
X221736557Y-129032000D01*
X221337414Y-129286000D01*
X221881700Y-130084285D02*
X221881700Y-130447142D01*
X222099414Y-130011714D02*
X221337414Y-130265714D01*
X222099414Y-130519714D01*
X222099414Y-130773714D02*
X221337414Y-130773714D01*
X222099414Y-131209142D01*
X221337414Y-131209142D01*
X222099414Y-131572000D02*
X221337414Y-131572000D01*
X221337414Y-131753428D01*
X221373700Y-131862285D01*
X221446271Y-131934857D01*
X221518842Y-131971142D01*
X221663985Y-132007428D01*
X221772842Y-132007428D01*
X221917985Y-131971142D01*
X221990557Y-131934857D01*
X222063128Y-131862285D01*
X222099414Y-131753428D01*
X222099414Y-131572000D01*
X222618300Y-124387428D02*
X222582014Y-124314857D01*
X222582014Y-124206000D01*
X222618300Y-124097142D01*
X222690871Y-124024571D01*
X222763442Y-123988285D01*
X222908585Y-123952000D01*
X223017442Y-123952000D01*
X223162585Y-123988285D01*
X223235157Y-124024571D01*
X223307728Y-124097142D01*
X223344014Y-124206000D01*
X223344014Y-124278571D01*
X223307728Y-124387428D01*
X223271442Y-124423714D01*
X223017442Y-124423714D01*
X223017442Y-124278571D01*
X223344014Y-124750285D02*
X222582014Y-124750285D01*
X223344014Y-125185714D01*
X222582014Y-125185714D01*
X223344014Y-125548571D02*
X222582014Y-125548571D01*
X222582014Y-125730000D01*
X222618300Y-125838857D01*
X222690871Y-125911428D01*
X222763442Y-125947714D01*
X222908585Y-125984000D01*
X223017442Y-125984000D01*
X223162585Y-125947714D01*
X223235157Y-125911428D01*
X223307728Y-125838857D01*
X223344014Y-125730000D01*
X223344014Y-125548571D01*
X222582014Y-126818571D02*
X223344014Y-127000000D01*
X222799728Y-127145142D01*
X223344014Y-127290285D01*
X222582014Y-127471714D01*
X223344014Y-127762000D02*
X222582014Y-127762000D01*
X222944871Y-127762000D02*
X222944871Y-128197428D01*
X223344014Y-128197428D02*
X222582014Y-128197428D01*
X222944871Y-128560285D02*
X222944871Y-128814285D01*
X223344014Y-128923142D02*
X223344014Y-128560285D01*
X222582014Y-128560285D01*
X222582014Y-128923142D01*
X223344014Y-129249714D02*
X222582014Y-129249714D01*
X223344014Y-129685142D01*
X222582014Y-129685142D01*
X223271442Y-131064000D02*
X223307728Y-131027714D01*
X223344014Y-130918857D01*
X223344014Y-130846285D01*
X223307728Y-130737428D01*
X223235157Y-130664857D01*
X223162585Y-130628571D01*
X223017442Y-130592285D01*
X222908585Y-130592285D01*
X222763442Y-130628571D01*
X222690871Y-130664857D01*
X222618300Y-130737428D01*
X222582014Y-130846285D01*
X222582014Y-130918857D01*
X222618300Y-131027714D01*
X222654585Y-131064000D01*
X223344014Y-131390571D02*
X222582014Y-131390571D01*
X223344014Y-131826000D01*
X222582014Y-131826000D01*
X223344014Y-132588000D02*
X223344014Y-132152571D01*
X223344014Y-132370285D02*
X222582014Y-132370285D01*
X222690871Y-132297714D01*
X222763442Y-132225142D01*
X222799728Y-132152571D01*
X223826614Y-125076857D02*
X224443471Y-125076857D01*
X224516042Y-125113142D01*
X224552328Y-125149428D01*
X224588614Y-125222000D01*
X224588614Y-125367142D01*
X224552328Y-125439714D01*
X224516042Y-125476000D01*
X224443471Y-125512285D01*
X223826614Y-125512285D01*
X224588614Y-125875142D02*
X223826614Y-125875142D01*
X224588614Y-126310571D01*
X223826614Y-126310571D01*
X224588614Y-126673428D02*
X223826614Y-126673428D01*
X223826614Y-126963714D01*
X223862900Y-127036285D01*
X223899185Y-127072571D01*
X223971757Y-127108857D01*
X224080614Y-127108857D01*
X224153185Y-127072571D01*
X224189471Y-127036285D01*
X224225757Y-126963714D01*
X224225757Y-126673428D01*
X224588614Y-127798285D02*
X224588614Y-127435428D01*
X223826614Y-127435428D01*
X223826614Y-128052285D02*
X224443471Y-128052285D01*
X224516042Y-128088571D01*
X224552328Y-128124857D01*
X224588614Y-128197428D01*
X224588614Y-128342571D01*
X224552328Y-128415142D01*
X224516042Y-128451428D01*
X224443471Y-128487714D01*
X223826614Y-128487714D01*
X223862900Y-129249714D02*
X223826614Y-129177142D01*
X223826614Y-129068285D01*
X223862900Y-128959428D01*
X223935471Y-128886857D01*
X224008042Y-128850571D01*
X224153185Y-128814285D01*
X224262042Y-128814285D01*
X224407185Y-128850571D01*
X224479757Y-128886857D01*
X224552328Y-128959428D01*
X224588614Y-129068285D01*
X224588614Y-129140857D01*
X224552328Y-129249714D01*
X224516042Y-129286000D01*
X224262042Y-129286000D01*
X224262042Y-129140857D01*
X223862900Y-130011714D02*
X223826614Y-129939142D01*
X223826614Y-129830285D01*
X223862900Y-129721428D01*
X223935471Y-129648857D01*
X224008042Y-129612571D01*
X224153185Y-129576285D01*
X224262042Y-129576285D01*
X224407185Y-129612571D01*
X224479757Y-129648857D01*
X224552328Y-129721428D01*
X224588614Y-129830285D01*
X224588614Y-129902857D01*
X224552328Y-130011714D01*
X224516042Y-130048000D01*
X224262042Y-130048000D01*
X224262042Y-129902857D01*
X224189471Y-130374571D02*
X224189471Y-130628571D01*
X224588614Y-130737428D02*
X224588614Y-130374571D01*
X223826614Y-130374571D01*
X223826614Y-130737428D01*
X224588614Y-131064000D02*
X223826614Y-131064000D01*
X223826614Y-131245428D01*
X223862900Y-131354285D01*
X223935471Y-131426857D01*
X224008042Y-131463142D01*
X224153185Y-131499428D01*
X224262042Y-131499428D01*
X224407185Y-131463142D01*
X224479757Y-131426857D01*
X224552328Y-131354285D01*
X224588614Y-131245428D01*
X224588614Y-131064000D01*
D11*
G04 #@! TO.C,R56*
X217134221Y-134114000D02*
X217459779Y-134114000D01*
X217134221Y-133094000D02*
X217459779Y-133094000D01*
G04 #@! TO.C,C3*
X158150779Y-110238000D02*
X157825221Y-110238000D01*
X158150779Y-109218000D02*
X157825221Y-109218000D01*
G04 #@! TO.C,JP6*
X165592000Y-60898000D02*
X165592000Y-59498000D01*
X164892000Y-58798000D02*
X164292000Y-58798000D01*
X163592000Y-59498000D02*
X163592000Y-60898000D01*
X164292000Y-61598000D02*
X164892000Y-61598000D01*
X164892000Y-61598000D02*
G75*
G03X165592000Y-60898000I0J700000D01*
G01*
X163592000Y-60898000D02*
G75*
G03X164292000Y-61598000I700000J0D01*
G01*
X164292000Y-58798000D02*
G75*
G03X163592000Y-59498000I0J-700000D01*
G01*
X165592000Y-59498000D02*
G75*
G03X164892000Y-58798000I-700000J0D01*
G01*
G04 #@! TO.C,JP1*
X123128000Y-59960000D02*
X121728000Y-59960000D01*
X121028000Y-60660000D02*
X121028000Y-61260000D01*
X121728000Y-61960000D02*
X123128000Y-61960000D01*
X123828000Y-61260000D02*
X123828000Y-60660000D01*
X123828000Y-60660000D02*
G75*
G03X123128000Y-59960000I-700000J0D01*
G01*
X123128000Y-61960000D02*
G75*
G03X123828000Y-61260000I0J700000D01*
G01*
X121028000Y-61260000D02*
G75*
G03X121728000Y-61960000I700000J0D01*
G01*
X121728000Y-59960000D02*
G75*
G03X121028000Y-60660000I0J-700000D01*
G01*
G04 #@! TO.C,R10*
X158150779Y-117858000D02*
X157825221Y-117858000D01*
X158150779Y-116838000D02*
X157825221Y-116838000D01*
G04 #@! TO.C,R12*
X158150779Y-115318000D02*
X157825221Y-115318000D01*
X158150779Y-114298000D02*
X157825221Y-114298000D01*
G04 #@! TO.C,D3*
X174556000Y-143268000D02*
X174556000Y-144468000D01*
X175456000Y-143268000D02*
X175456000Y-144468000D01*
X174556000Y-143268000D02*
X175456000Y-143268000D01*
G04 #@! TO.C,JP7*
X164530000Y-141240000D02*
X163130000Y-141240000D01*
X162430000Y-141940000D02*
X162430000Y-142540000D01*
X163130000Y-143240000D02*
X164530000Y-143240000D01*
X165230000Y-142540000D02*
X165230000Y-141940000D01*
X165230000Y-141940000D02*
G75*
G03X164530000Y-141240000I-700000J0D01*
G01*
X164530000Y-143240000D02*
G75*
G03X165230000Y-142540000I0J700000D01*
G01*
X162430000Y-142540000D02*
G75*
G03X163130000Y-143240000I700000J0D01*
G01*
X163130000Y-141240000D02*
G75*
G03X162430000Y-141940000I0J-700000D01*
G01*
G04 #@! TO.C,C2*
X137418578Y-137870000D02*
X136901422Y-137870000D01*
X137418578Y-136450000D02*
X136901422Y-136450000D01*
G04 #@! TO.C,JP5*
X173212000Y-143702000D02*
X173212000Y-142302000D01*
X172512000Y-141602000D02*
X171912000Y-141602000D01*
X171212000Y-142302000D02*
X171212000Y-143702000D01*
X171912000Y-144402000D02*
X172512000Y-144402000D01*
X172512000Y-144402000D02*
G75*
G03X173212000Y-143702000I0J700000D01*
G01*
X171212000Y-143702000D02*
G75*
G03X171912000Y-144402000I700000J0D01*
G01*
X171912000Y-141602000D02*
G75*
G03X171212000Y-142302000I0J-700000D01*
G01*
X173212000Y-142302000D02*
G75*
G03X172512000Y-141602000I-700000J0D01*
G01*
G04 #@! TO.C,R56*
D12*
X215717380Y-132961142D02*
X215241190Y-132627809D01*
X215717380Y-132389714D02*
X214717380Y-132389714D01*
X214717380Y-132770666D01*
X214765000Y-132865904D01*
X214812619Y-132913523D01*
X214907857Y-132961142D01*
X215050714Y-132961142D01*
X215145952Y-132913523D01*
X215193571Y-132865904D01*
X215241190Y-132770666D01*
X215241190Y-132389714D01*
X214717380Y-133865904D02*
X214717380Y-133389714D01*
X215193571Y-133342095D01*
X215145952Y-133389714D01*
X215098333Y-133484952D01*
X215098333Y-133723047D01*
X215145952Y-133818285D01*
X215193571Y-133865904D01*
X215288809Y-133913523D01*
X215526904Y-133913523D01*
X215622142Y-133865904D01*
X215669761Y-133818285D01*
X215717380Y-133723047D01*
X215717380Y-133484952D01*
X215669761Y-133389714D01*
X215622142Y-133342095D01*
X214717380Y-134770666D02*
X214717380Y-134580190D01*
X214765000Y-134484952D01*
X214812619Y-134437333D01*
X214955476Y-134342095D01*
X215145952Y-134294476D01*
X215526904Y-134294476D01*
X215622142Y-134342095D01*
X215669761Y-134389714D01*
X215717380Y-134484952D01*
X215717380Y-134675428D01*
X215669761Y-134770666D01*
X215622142Y-134818285D01*
X215526904Y-134865904D01*
X215288809Y-134865904D01*
X215193571Y-134818285D01*
X215145952Y-134770666D01*
X215098333Y-134675428D01*
X215098333Y-134484952D01*
X215145952Y-134389714D01*
X215193571Y-134342095D01*
X215288809Y-134294476D01*
G04 #@! TO.C,C3*
X156186142Y-109561333D02*
X156233761Y-109513714D01*
X156281380Y-109370857D01*
X156281380Y-109275619D01*
X156233761Y-109132761D01*
X156138523Y-109037523D01*
X156043285Y-108989904D01*
X155852809Y-108942285D01*
X155709952Y-108942285D01*
X155519476Y-108989904D01*
X155424238Y-109037523D01*
X155329000Y-109132761D01*
X155281380Y-109275619D01*
X155281380Y-109370857D01*
X155329000Y-109513714D01*
X155376619Y-109561333D01*
X155281380Y-109894666D02*
X155281380Y-110513714D01*
X155662333Y-110180380D01*
X155662333Y-110323238D01*
X155709952Y-110418476D01*
X155757571Y-110466095D01*
X155852809Y-110513714D01*
X156090904Y-110513714D01*
X156186142Y-110466095D01*
X156233761Y-110418476D01*
X156281380Y-110323238D01*
X156281380Y-110037523D01*
X156233761Y-109942285D01*
X156186142Y-109894666D01*
G04 #@! TO.C,JP6*
X165844380Y-59364666D02*
X166558666Y-59364666D01*
X166701523Y-59317047D01*
X166796761Y-59221809D01*
X166844380Y-59078952D01*
X166844380Y-58983714D01*
X166844380Y-59840857D02*
X165844380Y-59840857D01*
X165844380Y-60221809D01*
X165892000Y-60317047D01*
X165939619Y-60364666D01*
X166034857Y-60412285D01*
X166177714Y-60412285D01*
X166272952Y-60364666D01*
X166320571Y-60317047D01*
X166368190Y-60221809D01*
X166368190Y-59840857D01*
X165844380Y-61269428D02*
X165844380Y-61078952D01*
X165892000Y-60983714D01*
X165939619Y-60936095D01*
X166082476Y-60840857D01*
X166272952Y-60793238D01*
X166653904Y-60793238D01*
X166749142Y-60840857D01*
X166796761Y-60888476D01*
X166844380Y-60983714D01*
X166844380Y-61174190D01*
X166796761Y-61269428D01*
X166749142Y-61317047D01*
X166653904Y-61364666D01*
X166415809Y-61364666D01*
X166320571Y-61317047D01*
X166272952Y-61269428D01*
X166225333Y-61174190D01*
X166225333Y-60983714D01*
X166272952Y-60888476D01*
X166320571Y-60840857D01*
X166415809Y-60793238D01*
G04 #@! TO.C,JP1*
X124293380Y-60126666D02*
X125007666Y-60126666D01*
X125150523Y-60079047D01*
X125245761Y-59983809D01*
X125293380Y-59840952D01*
X125293380Y-59745714D01*
X125293380Y-60602857D02*
X124293380Y-60602857D01*
X124293380Y-60983809D01*
X124341000Y-61079047D01*
X124388619Y-61126666D01*
X124483857Y-61174285D01*
X124626714Y-61174285D01*
X124721952Y-61126666D01*
X124769571Y-61079047D01*
X124817190Y-60983809D01*
X124817190Y-60602857D01*
X125293380Y-62126666D02*
X125293380Y-61555238D01*
X125293380Y-61840952D02*
X124293380Y-61840952D01*
X124436238Y-61745714D01*
X124531476Y-61650476D01*
X124579095Y-61555238D01*
G04 #@! TO.C,R10*
X160726380Y-116705142D02*
X160250190Y-116371809D01*
X160726380Y-116133714D02*
X159726380Y-116133714D01*
X159726380Y-116514666D01*
X159774000Y-116609904D01*
X159821619Y-116657523D01*
X159916857Y-116705142D01*
X160059714Y-116705142D01*
X160154952Y-116657523D01*
X160202571Y-116609904D01*
X160250190Y-116514666D01*
X160250190Y-116133714D01*
X160726380Y-117657523D02*
X160726380Y-117086095D01*
X160726380Y-117371809D02*
X159726380Y-117371809D01*
X159869238Y-117276571D01*
X159964476Y-117181333D01*
X160012095Y-117086095D01*
X159726380Y-118276571D02*
X159726380Y-118371809D01*
X159774000Y-118467047D01*
X159821619Y-118514666D01*
X159916857Y-118562285D01*
X160107333Y-118609904D01*
X160345428Y-118609904D01*
X160535904Y-118562285D01*
X160631142Y-118514666D01*
X160678761Y-118467047D01*
X160726380Y-118371809D01*
X160726380Y-118276571D01*
X160678761Y-118181333D01*
X160631142Y-118133714D01*
X160535904Y-118086095D01*
X160345428Y-118038476D01*
X160107333Y-118038476D01*
X159916857Y-118086095D01*
X159821619Y-118133714D01*
X159774000Y-118181333D01*
X159726380Y-118276571D01*
G04 #@! TO.C,R12*
X156154380Y-114165142D02*
X155678190Y-113831809D01*
X156154380Y-113593714D02*
X155154380Y-113593714D01*
X155154380Y-113974666D01*
X155202000Y-114069904D01*
X155249619Y-114117523D01*
X155344857Y-114165142D01*
X155487714Y-114165142D01*
X155582952Y-114117523D01*
X155630571Y-114069904D01*
X155678190Y-113974666D01*
X155678190Y-113593714D01*
X156154380Y-115117523D02*
X156154380Y-114546095D01*
X156154380Y-114831809D02*
X155154380Y-114831809D01*
X155297238Y-114736571D01*
X155392476Y-114641333D01*
X155440095Y-114546095D01*
X155249619Y-115498476D02*
X155202000Y-115546095D01*
X155154380Y-115641333D01*
X155154380Y-115879428D01*
X155202000Y-115974666D01*
X155249619Y-116022285D01*
X155344857Y-116069904D01*
X155440095Y-116069904D01*
X155582952Y-116022285D01*
X156154380Y-115450857D01*
X156154380Y-116069904D01*
G04 #@! TO.C,D3*
X176728380Y-143279904D02*
X175728380Y-143279904D01*
X175728380Y-143518000D01*
X175776000Y-143660857D01*
X175871238Y-143756095D01*
X175966476Y-143803714D01*
X176156952Y-143851333D01*
X176299809Y-143851333D01*
X176490285Y-143803714D01*
X176585523Y-143756095D01*
X176680761Y-143660857D01*
X176728380Y-143518000D01*
X176728380Y-143279904D01*
X175728380Y-144184666D02*
X175728380Y-144803714D01*
X176109333Y-144470380D01*
X176109333Y-144613238D01*
X176156952Y-144708476D01*
X176204571Y-144756095D01*
X176299809Y-144803714D01*
X176537904Y-144803714D01*
X176633142Y-144756095D01*
X176680761Y-144708476D01*
X176728380Y-144613238D01*
X176728380Y-144327523D01*
X176680761Y-144232285D01*
X176633142Y-144184666D01*
G04 #@! TO.C,JP7*
X161123380Y-141406666D02*
X161837666Y-141406666D01*
X161980523Y-141359047D01*
X162075761Y-141263809D01*
X162123380Y-141120952D01*
X162123380Y-141025714D01*
X162123380Y-141882857D02*
X161123380Y-141882857D01*
X161123380Y-142263809D01*
X161171000Y-142359047D01*
X161218619Y-142406666D01*
X161313857Y-142454285D01*
X161456714Y-142454285D01*
X161551952Y-142406666D01*
X161599571Y-142359047D01*
X161647190Y-142263809D01*
X161647190Y-141882857D01*
X161123380Y-142787619D02*
X161123380Y-143454285D01*
X162123380Y-143025714D01*
G04 #@! TO.C,C2*
X135104142Y-136866333D02*
X135151761Y-136818714D01*
X135199380Y-136675857D01*
X135199380Y-136580619D01*
X135151761Y-136437761D01*
X135056523Y-136342523D01*
X134961285Y-136294904D01*
X134770809Y-136247285D01*
X134627952Y-136247285D01*
X134437476Y-136294904D01*
X134342238Y-136342523D01*
X134247000Y-136437761D01*
X134199380Y-136580619D01*
X134199380Y-136675857D01*
X134247000Y-136818714D01*
X134294619Y-136866333D01*
X134294619Y-137247285D02*
X134247000Y-137294904D01*
X134199380Y-137390142D01*
X134199380Y-137628238D01*
X134247000Y-137723476D01*
X134294619Y-137771095D01*
X134389857Y-137818714D01*
X134485095Y-137818714D01*
X134627952Y-137771095D01*
X135199380Y-137199666D01*
X135199380Y-137818714D01*
G04 #@! TO.C,JP5*
X169759380Y-142168666D02*
X170473666Y-142168666D01*
X170616523Y-142121047D01*
X170711761Y-142025809D01*
X170759380Y-141882952D01*
X170759380Y-141787714D01*
X170759380Y-142644857D02*
X169759380Y-142644857D01*
X169759380Y-143025809D01*
X169807000Y-143121047D01*
X169854619Y-143168666D01*
X169949857Y-143216285D01*
X170092714Y-143216285D01*
X170187952Y-143168666D01*
X170235571Y-143121047D01*
X170283190Y-143025809D01*
X170283190Y-142644857D01*
X169759380Y-144121047D02*
X169759380Y-143644857D01*
X170235571Y-143597238D01*
X170187952Y-143644857D01*
X170140333Y-143740095D01*
X170140333Y-143978190D01*
X170187952Y-144073428D01*
X170235571Y-144121047D01*
X170330809Y-144168666D01*
X170568904Y-144168666D01*
X170664142Y-144121047D01*
X170711761Y-144073428D01*
X170759380Y-143978190D01*
X170759380Y-143740095D01*
X170711761Y-143644857D01*
X170664142Y-143597238D01*
G04 #@! TD*
M02*
