M48
;DRILL file {KiCad 5.0.2-bee76a0~70~ubuntu18.04.1} date Wed 19 Jun 2019 11:06:26 PM PDT
;FORMAT={-:-/ absolute / inch / decimal}
FMAT,2
INCH,TZ
T1C0.0118
T2C0.0160
T3C0.0236
T4C0.0299
T5C0.0300
T6C0.0315
T7C0.0394
T8C0.0433
T9C0.0591
T10C0.0701
T11C0.1693
%
G90
G05
T1
X2.535Y-3.55
X2.545Y-4.4
X2.549Y-2.6999
X2.575Y-3.55
X2.595Y-2.7
X2.595Y-4.4
X2.62Y-3.55
X2.64Y-4.4
X2.645Y-2.7
X3.155Y-2.61
X3.155Y-3.455
X3.16Y-4.3
X3.18Y-2.68
X3.185Y-3.55
X3.19Y-4.375
X3.215Y-2.66
X3.215Y-4.345
X3.215Y-3.515
X3.235Y-2.81
X3.2377Y-4.5073
X3.2402Y-3.6548
X3.26Y-2.625
X3.26Y-3.475
X3.26Y-4.325
X3.37Y-3.79
X3.38Y-2.93
X3.385Y-4.63
X3.795Y-4.17
X3.805Y-2.46
X3.81Y-3.32
X3.865Y-5.195
X3.885Y-5.22
X3.905Y-5.245
X3.925Y-5.27
X3.945Y-5.295
X3.99Y-5.295
X4.035Y-5.295
X4.075Y-5.295
X4.205Y-4.855
X4.225Y-4.88
X4.245Y-4.905
X4.265Y-4.93
X4.285Y-4.955
X4.3048Y-4.9796
X4.325Y-5.005
X4.3436Y-5.028
X5.38Y-5.47
X5.975Y-4.21
X5.995Y-4.235
X6.1161Y-4.1611
X6.1372Y-4.185
X6.1991Y-3.4298
X6.235Y-3.465
X6.265Y-3.4
X6.41Y-4.62
X6.55Y-5.39
X6.81Y-4.78
X6.855Y-4.81
X6.975Y-5.455
X7.62Y-5.435
X7.62Y-5.465
X7.62Y-5.495
X7.675Y-5.535
X7.675Y-5.565
X7.71Y-5.535
X7.71Y-5.565
X7.7368Y-3.1926
X7.745Y-5.535
X7.745Y-5.565
X7.76Y-4.615
X7.7968Y-3.1478
X7.805Y-4.19
X7.825Y-2.79
X7.86Y-4.595
X7.87Y-3.99
X7.88Y-2.595
X7.925Y-5.48
X7.925Y-5.51
X7.925Y-5.54
X7.935Y-2.65
X7.935Y-3.04
X7.935Y-4.055
X7.935Y-4.435
X7.935Y-4.55
X7.94Y-2.825
X7.94Y-3.145
X7.94Y-4.225
X7.99Y-3.06
X7.99Y-4.46
X7.995Y-2.7
X8.0108Y-4.5178
X8.024Y-3.0995
X8.035Y-4.085
X8.14Y-2.65
X8.14Y-2.55
X8.14Y-4.05
X8.14Y-4.65
X8.145Y-3.25
X8.145Y-3.35
X8.145Y-3.95
X8.145Y-4.75
X8.27Y-3.245
X8.27Y-3.95
X8.27Y-4.65
X8.285Y-2.55
T2
X2.95Y-5.43
X3.15Y-5.43
X3.3Y-2.925
X3.3Y-2.475
X3.3Y-3.325
X3.3Y-3.775
X3.3Y-4.175
X3.3Y-4.625
X3.31Y-2.7
X3.31Y-3.55
X3.31Y-4.4
X3.35Y-5.43
X3.525Y-2.545
X3.525Y-4.25
X3.53Y-3.405
X3.55Y-5.43
X3.675Y-2.845
X3.675Y-4.55
X3.68Y-3.695
X3.725Y-2.545
X3.725Y-4.25
X3.73Y-3.405
X3.75Y-5.43
X3.84Y-2.96
X3.84Y-4.665
X3.845Y-3.815
X3.95Y-5.43
X4.02Y-2.59
X4.02Y-2.63
X4.02Y-2.875
X4.02Y-3.495
X4.02Y-3.655
X4.045Y-2.84
X4.045Y-3.45
X4.055Y-3.615
X4.095Y-4.48
X4.095Y-4.438
X4.11Y-4.21
X4.11Y-4.16
X4.32Y-3.175
X4.35Y-3.145
X4.375Y-4.105
X4.3915Y-3.75
X4.405Y-4.135
X4.425Y-2.96
X4.425Y-3.8
X4.425Y-3.9
X4.425Y-3.95
X4.438Y-4.1689
X4.47Y-2.95
X4.475Y-3.25
X4.48Y-3.85
X5.0135Y-4.2693
X5.04Y-4.15
X5.285Y-3.95
X5.29Y-3.85
X5.295Y-4.05
X5.33Y-5.4
X5.365Y-4.865
X5.365Y-4.92
X5.3849Y-5.4044
X5.4Y-5.1
X5.41Y-4.78
X5.42Y-4.865
X5.47Y-5.475
X5.48Y-5.36
X5.49Y-4.89
X5.5Y-5.1
X5.51Y-4.81
X5.54Y-5.475
X5.6Y-5.1
X5.7Y-5.1
X6.165Y-4.22
X6.2406Y-5.25
X6.2673Y-4.22
X6.27Y-4.195
X6.27Y-4.245
X6.4Y-5.25
X6.455Y-3.93
X6.57Y-5.14
X6.61Y-5.14
X6.84Y-3.082
X6.88Y-3.095
X6.9154Y-3.0819
X6.9625Y-3.1175
X7.025Y-4.205
X7.045Y-3.935
X7.045Y-4.565
X7.045Y-4.62
X7.0825Y-2.9925
X7.125Y-2.9925
X7.125Y-2.9275
X7.1675Y-2.9925
X7.185Y-4.365
X7.21Y-4.455
X7.325Y-3.05
X7.33Y-4.01
X7.36Y-2.64
X7.375Y-2.75
X7.375Y-4.23
X7.475Y-3.05
X7.48Y-4.45
X7.525Y-2.75
X7.53Y-4.15
X7.615Y-3.05
X7.6531Y-5.6056
X7.675Y-2.7525
X7.675Y-4.15
X7.677Y-3.05
X7.68Y-4.45
X7.8996Y-4.0752
X7.9Y-2.68
X7.9Y-4.525
X7.9031Y-3.0987
X7.963Y-4.2797
X7.963Y-4.3127
X7.9638Y-2.8833
X7.9638Y-2.9133
T3
X4.173Y-2.4
X4.2102Y-2.3102
X4.2102Y-2.4898
X4.3Y-2.273
X4.3Y-2.527
X4.3898Y-2.3102
X4.3898Y-2.4898
X4.427Y-2.4
X6.873Y-2.4
X6.9102Y-2.3102
X6.9102Y-2.4898
X7.Y-2.273
X7.Y-2.527
X7.0898Y-2.3102
X7.0898Y-2.4898
X7.127Y-2.4
X7.673Y-4.9
X7.7102Y-4.8102
X7.7102Y-4.9898
X7.8Y-4.773
X7.8Y-5.027
X7.8898Y-4.8102
X7.8898Y-4.9898
X7.927Y-4.9
X3.173Y-4.9
X3.2102Y-4.8102
X3.2102Y-4.9898
X3.3Y-4.773
X3.3Y-5.027
X3.3898Y-4.8102
X3.3898Y-4.9898
X3.427Y-4.9
T4
X8.1Y-3.2
X8.1Y-3.3
X8.1Y-3.4
X8.2Y-3.15
X8.2Y-3.25
X8.2Y-3.35
X8.1Y-2.5
X8.1Y-2.6
X8.1Y-2.7
X8.2Y-2.45
X8.2Y-2.55
X8.2Y-2.65
X8.1Y-4.6
X8.1Y-4.7
X8.1Y-4.8
X8.2Y-4.55
X8.2Y-4.65
X8.2Y-4.75
X3.Y-3.35
X3.Y-3.45
X3.Y-3.55
X3.Y-3.65
X3.1Y-3.4
X3.1Y-3.5
X3.1Y-3.6
X3.1Y-3.7
X3.Y-4.2
X3.Y-4.3
X3.Y-4.4
X3.Y-4.5
X3.1Y-4.25
X3.1Y-4.35
X3.1Y-4.45
X3.1Y-4.55
X3.Y-2.5
X3.Y-2.6
X3.Y-2.7
X3.Y-2.8
X3.1Y-2.55
X3.1Y-2.65
X3.1Y-2.75
X3.1Y-2.85
X8.1Y-3.9
X8.1Y-4.
X8.1Y-4.1
X8.2Y-3.85
X8.2Y-3.95
X8.2Y-4.05
X4.8Y-5.1
X4.85Y-5.2
X4.9Y-5.1
X4.95Y-5.2
X5.Y-5.1
X5.05Y-5.2
T6
X6.03Y-4.32
X6.03Y-4.42
X6.03Y-4.52
X6.03Y-4.62
X6.33Y-4.32
X6.33Y-4.42
X6.33Y-4.52
X6.33Y-4.62
X7.992Y-5.5398
X8.055Y-5.415
X8.055Y-5.5134
X8.118Y-5.3886
T7
X2.2Y-3.85
X5.7Y-5.6
X3.45Y-5.15
X2.2Y-2.3
X7.2Y-5.6
X4.5Y-5.1
X4.5Y-5.2
X4.5Y-5.3
X4.5Y-5.4
X4.5Y-5.5
X4.5Y-5.6
X2.3Y-3.35
X2.3Y-3.45
X2.3Y-3.55
X2.3Y-3.65
X2.4Y-3.35
X2.4Y-3.45
X2.4Y-3.55
X2.4Y-3.65
X6.7Y-4.9
X3.65Y-5.5
X2.2Y-3.15
X2.85Y-5.5
X3.25Y-5.5
X2.3Y-2.5
X2.3Y-2.6
X2.3Y-2.7
X2.3Y-2.8
X2.4Y-2.5
X2.4Y-2.6
X2.4Y-2.7
X2.4Y-2.8
X5.9Y-4.9
X6.5Y-4.9
X3.05Y-5.15
X4.25Y-5.5
X2.2Y-3.
X6.8Y-5.6
X8.8Y-3.8
X8.8Y-3.9
X8.8Y-4.
X8.8Y-4.1
X8.9Y-2.2
X8.8Y-2.4
X8.8Y-2.5
X8.8Y-2.6
X8.8Y-2.7
X4.05Y-5.5
X2.2Y-4.
X2.3Y-4.2
X2.3Y-4.3
X2.3Y-4.4
X2.3Y-4.5
X2.4Y-4.2
X2.4Y-4.3
X2.4Y-4.4
X2.4Y-4.5
X8.9Y-2.9
X3.85Y-5.5
X6.2Y-5.5
X6.3Y-5.5
X6.4Y-5.5
X7.4Y-5.6
X6.3Y-4.9
X4.6Y-2.3
X4.6Y-2.4
X4.6Y-2.5
X4.6Y-2.6
X4.6Y-2.7
X4.6Y-2.8
X4.6Y-2.9
X4.6Y-3.
X4.6Y-3.1
X4.6Y-3.2
X4.6Y-3.3
X4.6Y-3.4
X4.6Y-3.5
X4.6Y-3.6
X4.6Y-3.7
X4.6Y-3.8
X4.6Y-3.9
X4.6Y-4.
X4.6Y-4.1
X4.6Y-4.2
X4.6Y-4.3
X4.6Y-4.4
X4.6Y-4.5
X4.6Y-4.6
X4.6Y-4.7
X4.7Y-2.3
X4.7Y-2.4
X4.7Y-2.5
X4.7Y-2.6
X4.7Y-2.7
X4.7Y-2.8
X4.7Y-2.9
X4.7Y-3.
X4.7Y-3.1
X4.7Y-3.2
X4.7Y-3.3
X4.7Y-3.4
X4.7Y-3.5
X4.7Y-3.6
X4.7Y-3.7
X4.7Y-3.8
X4.7Y-3.9
X4.7Y-4.
X4.7Y-4.1
X4.7Y-4.2
X4.7Y-4.3
X4.7Y-4.4
X4.7Y-4.5
X4.7Y-4.6
X4.7Y-4.7
X6.6Y-2.3
X6.6Y-2.4
X6.6Y-2.5
X6.6Y-2.6
X6.6Y-2.7
X6.6Y-2.8
X6.6Y-2.9
X6.6Y-3.
X6.6Y-3.1
X6.6Y-3.2
X6.6Y-3.3
X6.6Y-3.4
X6.6Y-3.5
X6.6Y-3.6
X6.6Y-3.7
X6.6Y-3.8
X6.6Y-3.9
X6.6Y-4.
X6.6Y-4.1
X6.6Y-4.2
X6.6Y-4.3
X6.6Y-4.4
X6.6Y-4.5
X6.6Y-4.6
X6.6Y-4.7
X6.7Y-2.3
X6.7Y-2.4
X6.7Y-2.5
X6.7Y-2.6
X6.7Y-2.7
X6.7Y-2.8
X6.7Y-2.9
X6.7Y-3.
X6.7Y-3.1
X6.7Y-3.2
X6.7Y-3.3
X6.7Y-3.4
X6.7Y-3.5
X6.7Y-3.6
X6.7Y-3.7
X6.7Y-3.8
X6.7Y-3.9
X6.7Y-4.
X6.7Y-4.1
X6.7Y-4.2
X6.7Y-4.3
X6.7Y-4.4
X6.7Y-4.5
X6.7Y-4.6
X6.7Y-4.7
X3.05Y-5.5
X6.1Y-4.9
X8.9Y-3.6
X8.9Y-4.3
X5.9Y-5.1
X5.9Y-5.2
X5.9Y-5.3
X5.9Y-5.4
X5.9Y-5.5
X5.9Y-5.6
X7.Y-5.6
X8.8Y-4.5
X8.8Y-4.6
X8.8Y-4.7
X8.8Y-4.8
X8.8Y-3.1
X8.8Y-3.2
X8.8Y-3.3
X8.8Y-3.4
X3.45Y-5.5
X4.25Y-5.3
X2.2Y-4.7
X6.6Y-5.6
T8
X6.2Y-5.05
X6.3Y-5.05
X6.4Y-5.05
T9
X8.41Y-5.365
X8.41Y-5.565
T10
X6.81Y-5.25
X7.075Y-5.25
X7.51Y-5.25
X7.775Y-5.25
T11
X4.3Y-2.4
X7.Y-2.4
X7.8Y-4.9
X3.3Y-4.9
T5
X2.66Y-3.22G85X2.6Y-3.22
G05
X2.66Y-3.83G85X2.6Y-3.83
G05
X2.66Y-4.07G85X2.6Y-4.07
G05
X2.66Y-4.68G85X2.6Y-4.68
G05
X2.66Y-2.37G85X2.6Y-2.37
G05
X2.66Y-2.98G85X2.6Y-2.98
G05
T7
X8.6606Y-5.3638G85X8.7394Y-5.3638
G05
X8.6606Y-5.6G85X8.7394Y-5.6
G05
X8.885Y-5.5213G85X8.885Y-5.4425
G05
T0
M30
