G04 #@! TF.GenerationSoftware,KiCad,Pcbnew,5.0.2-bee76a0~70~ubuntu18.04.1*
G04 #@! TF.CreationDate,2019-05-04T20:09:11-07:00*
G04 #@! TF.ProjectId,aa-daughterboard-lvds,61612d64-6175-4676-9874-6572626f6172,rev?*
G04 #@! TF.SameCoordinates,Original*
G04 #@! TF.FileFunction,Paste,Bot*
G04 #@! TF.FilePolarity,Positive*
%FSLAX46Y46*%
G04 Gerber Fmt 4.6, Leading zero omitted, Abs format (unit mm)*
G04 Created by KiCad (PCBNEW 5.0.2-bee76a0~70~ubuntu18.04.1) date Sat 04 May 2019 08:09:11 PM PDT*
%MOMM*%
%LPD*%
G01*
G04 APERTURE LIST*
%ADD10C,0.100000*%
%ADD11C,0.875000*%
%ADD12R,0.400000X0.300000*%
%ADD13C,0.975000*%
G04 APERTURE END LIST*
D10*
G04 #@! TO.C,R56*
G36*
X216749691Y-133130053D02*
X216770926Y-133133203D01*
X216791750Y-133138419D01*
X216811962Y-133145651D01*
X216831368Y-133154830D01*
X216849781Y-133165866D01*
X216867024Y-133178654D01*
X216882930Y-133193070D01*
X216897346Y-133208976D01*
X216910134Y-133226219D01*
X216921170Y-133244632D01*
X216930349Y-133264038D01*
X216937581Y-133284250D01*
X216942797Y-133305074D01*
X216945947Y-133326309D01*
X216947000Y-133347750D01*
X216947000Y-133860250D01*
X216945947Y-133881691D01*
X216942797Y-133902926D01*
X216937581Y-133923750D01*
X216930349Y-133943962D01*
X216921170Y-133963368D01*
X216910134Y-133981781D01*
X216897346Y-133999024D01*
X216882930Y-134014930D01*
X216867024Y-134029346D01*
X216849781Y-134042134D01*
X216831368Y-134053170D01*
X216811962Y-134062349D01*
X216791750Y-134069581D01*
X216770926Y-134074797D01*
X216749691Y-134077947D01*
X216728250Y-134079000D01*
X216290750Y-134079000D01*
X216269309Y-134077947D01*
X216248074Y-134074797D01*
X216227250Y-134069581D01*
X216207038Y-134062349D01*
X216187632Y-134053170D01*
X216169219Y-134042134D01*
X216151976Y-134029346D01*
X216136070Y-134014930D01*
X216121654Y-133999024D01*
X216108866Y-133981781D01*
X216097830Y-133963368D01*
X216088651Y-133943962D01*
X216081419Y-133923750D01*
X216076203Y-133902926D01*
X216073053Y-133881691D01*
X216072000Y-133860250D01*
X216072000Y-133347750D01*
X216073053Y-133326309D01*
X216076203Y-133305074D01*
X216081419Y-133284250D01*
X216088651Y-133264038D01*
X216097830Y-133244632D01*
X216108866Y-133226219D01*
X216121654Y-133208976D01*
X216136070Y-133193070D01*
X216151976Y-133178654D01*
X216169219Y-133165866D01*
X216187632Y-133154830D01*
X216207038Y-133145651D01*
X216227250Y-133138419D01*
X216248074Y-133133203D01*
X216269309Y-133130053D01*
X216290750Y-133129000D01*
X216728250Y-133129000D01*
X216749691Y-133130053D01*
X216749691Y-133130053D01*
G37*
D11*
X216509500Y-133604000D03*
D10*
G36*
X218324691Y-133130053D02*
X218345926Y-133133203D01*
X218366750Y-133138419D01*
X218386962Y-133145651D01*
X218406368Y-133154830D01*
X218424781Y-133165866D01*
X218442024Y-133178654D01*
X218457930Y-133193070D01*
X218472346Y-133208976D01*
X218485134Y-133226219D01*
X218496170Y-133244632D01*
X218505349Y-133264038D01*
X218512581Y-133284250D01*
X218517797Y-133305074D01*
X218520947Y-133326309D01*
X218522000Y-133347750D01*
X218522000Y-133860250D01*
X218520947Y-133881691D01*
X218517797Y-133902926D01*
X218512581Y-133923750D01*
X218505349Y-133943962D01*
X218496170Y-133963368D01*
X218485134Y-133981781D01*
X218472346Y-133999024D01*
X218457930Y-134014930D01*
X218442024Y-134029346D01*
X218424781Y-134042134D01*
X218406368Y-134053170D01*
X218386962Y-134062349D01*
X218366750Y-134069581D01*
X218345926Y-134074797D01*
X218324691Y-134077947D01*
X218303250Y-134079000D01*
X217865750Y-134079000D01*
X217844309Y-134077947D01*
X217823074Y-134074797D01*
X217802250Y-134069581D01*
X217782038Y-134062349D01*
X217762632Y-134053170D01*
X217744219Y-134042134D01*
X217726976Y-134029346D01*
X217711070Y-134014930D01*
X217696654Y-133999024D01*
X217683866Y-133981781D01*
X217672830Y-133963368D01*
X217663651Y-133943962D01*
X217656419Y-133923750D01*
X217651203Y-133902926D01*
X217648053Y-133881691D01*
X217647000Y-133860250D01*
X217647000Y-133347750D01*
X217648053Y-133326309D01*
X217651203Y-133305074D01*
X217656419Y-133284250D01*
X217663651Y-133264038D01*
X217672830Y-133244632D01*
X217683866Y-133226219D01*
X217696654Y-133208976D01*
X217711070Y-133193070D01*
X217726976Y-133178654D01*
X217744219Y-133165866D01*
X217762632Y-133154830D01*
X217782038Y-133145651D01*
X217802250Y-133138419D01*
X217823074Y-133133203D01*
X217844309Y-133130053D01*
X217865750Y-133129000D01*
X218303250Y-133129000D01*
X218324691Y-133130053D01*
X218324691Y-133130053D01*
G37*
D11*
X218084500Y-133604000D03*
G04 #@! TD*
D10*
G04 #@! TO.C,C3*
G36*
X157440691Y-109254053D02*
X157461926Y-109257203D01*
X157482750Y-109262419D01*
X157502962Y-109269651D01*
X157522368Y-109278830D01*
X157540781Y-109289866D01*
X157558024Y-109302654D01*
X157573930Y-109317070D01*
X157588346Y-109332976D01*
X157601134Y-109350219D01*
X157612170Y-109368632D01*
X157621349Y-109388038D01*
X157628581Y-109408250D01*
X157633797Y-109429074D01*
X157636947Y-109450309D01*
X157638000Y-109471750D01*
X157638000Y-109984250D01*
X157636947Y-110005691D01*
X157633797Y-110026926D01*
X157628581Y-110047750D01*
X157621349Y-110067962D01*
X157612170Y-110087368D01*
X157601134Y-110105781D01*
X157588346Y-110123024D01*
X157573930Y-110138930D01*
X157558024Y-110153346D01*
X157540781Y-110166134D01*
X157522368Y-110177170D01*
X157502962Y-110186349D01*
X157482750Y-110193581D01*
X157461926Y-110198797D01*
X157440691Y-110201947D01*
X157419250Y-110203000D01*
X156981750Y-110203000D01*
X156960309Y-110201947D01*
X156939074Y-110198797D01*
X156918250Y-110193581D01*
X156898038Y-110186349D01*
X156878632Y-110177170D01*
X156860219Y-110166134D01*
X156842976Y-110153346D01*
X156827070Y-110138930D01*
X156812654Y-110123024D01*
X156799866Y-110105781D01*
X156788830Y-110087368D01*
X156779651Y-110067962D01*
X156772419Y-110047750D01*
X156767203Y-110026926D01*
X156764053Y-110005691D01*
X156763000Y-109984250D01*
X156763000Y-109471750D01*
X156764053Y-109450309D01*
X156767203Y-109429074D01*
X156772419Y-109408250D01*
X156779651Y-109388038D01*
X156788830Y-109368632D01*
X156799866Y-109350219D01*
X156812654Y-109332976D01*
X156827070Y-109317070D01*
X156842976Y-109302654D01*
X156860219Y-109289866D01*
X156878632Y-109278830D01*
X156898038Y-109269651D01*
X156918250Y-109262419D01*
X156939074Y-109257203D01*
X156960309Y-109254053D01*
X156981750Y-109253000D01*
X157419250Y-109253000D01*
X157440691Y-109254053D01*
X157440691Y-109254053D01*
G37*
D11*
X157200500Y-109728000D03*
D10*
G36*
X159015691Y-109254053D02*
X159036926Y-109257203D01*
X159057750Y-109262419D01*
X159077962Y-109269651D01*
X159097368Y-109278830D01*
X159115781Y-109289866D01*
X159133024Y-109302654D01*
X159148930Y-109317070D01*
X159163346Y-109332976D01*
X159176134Y-109350219D01*
X159187170Y-109368632D01*
X159196349Y-109388038D01*
X159203581Y-109408250D01*
X159208797Y-109429074D01*
X159211947Y-109450309D01*
X159213000Y-109471750D01*
X159213000Y-109984250D01*
X159211947Y-110005691D01*
X159208797Y-110026926D01*
X159203581Y-110047750D01*
X159196349Y-110067962D01*
X159187170Y-110087368D01*
X159176134Y-110105781D01*
X159163346Y-110123024D01*
X159148930Y-110138930D01*
X159133024Y-110153346D01*
X159115781Y-110166134D01*
X159097368Y-110177170D01*
X159077962Y-110186349D01*
X159057750Y-110193581D01*
X159036926Y-110198797D01*
X159015691Y-110201947D01*
X158994250Y-110203000D01*
X158556750Y-110203000D01*
X158535309Y-110201947D01*
X158514074Y-110198797D01*
X158493250Y-110193581D01*
X158473038Y-110186349D01*
X158453632Y-110177170D01*
X158435219Y-110166134D01*
X158417976Y-110153346D01*
X158402070Y-110138930D01*
X158387654Y-110123024D01*
X158374866Y-110105781D01*
X158363830Y-110087368D01*
X158354651Y-110067962D01*
X158347419Y-110047750D01*
X158342203Y-110026926D01*
X158339053Y-110005691D01*
X158338000Y-109984250D01*
X158338000Y-109471750D01*
X158339053Y-109450309D01*
X158342203Y-109429074D01*
X158347419Y-109408250D01*
X158354651Y-109388038D01*
X158363830Y-109368632D01*
X158374866Y-109350219D01*
X158387654Y-109332976D01*
X158402070Y-109317070D01*
X158417976Y-109302654D01*
X158435219Y-109289866D01*
X158453632Y-109278830D01*
X158473038Y-109269651D01*
X158493250Y-109262419D01*
X158514074Y-109257203D01*
X158535309Y-109254053D01*
X158556750Y-109253000D01*
X158994250Y-109253000D01*
X159015691Y-109254053D01*
X159015691Y-109254053D01*
G37*
D11*
X158775500Y-109728000D03*
G04 #@! TD*
D10*
G04 #@! TO.C,R10*
G36*
X157440691Y-116874053D02*
X157461926Y-116877203D01*
X157482750Y-116882419D01*
X157502962Y-116889651D01*
X157522368Y-116898830D01*
X157540781Y-116909866D01*
X157558024Y-116922654D01*
X157573930Y-116937070D01*
X157588346Y-116952976D01*
X157601134Y-116970219D01*
X157612170Y-116988632D01*
X157621349Y-117008038D01*
X157628581Y-117028250D01*
X157633797Y-117049074D01*
X157636947Y-117070309D01*
X157638000Y-117091750D01*
X157638000Y-117604250D01*
X157636947Y-117625691D01*
X157633797Y-117646926D01*
X157628581Y-117667750D01*
X157621349Y-117687962D01*
X157612170Y-117707368D01*
X157601134Y-117725781D01*
X157588346Y-117743024D01*
X157573930Y-117758930D01*
X157558024Y-117773346D01*
X157540781Y-117786134D01*
X157522368Y-117797170D01*
X157502962Y-117806349D01*
X157482750Y-117813581D01*
X157461926Y-117818797D01*
X157440691Y-117821947D01*
X157419250Y-117823000D01*
X156981750Y-117823000D01*
X156960309Y-117821947D01*
X156939074Y-117818797D01*
X156918250Y-117813581D01*
X156898038Y-117806349D01*
X156878632Y-117797170D01*
X156860219Y-117786134D01*
X156842976Y-117773346D01*
X156827070Y-117758930D01*
X156812654Y-117743024D01*
X156799866Y-117725781D01*
X156788830Y-117707368D01*
X156779651Y-117687962D01*
X156772419Y-117667750D01*
X156767203Y-117646926D01*
X156764053Y-117625691D01*
X156763000Y-117604250D01*
X156763000Y-117091750D01*
X156764053Y-117070309D01*
X156767203Y-117049074D01*
X156772419Y-117028250D01*
X156779651Y-117008038D01*
X156788830Y-116988632D01*
X156799866Y-116970219D01*
X156812654Y-116952976D01*
X156827070Y-116937070D01*
X156842976Y-116922654D01*
X156860219Y-116909866D01*
X156878632Y-116898830D01*
X156898038Y-116889651D01*
X156918250Y-116882419D01*
X156939074Y-116877203D01*
X156960309Y-116874053D01*
X156981750Y-116873000D01*
X157419250Y-116873000D01*
X157440691Y-116874053D01*
X157440691Y-116874053D01*
G37*
D11*
X157200500Y-117348000D03*
D10*
G36*
X159015691Y-116874053D02*
X159036926Y-116877203D01*
X159057750Y-116882419D01*
X159077962Y-116889651D01*
X159097368Y-116898830D01*
X159115781Y-116909866D01*
X159133024Y-116922654D01*
X159148930Y-116937070D01*
X159163346Y-116952976D01*
X159176134Y-116970219D01*
X159187170Y-116988632D01*
X159196349Y-117008038D01*
X159203581Y-117028250D01*
X159208797Y-117049074D01*
X159211947Y-117070309D01*
X159213000Y-117091750D01*
X159213000Y-117604250D01*
X159211947Y-117625691D01*
X159208797Y-117646926D01*
X159203581Y-117667750D01*
X159196349Y-117687962D01*
X159187170Y-117707368D01*
X159176134Y-117725781D01*
X159163346Y-117743024D01*
X159148930Y-117758930D01*
X159133024Y-117773346D01*
X159115781Y-117786134D01*
X159097368Y-117797170D01*
X159077962Y-117806349D01*
X159057750Y-117813581D01*
X159036926Y-117818797D01*
X159015691Y-117821947D01*
X158994250Y-117823000D01*
X158556750Y-117823000D01*
X158535309Y-117821947D01*
X158514074Y-117818797D01*
X158493250Y-117813581D01*
X158473038Y-117806349D01*
X158453632Y-117797170D01*
X158435219Y-117786134D01*
X158417976Y-117773346D01*
X158402070Y-117758930D01*
X158387654Y-117743024D01*
X158374866Y-117725781D01*
X158363830Y-117707368D01*
X158354651Y-117687962D01*
X158347419Y-117667750D01*
X158342203Y-117646926D01*
X158339053Y-117625691D01*
X158338000Y-117604250D01*
X158338000Y-117091750D01*
X158339053Y-117070309D01*
X158342203Y-117049074D01*
X158347419Y-117028250D01*
X158354651Y-117008038D01*
X158363830Y-116988632D01*
X158374866Y-116970219D01*
X158387654Y-116952976D01*
X158402070Y-116937070D01*
X158417976Y-116922654D01*
X158435219Y-116909866D01*
X158453632Y-116898830D01*
X158473038Y-116889651D01*
X158493250Y-116882419D01*
X158514074Y-116877203D01*
X158535309Y-116874053D01*
X158556750Y-116873000D01*
X158994250Y-116873000D01*
X159015691Y-116874053D01*
X159015691Y-116874053D01*
G37*
D11*
X158775500Y-117348000D03*
G04 #@! TD*
D10*
G04 #@! TO.C,R12*
G36*
X157440691Y-114334053D02*
X157461926Y-114337203D01*
X157482750Y-114342419D01*
X157502962Y-114349651D01*
X157522368Y-114358830D01*
X157540781Y-114369866D01*
X157558024Y-114382654D01*
X157573930Y-114397070D01*
X157588346Y-114412976D01*
X157601134Y-114430219D01*
X157612170Y-114448632D01*
X157621349Y-114468038D01*
X157628581Y-114488250D01*
X157633797Y-114509074D01*
X157636947Y-114530309D01*
X157638000Y-114551750D01*
X157638000Y-115064250D01*
X157636947Y-115085691D01*
X157633797Y-115106926D01*
X157628581Y-115127750D01*
X157621349Y-115147962D01*
X157612170Y-115167368D01*
X157601134Y-115185781D01*
X157588346Y-115203024D01*
X157573930Y-115218930D01*
X157558024Y-115233346D01*
X157540781Y-115246134D01*
X157522368Y-115257170D01*
X157502962Y-115266349D01*
X157482750Y-115273581D01*
X157461926Y-115278797D01*
X157440691Y-115281947D01*
X157419250Y-115283000D01*
X156981750Y-115283000D01*
X156960309Y-115281947D01*
X156939074Y-115278797D01*
X156918250Y-115273581D01*
X156898038Y-115266349D01*
X156878632Y-115257170D01*
X156860219Y-115246134D01*
X156842976Y-115233346D01*
X156827070Y-115218930D01*
X156812654Y-115203024D01*
X156799866Y-115185781D01*
X156788830Y-115167368D01*
X156779651Y-115147962D01*
X156772419Y-115127750D01*
X156767203Y-115106926D01*
X156764053Y-115085691D01*
X156763000Y-115064250D01*
X156763000Y-114551750D01*
X156764053Y-114530309D01*
X156767203Y-114509074D01*
X156772419Y-114488250D01*
X156779651Y-114468038D01*
X156788830Y-114448632D01*
X156799866Y-114430219D01*
X156812654Y-114412976D01*
X156827070Y-114397070D01*
X156842976Y-114382654D01*
X156860219Y-114369866D01*
X156878632Y-114358830D01*
X156898038Y-114349651D01*
X156918250Y-114342419D01*
X156939074Y-114337203D01*
X156960309Y-114334053D01*
X156981750Y-114333000D01*
X157419250Y-114333000D01*
X157440691Y-114334053D01*
X157440691Y-114334053D01*
G37*
D11*
X157200500Y-114808000D03*
D10*
G36*
X159015691Y-114334053D02*
X159036926Y-114337203D01*
X159057750Y-114342419D01*
X159077962Y-114349651D01*
X159097368Y-114358830D01*
X159115781Y-114369866D01*
X159133024Y-114382654D01*
X159148930Y-114397070D01*
X159163346Y-114412976D01*
X159176134Y-114430219D01*
X159187170Y-114448632D01*
X159196349Y-114468038D01*
X159203581Y-114488250D01*
X159208797Y-114509074D01*
X159211947Y-114530309D01*
X159213000Y-114551750D01*
X159213000Y-115064250D01*
X159211947Y-115085691D01*
X159208797Y-115106926D01*
X159203581Y-115127750D01*
X159196349Y-115147962D01*
X159187170Y-115167368D01*
X159176134Y-115185781D01*
X159163346Y-115203024D01*
X159148930Y-115218930D01*
X159133024Y-115233346D01*
X159115781Y-115246134D01*
X159097368Y-115257170D01*
X159077962Y-115266349D01*
X159057750Y-115273581D01*
X159036926Y-115278797D01*
X159015691Y-115281947D01*
X158994250Y-115283000D01*
X158556750Y-115283000D01*
X158535309Y-115281947D01*
X158514074Y-115278797D01*
X158493250Y-115273581D01*
X158473038Y-115266349D01*
X158453632Y-115257170D01*
X158435219Y-115246134D01*
X158417976Y-115233346D01*
X158402070Y-115218930D01*
X158387654Y-115203024D01*
X158374866Y-115185781D01*
X158363830Y-115167368D01*
X158354651Y-115147962D01*
X158347419Y-115127750D01*
X158342203Y-115106926D01*
X158339053Y-115085691D01*
X158338000Y-115064250D01*
X158338000Y-114551750D01*
X158339053Y-114530309D01*
X158342203Y-114509074D01*
X158347419Y-114488250D01*
X158354651Y-114468038D01*
X158363830Y-114448632D01*
X158374866Y-114430219D01*
X158387654Y-114412976D01*
X158402070Y-114397070D01*
X158417976Y-114382654D01*
X158435219Y-114369866D01*
X158453632Y-114358830D01*
X158473038Y-114349651D01*
X158493250Y-114342419D01*
X158514074Y-114337203D01*
X158535309Y-114334053D01*
X158556750Y-114333000D01*
X158994250Y-114333000D01*
X159015691Y-114334053D01*
X159015691Y-114334053D01*
G37*
D11*
X158775500Y-114808000D03*
G04 #@! TD*
D12*
G04 #@! TO.C,D3*
X175006000Y-144468000D03*
X175006000Y-143568000D03*
G04 #@! TD*
D10*
G04 #@! TO.C,C2*
G36*
X136490142Y-136461174D02*
X136513803Y-136464684D01*
X136537007Y-136470496D01*
X136559529Y-136478554D01*
X136581153Y-136488782D01*
X136601670Y-136501079D01*
X136620883Y-136515329D01*
X136638607Y-136531393D01*
X136654671Y-136549117D01*
X136668921Y-136568330D01*
X136681218Y-136588847D01*
X136691446Y-136610471D01*
X136699504Y-136632993D01*
X136705316Y-136656197D01*
X136708826Y-136679858D01*
X136710000Y-136703750D01*
X136710000Y-137616250D01*
X136708826Y-137640142D01*
X136705316Y-137663803D01*
X136699504Y-137687007D01*
X136691446Y-137709529D01*
X136681218Y-137731153D01*
X136668921Y-137751670D01*
X136654671Y-137770883D01*
X136638607Y-137788607D01*
X136620883Y-137804671D01*
X136601670Y-137818921D01*
X136581153Y-137831218D01*
X136559529Y-137841446D01*
X136537007Y-137849504D01*
X136513803Y-137855316D01*
X136490142Y-137858826D01*
X136466250Y-137860000D01*
X135978750Y-137860000D01*
X135954858Y-137858826D01*
X135931197Y-137855316D01*
X135907993Y-137849504D01*
X135885471Y-137841446D01*
X135863847Y-137831218D01*
X135843330Y-137818921D01*
X135824117Y-137804671D01*
X135806393Y-137788607D01*
X135790329Y-137770883D01*
X135776079Y-137751670D01*
X135763782Y-137731153D01*
X135753554Y-137709529D01*
X135745496Y-137687007D01*
X135739684Y-137663803D01*
X135736174Y-137640142D01*
X135735000Y-137616250D01*
X135735000Y-136703750D01*
X135736174Y-136679858D01*
X135739684Y-136656197D01*
X135745496Y-136632993D01*
X135753554Y-136610471D01*
X135763782Y-136588847D01*
X135776079Y-136568330D01*
X135790329Y-136549117D01*
X135806393Y-136531393D01*
X135824117Y-136515329D01*
X135843330Y-136501079D01*
X135863847Y-136488782D01*
X135885471Y-136478554D01*
X135907993Y-136470496D01*
X135931197Y-136464684D01*
X135954858Y-136461174D01*
X135978750Y-136460000D01*
X136466250Y-136460000D01*
X136490142Y-136461174D01*
X136490142Y-136461174D01*
G37*
D13*
X136222500Y-137160000D03*
D10*
G36*
X138365142Y-136461174D02*
X138388803Y-136464684D01*
X138412007Y-136470496D01*
X138434529Y-136478554D01*
X138456153Y-136488782D01*
X138476670Y-136501079D01*
X138495883Y-136515329D01*
X138513607Y-136531393D01*
X138529671Y-136549117D01*
X138543921Y-136568330D01*
X138556218Y-136588847D01*
X138566446Y-136610471D01*
X138574504Y-136632993D01*
X138580316Y-136656197D01*
X138583826Y-136679858D01*
X138585000Y-136703750D01*
X138585000Y-137616250D01*
X138583826Y-137640142D01*
X138580316Y-137663803D01*
X138574504Y-137687007D01*
X138566446Y-137709529D01*
X138556218Y-137731153D01*
X138543921Y-137751670D01*
X138529671Y-137770883D01*
X138513607Y-137788607D01*
X138495883Y-137804671D01*
X138476670Y-137818921D01*
X138456153Y-137831218D01*
X138434529Y-137841446D01*
X138412007Y-137849504D01*
X138388803Y-137855316D01*
X138365142Y-137858826D01*
X138341250Y-137860000D01*
X137853750Y-137860000D01*
X137829858Y-137858826D01*
X137806197Y-137855316D01*
X137782993Y-137849504D01*
X137760471Y-137841446D01*
X137738847Y-137831218D01*
X137718330Y-137818921D01*
X137699117Y-137804671D01*
X137681393Y-137788607D01*
X137665329Y-137770883D01*
X137651079Y-137751670D01*
X137638782Y-137731153D01*
X137628554Y-137709529D01*
X137620496Y-137687007D01*
X137614684Y-137663803D01*
X137611174Y-137640142D01*
X137610000Y-137616250D01*
X137610000Y-136703750D01*
X137611174Y-136679858D01*
X137614684Y-136656197D01*
X137620496Y-136632993D01*
X137628554Y-136610471D01*
X137638782Y-136588847D01*
X137651079Y-136568330D01*
X137665329Y-136549117D01*
X137681393Y-136531393D01*
X137699117Y-136515329D01*
X137718330Y-136501079D01*
X137738847Y-136488782D01*
X137760471Y-136478554D01*
X137782993Y-136470496D01*
X137806197Y-136464684D01*
X137829858Y-136461174D01*
X137853750Y-136460000D01*
X138341250Y-136460000D01*
X138365142Y-136461174D01*
X138365142Y-136461174D01*
G37*
D13*
X138097500Y-137160000D03*
G04 #@! TD*
M02*
