G04 #@! TF.GenerationSoftware,KiCad,Pcbnew,5.0.2-bee76a0~70~ubuntu18.04.1*
G04 #@! TF.CreationDate,2019-06-21T09:24:01-07:00*
G04 #@! TF.ProjectId,aa-power,61612d70-6f77-4657-922e-6b696361645f,rev?*
G04 #@! TF.SameCoordinates,Original*
G04 #@! TF.FileFunction,Legend,Top*
G04 #@! TF.FilePolarity,Positive*
%FSLAX46Y46*%
G04 Gerber Fmt 4.6, Leading zero omitted, Abs format (unit mm)*
G04 Created by KiCad (PCBNEW 5.0.2-bee76a0~70~ubuntu18.04.1) date Fri 21 Jun 2019 09:24:01 AM PDT*
%MOMM*%
%LPD*%
G01*
G04 APERTURE LIST*
%ADD10C,0.076200*%
%ADD11C,0.300000*%
%ADD12C,0.120000*%
%ADD13C,0.100000*%
%ADD14C,0.150000*%
G04 APERTURE END LIST*
D10*
X189611000Y-118753466D02*
X189852904Y-118753466D01*
X189562619Y-118898609D02*
X189731952Y-118390609D01*
X189901285Y-118898609D01*
X190070619Y-118898609D02*
X190070619Y-118390609D01*
X190239952Y-118753466D01*
X190409285Y-118390609D01*
X190409285Y-118898609D01*
X190627000Y-118753466D02*
X190868904Y-118753466D01*
X190578619Y-118898609D02*
X190747952Y-118390609D01*
X190917285Y-118898609D01*
X191086619Y-118898609D02*
X191086619Y-118390609D01*
X191376904Y-118898609D01*
X191376904Y-118390609D01*
X191618809Y-118898609D02*
X191618809Y-118390609D01*
X191788142Y-118390609D02*
X192078428Y-118390609D01*
X191933285Y-118898609D02*
X191933285Y-118390609D01*
X192223571Y-118753466D02*
X192465476Y-118753466D01*
X192175190Y-118898609D02*
X192344523Y-118390609D01*
X192513857Y-118898609D01*
X193046047Y-118753466D02*
X193287952Y-118753466D01*
X192997666Y-118898609D02*
X193167000Y-118390609D01*
X193336333Y-118898609D01*
X193795952Y-118898609D02*
X193626619Y-118656704D01*
X193505666Y-118898609D02*
X193505666Y-118390609D01*
X193699190Y-118390609D01*
X193747571Y-118414800D01*
X193771761Y-118438990D01*
X193795952Y-118487371D01*
X193795952Y-118559942D01*
X193771761Y-118608323D01*
X193747571Y-118632514D01*
X193699190Y-118656704D01*
X193505666Y-118656704D01*
X194303952Y-118850228D02*
X194279761Y-118874419D01*
X194207190Y-118898609D01*
X194158809Y-118898609D01*
X194086238Y-118874419D01*
X194037857Y-118826038D01*
X194013666Y-118777657D01*
X193989476Y-118680895D01*
X193989476Y-118608323D01*
X194013666Y-118511561D01*
X194037857Y-118463180D01*
X194086238Y-118414800D01*
X194158809Y-118390609D01*
X194207190Y-118390609D01*
X194279761Y-118414800D01*
X194303952Y-118438990D01*
X194497476Y-118753466D02*
X194739380Y-118753466D01*
X194449095Y-118898609D02*
X194618428Y-118390609D01*
X194787761Y-118898609D01*
X194957095Y-118898609D02*
X194957095Y-118390609D01*
X195078047Y-118390609D01*
X195150619Y-118414800D01*
X195199000Y-118463180D01*
X195223190Y-118511561D01*
X195247380Y-118608323D01*
X195247380Y-118680895D01*
X195223190Y-118777657D01*
X195199000Y-118826038D01*
X195150619Y-118874419D01*
X195078047Y-118898609D01*
X194957095Y-118898609D01*
X195465095Y-118632514D02*
X195634428Y-118632514D01*
X195707000Y-118898609D02*
X195465095Y-118898609D01*
X195465095Y-118390609D01*
X195707000Y-118390609D01*
X188740142Y-119736809D02*
X188740142Y-119228809D01*
X188933666Y-119228809D01*
X188982047Y-119253000D01*
X189006238Y-119277190D01*
X189030428Y-119325571D01*
X189030428Y-119398142D01*
X189006238Y-119446523D01*
X188982047Y-119470714D01*
X188933666Y-119494904D01*
X188740142Y-119494904D01*
X189344904Y-119228809D02*
X189441666Y-119228809D01*
X189490047Y-119253000D01*
X189538428Y-119301380D01*
X189562619Y-119398142D01*
X189562619Y-119567476D01*
X189538428Y-119664238D01*
X189490047Y-119712619D01*
X189441666Y-119736809D01*
X189344904Y-119736809D01*
X189296523Y-119712619D01*
X189248142Y-119664238D01*
X189223952Y-119567476D01*
X189223952Y-119398142D01*
X189248142Y-119301380D01*
X189296523Y-119253000D01*
X189344904Y-119228809D01*
X189731952Y-119228809D02*
X189852904Y-119736809D01*
X189949666Y-119373952D01*
X190046428Y-119736809D01*
X190167380Y-119228809D01*
X190360904Y-119470714D02*
X190530238Y-119470714D01*
X190602809Y-119736809D02*
X190360904Y-119736809D01*
X190360904Y-119228809D01*
X190602809Y-119228809D01*
X191110809Y-119736809D02*
X190941476Y-119494904D01*
X190820523Y-119736809D02*
X190820523Y-119228809D01*
X191014047Y-119228809D01*
X191062428Y-119253000D01*
X191086619Y-119277190D01*
X191110809Y-119325571D01*
X191110809Y-119398142D01*
X191086619Y-119446523D01*
X191062428Y-119470714D01*
X191014047Y-119494904D01*
X190820523Y-119494904D01*
X191715571Y-119736809D02*
X191715571Y-119228809D01*
X191836523Y-119228809D01*
X191909095Y-119253000D01*
X191957476Y-119301380D01*
X191981666Y-119349761D01*
X192005857Y-119446523D01*
X192005857Y-119519095D01*
X191981666Y-119615857D01*
X191957476Y-119664238D01*
X191909095Y-119712619D01*
X191836523Y-119736809D01*
X191715571Y-119736809D01*
X192223571Y-119736809D02*
X192223571Y-119228809D01*
X192441285Y-119712619D02*
X192513857Y-119736809D01*
X192634809Y-119736809D01*
X192683190Y-119712619D01*
X192707380Y-119688428D01*
X192731571Y-119640047D01*
X192731571Y-119591666D01*
X192707380Y-119543285D01*
X192683190Y-119519095D01*
X192634809Y-119494904D01*
X192538047Y-119470714D01*
X192489666Y-119446523D01*
X192465476Y-119422333D01*
X192441285Y-119373952D01*
X192441285Y-119325571D01*
X192465476Y-119277190D01*
X192489666Y-119253000D01*
X192538047Y-119228809D01*
X192659000Y-119228809D01*
X192731571Y-119253000D01*
X192876714Y-119228809D02*
X193167000Y-119228809D01*
X193021857Y-119736809D02*
X193021857Y-119228809D01*
X193626619Y-119736809D02*
X193457285Y-119494904D01*
X193336333Y-119736809D02*
X193336333Y-119228809D01*
X193529857Y-119228809D01*
X193578238Y-119253000D01*
X193602428Y-119277190D01*
X193626619Y-119325571D01*
X193626619Y-119398142D01*
X193602428Y-119446523D01*
X193578238Y-119470714D01*
X193529857Y-119494904D01*
X193336333Y-119494904D01*
X193844333Y-119736809D02*
X193844333Y-119228809D01*
X194255571Y-119470714D02*
X194328142Y-119494904D01*
X194352333Y-119519095D01*
X194376523Y-119567476D01*
X194376523Y-119640047D01*
X194352333Y-119688428D01*
X194328142Y-119712619D01*
X194279761Y-119736809D01*
X194086238Y-119736809D01*
X194086238Y-119228809D01*
X194255571Y-119228809D01*
X194303952Y-119253000D01*
X194328142Y-119277190D01*
X194352333Y-119325571D01*
X194352333Y-119373952D01*
X194328142Y-119422333D01*
X194303952Y-119446523D01*
X194255571Y-119470714D01*
X194086238Y-119470714D01*
X194594238Y-119228809D02*
X194594238Y-119640047D01*
X194618428Y-119688428D01*
X194642619Y-119712619D01*
X194691000Y-119736809D01*
X194787761Y-119736809D01*
X194836142Y-119712619D01*
X194860333Y-119688428D01*
X194884523Y-119640047D01*
X194884523Y-119228809D01*
X195053857Y-119228809D02*
X195344142Y-119228809D01*
X195199000Y-119736809D02*
X195199000Y-119228809D01*
X195513476Y-119736809D02*
X195513476Y-119228809D01*
X195852142Y-119228809D02*
X195948904Y-119228809D01*
X195997285Y-119253000D01*
X196045666Y-119301380D01*
X196069857Y-119398142D01*
X196069857Y-119567476D01*
X196045666Y-119664238D01*
X195997285Y-119712619D01*
X195948904Y-119736809D01*
X195852142Y-119736809D01*
X195803761Y-119712619D01*
X195755380Y-119664238D01*
X195731190Y-119567476D01*
X195731190Y-119398142D01*
X195755380Y-119301380D01*
X195803761Y-119253000D01*
X195852142Y-119228809D01*
X196287571Y-119736809D02*
X196287571Y-119228809D01*
X196577857Y-119736809D01*
X196577857Y-119228809D01*
X189417476Y-120067009D02*
X189586809Y-120575009D01*
X189756142Y-120067009D01*
X190191571Y-120575009D02*
X189901285Y-120575009D01*
X190046428Y-120575009D02*
X190046428Y-120067009D01*
X189998047Y-120139580D01*
X189949666Y-120187961D01*
X189901285Y-120212152D01*
X190772142Y-120042819D02*
X190336714Y-120695961D01*
X190917285Y-120115390D02*
X190941476Y-120091200D01*
X190989857Y-120067009D01*
X191110809Y-120067009D01*
X191159190Y-120091200D01*
X191183380Y-120115390D01*
X191207571Y-120163771D01*
X191207571Y-120212152D01*
X191183380Y-120284723D01*
X190893095Y-120575009D01*
X191207571Y-120575009D01*
X191522047Y-120067009D02*
X191570428Y-120067009D01*
X191618809Y-120091200D01*
X191643000Y-120115390D01*
X191667190Y-120163771D01*
X191691380Y-120260533D01*
X191691380Y-120381485D01*
X191667190Y-120478247D01*
X191643000Y-120526628D01*
X191618809Y-120550819D01*
X191570428Y-120575009D01*
X191522047Y-120575009D01*
X191473666Y-120550819D01*
X191449476Y-120526628D01*
X191425285Y-120478247D01*
X191401095Y-120381485D01*
X191401095Y-120260533D01*
X191425285Y-120163771D01*
X191449476Y-120115390D01*
X191473666Y-120091200D01*
X191522047Y-120067009D01*
X192175190Y-120575009D02*
X191884904Y-120575009D01*
X192030047Y-120575009D02*
X192030047Y-120067009D01*
X191981666Y-120139580D01*
X191933285Y-120187961D01*
X191884904Y-120212152D01*
X192417095Y-120575009D02*
X192513857Y-120575009D01*
X192562238Y-120550819D01*
X192586428Y-120526628D01*
X192634809Y-120454057D01*
X192659000Y-120357295D01*
X192659000Y-120163771D01*
X192634809Y-120115390D01*
X192610619Y-120091200D01*
X192562238Y-120067009D01*
X192465476Y-120067009D01*
X192417095Y-120091200D01*
X192392904Y-120115390D01*
X192368714Y-120163771D01*
X192368714Y-120284723D01*
X192392904Y-120333104D01*
X192417095Y-120357295D01*
X192465476Y-120381485D01*
X192562238Y-120381485D01*
X192610619Y-120357295D01*
X192634809Y-120333104D01*
X192659000Y-120284723D01*
X192876714Y-120381485D02*
X193263761Y-120381485D01*
X193602428Y-120067009D02*
X193650809Y-120067009D01*
X193699190Y-120091200D01*
X193723380Y-120115390D01*
X193747571Y-120163771D01*
X193771761Y-120260533D01*
X193771761Y-120381485D01*
X193747571Y-120478247D01*
X193723380Y-120526628D01*
X193699190Y-120550819D01*
X193650809Y-120575009D01*
X193602428Y-120575009D01*
X193554047Y-120550819D01*
X193529857Y-120526628D01*
X193505666Y-120478247D01*
X193481476Y-120381485D01*
X193481476Y-120260533D01*
X193505666Y-120163771D01*
X193529857Y-120115390D01*
X193554047Y-120091200D01*
X193602428Y-120067009D01*
X194207190Y-120067009D02*
X194110428Y-120067009D01*
X194062047Y-120091200D01*
X194037857Y-120115390D01*
X193989476Y-120187961D01*
X193965285Y-120284723D01*
X193965285Y-120478247D01*
X193989476Y-120526628D01*
X194013666Y-120550819D01*
X194062047Y-120575009D01*
X194158809Y-120575009D01*
X194207190Y-120550819D01*
X194231380Y-120526628D01*
X194255571Y-120478247D01*
X194255571Y-120357295D01*
X194231380Y-120308914D01*
X194207190Y-120284723D01*
X194158809Y-120260533D01*
X194062047Y-120260533D01*
X194013666Y-120284723D01*
X193989476Y-120308914D01*
X193965285Y-120357295D01*
X194473285Y-120381485D02*
X194860333Y-120381485D01*
X195368333Y-120575009D02*
X195078047Y-120575009D01*
X195223190Y-120575009D02*
X195223190Y-120067009D01*
X195174809Y-120139580D01*
X195126428Y-120187961D01*
X195078047Y-120212152D01*
X195827952Y-120067009D02*
X195586047Y-120067009D01*
X195561857Y-120308914D01*
X195586047Y-120284723D01*
X195634428Y-120260533D01*
X195755380Y-120260533D01*
X195803761Y-120284723D01*
X195827952Y-120308914D01*
X195852142Y-120357295D01*
X195852142Y-120478247D01*
X195827952Y-120526628D01*
X195803761Y-120550819D01*
X195755380Y-120575009D01*
X195634428Y-120575009D01*
X195586047Y-120550819D01*
X195561857Y-120526628D01*
D11*
X142367142Y-103953571D02*
X143295714Y-103953571D01*
X142795714Y-104525000D01*
X143010000Y-104525000D01*
X143152857Y-104596428D01*
X143224285Y-104667857D01*
X143295714Y-104810714D01*
X143295714Y-105167857D01*
X143224285Y-105310714D01*
X143152857Y-105382142D01*
X143010000Y-105453571D01*
X142581428Y-105453571D01*
X142438571Y-105382142D01*
X142367142Y-105310714D01*
X143867142Y-105025000D02*
X144581428Y-105025000D01*
X143724285Y-105453571D02*
X144224285Y-103953571D01*
X144724285Y-105453571D01*
D12*
G04 #@! TO.C,D8*
X186873371Y-96520000D02*
G75*
G03X186873371Y-96520000I-1326371J0D01*
G01*
X186873371Y-96520000D02*
X186987000Y-96520000D01*
G04 #@! TO.C,TP12*
X196064000Y-88900000D02*
G75*
G03X196064000Y-88900000I-1500000J0D01*
G01*
G04 #@! TO.C,TP10*
X195937000Y-99060000D02*
G75*
G03X195937000Y-99060000I-1500000J0D01*
G01*
G04 #@! TO.C,TP9*
X195937000Y-104140000D02*
G75*
G03X195937000Y-104140000I-1500000J0D01*
G01*
G04 #@! TO.C,TP8*
X195810000Y-109220000D02*
G75*
G03X195810000Y-109220000I-1500000J0D01*
G01*
G04 #@! TO.C,TP11*
X195937000Y-93980000D02*
G75*
G03X195937000Y-93980000I-1500000J0D01*
G01*
G04 #@! TO.C,TP7*
X195810000Y-114300000D02*
G75*
G03X195810000Y-114300000I-1500000J0D01*
G01*
G04 #@! TO.C,TP6*
X105640000Y-102870000D02*
G75*
G03X105640000Y-102870000I-1500000J0D01*
G01*
G04 #@! TO.C,TP5*
X105640000Y-97790000D02*
G75*
G03X105640000Y-97790000I-1500000J0D01*
G01*
G04 #@! TO.C,TP4*
X105640000Y-115570000D02*
G75*
G03X105640000Y-115570000I-1500000J0D01*
G01*
G04 #@! TO.C,TP3*
X105640000Y-110490000D02*
G75*
G03X105640000Y-110490000I-1500000J0D01*
G01*
G04 #@! TO.C,TP2*
X105640000Y-85090000D02*
G75*
G03X105640000Y-85090000I-1500000J0D01*
G01*
G04 #@! TO.C,TP1*
X105640000Y-90170000D02*
G75*
G03X105640000Y-90170000I-1500000J0D01*
G01*
G04 #@! TO.C,Q1*
X178152162Y-105172621D02*
X178152162Y-94932621D01*
X162262162Y-105172621D02*
X162262162Y-94932621D01*
X162262162Y-105172621D02*
X178152162Y-105172621D01*
X162262162Y-94932621D02*
X178152162Y-94932621D01*
X178152162Y-102592621D02*
X180692162Y-102592621D01*
X178152162Y-100052621D02*
X180692162Y-100052621D01*
X178152162Y-97512621D02*
X180692162Y-97512621D01*
G04 #@! TO.C,C4*
X185678578Y-101675000D02*
X185161422Y-101675000D01*
X185678578Y-100255000D02*
X185161422Y-100255000D01*
G04 #@! TO.C,C2*
X120195000Y-106714775D02*
X120695000Y-106714775D01*
X120445000Y-106964775D02*
X120445000Y-106464775D01*
X121636000Y-101559000D02*
X122204000Y-101559000D01*
X121402000Y-101599000D02*
X122438000Y-101599000D01*
X121243000Y-101639000D02*
X122597000Y-101639000D01*
X121115000Y-101679000D02*
X122725000Y-101679000D01*
X121005000Y-101719000D02*
X122835000Y-101719000D01*
X120909000Y-101759000D02*
X122931000Y-101759000D01*
X120822000Y-101799000D02*
X123018000Y-101799000D01*
X120742000Y-101839000D02*
X123098000Y-101839000D01*
X122960000Y-101879000D02*
X123171000Y-101879000D01*
X120669000Y-101879000D02*
X120880000Y-101879000D01*
X122960000Y-101919000D02*
X123239000Y-101919000D01*
X120601000Y-101919000D02*
X120880000Y-101919000D01*
X122960000Y-101959000D02*
X123303000Y-101959000D01*
X120537000Y-101959000D02*
X120880000Y-101959000D01*
X122960000Y-101999000D02*
X123363000Y-101999000D01*
X120477000Y-101999000D02*
X120880000Y-101999000D01*
X122960000Y-102039000D02*
X123420000Y-102039000D01*
X120420000Y-102039000D02*
X120880000Y-102039000D01*
X122960000Y-102079000D02*
X123474000Y-102079000D01*
X120366000Y-102079000D02*
X120880000Y-102079000D01*
X122960000Y-102119000D02*
X123525000Y-102119000D01*
X120315000Y-102119000D02*
X120880000Y-102119000D01*
X122960000Y-102159000D02*
X123573000Y-102159000D01*
X120267000Y-102159000D02*
X120880000Y-102159000D01*
X122960000Y-102199000D02*
X123619000Y-102199000D01*
X120221000Y-102199000D02*
X120880000Y-102199000D01*
X122960000Y-102239000D02*
X123663000Y-102239000D01*
X120177000Y-102239000D02*
X120880000Y-102239000D01*
X122960000Y-102279000D02*
X123705000Y-102279000D01*
X120135000Y-102279000D02*
X120880000Y-102279000D01*
X122960000Y-102319000D02*
X123746000Y-102319000D01*
X120094000Y-102319000D02*
X120880000Y-102319000D01*
X122960000Y-102359000D02*
X123784000Y-102359000D01*
X120056000Y-102359000D02*
X120880000Y-102359000D01*
X122960000Y-102399000D02*
X123821000Y-102399000D01*
X120019000Y-102399000D02*
X120880000Y-102399000D01*
X122960000Y-102439000D02*
X123857000Y-102439000D01*
X119983000Y-102439000D02*
X120880000Y-102439000D01*
X122960000Y-102479000D02*
X123891000Y-102479000D01*
X119949000Y-102479000D02*
X120880000Y-102479000D01*
X122960000Y-102519000D02*
X123924000Y-102519000D01*
X119916000Y-102519000D02*
X120880000Y-102519000D01*
X122960000Y-102559000D02*
X123955000Y-102559000D01*
X119885000Y-102559000D02*
X120880000Y-102559000D01*
X122960000Y-102599000D02*
X123985000Y-102599000D01*
X119855000Y-102599000D02*
X120880000Y-102599000D01*
X122960000Y-102639000D02*
X124015000Y-102639000D01*
X119825000Y-102639000D02*
X120880000Y-102639000D01*
X122960000Y-102679000D02*
X124042000Y-102679000D01*
X119798000Y-102679000D02*
X120880000Y-102679000D01*
X122960000Y-102719000D02*
X124069000Y-102719000D01*
X119771000Y-102719000D02*
X120880000Y-102719000D01*
X122960000Y-102759000D02*
X124095000Y-102759000D01*
X119745000Y-102759000D02*
X120880000Y-102759000D01*
X122960000Y-102799000D02*
X124120000Y-102799000D01*
X119720000Y-102799000D02*
X120880000Y-102799000D01*
X122960000Y-102839000D02*
X124144000Y-102839000D01*
X119696000Y-102839000D02*
X120880000Y-102839000D01*
X122960000Y-102879000D02*
X124167000Y-102879000D01*
X119673000Y-102879000D02*
X120880000Y-102879000D01*
X122960000Y-102919000D02*
X124188000Y-102919000D01*
X119652000Y-102919000D02*
X120880000Y-102919000D01*
X122960000Y-102959000D02*
X124210000Y-102959000D01*
X119630000Y-102959000D02*
X120880000Y-102959000D01*
X122960000Y-102999000D02*
X124230000Y-102999000D01*
X119610000Y-102999000D02*
X120880000Y-102999000D01*
X122960000Y-103039000D02*
X124249000Y-103039000D01*
X119591000Y-103039000D02*
X120880000Y-103039000D01*
X122960000Y-103079000D02*
X124268000Y-103079000D01*
X119572000Y-103079000D02*
X120880000Y-103079000D01*
X122960000Y-103119000D02*
X124285000Y-103119000D01*
X119555000Y-103119000D02*
X120880000Y-103119000D01*
X122960000Y-103159000D02*
X124302000Y-103159000D01*
X119538000Y-103159000D02*
X120880000Y-103159000D01*
X122960000Y-103199000D02*
X124318000Y-103199000D01*
X119522000Y-103199000D02*
X120880000Y-103199000D01*
X122960000Y-103239000D02*
X124334000Y-103239000D01*
X119506000Y-103239000D02*
X120880000Y-103239000D01*
X122960000Y-103279000D02*
X124348000Y-103279000D01*
X119492000Y-103279000D02*
X120880000Y-103279000D01*
X122960000Y-103319000D02*
X124362000Y-103319000D01*
X119478000Y-103319000D02*
X120880000Y-103319000D01*
X122960000Y-103359000D02*
X124375000Y-103359000D01*
X119465000Y-103359000D02*
X120880000Y-103359000D01*
X122960000Y-103399000D02*
X124388000Y-103399000D01*
X119452000Y-103399000D02*
X120880000Y-103399000D01*
X122960000Y-103439000D02*
X124400000Y-103439000D01*
X119440000Y-103439000D02*
X120880000Y-103439000D01*
X122960000Y-103480000D02*
X124411000Y-103480000D01*
X119429000Y-103480000D02*
X120880000Y-103480000D01*
X122960000Y-103520000D02*
X124421000Y-103520000D01*
X119419000Y-103520000D02*
X120880000Y-103520000D01*
X122960000Y-103560000D02*
X124431000Y-103560000D01*
X119409000Y-103560000D02*
X120880000Y-103560000D01*
X122960000Y-103600000D02*
X124440000Y-103600000D01*
X119400000Y-103600000D02*
X120880000Y-103600000D01*
X122960000Y-103640000D02*
X124448000Y-103640000D01*
X119392000Y-103640000D02*
X120880000Y-103640000D01*
X122960000Y-103680000D02*
X124456000Y-103680000D01*
X119384000Y-103680000D02*
X120880000Y-103680000D01*
X122960000Y-103720000D02*
X124463000Y-103720000D01*
X119377000Y-103720000D02*
X120880000Y-103720000D01*
X122960000Y-103760000D02*
X124470000Y-103760000D01*
X119370000Y-103760000D02*
X120880000Y-103760000D01*
X122960000Y-103800000D02*
X124476000Y-103800000D01*
X119364000Y-103800000D02*
X120880000Y-103800000D01*
X122960000Y-103840000D02*
X124481000Y-103840000D01*
X119359000Y-103840000D02*
X120880000Y-103840000D01*
X122960000Y-103880000D02*
X124485000Y-103880000D01*
X119355000Y-103880000D02*
X120880000Y-103880000D01*
X122960000Y-103920000D02*
X124489000Y-103920000D01*
X119351000Y-103920000D02*
X120880000Y-103920000D01*
X119347000Y-103960000D02*
X124493000Y-103960000D01*
X119344000Y-104000000D02*
X124496000Y-104000000D01*
X119342000Y-104040000D02*
X124498000Y-104040000D01*
X119341000Y-104080000D02*
X124499000Y-104080000D01*
X119340000Y-104120000D02*
X124500000Y-104120000D01*
X119340000Y-104160000D02*
X124500000Y-104160000D01*
X124540000Y-104160000D02*
G75*
G03X124540000Y-104160000I-2620000J0D01*
G01*
G04 #@! TO.C,C1*
X124540000Y-96500000D02*
G75*
G03X124540000Y-96500000I-2620000J0D01*
G01*
X124500000Y-96500000D02*
X119340000Y-96500000D01*
X124500000Y-96540000D02*
X119340000Y-96540000D01*
X124499000Y-96580000D02*
X119341000Y-96580000D01*
X124498000Y-96620000D02*
X119342000Y-96620000D01*
X124496000Y-96660000D02*
X119344000Y-96660000D01*
X124493000Y-96700000D02*
X119347000Y-96700000D01*
X124489000Y-96740000D02*
X122960000Y-96740000D01*
X120880000Y-96740000D02*
X119351000Y-96740000D01*
X124485000Y-96780000D02*
X122960000Y-96780000D01*
X120880000Y-96780000D02*
X119355000Y-96780000D01*
X124481000Y-96820000D02*
X122960000Y-96820000D01*
X120880000Y-96820000D02*
X119359000Y-96820000D01*
X124476000Y-96860000D02*
X122960000Y-96860000D01*
X120880000Y-96860000D02*
X119364000Y-96860000D01*
X124470000Y-96900000D02*
X122960000Y-96900000D01*
X120880000Y-96900000D02*
X119370000Y-96900000D01*
X124463000Y-96940000D02*
X122960000Y-96940000D01*
X120880000Y-96940000D02*
X119377000Y-96940000D01*
X124456000Y-96980000D02*
X122960000Y-96980000D01*
X120880000Y-96980000D02*
X119384000Y-96980000D01*
X124448000Y-97020000D02*
X122960000Y-97020000D01*
X120880000Y-97020000D02*
X119392000Y-97020000D01*
X124440000Y-97060000D02*
X122960000Y-97060000D01*
X120880000Y-97060000D02*
X119400000Y-97060000D01*
X124431000Y-97100000D02*
X122960000Y-97100000D01*
X120880000Y-97100000D02*
X119409000Y-97100000D01*
X124421000Y-97140000D02*
X122960000Y-97140000D01*
X120880000Y-97140000D02*
X119419000Y-97140000D01*
X124411000Y-97180000D02*
X122960000Y-97180000D01*
X120880000Y-97180000D02*
X119429000Y-97180000D01*
X124400000Y-97221000D02*
X122960000Y-97221000D01*
X120880000Y-97221000D02*
X119440000Y-97221000D01*
X124388000Y-97261000D02*
X122960000Y-97261000D01*
X120880000Y-97261000D02*
X119452000Y-97261000D01*
X124375000Y-97301000D02*
X122960000Y-97301000D01*
X120880000Y-97301000D02*
X119465000Y-97301000D01*
X124362000Y-97341000D02*
X122960000Y-97341000D01*
X120880000Y-97341000D02*
X119478000Y-97341000D01*
X124348000Y-97381000D02*
X122960000Y-97381000D01*
X120880000Y-97381000D02*
X119492000Y-97381000D01*
X124334000Y-97421000D02*
X122960000Y-97421000D01*
X120880000Y-97421000D02*
X119506000Y-97421000D01*
X124318000Y-97461000D02*
X122960000Y-97461000D01*
X120880000Y-97461000D02*
X119522000Y-97461000D01*
X124302000Y-97501000D02*
X122960000Y-97501000D01*
X120880000Y-97501000D02*
X119538000Y-97501000D01*
X124285000Y-97541000D02*
X122960000Y-97541000D01*
X120880000Y-97541000D02*
X119555000Y-97541000D01*
X124268000Y-97581000D02*
X122960000Y-97581000D01*
X120880000Y-97581000D02*
X119572000Y-97581000D01*
X124249000Y-97621000D02*
X122960000Y-97621000D01*
X120880000Y-97621000D02*
X119591000Y-97621000D01*
X124230000Y-97661000D02*
X122960000Y-97661000D01*
X120880000Y-97661000D02*
X119610000Y-97661000D01*
X124210000Y-97701000D02*
X122960000Y-97701000D01*
X120880000Y-97701000D02*
X119630000Y-97701000D01*
X124188000Y-97741000D02*
X122960000Y-97741000D01*
X120880000Y-97741000D02*
X119652000Y-97741000D01*
X124167000Y-97781000D02*
X122960000Y-97781000D01*
X120880000Y-97781000D02*
X119673000Y-97781000D01*
X124144000Y-97821000D02*
X122960000Y-97821000D01*
X120880000Y-97821000D02*
X119696000Y-97821000D01*
X124120000Y-97861000D02*
X122960000Y-97861000D01*
X120880000Y-97861000D02*
X119720000Y-97861000D01*
X124095000Y-97901000D02*
X122960000Y-97901000D01*
X120880000Y-97901000D02*
X119745000Y-97901000D01*
X124069000Y-97941000D02*
X122960000Y-97941000D01*
X120880000Y-97941000D02*
X119771000Y-97941000D01*
X124042000Y-97981000D02*
X122960000Y-97981000D01*
X120880000Y-97981000D02*
X119798000Y-97981000D01*
X124015000Y-98021000D02*
X122960000Y-98021000D01*
X120880000Y-98021000D02*
X119825000Y-98021000D01*
X123985000Y-98061000D02*
X122960000Y-98061000D01*
X120880000Y-98061000D02*
X119855000Y-98061000D01*
X123955000Y-98101000D02*
X122960000Y-98101000D01*
X120880000Y-98101000D02*
X119885000Y-98101000D01*
X123924000Y-98141000D02*
X122960000Y-98141000D01*
X120880000Y-98141000D02*
X119916000Y-98141000D01*
X123891000Y-98181000D02*
X122960000Y-98181000D01*
X120880000Y-98181000D02*
X119949000Y-98181000D01*
X123857000Y-98221000D02*
X122960000Y-98221000D01*
X120880000Y-98221000D02*
X119983000Y-98221000D01*
X123821000Y-98261000D02*
X122960000Y-98261000D01*
X120880000Y-98261000D02*
X120019000Y-98261000D01*
X123784000Y-98301000D02*
X122960000Y-98301000D01*
X120880000Y-98301000D02*
X120056000Y-98301000D01*
X123746000Y-98341000D02*
X122960000Y-98341000D01*
X120880000Y-98341000D02*
X120094000Y-98341000D01*
X123705000Y-98381000D02*
X122960000Y-98381000D01*
X120880000Y-98381000D02*
X120135000Y-98381000D01*
X123663000Y-98421000D02*
X122960000Y-98421000D01*
X120880000Y-98421000D02*
X120177000Y-98421000D01*
X123619000Y-98461000D02*
X122960000Y-98461000D01*
X120880000Y-98461000D02*
X120221000Y-98461000D01*
X123573000Y-98501000D02*
X122960000Y-98501000D01*
X120880000Y-98501000D02*
X120267000Y-98501000D01*
X123525000Y-98541000D02*
X122960000Y-98541000D01*
X120880000Y-98541000D02*
X120315000Y-98541000D01*
X123474000Y-98581000D02*
X122960000Y-98581000D01*
X120880000Y-98581000D02*
X120366000Y-98581000D01*
X123420000Y-98621000D02*
X122960000Y-98621000D01*
X120880000Y-98621000D02*
X120420000Y-98621000D01*
X123363000Y-98661000D02*
X122960000Y-98661000D01*
X120880000Y-98661000D02*
X120477000Y-98661000D01*
X123303000Y-98701000D02*
X122960000Y-98701000D01*
X120880000Y-98701000D02*
X120537000Y-98701000D01*
X123239000Y-98741000D02*
X122960000Y-98741000D01*
X120880000Y-98741000D02*
X120601000Y-98741000D01*
X123171000Y-98781000D02*
X122960000Y-98781000D01*
X120880000Y-98781000D02*
X120669000Y-98781000D01*
X123098000Y-98821000D02*
X120742000Y-98821000D01*
X123018000Y-98861000D02*
X120822000Y-98861000D01*
X122931000Y-98901000D02*
X120909000Y-98901000D01*
X122835000Y-98941000D02*
X121005000Y-98941000D01*
X122725000Y-98981000D02*
X121115000Y-98981000D01*
X122597000Y-99021000D02*
X121243000Y-99021000D01*
X122438000Y-99061000D02*
X121402000Y-99061000D01*
X122204000Y-99101000D02*
X121636000Y-99101000D01*
X123395000Y-93695225D02*
X123395000Y-94195225D01*
X123645000Y-93945225D02*
X123145000Y-93945225D01*
G04 #@! TO.C,C3*
X148848578Y-94690000D02*
X148331422Y-94690000D01*
X148848578Y-93270000D02*
X148331422Y-93270000D01*
G04 #@! TO.C,D3*
X109447000Y-90970000D02*
X109447000Y-88685000D01*
X109447000Y-88685000D02*
X107977000Y-88685000D01*
X107977000Y-88685000D02*
X107977000Y-90970000D01*
G04 #@! TO.C,D4*
X109320000Y-111975000D02*
X109320000Y-109690000D01*
X107850000Y-111975000D02*
X109320000Y-111975000D01*
X107850000Y-109690000D02*
X107850000Y-111975000D01*
G04 #@! TO.C,D7*
X190600000Y-115100000D02*
X190600000Y-112815000D01*
X190600000Y-112815000D02*
X189130000Y-112815000D01*
X189130000Y-112815000D02*
X189130000Y-115100000D01*
G04 #@! TO.C,R5*
X185582779Y-103380000D02*
X185257221Y-103380000D01*
X185582779Y-102360000D02*
X185257221Y-102360000D01*
G04 #@! TO.C,R4*
X185257221Y-99570000D02*
X185582779Y-99570000D01*
X185257221Y-98550000D02*
X185582779Y-98550000D01*
G04 #@! TO.C,R2*
X108075000Y-115732779D02*
X108075000Y-115407221D01*
X109095000Y-115732779D02*
X109095000Y-115407221D01*
G04 #@! TO.C,R1*
X108202000Y-84927221D02*
X108202000Y-85252779D01*
X109222000Y-84927221D02*
X109222000Y-85252779D01*
G04 #@! TO.C,R3*
X190375000Y-109057221D02*
X190375000Y-109382779D01*
X189355000Y-109057221D02*
X189355000Y-109382779D01*
G04 #@! TO.C,D5*
X126208000Y-99570000D02*
X126208000Y-94270000D01*
X128808000Y-99570000D02*
X128808000Y-94270000D01*
X126208000Y-99570000D02*
X128808000Y-99570000D01*
G04 #@! TO.C,D6*
X128808000Y-101090000D02*
X126208000Y-101090000D01*
X126208000Y-101090000D02*
X126208000Y-106390000D01*
X128808000Y-101090000D02*
X128808000Y-106390000D01*
G04 #@! TO.C,D2*
X113780000Y-107130000D02*
X112580000Y-107130000D01*
X113780000Y-106230000D02*
X112580000Y-106230000D01*
X113780000Y-107130000D02*
X113780000Y-106230000D01*
G04 #@! TO.C,D1*
X113780000Y-94430000D02*
X113780000Y-93530000D01*
X113780000Y-93530000D02*
X112580000Y-93530000D01*
X113780000Y-94430000D02*
X112580000Y-94430000D01*
G04 #@! TO.C,F1*
X148590000Y-102870000D02*
X139319000Y-102870000D01*
X139319000Y-97790000D02*
X148590000Y-97790000D01*
X146177000Y-100330000D02*
X141732000Y-100330000D01*
X148971000Y-103759000D02*
X156718000Y-103759000D01*
X148971000Y-101981000D02*
X148971000Y-103751000D01*
X156718000Y-96901000D02*
X148971000Y-96901000D01*
X156718000Y-103751000D02*
X156718000Y-101981000D01*
X148971000Y-98679000D02*
X148971000Y-96901000D01*
X156718000Y-96901000D02*
X156718000Y-98679000D01*
X131191000Y-98679000D02*
X131191000Y-96901000D01*
X131191000Y-101981000D02*
X131191000Y-103751000D01*
X138938000Y-96901000D02*
X131191000Y-96901000D01*
X138938000Y-96901000D02*
X138938000Y-98679000D01*
X131191000Y-103759000D02*
X138938000Y-103759000D01*
X138938000Y-103751000D02*
X138938000Y-101981000D01*
D13*
G04 #@! TO.C,CN3*
X188264800Y-73482200D02*
X186944000Y-73482200D01*
X188264800Y-74803000D02*
X188264800Y-73482200D01*
X188087000Y-73660000D02*
X188087000Y-91567000D01*
X110490000Y-73660000D02*
X188087000Y-73660000D01*
X110490000Y-91567000D02*
X110490000Y-73660000D01*
X188087000Y-91567000D02*
X110490000Y-91567000D01*
G04 #@! TO.C,CN4*
X110490000Y-108458000D02*
X188087000Y-108458000D01*
X188087000Y-108458000D02*
X188087000Y-126365000D01*
X188087000Y-126365000D02*
X110490000Y-126365000D01*
X110490000Y-126365000D02*
X110490000Y-108458000D01*
X110312200Y-125222000D02*
X110312200Y-126542800D01*
X110312200Y-126542800D02*
X111633000Y-126542800D01*
G04 #@! TO.C,D8*
D14*
X186078904Y-95067380D02*
X186078904Y-94067380D01*
X186317000Y-94067380D01*
X186459857Y-94115000D01*
X186555095Y-94210238D01*
X186602714Y-94305476D01*
X186650333Y-94495952D01*
X186650333Y-94638809D01*
X186602714Y-94829285D01*
X186555095Y-94924523D01*
X186459857Y-95019761D01*
X186317000Y-95067380D01*
X186078904Y-95067380D01*
X187221761Y-94495952D02*
X187126523Y-94448333D01*
X187078904Y-94400714D01*
X187031285Y-94305476D01*
X187031285Y-94257857D01*
X187078904Y-94162619D01*
X187126523Y-94115000D01*
X187221761Y-94067380D01*
X187412238Y-94067380D01*
X187507476Y-94115000D01*
X187555095Y-94162619D01*
X187602714Y-94257857D01*
X187602714Y-94305476D01*
X187555095Y-94400714D01*
X187507476Y-94448333D01*
X187412238Y-94495952D01*
X187221761Y-94495952D01*
X187126523Y-94543571D01*
X187078904Y-94591190D01*
X187031285Y-94686428D01*
X187031285Y-94876904D01*
X187078904Y-94972142D01*
X187126523Y-95019761D01*
X187221761Y-95067380D01*
X187412238Y-95067380D01*
X187507476Y-95019761D01*
X187555095Y-94972142D01*
X187602714Y-94876904D01*
X187602714Y-94686428D01*
X187555095Y-94591190D01*
X187507476Y-94543571D01*
X187412238Y-94495952D01*
X189625095Y-96972380D02*
X189625095Y-95972380D01*
X190196523Y-96972380D02*
X189767952Y-96400952D01*
X190196523Y-95972380D02*
X189625095Y-96543809D01*
G04 #@! TO.C,TP12*
D13*
X192021666Y-90116666D02*
X192021666Y-89716666D01*
X192721666Y-89916666D02*
X192021666Y-89916666D01*
X192721666Y-89483333D02*
X192021666Y-89483333D01*
X192021666Y-89216666D01*
X192055000Y-89150000D01*
X192088333Y-89116666D01*
X192155000Y-89083333D01*
X192255000Y-89083333D01*
X192321666Y-89116666D01*
X192355000Y-89150000D01*
X192388333Y-89216666D01*
X192388333Y-89483333D01*
X192721666Y-88416666D02*
X192721666Y-88816666D01*
X192721666Y-88616666D02*
X192021666Y-88616666D01*
X192121666Y-88683333D01*
X192188333Y-88750000D01*
X192221666Y-88816666D01*
X192088333Y-88150000D02*
X192055000Y-88116666D01*
X192021666Y-88050000D01*
X192021666Y-87883333D01*
X192055000Y-87816666D01*
X192088333Y-87783333D01*
X192155000Y-87750000D01*
X192221666Y-87750000D01*
X192321666Y-87783333D01*
X192721666Y-88183333D01*
X192721666Y-87750000D01*
X191166000Y-89433333D02*
X191132666Y-89500000D01*
X191132666Y-89600000D01*
X191166000Y-89700000D01*
X191232666Y-89766666D01*
X191299333Y-89800000D01*
X191432666Y-89833333D01*
X191532666Y-89833333D01*
X191666000Y-89800000D01*
X191732666Y-89766666D01*
X191799333Y-89700000D01*
X191832666Y-89600000D01*
X191832666Y-89533333D01*
X191799333Y-89433333D01*
X191766000Y-89400000D01*
X191532666Y-89400000D01*
X191532666Y-89533333D01*
X191832666Y-89100000D02*
X191132666Y-89100000D01*
X191832666Y-88700000D01*
X191132666Y-88700000D01*
X191832666Y-88366666D02*
X191132666Y-88366666D01*
X191132666Y-88200000D01*
X191166000Y-88100000D01*
X191232666Y-88033333D01*
X191299333Y-88000000D01*
X191432666Y-87966666D01*
X191532666Y-87966666D01*
X191666000Y-88000000D01*
X191732666Y-88033333D01*
X191799333Y-88100000D01*
X191832666Y-88200000D01*
X191832666Y-88366666D01*
G04 #@! TO.C,TP10*
X191894666Y-100276666D02*
X191894666Y-99876666D01*
X192594666Y-100076666D02*
X191894666Y-100076666D01*
X192594666Y-99643333D02*
X191894666Y-99643333D01*
X191894666Y-99376666D01*
X191928000Y-99310000D01*
X191961333Y-99276666D01*
X192028000Y-99243333D01*
X192128000Y-99243333D01*
X192194666Y-99276666D01*
X192228000Y-99310000D01*
X192261333Y-99376666D01*
X192261333Y-99643333D01*
X192594666Y-98576666D02*
X192594666Y-98976666D01*
X192594666Y-98776666D02*
X191894666Y-98776666D01*
X191994666Y-98843333D01*
X192061333Y-98910000D01*
X192094666Y-98976666D01*
X191894666Y-98143333D02*
X191894666Y-98076666D01*
X191928000Y-98010000D01*
X191961333Y-97976666D01*
X192028000Y-97943333D01*
X192161333Y-97910000D01*
X192328000Y-97910000D01*
X192461333Y-97943333D01*
X192528000Y-97976666D01*
X192561333Y-98010000D01*
X192594666Y-98076666D01*
X192594666Y-98143333D01*
X192561333Y-98210000D01*
X192528000Y-98243333D01*
X192461333Y-98276666D01*
X192328000Y-98310000D01*
X192161333Y-98310000D01*
X192028000Y-98276666D01*
X191961333Y-98243333D01*
X191928000Y-98210000D01*
X191894666Y-98143333D01*
X191039000Y-99593333D02*
X191005666Y-99660000D01*
X191005666Y-99760000D01*
X191039000Y-99860000D01*
X191105666Y-99926666D01*
X191172333Y-99960000D01*
X191305666Y-99993333D01*
X191405666Y-99993333D01*
X191539000Y-99960000D01*
X191605666Y-99926666D01*
X191672333Y-99860000D01*
X191705666Y-99760000D01*
X191705666Y-99693333D01*
X191672333Y-99593333D01*
X191639000Y-99560000D01*
X191405666Y-99560000D01*
X191405666Y-99693333D01*
X191705666Y-99260000D02*
X191005666Y-99260000D01*
X191705666Y-98860000D01*
X191005666Y-98860000D01*
X191705666Y-98526666D02*
X191005666Y-98526666D01*
X191005666Y-98360000D01*
X191039000Y-98260000D01*
X191105666Y-98193333D01*
X191172333Y-98160000D01*
X191305666Y-98126666D01*
X191405666Y-98126666D01*
X191539000Y-98160000D01*
X191605666Y-98193333D01*
X191672333Y-98260000D01*
X191705666Y-98360000D01*
X191705666Y-98526666D01*
G04 #@! TO.C,TP9*
X191894666Y-105023333D02*
X191894666Y-104623333D01*
X192594666Y-104823333D02*
X191894666Y-104823333D01*
X192594666Y-104390000D02*
X191894666Y-104390000D01*
X191894666Y-104123333D01*
X191928000Y-104056666D01*
X191961333Y-104023333D01*
X192028000Y-103990000D01*
X192128000Y-103990000D01*
X192194666Y-104023333D01*
X192228000Y-104056666D01*
X192261333Y-104123333D01*
X192261333Y-104390000D01*
X192594666Y-103656666D02*
X192594666Y-103523333D01*
X192561333Y-103456666D01*
X192528000Y-103423333D01*
X192428000Y-103356666D01*
X192294666Y-103323333D01*
X192028000Y-103323333D01*
X191961333Y-103356666D01*
X191928000Y-103390000D01*
X191894666Y-103456666D01*
X191894666Y-103590000D01*
X191928000Y-103656666D01*
X191961333Y-103690000D01*
X192028000Y-103723333D01*
X192194666Y-103723333D01*
X192261333Y-103690000D01*
X192294666Y-103656666D01*
X192328000Y-103590000D01*
X192328000Y-103456666D01*
X192294666Y-103390000D01*
X192261333Y-103356666D01*
X192194666Y-103323333D01*
X191005666Y-105106666D02*
X191005666Y-104973333D01*
X191039000Y-104906666D01*
X191105666Y-104840000D01*
X191239000Y-104806666D01*
X191472333Y-104806666D01*
X191605666Y-104840000D01*
X191672333Y-104906666D01*
X191705666Y-104973333D01*
X191705666Y-105106666D01*
X191672333Y-105173333D01*
X191605666Y-105240000D01*
X191472333Y-105273333D01*
X191239000Y-105273333D01*
X191105666Y-105240000D01*
X191039000Y-105173333D01*
X191005666Y-105106666D01*
X191005666Y-104606666D02*
X191705666Y-104373333D01*
X191005666Y-104140000D01*
X191772333Y-104073333D02*
X191772333Y-103540000D01*
X191005666Y-103440000D02*
X191005666Y-102973333D01*
X191705666Y-103440000D01*
X191705666Y-102973333D01*
G04 #@! TO.C,TP8*
X191767666Y-110103333D02*
X191767666Y-109703333D01*
X192467666Y-109903333D02*
X191767666Y-109903333D01*
X192467666Y-109470000D02*
X191767666Y-109470000D01*
X191767666Y-109203333D01*
X191801000Y-109136666D01*
X191834333Y-109103333D01*
X191901000Y-109070000D01*
X192001000Y-109070000D01*
X192067666Y-109103333D01*
X192101000Y-109136666D01*
X192134333Y-109203333D01*
X192134333Y-109470000D01*
X192067666Y-108670000D02*
X192034333Y-108736666D01*
X192001000Y-108770000D01*
X191934333Y-108803333D01*
X191901000Y-108803333D01*
X191834333Y-108770000D01*
X191801000Y-108736666D01*
X191767666Y-108670000D01*
X191767666Y-108536666D01*
X191801000Y-108470000D01*
X191834333Y-108436666D01*
X191901000Y-108403333D01*
X191934333Y-108403333D01*
X192001000Y-108436666D01*
X192034333Y-108470000D01*
X192067666Y-108536666D01*
X192067666Y-108670000D01*
X192101000Y-108736666D01*
X192134333Y-108770000D01*
X192201000Y-108803333D01*
X192334333Y-108803333D01*
X192401000Y-108770000D01*
X192434333Y-108736666D01*
X192467666Y-108670000D01*
X192467666Y-108536666D01*
X192434333Y-108470000D01*
X192401000Y-108436666D01*
X192334333Y-108403333D01*
X192201000Y-108403333D01*
X192134333Y-108436666D01*
X192101000Y-108470000D01*
X192067666Y-108536666D01*
X190912000Y-109753333D02*
X190878666Y-109820000D01*
X190878666Y-109920000D01*
X190912000Y-110020000D01*
X190978666Y-110086666D01*
X191045333Y-110120000D01*
X191178666Y-110153333D01*
X191278666Y-110153333D01*
X191412000Y-110120000D01*
X191478666Y-110086666D01*
X191545333Y-110020000D01*
X191578666Y-109920000D01*
X191578666Y-109853333D01*
X191545333Y-109753333D01*
X191512000Y-109720000D01*
X191278666Y-109720000D01*
X191278666Y-109853333D01*
X191578666Y-109420000D02*
X190878666Y-109420000D01*
X191578666Y-109020000D01*
X190878666Y-109020000D01*
X191578666Y-108686666D02*
X190878666Y-108686666D01*
X190878666Y-108520000D01*
X190912000Y-108420000D01*
X190978666Y-108353333D01*
X191045333Y-108320000D01*
X191178666Y-108286666D01*
X191278666Y-108286666D01*
X191412000Y-108320000D01*
X191478666Y-108353333D01*
X191545333Y-108420000D01*
X191578666Y-108520000D01*
X191578666Y-108686666D01*
G04 #@! TO.C,TP11*
X191894666Y-95196666D02*
X191894666Y-94796666D01*
X192594666Y-94996666D02*
X191894666Y-94996666D01*
X192594666Y-94563333D02*
X191894666Y-94563333D01*
X191894666Y-94296666D01*
X191928000Y-94230000D01*
X191961333Y-94196666D01*
X192028000Y-94163333D01*
X192128000Y-94163333D01*
X192194666Y-94196666D01*
X192228000Y-94230000D01*
X192261333Y-94296666D01*
X192261333Y-94563333D01*
X192594666Y-93496666D02*
X192594666Y-93896666D01*
X192594666Y-93696666D02*
X191894666Y-93696666D01*
X191994666Y-93763333D01*
X192061333Y-93830000D01*
X192094666Y-93896666D01*
X192594666Y-92830000D02*
X192594666Y-93230000D01*
X192594666Y-93030000D02*
X191894666Y-93030000D01*
X191994666Y-93096666D01*
X192061333Y-93163333D01*
X192094666Y-93230000D01*
X191005666Y-95746666D02*
X191005666Y-95613333D01*
X191039000Y-95546666D01*
X191105666Y-95480000D01*
X191239000Y-95446666D01*
X191472333Y-95446666D01*
X191605666Y-95480000D01*
X191672333Y-95546666D01*
X191705666Y-95613333D01*
X191705666Y-95746666D01*
X191672333Y-95813333D01*
X191605666Y-95880000D01*
X191472333Y-95913333D01*
X191239000Y-95913333D01*
X191105666Y-95880000D01*
X191039000Y-95813333D01*
X191005666Y-95746666D01*
X191005666Y-95246666D02*
X191705666Y-95013333D01*
X191005666Y-94780000D01*
X191772333Y-94713333D02*
X191772333Y-94180000D01*
X191005666Y-94113333D02*
X191005666Y-93713333D01*
X191705666Y-93913333D02*
X191005666Y-93913333D01*
X191705666Y-93080000D02*
X191372333Y-93313333D01*
X191705666Y-93480000D02*
X191005666Y-93480000D01*
X191005666Y-93213333D01*
X191039000Y-93146666D01*
X191072333Y-93113333D01*
X191139000Y-93080000D01*
X191239000Y-93080000D01*
X191305666Y-93113333D01*
X191339000Y-93146666D01*
X191372333Y-93213333D01*
X191372333Y-93480000D01*
X191705666Y-92780000D02*
X191005666Y-92780000D01*
X191039000Y-92080000D02*
X191005666Y-92146666D01*
X191005666Y-92246666D01*
X191039000Y-92346666D01*
X191105666Y-92413333D01*
X191172333Y-92446666D01*
X191305666Y-92480000D01*
X191405666Y-92480000D01*
X191539000Y-92446666D01*
X191605666Y-92413333D01*
X191672333Y-92346666D01*
X191705666Y-92246666D01*
X191705666Y-92180000D01*
X191672333Y-92080000D01*
X191639000Y-92046666D01*
X191405666Y-92046666D01*
X191405666Y-92180000D01*
G04 #@! TO.C,TP7*
X191767666Y-115183333D02*
X191767666Y-114783333D01*
X192467666Y-114983333D02*
X191767666Y-114983333D01*
X192467666Y-114550000D02*
X191767666Y-114550000D01*
X191767666Y-114283333D01*
X191801000Y-114216666D01*
X191834333Y-114183333D01*
X191901000Y-114150000D01*
X192001000Y-114150000D01*
X192067666Y-114183333D01*
X192101000Y-114216666D01*
X192134333Y-114283333D01*
X192134333Y-114550000D01*
X191767666Y-113916666D02*
X191767666Y-113450000D01*
X192467666Y-113750000D01*
X191312000Y-115533333D02*
X191312000Y-115000000D01*
X191578666Y-115266666D02*
X191045333Y-115266666D01*
X191578666Y-114300000D02*
X191578666Y-114700000D01*
X191578666Y-114500000D02*
X190878666Y-114500000D01*
X190978666Y-114566666D01*
X191045333Y-114633333D01*
X191078666Y-114700000D01*
X190945333Y-114033333D02*
X190912000Y-114000000D01*
X190878666Y-113933333D01*
X190878666Y-113766666D01*
X190912000Y-113700000D01*
X190945333Y-113666666D01*
X191012000Y-113633333D01*
X191078666Y-113633333D01*
X191178666Y-113666666D01*
X191578666Y-114066666D01*
X191578666Y-113633333D01*
X190878666Y-113433333D02*
X191578666Y-113200000D01*
X190878666Y-112966666D01*
G04 #@! TO.C,TP6*
X105915666Y-103753333D02*
X105915666Y-103353333D01*
X106615666Y-103553333D02*
X105915666Y-103553333D01*
X106615666Y-103120000D02*
X105915666Y-103120000D01*
X105915666Y-102853333D01*
X105949000Y-102786666D01*
X105982333Y-102753333D01*
X106049000Y-102720000D01*
X106149000Y-102720000D01*
X106215666Y-102753333D01*
X106249000Y-102786666D01*
X106282333Y-102853333D01*
X106282333Y-103120000D01*
X105915666Y-102120000D02*
X105915666Y-102253333D01*
X105949000Y-102320000D01*
X105982333Y-102353333D01*
X106082333Y-102420000D01*
X106215666Y-102453333D01*
X106482333Y-102453333D01*
X106549000Y-102420000D01*
X106582333Y-102386666D01*
X106615666Y-102320000D01*
X106615666Y-102186666D01*
X106582333Y-102120000D01*
X106549000Y-102086666D01*
X106482333Y-102053333D01*
X106315666Y-102053333D01*
X106249000Y-102086666D01*
X106215666Y-102120000D01*
X106182333Y-102186666D01*
X106182333Y-102320000D01*
X106215666Y-102386666D01*
X106249000Y-102420000D01*
X106315666Y-102453333D01*
X106838000Y-103403333D02*
X106804666Y-103470000D01*
X106804666Y-103570000D01*
X106838000Y-103670000D01*
X106904666Y-103736666D01*
X106971333Y-103770000D01*
X107104666Y-103803333D01*
X107204666Y-103803333D01*
X107338000Y-103770000D01*
X107404666Y-103736666D01*
X107471333Y-103670000D01*
X107504666Y-103570000D01*
X107504666Y-103503333D01*
X107471333Y-103403333D01*
X107438000Y-103370000D01*
X107204666Y-103370000D01*
X107204666Y-103503333D01*
X107504666Y-103070000D02*
X106804666Y-103070000D01*
X107504666Y-102670000D01*
X106804666Y-102670000D01*
X107504666Y-102336666D02*
X106804666Y-102336666D01*
X106804666Y-102170000D01*
X106838000Y-102070000D01*
X106904666Y-102003333D01*
X106971333Y-101970000D01*
X107104666Y-101936666D01*
X107204666Y-101936666D01*
X107338000Y-101970000D01*
X107404666Y-102003333D01*
X107471333Y-102070000D01*
X107504666Y-102170000D01*
X107504666Y-102336666D01*
G04 #@! TO.C,TP5*
X105915666Y-98673333D02*
X105915666Y-98273333D01*
X106615666Y-98473333D02*
X105915666Y-98473333D01*
X106615666Y-98040000D02*
X105915666Y-98040000D01*
X105915666Y-97773333D01*
X105949000Y-97706666D01*
X105982333Y-97673333D01*
X106049000Y-97640000D01*
X106149000Y-97640000D01*
X106215666Y-97673333D01*
X106249000Y-97706666D01*
X106282333Y-97773333D01*
X106282333Y-98040000D01*
X105915666Y-97006666D02*
X105915666Y-97340000D01*
X106249000Y-97373333D01*
X106215666Y-97340000D01*
X106182333Y-97273333D01*
X106182333Y-97106666D01*
X106215666Y-97040000D01*
X106249000Y-97006666D01*
X106315666Y-96973333D01*
X106482333Y-96973333D01*
X106549000Y-97006666D01*
X106582333Y-97040000D01*
X106615666Y-97106666D01*
X106615666Y-97273333D01*
X106582333Y-97340000D01*
X106549000Y-97373333D01*
X107238000Y-100656666D02*
X107238000Y-100123333D01*
X107504666Y-100390000D02*
X106971333Y-100390000D01*
X107504666Y-99423333D02*
X107504666Y-99823333D01*
X107504666Y-99623333D02*
X106804666Y-99623333D01*
X106904666Y-99690000D01*
X106971333Y-99756666D01*
X107004666Y-99823333D01*
X106871333Y-99156666D02*
X106838000Y-99123333D01*
X106804666Y-99056666D01*
X106804666Y-98890000D01*
X106838000Y-98823333D01*
X106871333Y-98790000D01*
X106938000Y-98756666D01*
X107004666Y-98756666D01*
X107104666Y-98790000D01*
X107504666Y-99190000D01*
X107504666Y-98756666D01*
X106804666Y-98556666D02*
X107504666Y-98323333D01*
X106804666Y-98090000D01*
X107571333Y-98023333D02*
X107571333Y-97490000D01*
X106804666Y-97323333D02*
X107371333Y-97323333D01*
X107438000Y-97290000D01*
X107471333Y-97256666D01*
X107504666Y-97190000D01*
X107504666Y-97056666D01*
X107471333Y-96990000D01*
X107438000Y-96956666D01*
X107371333Y-96923333D01*
X106804666Y-96923333D01*
X107504666Y-96590000D02*
X106804666Y-96590000D01*
X107504666Y-96190000D01*
X106804666Y-96190000D01*
X107138000Y-95623333D02*
X107138000Y-95856666D01*
X107504666Y-95856666D02*
X106804666Y-95856666D01*
X106804666Y-95523333D01*
X107471333Y-95290000D02*
X107504666Y-95190000D01*
X107504666Y-95023333D01*
X107471333Y-94956666D01*
X107438000Y-94923333D01*
X107371333Y-94890000D01*
X107304666Y-94890000D01*
X107238000Y-94923333D01*
X107204666Y-94956666D01*
X107171333Y-95023333D01*
X107138000Y-95156666D01*
X107104666Y-95223333D01*
X107071333Y-95256666D01*
X107004666Y-95290000D01*
X106938000Y-95290000D01*
X106871333Y-95256666D01*
X106838000Y-95223333D01*
X106804666Y-95156666D01*
X106804666Y-94990000D01*
X106838000Y-94890000D01*
G04 #@! TO.C,TP4*
X105915666Y-116453333D02*
X105915666Y-116053333D01*
X106615666Y-116253333D02*
X105915666Y-116253333D01*
X106615666Y-115820000D02*
X105915666Y-115820000D01*
X105915666Y-115553333D01*
X105949000Y-115486666D01*
X105982333Y-115453333D01*
X106049000Y-115420000D01*
X106149000Y-115420000D01*
X106215666Y-115453333D01*
X106249000Y-115486666D01*
X106282333Y-115553333D01*
X106282333Y-115820000D01*
X106149000Y-114820000D02*
X106615666Y-114820000D01*
X105882333Y-114986666D02*
X106382333Y-115153333D01*
X106382333Y-114720000D01*
X106838000Y-116103333D02*
X106804666Y-116170000D01*
X106804666Y-116270000D01*
X106838000Y-116370000D01*
X106904666Y-116436666D01*
X106971333Y-116470000D01*
X107104666Y-116503333D01*
X107204666Y-116503333D01*
X107338000Y-116470000D01*
X107404666Y-116436666D01*
X107471333Y-116370000D01*
X107504666Y-116270000D01*
X107504666Y-116203333D01*
X107471333Y-116103333D01*
X107438000Y-116070000D01*
X107204666Y-116070000D01*
X107204666Y-116203333D01*
X107504666Y-115770000D02*
X106804666Y-115770000D01*
X107504666Y-115370000D01*
X106804666Y-115370000D01*
X107504666Y-115036666D02*
X106804666Y-115036666D01*
X106804666Y-114870000D01*
X106838000Y-114770000D01*
X106904666Y-114703333D01*
X106971333Y-114670000D01*
X107104666Y-114636666D01*
X107204666Y-114636666D01*
X107338000Y-114670000D01*
X107404666Y-114703333D01*
X107471333Y-114770000D01*
X107504666Y-114870000D01*
X107504666Y-115036666D01*
G04 #@! TO.C,TP3*
X105915666Y-111373333D02*
X105915666Y-110973333D01*
X106615666Y-111173333D02*
X105915666Y-111173333D01*
X106615666Y-110740000D02*
X105915666Y-110740000D01*
X105915666Y-110473333D01*
X105949000Y-110406666D01*
X105982333Y-110373333D01*
X106049000Y-110340000D01*
X106149000Y-110340000D01*
X106215666Y-110373333D01*
X106249000Y-110406666D01*
X106282333Y-110473333D01*
X106282333Y-110740000D01*
X105915666Y-110106666D02*
X105915666Y-109673333D01*
X106182333Y-109906666D01*
X106182333Y-109806666D01*
X106215666Y-109740000D01*
X106249000Y-109706666D01*
X106315666Y-109673333D01*
X106482333Y-109673333D01*
X106549000Y-109706666D01*
X106582333Y-109740000D01*
X106615666Y-109806666D01*
X106615666Y-110006666D01*
X106582333Y-110073333D01*
X106549000Y-110106666D01*
X107238000Y-113140000D02*
X107238000Y-112606666D01*
X107504666Y-112873333D02*
X106971333Y-112873333D01*
X107504666Y-111906666D02*
X107504666Y-112306666D01*
X107504666Y-112106666D02*
X106804666Y-112106666D01*
X106904666Y-112173333D01*
X106971333Y-112240000D01*
X107004666Y-112306666D01*
X106871333Y-111640000D02*
X106838000Y-111606666D01*
X106804666Y-111540000D01*
X106804666Y-111373333D01*
X106838000Y-111306666D01*
X106871333Y-111273333D01*
X106938000Y-111240000D01*
X107004666Y-111240000D01*
X107104666Y-111273333D01*
X107504666Y-111673333D01*
X107504666Y-111240000D01*
X106804666Y-111040000D02*
X107504666Y-110806666D01*
X106804666Y-110573333D01*
X107571333Y-110506666D02*
X107571333Y-109973333D01*
X107504666Y-109806666D02*
X106804666Y-109806666D01*
X107504666Y-109473333D02*
X106804666Y-109473333D01*
X107504666Y-109073333D01*
X106804666Y-109073333D01*
X107571333Y-108906666D02*
X107571333Y-108373333D01*
X107138000Y-107973333D02*
X107171333Y-107873333D01*
X107204666Y-107840000D01*
X107271333Y-107806666D01*
X107371333Y-107806666D01*
X107438000Y-107840000D01*
X107471333Y-107873333D01*
X107504666Y-107940000D01*
X107504666Y-108206666D01*
X106804666Y-108206666D01*
X106804666Y-107973333D01*
X106838000Y-107906666D01*
X106871333Y-107873333D01*
X106938000Y-107840000D01*
X107004666Y-107840000D01*
X107071333Y-107873333D01*
X107104666Y-107906666D01*
X107138000Y-107973333D01*
X107138000Y-108206666D01*
G04 #@! TO.C,TP2*
X105915666Y-85973333D02*
X105915666Y-85573333D01*
X106615666Y-85773333D02*
X105915666Y-85773333D01*
X106615666Y-85340000D02*
X105915666Y-85340000D01*
X105915666Y-85073333D01*
X105949000Y-85006666D01*
X105982333Y-84973333D01*
X106049000Y-84940000D01*
X106149000Y-84940000D01*
X106215666Y-84973333D01*
X106249000Y-85006666D01*
X106282333Y-85073333D01*
X106282333Y-85340000D01*
X105982333Y-84673333D02*
X105949000Y-84640000D01*
X105915666Y-84573333D01*
X105915666Y-84406666D01*
X105949000Y-84340000D01*
X105982333Y-84306666D01*
X106049000Y-84273333D01*
X106115666Y-84273333D01*
X106215666Y-84306666D01*
X106615666Y-84706666D01*
X106615666Y-84273333D01*
X106838000Y-85623333D02*
X106804666Y-85690000D01*
X106804666Y-85790000D01*
X106838000Y-85890000D01*
X106904666Y-85956666D01*
X106971333Y-85990000D01*
X107104666Y-86023333D01*
X107204666Y-86023333D01*
X107338000Y-85990000D01*
X107404666Y-85956666D01*
X107471333Y-85890000D01*
X107504666Y-85790000D01*
X107504666Y-85723333D01*
X107471333Y-85623333D01*
X107438000Y-85590000D01*
X107204666Y-85590000D01*
X107204666Y-85723333D01*
X107504666Y-85290000D02*
X106804666Y-85290000D01*
X107504666Y-84890000D01*
X106804666Y-84890000D01*
X107504666Y-84556666D02*
X106804666Y-84556666D01*
X106804666Y-84390000D01*
X106838000Y-84290000D01*
X106904666Y-84223333D01*
X106971333Y-84190000D01*
X107104666Y-84156666D01*
X107204666Y-84156666D01*
X107338000Y-84190000D01*
X107404666Y-84223333D01*
X107471333Y-84290000D01*
X107504666Y-84390000D01*
X107504666Y-84556666D01*
G04 #@! TO.C,TP1*
X105915666Y-91053333D02*
X105915666Y-90653333D01*
X106615666Y-90853333D02*
X105915666Y-90853333D01*
X106615666Y-90420000D02*
X105915666Y-90420000D01*
X105915666Y-90153333D01*
X105949000Y-90086666D01*
X105982333Y-90053333D01*
X106049000Y-90020000D01*
X106149000Y-90020000D01*
X106215666Y-90053333D01*
X106249000Y-90086666D01*
X106282333Y-90153333D01*
X106282333Y-90420000D01*
X106615666Y-89353333D02*
X106615666Y-89753333D01*
X106615666Y-89553333D02*
X105915666Y-89553333D01*
X106015666Y-89620000D01*
X106082333Y-89686666D01*
X106115666Y-89753333D01*
X107238000Y-92770000D02*
X107238000Y-92236666D01*
X107504666Y-92503333D02*
X106971333Y-92503333D01*
X107504666Y-91536666D02*
X107504666Y-91936666D01*
X107504666Y-91736666D02*
X106804666Y-91736666D01*
X106904666Y-91803333D01*
X106971333Y-91870000D01*
X107004666Y-91936666D01*
X106871333Y-91270000D02*
X106838000Y-91236666D01*
X106804666Y-91170000D01*
X106804666Y-91003333D01*
X106838000Y-90936666D01*
X106871333Y-90903333D01*
X106938000Y-90870000D01*
X107004666Y-90870000D01*
X107104666Y-90903333D01*
X107504666Y-91303333D01*
X107504666Y-90870000D01*
X106804666Y-90670000D02*
X107504666Y-90436666D01*
X106804666Y-90203333D01*
X107571333Y-90136666D02*
X107571333Y-89603333D01*
X107504666Y-89436666D02*
X106804666Y-89436666D01*
X107504666Y-89103333D02*
X106804666Y-89103333D01*
X107504666Y-88703333D01*
X106804666Y-88703333D01*
X107571333Y-88536666D02*
X107571333Y-88003333D01*
X107304666Y-87870000D02*
X107304666Y-87536666D01*
X107504666Y-87936666D02*
X106804666Y-87703333D01*
X107504666Y-87470000D01*
G04 #@! TO.C,Q1*
D14*
X162972761Y-94654619D02*
X162877523Y-94607000D01*
X162782285Y-94511761D01*
X162639428Y-94368904D01*
X162544190Y-94321285D01*
X162448952Y-94321285D01*
X162496571Y-94559380D02*
X162401333Y-94511761D01*
X162306095Y-94416523D01*
X162258476Y-94226047D01*
X162258476Y-93892714D01*
X162306095Y-93702238D01*
X162401333Y-93607000D01*
X162496571Y-93559380D01*
X162687047Y-93559380D01*
X162782285Y-93607000D01*
X162877523Y-93702238D01*
X162925142Y-93892714D01*
X162925142Y-94226047D01*
X162877523Y-94416523D01*
X162782285Y-94511761D01*
X162687047Y-94559380D01*
X162496571Y-94559380D01*
X163877523Y-94559380D02*
X163306095Y-94559380D01*
X163591809Y-94559380D02*
X163591809Y-93559380D01*
X163496571Y-93702238D01*
X163401333Y-93797476D01*
X163306095Y-93845095D01*
G04 #@! TO.C,C4*
X187793333Y-101322142D02*
X187745714Y-101369761D01*
X187602857Y-101417380D01*
X187507619Y-101417380D01*
X187364761Y-101369761D01*
X187269523Y-101274523D01*
X187221904Y-101179285D01*
X187174285Y-100988809D01*
X187174285Y-100845952D01*
X187221904Y-100655476D01*
X187269523Y-100560238D01*
X187364761Y-100465000D01*
X187507619Y-100417380D01*
X187602857Y-100417380D01*
X187745714Y-100465000D01*
X187793333Y-100512619D01*
X188650476Y-100750714D02*
X188650476Y-101417380D01*
X188412380Y-100369761D02*
X188174285Y-101084047D01*
X188793333Y-101084047D01*
G04 #@! TO.C,C2*
X124166333Y-101576142D02*
X124118714Y-101623761D01*
X123975857Y-101671380D01*
X123880619Y-101671380D01*
X123737761Y-101623761D01*
X123642523Y-101528523D01*
X123594904Y-101433285D01*
X123547285Y-101242809D01*
X123547285Y-101099952D01*
X123594904Y-100909476D01*
X123642523Y-100814238D01*
X123737761Y-100719000D01*
X123880619Y-100671380D01*
X123975857Y-100671380D01*
X124118714Y-100719000D01*
X124166333Y-100766619D01*
X124547285Y-100766619D02*
X124594904Y-100719000D01*
X124690142Y-100671380D01*
X124928238Y-100671380D01*
X125023476Y-100719000D01*
X125071095Y-100766619D01*
X125118714Y-100861857D01*
X125118714Y-100957095D01*
X125071095Y-101099952D01*
X124499666Y-101671380D01*
X125118714Y-101671380D01*
G04 #@! TO.C,C1*
X119467333Y-93702142D02*
X119419714Y-93749761D01*
X119276857Y-93797380D01*
X119181619Y-93797380D01*
X119038761Y-93749761D01*
X118943523Y-93654523D01*
X118895904Y-93559285D01*
X118848285Y-93368809D01*
X118848285Y-93225952D01*
X118895904Y-93035476D01*
X118943523Y-92940238D01*
X119038761Y-92845000D01*
X119181619Y-92797380D01*
X119276857Y-92797380D01*
X119419714Y-92845000D01*
X119467333Y-92892619D01*
X120419714Y-93797380D02*
X119848285Y-93797380D01*
X120134000Y-93797380D02*
X120134000Y-92797380D01*
X120038761Y-92940238D01*
X119943523Y-93035476D01*
X119848285Y-93083095D01*
G04 #@! TO.C,C3*
X148423333Y-95987142D02*
X148375714Y-96034761D01*
X148232857Y-96082380D01*
X148137619Y-96082380D01*
X147994761Y-96034761D01*
X147899523Y-95939523D01*
X147851904Y-95844285D01*
X147804285Y-95653809D01*
X147804285Y-95510952D01*
X147851904Y-95320476D01*
X147899523Y-95225238D01*
X147994761Y-95130000D01*
X148137619Y-95082380D01*
X148232857Y-95082380D01*
X148375714Y-95130000D01*
X148423333Y-95177619D01*
X148756666Y-95082380D02*
X149375714Y-95082380D01*
X149042380Y-95463333D01*
X149185238Y-95463333D01*
X149280476Y-95510952D01*
X149328095Y-95558571D01*
X149375714Y-95653809D01*
X149375714Y-95891904D01*
X149328095Y-95987142D01*
X149280476Y-96034761D01*
X149185238Y-96082380D01*
X148899523Y-96082380D01*
X148804285Y-96034761D01*
X148756666Y-95987142D01*
G04 #@! TO.C,CN1*
X109037523Y-99925142D02*
X108989904Y-99972761D01*
X108847047Y-100020380D01*
X108751809Y-100020380D01*
X108608952Y-99972761D01*
X108513714Y-99877523D01*
X108466095Y-99782285D01*
X108418476Y-99591809D01*
X108418476Y-99448952D01*
X108466095Y-99258476D01*
X108513714Y-99163238D01*
X108608952Y-99068000D01*
X108751809Y-99020380D01*
X108847047Y-99020380D01*
X108989904Y-99068000D01*
X109037523Y-99115619D01*
X109466095Y-100020380D02*
X109466095Y-99020380D01*
X110037523Y-100020380D01*
X110037523Y-99020380D01*
X111037523Y-100020380D02*
X110466095Y-100020380D01*
X110751809Y-100020380D02*
X110751809Y-99020380D01*
X110656571Y-99163238D01*
X110561333Y-99258476D01*
X110466095Y-99306095D01*
G04 #@! TO.C,CN2*
X115641523Y-101576142D02*
X115593904Y-101623761D01*
X115451047Y-101671380D01*
X115355809Y-101671380D01*
X115212952Y-101623761D01*
X115117714Y-101528523D01*
X115070095Y-101433285D01*
X115022476Y-101242809D01*
X115022476Y-101099952D01*
X115070095Y-100909476D01*
X115117714Y-100814238D01*
X115212952Y-100719000D01*
X115355809Y-100671380D01*
X115451047Y-100671380D01*
X115593904Y-100719000D01*
X115641523Y-100766619D01*
X116070095Y-101671380D02*
X116070095Y-100671380D01*
X116641523Y-101671380D01*
X116641523Y-100671380D01*
X117070095Y-100766619D02*
X117117714Y-100719000D01*
X117212952Y-100671380D01*
X117451047Y-100671380D01*
X117546285Y-100719000D01*
X117593904Y-100766619D01*
X117641523Y-100861857D01*
X117641523Y-100957095D01*
X117593904Y-101099952D01*
X117022476Y-101671380D01*
X117641523Y-101671380D01*
G04 #@! TO.C,D3*
X107973904Y-92908380D02*
X107973904Y-91908380D01*
X108212000Y-91908380D01*
X108354857Y-91956000D01*
X108450095Y-92051238D01*
X108497714Y-92146476D01*
X108545333Y-92336952D01*
X108545333Y-92479809D01*
X108497714Y-92670285D01*
X108450095Y-92765523D01*
X108354857Y-92860761D01*
X108212000Y-92908380D01*
X107973904Y-92908380D01*
X108878666Y-91908380D02*
X109497714Y-91908380D01*
X109164380Y-92289333D01*
X109307238Y-92289333D01*
X109402476Y-92336952D01*
X109450095Y-92384571D01*
X109497714Y-92479809D01*
X109497714Y-92717904D01*
X109450095Y-92813142D01*
X109402476Y-92860761D01*
X109307238Y-92908380D01*
X109021523Y-92908380D01*
X108926285Y-92860761D01*
X108878666Y-92813142D01*
G04 #@! TO.C,D4*
X108227904Y-108783380D02*
X108227904Y-107783380D01*
X108466000Y-107783380D01*
X108608857Y-107831000D01*
X108704095Y-107926238D01*
X108751714Y-108021476D01*
X108799333Y-108211952D01*
X108799333Y-108354809D01*
X108751714Y-108545285D01*
X108704095Y-108640523D01*
X108608857Y-108735761D01*
X108466000Y-108783380D01*
X108227904Y-108783380D01*
X109656476Y-108116714D02*
X109656476Y-108783380D01*
X109418380Y-107735761D02*
X109180285Y-108450047D01*
X109799333Y-108450047D01*
G04 #@! TO.C,D7*
X189126904Y-117038380D02*
X189126904Y-116038380D01*
X189365000Y-116038380D01*
X189507857Y-116086000D01*
X189603095Y-116181238D01*
X189650714Y-116276476D01*
X189698333Y-116466952D01*
X189698333Y-116609809D01*
X189650714Y-116800285D01*
X189603095Y-116895523D01*
X189507857Y-116990761D01*
X189365000Y-117038380D01*
X189126904Y-117038380D01*
X190031666Y-116038380D02*
X190698333Y-116038380D01*
X190269761Y-117038380D01*
G04 #@! TO.C,R5*
X187793333Y-103322380D02*
X187460000Y-102846190D01*
X187221904Y-103322380D02*
X187221904Y-102322380D01*
X187602857Y-102322380D01*
X187698095Y-102370000D01*
X187745714Y-102417619D01*
X187793333Y-102512857D01*
X187793333Y-102655714D01*
X187745714Y-102750952D01*
X187698095Y-102798571D01*
X187602857Y-102846190D01*
X187221904Y-102846190D01*
X188698095Y-102322380D02*
X188221904Y-102322380D01*
X188174285Y-102798571D01*
X188221904Y-102750952D01*
X188317142Y-102703333D01*
X188555238Y-102703333D01*
X188650476Y-102750952D01*
X188698095Y-102798571D01*
X188745714Y-102893809D01*
X188745714Y-103131904D01*
X188698095Y-103227142D01*
X188650476Y-103274761D01*
X188555238Y-103322380D01*
X188317142Y-103322380D01*
X188221904Y-103274761D01*
X188174285Y-103227142D01*
G04 #@! TO.C,R4*
X187793333Y-99512380D02*
X187460000Y-99036190D01*
X187221904Y-99512380D02*
X187221904Y-98512380D01*
X187602857Y-98512380D01*
X187698095Y-98560000D01*
X187745714Y-98607619D01*
X187793333Y-98702857D01*
X187793333Y-98845714D01*
X187745714Y-98940952D01*
X187698095Y-98988571D01*
X187602857Y-99036190D01*
X187221904Y-99036190D01*
X188650476Y-98845714D02*
X188650476Y-99512380D01*
X188412380Y-98464761D02*
X188174285Y-99179047D01*
X188793333Y-99179047D01*
G04 #@! TO.C,R2*
X108418333Y-113736380D02*
X108085000Y-113260190D01*
X107846904Y-113736380D02*
X107846904Y-112736380D01*
X108227857Y-112736380D01*
X108323095Y-112784000D01*
X108370714Y-112831619D01*
X108418333Y-112926857D01*
X108418333Y-113069714D01*
X108370714Y-113164952D01*
X108323095Y-113212571D01*
X108227857Y-113260190D01*
X107846904Y-113260190D01*
X108799285Y-112831619D02*
X108846904Y-112784000D01*
X108942142Y-112736380D01*
X109180238Y-112736380D01*
X109275476Y-112784000D01*
X109323095Y-112831619D01*
X109370714Y-112926857D01*
X109370714Y-113022095D01*
X109323095Y-113164952D01*
X108751666Y-113736380D01*
X109370714Y-113736380D01*
G04 #@! TO.C,R1*
X108418333Y-83256380D02*
X108085000Y-82780190D01*
X107846904Y-83256380D02*
X107846904Y-82256380D01*
X108227857Y-82256380D01*
X108323095Y-82304000D01*
X108370714Y-82351619D01*
X108418333Y-82446857D01*
X108418333Y-82589714D01*
X108370714Y-82684952D01*
X108323095Y-82732571D01*
X108227857Y-82780190D01*
X107846904Y-82780190D01*
X109370714Y-83256380D02*
X108799285Y-83256380D01*
X109085000Y-83256380D02*
X109085000Y-82256380D01*
X108989761Y-82399238D01*
X108894523Y-82494476D01*
X108799285Y-82542095D01*
G04 #@! TO.C,R3*
X189698333Y-111958380D02*
X189365000Y-111482190D01*
X189126904Y-111958380D02*
X189126904Y-110958380D01*
X189507857Y-110958380D01*
X189603095Y-111006000D01*
X189650714Y-111053619D01*
X189698333Y-111148857D01*
X189698333Y-111291714D01*
X189650714Y-111386952D01*
X189603095Y-111434571D01*
X189507857Y-111482190D01*
X189126904Y-111482190D01*
X190031666Y-110958380D02*
X190650714Y-110958380D01*
X190317380Y-111339333D01*
X190460238Y-111339333D01*
X190555476Y-111386952D01*
X190603095Y-111434571D01*
X190650714Y-111529809D01*
X190650714Y-111767904D01*
X190603095Y-111863142D01*
X190555476Y-111910761D01*
X190460238Y-111958380D01*
X190174523Y-111958380D01*
X190079285Y-111910761D01*
X190031666Y-111863142D01*
G04 #@! TO.C,D5*
X129182904Y-94686380D02*
X129182904Y-93686380D01*
X129421000Y-93686380D01*
X129563857Y-93734000D01*
X129659095Y-93829238D01*
X129706714Y-93924476D01*
X129754333Y-94114952D01*
X129754333Y-94257809D01*
X129706714Y-94448285D01*
X129659095Y-94543523D01*
X129563857Y-94638761D01*
X129421000Y-94686380D01*
X129182904Y-94686380D01*
X130659095Y-93686380D02*
X130182904Y-93686380D01*
X130135285Y-94162571D01*
X130182904Y-94114952D01*
X130278142Y-94067333D01*
X130516238Y-94067333D01*
X130611476Y-94114952D01*
X130659095Y-94162571D01*
X130706714Y-94257809D01*
X130706714Y-94495904D01*
X130659095Y-94591142D01*
X130611476Y-94638761D01*
X130516238Y-94686380D01*
X130278142Y-94686380D01*
X130182904Y-94638761D01*
X130135285Y-94591142D01*
G04 #@! TO.C,D6*
X129182904Y-106878380D02*
X129182904Y-105878380D01*
X129421000Y-105878380D01*
X129563857Y-105926000D01*
X129659095Y-106021238D01*
X129706714Y-106116476D01*
X129754333Y-106306952D01*
X129754333Y-106449809D01*
X129706714Y-106640285D01*
X129659095Y-106735523D01*
X129563857Y-106830761D01*
X129421000Y-106878380D01*
X129182904Y-106878380D01*
X130611476Y-105878380D02*
X130421000Y-105878380D01*
X130325761Y-105926000D01*
X130278142Y-105973619D01*
X130182904Y-106116476D01*
X130135285Y-106306952D01*
X130135285Y-106687904D01*
X130182904Y-106783142D01*
X130230523Y-106830761D01*
X130325761Y-106878380D01*
X130516238Y-106878380D01*
X130611476Y-106830761D01*
X130659095Y-106783142D01*
X130706714Y-106687904D01*
X130706714Y-106449809D01*
X130659095Y-106354571D01*
X130611476Y-106306952D01*
X130516238Y-106259333D01*
X130325761Y-106259333D01*
X130230523Y-106306952D01*
X130182904Y-106354571D01*
X130135285Y-106449809D01*
G04 #@! TO.C,D2*
X114196904Y-107513380D02*
X114196904Y-106513380D01*
X114435000Y-106513380D01*
X114577857Y-106561000D01*
X114673095Y-106656238D01*
X114720714Y-106751476D01*
X114768333Y-106941952D01*
X114768333Y-107084809D01*
X114720714Y-107275285D01*
X114673095Y-107370523D01*
X114577857Y-107465761D01*
X114435000Y-107513380D01*
X114196904Y-107513380D01*
X115149285Y-106608619D02*
X115196904Y-106561000D01*
X115292142Y-106513380D01*
X115530238Y-106513380D01*
X115625476Y-106561000D01*
X115673095Y-106608619D01*
X115720714Y-106703857D01*
X115720714Y-106799095D01*
X115673095Y-106941952D01*
X115101666Y-107513380D01*
X115720714Y-107513380D01*
G04 #@! TO.C,D1*
X114196904Y-94178380D02*
X114196904Y-93178380D01*
X114435000Y-93178380D01*
X114577857Y-93226000D01*
X114673095Y-93321238D01*
X114720714Y-93416476D01*
X114768333Y-93606952D01*
X114768333Y-93749809D01*
X114720714Y-93940285D01*
X114673095Y-94035523D01*
X114577857Y-94130761D01*
X114435000Y-94178380D01*
X114196904Y-94178380D01*
X115720714Y-94178380D02*
X115149285Y-94178380D01*
X115435000Y-94178380D02*
X115435000Y-93178380D01*
X115339761Y-93321238D01*
X115244523Y-93416476D01*
X115149285Y-93464095D01*
G04 #@! TO.C,F1*
X132635666Y-95559571D02*
X132302333Y-95559571D01*
X132302333Y-96083380D02*
X132302333Y-95083380D01*
X132778523Y-95083380D01*
X133683285Y-96083380D02*
X133111857Y-96083380D01*
X133397571Y-96083380D02*
X133397571Y-95083380D01*
X133302333Y-95226238D01*
X133207095Y-95321476D01*
X133111857Y-95369095D01*
G04 #@! TO.C,CN3*
X140406523Y-93067142D02*
X140358904Y-93114761D01*
X140216047Y-93162380D01*
X140120809Y-93162380D01*
X139977952Y-93114761D01*
X139882714Y-93019523D01*
X139835095Y-92924285D01*
X139787476Y-92733809D01*
X139787476Y-92590952D01*
X139835095Y-92400476D01*
X139882714Y-92305238D01*
X139977952Y-92210000D01*
X140120809Y-92162380D01*
X140216047Y-92162380D01*
X140358904Y-92210000D01*
X140406523Y-92257619D01*
X140835095Y-93162380D02*
X140835095Y-92162380D01*
X141406523Y-93162380D01*
X141406523Y-92162380D01*
X141787476Y-92162380D02*
X142406523Y-92162380D01*
X142073190Y-92543333D01*
X142216047Y-92543333D01*
X142311285Y-92590952D01*
X142358904Y-92638571D01*
X142406523Y-92733809D01*
X142406523Y-92971904D01*
X142358904Y-93067142D01*
X142311285Y-93114761D01*
X142216047Y-93162380D01*
X141930333Y-93162380D01*
X141835095Y-93114761D01*
X141787476Y-93067142D01*
G04 #@! TO.C,CN4*
X140406523Y-107799142D02*
X140358904Y-107846761D01*
X140216047Y-107894380D01*
X140120809Y-107894380D01*
X139977952Y-107846761D01*
X139882714Y-107751523D01*
X139835095Y-107656285D01*
X139787476Y-107465809D01*
X139787476Y-107322952D01*
X139835095Y-107132476D01*
X139882714Y-107037238D01*
X139977952Y-106942000D01*
X140120809Y-106894380D01*
X140216047Y-106894380D01*
X140358904Y-106942000D01*
X140406523Y-106989619D01*
X140835095Y-107894380D02*
X140835095Y-106894380D01*
X141406523Y-107894380D01*
X141406523Y-106894380D01*
X142311285Y-107227714D02*
X142311285Y-107894380D01*
X142073190Y-106846761D02*
X141835095Y-107561047D01*
X142454142Y-107561047D01*
G04 #@! TD*
M02*
