G04 #@! TF.GenerationSoftware,KiCad,Pcbnew,5.0.2-bee76a0~70~ubuntu18.04.1*
G04 #@! TF.CreationDate,2019-06-21T09:24:01-07:00*
G04 #@! TF.ProjectId,aa-power,61612d70-6f77-4657-922e-6b696361645f,rev?*
G04 #@! TF.SameCoordinates,Original*
G04 #@! TF.FileFunction,Copper,L1,Top*
G04 #@! TF.FilePolarity,Positive*
%FSLAX46Y46*%
G04 Gerber Fmt 4.6, Leading zero omitted, Abs format (unit mm)*
G04 Created by KiCad (PCBNEW 5.0.2-bee76a0~70~ubuntu18.04.1) date Fri 21 Jun 2019 09:24:01 AM PDT*
%MOMM*%
%LPD*%
G01*
G04 APERTURE LIST*
G04 #@! TA.AperFunction,ComponentPad*
%ADD10R,1.600000X1.600000*%
G04 #@! TD*
G04 #@! TA.AperFunction,ComponentPad*
%ADD11O,1.600000X1.600000*%
G04 #@! TD*
G04 #@! TA.AperFunction,ComponentPad*
%ADD12C,2.000000*%
G04 #@! TD*
G04 #@! TA.AperFunction,BGAPad,CuDef*
%ADD13C,1.000000*%
G04 #@! TD*
G04 #@! TA.AperFunction,ComponentPad*
%ADD14R,2.000000X1.905000*%
G04 #@! TD*
G04 #@! TA.AperFunction,ComponentPad*
%ADD15O,2.000000X1.905000*%
G04 #@! TD*
G04 #@! TA.AperFunction,Conductor*
%ADD16C,0.100000*%
G04 #@! TD*
G04 #@! TA.AperFunction,SMDPad,CuDef*
%ADD17C,0.975000*%
G04 #@! TD*
G04 #@! TA.AperFunction,ComponentPad*
%ADD18C,1.600000*%
G04 #@! TD*
G04 #@! TA.AperFunction,ComponentPad*
%ADD19C,0.800000*%
G04 #@! TD*
G04 #@! TA.AperFunction,ComponentPad*
%ADD20C,5.400000*%
G04 #@! TD*
G04 #@! TA.AperFunction,ComponentPad*
%ADD21C,3.500120*%
G04 #@! TD*
G04 #@! TA.AperFunction,ComponentPad*
%ADD22R,3.500120X3.500120*%
G04 #@! TD*
G04 #@! TA.AperFunction,SMDPad,CuDef*
%ADD23C,0.875000*%
G04 #@! TD*
G04 #@! TA.AperFunction,SMDPad,CuDef*
%ADD24R,2.100000X1.400000*%
G04 #@! TD*
G04 #@! TA.AperFunction,SMDPad,CuDef*
%ADD25R,0.300000X0.400000*%
G04 #@! TD*
G04 #@! TA.AperFunction,ComponentPad*
%ADD26C,2.780000*%
G04 #@! TD*
G04 #@! TA.AperFunction,ComponentPad*
%ADD27C,3.400000*%
G04 #@! TD*
G04 #@! TA.AperFunction,ComponentPad*
%ADD28R,3.400000X3.400000*%
G04 #@! TD*
G04 #@! TA.AperFunction,ViaPad*
%ADD29C,0.800000*%
G04 #@! TD*
G04 #@! TA.AperFunction,Conductor*
%ADD30C,0.508000*%
G04 #@! TD*
G04 #@! TA.AperFunction,Conductor*
%ADD31C,0.254000*%
G04 #@! TD*
G04 APERTURE END LIST*
D10*
G04 #@! TO.P,D8,1*
G04 #@! TO.N,Net-(C4-Pad1)*
X188087000Y-96520000D03*
D11*
G04 #@! TO.P,D8,2*
G04 #@! TO.N,Net-(D8-Pad2)*
X185547000Y-96520000D03*
G04 #@! TD*
D12*
G04 #@! TO.P,TP12,1*
G04 #@! TO.N,GND*
X194564000Y-88900000D03*
G04 #@! TD*
G04 #@! TO.P,TP10,1*
G04 #@! TO.N,GND*
X194437000Y-99060000D03*
G04 #@! TD*
G04 #@! TO.P,TP9,1*
G04 #@! TO.N,Net-(C4-Pad1)*
X194437000Y-104140000D03*
G04 #@! TD*
G04 #@! TO.P,TP8,1*
G04 #@! TO.N,GND*
X194310000Y-109220000D03*
G04 #@! TD*
G04 #@! TO.P,TP11,1*
G04 #@! TO.N,Net-(D8-Pad2)*
X194437000Y-93980000D03*
G04 #@! TD*
G04 #@! TO.P,TP7,1*
G04 #@! TO.N,/+12V*
X194310000Y-114300000D03*
G04 #@! TD*
G04 #@! TO.P,TP6,1*
G04 #@! TO.N,GND*
X104140000Y-102870000D03*
G04 #@! TD*
G04 #@! TO.P,TP5,1*
G04 #@! TO.N,Net-(D5-Pad1)*
X104140000Y-97790000D03*
G04 #@! TD*
G04 #@! TO.P,TP4,1*
G04 #@! TO.N,GND*
X104140000Y-115570000D03*
G04 #@! TD*
G04 #@! TO.P,TP3,1*
G04 #@! TO.N,Net-(C2-Pad1)*
X104140000Y-110490000D03*
G04 #@! TD*
G04 #@! TO.P,TP2,1*
G04 #@! TO.N,GND*
X104140000Y-85090000D03*
G04 #@! TD*
G04 #@! TO.P,TP1,1*
G04 #@! TO.N,Net-(C1-Pad1)*
X104140000Y-90170000D03*
G04 #@! TD*
D13*
G04 #@! TO.P,FD2,*
G04 #@! TO.N,*
X191770000Y-81280000D03*
G04 #@! TD*
D14*
G04 #@! TO.P,Q1,1*
G04 #@! TO.N,GND*
X181842162Y-102592621D03*
D15*
G04 #@! TO.P,Q1,2*
G04 #@! TO.N,/+12V*
X181842162Y-100052621D03*
G04 #@! TO.P,Q1,3*
G04 #@! TO.N,Net-(D8-Pad2)*
X181842162Y-97512621D03*
G04 #@! TD*
D16*
G04 #@! TO.N,Net-(C4-Pad1)*
G04 #@! TO.C,C4*
G36*
X186625142Y-100266174D02*
X186648803Y-100269684D01*
X186672007Y-100275496D01*
X186694529Y-100283554D01*
X186716153Y-100293782D01*
X186736670Y-100306079D01*
X186755883Y-100320329D01*
X186773607Y-100336393D01*
X186789671Y-100354117D01*
X186803921Y-100373330D01*
X186816218Y-100393847D01*
X186826446Y-100415471D01*
X186834504Y-100437993D01*
X186840316Y-100461197D01*
X186843826Y-100484858D01*
X186845000Y-100508750D01*
X186845000Y-101421250D01*
X186843826Y-101445142D01*
X186840316Y-101468803D01*
X186834504Y-101492007D01*
X186826446Y-101514529D01*
X186816218Y-101536153D01*
X186803921Y-101556670D01*
X186789671Y-101575883D01*
X186773607Y-101593607D01*
X186755883Y-101609671D01*
X186736670Y-101623921D01*
X186716153Y-101636218D01*
X186694529Y-101646446D01*
X186672007Y-101654504D01*
X186648803Y-101660316D01*
X186625142Y-101663826D01*
X186601250Y-101665000D01*
X186113750Y-101665000D01*
X186089858Y-101663826D01*
X186066197Y-101660316D01*
X186042993Y-101654504D01*
X186020471Y-101646446D01*
X185998847Y-101636218D01*
X185978330Y-101623921D01*
X185959117Y-101609671D01*
X185941393Y-101593607D01*
X185925329Y-101575883D01*
X185911079Y-101556670D01*
X185898782Y-101536153D01*
X185888554Y-101514529D01*
X185880496Y-101492007D01*
X185874684Y-101468803D01*
X185871174Y-101445142D01*
X185870000Y-101421250D01*
X185870000Y-100508750D01*
X185871174Y-100484858D01*
X185874684Y-100461197D01*
X185880496Y-100437993D01*
X185888554Y-100415471D01*
X185898782Y-100393847D01*
X185911079Y-100373330D01*
X185925329Y-100354117D01*
X185941393Y-100336393D01*
X185959117Y-100320329D01*
X185978330Y-100306079D01*
X185998847Y-100293782D01*
X186020471Y-100283554D01*
X186042993Y-100275496D01*
X186066197Y-100269684D01*
X186089858Y-100266174D01*
X186113750Y-100265000D01*
X186601250Y-100265000D01*
X186625142Y-100266174D01*
X186625142Y-100266174D01*
G37*
D17*
G04 #@! TD*
G04 #@! TO.P,C4,1*
G04 #@! TO.N,Net-(C4-Pad1)*
X186357500Y-100965000D03*
D16*
G04 #@! TO.N,GND*
G04 #@! TO.C,C4*
G36*
X184750142Y-100266174D02*
X184773803Y-100269684D01*
X184797007Y-100275496D01*
X184819529Y-100283554D01*
X184841153Y-100293782D01*
X184861670Y-100306079D01*
X184880883Y-100320329D01*
X184898607Y-100336393D01*
X184914671Y-100354117D01*
X184928921Y-100373330D01*
X184941218Y-100393847D01*
X184951446Y-100415471D01*
X184959504Y-100437993D01*
X184965316Y-100461197D01*
X184968826Y-100484858D01*
X184970000Y-100508750D01*
X184970000Y-101421250D01*
X184968826Y-101445142D01*
X184965316Y-101468803D01*
X184959504Y-101492007D01*
X184951446Y-101514529D01*
X184941218Y-101536153D01*
X184928921Y-101556670D01*
X184914671Y-101575883D01*
X184898607Y-101593607D01*
X184880883Y-101609671D01*
X184861670Y-101623921D01*
X184841153Y-101636218D01*
X184819529Y-101646446D01*
X184797007Y-101654504D01*
X184773803Y-101660316D01*
X184750142Y-101663826D01*
X184726250Y-101665000D01*
X184238750Y-101665000D01*
X184214858Y-101663826D01*
X184191197Y-101660316D01*
X184167993Y-101654504D01*
X184145471Y-101646446D01*
X184123847Y-101636218D01*
X184103330Y-101623921D01*
X184084117Y-101609671D01*
X184066393Y-101593607D01*
X184050329Y-101575883D01*
X184036079Y-101556670D01*
X184023782Y-101536153D01*
X184013554Y-101514529D01*
X184005496Y-101492007D01*
X183999684Y-101468803D01*
X183996174Y-101445142D01*
X183995000Y-101421250D01*
X183995000Y-100508750D01*
X183996174Y-100484858D01*
X183999684Y-100461197D01*
X184005496Y-100437993D01*
X184013554Y-100415471D01*
X184023782Y-100393847D01*
X184036079Y-100373330D01*
X184050329Y-100354117D01*
X184066393Y-100336393D01*
X184084117Y-100320329D01*
X184103330Y-100306079D01*
X184123847Y-100293782D01*
X184145471Y-100283554D01*
X184167993Y-100275496D01*
X184191197Y-100269684D01*
X184214858Y-100266174D01*
X184238750Y-100265000D01*
X184726250Y-100265000D01*
X184750142Y-100266174D01*
X184750142Y-100266174D01*
G37*
D17*
G04 #@! TD*
G04 #@! TO.P,C4,2*
G04 #@! TO.N,GND*
X184482500Y-100965000D03*
D18*
G04 #@! TO.P,C2,2*
G04 #@! TO.N,GND*
X121920000Y-102910000D03*
D10*
G04 #@! TO.P,C2,1*
G04 #@! TO.N,Net-(C2-Pad1)*
X121920000Y-105410000D03*
G04 #@! TD*
G04 #@! TO.P,C1,1*
G04 #@! TO.N,Net-(C1-Pad1)*
X121920000Y-95250000D03*
D18*
G04 #@! TO.P,C1,2*
G04 #@! TO.N,GND*
X121920000Y-97750000D03*
G04 #@! TD*
D19*
G04 #@! TO.P,H1,1*
G04 #@! TO.N,GND*
X194979891Y-74514109D03*
X193548000Y-73921000D03*
X192116109Y-74514109D03*
X191523000Y-75946000D03*
X192116109Y-77377891D03*
X193548000Y-77971000D03*
X194979891Y-77377891D03*
X195573000Y-75946000D03*
D20*
X193548000Y-75946000D03*
G04 #@! TD*
G04 #@! TO.P,H2,1*
G04 #@! TO.N,GND*
X105029000Y-75946000D03*
D19*
X107054000Y-75946000D03*
X106460891Y-77377891D03*
X105029000Y-77971000D03*
X103597109Y-77377891D03*
X103004000Y-75946000D03*
X103597109Y-74514109D03*
X105029000Y-73921000D03*
X106460891Y-74514109D03*
G04 #@! TD*
G04 #@! TO.P,H3,1*
G04 #@! TO.N,GND*
X106460891Y-122647109D03*
X105029000Y-122054000D03*
X103597109Y-122647109D03*
X103004000Y-124079000D03*
X103597109Y-125510891D03*
X105029000Y-126104000D03*
X106460891Y-125510891D03*
X107054000Y-124079000D03*
D20*
X105029000Y-124079000D03*
G04 #@! TD*
G04 #@! TO.P,H4,1*
G04 #@! TO.N,GND*
X193548000Y-124079000D03*
D19*
X195573000Y-124079000D03*
X194979891Y-125510891D03*
X193548000Y-126104000D03*
X192116109Y-125510891D03*
X191523000Y-124079000D03*
X192116109Y-122647109D03*
X193548000Y-122054000D03*
X194979891Y-122647109D03*
G04 #@! TD*
D16*
G04 #@! TO.N,/+12V*
G04 #@! TO.C,C3*
G36*
X149795142Y-93281174D02*
X149818803Y-93284684D01*
X149842007Y-93290496D01*
X149864529Y-93298554D01*
X149886153Y-93308782D01*
X149906670Y-93321079D01*
X149925883Y-93335329D01*
X149943607Y-93351393D01*
X149959671Y-93369117D01*
X149973921Y-93388330D01*
X149986218Y-93408847D01*
X149996446Y-93430471D01*
X150004504Y-93452993D01*
X150010316Y-93476197D01*
X150013826Y-93499858D01*
X150015000Y-93523750D01*
X150015000Y-94436250D01*
X150013826Y-94460142D01*
X150010316Y-94483803D01*
X150004504Y-94507007D01*
X149996446Y-94529529D01*
X149986218Y-94551153D01*
X149973921Y-94571670D01*
X149959671Y-94590883D01*
X149943607Y-94608607D01*
X149925883Y-94624671D01*
X149906670Y-94638921D01*
X149886153Y-94651218D01*
X149864529Y-94661446D01*
X149842007Y-94669504D01*
X149818803Y-94675316D01*
X149795142Y-94678826D01*
X149771250Y-94680000D01*
X149283750Y-94680000D01*
X149259858Y-94678826D01*
X149236197Y-94675316D01*
X149212993Y-94669504D01*
X149190471Y-94661446D01*
X149168847Y-94651218D01*
X149148330Y-94638921D01*
X149129117Y-94624671D01*
X149111393Y-94608607D01*
X149095329Y-94590883D01*
X149081079Y-94571670D01*
X149068782Y-94551153D01*
X149058554Y-94529529D01*
X149050496Y-94507007D01*
X149044684Y-94483803D01*
X149041174Y-94460142D01*
X149040000Y-94436250D01*
X149040000Y-93523750D01*
X149041174Y-93499858D01*
X149044684Y-93476197D01*
X149050496Y-93452993D01*
X149058554Y-93430471D01*
X149068782Y-93408847D01*
X149081079Y-93388330D01*
X149095329Y-93369117D01*
X149111393Y-93351393D01*
X149129117Y-93335329D01*
X149148330Y-93321079D01*
X149168847Y-93308782D01*
X149190471Y-93298554D01*
X149212993Y-93290496D01*
X149236197Y-93284684D01*
X149259858Y-93281174D01*
X149283750Y-93280000D01*
X149771250Y-93280000D01*
X149795142Y-93281174D01*
X149795142Y-93281174D01*
G37*
D17*
G04 #@! TD*
G04 #@! TO.P,C3,1*
G04 #@! TO.N,/+12V*
X149527500Y-93980000D03*
D16*
G04 #@! TO.N,GND*
G04 #@! TO.C,C3*
G36*
X147920142Y-93281174D02*
X147943803Y-93284684D01*
X147967007Y-93290496D01*
X147989529Y-93298554D01*
X148011153Y-93308782D01*
X148031670Y-93321079D01*
X148050883Y-93335329D01*
X148068607Y-93351393D01*
X148084671Y-93369117D01*
X148098921Y-93388330D01*
X148111218Y-93408847D01*
X148121446Y-93430471D01*
X148129504Y-93452993D01*
X148135316Y-93476197D01*
X148138826Y-93499858D01*
X148140000Y-93523750D01*
X148140000Y-94436250D01*
X148138826Y-94460142D01*
X148135316Y-94483803D01*
X148129504Y-94507007D01*
X148121446Y-94529529D01*
X148111218Y-94551153D01*
X148098921Y-94571670D01*
X148084671Y-94590883D01*
X148068607Y-94608607D01*
X148050883Y-94624671D01*
X148031670Y-94638921D01*
X148011153Y-94651218D01*
X147989529Y-94661446D01*
X147967007Y-94669504D01*
X147943803Y-94675316D01*
X147920142Y-94678826D01*
X147896250Y-94680000D01*
X147408750Y-94680000D01*
X147384858Y-94678826D01*
X147361197Y-94675316D01*
X147337993Y-94669504D01*
X147315471Y-94661446D01*
X147293847Y-94651218D01*
X147273330Y-94638921D01*
X147254117Y-94624671D01*
X147236393Y-94608607D01*
X147220329Y-94590883D01*
X147206079Y-94571670D01*
X147193782Y-94551153D01*
X147183554Y-94529529D01*
X147175496Y-94507007D01*
X147169684Y-94483803D01*
X147166174Y-94460142D01*
X147165000Y-94436250D01*
X147165000Y-93523750D01*
X147166174Y-93499858D01*
X147169684Y-93476197D01*
X147175496Y-93452993D01*
X147183554Y-93430471D01*
X147193782Y-93408847D01*
X147206079Y-93388330D01*
X147220329Y-93369117D01*
X147236393Y-93351393D01*
X147254117Y-93335329D01*
X147273330Y-93321079D01*
X147293847Y-93308782D01*
X147315471Y-93298554D01*
X147337993Y-93290496D01*
X147361197Y-93284684D01*
X147384858Y-93281174D01*
X147408750Y-93280000D01*
X147896250Y-93280000D01*
X147920142Y-93281174D01*
X147920142Y-93281174D01*
G37*
D17*
G04 #@! TD*
G04 #@! TO.P,C3,2*
G04 #@! TO.N,GND*
X147652500Y-93980000D03*
D21*
G04 #@! TO.P,CN1,2*
G04 #@! TO.N,GND*
X110490000Y-96520000D03*
D22*
G04 #@! TO.P,CN1,1*
G04 #@! TO.N,Net-(C1-Pad1)*
X115570000Y-96520000D03*
G04 #@! TD*
G04 #@! TO.P,CN2,1*
G04 #@! TO.N,Net-(C2-Pad1)*
X115570000Y-104140000D03*
D21*
G04 #@! TO.P,CN2,2*
G04 #@! TO.N,GND*
X110490000Y-104140000D03*
G04 #@! TD*
D16*
G04 #@! TO.N,Net-(D3-Pad1)*
G04 #@! TO.C,D3*
G36*
X108989691Y-88946053D02*
X109010926Y-88949203D01*
X109031750Y-88954419D01*
X109051962Y-88961651D01*
X109071368Y-88970830D01*
X109089781Y-88981866D01*
X109107024Y-88994654D01*
X109122930Y-89009070D01*
X109137346Y-89024976D01*
X109150134Y-89042219D01*
X109161170Y-89060632D01*
X109170349Y-89080038D01*
X109177581Y-89100250D01*
X109182797Y-89121074D01*
X109185947Y-89142309D01*
X109187000Y-89163750D01*
X109187000Y-89601250D01*
X109185947Y-89622691D01*
X109182797Y-89643926D01*
X109177581Y-89664750D01*
X109170349Y-89684962D01*
X109161170Y-89704368D01*
X109150134Y-89722781D01*
X109137346Y-89740024D01*
X109122930Y-89755930D01*
X109107024Y-89770346D01*
X109089781Y-89783134D01*
X109071368Y-89794170D01*
X109051962Y-89803349D01*
X109031750Y-89810581D01*
X109010926Y-89815797D01*
X108989691Y-89818947D01*
X108968250Y-89820000D01*
X108455750Y-89820000D01*
X108434309Y-89818947D01*
X108413074Y-89815797D01*
X108392250Y-89810581D01*
X108372038Y-89803349D01*
X108352632Y-89794170D01*
X108334219Y-89783134D01*
X108316976Y-89770346D01*
X108301070Y-89755930D01*
X108286654Y-89740024D01*
X108273866Y-89722781D01*
X108262830Y-89704368D01*
X108253651Y-89684962D01*
X108246419Y-89664750D01*
X108241203Y-89643926D01*
X108238053Y-89622691D01*
X108237000Y-89601250D01*
X108237000Y-89163750D01*
X108238053Y-89142309D01*
X108241203Y-89121074D01*
X108246419Y-89100250D01*
X108253651Y-89080038D01*
X108262830Y-89060632D01*
X108273866Y-89042219D01*
X108286654Y-89024976D01*
X108301070Y-89009070D01*
X108316976Y-88994654D01*
X108334219Y-88981866D01*
X108352632Y-88970830D01*
X108372038Y-88961651D01*
X108392250Y-88954419D01*
X108413074Y-88949203D01*
X108434309Y-88946053D01*
X108455750Y-88945000D01*
X108968250Y-88945000D01*
X108989691Y-88946053D01*
X108989691Y-88946053D01*
G37*
D23*
G04 #@! TD*
G04 #@! TO.P,D3,1*
G04 #@! TO.N,Net-(D3-Pad1)*
X108712000Y-89382500D03*
D16*
G04 #@! TO.N,Net-(C1-Pad1)*
G04 #@! TO.C,D3*
G36*
X108989691Y-90521053D02*
X109010926Y-90524203D01*
X109031750Y-90529419D01*
X109051962Y-90536651D01*
X109071368Y-90545830D01*
X109089781Y-90556866D01*
X109107024Y-90569654D01*
X109122930Y-90584070D01*
X109137346Y-90599976D01*
X109150134Y-90617219D01*
X109161170Y-90635632D01*
X109170349Y-90655038D01*
X109177581Y-90675250D01*
X109182797Y-90696074D01*
X109185947Y-90717309D01*
X109187000Y-90738750D01*
X109187000Y-91176250D01*
X109185947Y-91197691D01*
X109182797Y-91218926D01*
X109177581Y-91239750D01*
X109170349Y-91259962D01*
X109161170Y-91279368D01*
X109150134Y-91297781D01*
X109137346Y-91315024D01*
X109122930Y-91330930D01*
X109107024Y-91345346D01*
X109089781Y-91358134D01*
X109071368Y-91369170D01*
X109051962Y-91378349D01*
X109031750Y-91385581D01*
X109010926Y-91390797D01*
X108989691Y-91393947D01*
X108968250Y-91395000D01*
X108455750Y-91395000D01*
X108434309Y-91393947D01*
X108413074Y-91390797D01*
X108392250Y-91385581D01*
X108372038Y-91378349D01*
X108352632Y-91369170D01*
X108334219Y-91358134D01*
X108316976Y-91345346D01*
X108301070Y-91330930D01*
X108286654Y-91315024D01*
X108273866Y-91297781D01*
X108262830Y-91279368D01*
X108253651Y-91259962D01*
X108246419Y-91239750D01*
X108241203Y-91218926D01*
X108238053Y-91197691D01*
X108237000Y-91176250D01*
X108237000Y-90738750D01*
X108238053Y-90717309D01*
X108241203Y-90696074D01*
X108246419Y-90675250D01*
X108253651Y-90655038D01*
X108262830Y-90635632D01*
X108273866Y-90617219D01*
X108286654Y-90599976D01*
X108301070Y-90584070D01*
X108316976Y-90569654D01*
X108334219Y-90556866D01*
X108352632Y-90545830D01*
X108372038Y-90536651D01*
X108392250Y-90529419D01*
X108413074Y-90524203D01*
X108434309Y-90521053D01*
X108455750Y-90520000D01*
X108968250Y-90520000D01*
X108989691Y-90521053D01*
X108989691Y-90521053D01*
G37*
D23*
G04 #@! TD*
G04 #@! TO.P,D3,2*
G04 #@! TO.N,Net-(C1-Pad1)*
X108712000Y-90957500D03*
D16*
G04 #@! TO.N,Net-(C2-Pad1)*
G04 #@! TO.C,D4*
G36*
X108862691Y-109266053D02*
X108883926Y-109269203D01*
X108904750Y-109274419D01*
X108924962Y-109281651D01*
X108944368Y-109290830D01*
X108962781Y-109301866D01*
X108980024Y-109314654D01*
X108995930Y-109329070D01*
X109010346Y-109344976D01*
X109023134Y-109362219D01*
X109034170Y-109380632D01*
X109043349Y-109400038D01*
X109050581Y-109420250D01*
X109055797Y-109441074D01*
X109058947Y-109462309D01*
X109060000Y-109483750D01*
X109060000Y-109921250D01*
X109058947Y-109942691D01*
X109055797Y-109963926D01*
X109050581Y-109984750D01*
X109043349Y-110004962D01*
X109034170Y-110024368D01*
X109023134Y-110042781D01*
X109010346Y-110060024D01*
X108995930Y-110075930D01*
X108980024Y-110090346D01*
X108962781Y-110103134D01*
X108944368Y-110114170D01*
X108924962Y-110123349D01*
X108904750Y-110130581D01*
X108883926Y-110135797D01*
X108862691Y-110138947D01*
X108841250Y-110140000D01*
X108328750Y-110140000D01*
X108307309Y-110138947D01*
X108286074Y-110135797D01*
X108265250Y-110130581D01*
X108245038Y-110123349D01*
X108225632Y-110114170D01*
X108207219Y-110103134D01*
X108189976Y-110090346D01*
X108174070Y-110075930D01*
X108159654Y-110060024D01*
X108146866Y-110042781D01*
X108135830Y-110024368D01*
X108126651Y-110004962D01*
X108119419Y-109984750D01*
X108114203Y-109963926D01*
X108111053Y-109942691D01*
X108110000Y-109921250D01*
X108110000Y-109483750D01*
X108111053Y-109462309D01*
X108114203Y-109441074D01*
X108119419Y-109420250D01*
X108126651Y-109400038D01*
X108135830Y-109380632D01*
X108146866Y-109362219D01*
X108159654Y-109344976D01*
X108174070Y-109329070D01*
X108189976Y-109314654D01*
X108207219Y-109301866D01*
X108225632Y-109290830D01*
X108245038Y-109281651D01*
X108265250Y-109274419D01*
X108286074Y-109269203D01*
X108307309Y-109266053D01*
X108328750Y-109265000D01*
X108841250Y-109265000D01*
X108862691Y-109266053D01*
X108862691Y-109266053D01*
G37*
D23*
G04 #@! TD*
G04 #@! TO.P,D4,2*
G04 #@! TO.N,Net-(C2-Pad1)*
X108585000Y-109702500D03*
D16*
G04 #@! TO.N,Net-(D4-Pad1)*
G04 #@! TO.C,D4*
G36*
X108862691Y-110841053D02*
X108883926Y-110844203D01*
X108904750Y-110849419D01*
X108924962Y-110856651D01*
X108944368Y-110865830D01*
X108962781Y-110876866D01*
X108980024Y-110889654D01*
X108995930Y-110904070D01*
X109010346Y-110919976D01*
X109023134Y-110937219D01*
X109034170Y-110955632D01*
X109043349Y-110975038D01*
X109050581Y-110995250D01*
X109055797Y-111016074D01*
X109058947Y-111037309D01*
X109060000Y-111058750D01*
X109060000Y-111496250D01*
X109058947Y-111517691D01*
X109055797Y-111538926D01*
X109050581Y-111559750D01*
X109043349Y-111579962D01*
X109034170Y-111599368D01*
X109023134Y-111617781D01*
X109010346Y-111635024D01*
X108995930Y-111650930D01*
X108980024Y-111665346D01*
X108962781Y-111678134D01*
X108944368Y-111689170D01*
X108924962Y-111698349D01*
X108904750Y-111705581D01*
X108883926Y-111710797D01*
X108862691Y-111713947D01*
X108841250Y-111715000D01*
X108328750Y-111715000D01*
X108307309Y-111713947D01*
X108286074Y-111710797D01*
X108265250Y-111705581D01*
X108245038Y-111698349D01*
X108225632Y-111689170D01*
X108207219Y-111678134D01*
X108189976Y-111665346D01*
X108174070Y-111650930D01*
X108159654Y-111635024D01*
X108146866Y-111617781D01*
X108135830Y-111599368D01*
X108126651Y-111579962D01*
X108119419Y-111559750D01*
X108114203Y-111538926D01*
X108111053Y-111517691D01*
X108110000Y-111496250D01*
X108110000Y-111058750D01*
X108111053Y-111037309D01*
X108114203Y-111016074D01*
X108119419Y-110995250D01*
X108126651Y-110975038D01*
X108135830Y-110955632D01*
X108146866Y-110937219D01*
X108159654Y-110919976D01*
X108174070Y-110904070D01*
X108189976Y-110889654D01*
X108207219Y-110876866D01*
X108225632Y-110865830D01*
X108245038Y-110856651D01*
X108265250Y-110849419D01*
X108286074Y-110844203D01*
X108307309Y-110841053D01*
X108328750Y-110840000D01*
X108841250Y-110840000D01*
X108862691Y-110841053D01*
X108862691Y-110841053D01*
G37*
D23*
G04 #@! TD*
G04 #@! TO.P,D4,1*
G04 #@! TO.N,Net-(D4-Pad1)*
X108585000Y-111277500D03*
D16*
G04 #@! TO.N,Net-(D7-Pad1)*
G04 #@! TO.C,D7*
G36*
X190142691Y-113076053D02*
X190163926Y-113079203D01*
X190184750Y-113084419D01*
X190204962Y-113091651D01*
X190224368Y-113100830D01*
X190242781Y-113111866D01*
X190260024Y-113124654D01*
X190275930Y-113139070D01*
X190290346Y-113154976D01*
X190303134Y-113172219D01*
X190314170Y-113190632D01*
X190323349Y-113210038D01*
X190330581Y-113230250D01*
X190335797Y-113251074D01*
X190338947Y-113272309D01*
X190340000Y-113293750D01*
X190340000Y-113731250D01*
X190338947Y-113752691D01*
X190335797Y-113773926D01*
X190330581Y-113794750D01*
X190323349Y-113814962D01*
X190314170Y-113834368D01*
X190303134Y-113852781D01*
X190290346Y-113870024D01*
X190275930Y-113885930D01*
X190260024Y-113900346D01*
X190242781Y-113913134D01*
X190224368Y-113924170D01*
X190204962Y-113933349D01*
X190184750Y-113940581D01*
X190163926Y-113945797D01*
X190142691Y-113948947D01*
X190121250Y-113950000D01*
X189608750Y-113950000D01*
X189587309Y-113948947D01*
X189566074Y-113945797D01*
X189545250Y-113940581D01*
X189525038Y-113933349D01*
X189505632Y-113924170D01*
X189487219Y-113913134D01*
X189469976Y-113900346D01*
X189454070Y-113885930D01*
X189439654Y-113870024D01*
X189426866Y-113852781D01*
X189415830Y-113834368D01*
X189406651Y-113814962D01*
X189399419Y-113794750D01*
X189394203Y-113773926D01*
X189391053Y-113752691D01*
X189390000Y-113731250D01*
X189390000Y-113293750D01*
X189391053Y-113272309D01*
X189394203Y-113251074D01*
X189399419Y-113230250D01*
X189406651Y-113210038D01*
X189415830Y-113190632D01*
X189426866Y-113172219D01*
X189439654Y-113154976D01*
X189454070Y-113139070D01*
X189469976Y-113124654D01*
X189487219Y-113111866D01*
X189505632Y-113100830D01*
X189525038Y-113091651D01*
X189545250Y-113084419D01*
X189566074Y-113079203D01*
X189587309Y-113076053D01*
X189608750Y-113075000D01*
X190121250Y-113075000D01*
X190142691Y-113076053D01*
X190142691Y-113076053D01*
G37*
D23*
G04 #@! TD*
G04 #@! TO.P,D7,1*
G04 #@! TO.N,Net-(D7-Pad1)*
X189865000Y-113512500D03*
D16*
G04 #@! TO.N,/+12V*
G04 #@! TO.C,D7*
G36*
X190142691Y-114651053D02*
X190163926Y-114654203D01*
X190184750Y-114659419D01*
X190204962Y-114666651D01*
X190224368Y-114675830D01*
X190242781Y-114686866D01*
X190260024Y-114699654D01*
X190275930Y-114714070D01*
X190290346Y-114729976D01*
X190303134Y-114747219D01*
X190314170Y-114765632D01*
X190323349Y-114785038D01*
X190330581Y-114805250D01*
X190335797Y-114826074D01*
X190338947Y-114847309D01*
X190340000Y-114868750D01*
X190340000Y-115306250D01*
X190338947Y-115327691D01*
X190335797Y-115348926D01*
X190330581Y-115369750D01*
X190323349Y-115389962D01*
X190314170Y-115409368D01*
X190303134Y-115427781D01*
X190290346Y-115445024D01*
X190275930Y-115460930D01*
X190260024Y-115475346D01*
X190242781Y-115488134D01*
X190224368Y-115499170D01*
X190204962Y-115508349D01*
X190184750Y-115515581D01*
X190163926Y-115520797D01*
X190142691Y-115523947D01*
X190121250Y-115525000D01*
X189608750Y-115525000D01*
X189587309Y-115523947D01*
X189566074Y-115520797D01*
X189545250Y-115515581D01*
X189525038Y-115508349D01*
X189505632Y-115499170D01*
X189487219Y-115488134D01*
X189469976Y-115475346D01*
X189454070Y-115460930D01*
X189439654Y-115445024D01*
X189426866Y-115427781D01*
X189415830Y-115409368D01*
X189406651Y-115389962D01*
X189399419Y-115369750D01*
X189394203Y-115348926D01*
X189391053Y-115327691D01*
X189390000Y-115306250D01*
X189390000Y-114868750D01*
X189391053Y-114847309D01*
X189394203Y-114826074D01*
X189399419Y-114805250D01*
X189406651Y-114785038D01*
X189415830Y-114765632D01*
X189426866Y-114747219D01*
X189439654Y-114729976D01*
X189454070Y-114714070D01*
X189469976Y-114699654D01*
X189487219Y-114686866D01*
X189505632Y-114675830D01*
X189525038Y-114666651D01*
X189545250Y-114659419D01*
X189566074Y-114654203D01*
X189587309Y-114651053D01*
X189608750Y-114650000D01*
X190121250Y-114650000D01*
X190142691Y-114651053D01*
X190142691Y-114651053D01*
G37*
D23*
G04 #@! TD*
G04 #@! TO.P,D7,2*
G04 #@! TO.N,/+12V*
X189865000Y-115087500D03*
D16*
G04 #@! TO.N,Net-(C4-Pad1)*
G04 #@! TO.C,R5*
G36*
X186447691Y-102396053D02*
X186468926Y-102399203D01*
X186489750Y-102404419D01*
X186509962Y-102411651D01*
X186529368Y-102420830D01*
X186547781Y-102431866D01*
X186565024Y-102444654D01*
X186580930Y-102459070D01*
X186595346Y-102474976D01*
X186608134Y-102492219D01*
X186619170Y-102510632D01*
X186628349Y-102530038D01*
X186635581Y-102550250D01*
X186640797Y-102571074D01*
X186643947Y-102592309D01*
X186645000Y-102613750D01*
X186645000Y-103126250D01*
X186643947Y-103147691D01*
X186640797Y-103168926D01*
X186635581Y-103189750D01*
X186628349Y-103209962D01*
X186619170Y-103229368D01*
X186608134Y-103247781D01*
X186595346Y-103265024D01*
X186580930Y-103280930D01*
X186565024Y-103295346D01*
X186547781Y-103308134D01*
X186529368Y-103319170D01*
X186509962Y-103328349D01*
X186489750Y-103335581D01*
X186468926Y-103340797D01*
X186447691Y-103343947D01*
X186426250Y-103345000D01*
X185988750Y-103345000D01*
X185967309Y-103343947D01*
X185946074Y-103340797D01*
X185925250Y-103335581D01*
X185905038Y-103328349D01*
X185885632Y-103319170D01*
X185867219Y-103308134D01*
X185849976Y-103295346D01*
X185834070Y-103280930D01*
X185819654Y-103265024D01*
X185806866Y-103247781D01*
X185795830Y-103229368D01*
X185786651Y-103209962D01*
X185779419Y-103189750D01*
X185774203Y-103168926D01*
X185771053Y-103147691D01*
X185770000Y-103126250D01*
X185770000Y-102613750D01*
X185771053Y-102592309D01*
X185774203Y-102571074D01*
X185779419Y-102550250D01*
X185786651Y-102530038D01*
X185795830Y-102510632D01*
X185806866Y-102492219D01*
X185819654Y-102474976D01*
X185834070Y-102459070D01*
X185849976Y-102444654D01*
X185867219Y-102431866D01*
X185885632Y-102420830D01*
X185905038Y-102411651D01*
X185925250Y-102404419D01*
X185946074Y-102399203D01*
X185967309Y-102396053D01*
X185988750Y-102395000D01*
X186426250Y-102395000D01*
X186447691Y-102396053D01*
X186447691Y-102396053D01*
G37*
D23*
G04 #@! TD*
G04 #@! TO.P,R5,1*
G04 #@! TO.N,Net-(C4-Pad1)*
X186207500Y-102870000D03*
D16*
G04 #@! TO.N,GND*
G04 #@! TO.C,R5*
G36*
X184872691Y-102396053D02*
X184893926Y-102399203D01*
X184914750Y-102404419D01*
X184934962Y-102411651D01*
X184954368Y-102420830D01*
X184972781Y-102431866D01*
X184990024Y-102444654D01*
X185005930Y-102459070D01*
X185020346Y-102474976D01*
X185033134Y-102492219D01*
X185044170Y-102510632D01*
X185053349Y-102530038D01*
X185060581Y-102550250D01*
X185065797Y-102571074D01*
X185068947Y-102592309D01*
X185070000Y-102613750D01*
X185070000Y-103126250D01*
X185068947Y-103147691D01*
X185065797Y-103168926D01*
X185060581Y-103189750D01*
X185053349Y-103209962D01*
X185044170Y-103229368D01*
X185033134Y-103247781D01*
X185020346Y-103265024D01*
X185005930Y-103280930D01*
X184990024Y-103295346D01*
X184972781Y-103308134D01*
X184954368Y-103319170D01*
X184934962Y-103328349D01*
X184914750Y-103335581D01*
X184893926Y-103340797D01*
X184872691Y-103343947D01*
X184851250Y-103345000D01*
X184413750Y-103345000D01*
X184392309Y-103343947D01*
X184371074Y-103340797D01*
X184350250Y-103335581D01*
X184330038Y-103328349D01*
X184310632Y-103319170D01*
X184292219Y-103308134D01*
X184274976Y-103295346D01*
X184259070Y-103280930D01*
X184244654Y-103265024D01*
X184231866Y-103247781D01*
X184220830Y-103229368D01*
X184211651Y-103209962D01*
X184204419Y-103189750D01*
X184199203Y-103168926D01*
X184196053Y-103147691D01*
X184195000Y-103126250D01*
X184195000Y-102613750D01*
X184196053Y-102592309D01*
X184199203Y-102571074D01*
X184204419Y-102550250D01*
X184211651Y-102530038D01*
X184220830Y-102510632D01*
X184231866Y-102492219D01*
X184244654Y-102474976D01*
X184259070Y-102459070D01*
X184274976Y-102444654D01*
X184292219Y-102431866D01*
X184310632Y-102420830D01*
X184330038Y-102411651D01*
X184350250Y-102404419D01*
X184371074Y-102399203D01*
X184392309Y-102396053D01*
X184413750Y-102395000D01*
X184851250Y-102395000D01*
X184872691Y-102396053D01*
X184872691Y-102396053D01*
G37*
D23*
G04 #@! TD*
G04 #@! TO.P,R5,2*
G04 #@! TO.N,GND*
X184632500Y-102870000D03*
D16*
G04 #@! TO.N,Net-(C4-Pad1)*
G04 #@! TO.C,R4*
G36*
X186447691Y-98586053D02*
X186468926Y-98589203D01*
X186489750Y-98594419D01*
X186509962Y-98601651D01*
X186529368Y-98610830D01*
X186547781Y-98621866D01*
X186565024Y-98634654D01*
X186580930Y-98649070D01*
X186595346Y-98664976D01*
X186608134Y-98682219D01*
X186619170Y-98700632D01*
X186628349Y-98720038D01*
X186635581Y-98740250D01*
X186640797Y-98761074D01*
X186643947Y-98782309D01*
X186645000Y-98803750D01*
X186645000Y-99316250D01*
X186643947Y-99337691D01*
X186640797Y-99358926D01*
X186635581Y-99379750D01*
X186628349Y-99399962D01*
X186619170Y-99419368D01*
X186608134Y-99437781D01*
X186595346Y-99455024D01*
X186580930Y-99470930D01*
X186565024Y-99485346D01*
X186547781Y-99498134D01*
X186529368Y-99509170D01*
X186509962Y-99518349D01*
X186489750Y-99525581D01*
X186468926Y-99530797D01*
X186447691Y-99533947D01*
X186426250Y-99535000D01*
X185988750Y-99535000D01*
X185967309Y-99533947D01*
X185946074Y-99530797D01*
X185925250Y-99525581D01*
X185905038Y-99518349D01*
X185885632Y-99509170D01*
X185867219Y-99498134D01*
X185849976Y-99485346D01*
X185834070Y-99470930D01*
X185819654Y-99455024D01*
X185806866Y-99437781D01*
X185795830Y-99419368D01*
X185786651Y-99399962D01*
X185779419Y-99379750D01*
X185774203Y-99358926D01*
X185771053Y-99337691D01*
X185770000Y-99316250D01*
X185770000Y-98803750D01*
X185771053Y-98782309D01*
X185774203Y-98761074D01*
X185779419Y-98740250D01*
X185786651Y-98720038D01*
X185795830Y-98700632D01*
X185806866Y-98682219D01*
X185819654Y-98664976D01*
X185834070Y-98649070D01*
X185849976Y-98634654D01*
X185867219Y-98621866D01*
X185885632Y-98610830D01*
X185905038Y-98601651D01*
X185925250Y-98594419D01*
X185946074Y-98589203D01*
X185967309Y-98586053D01*
X185988750Y-98585000D01*
X186426250Y-98585000D01*
X186447691Y-98586053D01*
X186447691Y-98586053D01*
G37*
D23*
G04 #@! TD*
G04 #@! TO.P,R4,2*
G04 #@! TO.N,Net-(C4-Pad1)*
X186207500Y-99060000D03*
D16*
G04 #@! TO.N,/+12V*
G04 #@! TO.C,R4*
G36*
X184872691Y-98586053D02*
X184893926Y-98589203D01*
X184914750Y-98594419D01*
X184934962Y-98601651D01*
X184954368Y-98610830D01*
X184972781Y-98621866D01*
X184990024Y-98634654D01*
X185005930Y-98649070D01*
X185020346Y-98664976D01*
X185033134Y-98682219D01*
X185044170Y-98700632D01*
X185053349Y-98720038D01*
X185060581Y-98740250D01*
X185065797Y-98761074D01*
X185068947Y-98782309D01*
X185070000Y-98803750D01*
X185070000Y-99316250D01*
X185068947Y-99337691D01*
X185065797Y-99358926D01*
X185060581Y-99379750D01*
X185053349Y-99399962D01*
X185044170Y-99419368D01*
X185033134Y-99437781D01*
X185020346Y-99455024D01*
X185005930Y-99470930D01*
X184990024Y-99485346D01*
X184972781Y-99498134D01*
X184954368Y-99509170D01*
X184934962Y-99518349D01*
X184914750Y-99525581D01*
X184893926Y-99530797D01*
X184872691Y-99533947D01*
X184851250Y-99535000D01*
X184413750Y-99535000D01*
X184392309Y-99533947D01*
X184371074Y-99530797D01*
X184350250Y-99525581D01*
X184330038Y-99518349D01*
X184310632Y-99509170D01*
X184292219Y-99498134D01*
X184274976Y-99485346D01*
X184259070Y-99470930D01*
X184244654Y-99455024D01*
X184231866Y-99437781D01*
X184220830Y-99419368D01*
X184211651Y-99399962D01*
X184204419Y-99379750D01*
X184199203Y-99358926D01*
X184196053Y-99337691D01*
X184195000Y-99316250D01*
X184195000Y-98803750D01*
X184196053Y-98782309D01*
X184199203Y-98761074D01*
X184204419Y-98740250D01*
X184211651Y-98720038D01*
X184220830Y-98700632D01*
X184231866Y-98682219D01*
X184244654Y-98664976D01*
X184259070Y-98649070D01*
X184274976Y-98634654D01*
X184292219Y-98621866D01*
X184310632Y-98610830D01*
X184330038Y-98601651D01*
X184350250Y-98594419D01*
X184371074Y-98589203D01*
X184392309Y-98586053D01*
X184413750Y-98585000D01*
X184851250Y-98585000D01*
X184872691Y-98586053D01*
X184872691Y-98586053D01*
G37*
D23*
G04 #@! TD*
G04 #@! TO.P,R4,1*
G04 #@! TO.N,/+12V*
X184632500Y-99060000D03*
D16*
G04 #@! TO.N,GND*
G04 #@! TO.C,R2*
G36*
X108862691Y-115921053D02*
X108883926Y-115924203D01*
X108904750Y-115929419D01*
X108924962Y-115936651D01*
X108944368Y-115945830D01*
X108962781Y-115956866D01*
X108980024Y-115969654D01*
X108995930Y-115984070D01*
X109010346Y-115999976D01*
X109023134Y-116017219D01*
X109034170Y-116035632D01*
X109043349Y-116055038D01*
X109050581Y-116075250D01*
X109055797Y-116096074D01*
X109058947Y-116117309D01*
X109060000Y-116138750D01*
X109060000Y-116576250D01*
X109058947Y-116597691D01*
X109055797Y-116618926D01*
X109050581Y-116639750D01*
X109043349Y-116659962D01*
X109034170Y-116679368D01*
X109023134Y-116697781D01*
X109010346Y-116715024D01*
X108995930Y-116730930D01*
X108980024Y-116745346D01*
X108962781Y-116758134D01*
X108944368Y-116769170D01*
X108924962Y-116778349D01*
X108904750Y-116785581D01*
X108883926Y-116790797D01*
X108862691Y-116793947D01*
X108841250Y-116795000D01*
X108328750Y-116795000D01*
X108307309Y-116793947D01*
X108286074Y-116790797D01*
X108265250Y-116785581D01*
X108245038Y-116778349D01*
X108225632Y-116769170D01*
X108207219Y-116758134D01*
X108189976Y-116745346D01*
X108174070Y-116730930D01*
X108159654Y-116715024D01*
X108146866Y-116697781D01*
X108135830Y-116679368D01*
X108126651Y-116659962D01*
X108119419Y-116639750D01*
X108114203Y-116618926D01*
X108111053Y-116597691D01*
X108110000Y-116576250D01*
X108110000Y-116138750D01*
X108111053Y-116117309D01*
X108114203Y-116096074D01*
X108119419Y-116075250D01*
X108126651Y-116055038D01*
X108135830Y-116035632D01*
X108146866Y-116017219D01*
X108159654Y-115999976D01*
X108174070Y-115984070D01*
X108189976Y-115969654D01*
X108207219Y-115956866D01*
X108225632Y-115945830D01*
X108245038Y-115936651D01*
X108265250Y-115929419D01*
X108286074Y-115924203D01*
X108307309Y-115921053D01*
X108328750Y-115920000D01*
X108841250Y-115920000D01*
X108862691Y-115921053D01*
X108862691Y-115921053D01*
G37*
D23*
G04 #@! TD*
G04 #@! TO.P,R2,1*
G04 #@! TO.N,GND*
X108585000Y-116357500D03*
D16*
G04 #@! TO.N,Net-(D4-Pad1)*
G04 #@! TO.C,R2*
G36*
X108862691Y-114346053D02*
X108883926Y-114349203D01*
X108904750Y-114354419D01*
X108924962Y-114361651D01*
X108944368Y-114370830D01*
X108962781Y-114381866D01*
X108980024Y-114394654D01*
X108995930Y-114409070D01*
X109010346Y-114424976D01*
X109023134Y-114442219D01*
X109034170Y-114460632D01*
X109043349Y-114480038D01*
X109050581Y-114500250D01*
X109055797Y-114521074D01*
X109058947Y-114542309D01*
X109060000Y-114563750D01*
X109060000Y-115001250D01*
X109058947Y-115022691D01*
X109055797Y-115043926D01*
X109050581Y-115064750D01*
X109043349Y-115084962D01*
X109034170Y-115104368D01*
X109023134Y-115122781D01*
X109010346Y-115140024D01*
X108995930Y-115155930D01*
X108980024Y-115170346D01*
X108962781Y-115183134D01*
X108944368Y-115194170D01*
X108924962Y-115203349D01*
X108904750Y-115210581D01*
X108883926Y-115215797D01*
X108862691Y-115218947D01*
X108841250Y-115220000D01*
X108328750Y-115220000D01*
X108307309Y-115218947D01*
X108286074Y-115215797D01*
X108265250Y-115210581D01*
X108245038Y-115203349D01*
X108225632Y-115194170D01*
X108207219Y-115183134D01*
X108189976Y-115170346D01*
X108174070Y-115155930D01*
X108159654Y-115140024D01*
X108146866Y-115122781D01*
X108135830Y-115104368D01*
X108126651Y-115084962D01*
X108119419Y-115064750D01*
X108114203Y-115043926D01*
X108111053Y-115022691D01*
X108110000Y-115001250D01*
X108110000Y-114563750D01*
X108111053Y-114542309D01*
X108114203Y-114521074D01*
X108119419Y-114500250D01*
X108126651Y-114480038D01*
X108135830Y-114460632D01*
X108146866Y-114442219D01*
X108159654Y-114424976D01*
X108174070Y-114409070D01*
X108189976Y-114394654D01*
X108207219Y-114381866D01*
X108225632Y-114370830D01*
X108245038Y-114361651D01*
X108265250Y-114354419D01*
X108286074Y-114349203D01*
X108307309Y-114346053D01*
X108328750Y-114345000D01*
X108841250Y-114345000D01*
X108862691Y-114346053D01*
X108862691Y-114346053D01*
G37*
D23*
G04 #@! TD*
G04 #@! TO.P,R2,2*
G04 #@! TO.N,Net-(D4-Pad1)*
X108585000Y-114782500D03*
D16*
G04 #@! TO.N,Net-(D3-Pad1)*
G04 #@! TO.C,R1*
G36*
X108989691Y-85441053D02*
X109010926Y-85444203D01*
X109031750Y-85449419D01*
X109051962Y-85456651D01*
X109071368Y-85465830D01*
X109089781Y-85476866D01*
X109107024Y-85489654D01*
X109122930Y-85504070D01*
X109137346Y-85519976D01*
X109150134Y-85537219D01*
X109161170Y-85555632D01*
X109170349Y-85575038D01*
X109177581Y-85595250D01*
X109182797Y-85616074D01*
X109185947Y-85637309D01*
X109187000Y-85658750D01*
X109187000Y-86096250D01*
X109185947Y-86117691D01*
X109182797Y-86138926D01*
X109177581Y-86159750D01*
X109170349Y-86179962D01*
X109161170Y-86199368D01*
X109150134Y-86217781D01*
X109137346Y-86235024D01*
X109122930Y-86250930D01*
X109107024Y-86265346D01*
X109089781Y-86278134D01*
X109071368Y-86289170D01*
X109051962Y-86298349D01*
X109031750Y-86305581D01*
X109010926Y-86310797D01*
X108989691Y-86313947D01*
X108968250Y-86315000D01*
X108455750Y-86315000D01*
X108434309Y-86313947D01*
X108413074Y-86310797D01*
X108392250Y-86305581D01*
X108372038Y-86298349D01*
X108352632Y-86289170D01*
X108334219Y-86278134D01*
X108316976Y-86265346D01*
X108301070Y-86250930D01*
X108286654Y-86235024D01*
X108273866Y-86217781D01*
X108262830Y-86199368D01*
X108253651Y-86179962D01*
X108246419Y-86159750D01*
X108241203Y-86138926D01*
X108238053Y-86117691D01*
X108237000Y-86096250D01*
X108237000Y-85658750D01*
X108238053Y-85637309D01*
X108241203Y-85616074D01*
X108246419Y-85595250D01*
X108253651Y-85575038D01*
X108262830Y-85555632D01*
X108273866Y-85537219D01*
X108286654Y-85519976D01*
X108301070Y-85504070D01*
X108316976Y-85489654D01*
X108334219Y-85476866D01*
X108352632Y-85465830D01*
X108372038Y-85456651D01*
X108392250Y-85449419D01*
X108413074Y-85444203D01*
X108434309Y-85441053D01*
X108455750Y-85440000D01*
X108968250Y-85440000D01*
X108989691Y-85441053D01*
X108989691Y-85441053D01*
G37*
D23*
G04 #@! TD*
G04 #@! TO.P,R1,2*
G04 #@! TO.N,Net-(D3-Pad1)*
X108712000Y-85877500D03*
D16*
G04 #@! TO.N,GND*
G04 #@! TO.C,R1*
G36*
X108989691Y-83866053D02*
X109010926Y-83869203D01*
X109031750Y-83874419D01*
X109051962Y-83881651D01*
X109071368Y-83890830D01*
X109089781Y-83901866D01*
X109107024Y-83914654D01*
X109122930Y-83929070D01*
X109137346Y-83944976D01*
X109150134Y-83962219D01*
X109161170Y-83980632D01*
X109170349Y-84000038D01*
X109177581Y-84020250D01*
X109182797Y-84041074D01*
X109185947Y-84062309D01*
X109187000Y-84083750D01*
X109187000Y-84521250D01*
X109185947Y-84542691D01*
X109182797Y-84563926D01*
X109177581Y-84584750D01*
X109170349Y-84604962D01*
X109161170Y-84624368D01*
X109150134Y-84642781D01*
X109137346Y-84660024D01*
X109122930Y-84675930D01*
X109107024Y-84690346D01*
X109089781Y-84703134D01*
X109071368Y-84714170D01*
X109051962Y-84723349D01*
X109031750Y-84730581D01*
X109010926Y-84735797D01*
X108989691Y-84738947D01*
X108968250Y-84740000D01*
X108455750Y-84740000D01*
X108434309Y-84738947D01*
X108413074Y-84735797D01*
X108392250Y-84730581D01*
X108372038Y-84723349D01*
X108352632Y-84714170D01*
X108334219Y-84703134D01*
X108316976Y-84690346D01*
X108301070Y-84675930D01*
X108286654Y-84660024D01*
X108273866Y-84642781D01*
X108262830Y-84624368D01*
X108253651Y-84604962D01*
X108246419Y-84584750D01*
X108241203Y-84563926D01*
X108238053Y-84542691D01*
X108237000Y-84521250D01*
X108237000Y-84083750D01*
X108238053Y-84062309D01*
X108241203Y-84041074D01*
X108246419Y-84020250D01*
X108253651Y-84000038D01*
X108262830Y-83980632D01*
X108273866Y-83962219D01*
X108286654Y-83944976D01*
X108301070Y-83929070D01*
X108316976Y-83914654D01*
X108334219Y-83901866D01*
X108352632Y-83890830D01*
X108372038Y-83881651D01*
X108392250Y-83874419D01*
X108413074Y-83869203D01*
X108434309Y-83866053D01*
X108455750Y-83865000D01*
X108968250Y-83865000D01*
X108989691Y-83866053D01*
X108989691Y-83866053D01*
G37*
D23*
G04 #@! TD*
G04 #@! TO.P,R1,1*
G04 #@! TO.N,GND*
X108712000Y-84302500D03*
D16*
G04 #@! TO.N,GND*
G04 #@! TO.C,R3*
G36*
X190142691Y-107996053D02*
X190163926Y-107999203D01*
X190184750Y-108004419D01*
X190204962Y-108011651D01*
X190224368Y-108020830D01*
X190242781Y-108031866D01*
X190260024Y-108044654D01*
X190275930Y-108059070D01*
X190290346Y-108074976D01*
X190303134Y-108092219D01*
X190314170Y-108110632D01*
X190323349Y-108130038D01*
X190330581Y-108150250D01*
X190335797Y-108171074D01*
X190338947Y-108192309D01*
X190340000Y-108213750D01*
X190340000Y-108651250D01*
X190338947Y-108672691D01*
X190335797Y-108693926D01*
X190330581Y-108714750D01*
X190323349Y-108734962D01*
X190314170Y-108754368D01*
X190303134Y-108772781D01*
X190290346Y-108790024D01*
X190275930Y-108805930D01*
X190260024Y-108820346D01*
X190242781Y-108833134D01*
X190224368Y-108844170D01*
X190204962Y-108853349D01*
X190184750Y-108860581D01*
X190163926Y-108865797D01*
X190142691Y-108868947D01*
X190121250Y-108870000D01*
X189608750Y-108870000D01*
X189587309Y-108868947D01*
X189566074Y-108865797D01*
X189545250Y-108860581D01*
X189525038Y-108853349D01*
X189505632Y-108844170D01*
X189487219Y-108833134D01*
X189469976Y-108820346D01*
X189454070Y-108805930D01*
X189439654Y-108790024D01*
X189426866Y-108772781D01*
X189415830Y-108754368D01*
X189406651Y-108734962D01*
X189399419Y-108714750D01*
X189394203Y-108693926D01*
X189391053Y-108672691D01*
X189390000Y-108651250D01*
X189390000Y-108213750D01*
X189391053Y-108192309D01*
X189394203Y-108171074D01*
X189399419Y-108150250D01*
X189406651Y-108130038D01*
X189415830Y-108110632D01*
X189426866Y-108092219D01*
X189439654Y-108074976D01*
X189454070Y-108059070D01*
X189469976Y-108044654D01*
X189487219Y-108031866D01*
X189505632Y-108020830D01*
X189525038Y-108011651D01*
X189545250Y-108004419D01*
X189566074Y-107999203D01*
X189587309Y-107996053D01*
X189608750Y-107995000D01*
X190121250Y-107995000D01*
X190142691Y-107996053D01*
X190142691Y-107996053D01*
G37*
D23*
G04 #@! TD*
G04 #@! TO.P,R3,1*
G04 #@! TO.N,GND*
X189865000Y-108432500D03*
D16*
G04 #@! TO.N,Net-(D7-Pad1)*
G04 #@! TO.C,R3*
G36*
X190142691Y-109571053D02*
X190163926Y-109574203D01*
X190184750Y-109579419D01*
X190204962Y-109586651D01*
X190224368Y-109595830D01*
X190242781Y-109606866D01*
X190260024Y-109619654D01*
X190275930Y-109634070D01*
X190290346Y-109649976D01*
X190303134Y-109667219D01*
X190314170Y-109685632D01*
X190323349Y-109705038D01*
X190330581Y-109725250D01*
X190335797Y-109746074D01*
X190338947Y-109767309D01*
X190340000Y-109788750D01*
X190340000Y-110226250D01*
X190338947Y-110247691D01*
X190335797Y-110268926D01*
X190330581Y-110289750D01*
X190323349Y-110309962D01*
X190314170Y-110329368D01*
X190303134Y-110347781D01*
X190290346Y-110365024D01*
X190275930Y-110380930D01*
X190260024Y-110395346D01*
X190242781Y-110408134D01*
X190224368Y-110419170D01*
X190204962Y-110428349D01*
X190184750Y-110435581D01*
X190163926Y-110440797D01*
X190142691Y-110443947D01*
X190121250Y-110445000D01*
X189608750Y-110445000D01*
X189587309Y-110443947D01*
X189566074Y-110440797D01*
X189545250Y-110435581D01*
X189525038Y-110428349D01*
X189505632Y-110419170D01*
X189487219Y-110408134D01*
X189469976Y-110395346D01*
X189454070Y-110380930D01*
X189439654Y-110365024D01*
X189426866Y-110347781D01*
X189415830Y-110329368D01*
X189406651Y-110309962D01*
X189399419Y-110289750D01*
X189394203Y-110268926D01*
X189391053Y-110247691D01*
X189390000Y-110226250D01*
X189390000Y-109788750D01*
X189391053Y-109767309D01*
X189394203Y-109746074D01*
X189399419Y-109725250D01*
X189406651Y-109705038D01*
X189415830Y-109685632D01*
X189426866Y-109667219D01*
X189439654Y-109649976D01*
X189454070Y-109634070D01*
X189469976Y-109619654D01*
X189487219Y-109606866D01*
X189505632Y-109595830D01*
X189525038Y-109586651D01*
X189545250Y-109579419D01*
X189566074Y-109574203D01*
X189587309Y-109571053D01*
X189608750Y-109570000D01*
X190121250Y-109570000D01*
X190142691Y-109571053D01*
X190142691Y-109571053D01*
G37*
D23*
G04 #@! TD*
G04 #@! TO.P,R3,2*
G04 #@! TO.N,Net-(D7-Pad1)*
X189865000Y-110007500D03*
D24*
G04 #@! TO.P,D5,2*
G04 #@! TO.N,Net-(C1-Pad1)*
X127508000Y-94320000D03*
G04 #@! TO.P,D5,1*
G04 #@! TO.N,Net-(D5-Pad1)*
X127508000Y-98720000D03*
G04 #@! TD*
G04 #@! TO.P,D6,1*
G04 #@! TO.N,Net-(D5-Pad1)*
X127508000Y-101940000D03*
G04 #@! TO.P,D6,2*
G04 #@! TO.N,Net-(C2-Pad1)*
X127508000Y-106340000D03*
G04 #@! TD*
D25*
G04 #@! TO.P,D2,2*
G04 #@! TO.N,GND*
X112580000Y-106680000D03*
G04 #@! TO.P,D2,1*
G04 #@! TO.N,Net-(C2-Pad1)*
X113480000Y-106680000D03*
G04 #@! TD*
G04 #@! TO.P,D1,1*
G04 #@! TO.N,Net-(C1-Pad1)*
X113480000Y-93980000D03*
G04 #@! TO.P,D1,2*
G04 #@! TO.N,GND*
X112580000Y-93980000D03*
G04 #@! TD*
D26*
G04 #@! TO.P,F1,2*
G04 #@! TO.N,Net-(D5-Pad1)*
X131699000Y-100330000D03*
X138430000Y-100330000D03*
G04 #@! TO.P,F1,1*
G04 #@! TO.N,/+12V*
X149479000Y-100330000D03*
X156210000Y-100330000D03*
G04 #@! TD*
D27*
G04 #@! TO.P,CN3,8*
G04 #@! TO.N,/+12V*
X115951000Y-86995000D03*
G04 #@! TO.P,CN3,7*
X125476000Y-86995000D03*
G04 #@! TO.P,CN3,6*
X135001000Y-86995000D03*
G04 #@! TO.P,CN3,5*
X144531000Y-86995000D03*
G04 #@! TO.P,CN3,4*
X154051000Y-86995000D03*
G04 #@! TO.P,CN3,3*
X163576000Y-86995000D03*
G04 #@! TO.P,CN3,2*
X173106000Y-86995000D03*
D28*
G04 #@! TO.P,CN3,1*
X182626000Y-86995000D03*
G04 #@! TD*
G04 #@! TO.P,CN4,1*
G04 #@! TO.N,GND*
X115951000Y-113030000D03*
D27*
G04 #@! TO.P,CN4,2*
X125471000Y-113030000D03*
G04 #@! TO.P,CN4,3*
X135001000Y-113030000D03*
G04 #@! TO.P,CN4,4*
X144526000Y-113030000D03*
G04 #@! TO.P,CN4,5*
X154046000Y-113030000D03*
G04 #@! TO.P,CN4,6*
X163576000Y-113030000D03*
G04 #@! TO.P,CN4,7*
X173101000Y-113030000D03*
G04 #@! TO.P,CN4,8*
X182626000Y-113030000D03*
G04 #@! TD*
D13*
G04 #@! TO.P,FD1,*
G04 #@! TO.N,*
X106680000Y-119380000D03*
G04 #@! TD*
D29*
G04 #@! TO.N,GND*
X147701000Y-93218000D03*
X147701000Y-94742000D03*
X147066000Y-93980000D03*
X189865000Y-107823000D03*
X108712010Y-83820000D03*
G04 #@! TO.N,/+12V*
X162157162Y-93702621D03*
X167237162Y-93702621D03*
X162157162Y-96242621D03*
X164719000Y-96266000D03*
X167259000Y-96266000D03*
X167259000Y-103886000D03*
X164719000Y-103886000D03*
X163449000Y-97536000D03*
X163449000Y-102616000D03*
X162179000Y-103886000D03*
X162179000Y-101346000D03*
X162179000Y-98806000D03*
X165989000Y-102616000D03*
X165989000Y-97536000D03*
X167259000Y-98806000D03*
X167259000Y-101346000D03*
X162179000Y-106426000D03*
X167259000Y-106553000D03*
X169799000Y-105156000D03*
X169799000Y-95123000D03*
X173609000Y-105156000D03*
X173609000Y-100076000D03*
X173609000Y-95123000D03*
X177419000Y-95123000D03*
X177419000Y-100052621D03*
X177419000Y-105156000D03*
X169799000Y-98171000D03*
X169799000Y-101981000D03*
G04 #@! TD*
D30*
G04 #@! TO.N,GND*
X147652500Y-93980000D02*
X147652500Y-93266500D01*
X147652500Y-93266500D02*
X147701000Y-93218000D01*
X147652500Y-93980000D02*
X147652500Y-94693500D01*
X147652500Y-94693500D02*
X147701000Y-94742000D01*
X147652500Y-93980000D02*
X147066000Y-93980000D01*
D31*
X184482500Y-101981000D02*
X184482500Y-100965000D01*
X184658000Y-102156500D02*
X184482500Y-101981000D01*
X181842162Y-102592621D02*
X183096162Y-102592621D01*
X183096162Y-102592621D02*
X183373541Y-102870000D01*
X183373541Y-102870000D02*
X184658000Y-102870000D01*
X184658000Y-102870000D02*
X184658000Y-102156500D01*
X189865000Y-108432500D02*
X189865000Y-107823000D01*
X108644979Y-83887031D02*
X108712010Y-83820000D01*
X108644979Y-84356453D02*
X108644979Y-83887031D01*
X108644981Y-84356455D02*
X108644979Y-84356453D01*
G04 #@! TO.N,Net-(D5-Pad1)*
X104140000Y-97790000D02*
X106680000Y-100330000D01*
X106680000Y-100330000D02*
X131699000Y-100330000D01*
G04 #@! TO.N,Net-(D7-Pad1)*
X189865000Y-110007500D02*
X189865000Y-113538000D01*
G04 #@! TO.N,Net-(D3-Pad1)*
X108670481Y-85931455D02*
X108644981Y-85905955D01*
X108712000Y-85877500D02*
X108712000Y-89408000D01*
G04 #@! TO.N,Net-(D4-Pad1)*
X108585000Y-111277500D02*
X108585000Y-111815000D01*
X108585000Y-111815000D02*
X108585000Y-114808000D01*
G04 #@! TO.N,Net-(D8-Pad2)*
X192278000Y-93980000D02*
X194437000Y-93980000D01*
X192278000Y-93980000D02*
X186563000Y-93980000D01*
X186563000Y-93980000D02*
X185547000Y-94996000D01*
X185547000Y-94996000D02*
X185547000Y-96520000D01*
X185547000Y-96520000D02*
X182880000Y-96520000D01*
X182880000Y-96520000D02*
X181864000Y-97536000D01*
G04 #@! TO.N,/+12V*
X183096162Y-100052621D02*
X184088783Y-99060000D01*
X181842162Y-100052621D02*
X183096162Y-100052621D01*
X184088783Y-99060000D02*
X184658000Y-99060000D01*
X186412627Y-106402627D02*
X181713627Y-106402627D01*
X180467000Y-100076000D02*
X181737000Y-100076000D01*
X179705000Y-100838000D02*
X180467000Y-100076000D01*
X181713627Y-106402627D02*
X179705000Y-104394000D01*
X179705000Y-104394000D02*
X179705000Y-100838000D01*
X177439179Y-100072800D02*
X177419000Y-100052621D01*
X181842162Y-100052621D02*
X181821983Y-100072800D01*
X181821983Y-100072800D02*
X177439179Y-100072800D01*
X186412627Y-106402627D02*
X188087000Y-108077000D01*
X188087000Y-108077000D02*
X188722000Y-108712000D01*
X188722000Y-108712000D02*
X188722000Y-114681000D01*
X188722000Y-114681000D02*
X189103000Y-115062000D01*
X189103000Y-115062000D02*
X189992000Y-115062000D01*
X189865000Y-115087500D02*
X193522500Y-115087500D01*
X193522500Y-115087500D02*
X194310000Y-114300000D01*
G04 #@! TO.N,Net-(C1-Pad1)*
X105554213Y-90170000D02*
X106316213Y-90932000D01*
X104140000Y-90170000D02*
X105554213Y-90170000D01*
X106316213Y-90932000D02*
X108712000Y-90932000D01*
X114046000Y-92202000D02*
X115570000Y-93726000D01*
X111252000Y-92202000D02*
X114046000Y-92202000D01*
X115570000Y-93726000D02*
X115570000Y-96647000D01*
X109982000Y-90932000D02*
X111252000Y-92202000D01*
X109982000Y-90932000D02*
X108712000Y-90932000D01*
G04 #@! TO.N,Net-(C2-Pad1)*
X106680000Y-109702500D02*
X104927500Y-109702500D01*
X104927500Y-109702500D02*
X104140000Y-110490000D01*
X115570000Y-101600000D02*
X115570000Y-104140000D01*
X115062000Y-101092000D02*
X115570000Y-101600000D01*
X104140000Y-107315000D02*
X106934000Y-104521000D01*
X106934000Y-104521000D02*
X106934000Y-102489000D01*
X104140000Y-110490000D02*
X104140000Y-107315000D01*
X108331000Y-101092000D02*
X115062000Y-101092000D01*
X106934000Y-102489000D02*
X108331000Y-101092000D01*
X106680000Y-109702500D02*
X108559500Y-109702500D01*
X108559500Y-109702500D02*
X108585000Y-109728000D01*
G04 #@! TO.N,Net-(C4-Pad1)*
X186207500Y-99847500D02*
X186207500Y-99060000D01*
X186309000Y-99949000D02*
X186207500Y-99847500D01*
X186309000Y-101981000D02*
X186309000Y-99949000D01*
X186207500Y-102870000D02*
X186207500Y-102082500D01*
X186207500Y-102082500D02*
X186309000Y-101981000D01*
X188087000Y-97574000D02*
X186601000Y-99060000D01*
X188087000Y-96520000D02*
X188087000Y-97574000D01*
X186601000Y-99060000D02*
X186182000Y-99060000D01*
X189357000Y-104140000D02*
X194437000Y-104140000D01*
X186207500Y-102870000D02*
X188087000Y-102870000D01*
X188087000Y-102870000D02*
X189357000Y-104140000D01*
G04 #@! TD*
G04 #@! TO.N,/+12V*
G36*
X190936055Y-74200754D02*
X190467000Y-75333151D01*
X190467000Y-76558849D01*
X190936055Y-77691246D01*
X191802754Y-78557945D01*
X192935151Y-79027000D01*
X194160849Y-79027000D01*
X195293246Y-78557945D01*
X196159945Y-77691246D01*
X196496000Y-76879939D01*
X196496000Y-91313000D01*
X187960000Y-91313000D01*
X187911399Y-91322667D01*
X187870197Y-91350197D01*
X185367394Y-93853000D01*
X178816000Y-93853000D01*
X178816000Y-93091000D01*
X178806333Y-93042399D01*
X178778803Y-93001197D01*
X178737601Y-92973667D01*
X178689000Y-92964000D01*
X160909000Y-92964000D01*
X160860399Y-92973667D01*
X160819197Y-93001197D01*
X160791667Y-93042399D01*
X160782000Y-93091000D01*
X160782000Y-102743000D01*
X147372606Y-102743000D01*
X146255538Y-101625932D01*
X148362673Y-101625932D01*
X148523012Y-101861870D01*
X149182003Y-102111104D01*
X149886209Y-102089181D01*
X150434988Y-101861870D01*
X150595327Y-101625932D01*
X155093673Y-101625932D01*
X155254012Y-101861870D01*
X155913003Y-102111104D01*
X156617209Y-102089181D01*
X157165988Y-101861870D01*
X157326327Y-101625932D01*
X156210000Y-100509605D01*
X155093673Y-101625932D01*
X150595327Y-101625932D01*
X149479000Y-100509605D01*
X148362673Y-101625932D01*
X146255538Y-101625932D01*
X144662609Y-100033003D01*
X147697896Y-100033003D01*
X147719819Y-100737209D01*
X147947130Y-101285988D01*
X148183068Y-101446327D01*
X149299395Y-100330000D01*
X149658605Y-100330000D01*
X150774932Y-101446327D01*
X151010870Y-101285988D01*
X151260104Y-100626997D01*
X151241613Y-100033003D01*
X154428896Y-100033003D01*
X154450819Y-100737209D01*
X154678130Y-101285988D01*
X154914068Y-101446327D01*
X156030395Y-100330000D01*
X156389605Y-100330000D01*
X157505932Y-101446327D01*
X157741870Y-101285988D01*
X157991104Y-100626997D01*
X157969181Y-99922791D01*
X157741870Y-99374012D01*
X157505932Y-99213673D01*
X156389605Y-100330000D01*
X156030395Y-100330000D01*
X154914068Y-99213673D01*
X154678130Y-99374012D01*
X154428896Y-100033003D01*
X151241613Y-100033003D01*
X151238181Y-99922791D01*
X151010870Y-99374012D01*
X150774932Y-99213673D01*
X149658605Y-100330000D01*
X149299395Y-100330000D01*
X148183068Y-99213673D01*
X147947130Y-99374012D01*
X147697896Y-100033003D01*
X144662609Y-100033003D01*
X143663674Y-99034068D01*
X148362673Y-99034068D01*
X149479000Y-100150395D01*
X150595327Y-99034068D01*
X155093673Y-99034068D01*
X156210000Y-100150395D01*
X157326327Y-99034068D01*
X157165988Y-98798130D01*
X156506997Y-98548896D01*
X155802791Y-98570819D01*
X155254012Y-98798130D01*
X155093673Y-99034068D01*
X150595327Y-99034068D01*
X150434988Y-98798130D01*
X149775997Y-98548896D01*
X149071791Y-98570819D01*
X148523012Y-98798130D01*
X148362673Y-99034068D01*
X143663674Y-99034068D01*
X139789803Y-95160197D01*
X139748601Y-95132667D01*
X139700000Y-95123000D01*
X133275606Y-95123000D01*
X131977255Y-93824649D01*
X146285000Y-93824649D01*
X146285000Y-94135351D01*
X146403900Y-94422401D01*
X146623599Y-94642100D01*
X146868262Y-94743443D01*
X146920000Y-94820874D01*
X146920000Y-94897351D01*
X147038900Y-95184401D01*
X147258599Y-95404100D01*
X147545649Y-95523000D01*
X147856351Y-95523000D01*
X148143401Y-95404100D01*
X148363100Y-95184401D01*
X148482000Y-94897351D01*
X148482000Y-94669843D01*
X148528464Y-94436250D01*
X148528464Y-94202250D01*
X148659000Y-94202250D01*
X148659000Y-94755785D01*
X148717004Y-94895819D01*
X148824180Y-95002996D01*
X148964214Y-95061000D01*
X149305250Y-95061000D01*
X149400500Y-94965750D01*
X149400500Y-94107000D01*
X149654500Y-94107000D01*
X149654500Y-94965750D01*
X149749750Y-95061000D01*
X150090786Y-95061000D01*
X150230820Y-95002996D01*
X150337996Y-94895819D01*
X150396000Y-94755785D01*
X150396000Y-94202250D01*
X150300750Y-94107000D01*
X149654500Y-94107000D01*
X149400500Y-94107000D01*
X148754250Y-94107000D01*
X148659000Y-94202250D01*
X148528464Y-94202250D01*
X148528464Y-93523750D01*
X148482000Y-93290157D01*
X148482000Y-93204215D01*
X148659000Y-93204215D01*
X148659000Y-93757750D01*
X148754250Y-93853000D01*
X149400500Y-93853000D01*
X149400500Y-92994250D01*
X149654500Y-92994250D01*
X149654500Y-93853000D01*
X150300750Y-93853000D01*
X150396000Y-93757750D01*
X150396000Y-93204215D01*
X150337996Y-93064181D01*
X150230820Y-92957004D01*
X150090786Y-92899000D01*
X149749750Y-92899000D01*
X149654500Y-92994250D01*
X149400500Y-92994250D01*
X149305250Y-92899000D01*
X148964214Y-92899000D01*
X148824180Y-92957004D01*
X148717004Y-93064181D01*
X148659000Y-93204215D01*
X148482000Y-93204215D01*
X148482000Y-93062649D01*
X148363100Y-92775599D01*
X148143401Y-92555900D01*
X147856351Y-92437000D01*
X147545649Y-92437000D01*
X147258599Y-92555900D01*
X147038900Y-92775599D01*
X146920000Y-93062649D01*
X146920000Y-93139126D01*
X146868262Y-93216557D01*
X146623599Y-93317900D01*
X146403900Y-93537599D01*
X146285000Y-93824649D01*
X131977255Y-93824649D01*
X130518803Y-92366197D01*
X130477601Y-92338667D01*
X130429000Y-92329000D01*
X114891420Y-92329000D01*
X114440587Y-91878167D01*
X114412247Y-91835753D01*
X114244212Y-91723475D01*
X114096032Y-91694000D01*
X114096028Y-91694000D01*
X114046000Y-91684049D01*
X113995972Y-91694000D01*
X112193606Y-91694000D01*
X110617000Y-90117394D01*
X110617000Y-88514951D01*
X114610654Y-88514951D01*
X114808837Y-88783118D01*
X115580062Y-89084093D01*
X116407759Y-89067023D01*
X117093163Y-88783118D01*
X117291346Y-88514951D01*
X124135654Y-88514951D01*
X124333837Y-88783118D01*
X125105062Y-89084093D01*
X125932759Y-89067023D01*
X126618163Y-88783118D01*
X126816346Y-88514951D01*
X133660654Y-88514951D01*
X133858837Y-88783118D01*
X134630062Y-89084093D01*
X135457759Y-89067023D01*
X136143163Y-88783118D01*
X136341346Y-88514951D01*
X143190654Y-88514951D01*
X143388837Y-88783118D01*
X144160062Y-89084093D01*
X144987759Y-89067023D01*
X145673163Y-88783118D01*
X145871346Y-88514951D01*
X152710654Y-88514951D01*
X152908837Y-88783118D01*
X153680062Y-89084093D01*
X154507759Y-89067023D01*
X155193163Y-88783118D01*
X155391346Y-88514951D01*
X162235654Y-88514951D01*
X162433837Y-88783118D01*
X163205062Y-89084093D01*
X164032759Y-89067023D01*
X164718163Y-88783118D01*
X164916346Y-88514951D01*
X171765654Y-88514951D01*
X171963837Y-88783118D01*
X172735062Y-89084093D01*
X173562759Y-89067023D01*
X174248163Y-88783118D01*
X174446346Y-88514951D01*
X173106000Y-87174605D01*
X171765654Y-88514951D01*
X164916346Y-88514951D01*
X163576000Y-87174605D01*
X162235654Y-88514951D01*
X155391346Y-88514951D01*
X154051000Y-87174605D01*
X152710654Y-88514951D01*
X145871346Y-88514951D01*
X144531000Y-87174605D01*
X143190654Y-88514951D01*
X136341346Y-88514951D01*
X135001000Y-87174605D01*
X133660654Y-88514951D01*
X126816346Y-88514951D01*
X125476000Y-87174605D01*
X124135654Y-88514951D01*
X117291346Y-88514951D01*
X115951000Y-87174605D01*
X114610654Y-88514951D01*
X110617000Y-88514951D01*
X110617000Y-88138000D01*
X110607333Y-88089399D01*
X110579803Y-88048197D01*
X109563803Y-87032197D01*
X109522601Y-87004667D01*
X109474000Y-86995000D01*
X109220000Y-86995000D01*
X109220000Y-86644294D01*
X109250279Y-86624062D01*
X113861907Y-86624062D01*
X113878977Y-87451759D01*
X114162882Y-88137163D01*
X114431049Y-88335346D01*
X115771395Y-86995000D01*
X116130605Y-86995000D01*
X117470951Y-88335346D01*
X117739118Y-88137163D01*
X118040093Y-87365938D01*
X118024793Y-86624062D01*
X123386907Y-86624062D01*
X123403977Y-87451759D01*
X123687882Y-88137163D01*
X123956049Y-88335346D01*
X125296395Y-86995000D01*
X125655605Y-86995000D01*
X126995951Y-88335346D01*
X127264118Y-88137163D01*
X127565093Y-87365938D01*
X127549793Y-86624062D01*
X132911907Y-86624062D01*
X132928977Y-87451759D01*
X133212882Y-88137163D01*
X133481049Y-88335346D01*
X134821395Y-86995000D01*
X135180605Y-86995000D01*
X136520951Y-88335346D01*
X136789118Y-88137163D01*
X137090093Y-87365938D01*
X137074793Y-86624062D01*
X142441907Y-86624062D01*
X142458977Y-87451759D01*
X142742882Y-88137163D01*
X143011049Y-88335346D01*
X144351395Y-86995000D01*
X144710605Y-86995000D01*
X146050951Y-88335346D01*
X146319118Y-88137163D01*
X146620093Y-87365938D01*
X146604793Y-86624062D01*
X151961907Y-86624062D01*
X151978977Y-87451759D01*
X152262882Y-88137163D01*
X152531049Y-88335346D01*
X153871395Y-86995000D01*
X154230605Y-86995000D01*
X155570951Y-88335346D01*
X155839118Y-88137163D01*
X156140093Y-87365938D01*
X156124793Y-86624062D01*
X161486907Y-86624062D01*
X161503977Y-87451759D01*
X161787882Y-88137163D01*
X162056049Y-88335346D01*
X163396395Y-86995000D01*
X163755605Y-86995000D01*
X165095951Y-88335346D01*
X165364118Y-88137163D01*
X165665093Y-87365938D01*
X165649793Y-86624062D01*
X171016907Y-86624062D01*
X171033977Y-87451759D01*
X171317882Y-88137163D01*
X171586049Y-88335346D01*
X172926395Y-86995000D01*
X173285605Y-86995000D01*
X174625951Y-88335346D01*
X174894118Y-88137163D01*
X175195093Y-87365938D01*
X175192027Y-87217250D01*
X180545000Y-87217250D01*
X180545000Y-88770785D01*
X180603004Y-88910819D01*
X180710180Y-89017996D01*
X180850214Y-89076000D01*
X182403750Y-89076000D01*
X182499000Y-88980750D01*
X182499000Y-87122000D01*
X182753000Y-87122000D01*
X182753000Y-88980750D01*
X182848250Y-89076000D01*
X184401786Y-89076000D01*
X184541820Y-89017996D01*
X184648996Y-88910819D01*
X184707000Y-88770785D01*
X184707000Y-88625302D01*
X193183000Y-88625302D01*
X193183000Y-89174698D01*
X193393245Y-89682273D01*
X193781727Y-90070755D01*
X194289302Y-90281000D01*
X194838698Y-90281000D01*
X195346273Y-90070755D01*
X195734755Y-89682273D01*
X195945000Y-89174698D01*
X195945000Y-88625302D01*
X195734755Y-88117727D01*
X195346273Y-87729245D01*
X194838698Y-87519000D01*
X194289302Y-87519000D01*
X193781727Y-87729245D01*
X193393245Y-88117727D01*
X193183000Y-88625302D01*
X184707000Y-88625302D01*
X184707000Y-87217250D01*
X184611750Y-87122000D01*
X182753000Y-87122000D01*
X182499000Y-87122000D01*
X180640250Y-87122000D01*
X180545000Y-87217250D01*
X175192027Y-87217250D01*
X175178023Y-86538241D01*
X174894118Y-85852837D01*
X174625951Y-85654654D01*
X173285605Y-86995000D01*
X172926395Y-86995000D01*
X171586049Y-85654654D01*
X171317882Y-85852837D01*
X171016907Y-86624062D01*
X165649793Y-86624062D01*
X165648023Y-86538241D01*
X165364118Y-85852837D01*
X165095951Y-85654654D01*
X163755605Y-86995000D01*
X163396395Y-86995000D01*
X162056049Y-85654654D01*
X161787882Y-85852837D01*
X161486907Y-86624062D01*
X156124793Y-86624062D01*
X156123023Y-86538241D01*
X155839118Y-85852837D01*
X155570951Y-85654654D01*
X154230605Y-86995000D01*
X153871395Y-86995000D01*
X152531049Y-85654654D01*
X152262882Y-85852837D01*
X151961907Y-86624062D01*
X146604793Y-86624062D01*
X146603023Y-86538241D01*
X146319118Y-85852837D01*
X146050951Y-85654654D01*
X144710605Y-86995000D01*
X144351395Y-86995000D01*
X143011049Y-85654654D01*
X142742882Y-85852837D01*
X142441907Y-86624062D01*
X137074793Y-86624062D01*
X137073023Y-86538241D01*
X136789118Y-85852837D01*
X136520951Y-85654654D01*
X135180605Y-86995000D01*
X134821395Y-86995000D01*
X133481049Y-85654654D01*
X133212882Y-85852837D01*
X132911907Y-86624062D01*
X127549793Y-86624062D01*
X127548023Y-86538241D01*
X127264118Y-85852837D01*
X126995951Y-85654654D01*
X125655605Y-86995000D01*
X125296395Y-86995000D01*
X123956049Y-85654654D01*
X123687882Y-85852837D01*
X123386907Y-86624062D01*
X118024793Y-86624062D01*
X118023023Y-86538241D01*
X117739118Y-85852837D01*
X117470951Y-85654654D01*
X116130605Y-86995000D01*
X115771395Y-86995000D01*
X114431049Y-85654654D01*
X114162882Y-85852837D01*
X113861907Y-86624062D01*
X109250279Y-86624062D01*
X109397615Y-86525615D01*
X109529243Y-86328621D01*
X109575464Y-86096250D01*
X109575464Y-85658750D01*
X109538924Y-85475049D01*
X114610654Y-85475049D01*
X115951000Y-86815395D01*
X117291346Y-85475049D01*
X124135654Y-85475049D01*
X125476000Y-86815395D01*
X126816346Y-85475049D01*
X133660654Y-85475049D01*
X135001000Y-86815395D01*
X136341346Y-85475049D01*
X143190654Y-85475049D01*
X144531000Y-86815395D01*
X145871346Y-85475049D01*
X152710654Y-85475049D01*
X154051000Y-86815395D01*
X155391346Y-85475049D01*
X162235654Y-85475049D01*
X163576000Y-86815395D01*
X164916346Y-85475049D01*
X171765654Y-85475049D01*
X173106000Y-86815395D01*
X174446346Y-85475049D01*
X174257278Y-85219215D01*
X180545000Y-85219215D01*
X180545000Y-86772750D01*
X180640250Y-86868000D01*
X182499000Y-86868000D01*
X182499000Y-85009250D01*
X182753000Y-85009250D01*
X182753000Y-86868000D01*
X184611750Y-86868000D01*
X184707000Y-86772750D01*
X184707000Y-85219215D01*
X184648996Y-85079181D01*
X184541820Y-84972004D01*
X184401786Y-84914000D01*
X182848250Y-84914000D01*
X182753000Y-85009250D01*
X182499000Y-85009250D01*
X182403750Y-84914000D01*
X180850214Y-84914000D01*
X180710180Y-84972004D01*
X180603004Y-85079181D01*
X180545000Y-85219215D01*
X174257278Y-85219215D01*
X174248163Y-85206882D01*
X173476938Y-84905907D01*
X172649241Y-84922977D01*
X171963837Y-85206882D01*
X171765654Y-85475049D01*
X164916346Y-85475049D01*
X164718163Y-85206882D01*
X163946938Y-84905907D01*
X163119241Y-84922977D01*
X162433837Y-85206882D01*
X162235654Y-85475049D01*
X155391346Y-85475049D01*
X155193163Y-85206882D01*
X154421938Y-84905907D01*
X153594241Y-84922977D01*
X152908837Y-85206882D01*
X152710654Y-85475049D01*
X145871346Y-85475049D01*
X145673163Y-85206882D01*
X144901938Y-84905907D01*
X144074241Y-84922977D01*
X143388837Y-85206882D01*
X143190654Y-85475049D01*
X136341346Y-85475049D01*
X136143163Y-85206882D01*
X135371938Y-84905907D01*
X134544241Y-84922977D01*
X133858837Y-85206882D01*
X133660654Y-85475049D01*
X126816346Y-85475049D01*
X126618163Y-85206882D01*
X125846938Y-84905907D01*
X125019241Y-84922977D01*
X124333837Y-85206882D01*
X124135654Y-85475049D01*
X117291346Y-85475049D01*
X117093163Y-85206882D01*
X116321938Y-84905907D01*
X115494241Y-84922977D01*
X114808837Y-85206882D01*
X114610654Y-85475049D01*
X109538924Y-85475049D01*
X109529243Y-85426379D01*
X109397615Y-85229385D01*
X109200621Y-85097757D01*
X109161624Y-85090000D01*
X109200621Y-85082243D01*
X109397615Y-84950615D01*
X109529243Y-84753621D01*
X109575464Y-84521250D01*
X109575464Y-84083750D01*
X109529243Y-83851379D01*
X109493010Y-83797153D01*
X109493010Y-83664649D01*
X109374110Y-83377599D01*
X109154411Y-83157900D01*
X108867361Y-83039000D01*
X108556659Y-83039000D01*
X108269609Y-83157900D01*
X108049910Y-83377599D01*
X107931010Y-83664649D01*
X107931010Y-83797123D01*
X107894757Y-83851379D01*
X107848536Y-84083750D01*
X107848536Y-84521250D01*
X107894757Y-84753621D01*
X108026385Y-84950615D01*
X108223379Y-85082243D01*
X108262376Y-85090000D01*
X108223379Y-85097757D01*
X108026385Y-85229385D01*
X107894757Y-85426379D01*
X107848536Y-85658750D01*
X107848536Y-86096250D01*
X107894757Y-86328621D01*
X108026385Y-86525615D01*
X108204000Y-86644294D01*
X108204000Y-86995000D01*
X102081000Y-86995000D01*
X102081000Y-84815302D01*
X102759000Y-84815302D01*
X102759000Y-85364698D01*
X102969245Y-85872273D01*
X103357727Y-86260755D01*
X103865302Y-86471000D01*
X104414698Y-86471000D01*
X104922273Y-86260755D01*
X105310755Y-85872273D01*
X105521000Y-85364698D01*
X105521000Y-84815302D01*
X105310755Y-84307727D01*
X104922273Y-83919245D01*
X104414698Y-83709000D01*
X103865302Y-83709000D01*
X103357727Y-83919245D01*
X102969245Y-84307727D01*
X102759000Y-84815302D01*
X102081000Y-84815302D01*
X102081000Y-81002119D01*
X190373000Y-81002119D01*
X190373000Y-81557881D01*
X190585680Y-82071337D01*
X190978663Y-82464320D01*
X191492119Y-82677000D01*
X192047881Y-82677000D01*
X192561337Y-82464320D01*
X192954320Y-82071337D01*
X193167000Y-81557881D01*
X193167000Y-81077905D01*
X193294000Y-81077905D01*
X193294000Y-81482095D01*
X193448676Y-81855518D01*
X193734482Y-82141324D01*
X194107905Y-82296000D01*
X194512095Y-82296000D01*
X194885518Y-82141324D01*
X195171324Y-81855518D01*
X195326000Y-81482095D01*
X195326000Y-81077905D01*
X195171324Y-80704482D01*
X194885518Y-80418676D01*
X194512095Y-80264000D01*
X194107905Y-80264000D01*
X193734482Y-80418676D01*
X193448676Y-80704482D01*
X193294000Y-81077905D01*
X193167000Y-81077905D01*
X193167000Y-81002119D01*
X192954320Y-80488663D01*
X192561337Y-80095680D01*
X192047881Y-79883000D01*
X191492119Y-79883000D01*
X190978663Y-80095680D01*
X190585680Y-80488663D01*
X190373000Y-81002119D01*
X102081000Y-81002119D01*
X102081000Y-76879939D01*
X102417055Y-77691246D01*
X103283754Y-78557945D01*
X104416151Y-79027000D01*
X105641849Y-79027000D01*
X106774246Y-78557945D01*
X107640945Y-77691246D01*
X108110000Y-76558849D01*
X108110000Y-75333151D01*
X107640945Y-74200754D01*
X106946191Y-73506000D01*
X191630809Y-73506000D01*
X190936055Y-74200754D01*
X190936055Y-74200754D01*
G37*
X190936055Y-74200754D02*
X190467000Y-75333151D01*
X190467000Y-76558849D01*
X190936055Y-77691246D01*
X191802754Y-78557945D01*
X192935151Y-79027000D01*
X194160849Y-79027000D01*
X195293246Y-78557945D01*
X196159945Y-77691246D01*
X196496000Y-76879939D01*
X196496000Y-91313000D01*
X187960000Y-91313000D01*
X187911399Y-91322667D01*
X187870197Y-91350197D01*
X185367394Y-93853000D01*
X178816000Y-93853000D01*
X178816000Y-93091000D01*
X178806333Y-93042399D01*
X178778803Y-93001197D01*
X178737601Y-92973667D01*
X178689000Y-92964000D01*
X160909000Y-92964000D01*
X160860399Y-92973667D01*
X160819197Y-93001197D01*
X160791667Y-93042399D01*
X160782000Y-93091000D01*
X160782000Y-102743000D01*
X147372606Y-102743000D01*
X146255538Y-101625932D01*
X148362673Y-101625932D01*
X148523012Y-101861870D01*
X149182003Y-102111104D01*
X149886209Y-102089181D01*
X150434988Y-101861870D01*
X150595327Y-101625932D01*
X155093673Y-101625932D01*
X155254012Y-101861870D01*
X155913003Y-102111104D01*
X156617209Y-102089181D01*
X157165988Y-101861870D01*
X157326327Y-101625932D01*
X156210000Y-100509605D01*
X155093673Y-101625932D01*
X150595327Y-101625932D01*
X149479000Y-100509605D01*
X148362673Y-101625932D01*
X146255538Y-101625932D01*
X144662609Y-100033003D01*
X147697896Y-100033003D01*
X147719819Y-100737209D01*
X147947130Y-101285988D01*
X148183068Y-101446327D01*
X149299395Y-100330000D01*
X149658605Y-100330000D01*
X150774932Y-101446327D01*
X151010870Y-101285988D01*
X151260104Y-100626997D01*
X151241613Y-100033003D01*
X154428896Y-100033003D01*
X154450819Y-100737209D01*
X154678130Y-101285988D01*
X154914068Y-101446327D01*
X156030395Y-100330000D01*
X156389605Y-100330000D01*
X157505932Y-101446327D01*
X157741870Y-101285988D01*
X157991104Y-100626997D01*
X157969181Y-99922791D01*
X157741870Y-99374012D01*
X157505932Y-99213673D01*
X156389605Y-100330000D01*
X156030395Y-100330000D01*
X154914068Y-99213673D01*
X154678130Y-99374012D01*
X154428896Y-100033003D01*
X151241613Y-100033003D01*
X151238181Y-99922791D01*
X151010870Y-99374012D01*
X150774932Y-99213673D01*
X149658605Y-100330000D01*
X149299395Y-100330000D01*
X148183068Y-99213673D01*
X147947130Y-99374012D01*
X147697896Y-100033003D01*
X144662609Y-100033003D01*
X143663674Y-99034068D01*
X148362673Y-99034068D01*
X149479000Y-100150395D01*
X150595327Y-99034068D01*
X155093673Y-99034068D01*
X156210000Y-100150395D01*
X157326327Y-99034068D01*
X157165988Y-98798130D01*
X156506997Y-98548896D01*
X155802791Y-98570819D01*
X155254012Y-98798130D01*
X155093673Y-99034068D01*
X150595327Y-99034068D01*
X150434988Y-98798130D01*
X149775997Y-98548896D01*
X149071791Y-98570819D01*
X148523012Y-98798130D01*
X148362673Y-99034068D01*
X143663674Y-99034068D01*
X139789803Y-95160197D01*
X139748601Y-95132667D01*
X139700000Y-95123000D01*
X133275606Y-95123000D01*
X131977255Y-93824649D01*
X146285000Y-93824649D01*
X146285000Y-94135351D01*
X146403900Y-94422401D01*
X146623599Y-94642100D01*
X146868262Y-94743443D01*
X146920000Y-94820874D01*
X146920000Y-94897351D01*
X147038900Y-95184401D01*
X147258599Y-95404100D01*
X147545649Y-95523000D01*
X147856351Y-95523000D01*
X148143401Y-95404100D01*
X148363100Y-95184401D01*
X148482000Y-94897351D01*
X148482000Y-94669843D01*
X148528464Y-94436250D01*
X148528464Y-94202250D01*
X148659000Y-94202250D01*
X148659000Y-94755785D01*
X148717004Y-94895819D01*
X148824180Y-95002996D01*
X148964214Y-95061000D01*
X149305250Y-95061000D01*
X149400500Y-94965750D01*
X149400500Y-94107000D01*
X149654500Y-94107000D01*
X149654500Y-94965750D01*
X149749750Y-95061000D01*
X150090786Y-95061000D01*
X150230820Y-95002996D01*
X150337996Y-94895819D01*
X150396000Y-94755785D01*
X150396000Y-94202250D01*
X150300750Y-94107000D01*
X149654500Y-94107000D01*
X149400500Y-94107000D01*
X148754250Y-94107000D01*
X148659000Y-94202250D01*
X148528464Y-94202250D01*
X148528464Y-93523750D01*
X148482000Y-93290157D01*
X148482000Y-93204215D01*
X148659000Y-93204215D01*
X148659000Y-93757750D01*
X148754250Y-93853000D01*
X149400500Y-93853000D01*
X149400500Y-92994250D01*
X149654500Y-92994250D01*
X149654500Y-93853000D01*
X150300750Y-93853000D01*
X150396000Y-93757750D01*
X150396000Y-93204215D01*
X150337996Y-93064181D01*
X150230820Y-92957004D01*
X150090786Y-92899000D01*
X149749750Y-92899000D01*
X149654500Y-92994250D01*
X149400500Y-92994250D01*
X149305250Y-92899000D01*
X148964214Y-92899000D01*
X148824180Y-92957004D01*
X148717004Y-93064181D01*
X148659000Y-93204215D01*
X148482000Y-93204215D01*
X148482000Y-93062649D01*
X148363100Y-92775599D01*
X148143401Y-92555900D01*
X147856351Y-92437000D01*
X147545649Y-92437000D01*
X147258599Y-92555900D01*
X147038900Y-92775599D01*
X146920000Y-93062649D01*
X146920000Y-93139126D01*
X146868262Y-93216557D01*
X146623599Y-93317900D01*
X146403900Y-93537599D01*
X146285000Y-93824649D01*
X131977255Y-93824649D01*
X130518803Y-92366197D01*
X130477601Y-92338667D01*
X130429000Y-92329000D01*
X114891420Y-92329000D01*
X114440587Y-91878167D01*
X114412247Y-91835753D01*
X114244212Y-91723475D01*
X114096032Y-91694000D01*
X114096028Y-91694000D01*
X114046000Y-91684049D01*
X113995972Y-91694000D01*
X112193606Y-91694000D01*
X110617000Y-90117394D01*
X110617000Y-88514951D01*
X114610654Y-88514951D01*
X114808837Y-88783118D01*
X115580062Y-89084093D01*
X116407759Y-89067023D01*
X117093163Y-88783118D01*
X117291346Y-88514951D01*
X124135654Y-88514951D01*
X124333837Y-88783118D01*
X125105062Y-89084093D01*
X125932759Y-89067023D01*
X126618163Y-88783118D01*
X126816346Y-88514951D01*
X133660654Y-88514951D01*
X133858837Y-88783118D01*
X134630062Y-89084093D01*
X135457759Y-89067023D01*
X136143163Y-88783118D01*
X136341346Y-88514951D01*
X143190654Y-88514951D01*
X143388837Y-88783118D01*
X144160062Y-89084093D01*
X144987759Y-89067023D01*
X145673163Y-88783118D01*
X145871346Y-88514951D01*
X152710654Y-88514951D01*
X152908837Y-88783118D01*
X153680062Y-89084093D01*
X154507759Y-89067023D01*
X155193163Y-88783118D01*
X155391346Y-88514951D01*
X162235654Y-88514951D01*
X162433837Y-88783118D01*
X163205062Y-89084093D01*
X164032759Y-89067023D01*
X164718163Y-88783118D01*
X164916346Y-88514951D01*
X171765654Y-88514951D01*
X171963837Y-88783118D01*
X172735062Y-89084093D01*
X173562759Y-89067023D01*
X174248163Y-88783118D01*
X174446346Y-88514951D01*
X173106000Y-87174605D01*
X171765654Y-88514951D01*
X164916346Y-88514951D01*
X163576000Y-87174605D01*
X162235654Y-88514951D01*
X155391346Y-88514951D01*
X154051000Y-87174605D01*
X152710654Y-88514951D01*
X145871346Y-88514951D01*
X144531000Y-87174605D01*
X143190654Y-88514951D01*
X136341346Y-88514951D01*
X135001000Y-87174605D01*
X133660654Y-88514951D01*
X126816346Y-88514951D01*
X125476000Y-87174605D01*
X124135654Y-88514951D01*
X117291346Y-88514951D01*
X115951000Y-87174605D01*
X114610654Y-88514951D01*
X110617000Y-88514951D01*
X110617000Y-88138000D01*
X110607333Y-88089399D01*
X110579803Y-88048197D01*
X109563803Y-87032197D01*
X109522601Y-87004667D01*
X109474000Y-86995000D01*
X109220000Y-86995000D01*
X109220000Y-86644294D01*
X109250279Y-86624062D01*
X113861907Y-86624062D01*
X113878977Y-87451759D01*
X114162882Y-88137163D01*
X114431049Y-88335346D01*
X115771395Y-86995000D01*
X116130605Y-86995000D01*
X117470951Y-88335346D01*
X117739118Y-88137163D01*
X118040093Y-87365938D01*
X118024793Y-86624062D01*
X123386907Y-86624062D01*
X123403977Y-87451759D01*
X123687882Y-88137163D01*
X123956049Y-88335346D01*
X125296395Y-86995000D01*
X125655605Y-86995000D01*
X126995951Y-88335346D01*
X127264118Y-88137163D01*
X127565093Y-87365938D01*
X127549793Y-86624062D01*
X132911907Y-86624062D01*
X132928977Y-87451759D01*
X133212882Y-88137163D01*
X133481049Y-88335346D01*
X134821395Y-86995000D01*
X135180605Y-86995000D01*
X136520951Y-88335346D01*
X136789118Y-88137163D01*
X137090093Y-87365938D01*
X137074793Y-86624062D01*
X142441907Y-86624062D01*
X142458977Y-87451759D01*
X142742882Y-88137163D01*
X143011049Y-88335346D01*
X144351395Y-86995000D01*
X144710605Y-86995000D01*
X146050951Y-88335346D01*
X146319118Y-88137163D01*
X146620093Y-87365938D01*
X146604793Y-86624062D01*
X151961907Y-86624062D01*
X151978977Y-87451759D01*
X152262882Y-88137163D01*
X152531049Y-88335346D01*
X153871395Y-86995000D01*
X154230605Y-86995000D01*
X155570951Y-88335346D01*
X155839118Y-88137163D01*
X156140093Y-87365938D01*
X156124793Y-86624062D01*
X161486907Y-86624062D01*
X161503977Y-87451759D01*
X161787882Y-88137163D01*
X162056049Y-88335346D01*
X163396395Y-86995000D01*
X163755605Y-86995000D01*
X165095951Y-88335346D01*
X165364118Y-88137163D01*
X165665093Y-87365938D01*
X165649793Y-86624062D01*
X171016907Y-86624062D01*
X171033977Y-87451759D01*
X171317882Y-88137163D01*
X171586049Y-88335346D01*
X172926395Y-86995000D01*
X173285605Y-86995000D01*
X174625951Y-88335346D01*
X174894118Y-88137163D01*
X175195093Y-87365938D01*
X175192027Y-87217250D01*
X180545000Y-87217250D01*
X180545000Y-88770785D01*
X180603004Y-88910819D01*
X180710180Y-89017996D01*
X180850214Y-89076000D01*
X182403750Y-89076000D01*
X182499000Y-88980750D01*
X182499000Y-87122000D01*
X182753000Y-87122000D01*
X182753000Y-88980750D01*
X182848250Y-89076000D01*
X184401786Y-89076000D01*
X184541820Y-89017996D01*
X184648996Y-88910819D01*
X184707000Y-88770785D01*
X184707000Y-88625302D01*
X193183000Y-88625302D01*
X193183000Y-89174698D01*
X193393245Y-89682273D01*
X193781727Y-90070755D01*
X194289302Y-90281000D01*
X194838698Y-90281000D01*
X195346273Y-90070755D01*
X195734755Y-89682273D01*
X195945000Y-89174698D01*
X195945000Y-88625302D01*
X195734755Y-88117727D01*
X195346273Y-87729245D01*
X194838698Y-87519000D01*
X194289302Y-87519000D01*
X193781727Y-87729245D01*
X193393245Y-88117727D01*
X193183000Y-88625302D01*
X184707000Y-88625302D01*
X184707000Y-87217250D01*
X184611750Y-87122000D01*
X182753000Y-87122000D01*
X182499000Y-87122000D01*
X180640250Y-87122000D01*
X180545000Y-87217250D01*
X175192027Y-87217250D01*
X175178023Y-86538241D01*
X174894118Y-85852837D01*
X174625951Y-85654654D01*
X173285605Y-86995000D01*
X172926395Y-86995000D01*
X171586049Y-85654654D01*
X171317882Y-85852837D01*
X171016907Y-86624062D01*
X165649793Y-86624062D01*
X165648023Y-86538241D01*
X165364118Y-85852837D01*
X165095951Y-85654654D01*
X163755605Y-86995000D01*
X163396395Y-86995000D01*
X162056049Y-85654654D01*
X161787882Y-85852837D01*
X161486907Y-86624062D01*
X156124793Y-86624062D01*
X156123023Y-86538241D01*
X155839118Y-85852837D01*
X155570951Y-85654654D01*
X154230605Y-86995000D01*
X153871395Y-86995000D01*
X152531049Y-85654654D01*
X152262882Y-85852837D01*
X151961907Y-86624062D01*
X146604793Y-86624062D01*
X146603023Y-86538241D01*
X146319118Y-85852837D01*
X146050951Y-85654654D01*
X144710605Y-86995000D01*
X144351395Y-86995000D01*
X143011049Y-85654654D01*
X142742882Y-85852837D01*
X142441907Y-86624062D01*
X137074793Y-86624062D01*
X137073023Y-86538241D01*
X136789118Y-85852837D01*
X136520951Y-85654654D01*
X135180605Y-86995000D01*
X134821395Y-86995000D01*
X133481049Y-85654654D01*
X133212882Y-85852837D01*
X132911907Y-86624062D01*
X127549793Y-86624062D01*
X127548023Y-86538241D01*
X127264118Y-85852837D01*
X126995951Y-85654654D01*
X125655605Y-86995000D01*
X125296395Y-86995000D01*
X123956049Y-85654654D01*
X123687882Y-85852837D01*
X123386907Y-86624062D01*
X118024793Y-86624062D01*
X118023023Y-86538241D01*
X117739118Y-85852837D01*
X117470951Y-85654654D01*
X116130605Y-86995000D01*
X115771395Y-86995000D01*
X114431049Y-85654654D01*
X114162882Y-85852837D01*
X113861907Y-86624062D01*
X109250279Y-86624062D01*
X109397615Y-86525615D01*
X109529243Y-86328621D01*
X109575464Y-86096250D01*
X109575464Y-85658750D01*
X109538924Y-85475049D01*
X114610654Y-85475049D01*
X115951000Y-86815395D01*
X117291346Y-85475049D01*
X124135654Y-85475049D01*
X125476000Y-86815395D01*
X126816346Y-85475049D01*
X133660654Y-85475049D01*
X135001000Y-86815395D01*
X136341346Y-85475049D01*
X143190654Y-85475049D01*
X144531000Y-86815395D01*
X145871346Y-85475049D01*
X152710654Y-85475049D01*
X154051000Y-86815395D01*
X155391346Y-85475049D01*
X162235654Y-85475049D01*
X163576000Y-86815395D01*
X164916346Y-85475049D01*
X171765654Y-85475049D01*
X173106000Y-86815395D01*
X174446346Y-85475049D01*
X174257278Y-85219215D01*
X180545000Y-85219215D01*
X180545000Y-86772750D01*
X180640250Y-86868000D01*
X182499000Y-86868000D01*
X182499000Y-85009250D01*
X182753000Y-85009250D01*
X182753000Y-86868000D01*
X184611750Y-86868000D01*
X184707000Y-86772750D01*
X184707000Y-85219215D01*
X184648996Y-85079181D01*
X184541820Y-84972004D01*
X184401786Y-84914000D01*
X182848250Y-84914000D01*
X182753000Y-85009250D01*
X182499000Y-85009250D01*
X182403750Y-84914000D01*
X180850214Y-84914000D01*
X180710180Y-84972004D01*
X180603004Y-85079181D01*
X180545000Y-85219215D01*
X174257278Y-85219215D01*
X174248163Y-85206882D01*
X173476938Y-84905907D01*
X172649241Y-84922977D01*
X171963837Y-85206882D01*
X171765654Y-85475049D01*
X164916346Y-85475049D01*
X164718163Y-85206882D01*
X163946938Y-84905907D01*
X163119241Y-84922977D01*
X162433837Y-85206882D01*
X162235654Y-85475049D01*
X155391346Y-85475049D01*
X155193163Y-85206882D01*
X154421938Y-84905907D01*
X153594241Y-84922977D01*
X152908837Y-85206882D01*
X152710654Y-85475049D01*
X145871346Y-85475049D01*
X145673163Y-85206882D01*
X144901938Y-84905907D01*
X144074241Y-84922977D01*
X143388837Y-85206882D01*
X143190654Y-85475049D01*
X136341346Y-85475049D01*
X136143163Y-85206882D01*
X135371938Y-84905907D01*
X134544241Y-84922977D01*
X133858837Y-85206882D01*
X133660654Y-85475049D01*
X126816346Y-85475049D01*
X126618163Y-85206882D01*
X125846938Y-84905907D01*
X125019241Y-84922977D01*
X124333837Y-85206882D01*
X124135654Y-85475049D01*
X117291346Y-85475049D01*
X117093163Y-85206882D01*
X116321938Y-84905907D01*
X115494241Y-84922977D01*
X114808837Y-85206882D01*
X114610654Y-85475049D01*
X109538924Y-85475049D01*
X109529243Y-85426379D01*
X109397615Y-85229385D01*
X109200621Y-85097757D01*
X109161624Y-85090000D01*
X109200621Y-85082243D01*
X109397615Y-84950615D01*
X109529243Y-84753621D01*
X109575464Y-84521250D01*
X109575464Y-84083750D01*
X109529243Y-83851379D01*
X109493010Y-83797153D01*
X109493010Y-83664649D01*
X109374110Y-83377599D01*
X109154411Y-83157900D01*
X108867361Y-83039000D01*
X108556659Y-83039000D01*
X108269609Y-83157900D01*
X108049910Y-83377599D01*
X107931010Y-83664649D01*
X107931010Y-83797123D01*
X107894757Y-83851379D01*
X107848536Y-84083750D01*
X107848536Y-84521250D01*
X107894757Y-84753621D01*
X108026385Y-84950615D01*
X108223379Y-85082243D01*
X108262376Y-85090000D01*
X108223379Y-85097757D01*
X108026385Y-85229385D01*
X107894757Y-85426379D01*
X107848536Y-85658750D01*
X107848536Y-86096250D01*
X107894757Y-86328621D01*
X108026385Y-86525615D01*
X108204000Y-86644294D01*
X108204000Y-86995000D01*
X102081000Y-86995000D01*
X102081000Y-84815302D01*
X102759000Y-84815302D01*
X102759000Y-85364698D01*
X102969245Y-85872273D01*
X103357727Y-86260755D01*
X103865302Y-86471000D01*
X104414698Y-86471000D01*
X104922273Y-86260755D01*
X105310755Y-85872273D01*
X105521000Y-85364698D01*
X105521000Y-84815302D01*
X105310755Y-84307727D01*
X104922273Y-83919245D01*
X104414698Y-83709000D01*
X103865302Y-83709000D01*
X103357727Y-83919245D01*
X102969245Y-84307727D01*
X102759000Y-84815302D01*
X102081000Y-84815302D01*
X102081000Y-81002119D01*
X190373000Y-81002119D01*
X190373000Y-81557881D01*
X190585680Y-82071337D01*
X190978663Y-82464320D01*
X191492119Y-82677000D01*
X192047881Y-82677000D01*
X192561337Y-82464320D01*
X192954320Y-82071337D01*
X193167000Y-81557881D01*
X193167000Y-81077905D01*
X193294000Y-81077905D01*
X193294000Y-81482095D01*
X193448676Y-81855518D01*
X193734482Y-82141324D01*
X194107905Y-82296000D01*
X194512095Y-82296000D01*
X194885518Y-82141324D01*
X195171324Y-81855518D01*
X195326000Y-81482095D01*
X195326000Y-81077905D01*
X195171324Y-80704482D01*
X194885518Y-80418676D01*
X194512095Y-80264000D01*
X194107905Y-80264000D01*
X193734482Y-80418676D01*
X193448676Y-80704482D01*
X193294000Y-81077905D01*
X193167000Y-81077905D01*
X193167000Y-81002119D01*
X192954320Y-80488663D01*
X192561337Y-80095680D01*
X192047881Y-79883000D01*
X191492119Y-79883000D01*
X190978663Y-80095680D01*
X190585680Y-80488663D01*
X190373000Y-81002119D01*
X102081000Y-81002119D01*
X102081000Y-76879939D01*
X102417055Y-77691246D01*
X103283754Y-78557945D01*
X104416151Y-79027000D01*
X105641849Y-79027000D01*
X106774246Y-78557945D01*
X107640945Y-77691246D01*
X108110000Y-76558849D01*
X108110000Y-75333151D01*
X107640945Y-74200754D01*
X106946191Y-73506000D01*
X191630809Y-73506000D01*
X190936055Y-74200754D01*
G04 #@! TO.N,Net-(D5-Pad1)*
G36*
X142113000Y-99112606D02*
X142113000Y-101547394D01*
X139647394Y-104013000D01*
X125857000Y-104013000D01*
X125857000Y-101625932D01*
X130582673Y-101625932D01*
X130743012Y-101861870D01*
X131402003Y-102111104D01*
X132106209Y-102089181D01*
X132654988Y-101861870D01*
X132815327Y-101625932D01*
X137313673Y-101625932D01*
X137474012Y-101861870D01*
X138133003Y-102111104D01*
X138837209Y-102089181D01*
X139385988Y-101861870D01*
X139546327Y-101625932D01*
X138430000Y-100509605D01*
X137313673Y-101625932D01*
X132815327Y-101625932D01*
X131699000Y-100509605D01*
X130582673Y-101625932D01*
X125857000Y-101625932D01*
X125857000Y-100033003D01*
X129917896Y-100033003D01*
X129939819Y-100737209D01*
X130167130Y-101285988D01*
X130403068Y-101446327D01*
X131519395Y-100330000D01*
X131878605Y-100330000D01*
X132994932Y-101446327D01*
X133230870Y-101285988D01*
X133480104Y-100626997D01*
X133461613Y-100033003D01*
X136648896Y-100033003D01*
X136670819Y-100737209D01*
X136898130Y-101285988D01*
X137134068Y-101446327D01*
X138250395Y-100330000D01*
X138609605Y-100330000D01*
X139725932Y-101446327D01*
X139961870Y-101285988D01*
X140211104Y-100626997D01*
X140189181Y-99922791D01*
X139961870Y-99374012D01*
X139725932Y-99213673D01*
X138609605Y-100330000D01*
X138250395Y-100330000D01*
X137134068Y-99213673D01*
X136898130Y-99374012D01*
X136648896Y-100033003D01*
X133461613Y-100033003D01*
X133458181Y-99922791D01*
X133230870Y-99374012D01*
X132994932Y-99213673D01*
X131878605Y-100330000D01*
X131519395Y-100330000D01*
X130403068Y-99213673D01*
X130167130Y-99374012D01*
X129917896Y-100033003D01*
X125857000Y-100033003D01*
X125857000Y-99034068D01*
X130582673Y-99034068D01*
X131699000Y-100150395D01*
X132815327Y-99034068D01*
X137313673Y-99034068D01*
X138430000Y-100150395D01*
X139546327Y-99034068D01*
X139385988Y-98798130D01*
X138726997Y-98548896D01*
X138022791Y-98570819D01*
X137474012Y-98798130D01*
X137313673Y-99034068D01*
X132815327Y-99034068D01*
X132654988Y-98798130D01*
X131995997Y-98548896D01*
X131291791Y-98570819D01*
X130743012Y-98798130D01*
X130582673Y-99034068D01*
X125857000Y-99034068D01*
X125857000Y-96647000D01*
X139647394Y-96647000D01*
X142113000Y-99112606D01*
X142113000Y-99112606D01*
G37*
X142113000Y-99112606D02*
X142113000Y-101547394D01*
X139647394Y-104013000D01*
X125857000Y-104013000D01*
X125857000Y-101625932D01*
X130582673Y-101625932D01*
X130743012Y-101861870D01*
X131402003Y-102111104D01*
X132106209Y-102089181D01*
X132654988Y-101861870D01*
X132815327Y-101625932D01*
X137313673Y-101625932D01*
X137474012Y-101861870D01*
X138133003Y-102111104D01*
X138837209Y-102089181D01*
X139385988Y-101861870D01*
X139546327Y-101625932D01*
X138430000Y-100509605D01*
X137313673Y-101625932D01*
X132815327Y-101625932D01*
X131699000Y-100509605D01*
X130582673Y-101625932D01*
X125857000Y-101625932D01*
X125857000Y-100033003D01*
X129917896Y-100033003D01*
X129939819Y-100737209D01*
X130167130Y-101285988D01*
X130403068Y-101446327D01*
X131519395Y-100330000D01*
X131878605Y-100330000D01*
X132994932Y-101446327D01*
X133230870Y-101285988D01*
X133480104Y-100626997D01*
X133461613Y-100033003D01*
X136648896Y-100033003D01*
X136670819Y-100737209D01*
X136898130Y-101285988D01*
X137134068Y-101446327D01*
X138250395Y-100330000D01*
X138609605Y-100330000D01*
X139725932Y-101446327D01*
X139961870Y-101285988D01*
X140211104Y-100626997D01*
X140189181Y-99922791D01*
X139961870Y-99374012D01*
X139725932Y-99213673D01*
X138609605Y-100330000D01*
X138250395Y-100330000D01*
X137134068Y-99213673D01*
X136898130Y-99374012D01*
X136648896Y-100033003D01*
X133461613Y-100033003D01*
X133458181Y-99922791D01*
X133230870Y-99374012D01*
X132994932Y-99213673D01*
X131878605Y-100330000D01*
X131519395Y-100330000D01*
X130403068Y-99213673D01*
X130167130Y-99374012D01*
X129917896Y-100033003D01*
X125857000Y-100033003D01*
X125857000Y-99034068D01*
X130582673Y-99034068D01*
X131699000Y-100150395D01*
X132815327Y-99034068D01*
X137313673Y-99034068D01*
X138430000Y-100150395D01*
X139546327Y-99034068D01*
X139385988Y-98798130D01*
X138726997Y-98548896D01*
X138022791Y-98570819D01*
X137474012Y-98798130D01*
X137313673Y-99034068D01*
X132815327Y-99034068D01*
X132654988Y-98798130D01*
X131995997Y-98548896D01*
X131291791Y-98570819D01*
X130743012Y-98798130D01*
X130582673Y-99034068D01*
X125857000Y-99034068D01*
X125857000Y-96647000D01*
X139647394Y-96647000D01*
X142113000Y-99112606D01*
G04 #@! TO.N,Net-(C1-Pad1)*
G36*
X130048000Y-94032606D02*
X130048000Y-96139000D01*
X125603000Y-96139000D01*
X125554399Y-96148667D01*
X125513197Y-96176197D01*
X125169394Y-96520000D01*
X120523000Y-96520000D01*
X120474399Y-96529667D01*
X120433197Y-96557197D01*
X118057394Y-98933000D01*
X113284000Y-98933000D01*
X113284000Y-95556606D01*
X113368356Y-95472250D01*
X120739000Y-95472250D01*
X120739000Y-96125786D01*
X120797004Y-96265820D01*
X120904181Y-96372996D01*
X121044215Y-96431000D01*
X121697750Y-96431000D01*
X121793000Y-96335750D01*
X121793000Y-95377000D01*
X122047000Y-95377000D01*
X122047000Y-96335750D01*
X122142250Y-96431000D01*
X122795785Y-96431000D01*
X122935819Y-96372996D01*
X123042996Y-96265820D01*
X123101000Y-96125786D01*
X123101000Y-95472250D01*
X123005750Y-95377000D01*
X122047000Y-95377000D01*
X121793000Y-95377000D01*
X120834250Y-95377000D01*
X120739000Y-95472250D01*
X113368356Y-95472250D01*
X113373803Y-95466803D01*
X113401333Y-95425601D01*
X113411000Y-95377000D01*
X113411000Y-94080000D01*
X113555000Y-94080000D01*
X113555000Y-94465750D01*
X113650250Y-94561000D01*
X113705786Y-94561000D01*
X113845820Y-94502996D01*
X113952996Y-94395819D01*
X113961945Y-94374214D01*
X120739000Y-94374214D01*
X120739000Y-95027750D01*
X120834250Y-95123000D01*
X121793000Y-95123000D01*
X121793000Y-94164250D01*
X122047000Y-94164250D01*
X122047000Y-95123000D01*
X123005750Y-95123000D01*
X123101000Y-95027750D01*
X123101000Y-94374214D01*
X123042996Y-94234180D01*
X122935819Y-94127004D01*
X122795785Y-94069000D01*
X122142250Y-94069000D01*
X122047000Y-94164250D01*
X121793000Y-94164250D01*
X121697750Y-94069000D01*
X121044215Y-94069000D01*
X120904181Y-94127004D01*
X120797004Y-94234180D01*
X120739000Y-94374214D01*
X113961945Y-94374214D01*
X114011000Y-94255785D01*
X114011000Y-94175250D01*
X113915750Y-94080000D01*
X113555000Y-94080000D01*
X113411000Y-94080000D01*
X113411000Y-93494250D01*
X113555000Y-93494250D01*
X113555000Y-93880000D01*
X113915750Y-93880000D01*
X114011000Y-93784750D01*
X114011000Y-93704215D01*
X113952996Y-93564181D01*
X113845820Y-93457004D01*
X113705786Y-93399000D01*
X113650250Y-93399000D01*
X113555000Y-93494250D01*
X113411000Y-93494250D01*
X113411000Y-93091000D01*
X129106394Y-93091000D01*
X130048000Y-94032606D01*
X130048000Y-94032606D01*
G37*
X130048000Y-94032606D02*
X130048000Y-96139000D01*
X125603000Y-96139000D01*
X125554399Y-96148667D01*
X125513197Y-96176197D01*
X125169394Y-96520000D01*
X120523000Y-96520000D01*
X120474399Y-96529667D01*
X120433197Y-96557197D01*
X118057394Y-98933000D01*
X113284000Y-98933000D01*
X113284000Y-95556606D01*
X113368356Y-95472250D01*
X120739000Y-95472250D01*
X120739000Y-96125786D01*
X120797004Y-96265820D01*
X120904181Y-96372996D01*
X121044215Y-96431000D01*
X121697750Y-96431000D01*
X121793000Y-96335750D01*
X121793000Y-95377000D01*
X122047000Y-95377000D01*
X122047000Y-96335750D01*
X122142250Y-96431000D01*
X122795785Y-96431000D01*
X122935819Y-96372996D01*
X123042996Y-96265820D01*
X123101000Y-96125786D01*
X123101000Y-95472250D01*
X123005750Y-95377000D01*
X122047000Y-95377000D01*
X121793000Y-95377000D01*
X120834250Y-95377000D01*
X120739000Y-95472250D01*
X113368356Y-95472250D01*
X113373803Y-95466803D01*
X113401333Y-95425601D01*
X113411000Y-95377000D01*
X113411000Y-94080000D01*
X113555000Y-94080000D01*
X113555000Y-94465750D01*
X113650250Y-94561000D01*
X113705786Y-94561000D01*
X113845820Y-94502996D01*
X113952996Y-94395819D01*
X113961945Y-94374214D01*
X120739000Y-94374214D01*
X120739000Y-95027750D01*
X120834250Y-95123000D01*
X121793000Y-95123000D01*
X121793000Y-94164250D01*
X122047000Y-94164250D01*
X122047000Y-95123000D01*
X123005750Y-95123000D01*
X123101000Y-95027750D01*
X123101000Y-94374214D01*
X123042996Y-94234180D01*
X122935819Y-94127004D01*
X122795785Y-94069000D01*
X122142250Y-94069000D01*
X122047000Y-94164250D01*
X121793000Y-94164250D01*
X121697750Y-94069000D01*
X121044215Y-94069000D01*
X120904181Y-94127004D01*
X120797004Y-94234180D01*
X120739000Y-94374214D01*
X113961945Y-94374214D01*
X114011000Y-94255785D01*
X114011000Y-94175250D01*
X113915750Y-94080000D01*
X113555000Y-94080000D01*
X113411000Y-94080000D01*
X113411000Y-93494250D01*
X113555000Y-93494250D01*
X113555000Y-93880000D01*
X113915750Y-93880000D01*
X114011000Y-93784750D01*
X114011000Y-93704215D01*
X113952996Y-93564181D01*
X113845820Y-93457004D01*
X113705786Y-93399000D01*
X113650250Y-93399000D01*
X113555000Y-93494250D01*
X113411000Y-93494250D01*
X113411000Y-93091000D01*
X129106394Y-93091000D01*
X130048000Y-94032606D01*
G04 #@! TO.N,Net-(C2-Pad1)*
G36*
X120433197Y-104102803D02*
X120474399Y-104130333D01*
X120523000Y-104140000D01*
X125169394Y-104140000D01*
X125513197Y-104483803D01*
X125554399Y-104511333D01*
X125603000Y-104521000D01*
X130048000Y-104521000D01*
X130048000Y-106627394D01*
X129233394Y-107442000D01*
X113411000Y-107442000D01*
X113411000Y-106780000D01*
X113555000Y-106780000D01*
X113555000Y-107165750D01*
X113650250Y-107261000D01*
X113705786Y-107261000D01*
X113845820Y-107202996D01*
X113952996Y-107095819D01*
X114011000Y-106955785D01*
X114011000Y-106875250D01*
X113915750Y-106780000D01*
X113555000Y-106780000D01*
X113411000Y-106780000D01*
X113411000Y-106194250D01*
X113555000Y-106194250D01*
X113555000Y-106580000D01*
X113915750Y-106580000D01*
X114011000Y-106484750D01*
X114011000Y-106404215D01*
X113952996Y-106264181D01*
X113845820Y-106157004D01*
X113705786Y-106099000D01*
X113650250Y-106099000D01*
X113555000Y-106194250D01*
X113411000Y-106194250D01*
X113411000Y-105632250D01*
X120739000Y-105632250D01*
X120739000Y-106285786D01*
X120797004Y-106425820D01*
X120904181Y-106532996D01*
X121044215Y-106591000D01*
X121697750Y-106591000D01*
X121793000Y-106495750D01*
X121793000Y-105537000D01*
X122047000Y-105537000D01*
X122047000Y-106495750D01*
X122142250Y-106591000D01*
X122795785Y-106591000D01*
X122935819Y-106532996D01*
X123042996Y-106425820D01*
X123101000Y-106285786D01*
X123101000Y-105632250D01*
X123005750Y-105537000D01*
X122047000Y-105537000D01*
X121793000Y-105537000D01*
X120834250Y-105537000D01*
X120739000Y-105632250D01*
X113411000Y-105632250D01*
X113411000Y-105283000D01*
X113401333Y-105234399D01*
X113373803Y-105193197D01*
X113284000Y-105103394D01*
X113284000Y-104534214D01*
X120739000Y-104534214D01*
X120739000Y-105187750D01*
X120834250Y-105283000D01*
X121793000Y-105283000D01*
X121793000Y-104324250D01*
X122047000Y-104324250D01*
X122047000Y-105283000D01*
X123005750Y-105283000D01*
X123101000Y-105187750D01*
X123101000Y-104534214D01*
X123042996Y-104394180D01*
X122935819Y-104287004D01*
X122795785Y-104229000D01*
X122142250Y-104229000D01*
X122047000Y-104324250D01*
X121793000Y-104324250D01*
X121697750Y-104229000D01*
X121044215Y-104229000D01*
X120904181Y-104287004D01*
X120797004Y-104394180D01*
X120739000Y-104534214D01*
X113284000Y-104534214D01*
X113284000Y-101727000D01*
X118057394Y-101727000D01*
X120433197Y-104102803D01*
X120433197Y-104102803D01*
G37*
X120433197Y-104102803D02*
X120474399Y-104130333D01*
X120523000Y-104140000D01*
X125169394Y-104140000D01*
X125513197Y-104483803D01*
X125554399Y-104511333D01*
X125603000Y-104521000D01*
X130048000Y-104521000D01*
X130048000Y-106627394D01*
X129233394Y-107442000D01*
X113411000Y-107442000D01*
X113411000Y-106780000D01*
X113555000Y-106780000D01*
X113555000Y-107165750D01*
X113650250Y-107261000D01*
X113705786Y-107261000D01*
X113845820Y-107202996D01*
X113952996Y-107095819D01*
X114011000Y-106955785D01*
X114011000Y-106875250D01*
X113915750Y-106780000D01*
X113555000Y-106780000D01*
X113411000Y-106780000D01*
X113411000Y-106194250D01*
X113555000Y-106194250D01*
X113555000Y-106580000D01*
X113915750Y-106580000D01*
X114011000Y-106484750D01*
X114011000Y-106404215D01*
X113952996Y-106264181D01*
X113845820Y-106157004D01*
X113705786Y-106099000D01*
X113650250Y-106099000D01*
X113555000Y-106194250D01*
X113411000Y-106194250D01*
X113411000Y-105632250D01*
X120739000Y-105632250D01*
X120739000Y-106285786D01*
X120797004Y-106425820D01*
X120904181Y-106532996D01*
X121044215Y-106591000D01*
X121697750Y-106591000D01*
X121793000Y-106495750D01*
X121793000Y-105537000D01*
X122047000Y-105537000D01*
X122047000Y-106495750D01*
X122142250Y-106591000D01*
X122795785Y-106591000D01*
X122935819Y-106532996D01*
X123042996Y-106425820D01*
X123101000Y-106285786D01*
X123101000Y-105632250D01*
X123005750Y-105537000D01*
X122047000Y-105537000D01*
X121793000Y-105537000D01*
X120834250Y-105537000D01*
X120739000Y-105632250D01*
X113411000Y-105632250D01*
X113411000Y-105283000D01*
X113401333Y-105234399D01*
X113373803Y-105193197D01*
X113284000Y-105103394D01*
X113284000Y-104534214D01*
X120739000Y-104534214D01*
X120739000Y-105187750D01*
X120834250Y-105283000D01*
X121793000Y-105283000D01*
X121793000Y-104324250D01*
X122047000Y-104324250D01*
X122047000Y-105283000D01*
X123005750Y-105283000D01*
X123101000Y-105187750D01*
X123101000Y-104534214D01*
X123042996Y-104394180D01*
X122935819Y-104287004D01*
X122795785Y-104229000D01*
X122142250Y-104229000D01*
X122047000Y-104324250D01*
X121793000Y-104324250D01*
X121697750Y-104229000D01*
X121044215Y-104229000D01*
X120904181Y-104287004D01*
X120797004Y-104394180D01*
X120739000Y-104534214D01*
X113284000Y-104534214D01*
X113284000Y-101727000D01*
X118057394Y-101727000D01*
X120433197Y-104102803D01*
G04 #@! TO.N,GND*
G36*
X103126256Y-102035864D02*
X102930854Y-102148485D01*
X102746783Y-102666126D01*
X102774816Y-103214806D01*
X102930854Y-103591515D01*
X103126258Y-103704137D01*
X103960395Y-102870000D01*
X103946253Y-102855858D01*
X104125858Y-102676253D01*
X104140000Y-102690395D01*
X104154143Y-102676253D01*
X104333748Y-102855858D01*
X104319605Y-102870000D01*
X105153742Y-103704137D01*
X105349146Y-103591515D01*
X105533217Y-103073874D01*
X105505184Y-102525194D01*
X105349146Y-102148485D01*
X105153744Y-102035864D01*
X105208608Y-101981000D01*
X106723580Y-101981000D01*
X106610166Y-102094414D01*
X106567754Y-102122753D01*
X106539415Y-102165165D01*
X106539412Y-102165168D01*
X106455475Y-102290789D01*
X106416049Y-102489000D01*
X106426001Y-102539033D01*
X106426000Y-104310579D01*
X103816166Y-106920414D01*
X103773754Y-106948753D01*
X103745415Y-106991165D01*
X103745412Y-106991168D01*
X103661475Y-107116789D01*
X103622049Y-107315000D01*
X103632001Y-107365033D01*
X103632000Y-109205637D01*
X103357727Y-109319245D01*
X102969245Y-109707727D01*
X102759000Y-110215302D01*
X102759000Y-110764698D01*
X102969245Y-111272273D01*
X103357727Y-111660755D01*
X103865302Y-111871000D01*
X104414698Y-111871000D01*
X104922273Y-111660755D01*
X105310755Y-111272273D01*
X105521000Y-110764698D01*
X105521000Y-110215302D01*
X105519011Y-110210500D01*
X107805763Y-110210500D01*
X107899385Y-110350615D01*
X108096379Y-110482243D01*
X108135376Y-110490000D01*
X108096379Y-110497757D01*
X107899385Y-110629385D01*
X107767757Y-110826379D01*
X107721536Y-111058750D01*
X107721536Y-111496250D01*
X107767757Y-111728621D01*
X107899385Y-111925615D01*
X108077000Y-112044294D01*
X108077001Y-114015705D01*
X107899385Y-114134385D01*
X107767757Y-114331379D01*
X107721536Y-114563750D01*
X107721536Y-115001250D01*
X107767757Y-115233621D01*
X107899385Y-115430615D01*
X108061594Y-115539000D01*
X108034215Y-115539000D01*
X107894181Y-115597004D01*
X107787004Y-115704180D01*
X107729000Y-115844214D01*
X107729000Y-116135250D01*
X107824250Y-116230500D01*
X108458000Y-116230500D01*
X108458000Y-116210500D01*
X108712000Y-116210500D01*
X108712000Y-116230500D01*
X109345750Y-116230500D01*
X109441000Y-116135250D01*
X109441000Y-115844214D01*
X109382996Y-115704180D01*
X109275819Y-115597004D01*
X109135785Y-115539000D01*
X109108406Y-115539000D01*
X109270615Y-115430615D01*
X109402243Y-115233621D01*
X109448464Y-115001250D01*
X109448464Y-114563750D01*
X109402243Y-114331379D01*
X109270615Y-114134385D01*
X109093000Y-114015706D01*
X109093000Y-113252250D01*
X113870000Y-113252250D01*
X113870000Y-114805785D01*
X113928004Y-114945819D01*
X114035180Y-115052996D01*
X114175214Y-115111000D01*
X115728750Y-115111000D01*
X115824000Y-115015750D01*
X115824000Y-113157000D01*
X116078000Y-113157000D01*
X116078000Y-115015750D01*
X116173250Y-115111000D01*
X117726786Y-115111000D01*
X117866820Y-115052996D01*
X117973996Y-114945819D01*
X118032000Y-114805785D01*
X118032000Y-114549951D01*
X124130654Y-114549951D01*
X124328837Y-114818118D01*
X125100062Y-115119093D01*
X125927759Y-115102023D01*
X126613163Y-114818118D01*
X126811346Y-114549951D01*
X133660654Y-114549951D01*
X133858837Y-114818118D01*
X134630062Y-115119093D01*
X135457759Y-115102023D01*
X136143163Y-114818118D01*
X136341346Y-114549951D01*
X143185654Y-114549951D01*
X143383837Y-114818118D01*
X144155062Y-115119093D01*
X144982759Y-115102023D01*
X145668163Y-114818118D01*
X145866346Y-114549951D01*
X152705654Y-114549951D01*
X152903837Y-114818118D01*
X153675062Y-115119093D01*
X154502759Y-115102023D01*
X155188163Y-114818118D01*
X155386346Y-114549951D01*
X162235654Y-114549951D01*
X162433837Y-114818118D01*
X163205062Y-115119093D01*
X164032759Y-115102023D01*
X164718163Y-114818118D01*
X164916346Y-114549951D01*
X171760654Y-114549951D01*
X171958837Y-114818118D01*
X172730062Y-115119093D01*
X173557759Y-115102023D01*
X174243163Y-114818118D01*
X174441346Y-114549951D01*
X181285654Y-114549951D01*
X181483837Y-114818118D01*
X182255062Y-115119093D01*
X183082759Y-115102023D01*
X183768163Y-114818118D01*
X183966346Y-114549951D01*
X182626000Y-113209605D01*
X181285654Y-114549951D01*
X174441346Y-114549951D01*
X173101000Y-113209605D01*
X171760654Y-114549951D01*
X164916346Y-114549951D01*
X163576000Y-113209605D01*
X162235654Y-114549951D01*
X155386346Y-114549951D01*
X154046000Y-113209605D01*
X152705654Y-114549951D01*
X145866346Y-114549951D01*
X144526000Y-113209605D01*
X143185654Y-114549951D01*
X136341346Y-114549951D01*
X135001000Y-113209605D01*
X133660654Y-114549951D01*
X126811346Y-114549951D01*
X125471000Y-113209605D01*
X124130654Y-114549951D01*
X118032000Y-114549951D01*
X118032000Y-113252250D01*
X117936750Y-113157000D01*
X116078000Y-113157000D01*
X115824000Y-113157000D01*
X113965250Y-113157000D01*
X113870000Y-113252250D01*
X109093000Y-113252250D01*
X109093000Y-112044294D01*
X109270615Y-111925615D01*
X109402243Y-111728621D01*
X109448464Y-111496250D01*
X109448464Y-111254215D01*
X113870000Y-111254215D01*
X113870000Y-112807750D01*
X113965250Y-112903000D01*
X115824000Y-112903000D01*
X115824000Y-111044250D01*
X116078000Y-111044250D01*
X116078000Y-112903000D01*
X117936750Y-112903000D01*
X118032000Y-112807750D01*
X118032000Y-112659062D01*
X123381907Y-112659062D01*
X123398977Y-113486759D01*
X123682882Y-114172163D01*
X123951049Y-114370346D01*
X125291395Y-113030000D01*
X125650605Y-113030000D01*
X126990951Y-114370346D01*
X127259118Y-114172163D01*
X127560093Y-113400938D01*
X127544793Y-112659062D01*
X132911907Y-112659062D01*
X132928977Y-113486759D01*
X133212882Y-114172163D01*
X133481049Y-114370346D01*
X134821395Y-113030000D01*
X135180605Y-113030000D01*
X136520951Y-114370346D01*
X136789118Y-114172163D01*
X137090093Y-113400938D01*
X137074793Y-112659062D01*
X142436907Y-112659062D01*
X142453977Y-113486759D01*
X142737882Y-114172163D01*
X143006049Y-114370346D01*
X144346395Y-113030000D01*
X144705605Y-113030000D01*
X146045951Y-114370346D01*
X146314118Y-114172163D01*
X146615093Y-113400938D01*
X146599793Y-112659062D01*
X151956907Y-112659062D01*
X151973977Y-113486759D01*
X152257882Y-114172163D01*
X152526049Y-114370346D01*
X153866395Y-113030000D01*
X154225605Y-113030000D01*
X155565951Y-114370346D01*
X155834118Y-114172163D01*
X156135093Y-113400938D01*
X156119793Y-112659062D01*
X161486907Y-112659062D01*
X161503977Y-113486759D01*
X161787882Y-114172163D01*
X162056049Y-114370346D01*
X163396395Y-113030000D01*
X163755605Y-113030000D01*
X165095951Y-114370346D01*
X165364118Y-114172163D01*
X165665093Y-113400938D01*
X165649793Y-112659062D01*
X171011907Y-112659062D01*
X171028977Y-113486759D01*
X171312882Y-114172163D01*
X171581049Y-114370346D01*
X172921395Y-113030000D01*
X173280605Y-113030000D01*
X174620951Y-114370346D01*
X174889118Y-114172163D01*
X175190093Y-113400938D01*
X175174793Y-112659062D01*
X180536907Y-112659062D01*
X180553977Y-113486759D01*
X180837882Y-114172163D01*
X181106049Y-114370346D01*
X182446395Y-113030000D01*
X182805605Y-113030000D01*
X184145951Y-114370346D01*
X184414118Y-114172163D01*
X184715093Y-113400938D01*
X184698023Y-112573241D01*
X184414118Y-111887837D01*
X184145951Y-111689654D01*
X182805605Y-113030000D01*
X182446395Y-113030000D01*
X181106049Y-111689654D01*
X180837882Y-111887837D01*
X180536907Y-112659062D01*
X175174793Y-112659062D01*
X175173023Y-112573241D01*
X174889118Y-111887837D01*
X174620951Y-111689654D01*
X173280605Y-113030000D01*
X172921395Y-113030000D01*
X171581049Y-111689654D01*
X171312882Y-111887837D01*
X171011907Y-112659062D01*
X165649793Y-112659062D01*
X165648023Y-112573241D01*
X165364118Y-111887837D01*
X165095951Y-111689654D01*
X163755605Y-113030000D01*
X163396395Y-113030000D01*
X162056049Y-111689654D01*
X161787882Y-111887837D01*
X161486907Y-112659062D01*
X156119793Y-112659062D01*
X156118023Y-112573241D01*
X155834118Y-111887837D01*
X155565951Y-111689654D01*
X154225605Y-113030000D01*
X153866395Y-113030000D01*
X152526049Y-111689654D01*
X152257882Y-111887837D01*
X151956907Y-112659062D01*
X146599793Y-112659062D01*
X146598023Y-112573241D01*
X146314118Y-111887837D01*
X146045951Y-111689654D01*
X144705605Y-113030000D01*
X144346395Y-113030000D01*
X143006049Y-111689654D01*
X142737882Y-111887837D01*
X142436907Y-112659062D01*
X137074793Y-112659062D01*
X137073023Y-112573241D01*
X136789118Y-111887837D01*
X136520951Y-111689654D01*
X135180605Y-113030000D01*
X134821395Y-113030000D01*
X133481049Y-111689654D01*
X133212882Y-111887837D01*
X132911907Y-112659062D01*
X127544793Y-112659062D01*
X127543023Y-112573241D01*
X127259118Y-111887837D01*
X126990951Y-111689654D01*
X125650605Y-113030000D01*
X125291395Y-113030000D01*
X123951049Y-111689654D01*
X123682882Y-111887837D01*
X123381907Y-112659062D01*
X118032000Y-112659062D01*
X118032000Y-111510049D01*
X124130654Y-111510049D01*
X125471000Y-112850395D01*
X126811346Y-111510049D01*
X133660654Y-111510049D01*
X135001000Y-112850395D01*
X136341346Y-111510049D01*
X143185654Y-111510049D01*
X144526000Y-112850395D01*
X145866346Y-111510049D01*
X152705654Y-111510049D01*
X154046000Y-112850395D01*
X155386346Y-111510049D01*
X162235654Y-111510049D01*
X163576000Y-112850395D01*
X164916346Y-111510049D01*
X171760654Y-111510049D01*
X173101000Y-112850395D01*
X174441346Y-111510049D01*
X181285654Y-111510049D01*
X182626000Y-112850395D01*
X183966346Y-111510049D01*
X183768163Y-111241882D01*
X182996938Y-110940907D01*
X182169241Y-110957977D01*
X181483837Y-111241882D01*
X181285654Y-111510049D01*
X174441346Y-111510049D01*
X174243163Y-111241882D01*
X173471938Y-110940907D01*
X172644241Y-110957977D01*
X171958837Y-111241882D01*
X171760654Y-111510049D01*
X164916346Y-111510049D01*
X164718163Y-111241882D01*
X163946938Y-110940907D01*
X163119241Y-110957977D01*
X162433837Y-111241882D01*
X162235654Y-111510049D01*
X155386346Y-111510049D01*
X155188163Y-111241882D01*
X154416938Y-110940907D01*
X153589241Y-110957977D01*
X152903837Y-111241882D01*
X152705654Y-111510049D01*
X145866346Y-111510049D01*
X145668163Y-111241882D01*
X144896938Y-110940907D01*
X144069241Y-110957977D01*
X143383837Y-111241882D01*
X143185654Y-111510049D01*
X136341346Y-111510049D01*
X136143163Y-111241882D01*
X135371938Y-110940907D01*
X134544241Y-110957977D01*
X133858837Y-111241882D01*
X133660654Y-111510049D01*
X126811346Y-111510049D01*
X126613163Y-111241882D01*
X125841938Y-110940907D01*
X125014241Y-110957977D01*
X124328837Y-111241882D01*
X124130654Y-111510049D01*
X118032000Y-111510049D01*
X118032000Y-111254215D01*
X117973996Y-111114181D01*
X117866820Y-111007004D01*
X117726786Y-110949000D01*
X116173250Y-110949000D01*
X116078000Y-111044250D01*
X115824000Y-111044250D01*
X115728750Y-110949000D01*
X114175214Y-110949000D01*
X114035180Y-111007004D01*
X113928004Y-111114181D01*
X113870000Y-111254215D01*
X109448464Y-111254215D01*
X109448464Y-111058750D01*
X109402243Y-110826379D01*
X109270615Y-110629385D01*
X109073621Y-110497757D01*
X109034624Y-110490000D01*
X109073621Y-110482243D01*
X109270615Y-110350615D01*
X109402243Y-110153621D01*
X109448464Y-109921250D01*
X109448464Y-109483750D01*
X109402243Y-109251379D01*
X109270615Y-109054385D01*
X109073621Y-108922757D01*
X108841250Y-108876536D01*
X108328750Y-108876536D01*
X108096379Y-108922757D01*
X107899385Y-109054385D01*
X107805763Y-109194500D01*
X104977527Y-109194500D01*
X104927499Y-109184549D01*
X104877471Y-109194500D01*
X104877468Y-109194500D01*
X104749272Y-109220000D01*
X104729288Y-109223975D01*
X104715122Y-109233440D01*
X104648000Y-109205637D01*
X104648000Y-107525420D01*
X105298170Y-106875250D01*
X112049000Y-106875250D01*
X112049000Y-106955785D01*
X112107004Y-107095819D01*
X112214180Y-107202996D01*
X112354214Y-107261000D01*
X112409750Y-107261000D01*
X112505000Y-107165750D01*
X112505000Y-106780000D01*
X112144250Y-106780000D01*
X112049000Y-106875250D01*
X105298170Y-106875250D01*
X105769205Y-106404215D01*
X112049000Y-106404215D01*
X112049000Y-106484750D01*
X112144250Y-106580000D01*
X112505000Y-106580000D01*
X112505000Y-106194250D01*
X112409750Y-106099000D01*
X112354214Y-106099000D01*
X112214180Y-106157004D01*
X112107004Y-106264181D01*
X112049000Y-106404215D01*
X105769205Y-106404215D01*
X107257836Y-104915585D01*
X107300247Y-104887247D01*
X107328586Y-104844835D01*
X107328588Y-104844833D01*
X107412525Y-104719212D01*
X107412525Y-104719211D01*
X107442000Y-104571032D01*
X107442000Y-104571028D01*
X107451951Y-104521000D01*
X107442000Y-104470972D01*
X107442000Y-102699420D01*
X108160420Y-101981000D01*
X111707394Y-101981000D01*
X112522000Y-102795606D01*
X112522000Y-105410000D01*
X112531667Y-105458601D01*
X112559197Y-105499803D01*
X112649000Y-105589606D01*
X112649000Y-107950000D01*
X112658667Y-107998601D01*
X112686197Y-108039803D01*
X112727399Y-108067333D01*
X112776000Y-108077000D01*
X185367394Y-108077000D01*
X187833000Y-110542606D01*
X187833000Y-116840000D01*
X187842667Y-116888601D01*
X187870197Y-116929803D01*
X187911399Y-116957333D01*
X187960000Y-116967000D01*
X196496001Y-116967000D01*
X196496001Y-126519000D01*
X194142608Y-126519000D01*
X194125321Y-126501713D01*
X194258624Y-126463318D01*
X194342036Y-126164022D01*
X194332826Y-126088210D01*
X194582177Y-126088210D01*
X194620573Y-126221515D01*
X194919869Y-126304927D01*
X195228303Y-126267454D01*
X195339209Y-126221515D01*
X195377605Y-126088210D01*
X194979891Y-125690496D01*
X194582177Y-126088210D01*
X194332826Y-126088210D01*
X194307684Y-125881274D01*
X194402572Y-125908605D01*
X194800286Y-125510891D01*
X195159496Y-125510891D01*
X195557210Y-125908605D01*
X195690515Y-125870209D01*
X195773927Y-125570913D01*
X195736454Y-125262479D01*
X195690515Y-125151573D01*
X195557210Y-125113177D01*
X195159496Y-125510891D01*
X194800286Y-125510891D01*
X194402572Y-125113177D01*
X194269267Y-125151573D01*
X194185855Y-125450869D01*
X194220207Y-125733617D01*
X194125319Y-125706286D01*
X193727605Y-126104000D01*
X193741748Y-126118143D01*
X193562143Y-126297748D01*
X193548000Y-126283605D01*
X193533858Y-126297748D01*
X193354253Y-126118143D01*
X193368395Y-126104000D01*
X192970681Y-125706286D01*
X192863841Y-125737059D01*
X192910145Y-125570913D01*
X192904772Y-125526681D01*
X193150286Y-125526681D01*
X193548000Y-125924395D01*
X193945714Y-125526681D01*
X193907318Y-125393376D01*
X193608022Y-125309964D01*
X193299588Y-125347437D01*
X193188682Y-125393376D01*
X193150286Y-125526681D01*
X192904772Y-125526681D01*
X192872672Y-125262479D01*
X192826733Y-125151573D01*
X192693428Y-125113177D01*
X192295714Y-125510891D01*
X192693428Y-125908605D01*
X192800268Y-125877832D01*
X192753964Y-126043978D01*
X192791437Y-126352412D01*
X192837376Y-126463318D01*
X192970679Y-126501713D01*
X192953392Y-126519000D01*
X105623608Y-126519000D01*
X105606321Y-126501713D01*
X105739624Y-126463318D01*
X105823036Y-126164022D01*
X105813826Y-126088210D01*
X106063177Y-126088210D01*
X106101573Y-126221515D01*
X106400869Y-126304927D01*
X106709303Y-126267454D01*
X106820209Y-126221515D01*
X106858605Y-126088210D01*
X191718395Y-126088210D01*
X191756791Y-126221515D01*
X192056087Y-126304927D01*
X192364521Y-126267454D01*
X192475427Y-126221515D01*
X192513823Y-126088210D01*
X192116109Y-125690496D01*
X191718395Y-126088210D01*
X106858605Y-126088210D01*
X106460891Y-125690496D01*
X106063177Y-126088210D01*
X105813826Y-126088210D01*
X105788684Y-125881274D01*
X105883572Y-125908605D01*
X106281286Y-125510891D01*
X106640496Y-125510891D01*
X107038210Y-125908605D01*
X107171515Y-125870209D01*
X107254927Y-125570913D01*
X107240343Y-125450869D01*
X191322073Y-125450869D01*
X191359546Y-125759303D01*
X191405485Y-125870209D01*
X191538790Y-125908605D01*
X191936504Y-125510891D01*
X191538790Y-125113177D01*
X191405485Y-125151573D01*
X191322073Y-125450869D01*
X107240343Y-125450869D01*
X107217454Y-125262479D01*
X107171515Y-125151573D01*
X107038210Y-125113177D01*
X106640496Y-125510891D01*
X106281286Y-125510891D01*
X105883572Y-125113177D01*
X105750267Y-125151573D01*
X105666855Y-125450869D01*
X105701207Y-125733617D01*
X105606319Y-125706286D01*
X105208605Y-126104000D01*
X105222748Y-126118143D01*
X105043143Y-126297748D01*
X105029000Y-126283605D01*
X105014858Y-126297748D01*
X104835253Y-126118143D01*
X104849395Y-126104000D01*
X104451681Y-125706286D01*
X104344841Y-125737059D01*
X104391145Y-125570913D01*
X104385772Y-125526681D01*
X104631286Y-125526681D01*
X105029000Y-125924395D01*
X105426714Y-125526681D01*
X105388318Y-125393376D01*
X105089022Y-125309964D01*
X104780588Y-125347437D01*
X104669682Y-125393376D01*
X104631286Y-125526681D01*
X104385772Y-125526681D01*
X104353672Y-125262479D01*
X104307733Y-125151573D01*
X104174428Y-125113177D01*
X103776714Y-125510891D01*
X104174428Y-125908605D01*
X104281268Y-125877832D01*
X104234964Y-126043978D01*
X104272437Y-126352412D01*
X104318376Y-126463318D01*
X104451679Y-126501713D01*
X104434392Y-126519000D01*
X102081000Y-126519000D01*
X102081000Y-126088210D01*
X103199395Y-126088210D01*
X103237791Y-126221515D01*
X103537087Y-126304927D01*
X103845521Y-126267454D01*
X103956427Y-126221515D01*
X103994823Y-126088210D01*
X103597109Y-125690496D01*
X103199395Y-126088210D01*
X102081000Y-126088210D01*
X102081000Y-125450869D01*
X102803073Y-125450869D01*
X102840546Y-125759303D01*
X102886485Y-125870209D01*
X103019790Y-125908605D01*
X103417504Y-125510891D01*
X103019790Y-125113177D01*
X102886485Y-125151573D01*
X102803073Y-125450869D01*
X102081000Y-125450869D01*
X102081000Y-124656319D01*
X102606286Y-124656319D01*
X102644682Y-124789624D01*
X102943978Y-124873036D01*
X103226726Y-124838684D01*
X103199395Y-124933572D01*
X103597109Y-125331286D01*
X103994823Y-124933572D01*
X106063177Y-124933572D01*
X106460891Y-125331286D01*
X106858605Y-124933572D01*
X106827832Y-124826732D01*
X106993978Y-124873036D01*
X107302412Y-124835563D01*
X107413318Y-124789624D01*
X107451714Y-124656319D01*
X191125286Y-124656319D01*
X191163682Y-124789624D01*
X191462978Y-124873036D01*
X191745726Y-124838684D01*
X191718395Y-124933572D01*
X192116109Y-125331286D01*
X192513823Y-124933572D01*
X194582177Y-124933572D01*
X194979891Y-125331286D01*
X195377605Y-124933572D01*
X195346832Y-124826732D01*
X195512978Y-124873036D01*
X195821412Y-124835563D01*
X195932318Y-124789624D01*
X195970714Y-124656319D01*
X195573000Y-124258605D01*
X195175286Y-124656319D01*
X195206059Y-124763159D01*
X195039913Y-124716855D01*
X194731479Y-124754328D01*
X194620573Y-124800267D01*
X194582177Y-124933572D01*
X192513823Y-124933572D01*
X192475427Y-124800267D01*
X192176131Y-124716855D01*
X191893383Y-124751207D01*
X191920714Y-124656319D01*
X191523000Y-124258605D01*
X191125286Y-124656319D01*
X107451714Y-124656319D01*
X107054000Y-124258605D01*
X106656286Y-124656319D01*
X106687059Y-124763159D01*
X106520913Y-124716855D01*
X106212479Y-124754328D01*
X106101573Y-124800267D01*
X106063177Y-124933572D01*
X103994823Y-124933572D01*
X103956427Y-124800267D01*
X103657131Y-124716855D01*
X103374383Y-124751207D01*
X103401714Y-124656319D01*
X103004000Y-124258605D01*
X102606286Y-124656319D01*
X102081000Y-124656319D01*
X102081000Y-124018978D01*
X102209964Y-124018978D01*
X102247437Y-124327412D01*
X102293376Y-124438318D01*
X102426681Y-124476714D01*
X102824395Y-124079000D01*
X103183605Y-124079000D01*
X103581319Y-124476714D01*
X103714624Y-124438318D01*
X103798036Y-124139022D01*
X103783452Y-124018978D01*
X106259964Y-124018978D01*
X106297437Y-124327412D01*
X106343376Y-124438318D01*
X106476681Y-124476714D01*
X106874395Y-124079000D01*
X107233605Y-124079000D01*
X107631319Y-124476714D01*
X107764624Y-124438318D01*
X107848036Y-124139022D01*
X107833452Y-124018978D01*
X190728964Y-124018978D01*
X190766437Y-124327412D01*
X190812376Y-124438318D01*
X190945681Y-124476714D01*
X191343395Y-124079000D01*
X191702605Y-124079000D01*
X192100319Y-124476714D01*
X192233624Y-124438318D01*
X192317036Y-124139022D01*
X192302452Y-124018978D01*
X194778964Y-124018978D01*
X194816437Y-124327412D01*
X194862376Y-124438318D01*
X194995681Y-124476714D01*
X195393395Y-124079000D01*
X195752605Y-124079000D01*
X196150319Y-124476714D01*
X196283624Y-124438318D01*
X196367036Y-124139022D01*
X196329563Y-123830588D01*
X196283624Y-123719682D01*
X196150319Y-123681286D01*
X195752605Y-124079000D01*
X195393395Y-124079000D01*
X194995681Y-123681286D01*
X194862376Y-123719682D01*
X194778964Y-124018978D01*
X192302452Y-124018978D01*
X192279563Y-123830588D01*
X192233624Y-123719682D01*
X192100319Y-123681286D01*
X191702605Y-124079000D01*
X191343395Y-124079000D01*
X190945681Y-123681286D01*
X190812376Y-123719682D01*
X190728964Y-124018978D01*
X107833452Y-124018978D01*
X107810563Y-123830588D01*
X107764624Y-123719682D01*
X107631319Y-123681286D01*
X107233605Y-124079000D01*
X106874395Y-124079000D01*
X106476681Y-123681286D01*
X106343376Y-123719682D01*
X106259964Y-124018978D01*
X103783452Y-124018978D01*
X103760563Y-123830588D01*
X103714624Y-123719682D01*
X103581319Y-123681286D01*
X103183605Y-124079000D01*
X102824395Y-124079000D01*
X102426681Y-123681286D01*
X102293376Y-123719682D01*
X102209964Y-124018978D01*
X102081000Y-124018978D01*
X102081000Y-123501681D01*
X102606286Y-123501681D01*
X103004000Y-123899395D01*
X103401714Y-123501681D01*
X103370941Y-123394841D01*
X103537087Y-123441145D01*
X103845521Y-123403672D01*
X103956427Y-123357733D01*
X103994823Y-123224428D01*
X106063177Y-123224428D01*
X106101573Y-123357733D01*
X106400869Y-123441145D01*
X106683617Y-123406793D01*
X106656286Y-123501681D01*
X107054000Y-123899395D01*
X107451714Y-123501681D01*
X191125286Y-123501681D01*
X191523000Y-123899395D01*
X191920714Y-123501681D01*
X191889941Y-123394841D01*
X192056087Y-123441145D01*
X192364521Y-123403672D01*
X192475427Y-123357733D01*
X192513823Y-123224428D01*
X194582177Y-123224428D01*
X194620573Y-123357733D01*
X194919869Y-123441145D01*
X195202617Y-123406793D01*
X195175286Y-123501681D01*
X195573000Y-123899395D01*
X195970714Y-123501681D01*
X195932318Y-123368376D01*
X195633022Y-123284964D01*
X195350274Y-123319316D01*
X195377605Y-123224428D01*
X194979891Y-122826714D01*
X194582177Y-123224428D01*
X192513823Y-123224428D01*
X192116109Y-122826714D01*
X191718395Y-123224428D01*
X191749168Y-123331268D01*
X191583022Y-123284964D01*
X191274588Y-123322437D01*
X191163682Y-123368376D01*
X191125286Y-123501681D01*
X107451714Y-123501681D01*
X107413318Y-123368376D01*
X107114022Y-123284964D01*
X106831274Y-123319316D01*
X106858605Y-123224428D01*
X106460891Y-122826714D01*
X106063177Y-123224428D01*
X103994823Y-123224428D01*
X103597109Y-122826714D01*
X103199395Y-123224428D01*
X103230168Y-123331268D01*
X103064022Y-123284964D01*
X102755588Y-123322437D01*
X102644682Y-123368376D01*
X102606286Y-123501681D01*
X102081000Y-123501681D01*
X102081000Y-122587087D01*
X102803073Y-122587087D01*
X102840546Y-122895521D01*
X102886485Y-123006427D01*
X103019790Y-123044823D01*
X103417504Y-122647109D01*
X103776714Y-122647109D01*
X104174428Y-123044823D01*
X104307733Y-123006427D01*
X104391145Y-122707131D01*
X104381935Y-122631319D01*
X104631286Y-122631319D01*
X104669682Y-122764624D01*
X104968978Y-122848036D01*
X105277412Y-122810563D01*
X105388318Y-122764624D01*
X105426714Y-122631319D01*
X105029000Y-122233605D01*
X104631286Y-122631319D01*
X104381935Y-122631319D01*
X104356793Y-122424383D01*
X104451681Y-122451714D01*
X104849395Y-122054000D01*
X105208605Y-122054000D01*
X105606319Y-122451714D01*
X105713159Y-122420941D01*
X105666855Y-122587087D01*
X105704328Y-122895521D01*
X105750267Y-123006427D01*
X105883572Y-123044823D01*
X106281286Y-122647109D01*
X106640496Y-122647109D01*
X107038210Y-123044823D01*
X107171515Y-123006427D01*
X107254927Y-122707131D01*
X107240343Y-122587087D01*
X191322073Y-122587087D01*
X191359546Y-122895521D01*
X191405485Y-123006427D01*
X191538790Y-123044823D01*
X191936504Y-122647109D01*
X192295714Y-122647109D01*
X192693428Y-123044823D01*
X192826733Y-123006427D01*
X192910145Y-122707131D01*
X192900935Y-122631319D01*
X193150286Y-122631319D01*
X193188682Y-122764624D01*
X193487978Y-122848036D01*
X193796412Y-122810563D01*
X193907318Y-122764624D01*
X193945714Y-122631319D01*
X193548000Y-122233605D01*
X193150286Y-122631319D01*
X192900935Y-122631319D01*
X192875793Y-122424383D01*
X192970681Y-122451714D01*
X193368395Y-122054000D01*
X193727605Y-122054000D01*
X194125319Y-122451714D01*
X194232159Y-122420941D01*
X194185855Y-122587087D01*
X194223328Y-122895521D01*
X194269267Y-123006427D01*
X194402572Y-123044823D01*
X194800286Y-122647109D01*
X195159496Y-122647109D01*
X195557210Y-123044823D01*
X195690515Y-123006427D01*
X195773927Y-122707131D01*
X195736454Y-122398697D01*
X195690515Y-122287791D01*
X195557210Y-122249395D01*
X195159496Y-122647109D01*
X194800286Y-122647109D01*
X194402572Y-122249395D01*
X194295732Y-122280168D01*
X194342036Y-122114022D01*
X194336663Y-122069790D01*
X194582177Y-122069790D01*
X194979891Y-122467504D01*
X195377605Y-122069790D01*
X195339209Y-121936485D01*
X195039913Y-121853073D01*
X194731479Y-121890546D01*
X194620573Y-121936485D01*
X194582177Y-122069790D01*
X194336663Y-122069790D01*
X194304563Y-121805588D01*
X194258624Y-121694682D01*
X194125319Y-121656286D01*
X193727605Y-122054000D01*
X193368395Y-122054000D01*
X192970681Y-121656286D01*
X192837376Y-121694682D01*
X192753964Y-121993978D01*
X192788316Y-122276726D01*
X192693428Y-122249395D01*
X192295714Y-122647109D01*
X191936504Y-122647109D01*
X191538790Y-122249395D01*
X191405485Y-122287791D01*
X191322073Y-122587087D01*
X107240343Y-122587087D01*
X107217454Y-122398697D01*
X107171515Y-122287791D01*
X107038210Y-122249395D01*
X106640496Y-122647109D01*
X106281286Y-122647109D01*
X105883572Y-122249395D01*
X105776732Y-122280168D01*
X105823036Y-122114022D01*
X105817663Y-122069790D01*
X106063177Y-122069790D01*
X106460891Y-122467504D01*
X106858605Y-122069790D01*
X191718395Y-122069790D01*
X192116109Y-122467504D01*
X192513823Y-122069790D01*
X192475427Y-121936485D01*
X192176131Y-121853073D01*
X191867697Y-121890546D01*
X191756791Y-121936485D01*
X191718395Y-122069790D01*
X106858605Y-122069790D01*
X106820209Y-121936485D01*
X106520913Y-121853073D01*
X106212479Y-121890546D01*
X106101573Y-121936485D01*
X106063177Y-122069790D01*
X105817663Y-122069790D01*
X105785563Y-121805588D01*
X105739624Y-121694682D01*
X105606319Y-121656286D01*
X105208605Y-122054000D01*
X104849395Y-122054000D01*
X104451681Y-121656286D01*
X104318376Y-121694682D01*
X104234964Y-121993978D01*
X104269316Y-122276726D01*
X104174428Y-122249395D01*
X103776714Y-122647109D01*
X103417504Y-122647109D01*
X103019790Y-122249395D01*
X102886485Y-122287791D01*
X102803073Y-122587087D01*
X102081000Y-122587087D01*
X102081000Y-122069790D01*
X103199395Y-122069790D01*
X103597109Y-122467504D01*
X103994823Y-122069790D01*
X103956427Y-121936485D01*
X103657131Y-121853073D01*
X103348697Y-121890546D01*
X103237791Y-121936485D01*
X103199395Y-122069790D01*
X102081000Y-122069790D01*
X102081000Y-121476681D01*
X104631286Y-121476681D01*
X105029000Y-121874395D01*
X105426714Y-121476681D01*
X193150286Y-121476681D01*
X193548000Y-121874395D01*
X193945714Y-121476681D01*
X193907318Y-121343376D01*
X193608022Y-121259964D01*
X193299588Y-121297437D01*
X193188682Y-121343376D01*
X193150286Y-121476681D01*
X105426714Y-121476681D01*
X105388318Y-121343376D01*
X105089022Y-121259964D01*
X104780588Y-121297437D01*
X104669682Y-121343376D01*
X104631286Y-121476681D01*
X102081000Y-121476681D01*
X102081000Y-119177905D01*
X103124000Y-119177905D01*
X103124000Y-119582095D01*
X103278676Y-119955518D01*
X103564482Y-120241324D01*
X103937905Y-120396000D01*
X104342095Y-120396000D01*
X104715518Y-120241324D01*
X105001324Y-119955518D01*
X105156000Y-119582095D01*
X105156000Y-119177905D01*
X105124609Y-119102119D01*
X105283000Y-119102119D01*
X105283000Y-119657881D01*
X105495680Y-120171337D01*
X105888663Y-120564320D01*
X106402119Y-120777000D01*
X106957881Y-120777000D01*
X107471337Y-120564320D01*
X107864320Y-120171337D01*
X108077000Y-119657881D01*
X108077000Y-119102119D01*
X107864320Y-118588663D01*
X107471337Y-118195680D01*
X106957881Y-117983000D01*
X106402119Y-117983000D01*
X105888663Y-118195680D01*
X105495680Y-118588663D01*
X105283000Y-119102119D01*
X105124609Y-119102119D01*
X105001324Y-118804482D01*
X104715518Y-118518676D01*
X104342095Y-118364000D01*
X103937905Y-118364000D01*
X103564482Y-118518676D01*
X103278676Y-118804482D01*
X103124000Y-119177905D01*
X102081000Y-119177905D01*
X102081000Y-116583742D01*
X103305863Y-116583742D01*
X103418485Y-116779146D01*
X103936126Y-116963217D01*
X104484806Y-116935184D01*
X104861515Y-116779146D01*
X104974137Y-116583742D01*
X104970145Y-116579750D01*
X107729000Y-116579750D01*
X107729000Y-116870786D01*
X107787004Y-117010820D01*
X107894181Y-117117996D01*
X108034215Y-117176000D01*
X108362750Y-117176000D01*
X108458000Y-117080750D01*
X108458000Y-116484500D01*
X108712000Y-116484500D01*
X108712000Y-117080750D01*
X108807250Y-117176000D01*
X109135785Y-117176000D01*
X109275819Y-117117996D01*
X109382996Y-117010820D01*
X109441000Y-116870786D01*
X109441000Y-116579750D01*
X109345750Y-116484500D01*
X108712000Y-116484500D01*
X108458000Y-116484500D01*
X107824250Y-116484500D01*
X107729000Y-116579750D01*
X104970145Y-116579750D01*
X104140000Y-115749605D01*
X103305863Y-116583742D01*
X102081000Y-116583742D01*
X102081000Y-115366126D01*
X102746783Y-115366126D01*
X102774816Y-115914806D01*
X102930854Y-116291515D01*
X103126258Y-116404137D01*
X103960395Y-115570000D01*
X104319605Y-115570000D01*
X105153742Y-116404137D01*
X105349146Y-116291515D01*
X105533217Y-115773874D01*
X105505184Y-115225194D01*
X105349146Y-114848485D01*
X105153742Y-114735863D01*
X104319605Y-115570000D01*
X103960395Y-115570000D01*
X103126258Y-114735863D01*
X102930854Y-114848485D01*
X102746783Y-115366126D01*
X102081000Y-115366126D01*
X102081000Y-114556258D01*
X103305863Y-114556258D01*
X104140000Y-115390395D01*
X104974137Y-114556258D01*
X104861515Y-114360854D01*
X104343874Y-114176783D01*
X103795194Y-114204816D01*
X103418485Y-114360854D01*
X103305863Y-114556258D01*
X102081000Y-114556258D01*
X102081000Y-103883742D01*
X103305863Y-103883742D01*
X103418485Y-104079146D01*
X103936126Y-104263217D01*
X104484806Y-104235184D01*
X104861515Y-104079146D01*
X104974137Y-103883742D01*
X104140000Y-103049605D01*
X103305863Y-103883742D01*
X102081000Y-103883742D01*
X102081000Y-101981000D01*
X103071392Y-101981000D01*
X103126256Y-102035864D01*
X103126256Y-102035864D01*
G37*
X103126256Y-102035864D02*
X102930854Y-102148485D01*
X102746783Y-102666126D01*
X102774816Y-103214806D01*
X102930854Y-103591515D01*
X103126258Y-103704137D01*
X103960395Y-102870000D01*
X103946253Y-102855858D01*
X104125858Y-102676253D01*
X104140000Y-102690395D01*
X104154143Y-102676253D01*
X104333748Y-102855858D01*
X104319605Y-102870000D01*
X105153742Y-103704137D01*
X105349146Y-103591515D01*
X105533217Y-103073874D01*
X105505184Y-102525194D01*
X105349146Y-102148485D01*
X105153744Y-102035864D01*
X105208608Y-101981000D01*
X106723580Y-101981000D01*
X106610166Y-102094414D01*
X106567754Y-102122753D01*
X106539415Y-102165165D01*
X106539412Y-102165168D01*
X106455475Y-102290789D01*
X106416049Y-102489000D01*
X106426001Y-102539033D01*
X106426000Y-104310579D01*
X103816166Y-106920414D01*
X103773754Y-106948753D01*
X103745415Y-106991165D01*
X103745412Y-106991168D01*
X103661475Y-107116789D01*
X103622049Y-107315000D01*
X103632001Y-107365033D01*
X103632000Y-109205637D01*
X103357727Y-109319245D01*
X102969245Y-109707727D01*
X102759000Y-110215302D01*
X102759000Y-110764698D01*
X102969245Y-111272273D01*
X103357727Y-111660755D01*
X103865302Y-111871000D01*
X104414698Y-111871000D01*
X104922273Y-111660755D01*
X105310755Y-111272273D01*
X105521000Y-110764698D01*
X105521000Y-110215302D01*
X105519011Y-110210500D01*
X107805763Y-110210500D01*
X107899385Y-110350615D01*
X108096379Y-110482243D01*
X108135376Y-110490000D01*
X108096379Y-110497757D01*
X107899385Y-110629385D01*
X107767757Y-110826379D01*
X107721536Y-111058750D01*
X107721536Y-111496250D01*
X107767757Y-111728621D01*
X107899385Y-111925615D01*
X108077000Y-112044294D01*
X108077001Y-114015705D01*
X107899385Y-114134385D01*
X107767757Y-114331379D01*
X107721536Y-114563750D01*
X107721536Y-115001250D01*
X107767757Y-115233621D01*
X107899385Y-115430615D01*
X108061594Y-115539000D01*
X108034215Y-115539000D01*
X107894181Y-115597004D01*
X107787004Y-115704180D01*
X107729000Y-115844214D01*
X107729000Y-116135250D01*
X107824250Y-116230500D01*
X108458000Y-116230500D01*
X108458000Y-116210500D01*
X108712000Y-116210500D01*
X108712000Y-116230500D01*
X109345750Y-116230500D01*
X109441000Y-116135250D01*
X109441000Y-115844214D01*
X109382996Y-115704180D01*
X109275819Y-115597004D01*
X109135785Y-115539000D01*
X109108406Y-115539000D01*
X109270615Y-115430615D01*
X109402243Y-115233621D01*
X109448464Y-115001250D01*
X109448464Y-114563750D01*
X109402243Y-114331379D01*
X109270615Y-114134385D01*
X109093000Y-114015706D01*
X109093000Y-113252250D01*
X113870000Y-113252250D01*
X113870000Y-114805785D01*
X113928004Y-114945819D01*
X114035180Y-115052996D01*
X114175214Y-115111000D01*
X115728750Y-115111000D01*
X115824000Y-115015750D01*
X115824000Y-113157000D01*
X116078000Y-113157000D01*
X116078000Y-115015750D01*
X116173250Y-115111000D01*
X117726786Y-115111000D01*
X117866820Y-115052996D01*
X117973996Y-114945819D01*
X118032000Y-114805785D01*
X118032000Y-114549951D01*
X124130654Y-114549951D01*
X124328837Y-114818118D01*
X125100062Y-115119093D01*
X125927759Y-115102023D01*
X126613163Y-114818118D01*
X126811346Y-114549951D01*
X133660654Y-114549951D01*
X133858837Y-114818118D01*
X134630062Y-115119093D01*
X135457759Y-115102023D01*
X136143163Y-114818118D01*
X136341346Y-114549951D01*
X143185654Y-114549951D01*
X143383837Y-114818118D01*
X144155062Y-115119093D01*
X144982759Y-115102023D01*
X145668163Y-114818118D01*
X145866346Y-114549951D01*
X152705654Y-114549951D01*
X152903837Y-114818118D01*
X153675062Y-115119093D01*
X154502759Y-115102023D01*
X155188163Y-114818118D01*
X155386346Y-114549951D01*
X162235654Y-114549951D01*
X162433837Y-114818118D01*
X163205062Y-115119093D01*
X164032759Y-115102023D01*
X164718163Y-114818118D01*
X164916346Y-114549951D01*
X171760654Y-114549951D01*
X171958837Y-114818118D01*
X172730062Y-115119093D01*
X173557759Y-115102023D01*
X174243163Y-114818118D01*
X174441346Y-114549951D01*
X181285654Y-114549951D01*
X181483837Y-114818118D01*
X182255062Y-115119093D01*
X183082759Y-115102023D01*
X183768163Y-114818118D01*
X183966346Y-114549951D01*
X182626000Y-113209605D01*
X181285654Y-114549951D01*
X174441346Y-114549951D01*
X173101000Y-113209605D01*
X171760654Y-114549951D01*
X164916346Y-114549951D01*
X163576000Y-113209605D01*
X162235654Y-114549951D01*
X155386346Y-114549951D01*
X154046000Y-113209605D01*
X152705654Y-114549951D01*
X145866346Y-114549951D01*
X144526000Y-113209605D01*
X143185654Y-114549951D01*
X136341346Y-114549951D01*
X135001000Y-113209605D01*
X133660654Y-114549951D01*
X126811346Y-114549951D01*
X125471000Y-113209605D01*
X124130654Y-114549951D01*
X118032000Y-114549951D01*
X118032000Y-113252250D01*
X117936750Y-113157000D01*
X116078000Y-113157000D01*
X115824000Y-113157000D01*
X113965250Y-113157000D01*
X113870000Y-113252250D01*
X109093000Y-113252250D01*
X109093000Y-112044294D01*
X109270615Y-111925615D01*
X109402243Y-111728621D01*
X109448464Y-111496250D01*
X109448464Y-111254215D01*
X113870000Y-111254215D01*
X113870000Y-112807750D01*
X113965250Y-112903000D01*
X115824000Y-112903000D01*
X115824000Y-111044250D01*
X116078000Y-111044250D01*
X116078000Y-112903000D01*
X117936750Y-112903000D01*
X118032000Y-112807750D01*
X118032000Y-112659062D01*
X123381907Y-112659062D01*
X123398977Y-113486759D01*
X123682882Y-114172163D01*
X123951049Y-114370346D01*
X125291395Y-113030000D01*
X125650605Y-113030000D01*
X126990951Y-114370346D01*
X127259118Y-114172163D01*
X127560093Y-113400938D01*
X127544793Y-112659062D01*
X132911907Y-112659062D01*
X132928977Y-113486759D01*
X133212882Y-114172163D01*
X133481049Y-114370346D01*
X134821395Y-113030000D01*
X135180605Y-113030000D01*
X136520951Y-114370346D01*
X136789118Y-114172163D01*
X137090093Y-113400938D01*
X137074793Y-112659062D01*
X142436907Y-112659062D01*
X142453977Y-113486759D01*
X142737882Y-114172163D01*
X143006049Y-114370346D01*
X144346395Y-113030000D01*
X144705605Y-113030000D01*
X146045951Y-114370346D01*
X146314118Y-114172163D01*
X146615093Y-113400938D01*
X146599793Y-112659062D01*
X151956907Y-112659062D01*
X151973977Y-113486759D01*
X152257882Y-114172163D01*
X152526049Y-114370346D01*
X153866395Y-113030000D01*
X154225605Y-113030000D01*
X155565951Y-114370346D01*
X155834118Y-114172163D01*
X156135093Y-113400938D01*
X156119793Y-112659062D01*
X161486907Y-112659062D01*
X161503977Y-113486759D01*
X161787882Y-114172163D01*
X162056049Y-114370346D01*
X163396395Y-113030000D01*
X163755605Y-113030000D01*
X165095951Y-114370346D01*
X165364118Y-114172163D01*
X165665093Y-113400938D01*
X165649793Y-112659062D01*
X171011907Y-112659062D01*
X171028977Y-113486759D01*
X171312882Y-114172163D01*
X171581049Y-114370346D01*
X172921395Y-113030000D01*
X173280605Y-113030000D01*
X174620951Y-114370346D01*
X174889118Y-114172163D01*
X175190093Y-113400938D01*
X175174793Y-112659062D01*
X180536907Y-112659062D01*
X180553977Y-113486759D01*
X180837882Y-114172163D01*
X181106049Y-114370346D01*
X182446395Y-113030000D01*
X182805605Y-113030000D01*
X184145951Y-114370346D01*
X184414118Y-114172163D01*
X184715093Y-113400938D01*
X184698023Y-112573241D01*
X184414118Y-111887837D01*
X184145951Y-111689654D01*
X182805605Y-113030000D01*
X182446395Y-113030000D01*
X181106049Y-111689654D01*
X180837882Y-111887837D01*
X180536907Y-112659062D01*
X175174793Y-112659062D01*
X175173023Y-112573241D01*
X174889118Y-111887837D01*
X174620951Y-111689654D01*
X173280605Y-113030000D01*
X172921395Y-113030000D01*
X171581049Y-111689654D01*
X171312882Y-111887837D01*
X171011907Y-112659062D01*
X165649793Y-112659062D01*
X165648023Y-112573241D01*
X165364118Y-111887837D01*
X165095951Y-111689654D01*
X163755605Y-113030000D01*
X163396395Y-113030000D01*
X162056049Y-111689654D01*
X161787882Y-111887837D01*
X161486907Y-112659062D01*
X156119793Y-112659062D01*
X156118023Y-112573241D01*
X155834118Y-111887837D01*
X155565951Y-111689654D01*
X154225605Y-113030000D01*
X153866395Y-113030000D01*
X152526049Y-111689654D01*
X152257882Y-111887837D01*
X151956907Y-112659062D01*
X146599793Y-112659062D01*
X146598023Y-112573241D01*
X146314118Y-111887837D01*
X146045951Y-111689654D01*
X144705605Y-113030000D01*
X144346395Y-113030000D01*
X143006049Y-111689654D01*
X142737882Y-111887837D01*
X142436907Y-112659062D01*
X137074793Y-112659062D01*
X137073023Y-112573241D01*
X136789118Y-111887837D01*
X136520951Y-111689654D01*
X135180605Y-113030000D01*
X134821395Y-113030000D01*
X133481049Y-111689654D01*
X133212882Y-111887837D01*
X132911907Y-112659062D01*
X127544793Y-112659062D01*
X127543023Y-112573241D01*
X127259118Y-111887837D01*
X126990951Y-111689654D01*
X125650605Y-113030000D01*
X125291395Y-113030000D01*
X123951049Y-111689654D01*
X123682882Y-111887837D01*
X123381907Y-112659062D01*
X118032000Y-112659062D01*
X118032000Y-111510049D01*
X124130654Y-111510049D01*
X125471000Y-112850395D01*
X126811346Y-111510049D01*
X133660654Y-111510049D01*
X135001000Y-112850395D01*
X136341346Y-111510049D01*
X143185654Y-111510049D01*
X144526000Y-112850395D01*
X145866346Y-111510049D01*
X152705654Y-111510049D01*
X154046000Y-112850395D01*
X155386346Y-111510049D01*
X162235654Y-111510049D01*
X163576000Y-112850395D01*
X164916346Y-111510049D01*
X171760654Y-111510049D01*
X173101000Y-112850395D01*
X174441346Y-111510049D01*
X181285654Y-111510049D01*
X182626000Y-112850395D01*
X183966346Y-111510049D01*
X183768163Y-111241882D01*
X182996938Y-110940907D01*
X182169241Y-110957977D01*
X181483837Y-111241882D01*
X181285654Y-111510049D01*
X174441346Y-111510049D01*
X174243163Y-111241882D01*
X173471938Y-110940907D01*
X172644241Y-110957977D01*
X171958837Y-111241882D01*
X171760654Y-111510049D01*
X164916346Y-111510049D01*
X164718163Y-111241882D01*
X163946938Y-110940907D01*
X163119241Y-110957977D01*
X162433837Y-111241882D01*
X162235654Y-111510049D01*
X155386346Y-111510049D01*
X155188163Y-111241882D01*
X154416938Y-110940907D01*
X153589241Y-110957977D01*
X152903837Y-111241882D01*
X152705654Y-111510049D01*
X145866346Y-111510049D01*
X145668163Y-111241882D01*
X144896938Y-110940907D01*
X144069241Y-110957977D01*
X143383837Y-111241882D01*
X143185654Y-111510049D01*
X136341346Y-111510049D01*
X136143163Y-111241882D01*
X135371938Y-110940907D01*
X134544241Y-110957977D01*
X133858837Y-111241882D01*
X133660654Y-111510049D01*
X126811346Y-111510049D01*
X126613163Y-111241882D01*
X125841938Y-110940907D01*
X125014241Y-110957977D01*
X124328837Y-111241882D01*
X124130654Y-111510049D01*
X118032000Y-111510049D01*
X118032000Y-111254215D01*
X117973996Y-111114181D01*
X117866820Y-111007004D01*
X117726786Y-110949000D01*
X116173250Y-110949000D01*
X116078000Y-111044250D01*
X115824000Y-111044250D01*
X115728750Y-110949000D01*
X114175214Y-110949000D01*
X114035180Y-111007004D01*
X113928004Y-111114181D01*
X113870000Y-111254215D01*
X109448464Y-111254215D01*
X109448464Y-111058750D01*
X109402243Y-110826379D01*
X109270615Y-110629385D01*
X109073621Y-110497757D01*
X109034624Y-110490000D01*
X109073621Y-110482243D01*
X109270615Y-110350615D01*
X109402243Y-110153621D01*
X109448464Y-109921250D01*
X109448464Y-109483750D01*
X109402243Y-109251379D01*
X109270615Y-109054385D01*
X109073621Y-108922757D01*
X108841250Y-108876536D01*
X108328750Y-108876536D01*
X108096379Y-108922757D01*
X107899385Y-109054385D01*
X107805763Y-109194500D01*
X104977527Y-109194500D01*
X104927499Y-109184549D01*
X104877471Y-109194500D01*
X104877468Y-109194500D01*
X104749272Y-109220000D01*
X104729288Y-109223975D01*
X104715122Y-109233440D01*
X104648000Y-109205637D01*
X104648000Y-107525420D01*
X105298170Y-106875250D01*
X112049000Y-106875250D01*
X112049000Y-106955785D01*
X112107004Y-107095819D01*
X112214180Y-107202996D01*
X112354214Y-107261000D01*
X112409750Y-107261000D01*
X112505000Y-107165750D01*
X112505000Y-106780000D01*
X112144250Y-106780000D01*
X112049000Y-106875250D01*
X105298170Y-106875250D01*
X105769205Y-106404215D01*
X112049000Y-106404215D01*
X112049000Y-106484750D01*
X112144250Y-106580000D01*
X112505000Y-106580000D01*
X112505000Y-106194250D01*
X112409750Y-106099000D01*
X112354214Y-106099000D01*
X112214180Y-106157004D01*
X112107004Y-106264181D01*
X112049000Y-106404215D01*
X105769205Y-106404215D01*
X107257836Y-104915585D01*
X107300247Y-104887247D01*
X107328586Y-104844835D01*
X107328588Y-104844833D01*
X107412525Y-104719212D01*
X107412525Y-104719211D01*
X107442000Y-104571032D01*
X107442000Y-104571028D01*
X107451951Y-104521000D01*
X107442000Y-104470972D01*
X107442000Y-102699420D01*
X108160420Y-101981000D01*
X111707394Y-101981000D01*
X112522000Y-102795606D01*
X112522000Y-105410000D01*
X112531667Y-105458601D01*
X112559197Y-105499803D01*
X112649000Y-105589606D01*
X112649000Y-107950000D01*
X112658667Y-107998601D01*
X112686197Y-108039803D01*
X112727399Y-108067333D01*
X112776000Y-108077000D01*
X185367394Y-108077000D01*
X187833000Y-110542606D01*
X187833000Y-116840000D01*
X187842667Y-116888601D01*
X187870197Y-116929803D01*
X187911399Y-116957333D01*
X187960000Y-116967000D01*
X196496001Y-116967000D01*
X196496001Y-126519000D01*
X194142608Y-126519000D01*
X194125321Y-126501713D01*
X194258624Y-126463318D01*
X194342036Y-126164022D01*
X194332826Y-126088210D01*
X194582177Y-126088210D01*
X194620573Y-126221515D01*
X194919869Y-126304927D01*
X195228303Y-126267454D01*
X195339209Y-126221515D01*
X195377605Y-126088210D01*
X194979891Y-125690496D01*
X194582177Y-126088210D01*
X194332826Y-126088210D01*
X194307684Y-125881274D01*
X194402572Y-125908605D01*
X194800286Y-125510891D01*
X195159496Y-125510891D01*
X195557210Y-125908605D01*
X195690515Y-125870209D01*
X195773927Y-125570913D01*
X195736454Y-125262479D01*
X195690515Y-125151573D01*
X195557210Y-125113177D01*
X195159496Y-125510891D01*
X194800286Y-125510891D01*
X194402572Y-125113177D01*
X194269267Y-125151573D01*
X194185855Y-125450869D01*
X194220207Y-125733617D01*
X194125319Y-125706286D01*
X193727605Y-126104000D01*
X193741748Y-126118143D01*
X193562143Y-126297748D01*
X193548000Y-126283605D01*
X193533858Y-126297748D01*
X193354253Y-126118143D01*
X193368395Y-126104000D01*
X192970681Y-125706286D01*
X192863841Y-125737059D01*
X192910145Y-125570913D01*
X192904772Y-125526681D01*
X193150286Y-125526681D01*
X193548000Y-125924395D01*
X193945714Y-125526681D01*
X193907318Y-125393376D01*
X193608022Y-125309964D01*
X193299588Y-125347437D01*
X193188682Y-125393376D01*
X193150286Y-125526681D01*
X192904772Y-125526681D01*
X192872672Y-125262479D01*
X192826733Y-125151573D01*
X192693428Y-125113177D01*
X192295714Y-125510891D01*
X192693428Y-125908605D01*
X192800268Y-125877832D01*
X192753964Y-126043978D01*
X192791437Y-126352412D01*
X192837376Y-126463318D01*
X192970679Y-126501713D01*
X192953392Y-126519000D01*
X105623608Y-126519000D01*
X105606321Y-126501713D01*
X105739624Y-126463318D01*
X105823036Y-126164022D01*
X105813826Y-126088210D01*
X106063177Y-126088210D01*
X106101573Y-126221515D01*
X106400869Y-126304927D01*
X106709303Y-126267454D01*
X106820209Y-126221515D01*
X106858605Y-126088210D01*
X191718395Y-126088210D01*
X191756791Y-126221515D01*
X192056087Y-126304927D01*
X192364521Y-126267454D01*
X192475427Y-126221515D01*
X192513823Y-126088210D01*
X192116109Y-125690496D01*
X191718395Y-126088210D01*
X106858605Y-126088210D01*
X106460891Y-125690496D01*
X106063177Y-126088210D01*
X105813826Y-126088210D01*
X105788684Y-125881274D01*
X105883572Y-125908605D01*
X106281286Y-125510891D01*
X106640496Y-125510891D01*
X107038210Y-125908605D01*
X107171515Y-125870209D01*
X107254927Y-125570913D01*
X107240343Y-125450869D01*
X191322073Y-125450869D01*
X191359546Y-125759303D01*
X191405485Y-125870209D01*
X191538790Y-125908605D01*
X191936504Y-125510891D01*
X191538790Y-125113177D01*
X191405485Y-125151573D01*
X191322073Y-125450869D01*
X107240343Y-125450869D01*
X107217454Y-125262479D01*
X107171515Y-125151573D01*
X107038210Y-125113177D01*
X106640496Y-125510891D01*
X106281286Y-125510891D01*
X105883572Y-125113177D01*
X105750267Y-125151573D01*
X105666855Y-125450869D01*
X105701207Y-125733617D01*
X105606319Y-125706286D01*
X105208605Y-126104000D01*
X105222748Y-126118143D01*
X105043143Y-126297748D01*
X105029000Y-126283605D01*
X105014858Y-126297748D01*
X104835253Y-126118143D01*
X104849395Y-126104000D01*
X104451681Y-125706286D01*
X104344841Y-125737059D01*
X104391145Y-125570913D01*
X104385772Y-125526681D01*
X104631286Y-125526681D01*
X105029000Y-125924395D01*
X105426714Y-125526681D01*
X105388318Y-125393376D01*
X105089022Y-125309964D01*
X104780588Y-125347437D01*
X104669682Y-125393376D01*
X104631286Y-125526681D01*
X104385772Y-125526681D01*
X104353672Y-125262479D01*
X104307733Y-125151573D01*
X104174428Y-125113177D01*
X103776714Y-125510891D01*
X104174428Y-125908605D01*
X104281268Y-125877832D01*
X104234964Y-126043978D01*
X104272437Y-126352412D01*
X104318376Y-126463318D01*
X104451679Y-126501713D01*
X104434392Y-126519000D01*
X102081000Y-126519000D01*
X102081000Y-126088210D01*
X103199395Y-126088210D01*
X103237791Y-126221515D01*
X103537087Y-126304927D01*
X103845521Y-126267454D01*
X103956427Y-126221515D01*
X103994823Y-126088210D01*
X103597109Y-125690496D01*
X103199395Y-126088210D01*
X102081000Y-126088210D01*
X102081000Y-125450869D01*
X102803073Y-125450869D01*
X102840546Y-125759303D01*
X102886485Y-125870209D01*
X103019790Y-125908605D01*
X103417504Y-125510891D01*
X103019790Y-125113177D01*
X102886485Y-125151573D01*
X102803073Y-125450869D01*
X102081000Y-125450869D01*
X102081000Y-124656319D01*
X102606286Y-124656319D01*
X102644682Y-124789624D01*
X102943978Y-124873036D01*
X103226726Y-124838684D01*
X103199395Y-124933572D01*
X103597109Y-125331286D01*
X103994823Y-124933572D01*
X106063177Y-124933572D01*
X106460891Y-125331286D01*
X106858605Y-124933572D01*
X106827832Y-124826732D01*
X106993978Y-124873036D01*
X107302412Y-124835563D01*
X107413318Y-124789624D01*
X107451714Y-124656319D01*
X191125286Y-124656319D01*
X191163682Y-124789624D01*
X191462978Y-124873036D01*
X191745726Y-124838684D01*
X191718395Y-124933572D01*
X192116109Y-125331286D01*
X192513823Y-124933572D01*
X194582177Y-124933572D01*
X194979891Y-125331286D01*
X195377605Y-124933572D01*
X195346832Y-124826732D01*
X195512978Y-124873036D01*
X195821412Y-124835563D01*
X195932318Y-124789624D01*
X195970714Y-124656319D01*
X195573000Y-124258605D01*
X195175286Y-124656319D01*
X195206059Y-124763159D01*
X195039913Y-124716855D01*
X194731479Y-124754328D01*
X194620573Y-124800267D01*
X194582177Y-124933572D01*
X192513823Y-124933572D01*
X192475427Y-124800267D01*
X192176131Y-124716855D01*
X191893383Y-124751207D01*
X191920714Y-124656319D01*
X191523000Y-124258605D01*
X191125286Y-124656319D01*
X107451714Y-124656319D01*
X107054000Y-124258605D01*
X106656286Y-124656319D01*
X106687059Y-124763159D01*
X106520913Y-124716855D01*
X106212479Y-124754328D01*
X106101573Y-124800267D01*
X106063177Y-124933572D01*
X103994823Y-124933572D01*
X103956427Y-124800267D01*
X103657131Y-124716855D01*
X103374383Y-124751207D01*
X103401714Y-124656319D01*
X103004000Y-124258605D01*
X102606286Y-124656319D01*
X102081000Y-124656319D01*
X102081000Y-124018978D01*
X102209964Y-124018978D01*
X102247437Y-124327412D01*
X102293376Y-124438318D01*
X102426681Y-124476714D01*
X102824395Y-124079000D01*
X103183605Y-124079000D01*
X103581319Y-124476714D01*
X103714624Y-124438318D01*
X103798036Y-124139022D01*
X103783452Y-124018978D01*
X106259964Y-124018978D01*
X106297437Y-124327412D01*
X106343376Y-124438318D01*
X106476681Y-124476714D01*
X106874395Y-124079000D01*
X107233605Y-124079000D01*
X107631319Y-124476714D01*
X107764624Y-124438318D01*
X107848036Y-124139022D01*
X107833452Y-124018978D01*
X190728964Y-124018978D01*
X190766437Y-124327412D01*
X190812376Y-124438318D01*
X190945681Y-124476714D01*
X191343395Y-124079000D01*
X191702605Y-124079000D01*
X192100319Y-124476714D01*
X192233624Y-124438318D01*
X192317036Y-124139022D01*
X192302452Y-124018978D01*
X194778964Y-124018978D01*
X194816437Y-124327412D01*
X194862376Y-124438318D01*
X194995681Y-124476714D01*
X195393395Y-124079000D01*
X195752605Y-124079000D01*
X196150319Y-124476714D01*
X196283624Y-124438318D01*
X196367036Y-124139022D01*
X196329563Y-123830588D01*
X196283624Y-123719682D01*
X196150319Y-123681286D01*
X195752605Y-124079000D01*
X195393395Y-124079000D01*
X194995681Y-123681286D01*
X194862376Y-123719682D01*
X194778964Y-124018978D01*
X192302452Y-124018978D01*
X192279563Y-123830588D01*
X192233624Y-123719682D01*
X192100319Y-123681286D01*
X191702605Y-124079000D01*
X191343395Y-124079000D01*
X190945681Y-123681286D01*
X190812376Y-123719682D01*
X190728964Y-124018978D01*
X107833452Y-124018978D01*
X107810563Y-123830588D01*
X107764624Y-123719682D01*
X107631319Y-123681286D01*
X107233605Y-124079000D01*
X106874395Y-124079000D01*
X106476681Y-123681286D01*
X106343376Y-123719682D01*
X106259964Y-124018978D01*
X103783452Y-124018978D01*
X103760563Y-123830588D01*
X103714624Y-123719682D01*
X103581319Y-123681286D01*
X103183605Y-124079000D01*
X102824395Y-124079000D01*
X102426681Y-123681286D01*
X102293376Y-123719682D01*
X102209964Y-124018978D01*
X102081000Y-124018978D01*
X102081000Y-123501681D01*
X102606286Y-123501681D01*
X103004000Y-123899395D01*
X103401714Y-123501681D01*
X103370941Y-123394841D01*
X103537087Y-123441145D01*
X103845521Y-123403672D01*
X103956427Y-123357733D01*
X103994823Y-123224428D01*
X106063177Y-123224428D01*
X106101573Y-123357733D01*
X106400869Y-123441145D01*
X106683617Y-123406793D01*
X106656286Y-123501681D01*
X107054000Y-123899395D01*
X107451714Y-123501681D01*
X191125286Y-123501681D01*
X191523000Y-123899395D01*
X191920714Y-123501681D01*
X191889941Y-123394841D01*
X192056087Y-123441145D01*
X192364521Y-123403672D01*
X192475427Y-123357733D01*
X192513823Y-123224428D01*
X194582177Y-123224428D01*
X194620573Y-123357733D01*
X194919869Y-123441145D01*
X195202617Y-123406793D01*
X195175286Y-123501681D01*
X195573000Y-123899395D01*
X195970714Y-123501681D01*
X195932318Y-123368376D01*
X195633022Y-123284964D01*
X195350274Y-123319316D01*
X195377605Y-123224428D01*
X194979891Y-122826714D01*
X194582177Y-123224428D01*
X192513823Y-123224428D01*
X192116109Y-122826714D01*
X191718395Y-123224428D01*
X191749168Y-123331268D01*
X191583022Y-123284964D01*
X191274588Y-123322437D01*
X191163682Y-123368376D01*
X191125286Y-123501681D01*
X107451714Y-123501681D01*
X107413318Y-123368376D01*
X107114022Y-123284964D01*
X106831274Y-123319316D01*
X106858605Y-123224428D01*
X106460891Y-122826714D01*
X106063177Y-123224428D01*
X103994823Y-123224428D01*
X103597109Y-122826714D01*
X103199395Y-123224428D01*
X103230168Y-123331268D01*
X103064022Y-123284964D01*
X102755588Y-123322437D01*
X102644682Y-123368376D01*
X102606286Y-123501681D01*
X102081000Y-123501681D01*
X102081000Y-122587087D01*
X102803073Y-122587087D01*
X102840546Y-122895521D01*
X102886485Y-123006427D01*
X103019790Y-123044823D01*
X103417504Y-122647109D01*
X103776714Y-122647109D01*
X104174428Y-123044823D01*
X104307733Y-123006427D01*
X104391145Y-122707131D01*
X104381935Y-122631319D01*
X104631286Y-122631319D01*
X104669682Y-122764624D01*
X104968978Y-122848036D01*
X105277412Y-122810563D01*
X105388318Y-122764624D01*
X105426714Y-122631319D01*
X105029000Y-122233605D01*
X104631286Y-122631319D01*
X104381935Y-122631319D01*
X104356793Y-122424383D01*
X104451681Y-122451714D01*
X104849395Y-122054000D01*
X105208605Y-122054000D01*
X105606319Y-122451714D01*
X105713159Y-122420941D01*
X105666855Y-122587087D01*
X105704328Y-122895521D01*
X105750267Y-123006427D01*
X105883572Y-123044823D01*
X106281286Y-122647109D01*
X106640496Y-122647109D01*
X107038210Y-123044823D01*
X107171515Y-123006427D01*
X107254927Y-122707131D01*
X107240343Y-122587087D01*
X191322073Y-122587087D01*
X191359546Y-122895521D01*
X191405485Y-123006427D01*
X191538790Y-123044823D01*
X191936504Y-122647109D01*
X192295714Y-122647109D01*
X192693428Y-123044823D01*
X192826733Y-123006427D01*
X192910145Y-122707131D01*
X192900935Y-122631319D01*
X193150286Y-122631319D01*
X193188682Y-122764624D01*
X193487978Y-122848036D01*
X193796412Y-122810563D01*
X193907318Y-122764624D01*
X193945714Y-122631319D01*
X193548000Y-122233605D01*
X193150286Y-122631319D01*
X192900935Y-122631319D01*
X192875793Y-122424383D01*
X192970681Y-122451714D01*
X193368395Y-122054000D01*
X193727605Y-122054000D01*
X194125319Y-122451714D01*
X194232159Y-122420941D01*
X194185855Y-122587087D01*
X194223328Y-122895521D01*
X194269267Y-123006427D01*
X194402572Y-123044823D01*
X194800286Y-122647109D01*
X195159496Y-122647109D01*
X195557210Y-123044823D01*
X195690515Y-123006427D01*
X195773927Y-122707131D01*
X195736454Y-122398697D01*
X195690515Y-122287791D01*
X195557210Y-122249395D01*
X195159496Y-122647109D01*
X194800286Y-122647109D01*
X194402572Y-122249395D01*
X194295732Y-122280168D01*
X194342036Y-122114022D01*
X194336663Y-122069790D01*
X194582177Y-122069790D01*
X194979891Y-122467504D01*
X195377605Y-122069790D01*
X195339209Y-121936485D01*
X195039913Y-121853073D01*
X194731479Y-121890546D01*
X194620573Y-121936485D01*
X194582177Y-122069790D01*
X194336663Y-122069790D01*
X194304563Y-121805588D01*
X194258624Y-121694682D01*
X194125319Y-121656286D01*
X193727605Y-122054000D01*
X193368395Y-122054000D01*
X192970681Y-121656286D01*
X192837376Y-121694682D01*
X192753964Y-121993978D01*
X192788316Y-122276726D01*
X192693428Y-122249395D01*
X192295714Y-122647109D01*
X191936504Y-122647109D01*
X191538790Y-122249395D01*
X191405485Y-122287791D01*
X191322073Y-122587087D01*
X107240343Y-122587087D01*
X107217454Y-122398697D01*
X107171515Y-122287791D01*
X107038210Y-122249395D01*
X106640496Y-122647109D01*
X106281286Y-122647109D01*
X105883572Y-122249395D01*
X105776732Y-122280168D01*
X105823036Y-122114022D01*
X105817663Y-122069790D01*
X106063177Y-122069790D01*
X106460891Y-122467504D01*
X106858605Y-122069790D01*
X191718395Y-122069790D01*
X192116109Y-122467504D01*
X192513823Y-122069790D01*
X192475427Y-121936485D01*
X192176131Y-121853073D01*
X191867697Y-121890546D01*
X191756791Y-121936485D01*
X191718395Y-122069790D01*
X106858605Y-122069790D01*
X106820209Y-121936485D01*
X106520913Y-121853073D01*
X106212479Y-121890546D01*
X106101573Y-121936485D01*
X106063177Y-122069790D01*
X105817663Y-122069790D01*
X105785563Y-121805588D01*
X105739624Y-121694682D01*
X105606319Y-121656286D01*
X105208605Y-122054000D01*
X104849395Y-122054000D01*
X104451681Y-121656286D01*
X104318376Y-121694682D01*
X104234964Y-121993978D01*
X104269316Y-122276726D01*
X104174428Y-122249395D01*
X103776714Y-122647109D01*
X103417504Y-122647109D01*
X103019790Y-122249395D01*
X102886485Y-122287791D01*
X102803073Y-122587087D01*
X102081000Y-122587087D01*
X102081000Y-122069790D01*
X103199395Y-122069790D01*
X103597109Y-122467504D01*
X103994823Y-122069790D01*
X103956427Y-121936485D01*
X103657131Y-121853073D01*
X103348697Y-121890546D01*
X103237791Y-121936485D01*
X103199395Y-122069790D01*
X102081000Y-122069790D01*
X102081000Y-121476681D01*
X104631286Y-121476681D01*
X105029000Y-121874395D01*
X105426714Y-121476681D01*
X193150286Y-121476681D01*
X193548000Y-121874395D01*
X193945714Y-121476681D01*
X193907318Y-121343376D01*
X193608022Y-121259964D01*
X193299588Y-121297437D01*
X193188682Y-121343376D01*
X193150286Y-121476681D01*
X105426714Y-121476681D01*
X105388318Y-121343376D01*
X105089022Y-121259964D01*
X104780588Y-121297437D01*
X104669682Y-121343376D01*
X104631286Y-121476681D01*
X102081000Y-121476681D01*
X102081000Y-119177905D01*
X103124000Y-119177905D01*
X103124000Y-119582095D01*
X103278676Y-119955518D01*
X103564482Y-120241324D01*
X103937905Y-120396000D01*
X104342095Y-120396000D01*
X104715518Y-120241324D01*
X105001324Y-119955518D01*
X105156000Y-119582095D01*
X105156000Y-119177905D01*
X105124609Y-119102119D01*
X105283000Y-119102119D01*
X105283000Y-119657881D01*
X105495680Y-120171337D01*
X105888663Y-120564320D01*
X106402119Y-120777000D01*
X106957881Y-120777000D01*
X107471337Y-120564320D01*
X107864320Y-120171337D01*
X108077000Y-119657881D01*
X108077000Y-119102119D01*
X107864320Y-118588663D01*
X107471337Y-118195680D01*
X106957881Y-117983000D01*
X106402119Y-117983000D01*
X105888663Y-118195680D01*
X105495680Y-118588663D01*
X105283000Y-119102119D01*
X105124609Y-119102119D01*
X105001324Y-118804482D01*
X104715518Y-118518676D01*
X104342095Y-118364000D01*
X103937905Y-118364000D01*
X103564482Y-118518676D01*
X103278676Y-118804482D01*
X103124000Y-119177905D01*
X102081000Y-119177905D01*
X102081000Y-116583742D01*
X103305863Y-116583742D01*
X103418485Y-116779146D01*
X103936126Y-116963217D01*
X104484806Y-116935184D01*
X104861515Y-116779146D01*
X104974137Y-116583742D01*
X104970145Y-116579750D01*
X107729000Y-116579750D01*
X107729000Y-116870786D01*
X107787004Y-117010820D01*
X107894181Y-117117996D01*
X108034215Y-117176000D01*
X108362750Y-117176000D01*
X108458000Y-117080750D01*
X108458000Y-116484500D01*
X108712000Y-116484500D01*
X108712000Y-117080750D01*
X108807250Y-117176000D01*
X109135785Y-117176000D01*
X109275819Y-117117996D01*
X109382996Y-117010820D01*
X109441000Y-116870786D01*
X109441000Y-116579750D01*
X109345750Y-116484500D01*
X108712000Y-116484500D01*
X108458000Y-116484500D01*
X107824250Y-116484500D01*
X107729000Y-116579750D01*
X104970145Y-116579750D01*
X104140000Y-115749605D01*
X103305863Y-116583742D01*
X102081000Y-116583742D01*
X102081000Y-115366126D01*
X102746783Y-115366126D01*
X102774816Y-115914806D01*
X102930854Y-116291515D01*
X103126258Y-116404137D01*
X103960395Y-115570000D01*
X104319605Y-115570000D01*
X105153742Y-116404137D01*
X105349146Y-116291515D01*
X105533217Y-115773874D01*
X105505184Y-115225194D01*
X105349146Y-114848485D01*
X105153742Y-114735863D01*
X104319605Y-115570000D01*
X103960395Y-115570000D01*
X103126258Y-114735863D01*
X102930854Y-114848485D01*
X102746783Y-115366126D01*
X102081000Y-115366126D01*
X102081000Y-114556258D01*
X103305863Y-114556258D01*
X104140000Y-115390395D01*
X104974137Y-114556258D01*
X104861515Y-114360854D01*
X104343874Y-114176783D01*
X103795194Y-114204816D01*
X103418485Y-114360854D01*
X103305863Y-114556258D01*
X102081000Y-114556258D01*
X102081000Y-103883742D01*
X103305863Y-103883742D01*
X103418485Y-104079146D01*
X103936126Y-104263217D01*
X104484806Y-104235184D01*
X104861515Y-104079146D01*
X104974137Y-103883742D01*
X104140000Y-103049605D01*
X103305863Y-103883742D01*
X102081000Y-103883742D01*
X102081000Y-101981000D01*
X103071392Y-101981000D01*
X103126256Y-102035864D01*
G36*
X112649000Y-95070394D02*
X112559197Y-95160197D01*
X112531667Y-95201399D01*
X112522000Y-95250000D01*
X112522000Y-97864394D01*
X111707394Y-98679000D01*
X109272606Y-98679000D01*
X108331000Y-97737394D01*
X108331000Y-94238750D01*
X111795000Y-94238750D01*
X111795000Y-94306310D01*
X111891673Y-94539699D01*
X112070302Y-94718327D01*
X112303691Y-94815000D01*
X112346250Y-94815000D01*
X112505000Y-94656250D01*
X112505000Y-94080000D01*
X111953750Y-94080000D01*
X111795000Y-94238750D01*
X108331000Y-94238750D01*
X108331000Y-94032606D01*
X108709916Y-93653690D01*
X111795000Y-93653690D01*
X111795000Y-93721250D01*
X111953750Y-93880000D01*
X112505000Y-93880000D01*
X112505000Y-93303750D01*
X112346250Y-93145000D01*
X112303691Y-93145000D01*
X112070302Y-93241673D01*
X111891673Y-93420301D01*
X111795000Y-93653690D01*
X108709916Y-93653690D01*
X109272606Y-93091000D01*
X112649000Y-93091000D01*
X112649000Y-95070394D01*
X112649000Y-95070394D01*
G37*
X112649000Y-95070394D02*
X112559197Y-95160197D01*
X112531667Y-95201399D01*
X112522000Y-95250000D01*
X112522000Y-97864394D01*
X111707394Y-98679000D01*
X109272606Y-98679000D01*
X108331000Y-97737394D01*
X108331000Y-94238750D01*
X111795000Y-94238750D01*
X111795000Y-94306310D01*
X111891673Y-94539699D01*
X112070302Y-94718327D01*
X112303691Y-94815000D01*
X112346250Y-94815000D01*
X112505000Y-94656250D01*
X112505000Y-94080000D01*
X111953750Y-94080000D01*
X111795000Y-94238750D01*
X108331000Y-94238750D01*
X108331000Y-94032606D01*
X108709916Y-93653690D01*
X111795000Y-93653690D01*
X111795000Y-93721250D01*
X111953750Y-93880000D01*
X112505000Y-93880000D01*
X112505000Y-93303750D01*
X112346250Y-93145000D01*
X112303691Y-93145000D01*
X112070302Y-93241673D01*
X111891673Y-93420301D01*
X111795000Y-93653690D01*
X108709916Y-93653690D01*
X109272606Y-93091000D01*
X112649000Y-93091000D01*
X112649000Y-95070394D01*
G04 #@! TO.N,/+12V*
G36*
X178562000Y-106934000D02*
X161036000Y-106934000D01*
X161036000Y-100052621D01*
X163009414Y-100052621D01*
X163174805Y-100884096D01*
X163645797Y-101588986D01*
X164350687Y-102059978D01*
X164972281Y-102183621D01*
X165392043Y-102183621D01*
X166013637Y-102059978D01*
X166718527Y-101588986D01*
X167189519Y-100884096D01*
X167354910Y-100052621D01*
X167189519Y-99221146D01*
X166718527Y-98516256D01*
X166013637Y-98045264D01*
X165392043Y-97921621D01*
X164972281Y-97921621D01*
X164350687Y-98045264D01*
X163645797Y-98516256D01*
X163174805Y-99221146D01*
X163009414Y-100052621D01*
X161036000Y-100052621D01*
X161036000Y-93218000D01*
X178562000Y-93218000D01*
X178562000Y-106934000D01*
X178562000Y-106934000D01*
G37*
X178562000Y-106934000D02*
X161036000Y-106934000D01*
X161036000Y-100052621D01*
X163009414Y-100052621D01*
X163174805Y-100884096D01*
X163645797Y-101588986D01*
X164350687Y-102059978D01*
X164972281Y-102183621D01*
X165392043Y-102183621D01*
X166013637Y-102059978D01*
X166718527Y-101588986D01*
X167189519Y-100884096D01*
X167354910Y-100052621D01*
X167189519Y-99221146D01*
X166718527Y-98516256D01*
X166013637Y-98045264D01*
X165392043Y-97921621D01*
X164972281Y-97921621D01*
X164350687Y-98045264D01*
X163645797Y-98516256D01*
X163174805Y-99221146D01*
X163009414Y-100052621D01*
X161036000Y-100052621D01*
X161036000Y-93218000D01*
X178562000Y-93218000D01*
X178562000Y-106934000D01*
G04 #@! TD*
M02*
