G04 #@! TF.GenerationSoftware,KiCad,Pcbnew,5.0.2-bee76a0~70~ubuntu18.04.1*
G04 #@! TF.CreationDate,2019-06-21T09:24:01-07:00*
G04 #@! TF.ProjectId,aa-power,61612d70-6f77-4657-922e-6b696361645f,rev?*
G04 #@! TF.SameCoordinates,Original*
G04 #@! TF.FileFunction,Paste,Top*
G04 #@! TF.FilePolarity,Positive*
%FSLAX46Y46*%
G04 Gerber Fmt 4.6, Leading zero omitted, Abs format (unit mm)*
G04 Created by KiCad (PCBNEW 5.0.2-bee76a0~70~ubuntu18.04.1) date Fri 21 Jun 2019 09:24:01 AM PDT*
%MOMM*%
%LPD*%
G01*
G04 APERTURE LIST*
%ADD10C,1.275080*%
%ADD11C,0.100000*%
%ADD12C,0.975000*%
%ADD13C,0.875000*%
%ADD14R,2.100000X1.400000*%
%ADD15R,0.300000X0.400000*%
G04 APERTURE END LIST*
D10*
G04 #@! TO.C,FD6*
X194310000Y-81280000D03*
G04 #@! TD*
D11*
G04 #@! TO.C,C4*
G36*
X186625142Y-100266174D02*
X186648803Y-100269684D01*
X186672007Y-100275496D01*
X186694529Y-100283554D01*
X186716153Y-100293782D01*
X186736670Y-100306079D01*
X186755883Y-100320329D01*
X186773607Y-100336393D01*
X186789671Y-100354117D01*
X186803921Y-100373330D01*
X186816218Y-100393847D01*
X186826446Y-100415471D01*
X186834504Y-100437993D01*
X186840316Y-100461197D01*
X186843826Y-100484858D01*
X186845000Y-100508750D01*
X186845000Y-101421250D01*
X186843826Y-101445142D01*
X186840316Y-101468803D01*
X186834504Y-101492007D01*
X186826446Y-101514529D01*
X186816218Y-101536153D01*
X186803921Y-101556670D01*
X186789671Y-101575883D01*
X186773607Y-101593607D01*
X186755883Y-101609671D01*
X186736670Y-101623921D01*
X186716153Y-101636218D01*
X186694529Y-101646446D01*
X186672007Y-101654504D01*
X186648803Y-101660316D01*
X186625142Y-101663826D01*
X186601250Y-101665000D01*
X186113750Y-101665000D01*
X186089858Y-101663826D01*
X186066197Y-101660316D01*
X186042993Y-101654504D01*
X186020471Y-101646446D01*
X185998847Y-101636218D01*
X185978330Y-101623921D01*
X185959117Y-101609671D01*
X185941393Y-101593607D01*
X185925329Y-101575883D01*
X185911079Y-101556670D01*
X185898782Y-101536153D01*
X185888554Y-101514529D01*
X185880496Y-101492007D01*
X185874684Y-101468803D01*
X185871174Y-101445142D01*
X185870000Y-101421250D01*
X185870000Y-100508750D01*
X185871174Y-100484858D01*
X185874684Y-100461197D01*
X185880496Y-100437993D01*
X185888554Y-100415471D01*
X185898782Y-100393847D01*
X185911079Y-100373330D01*
X185925329Y-100354117D01*
X185941393Y-100336393D01*
X185959117Y-100320329D01*
X185978330Y-100306079D01*
X185998847Y-100293782D01*
X186020471Y-100283554D01*
X186042993Y-100275496D01*
X186066197Y-100269684D01*
X186089858Y-100266174D01*
X186113750Y-100265000D01*
X186601250Y-100265000D01*
X186625142Y-100266174D01*
X186625142Y-100266174D01*
G37*
D12*
X186357500Y-100965000D03*
D11*
G36*
X184750142Y-100266174D02*
X184773803Y-100269684D01*
X184797007Y-100275496D01*
X184819529Y-100283554D01*
X184841153Y-100293782D01*
X184861670Y-100306079D01*
X184880883Y-100320329D01*
X184898607Y-100336393D01*
X184914671Y-100354117D01*
X184928921Y-100373330D01*
X184941218Y-100393847D01*
X184951446Y-100415471D01*
X184959504Y-100437993D01*
X184965316Y-100461197D01*
X184968826Y-100484858D01*
X184970000Y-100508750D01*
X184970000Y-101421250D01*
X184968826Y-101445142D01*
X184965316Y-101468803D01*
X184959504Y-101492007D01*
X184951446Y-101514529D01*
X184941218Y-101536153D01*
X184928921Y-101556670D01*
X184914671Y-101575883D01*
X184898607Y-101593607D01*
X184880883Y-101609671D01*
X184861670Y-101623921D01*
X184841153Y-101636218D01*
X184819529Y-101646446D01*
X184797007Y-101654504D01*
X184773803Y-101660316D01*
X184750142Y-101663826D01*
X184726250Y-101665000D01*
X184238750Y-101665000D01*
X184214858Y-101663826D01*
X184191197Y-101660316D01*
X184167993Y-101654504D01*
X184145471Y-101646446D01*
X184123847Y-101636218D01*
X184103330Y-101623921D01*
X184084117Y-101609671D01*
X184066393Y-101593607D01*
X184050329Y-101575883D01*
X184036079Y-101556670D01*
X184023782Y-101536153D01*
X184013554Y-101514529D01*
X184005496Y-101492007D01*
X183999684Y-101468803D01*
X183996174Y-101445142D01*
X183995000Y-101421250D01*
X183995000Y-100508750D01*
X183996174Y-100484858D01*
X183999684Y-100461197D01*
X184005496Y-100437993D01*
X184013554Y-100415471D01*
X184023782Y-100393847D01*
X184036079Y-100373330D01*
X184050329Y-100354117D01*
X184066393Y-100336393D01*
X184084117Y-100320329D01*
X184103330Y-100306079D01*
X184123847Y-100293782D01*
X184145471Y-100283554D01*
X184167993Y-100275496D01*
X184191197Y-100269684D01*
X184214858Y-100266174D01*
X184238750Y-100265000D01*
X184726250Y-100265000D01*
X184750142Y-100266174D01*
X184750142Y-100266174D01*
G37*
D12*
X184482500Y-100965000D03*
G04 #@! TD*
D11*
G04 #@! TO.C,C3*
G36*
X149795142Y-93281174D02*
X149818803Y-93284684D01*
X149842007Y-93290496D01*
X149864529Y-93298554D01*
X149886153Y-93308782D01*
X149906670Y-93321079D01*
X149925883Y-93335329D01*
X149943607Y-93351393D01*
X149959671Y-93369117D01*
X149973921Y-93388330D01*
X149986218Y-93408847D01*
X149996446Y-93430471D01*
X150004504Y-93452993D01*
X150010316Y-93476197D01*
X150013826Y-93499858D01*
X150015000Y-93523750D01*
X150015000Y-94436250D01*
X150013826Y-94460142D01*
X150010316Y-94483803D01*
X150004504Y-94507007D01*
X149996446Y-94529529D01*
X149986218Y-94551153D01*
X149973921Y-94571670D01*
X149959671Y-94590883D01*
X149943607Y-94608607D01*
X149925883Y-94624671D01*
X149906670Y-94638921D01*
X149886153Y-94651218D01*
X149864529Y-94661446D01*
X149842007Y-94669504D01*
X149818803Y-94675316D01*
X149795142Y-94678826D01*
X149771250Y-94680000D01*
X149283750Y-94680000D01*
X149259858Y-94678826D01*
X149236197Y-94675316D01*
X149212993Y-94669504D01*
X149190471Y-94661446D01*
X149168847Y-94651218D01*
X149148330Y-94638921D01*
X149129117Y-94624671D01*
X149111393Y-94608607D01*
X149095329Y-94590883D01*
X149081079Y-94571670D01*
X149068782Y-94551153D01*
X149058554Y-94529529D01*
X149050496Y-94507007D01*
X149044684Y-94483803D01*
X149041174Y-94460142D01*
X149040000Y-94436250D01*
X149040000Y-93523750D01*
X149041174Y-93499858D01*
X149044684Y-93476197D01*
X149050496Y-93452993D01*
X149058554Y-93430471D01*
X149068782Y-93408847D01*
X149081079Y-93388330D01*
X149095329Y-93369117D01*
X149111393Y-93351393D01*
X149129117Y-93335329D01*
X149148330Y-93321079D01*
X149168847Y-93308782D01*
X149190471Y-93298554D01*
X149212993Y-93290496D01*
X149236197Y-93284684D01*
X149259858Y-93281174D01*
X149283750Y-93280000D01*
X149771250Y-93280000D01*
X149795142Y-93281174D01*
X149795142Y-93281174D01*
G37*
D12*
X149527500Y-93980000D03*
D11*
G36*
X147920142Y-93281174D02*
X147943803Y-93284684D01*
X147967007Y-93290496D01*
X147989529Y-93298554D01*
X148011153Y-93308782D01*
X148031670Y-93321079D01*
X148050883Y-93335329D01*
X148068607Y-93351393D01*
X148084671Y-93369117D01*
X148098921Y-93388330D01*
X148111218Y-93408847D01*
X148121446Y-93430471D01*
X148129504Y-93452993D01*
X148135316Y-93476197D01*
X148138826Y-93499858D01*
X148140000Y-93523750D01*
X148140000Y-94436250D01*
X148138826Y-94460142D01*
X148135316Y-94483803D01*
X148129504Y-94507007D01*
X148121446Y-94529529D01*
X148111218Y-94551153D01*
X148098921Y-94571670D01*
X148084671Y-94590883D01*
X148068607Y-94608607D01*
X148050883Y-94624671D01*
X148031670Y-94638921D01*
X148011153Y-94651218D01*
X147989529Y-94661446D01*
X147967007Y-94669504D01*
X147943803Y-94675316D01*
X147920142Y-94678826D01*
X147896250Y-94680000D01*
X147408750Y-94680000D01*
X147384858Y-94678826D01*
X147361197Y-94675316D01*
X147337993Y-94669504D01*
X147315471Y-94661446D01*
X147293847Y-94651218D01*
X147273330Y-94638921D01*
X147254117Y-94624671D01*
X147236393Y-94608607D01*
X147220329Y-94590883D01*
X147206079Y-94571670D01*
X147193782Y-94551153D01*
X147183554Y-94529529D01*
X147175496Y-94507007D01*
X147169684Y-94483803D01*
X147166174Y-94460142D01*
X147165000Y-94436250D01*
X147165000Y-93523750D01*
X147166174Y-93499858D01*
X147169684Y-93476197D01*
X147175496Y-93452993D01*
X147183554Y-93430471D01*
X147193782Y-93408847D01*
X147206079Y-93388330D01*
X147220329Y-93369117D01*
X147236393Y-93351393D01*
X147254117Y-93335329D01*
X147273330Y-93321079D01*
X147293847Y-93308782D01*
X147315471Y-93298554D01*
X147337993Y-93290496D01*
X147361197Y-93284684D01*
X147384858Y-93281174D01*
X147408750Y-93280000D01*
X147896250Y-93280000D01*
X147920142Y-93281174D01*
X147920142Y-93281174D01*
G37*
D12*
X147652500Y-93980000D03*
G04 #@! TD*
D11*
G04 #@! TO.C,D3*
G36*
X108989691Y-88946053D02*
X109010926Y-88949203D01*
X109031750Y-88954419D01*
X109051962Y-88961651D01*
X109071368Y-88970830D01*
X109089781Y-88981866D01*
X109107024Y-88994654D01*
X109122930Y-89009070D01*
X109137346Y-89024976D01*
X109150134Y-89042219D01*
X109161170Y-89060632D01*
X109170349Y-89080038D01*
X109177581Y-89100250D01*
X109182797Y-89121074D01*
X109185947Y-89142309D01*
X109187000Y-89163750D01*
X109187000Y-89601250D01*
X109185947Y-89622691D01*
X109182797Y-89643926D01*
X109177581Y-89664750D01*
X109170349Y-89684962D01*
X109161170Y-89704368D01*
X109150134Y-89722781D01*
X109137346Y-89740024D01*
X109122930Y-89755930D01*
X109107024Y-89770346D01*
X109089781Y-89783134D01*
X109071368Y-89794170D01*
X109051962Y-89803349D01*
X109031750Y-89810581D01*
X109010926Y-89815797D01*
X108989691Y-89818947D01*
X108968250Y-89820000D01*
X108455750Y-89820000D01*
X108434309Y-89818947D01*
X108413074Y-89815797D01*
X108392250Y-89810581D01*
X108372038Y-89803349D01*
X108352632Y-89794170D01*
X108334219Y-89783134D01*
X108316976Y-89770346D01*
X108301070Y-89755930D01*
X108286654Y-89740024D01*
X108273866Y-89722781D01*
X108262830Y-89704368D01*
X108253651Y-89684962D01*
X108246419Y-89664750D01*
X108241203Y-89643926D01*
X108238053Y-89622691D01*
X108237000Y-89601250D01*
X108237000Y-89163750D01*
X108238053Y-89142309D01*
X108241203Y-89121074D01*
X108246419Y-89100250D01*
X108253651Y-89080038D01*
X108262830Y-89060632D01*
X108273866Y-89042219D01*
X108286654Y-89024976D01*
X108301070Y-89009070D01*
X108316976Y-88994654D01*
X108334219Y-88981866D01*
X108352632Y-88970830D01*
X108372038Y-88961651D01*
X108392250Y-88954419D01*
X108413074Y-88949203D01*
X108434309Y-88946053D01*
X108455750Y-88945000D01*
X108968250Y-88945000D01*
X108989691Y-88946053D01*
X108989691Y-88946053D01*
G37*
D13*
X108712000Y-89382500D03*
D11*
G36*
X108989691Y-90521053D02*
X109010926Y-90524203D01*
X109031750Y-90529419D01*
X109051962Y-90536651D01*
X109071368Y-90545830D01*
X109089781Y-90556866D01*
X109107024Y-90569654D01*
X109122930Y-90584070D01*
X109137346Y-90599976D01*
X109150134Y-90617219D01*
X109161170Y-90635632D01*
X109170349Y-90655038D01*
X109177581Y-90675250D01*
X109182797Y-90696074D01*
X109185947Y-90717309D01*
X109187000Y-90738750D01*
X109187000Y-91176250D01*
X109185947Y-91197691D01*
X109182797Y-91218926D01*
X109177581Y-91239750D01*
X109170349Y-91259962D01*
X109161170Y-91279368D01*
X109150134Y-91297781D01*
X109137346Y-91315024D01*
X109122930Y-91330930D01*
X109107024Y-91345346D01*
X109089781Y-91358134D01*
X109071368Y-91369170D01*
X109051962Y-91378349D01*
X109031750Y-91385581D01*
X109010926Y-91390797D01*
X108989691Y-91393947D01*
X108968250Y-91395000D01*
X108455750Y-91395000D01*
X108434309Y-91393947D01*
X108413074Y-91390797D01*
X108392250Y-91385581D01*
X108372038Y-91378349D01*
X108352632Y-91369170D01*
X108334219Y-91358134D01*
X108316976Y-91345346D01*
X108301070Y-91330930D01*
X108286654Y-91315024D01*
X108273866Y-91297781D01*
X108262830Y-91279368D01*
X108253651Y-91259962D01*
X108246419Y-91239750D01*
X108241203Y-91218926D01*
X108238053Y-91197691D01*
X108237000Y-91176250D01*
X108237000Y-90738750D01*
X108238053Y-90717309D01*
X108241203Y-90696074D01*
X108246419Y-90675250D01*
X108253651Y-90655038D01*
X108262830Y-90635632D01*
X108273866Y-90617219D01*
X108286654Y-90599976D01*
X108301070Y-90584070D01*
X108316976Y-90569654D01*
X108334219Y-90556866D01*
X108352632Y-90545830D01*
X108372038Y-90536651D01*
X108392250Y-90529419D01*
X108413074Y-90524203D01*
X108434309Y-90521053D01*
X108455750Y-90520000D01*
X108968250Y-90520000D01*
X108989691Y-90521053D01*
X108989691Y-90521053D01*
G37*
D13*
X108712000Y-90957500D03*
G04 #@! TD*
D11*
G04 #@! TO.C,D4*
G36*
X108862691Y-109266053D02*
X108883926Y-109269203D01*
X108904750Y-109274419D01*
X108924962Y-109281651D01*
X108944368Y-109290830D01*
X108962781Y-109301866D01*
X108980024Y-109314654D01*
X108995930Y-109329070D01*
X109010346Y-109344976D01*
X109023134Y-109362219D01*
X109034170Y-109380632D01*
X109043349Y-109400038D01*
X109050581Y-109420250D01*
X109055797Y-109441074D01*
X109058947Y-109462309D01*
X109060000Y-109483750D01*
X109060000Y-109921250D01*
X109058947Y-109942691D01*
X109055797Y-109963926D01*
X109050581Y-109984750D01*
X109043349Y-110004962D01*
X109034170Y-110024368D01*
X109023134Y-110042781D01*
X109010346Y-110060024D01*
X108995930Y-110075930D01*
X108980024Y-110090346D01*
X108962781Y-110103134D01*
X108944368Y-110114170D01*
X108924962Y-110123349D01*
X108904750Y-110130581D01*
X108883926Y-110135797D01*
X108862691Y-110138947D01*
X108841250Y-110140000D01*
X108328750Y-110140000D01*
X108307309Y-110138947D01*
X108286074Y-110135797D01*
X108265250Y-110130581D01*
X108245038Y-110123349D01*
X108225632Y-110114170D01*
X108207219Y-110103134D01*
X108189976Y-110090346D01*
X108174070Y-110075930D01*
X108159654Y-110060024D01*
X108146866Y-110042781D01*
X108135830Y-110024368D01*
X108126651Y-110004962D01*
X108119419Y-109984750D01*
X108114203Y-109963926D01*
X108111053Y-109942691D01*
X108110000Y-109921250D01*
X108110000Y-109483750D01*
X108111053Y-109462309D01*
X108114203Y-109441074D01*
X108119419Y-109420250D01*
X108126651Y-109400038D01*
X108135830Y-109380632D01*
X108146866Y-109362219D01*
X108159654Y-109344976D01*
X108174070Y-109329070D01*
X108189976Y-109314654D01*
X108207219Y-109301866D01*
X108225632Y-109290830D01*
X108245038Y-109281651D01*
X108265250Y-109274419D01*
X108286074Y-109269203D01*
X108307309Y-109266053D01*
X108328750Y-109265000D01*
X108841250Y-109265000D01*
X108862691Y-109266053D01*
X108862691Y-109266053D01*
G37*
D13*
X108585000Y-109702500D03*
D11*
G36*
X108862691Y-110841053D02*
X108883926Y-110844203D01*
X108904750Y-110849419D01*
X108924962Y-110856651D01*
X108944368Y-110865830D01*
X108962781Y-110876866D01*
X108980024Y-110889654D01*
X108995930Y-110904070D01*
X109010346Y-110919976D01*
X109023134Y-110937219D01*
X109034170Y-110955632D01*
X109043349Y-110975038D01*
X109050581Y-110995250D01*
X109055797Y-111016074D01*
X109058947Y-111037309D01*
X109060000Y-111058750D01*
X109060000Y-111496250D01*
X109058947Y-111517691D01*
X109055797Y-111538926D01*
X109050581Y-111559750D01*
X109043349Y-111579962D01*
X109034170Y-111599368D01*
X109023134Y-111617781D01*
X109010346Y-111635024D01*
X108995930Y-111650930D01*
X108980024Y-111665346D01*
X108962781Y-111678134D01*
X108944368Y-111689170D01*
X108924962Y-111698349D01*
X108904750Y-111705581D01*
X108883926Y-111710797D01*
X108862691Y-111713947D01*
X108841250Y-111715000D01*
X108328750Y-111715000D01*
X108307309Y-111713947D01*
X108286074Y-111710797D01*
X108265250Y-111705581D01*
X108245038Y-111698349D01*
X108225632Y-111689170D01*
X108207219Y-111678134D01*
X108189976Y-111665346D01*
X108174070Y-111650930D01*
X108159654Y-111635024D01*
X108146866Y-111617781D01*
X108135830Y-111599368D01*
X108126651Y-111579962D01*
X108119419Y-111559750D01*
X108114203Y-111538926D01*
X108111053Y-111517691D01*
X108110000Y-111496250D01*
X108110000Y-111058750D01*
X108111053Y-111037309D01*
X108114203Y-111016074D01*
X108119419Y-110995250D01*
X108126651Y-110975038D01*
X108135830Y-110955632D01*
X108146866Y-110937219D01*
X108159654Y-110919976D01*
X108174070Y-110904070D01*
X108189976Y-110889654D01*
X108207219Y-110876866D01*
X108225632Y-110865830D01*
X108245038Y-110856651D01*
X108265250Y-110849419D01*
X108286074Y-110844203D01*
X108307309Y-110841053D01*
X108328750Y-110840000D01*
X108841250Y-110840000D01*
X108862691Y-110841053D01*
X108862691Y-110841053D01*
G37*
D13*
X108585000Y-111277500D03*
G04 #@! TD*
D11*
G04 #@! TO.C,D7*
G36*
X190142691Y-113076053D02*
X190163926Y-113079203D01*
X190184750Y-113084419D01*
X190204962Y-113091651D01*
X190224368Y-113100830D01*
X190242781Y-113111866D01*
X190260024Y-113124654D01*
X190275930Y-113139070D01*
X190290346Y-113154976D01*
X190303134Y-113172219D01*
X190314170Y-113190632D01*
X190323349Y-113210038D01*
X190330581Y-113230250D01*
X190335797Y-113251074D01*
X190338947Y-113272309D01*
X190340000Y-113293750D01*
X190340000Y-113731250D01*
X190338947Y-113752691D01*
X190335797Y-113773926D01*
X190330581Y-113794750D01*
X190323349Y-113814962D01*
X190314170Y-113834368D01*
X190303134Y-113852781D01*
X190290346Y-113870024D01*
X190275930Y-113885930D01*
X190260024Y-113900346D01*
X190242781Y-113913134D01*
X190224368Y-113924170D01*
X190204962Y-113933349D01*
X190184750Y-113940581D01*
X190163926Y-113945797D01*
X190142691Y-113948947D01*
X190121250Y-113950000D01*
X189608750Y-113950000D01*
X189587309Y-113948947D01*
X189566074Y-113945797D01*
X189545250Y-113940581D01*
X189525038Y-113933349D01*
X189505632Y-113924170D01*
X189487219Y-113913134D01*
X189469976Y-113900346D01*
X189454070Y-113885930D01*
X189439654Y-113870024D01*
X189426866Y-113852781D01*
X189415830Y-113834368D01*
X189406651Y-113814962D01*
X189399419Y-113794750D01*
X189394203Y-113773926D01*
X189391053Y-113752691D01*
X189390000Y-113731250D01*
X189390000Y-113293750D01*
X189391053Y-113272309D01*
X189394203Y-113251074D01*
X189399419Y-113230250D01*
X189406651Y-113210038D01*
X189415830Y-113190632D01*
X189426866Y-113172219D01*
X189439654Y-113154976D01*
X189454070Y-113139070D01*
X189469976Y-113124654D01*
X189487219Y-113111866D01*
X189505632Y-113100830D01*
X189525038Y-113091651D01*
X189545250Y-113084419D01*
X189566074Y-113079203D01*
X189587309Y-113076053D01*
X189608750Y-113075000D01*
X190121250Y-113075000D01*
X190142691Y-113076053D01*
X190142691Y-113076053D01*
G37*
D13*
X189865000Y-113512500D03*
D11*
G36*
X190142691Y-114651053D02*
X190163926Y-114654203D01*
X190184750Y-114659419D01*
X190204962Y-114666651D01*
X190224368Y-114675830D01*
X190242781Y-114686866D01*
X190260024Y-114699654D01*
X190275930Y-114714070D01*
X190290346Y-114729976D01*
X190303134Y-114747219D01*
X190314170Y-114765632D01*
X190323349Y-114785038D01*
X190330581Y-114805250D01*
X190335797Y-114826074D01*
X190338947Y-114847309D01*
X190340000Y-114868750D01*
X190340000Y-115306250D01*
X190338947Y-115327691D01*
X190335797Y-115348926D01*
X190330581Y-115369750D01*
X190323349Y-115389962D01*
X190314170Y-115409368D01*
X190303134Y-115427781D01*
X190290346Y-115445024D01*
X190275930Y-115460930D01*
X190260024Y-115475346D01*
X190242781Y-115488134D01*
X190224368Y-115499170D01*
X190204962Y-115508349D01*
X190184750Y-115515581D01*
X190163926Y-115520797D01*
X190142691Y-115523947D01*
X190121250Y-115525000D01*
X189608750Y-115525000D01*
X189587309Y-115523947D01*
X189566074Y-115520797D01*
X189545250Y-115515581D01*
X189525038Y-115508349D01*
X189505632Y-115499170D01*
X189487219Y-115488134D01*
X189469976Y-115475346D01*
X189454070Y-115460930D01*
X189439654Y-115445024D01*
X189426866Y-115427781D01*
X189415830Y-115409368D01*
X189406651Y-115389962D01*
X189399419Y-115369750D01*
X189394203Y-115348926D01*
X189391053Y-115327691D01*
X189390000Y-115306250D01*
X189390000Y-114868750D01*
X189391053Y-114847309D01*
X189394203Y-114826074D01*
X189399419Y-114805250D01*
X189406651Y-114785038D01*
X189415830Y-114765632D01*
X189426866Y-114747219D01*
X189439654Y-114729976D01*
X189454070Y-114714070D01*
X189469976Y-114699654D01*
X189487219Y-114686866D01*
X189505632Y-114675830D01*
X189525038Y-114666651D01*
X189545250Y-114659419D01*
X189566074Y-114654203D01*
X189587309Y-114651053D01*
X189608750Y-114650000D01*
X190121250Y-114650000D01*
X190142691Y-114651053D01*
X190142691Y-114651053D01*
G37*
D13*
X189865000Y-115087500D03*
G04 #@! TD*
D11*
G04 #@! TO.C,R5*
G36*
X186447691Y-102396053D02*
X186468926Y-102399203D01*
X186489750Y-102404419D01*
X186509962Y-102411651D01*
X186529368Y-102420830D01*
X186547781Y-102431866D01*
X186565024Y-102444654D01*
X186580930Y-102459070D01*
X186595346Y-102474976D01*
X186608134Y-102492219D01*
X186619170Y-102510632D01*
X186628349Y-102530038D01*
X186635581Y-102550250D01*
X186640797Y-102571074D01*
X186643947Y-102592309D01*
X186645000Y-102613750D01*
X186645000Y-103126250D01*
X186643947Y-103147691D01*
X186640797Y-103168926D01*
X186635581Y-103189750D01*
X186628349Y-103209962D01*
X186619170Y-103229368D01*
X186608134Y-103247781D01*
X186595346Y-103265024D01*
X186580930Y-103280930D01*
X186565024Y-103295346D01*
X186547781Y-103308134D01*
X186529368Y-103319170D01*
X186509962Y-103328349D01*
X186489750Y-103335581D01*
X186468926Y-103340797D01*
X186447691Y-103343947D01*
X186426250Y-103345000D01*
X185988750Y-103345000D01*
X185967309Y-103343947D01*
X185946074Y-103340797D01*
X185925250Y-103335581D01*
X185905038Y-103328349D01*
X185885632Y-103319170D01*
X185867219Y-103308134D01*
X185849976Y-103295346D01*
X185834070Y-103280930D01*
X185819654Y-103265024D01*
X185806866Y-103247781D01*
X185795830Y-103229368D01*
X185786651Y-103209962D01*
X185779419Y-103189750D01*
X185774203Y-103168926D01*
X185771053Y-103147691D01*
X185770000Y-103126250D01*
X185770000Y-102613750D01*
X185771053Y-102592309D01*
X185774203Y-102571074D01*
X185779419Y-102550250D01*
X185786651Y-102530038D01*
X185795830Y-102510632D01*
X185806866Y-102492219D01*
X185819654Y-102474976D01*
X185834070Y-102459070D01*
X185849976Y-102444654D01*
X185867219Y-102431866D01*
X185885632Y-102420830D01*
X185905038Y-102411651D01*
X185925250Y-102404419D01*
X185946074Y-102399203D01*
X185967309Y-102396053D01*
X185988750Y-102395000D01*
X186426250Y-102395000D01*
X186447691Y-102396053D01*
X186447691Y-102396053D01*
G37*
D13*
X186207500Y-102870000D03*
D11*
G36*
X184872691Y-102396053D02*
X184893926Y-102399203D01*
X184914750Y-102404419D01*
X184934962Y-102411651D01*
X184954368Y-102420830D01*
X184972781Y-102431866D01*
X184990024Y-102444654D01*
X185005930Y-102459070D01*
X185020346Y-102474976D01*
X185033134Y-102492219D01*
X185044170Y-102510632D01*
X185053349Y-102530038D01*
X185060581Y-102550250D01*
X185065797Y-102571074D01*
X185068947Y-102592309D01*
X185070000Y-102613750D01*
X185070000Y-103126250D01*
X185068947Y-103147691D01*
X185065797Y-103168926D01*
X185060581Y-103189750D01*
X185053349Y-103209962D01*
X185044170Y-103229368D01*
X185033134Y-103247781D01*
X185020346Y-103265024D01*
X185005930Y-103280930D01*
X184990024Y-103295346D01*
X184972781Y-103308134D01*
X184954368Y-103319170D01*
X184934962Y-103328349D01*
X184914750Y-103335581D01*
X184893926Y-103340797D01*
X184872691Y-103343947D01*
X184851250Y-103345000D01*
X184413750Y-103345000D01*
X184392309Y-103343947D01*
X184371074Y-103340797D01*
X184350250Y-103335581D01*
X184330038Y-103328349D01*
X184310632Y-103319170D01*
X184292219Y-103308134D01*
X184274976Y-103295346D01*
X184259070Y-103280930D01*
X184244654Y-103265024D01*
X184231866Y-103247781D01*
X184220830Y-103229368D01*
X184211651Y-103209962D01*
X184204419Y-103189750D01*
X184199203Y-103168926D01*
X184196053Y-103147691D01*
X184195000Y-103126250D01*
X184195000Y-102613750D01*
X184196053Y-102592309D01*
X184199203Y-102571074D01*
X184204419Y-102550250D01*
X184211651Y-102530038D01*
X184220830Y-102510632D01*
X184231866Y-102492219D01*
X184244654Y-102474976D01*
X184259070Y-102459070D01*
X184274976Y-102444654D01*
X184292219Y-102431866D01*
X184310632Y-102420830D01*
X184330038Y-102411651D01*
X184350250Y-102404419D01*
X184371074Y-102399203D01*
X184392309Y-102396053D01*
X184413750Y-102395000D01*
X184851250Y-102395000D01*
X184872691Y-102396053D01*
X184872691Y-102396053D01*
G37*
D13*
X184632500Y-102870000D03*
G04 #@! TD*
D11*
G04 #@! TO.C,R4*
G36*
X186447691Y-98586053D02*
X186468926Y-98589203D01*
X186489750Y-98594419D01*
X186509962Y-98601651D01*
X186529368Y-98610830D01*
X186547781Y-98621866D01*
X186565024Y-98634654D01*
X186580930Y-98649070D01*
X186595346Y-98664976D01*
X186608134Y-98682219D01*
X186619170Y-98700632D01*
X186628349Y-98720038D01*
X186635581Y-98740250D01*
X186640797Y-98761074D01*
X186643947Y-98782309D01*
X186645000Y-98803750D01*
X186645000Y-99316250D01*
X186643947Y-99337691D01*
X186640797Y-99358926D01*
X186635581Y-99379750D01*
X186628349Y-99399962D01*
X186619170Y-99419368D01*
X186608134Y-99437781D01*
X186595346Y-99455024D01*
X186580930Y-99470930D01*
X186565024Y-99485346D01*
X186547781Y-99498134D01*
X186529368Y-99509170D01*
X186509962Y-99518349D01*
X186489750Y-99525581D01*
X186468926Y-99530797D01*
X186447691Y-99533947D01*
X186426250Y-99535000D01*
X185988750Y-99535000D01*
X185967309Y-99533947D01*
X185946074Y-99530797D01*
X185925250Y-99525581D01*
X185905038Y-99518349D01*
X185885632Y-99509170D01*
X185867219Y-99498134D01*
X185849976Y-99485346D01*
X185834070Y-99470930D01*
X185819654Y-99455024D01*
X185806866Y-99437781D01*
X185795830Y-99419368D01*
X185786651Y-99399962D01*
X185779419Y-99379750D01*
X185774203Y-99358926D01*
X185771053Y-99337691D01*
X185770000Y-99316250D01*
X185770000Y-98803750D01*
X185771053Y-98782309D01*
X185774203Y-98761074D01*
X185779419Y-98740250D01*
X185786651Y-98720038D01*
X185795830Y-98700632D01*
X185806866Y-98682219D01*
X185819654Y-98664976D01*
X185834070Y-98649070D01*
X185849976Y-98634654D01*
X185867219Y-98621866D01*
X185885632Y-98610830D01*
X185905038Y-98601651D01*
X185925250Y-98594419D01*
X185946074Y-98589203D01*
X185967309Y-98586053D01*
X185988750Y-98585000D01*
X186426250Y-98585000D01*
X186447691Y-98586053D01*
X186447691Y-98586053D01*
G37*
D13*
X186207500Y-99060000D03*
D11*
G36*
X184872691Y-98586053D02*
X184893926Y-98589203D01*
X184914750Y-98594419D01*
X184934962Y-98601651D01*
X184954368Y-98610830D01*
X184972781Y-98621866D01*
X184990024Y-98634654D01*
X185005930Y-98649070D01*
X185020346Y-98664976D01*
X185033134Y-98682219D01*
X185044170Y-98700632D01*
X185053349Y-98720038D01*
X185060581Y-98740250D01*
X185065797Y-98761074D01*
X185068947Y-98782309D01*
X185070000Y-98803750D01*
X185070000Y-99316250D01*
X185068947Y-99337691D01*
X185065797Y-99358926D01*
X185060581Y-99379750D01*
X185053349Y-99399962D01*
X185044170Y-99419368D01*
X185033134Y-99437781D01*
X185020346Y-99455024D01*
X185005930Y-99470930D01*
X184990024Y-99485346D01*
X184972781Y-99498134D01*
X184954368Y-99509170D01*
X184934962Y-99518349D01*
X184914750Y-99525581D01*
X184893926Y-99530797D01*
X184872691Y-99533947D01*
X184851250Y-99535000D01*
X184413750Y-99535000D01*
X184392309Y-99533947D01*
X184371074Y-99530797D01*
X184350250Y-99525581D01*
X184330038Y-99518349D01*
X184310632Y-99509170D01*
X184292219Y-99498134D01*
X184274976Y-99485346D01*
X184259070Y-99470930D01*
X184244654Y-99455024D01*
X184231866Y-99437781D01*
X184220830Y-99419368D01*
X184211651Y-99399962D01*
X184204419Y-99379750D01*
X184199203Y-99358926D01*
X184196053Y-99337691D01*
X184195000Y-99316250D01*
X184195000Y-98803750D01*
X184196053Y-98782309D01*
X184199203Y-98761074D01*
X184204419Y-98740250D01*
X184211651Y-98720038D01*
X184220830Y-98700632D01*
X184231866Y-98682219D01*
X184244654Y-98664976D01*
X184259070Y-98649070D01*
X184274976Y-98634654D01*
X184292219Y-98621866D01*
X184310632Y-98610830D01*
X184330038Y-98601651D01*
X184350250Y-98594419D01*
X184371074Y-98589203D01*
X184392309Y-98586053D01*
X184413750Y-98585000D01*
X184851250Y-98585000D01*
X184872691Y-98586053D01*
X184872691Y-98586053D01*
G37*
D13*
X184632500Y-99060000D03*
G04 #@! TD*
D11*
G04 #@! TO.C,R2*
G36*
X108862691Y-115921053D02*
X108883926Y-115924203D01*
X108904750Y-115929419D01*
X108924962Y-115936651D01*
X108944368Y-115945830D01*
X108962781Y-115956866D01*
X108980024Y-115969654D01*
X108995930Y-115984070D01*
X109010346Y-115999976D01*
X109023134Y-116017219D01*
X109034170Y-116035632D01*
X109043349Y-116055038D01*
X109050581Y-116075250D01*
X109055797Y-116096074D01*
X109058947Y-116117309D01*
X109060000Y-116138750D01*
X109060000Y-116576250D01*
X109058947Y-116597691D01*
X109055797Y-116618926D01*
X109050581Y-116639750D01*
X109043349Y-116659962D01*
X109034170Y-116679368D01*
X109023134Y-116697781D01*
X109010346Y-116715024D01*
X108995930Y-116730930D01*
X108980024Y-116745346D01*
X108962781Y-116758134D01*
X108944368Y-116769170D01*
X108924962Y-116778349D01*
X108904750Y-116785581D01*
X108883926Y-116790797D01*
X108862691Y-116793947D01*
X108841250Y-116795000D01*
X108328750Y-116795000D01*
X108307309Y-116793947D01*
X108286074Y-116790797D01*
X108265250Y-116785581D01*
X108245038Y-116778349D01*
X108225632Y-116769170D01*
X108207219Y-116758134D01*
X108189976Y-116745346D01*
X108174070Y-116730930D01*
X108159654Y-116715024D01*
X108146866Y-116697781D01*
X108135830Y-116679368D01*
X108126651Y-116659962D01*
X108119419Y-116639750D01*
X108114203Y-116618926D01*
X108111053Y-116597691D01*
X108110000Y-116576250D01*
X108110000Y-116138750D01*
X108111053Y-116117309D01*
X108114203Y-116096074D01*
X108119419Y-116075250D01*
X108126651Y-116055038D01*
X108135830Y-116035632D01*
X108146866Y-116017219D01*
X108159654Y-115999976D01*
X108174070Y-115984070D01*
X108189976Y-115969654D01*
X108207219Y-115956866D01*
X108225632Y-115945830D01*
X108245038Y-115936651D01*
X108265250Y-115929419D01*
X108286074Y-115924203D01*
X108307309Y-115921053D01*
X108328750Y-115920000D01*
X108841250Y-115920000D01*
X108862691Y-115921053D01*
X108862691Y-115921053D01*
G37*
D13*
X108585000Y-116357500D03*
D11*
G36*
X108862691Y-114346053D02*
X108883926Y-114349203D01*
X108904750Y-114354419D01*
X108924962Y-114361651D01*
X108944368Y-114370830D01*
X108962781Y-114381866D01*
X108980024Y-114394654D01*
X108995930Y-114409070D01*
X109010346Y-114424976D01*
X109023134Y-114442219D01*
X109034170Y-114460632D01*
X109043349Y-114480038D01*
X109050581Y-114500250D01*
X109055797Y-114521074D01*
X109058947Y-114542309D01*
X109060000Y-114563750D01*
X109060000Y-115001250D01*
X109058947Y-115022691D01*
X109055797Y-115043926D01*
X109050581Y-115064750D01*
X109043349Y-115084962D01*
X109034170Y-115104368D01*
X109023134Y-115122781D01*
X109010346Y-115140024D01*
X108995930Y-115155930D01*
X108980024Y-115170346D01*
X108962781Y-115183134D01*
X108944368Y-115194170D01*
X108924962Y-115203349D01*
X108904750Y-115210581D01*
X108883926Y-115215797D01*
X108862691Y-115218947D01*
X108841250Y-115220000D01*
X108328750Y-115220000D01*
X108307309Y-115218947D01*
X108286074Y-115215797D01*
X108265250Y-115210581D01*
X108245038Y-115203349D01*
X108225632Y-115194170D01*
X108207219Y-115183134D01*
X108189976Y-115170346D01*
X108174070Y-115155930D01*
X108159654Y-115140024D01*
X108146866Y-115122781D01*
X108135830Y-115104368D01*
X108126651Y-115084962D01*
X108119419Y-115064750D01*
X108114203Y-115043926D01*
X108111053Y-115022691D01*
X108110000Y-115001250D01*
X108110000Y-114563750D01*
X108111053Y-114542309D01*
X108114203Y-114521074D01*
X108119419Y-114500250D01*
X108126651Y-114480038D01*
X108135830Y-114460632D01*
X108146866Y-114442219D01*
X108159654Y-114424976D01*
X108174070Y-114409070D01*
X108189976Y-114394654D01*
X108207219Y-114381866D01*
X108225632Y-114370830D01*
X108245038Y-114361651D01*
X108265250Y-114354419D01*
X108286074Y-114349203D01*
X108307309Y-114346053D01*
X108328750Y-114345000D01*
X108841250Y-114345000D01*
X108862691Y-114346053D01*
X108862691Y-114346053D01*
G37*
D13*
X108585000Y-114782500D03*
G04 #@! TD*
D11*
G04 #@! TO.C,R1*
G36*
X108989691Y-85441053D02*
X109010926Y-85444203D01*
X109031750Y-85449419D01*
X109051962Y-85456651D01*
X109071368Y-85465830D01*
X109089781Y-85476866D01*
X109107024Y-85489654D01*
X109122930Y-85504070D01*
X109137346Y-85519976D01*
X109150134Y-85537219D01*
X109161170Y-85555632D01*
X109170349Y-85575038D01*
X109177581Y-85595250D01*
X109182797Y-85616074D01*
X109185947Y-85637309D01*
X109187000Y-85658750D01*
X109187000Y-86096250D01*
X109185947Y-86117691D01*
X109182797Y-86138926D01*
X109177581Y-86159750D01*
X109170349Y-86179962D01*
X109161170Y-86199368D01*
X109150134Y-86217781D01*
X109137346Y-86235024D01*
X109122930Y-86250930D01*
X109107024Y-86265346D01*
X109089781Y-86278134D01*
X109071368Y-86289170D01*
X109051962Y-86298349D01*
X109031750Y-86305581D01*
X109010926Y-86310797D01*
X108989691Y-86313947D01*
X108968250Y-86315000D01*
X108455750Y-86315000D01*
X108434309Y-86313947D01*
X108413074Y-86310797D01*
X108392250Y-86305581D01*
X108372038Y-86298349D01*
X108352632Y-86289170D01*
X108334219Y-86278134D01*
X108316976Y-86265346D01*
X108301070Y-86250930D01*
X108286654Y-86235024D01*
X108273866Y-86217781D01*
X108262830Y-86199368D01*
X108253651Y-86179962D01*
X108246419Y-86159750D01*
X108241203Y-86138926D01*
X108238053Y-86117691D01*
X108237000Y-86096250D01*
X108237000Y-85658750D01*
X108238053Y-85637309D01*
X108241203Y-85616074D01*
X108246419Y-85595250D01*
X108253651Y-85575038D01*
X108262830Y-85555632D01*
X108273866Y-85537219D01*
X108286654Y-85519976D01*
X108301070Y-85504070D01*
X108316976Y-85489654D01*
X108334219Y-85476866D01*
X108352632Y-85465830D01*
X108372038Y-85456651D01*
X108392250Y-85449419D01*
X108413074Y-85444203D01*
X108434309Y-85441053D01*
X108455750Y-85440000D01*
X108968250Y-85440000D01*
X108989691Y-85441053D01*
X108989691Y-85441053D01*
G37*
D13*
X108712000Y-85877500D03*
D11*
G36*
X108989691Y-83866053D02*
X109010926Y-83869203D01*
X109031750Y-83874419D01*
X109051962Y-83881651D01*
X109071368Y-83890830D01*
X109089781Y-83901866D01*
X109107024Y-83914654D01*
X109122930Y-83929070D01*
X109137346Y-83944976D01*
X109150134Y-83962219D01*
X109161170Y-83980632D01*
X109170349Y-84000038D01*
X109177581Y-84020250D01*
X109182797Y-84041074D01*
X109185947Y-84062309D01*
X109187000Y-84083750D01*
X109187000Y-84521250D01*
X109185947Y-84542691D01*
X109182797Y-84563926D01*
X109177581Y-84584750D01*
X109170349Y-84604962D01*
X109161170Y-84624368D01*
X109150134Y-84642781D01*
X109137346Y-84660024D01*
X109122930Y-84675930D01*
X109107024Y-84690346D01*
X109089781Y-84703134D01*
X109071368Y-84714170D01*
X109051962Y-84723349D01*
X109031750Y-84730581D01*
X109010926Y-84735797D01*
X108989691Y-84738947D01*
X108968250Y-84740000D01*
X108455750Y-84740000D01*
X108434309Y-84738947D01*
X108413074Y-84735797D01*
X108392250Y-84730581D01*
X108372038Y-84723349D01*
X108352632Y-84714170D01*
X108334219Y-84703134D01*
X108316976Y-84690346D01*
X108301070Y-84675930D01*
X108286654Y-84660024D01*
X108273866Y-84642781D01*
X108262830Y-84624368D01*
X108253651Y-84604962D01*
X108246419Y-84584750D01*
X108241203Y-84563926D01*
X108238053Y-84542691D01*
X108237000Y-84521250D01*
X108237000Y-84083750D01*
X108238053Y-84062309D01*
X108241203Y-84041074D01*
X108246419Y-84020250D01*
X108253651Y-84000038D01*
X108262830Y-83980632D01*
X108273866Y-83962219D01*
X108286654Y-83944976D01*
X108301070Y-83929070D01*
X108316976Y-83914654D01*
X108334219Y-83901866D01*
X108352632Y-83890830D01*
X108372038Y-83881651D01*
X108392250Y-83874419D01*
X108413074Y-83869203D01*
X108434309Y-83866053D01*
X108455750Y-83865000D01*
X108968250Y-83865000D01*
X108989691Y-83866053D01*
X108989691Y-83866053D01*
G37*
D13*
X108712000Y-84302500D03*
G04 #@! TD*
D11*
G04 #@! TO.C,R3*
G36*
X190142691Y-107996053D02*
X190163926Y-107999203D01*
X190184750Y-108004419D01*
X190204962Y-108011651D01*
X190224368Y-108020830D01*
X190242781Y-108031866D01*
X190260024Y-108044654D01*
X190275930Y-108059070D01*
X190290346Y-108074976D01*
X190303134Y-108092219D01*
X190314170Y-108110632D01*
X190323349Y-108130038D01*
X190330581Y-108150250D01*
X190335797Y-108171074D01*
X190338947Y-108192309D01*
X190340000Y-108213750D01*
X190340000Y-108651250D01*
X190338947Y-108672691D01*
X190335797Y-108693926D01*
X190330581Y-108714750D01*
X190323349Y-108734962D01*
X190314170Y-108754368D01*
X190303134Y-108772781D01*
X190290346Y-108790024D01*
X190275930Y-108805930D01*
X190260024Y-108820346D01*
X190242781Y-108833134D01*
X190224368Y-108844170D01*
X190204962Y-108853349D01*
X190184750Y-108860581D01*
X190163926Y-108865797D01*
X190142691Y-108868947D01*
X190121250Y-108870000D01*
X189608750Y-108870000D01*
X189587309Y-108868947D01*
X189566074Y-108865797D01*
X189545250Y-108860581D01*
X189525038Y-108853349D01*
X189505632Y-108844170D01*
X189487219Y-108833134D01*
X189469976Y-108820346D01*
X189454070Y-108805930D01*
X189439654Y-108790024D01*
X189426866Y-108772781D01*
X189415830Y-108754368D01*
X189406651Y-108734962D01*
X189399419Y-108714750D01*
X189394203Y-108693926D01*
X189391053Y-108672691D01*
X189390000Y-108651250D01*
X189390000Y-108213750D01*
X189391053Y-108192309D01*
X189394203Y-108171074D01*
X189399419Y-108150250D01*
X189406651Y-108130038D01*
X189415830Y-108110632D01*
X189426866Y-108092219D01*
X189439654Y-108074976D01*
X189454070Y-108059070D01*
X189469976Y-108044654D01*
X189487219Y-108031866D01*
X189505632Y-108020830D01*
X189525038Y-108011651D01*
X189545250Y-108004419D01*
X189566074Y-107999203D01*
X189587309Y-107996053D01*
X189608750Y-107995000D01*
X190121250Y-107995000D01*
X190142691Y-107996053D01*
X190142691Y-107996053D01*
G37*
D13*
X189865000Y-108432500D03*
D11*
G36*
X190142691Y-109571053D02*
X190163926Y-109574203D01*
X190184750Y-109579419D01*
X190204962Y-109586651D01*
X190224368Y-109595830D01*
X190242781Y-109606866D01*
X190260024Y-109619654D01*
X190275930Y-109634070D01*
X190290346Y-109649976D01*
X190303134Y-109667219D01*
X190314170Y-109685632D01*
X190323349Y-109705038D01*
X190330581Y-109725250D01*
X190335797Y-109746074D01*
X190338947Y-109767309D01*
X190340000Y-109788750D01*
X190340000Y-110226250D01*
X190338947Y-110247691D01*
X190335797Y-110268926D01*
X190330581Y-110289750D01*
X190323349Y-110309962D01*
X190314170Y-110329368D01*
X190303134Y-110347781D01*
X190290346Y-110365024D01*
X190275930Y-110380930D01*
X190260024Y-110395346D01*
X190242781Y-110408134D01*
X190224368Y-110419170D01*
X190204962Y-110428349D01*
X190184750Y-110435581D01*
X190163926Y-110440797D01*
X190142691Y-110443947D01*
X190121250Y-110445000D01*
X189608750Y-110445000D01*
X189587309Y-110443947D01*
X189566074Y-110440797D01*
X189545250Y-110435581D01*
X189525038Y-110428349D01*
X189505632Y-110419170D01*
X189487219Y-110408134D01*
X189469976Y-110395346D01*
X189454070Y-110380930D01*
X189439654Y-110365024D01*
X189426866Y-110347781D01*
X189415830Y-110329368D01*
X189406651Y-110309962D01*
X189399419Y-110289750D01*
X189394203Y-110268926D01*
X189391053Y-110247691D01*
X189390000Y-110226250D01*
X189390000Y-109788750D01*
X189391053Y-109767309D01*
X189394203Y-109746074D01*
X189399419Y-109725250D01*
X189406651Y-109705038D01*
X189415830Y-109685632D01*
X189426866Y-109667219D01*
X189439654Y-109649976D01*
X189454070Y-109634070D01*
X189469976Y-109619654D01*
X189487219Y-109606866D01*
X189505632Y-109595830D01*
X189525038Y-109586651D01*
X189545250Y-109579419D01*
X189566074Y-109574203D01*
X189587309Y-109571053D01*
X189608750Y-109570000D01*
X190121250Y-109570000D01*
X190142691Y-109571053D01*
X190142691Y-109571053D01*
G37*
D13*
X189865000Y-110007500D03*
G04 #@! TD*
D14*
G04 #@! TO.C,D5*
X127508000Y-94320000D03*
X127508000Y-98720000D03*
G04 #@! TD*
G04 #@! TO.C,D6*
X127508000Y-101940000D03*
X127508000Y-106340000D03*
G04 #@! TD*
D15*
G04 #@! TO.C,D2*
X112580000Y-106680000D03*
X113480000Y-106680000D03*
G04 #@! TD*
G04 #@! TO.C,D1*
X113480000Y-93980000D03*
X112580000Y-93980000D03*
G04 #@! TD*
D10*
G04 #@! TO.C,FD5*
X104140000Y-119380000D03*
G04 #@! TD*
M02*
