M48
;DRILL file {KiCad 5.0.2-bee76a0~70~ubuntu18.04.1} date Fri 21 Jun 2019 09:23:58 AM PDT
;FORMAT={-:-/ absolute / inch / decimal}
FMAT,2
INCH,TZ
T1C0.0157
T2C0.0197
T3C0.0315
T4C0.0394
T5C0.0433
T6C0.0591
T7C0.0669
T8C0.0701
T9C0.1063
%
G90
G05
T1
X4.28Y-3.3
X5.79Y-3.7
X5.815Y-3.67
X5.815Y-3.73
X6.3841Y-3.6891
X6.3841Y-3.7891
X6.385Y-3.89
X6.385Y-3.99
X6.385Y-4.09
X6.385Y-4.19
X6.435Y-3.84
X6.435Y-4.04
X6.485Y-3.79
X6.485Y-4.09
X6.535Y-3.84
X6.535Y-4.04
X6.5841Y-3.6891
X6.585Y-3.79
X6.585Y-3.89
X6.585Y-3.99
X6.585Y-4.09
X6.585Y-4.195
X6.685Y-3.745
X6.685Y-3.865
X6.685Y-4.015
X6.685Y-4.14
X6.835Y-3.745
X6.835Y-3.94
X6.835Y-4.14
X6.985Y-3.745
X6.985Y-3.9391
X6.985Y-4.14
X7.475Y-4.245
T2
X7.5403Y-4.885
X7.5636Y-4.8286
X7.5636Y-4.9414
X7.62Y-4.8053
X7.62Y-4.9647
X7.6764Y-4.8286
X7.6764Y-4.9414
X7.6997Y-4.885
X7.5403Y-2.99
X7.5636Y-2.9336
X7.5636Y-3.0464
X7.62Y-2.9103
X7.62Y-3.0697
X7.6764Y-2.9336
X7.6764Y-3.0464
X7.6997Y-2.99
X4.0553Y-2.99
X4.0786Y-2.9336
X4.0786Y-3.0464
X4.135Y-2.9103
X4.135Y-3.0697
X4.1914Y-2.9336
X4.1914Y-3.0464
X4.2147Y-2.99
X4.0553Y-4.885
X4.0786Y-4.8286
X4.0786Y-4.9414
X4.135Y-4.8053
X4.135Y-4.9647
X4.1914Y-4.8286
X4.1914Y-4.9414
X4.2147Y-4.885
T3
X4.8Y-4.0516
X4.8Y-4.15
X4.8Y-3.75
X4.8Y-3.8484
X7.305Y-3.8
X7.405Y-3.8
T4
X7.655Y-4.1
X7.655Y-3.7
X4.1Y-3.55
X4.1Y-4.05
X7.65Y-4.5
X7.66Y-3.5
X4.1Y-3.35
X4.1Y-4.55
X4.1Y-3.85
X4.1Y-4.35
X7.655Y-3.9
X7.65Y-4.3
T5
X7.1591Y-3.8391
X7.1591Y-3.9391
X7.1591Y-4.0391
T6
X4.35Y-3.8
X4.55Y-3.8
X4.35Y-4.1
X4.55Y-4.1
T7
X4.565Y-3.425
X4.94Y-3.425
X5.315Y-3.425
X5.6902Y-3.425
X6.065Y-3.425
X6.44Y-3.425
X6.8152Y-3.425
X7.19Y-3.425
X4.565Y-4.45
X4.9398Y-4.45
X5.315Y-4.45
X5.69Y-4.45
X6.0648Y-4.45
X6.44Y-4.45
X6.815Y-4.45
X7.19Y-4.45
T8
X5.185Y-3.95
X5.45Y-3.95
X5.885Y-3.95
X6.15Y-3.95
T9
X7.62Y-4.885
X7.62Y-2.99
X4.135Y-2.99
X4.135Y-4.885
T0
M30
