M48
;DRILL file {KiCad 5.0.2-bee76a0~70~ubuntu18.04.1} date Wed 19 Jun 2019 11:09:42 PM PDT
;FORMAT={-:-/ absolute / inch / decimal}
FMAT,2
INCH,TZ
T1C0.0157
T2C0.0197
T3C0.0299
T4C0.0300
T5C0.0315
T6C0.0394
T7C0.0591
T8C0.1063
%
G90
G05
T1
X3.98Y-3.19
X4.025Y-3.35
X4.046Y-2.837
X4.0497Y-3.5037
X4.055Y-3.28
X4.0619Y-2.7972
X4.0701Y-2.9841
X4.075Y-2.74
X4.085Y-3.325
X4.09Y-3.02
X4.115Y-3.19
X4.1393Y-3.4363
X4.145Y-3.755
X4.16Y-2.74
X4.1618Y-3.503
X4.164Y-3.265
X4.1707Y-3.075
X4.185Y-3.1243
X4.19Y-2.835
X4.1977Y-3.0241
X4.2105Y-3.3701
X4.22Y-2.865
X4.2315Y-3.0714
X4.24Y-2.97
X4.245Y-2.89
X4.265Y-3.235
X4.27Y-2.865
X4.3Y-2.835
X4.3093Y-3.2772
X4.3124Y-3.8003
X4.3125Y-3.502
X4.3186Y-2.9614
X4.33Y-2.74
X4.36Y-2.3743
X4.37Y-3.075
X4.38Y-2.955
X4.38Y-2.995
X4.4Y-3.535
X4.4Y-3.765
X4.41Y-3.28
X4.415Y-2.74
X4.415Y-3.35
X4.445Y-2.8
X4.4452Y-2.8365
X4.455Y-3.19
X4.6007Y-2.3207
X5.69Y-3.625
X5.84Y-2.775
X6.18Y-3.19
X6.225Y-3.35
X6.246Y-2.837
X6.2497Y-3.5037
X6.255Y-3.28
X6.2619Y-2.7972
X6.2701Y-2.9841
X6.275Y-2.74
X6.285Y-3.325
X6.2958Y-3.0424
X6.315Y-3.19
X6.3368Y-3.503
X6.339Y-3.7999
X6.345Y-3.425
X6.36Y-2.74
X6.365Y-3.265
X6.3707Y-3.0756
X6.3751Y-3.1167
X6.39Y-2.835
X6.3963Y-3.0278
X6.4029Y-3.3872
X6.41Y-2.975
X6.42Y-2.865
X6.4228Y-3.07
X6.445Y-2.89
X6.4643Y-3.2357
X6.47Y-2.865
X6.4875Y-3.798
X6.4907Y-3.4984
X6.5Y-2.835
X6.5075Y-3.2789
X6.53Y-2.74
X6.54Y-2.945
X6.56Y-2.3743
X6.565Y-3.075
X6.5724Y-2.9921
X6.575Y-3.535
X6.575Y-3.805
X6.5765Y-2.95
X6.61Y-3.28
X6.615Y-2.74
X6.615Y-3.35
X6.645Y-2.8
X6.6452Y-2.8365
X6.655Y-3.19
X6.8007Y-2.3207
T2
X3.6553Y-3.985
X3.6786Y-3.9286
X3.6786Y-4.0414
X3.735Y-3.9053
X3.735Y-4.0647
X3.7914Y-3.9286
X3.7914Y-4.0414
X3.8147Y-3.985
X7.1403Y-2.09
X7.1636Y-2.0336
X7.1636Y-2.1464
X7.22Y-2.0103
X7.22Y-2.1697
X7.2764Y-2.0336
X7.2764Y-2.1464
X7.2997Y-2.09
X7.1403Y-3.985
X7.1636Y-3.9286
X7.1636Y-4.0414
X7.22Y-3.9053
X7.22Y-4.0647
X7.2764Y-3.9286
X7.2764Y-4.0414
X7.2997Y-3.985
X3.6553Y-2.09
X3.6786Y-2.0336
X3.6786Y-2.1464
X3.735Y-2.0103
X3.735Y-2.1697
X3.7914Y-2.0336
X3.7914Y-2.1464
X3.8147Y-2.09
T3
X4.07Y-2.6
X4.12Y-2.5
X4.17Y-2.6
X4.22Y-2.5
X4.27Y-2.6
X4.32Y-2.5
X4.37Y-2.6
X4.42Y-2.5
X6.27Y-2.6
X6.32Y-2.5
X6.37Y-2.6
X6.42Y-2.5
X6.47Y-2.6
X6.52Y-2.5
X6.57Y-2.6
X6.62Y-2.5
T5
X4.55Y-2.9
X4.65Y-2.9
X6.05Y-2.9
X6.15Y-2.9
X3.85Y-2.9
X3.95Y-2.9
X5.387Y-3.0248
X5.45Y-2.9
X5.45Y-2.9984
X5.513Y-2.8736
X4.55Y-2.8
X4.65Y-2.8
X5.15Y-3.4016
X5.15Y-3.5
X6.05Y-2.8
X6.15Y-2.8
X3.85Y-2.8
X3.95Y-2.8
X6.75Y-2.8
X6.85Y-2.8
X6.75Y-2.9
X6.85Y-2.9
T6
X4.3Y-3.9
X4.3Y-4.
X4.4Y-3.9
X4.4Y-4.
X4.5Y-3.9
X4.5Y-4.
X4.6Y-3.9
X4.6Y-4.
X4.7Y-2.15
X4.7Y-2.25
X4.7Y-2.35
X4.7Y-2.45
X4.8Y-2.15
X4.8Y-2.25
X4.8Y-2.35
X4.8Y-2.45
X6.9Y-2.15
X6.9Y-2.25
X6.9Y-2.35
X6.9Y-2.45
X7.Y-2.15
X7.Y-2.25
X7.Y-2.35
X7.Y-2.45
X6.95Y-3.95
X5.1Y-3.95
X7.Y-3.05
X5.95Y-2.3
X7.Y-3.3
X5.85Y-2.95
X4.Y-3.95
X5.1526Y-2.8496
X5.1526Y-2.9496
X5.1526Y-3.0496
X5.1526Y-3.1496
X7.2Y-2.6
X6.35Y-3.9
X6.35Y-4.
X6.45Y-3.9
X6.45Y-4.
X6.55Y-3.9
X6.55Y-4.
X6.65Y-3.9
X6.65Y-4.
X4.8Y-3.3
X5.85Y-3.2
X5.Y-2.3
X4.9Y-3.95
X6.8Y-3.95
X6.2Y-3.8
X5.Y-2.55
X4.75Y-3.95
X6.8Y-3.8
X3.75Y-2.3
X5.95Y-2.55
X5.1Y-3.7
X4.8Y-3.05
X5.8Y-3.95
X7.2Y-2.35
X4.15Y-3.95
X6.2Y-3.95
X6.05Y-3.95
X4.Y-3.8
X5.8Y-3.7
X3.75Y-2.55
X5.7Y-3.45
X4.75Y-3.8
T7
X5.35Y-3.75
X5.35Y-3.95
X5.55Y-3.75
X5.55Y-3.95
T8
X3.735Y-3.985
X7.22Y-2.09
X7.22Y-3.985
X3.735Y-2.09
T4
X3.94Y-2.16G85X3.94Y-2.1
G05
X4.55Y-2.16G85X4.55Y-2.1
G05
X6.14Y-2.16G85X6.14Y-2.1
G05
X6.75Y-2.16G85X6.75Y-2.1
G05
T0
M30
