G04 #@! TF.GenerationSoftware,KiCad,Pcbnew,5.0.2-bee76a0~70~ubuntu18.04.1*
G04 #@! TF.CreationDate,2019-06-19T23:09:45-07:00*
G04 #@! TF.ProjectId,aa-panel-receiver-lvds,61612d70-616e-4656-9c2d-726563656976,rev?*
G04 #@! TF.SameCoordinates,Original*
G04 #@! TF.FileFunction,Legend,Bot*
G04 #@! TF.FilePolarity,Positive*
%FSLAX46Y46*%
G04 Gerber Fmt 4.6, Leading zero omitted, Abs format (unit mm)*
G04 Created by KiCad (PCBNEW 5.0.2-bee76a0~70~ubuntu18.04.1) date Wed 19 Jun 2019 11:09:45 PM PDT*
%MOMM*%
%LPD*%
G01*
G04 APERTURE LIST*
%ADD10C,0.076200*%
G04 APERTURE END LIST*
D10*
X163225238Y-62121142D02*
X163225238Y-62459809D01*
X163346190Y-61927619D02*
X163467142Y-62290476D01*
X163152666Y-62290476D01*
X162959142Y-62459809D02*
X162959142Y-61951809D01*
X162765619Y-61951809D01*
X162717238Y-61976000D01*
X162693047Y-62000190D01*
X162668857Y-62048571D01*
X162668857Y-62121142D01*
X162693047Y-62169523D01*
X162717238Y-62193714D01*
X162765619Y-62217904D01*
X162959142Y-62217904D01*
X165753142Y-61951809D02*
X165995047Y-61951809D01*
X166019238Y-62193714D01*
X165995047Y-62169523D01*
X165946666Y-62145333D01*
X165825714Y-62145333D01*
X165777333Y-62169523D01*
X165753142Y-62193714D01*
X165728952Y-62242095D01*
X165728952Y-62363047D01*
X165753142Y-62411428D01*
X165777333Y-62435619D01*
X165825714Y-62459809D01*
X165946666Y-62459809D01*
X165995047Y-62435619D01*
X166019238Y-62411428D01*
X165511238Y-62459809D02*
X165511238Y-61951809D01*
X165220952Y-62459809D01*
X165220952Y-61951809D01*
X164507333Y-64661142D02*
X164507333Y-64999809D01*
X164628285Y-64467619D02*
X164749238Y-64830476D01*
X164434761Y-64830476D01*
X164241238Y-64999809D02*
X164241238Y-64491809D01*
X163950952Y-64999809D01*
X163950952Y-64491809D01*
X161931047Y-64491809D02*
X162172952Y-64491809D01*
X162197142Y-64733714D01*
X162172952Y-64709523D01*
X162124571Y-64685333D01*
X162003619Y-64685333D01*
X161955238Y-64709523D01*
X161931047Y-64733714D01*
X161906857Y-64782095D01*
X161906857Y-64903047D01*
X161931047Y-64951428D01*
X161955238Y-64975619D01*
X162003619Y-64999809D01*
X162124571Y-64999809D01*
X162172952Y-64975619D01*
X162197142Y-64951428D01*
X161689142Y-64999809D02*
X161689142Y-64491809D01*
X161495619Y-64491809D01*
X161447238Y-64516000D01*
X161423047Y-64540190D01*
X161398857Y-64588571D01*
X161398857Y-64661142D01*
X161423047Y-64709523D01*
X161447238Y-64733714D01*
X161495619Y-64757904D01*
X161689142Y-64757904D01*
X160963428Y-61951809D02*
X160624761Y-61951809D01*
X160842476Y-62459809D01*
X160431238Y-62459809D02*
X160431238Y-61951809D01*
X160140952Y-62459809D01*
X160140952Y-61951809D01*
X159681333Y-64491809D02*
X159342666Y-64491809D01*
X159560380Y-64999809D01*
X159149142Y-64999809D02*
X159149142Y-64491809D01*
X158955619Y-64491809D01*
X158907238Y-64516000D01*
X158883047Y-64540190D01*
X158858857Y-64588571D01*
X158858857Y-64661142D01*
X158883047Y-64709523D01*
X158907238Y-64733714D01*
X158955619Y-64757904D01*
X159149142Y-64757904D01*
X167035238Y-64491809D02*
X167132000Y-64491809D01*
X167180380Y-64516000D01*
X167204571Y-64540190D01*
X167252952Y-64612761D01*
X167277142Y-64709523D01*
X167277142Y-64903047D01*
X167252952Y-64951428D01*
X167228761Y-64975619D01*
X167180380Y-64999809D01*
X167083619Y-64999809D01*
X167035238Y-64975619D01*
X167011047Y-64951428D01*
X166986857Y-64903047D01*
X166986857Y-64782095D01*
X167011047Y-64733714D01*
X167035238Y-64709523D01*
X167083619Y-64685333D01*
X167180380Y-64685333D01*
X167228761Y-64709523D01*
X167252952Y-64733714D01*
X167277142Y-64782095D01*
X166769142Y-64999809D02*
X166769142Y-64491809D01*
X166575619Y-64491809D01*
X166527238Y-64516000D01*
X166503047Y-64540190D01*
X166478857Y-64588571D01*
X166478857Y-64661142D01*
X166503047Y-64709523D01*
X166527238Y-64733714D01*
X166575619Y-64757904D01*
X166769142Y-64757904D01*
X168317333Y-61951809D02*
X168414095Y-61951809D01*
X168462476Y-61976000D01*
X168486666Y-62000190D01*
X168535047Y-62072761D01*
X168559238Y-62169523D01*
X168559238Y-62363047D01*
X168535047Y-62411428D01*
X168510857Y-62435619D01*
X168462476Y-62459809D01*
X168365714Y-62459809D01*
X168317333Y-62435619D01*
X168293142Y-62411428D01*
X168268952Y-62363047D01*
X168268952Y-62242095D01*
X168293142Y-62193714D01*
X168317333Y-62169523D01*
X168365714Y-62145333D01*
X168462476Y-62145333D01*
X168510857Y-62169523D01*
X168535047Y-62193714D01*
X168559238Y-62242095D01*
X168051238Y-62459809D02*
X168051238Y-61951809D01*
X167760952Y-62459809D01*
X167760952Y-61951809D01*
X105083428Y-61951809D02*
X104768952Y-61951809D01*
X104938285Y-62145333D01*
X104865714Y-62145333D01*
X104817333Y-62169523D01*
X104793142Y-62193714D01*
X104768952Y-62242095D01*
X104768952Y-62363047D01*
X104793142Y-62411428D01*
X104817333Y-62435619D01*
X104865714Y-62459809D01*
X105010857Y-62459809D01*
X105059238Y-62435619D01*
X105083428Y-62411428D01*
X104551238Y-62459809D02*
X104551238Y-61951809D01*
X104260952Y-62459809D01*
X104260952Y-61951809D01*
X103801333Y-64491809D02*
X103486857Y-64491809D01*
X103656190Y-64685333D01*
X103583619Y-64685333D01*
X103535238Y-64709523D01*
X103511047Y-64733714D01*
X103486857Y-64782095D01*
X103486857Y-64903047D01*
X103511047Y-64951428D01*
X103535238Y-64975619D01*
X103583619Y-64999809D01*
X103728761Y-64999809D01*
X103777142Y-64975619D01*
X103801333Y-64951428D01*
X103269142Y-64999809D02*
X103269142Y-64491809D01*
X103075619Y-64491809D01*
X103027238Y-64516000D01*
X103003047Y-64540190D01*
X102978857Y-64588571D01*
X102978857Y-64661142D01*
X103003047Y-64709523D01*
X103027238Y-64733714D01*
X103075619Y-64757904D01*
X103269142Y-64757904D01*
X112679238Y-62000190D02*
X112655047Y-61976000D01*
X112606666Y-61951809D01*
X112485714Y-61951809D01*
X112437333Y-61976000D01*
X112413142Y-62000190D01*
X112388952Y-62048571D01*
X112388952Y-62096952D01*
X112413142Y-62169523D01*
X112703428Y-62459809D01*
X112388952Y-62459809D01*
X112171238Y-62459809D02*
X112171238Y-61951809D01*
X111880952Y-62459809D01*
X111880952Y-61951809D01*
X111397142Y-64540190D02*
X111372952Y-64516000D01*
X111324571Y-64491809D01*
X111203619Y-64491809D01*
X111155238Y-64516000D01*
X111131047Y-64540190D01*
X111106857Y-64588571D01*
X111106857Y-64636952D01*
X111131047Y-64709523D01*
X111421333Y-64999809D01*
X111106857Y-64999809D01*
X110889142Y-64999809D02*
X110889142Y-64491809D01*
X110695619Y-64491809D01*
X110647238Y-64516000D01*
X110623047Y-64540190D01*
X110598857Y-64588571D01*
X110598857Y-64661142D01*
X110623047Y-64709523D01*
X110647238Y-64733714D01*
X110695619Y-64757904D01*
X110889142Y-64757904D01*
X109848952Y-62459809D02*
X110139238Y-62459809D01*
X109994095Y-62459809D02*
X109994095Y-61951809D01*
X110042476Y-62024380D01*
X110090857Y-62072761D01*
X110139238Y-62096952D01*
X109631238Y-62459809D02*
X109631238Y-61951809D01*
X109340952Y-62459809D01*
X109340952Y-61951809D01*
X106026857Y-64999809D02*
X106317142Y-64999809D01*
X106172000Y-64999809D02*
X106172000Y-64491809D01*
X106220380Y-64564380D01*
X106268761Y-64612761D01*
X106317142Y-64636952D01*
X105809142Y-64999809D02*
X105809142Y-64491809D01*
X105615619Y-64491809D01*
X105567238Y-64516000D01*
X105543047Y-64540190D01*
X105518857Y-64588571D01*
X105518857Y-64661142D01*
X105543047Y-64709523D01*
X105567238Y-64733714D01*
X105615619Y-64757904D01*
X105809142Y-64757904D01*
X108748285Y-64491809D02*
X108699904Y-64491809D01*
X108651523Y-64516000D01*
X108627333Y-64540190D01*
X108603142Y-64588571D01*
X108578952Y-64685333D01*
X108578952Y-64806285D01*
X108603142Y-64903047D01*
X108627333Y-64951428D01*
X108651523Y-64975619D01*
X108699904Y-64999809D01*
X108748285Y-64999809D01*
X108796666Y-64975619D01*
X108820857Y-64951428D01*
X108845047Y-64903047D01*
X108869238Y-64806285D01*
X108869238Y-64685333D01*
X108845047Y-64588571D01*
X108820857Y-64540190D01*
X108796666Y-64516000D01*
X108748285Y-64491809D01*
X108361238Y-64999809D02*
X108361238Y-64491809D01*
X108070952Y-64999809D01*
X108070952Y-64491809D01*
X107466190Y-61951809D02*
X107417809Y-61951809D01*
X107369428Y-61976000D01*
X107345238Y-62000190D01*
X107321047Y-62048571D01*
X107296857Y-62145333D01*
X107296857Y-62266285D01*
X107321047Y-62363047D01*
X107345238Y-62411428D01*
X107369428Y-62435619D01*
X107417809Y-62459809D01*
X107466190Y-62459809D01*
X107514571Y-62435619D01*
X107538761Y-62411428D01*
X107562952Y-62363047D01*
X107587142Y-62266285D01*
X107587142Y-62145333D01*
X107562952Y-62048571D01*
X107538761Y-62000190D01*
X107514571Y-61976000D01*
X107466190Y-61951809D01*
X107079142Y-62459809D02*
X107079142Y-61951809D01*
X106885619Y-61951809D01*
X106837238Y-61976000D01*
X106813047Y-62000190D01*
X106788857Y-62048571D01*
X106788857Y-62121142D01*
X106813047Y-62169523D01*
X106837238Y-62193714D01*
X106885619Y-62217904D01*
X107079142Y-62217904D01*
M02*
