M48
;DRILL file {KiCad 5.0.2-bee76a0~70~ubuntu18.04.1} date Fri 21 Jun 2019 07:34:49 PM PDT
;FORMAT={-:-/ absolute / inch / decimal}
FMAT,2
INCH,TZ
T1C0.0118
T2C0.0157
T3C0.0197
T4C0.0299
T5C0.0315
T6C0.0394
T7C0.0984
T8C0.1063
%
G90
G05
T1
X5.36Y-2.37
X5.375Y-2.385
X5.385Y-2.425
X5.39Y-2.37
X5.405Y-2.4
X5.43Y-2.375
T2
X3.945Y-2.5
X3.945Y-2.7
X4.295Y-2.65
X4.8Y-3.52
X4.835Y-3.545
X4.925Y-3.52
X4.9261Y-3.555
X4.95Y-3.46
X4.95Y-3.3537
X4.975Y-2.915
X4.985Y-2.85
X5.Y-3.57
X5.0687Y-3.4111
X5.1Y-3.5
X5.13Y-3.2
X5.135Y-3.075
X5.16Y-3.2898
X5.16Y-3.425
X5.16Y-3.675
X5.31Y-3.235
X5.37Y-3.525
X5.375Y-3.205
X5.4Y-3.81
X5.525Y-3.41
X5.56Y-3.15
X5.6Y-3.45
X6.2Y-3.45
X6.36Y-2.495
X6.385Y-2.515
X6.405Y-2.49
X6.76Y-2.495
X6.785Y-2.515
X6.805Y-2.49
T3
X7.1403Y-2.09
X7.1636Y-2.0336
X7.1636Y-2.1464
X7.22Y-2.0103
X7.22Y-2.1697
X7.2764Y-2.0336
X7.2764Y-2.1464
X7.2997Y-2.09
X3.6553Y-2.09
X3.6786Y-2.0336
X3.6786Y-2.1464
X3.735Y-2.0103
X3.735Y-2.1697
X3.7914Y-2.0336
X3.7914Y-2.1464
X3.8147Y-2.09
X7.1403Y-3.985
X7.1636Y-3.9286
X7.1636Y-4.0414
X7.22Y-3.9053
X7.22Y-4.0647
X7.2764Y-3.9286
X7.2764Y-4.0414
X7.2997Y-3.985
X3.6553Y-3.985
X3.6786Y-3.9286
X3.6786Y-4.0414
X3.735Y-3.9053
X3.735Y-4.0647
X3.7914Y-3.9286
X3.7914Y-4.0414
X3.8147Y-3.985
T4
X4.6Y-3.55
X4.6Y-3.65
X4.6Y-3.75
X4.7Y-3.5
X4.7Y-3.6
X4.7Y-3.7
T5
X5.9Y-3.7
X6.2Y-3.7
X5.9Y-3.35
X6.2Y-3.35
X5.9Y-3.2
X6.2Y-3.2
X5.02Y-3.055
X5.02Y-3.1534
X5.887Y-2.4498
X5.95Y-2.325
X5.95Y-2.4234
X6.013Y-2.2986
X5.9Y-3.55
X6.2Y-3.55
T6
X6.9Y-2.2
X6.9Y-2.3
X6.4Y-3.9
X4.Y-2.15
X5.9Y-3.9
X6.3Y-2.2
X6.3Y-2.3
X3.8Y-2.6
X5.65Y-3.9
X4.7Y-2.7
X3.8Y-2.4
X6.5Y-2.2
X6.5Y-2.3
X6.9Y-2.65
X4.2Y-2.15
X4.85Y-2.2
X4.85Y-2.3
X4.85Y-2.4
X4.4Y-2.15
X3.8Y-2.8
X3.8Y-3.2
X3.8Y-3.3
X3.8Y-3.4
X3.8Y-3.5
X5.05Y-2.2
X5.05Y-2.3
X5.05Y-2.4
X3.8Y-3.
X4.7Y-2.9
X3.8Y-3.7
X6.15Y-3.9
X6.7Y-2.2
X6.7Y-2.3
X6.9Y-2.85
X5.25Y-2.3
X5.25Y-2.4
X4.65Y-2.2
X4.65Y-2.3
X4.65Y-2.4
T7
X5.55Y-2.2
X5.55Y-2.5
T8
X7.22Y-2.09
X3.735Y-2.09
X7.22Y-3.985
X3.735Y-3.985
T0
M30
