G04 #@! TF.GenerationSoftware,KiCad,Pcbnew,5.0.2-bee76a0~70~ubuntu18.04.1*
G04 #@! TF.CreationDate,2019-06-21T19:34:52-07:00*
G04 #@! TF.ProjectId,aa-stalk-receiver-lvds,61612d73-7461-46c6-9b2d-726563656976,rev?*
G04 #@! TF.SameCoordinates,Original*
G04 #@! TF.FileFunction,Legend,Top*
G04 #@! TF.FilePolarity,Positive*
%FSLAX46Y46*%
G04 Gerber Fmt 4.6, Leading zero omitted, Abs format (unit mm)*
G04 Created by KiCad (PCBNEW 5.0.2-bee76a0~70~ubuntu18.04.1) date Fri 21 Jun 2019 07:34:52 PM PDT*
%MOMM*%
%LPD*%
G01*
G04 APERTURE LIST*
%ADD10C,0.076200*%
%ADD11C,0.120000*%
%ADD12C,0.150000*%
%ADD13C,0.100000*%
G04 APERTURE END LIST*
D10*
X124369285Y-95456828D02*
X124345095Y-95481019D01*
X124272523Y-95505209D01*
X124224142Y-95505209D01*
X124151571Y-95481019D01*
X124103190Y-95432638D01*
X124079000Y-95384257D01*
X124054809Y-95287495D01*
X124054809Y-95214923D01*
X124079000Y-95118161D01*
X124103190Y-95069780D01*
X124151571Y-95021400D01*
X124224142Y-94997209D01*
X124272523Y-94997209D01*
X124345095Y-95021400D01*
X124369285Y-95045590D01*
X124587000Y-95505209D02*
X124587000Y-94997209D01*
X124877285Y-95505209D01*
X124877285Y-94997209D01*
X125070809Y-94997209D02*
X125385285Y-94997209D01*
X125215952Y-95190733D01*
X125288523Y-95190733D01*
X125336904Y-95214923D01*
X125361095Y-95239114D01*
X125385285Y-95287495D01*
X125385285Y-95408447D01*
X125361095Y-95456828D01*
X125336904Y-95481019D01*
X125288523Y-95505209D01*
X125143380Y-95505209D01*
X125095000Y-95481019D01*
X125070809Y-95456828D01*
X125603000Y-95456828D02*
X125627190Y-95481019D01*
X125603000Y-95505209D01*
X125578809Y-95481019D01*
X125603000Y-95456828D01*
X125603000Y-95505209D01*
X125603000Y-95190733D02*
X125627190Y-95214923D01*
X125603000Y-95239114D01*
X125578809Y-95214923D01*
X125603000Y-95190733D01*
X125603000Y-95239114D01*
X123377476Y-96343409D02*
X123377476Y-95835409D01*
X123571000Y-95835409D01*
X123619380Y-95859600D01*
X123643571Y-95883790D01*
X123667761Y-95932171D01*
X123667761Y-96004742D01*
X123643571Y-96053123D01*
X123619380Y-96077314D01*
X123571000Y-96101504D01*
X123377476Y-96101504D01*
X124151571Y-96343409D02*
X123861285Y-96343409D01*
X124006428Y-96343409D02*
X124006428Y-95835409D01*
X123958047Y-95907980D01*
X123909666Y-95956361D01*
X123861285Y-95980552D01*
X124369285Y-96295028D02*
X124393476Y-96319219D01*
X124369285Y-96343409D01*
X124345095Y-96319219D01*
X124369285Y-96295028D01*
X124369285Y-96343409D01*
X124369285Y-96028933D02*
X124393476Y-96053123D01*
X124369285Y-96077314D01*
X124345095Y-96053123D01*
X124369285Y-96028933D01*
X124369285Y-96077314D01*
X124998238Y-96149885D02*
X125385285Y-96149885D01*
X125191761Y-96343409D02*
X125191761Y-95956361D01*
X125869095Y-95835409D02*
X125627190Y-95835409D01*
X125603000Y-96077314D01*
X125627190Y-96053123D01*
X125675571Y-96028933D01*
X125796523Y-96028933D01*
X125844904Y-96053123D01*
X125869095Y-96077314D01*
X125893285Y-96125695D01*
X125893285Y-96246647D01*
X125869095Y-96295028D01*
X125844904Y-96319219D01*
X125796523Y-96343409D01*
X125675571Y-96343409D01*
X125627190Y-96319219D01*
X125603000Y-96295028D01*
X126038428Y-95835409D02*
X126207761Y-96343409D01*
X126377095Y-95835409D01*
X121901857Y-97181609D02*
X121901857Y-96673609D01*
X122095380Y-96673609D01*
X122143761Y-96697800D01*
X122167952Y-96721990D01*
X122192142Y-96770371D01*
X122192142Y-96842942D01*
X122167952Y-96891323D01*
X122143761Y-96915514D01*
X122095380Y-96939704D01*
X121901857Y-96939704D01*
X122385666Y-96721990D02*
X122409857Y-96697800D01*
X122458238Y-96673609D01*
X122579190Y-96673609D01*
X122627571Y-96697800D01*
X122651761Y-96721990D01*
X122675952Y-96770371D01*
X122675952Y-96818752D01*
X122651761Y-96891323D01*
X122361476Y-97181609D01*
X122675952Y-97181609D01*
X122893666Y-97133228D02*
X122917857Y-97157419D01*
X122893666Y-97181609D01*
X122869476Y-97157419D01*
X122893666Y-97133228D01*
X122893666Y-97181609D01*
X122893666Y-96867133D02*
X122917857Y-96891323D01*
X122893666Y-96915514D01*
X122869476Y-96891323D01*
X122893666Y-96867133D01*
X122893666Y-96915514D01*
X123812904Y-97181609D02*
X123643571Y-96939704D01*
X123522619Y-97181609D02*
X123522619Y-96673609D01*
X123716142Y-96673609D01*
X123764523Y-96697800D01*
X123788714Y-96721990D01*
X123812904Y-96770371D01*
X123812904Y-96842942D01*
X123788714Y-96891323D01*
X123764523Y-96915514D01*
X123716142Y-96939704D01*
X123522619Y-96939704D01*
X123982238Y-96673609D02*
X124320904Y-97181609D01*
X124320904Y-96673609D02*
X123982238Y-97181609D01*
X124393476Y-97229990D02*
X124780523Y-97229990D01*
X124877285Y-97157419D02*
X124949857Y-97181609D01*
X125070809Y-97181609D01*
X125119190Y-97157419D01*
X125143380Y-97133228D01*
X125167571Y-97084847D01*
X125167571Y-97036466D01*
X125143380Y-96988085D01*
X125119190Y-96963895D01*
X125070809Y-96939704D01*
X124974047Y-96915514D01*
X124925666Y-96891323D01*
X124901476Y-96867133D01*
X124877285Y-96818752D01*
X124877285Y-96770371D01*
X124901476Y-96721990D01*
X124925666Y-96697800D01*
X124974047Y-96673609D01*
X125095000Y-96673609D01*
X125167571Y-96697800D01*
X125312714Y-96673609D02*
X125603000Y-96673609D01*
X125457857Y-97181609D02*
X125457857Y-96673609D01*
X125748142Y-97036466D02*
X125990047Y-97036466D01*
X125699761Y-97181609D02*
X125869095Y-96673609D01*
X126038428Y-97181609D01*
X126449666Y-97181609D02*
X126207761Y-97181609D01*
X126207761Y-96673609D01*
X126619000Y-97181609D02*
X126619000Y-96673609D01*
X126909285Y-97181609D02*
X126691571Y-96891323D01*
X126909285Y-96673609D02*
X126619000Y-96963895D01*
X127006047Y-97229990D02*
X127393095Y-97229990D01*
X127514047Y-97181609D02*
X127514047Y-96673609D01*
X127707571Y-96673609D01*
X127755952Y-96697800D01*
X127780142Y-96721990D01*
X127804333Y-96770371D01*
X127804333Y-96842942D01*
X127780142Y-96891323D01*
X127755952Y-96915514D01*
X127707571Y-96939704D01*
X127514047Y-96939704D01*
X121889761Y-98019809D02*
X121889761Y-97511809D01*
X122083285Y-97511809D01*
X122131666Y-97536000D01*
X122155857Y-97560190D01*
X122180047Y-97608571D01*
X122180047Y-97681142D01*
X122155857Y-97729523D01*
X122131666Y-97753714D01*
X122083285Y-97777904D01*
X121889761Y-97777904D01*
X122349380Y-97511809D02*
X122663857Y-97511809D01*
X122494523Y-97705333D01*
X122567095Y-97705333D01*
X122615476Y-97729523D01*
X122639666Y-97753714D01*
X122663857Y-97802095D01*
X122663857Y-97923047D01*
X122639666Y-97971428D01*
X122615476Y-97995619D01*
X122567095Y-98019809D01*
X122421952Y-98019809D01*
X122373571Y-97995619D01*
X122349380Y-97971428D01*
X122881571Y-97971428D02*
X122905761Y-97995619D01*
X122881571Y-98019809D01*
X122857380Y-97995619D01*
X122881571Y-97971428D01*
X122881571Y-98019809D01*
X122881571Y-97705333D02*
X122905761Y-97729523D01*
X122881571Y-97753714D01*
X122857380Y-97729523D01*
X122881571Y-97705333D01*
X122881571Y-97753714D01*
X123800809Y-98019809D02*
X123631476Y-97777904D01*
X123510523Y-98019809D02*
X123510523Y-97511809D01*
X123704047Y-97511809D01*
X123752428Y-97536000D01*
X123776619Y-97560190D01*
X123800809Y-97608571D01*
X123800809Y-97681142D01*
X123776619Y-97729523D01*
X123752428Y-97753714D01*
X123704047Y-97777904D01*
X123510523Y-97777904D01*
X123970142Y-97511809D02*
X124308809Y-98019809D01*
X124308809Y-97511809D02*
X123970142Y-98019809D01*
X124381380Y-98068190D02*
X124768428Y-98068190D01*
X124865190Y-97995619D02*
X124937761Y-98019809D01*
X125058714Y-98019809D01*
X125107095Y-97995619D01*
X125131285Y-97971428D01*
X125155476Y-97923047D01*
X125155476Y-97874666D01*
X125131285Y-97826285D01*
X125107095Y-97802095D01*
X125058714Y-97777904D01*
X124961952Y-97753714D01*
X124913571Y-97729523D01*
X124889380Y-97705333D01*
X124865190Y-97656952D01*
X124865190Y-97608571D01*
X124889380Y-97560190D01*
X124913571Y-97536000D01*
X124961952Y-97511809D01*
X125082904Y-97511809D01*
X125155476Y-97536000D01*
X125300619Y-97511809D02*
X125590904Y-97511809D01*
X125445761Y-98019809D02*
X125445761Y-97511809D01*
X125736047Y-97874666D02*
X125977952Y-97874666D01*
X125687666Y-98019809D02*
X125857000Y-97511809D01*
X126026333Y-98019809D01*
X126437571Y-98019809D02*
X126195666Y-98019809D01*
X126195666Y-97511809D01*
X126606904Y-98019809D02*
X126606904Y-97511809D01*
X126897190Y-98019809D02*
X126679476Y-97729523D01*
X126897190Y-97511809D02*
X126606904Y-97802095D01*
X126993952Y-98068190D02*
X127381000Y-98068190D01*
X127501952Y-98019809D02*
X127501952Y-97511809D01*
X127792238Y-98019809D01*
X127792238Y-97511809D01*
X121950238Y-98858009D02*
X121950238Y-98350009D01*
X122143761Y-98350009D01*
X122192142Y-98374200D01*
X122216333Y-98398390D01*
X122240523Y-98446771D01*
X122240523Y-98519342D01*
X122216333Y-98567723D01*
X122192142Y-98591914D01*
X122143761Y-98616104D01*
X121950238Y-98616104D01*
X122675952Y-98519342D02*
X122675952Y-98858009D01*
X122555000Y-98325819D02*
X122434047Y-98688676D01*
X122748523Y-98688676D01*
X122942047Y-98809628D02*
X122966238Y-98833819D01*
X122942047Y-98858009D01*
X122917857Y-98833819D01*
X122942047Y-98809628D01*
X122942047Y-98858009D01*
X122942047Y-98543533D02*
X122966238Y-98567723D01*
X122942047Y-98591914D01*
X122917857Y-98567723D01*
X122942047Y-98543533D01*
X122942047Y-98591914D01*
X123571000Y-98858009D02*
X123571000Y-98350009D01*
X123764523Y-98350009D01*
X123812904Y-98374200D01*
X123837095Y-98398390D01*
X123861285Y-98446771D01*
X123861285Y-98519342D01*
X123837095Y-98567723D01*
X123812904Y-98591914D01*
X123764523Y-98616104D01*
X123571000Y-98616104D01*
X124030619Y-98350009D02*
X124151571Y-98858009D01*
X124248333Y-98495152D01*
X124345095Y-98858009D01*
X124466047Y-98350009D01*
X124659571Y-98858009D02*
X124659571Y-98350009D01*
X124828904Y-98712866D01*
X124998238Y-98350009D01*
X124998238Y-98858009D01*
X125119190Y-98906390D02*
X125506238Y-98906390D01*
X125917476Y-98809628D02*
X125893285Y-98833819D01*
X125820714Y-98858009D01*
X125772333Y-98858009D01*
X125699761Y-98833819D01*
X125651380Y-98785438D01*
X125627190Y-98737057D01*
X125603000Y-98640295D01*
X125603000Y-98567723D01*
X125627190Y-98470961D01*
X125651380Y-98422580D01*
X125699761Y-98374200D01*
X125772333Y-98350009D01*
X125820714Y-98350009D01*
X125893285Y-98374200D01*
X125917476Y-98398390D01*
X126111000Y-98712866D02*
X126352904Y-98712866D01*
X126062619Y-98858009D02*
X126231952Y-98350009D01*
X126401285Y-98858009D01*
X126570619Y-98858009D02*
X126570619Y-98350009D01*
X126764142Y-98350009D01*
X126812523Y-98374200D01*
X126836714Y-98398390D01*
X126860904Y-98446771D01*
X126860904Y-98519342D01*
X126836714Y-98567723D01*
X126812523Y-98591914D01*
X126764142Y-98616104D01*
X126570619Y-98616104D01*
X126957666Y-98906390D02*
X127344714Y-98906390D01*
X127465666Y-98858009D02*
X127465666Y-98350009D01*
X127659190Y-98350009D01*
X127707571Y-98374200D01*
X127731761Y-98398390D01*
X127755952Y-98446771D01*
X127755952Y-98519342D01*
X127731761Y-98567723D01*
X127707571Y-98591914D01*
X127659190Y-98616104D01*
X127465666Y-98616104D01*
X121938142Y-99696209D02*
X121938142Y-99188209D01*
X122131666Y-99188209D01*
X122180047Y-99212400D01*
X122204238Y-99236590D01*
X122228428Y-99284971D01*
X122228428Y-99357542D01*
X122204238Y-99405923D01*
X122180047Y-99430114D01*
X122131666Y-99454304D01*
X121938142Y-99454304D01*
X122688047Y-99188209D02*
X122446142Y-99188209D01*
X122421952Y-99430114D01*
X122446142Y-99405923D01*
X122494523Y-99381733D01*
X122615476Y-99381733D01*
X122663857Y-99405923D01*
X122688047Y-99430114D01*
X122712238Y-99478495D01*
X122712238Y-99599447D01*
X122688047Y-99647828D01*
X122663857Y-99672019D01*
X122615476Y-99696209D01*
X122494523Y-99696209D01*
X122446142Y-99672019D01*
X122421952Y-99647828D01*
X122929952Y-99647828D02*
X122954142Y-99672019D01*
X122929952Y-99696209D01*
X122905761Y-99672019D01*
X122929952Y-99647828D01*
X122929952Y-99696209D01*
X122929952Y-99381733D02*
X122954142Y-99405923D01*
X122929952Y-99430114D01*
X122905761Y-99405923D01*
X122929952Y-99381733D01*
X122929952Y-99430114D01*
X123558904Y-99696209D02*
X123558904Y-99188209D01*
X123752428Y-99188209D01*
X123800809Y-99212400D01*
X123825000Y-99236590D01*
X123849190Y-99284971D01*
X123849190Y-99357542D01*
X123825000Y-99405923D01*
X123800809Y-99430114D01*
X123752428Y-99454304D01*
X123558904Y-99454304D01*
X124018523Y-99188209D02*
X124139476Y-99696209D01*
X124236238Y-99333352D01*
X124333000Y-99696209D01*
X124453952Y-99188209D01*
X124647476Y-99696209D02*
X124647476Y-99188209D01*
X124816809Y-99551066D01*
X124986142Y-99188209D01*
X124986142Y-99696209D01*
X125107095Y-99744590D02*
X125494142Y-99744590D01*
X125905380Y-99647828D02*
X125881190Y-99672019D01*
X125808619Y-99696209D01*
X125760238Y-99696209D01*
X125687666Y-99672019D01*
X125639285Y-99623638D01*
X125615095Y-99575257D01*
X125590904Y-99478495D01*
X125590904Y-99405923D01*
X125615095Y-99309161D01*
X125639285Y-99260780D01*
X125687666Y-99212400D01*
X125760238Y-99188209D01*
X125808619Y-99188209D01*
X125881190Y-99212400D01*
X125905380Y-99236590D01*
X126098904Y-99551066D02*
X126340809Y-99551066D01*
X126050523Y-99696209D02*
X126219857Y-99188209D01*
X126389190Y-99696209D01*
X126558523Y-99696209D02*
X126558523Y-99188209D01*
X126752047Y-99188209D01*
X126800428Y-99212400D01*
X126824619Y-99236590D01*
X126848809Y-99284971D01*
X126848809Y-99357542D01*
X126824619Y-99405923D01*
X126800428Y-99430114D01*
X126752047Y-99454304D01*
X126558523Y-99454304D01*
X126945571Y-99744590D02*
X127332619Y-99744590D01*
X127453571Y-99696209D02*
X127453571Y-99188209D01*
X127743857Y-99696209D01*
X127743857Y-99188209D01*
X123377476Y-100534409D02*
X123377476Y-100026409D01*
X123571000Y-100026409D01*
X123619380Y-100050600D01*
X123643571Y-100074790D01*
X123667761Y-100123171D01*
X123667761Y-100195742D01*
X123643571Y-100244123D01*
X123619380Y-100268314D01*
X123571000Y-100292504D01*
X123377476Y-100292504D01*
X124103190Y-100026409D02*
X124006428Y-100026409D01*
X123958047Y-100050600D01*
X123933857Y-100074790D01*
X123885476Y-100147361D01*
X123861285Y-100244123D01*
X123861285Y-100437647D01*
X123885476Y-100486028D01*
X123909666Y-100510219D01*
X123958047Y-100534409D01*
X124054809Y-100534409D01*
X124103190Y-100510219D01*
X124127380Y-100486028D01*
X124151571Y-100437647D01*
X124151571Y-100316695D01*
X124127380Y-100268314D01*
X124103190Y-100244123D01*
X124054809Y-100219933D01*
X123958047Y-100219933D01*
X123909666Y-100244123D01*
X123885476Y-100268314D01*
X123861285Y-100316695D01*
X124369285Y-100486028D02*
X124393476Y-100510219D01*
X124369285Y-100534409D01*
X124345095Y-100510219D01*
X124369285Y-100486028D01*
X124369285Y-100534409D01*
X124369285Y-100219933D02*
X124393476Y-100244123D01*
X124369285Y-100268314D01*
X124345095Y-100244123D01*
X124369285Y-100219933D01*
X124369285Y-100268314D01*
X125264333Y-100050600D02*
X125215952Y-100026409D01*
X125143380Y-100026409D01*
X125070809Y-100050600D01*
X125022428Y-100098980D01*
X124998238Y-100147361D01*
X124974047Y-100244123D01*
X124974047Y-100316695D01*
X124998238Y-100413457D01*
X125022428Y-100461838D01*
X125070809Y-100510219D01*
X125143380Y-100534409D01*
X125191761Y-100534409D01*
X125264333Y-100510219D01*
X125288523Y-100486028D01*
X125288523Y-100316695D01*
X125191761Y-100316695D01*
X125506238Y-100534409D02*
X125506238Y-100026409D01*
X125796523Y-100534409D01*
X125796523Y-100026409D01*
X126038428Y-100534409D02*
X126038428Y-100026409D01*
X126159380Y-100026409D01*
X126231952Y-100050600D01*
X126280333Y-100098980D01*
X126304523Y-100147361D01*
X126328714Y-100244123D01*
X126328714Y-100316695D01*
X126304523Y-100413457D01*
X126280333Y-100461838D01*
X126231952Y-100510219D01*
X126159380Y-100534409D01*
X126038428Y-100534409D01*
X169968333Y-85040409D02*
X169799000Y-84798504D01*
X169678047Y-85040409D02*
X169678047Y-84532409D01*
X169871571Y-84532409D01*
X169919952Y-84556600D01*
X169944142Y-84580790D01*
X169968333Y-84629171D01*
X169968333Y-84701742D01*
X169944142Y-84750123D01*
X169919952Y-84774314D01*
X169871571Y-84798504D01*
X169678047Y-84798504D01*
X170161857Y-84580790D02*
X170186047Y-84556600D01*
X170234428Y-84532409D01*
X170355380Y-84532409D01*
X170403761Y-84556600D01*
X170427952Y-84580790D01*
X170452142Y-84629171D01*
X170452142Y-84677552D01*
X170427952Y-84750123D01*
X170137666Y-85040409D01*
X170452142Y-85040409D01*
X170766619Y-84532409D02*
X170815000Y-84532409D01*
X170863380Y-84556600D01*
X170887571Y-84580790D01*
X170911761Y-84629171D01*
X170935952Y-84725933D01*
X170935952Y-84846885D01*
X170911761Y-84943647D01*
X170887571Y-84992028D01*
X170863380Y-85016219D01*
X170815000Y-85040409D01*
X170766619Y-85040409D01*
X170718238Y-85016219D01*
X170694047Y-84992028D01*
X170669857Y-84943647D01*
X170645666Y-84846885D01*
X170645666Y-84725933D01*
X170669857Y-84629171D01*
X170694047Y-84580790D01*
X170718238Y-84556600D01*
X170766619Y-84532409D01*
X171419761Y-85040409D02*
X171129476Y-85040409D01*
X171274619Y-85040409D02*
X171274619Y-84532409D01*
X171226238Y-84604980D01*
X171177857Y-84653361D01*
X171129476Y-84677552D01*
X171637476Y-84846885D02*
X172024523Y-84846885D01*
X172242238Y-84580790D02*
X172266428Y-84556600D01*
X172314809Y-84532409D01*
X172435761Y-84532409D01*
X172484142Y-84556600D01*
X172508333Y-84580790D01*
X172532523Y-84629171D01*
X172532523Y-84677552D01*
X172508333Y-84750123D01*
X172218047Y-85040409D01*
X172532523Y-85040409D01*
X172847000Y-84532409D02*
X172895380Y-84532409D01*
X172943761Y-84556600D01*
X172967952Y-84580790D01*
X172992142Y-84629171D01*
X173016333Y-84725933D01*
X173016333Y-84846885D01*
X172992142Y-84943647D01*
X172967952Y-84992028D01*
X172943761Y-85016219D01*
X172895380Y-85040409D01*
X172847000Y-85040409D01*
X172798619Y-85016219D01*
X172774428Y-84992028D01*
X172750238Y-84943647D01*
X172726047Y-84846885D01*
X172726047Y-84725933D01*
X172750238Y-84629171D01*
X172774428Y-84580790D01*
X172798619Y-84556600D01*
X172847000Y-84532409D01*
X173451761Y-84701742D02*
X173451761Y-85040409D01*
X173330809Y-84508219D02*
X173209857Y-84871076D01*
X173524333Y-84871076D01*
X169145857Y-85370609D02*
X169242619Y-85370609D01*
X169291000Y-85394800D01*
X169339380Y-85443180D01*
X169363571Y-85539942D01*
X169363571Y-85709276D01*
X169339380Y-85806038D01*
X169291000Y-85854419D01*
X169242619Y-85878609D01*
X169145857Y-85878609D01*
X169097476Y-85854419D01*
X169049095Y-85806038D01*
X169024904Y-85709276D01*
X169024904Y-85539942D01*
X169049095Y-85443180D01*
X169097476Y-85394800D01*
X169145857Y-85370609D01*
X169581285Y-85878609D02*
X169581285Y-85370609D01*
X169774809Y-85370609D01*
X169823190Y-85394800D01*
X169847380Y-85418990D01*
X169871571Y-85467371D01*
X169871571Y-85539942D01*
X169847380Y-85588323D01*
X169823190Y-85612514D01*
X169774809Y-85636704D01*
X169581285Y-85636704D01*
X170016714Y-85370609D02*
X170307000Y-85370609D01*
X170161857Y-85878609D02*
X170161857Y-85370609D01*
X171129476Y-85878609D02*
X170839190Y-85878609D01*
X170984333Y-85878609D02*
X170984333Y-85370609D01*
X170935952Y-85443180D01*
X170887571Y-85491561D01*
X170839190Y-85515752D01*
X171613285Y-85878609D02*
X171323000Y-85878609D01*
X171468142Y-85878609D02*
X171468142Y-85370609D01*
X171419761Y-85443180D01*
X171371380Y-85491561D01*
X171323000Y-85515752D01*
X171806809Y-85418990D02*
X171831000Y-85394800D01*
X171879380Y-85370609D01*
X172000333Y-85370609D01*
X172048714Y-85394800D01*
X172072904Y-85418990D01*
X172097095Y-85467371D01*
X172097095Y-85515752D01*
X172072904Y-85588323D01*
X171782619Y-85878609D01*
X172097095Y-85878609D01*
X172798619Y-85370609D02*
X172895380Y-85370609D01*
X172943761Y-85394800D01*
X172992142Y-85443180D01*
X173016333Y-85539942D01*
X173016333Y-85709276D01*
X172992142Y-85806038D01*
X172943761Y-85854419D01*
X172895380Y-85878609D01*
X172798619Y-85878609D01*
X172750238Y-85854419D01*
X172701857Y-85806038D01*
X172677666Y-85709276D01*
X172677666Y-85539942D01*
X172701857Y-85443180D01*
X172750238Y-85394800D01*
X172798619Y-85370609D01*
X173234047Y-85878609D02*
X173234047Y-85370609D01*
X173234047Y-85612514D02*
X173524333Y-85612514D01*
X173524333Y-85878609D02*
X173524333Y-85370609D01*
X173766238Y-85878609D02*
X173766238Y-85370609D01*
X173935571Y-85733466D01*
X174104904Y-85370609D01*
X174104904Y-85878609D01*
X169206333Y-86208809D02*
X169496619Y-86208809D01*
X169351476Y-86716809D02*
X169351476Y-86208809D01*
X169665952Y-86450714D02*
X169835285Y-86450714D01*
X169907857Y-86716809D02*
X169665952Y-86716809D01*
X169665952Y-86208809D01*
X169907857Y-86208809D01*
X170415857Y-86716809D02*
X170246523Y-86474904D01*
X170125571Y-86716809D02*
X170125571Y-86208809D01*
X170319095Y-86208809D01*
X170367476Y-86233000D01*
X170391666Y-86257190D01*
X170415857Y-86305571D01*
X170415857Y-86378142D01*
X170391666Y-86426523D01*
X170367476Y-86450714D01*
X170319095Y-86474904D01*
X170125571Y-86474904D01*
X170633571Y-86716809D02*
X170633571Y-86208809D01*
X170802904Y-86571666D01*
X170972238Y-86208809D01*
X170972238Y-86716809D01*
X171214142Y-86716809D02*
X171214142Y-86208809D01*
X171456047Y-86716809D02*
X171456047Y-86208809D01*
X171746333Y-86716809D01*
X171746333Y-86208809D01*
X171964047Y-86571666D02*
X172205952Y-86571666D01*
X171915666Y-86716809D02*
X172085000Y-86208809D01*
X172254333Y-86716809D01*
X172351095Y-86208809D02*
X172641380Y-86208809D01*
X172496238Y-86716809D02*
X172496238Y-86208809D01*
X172810714Y-86716809D02*
X172810714Y-86208809D01*
X173149380Y-86208809D02*
X173246142Y-86208809D01*
X173294523Y-86233000D01*
X173342904Y-86281380D01*
X173367095Y-86378142D01*
X173367095Y-86547476D01*
X173342904Y-86644238D01*
X173294523Y-86692619D01*
X173246142Y-86716809D01*
X173149380Y-86716809D01*
X173101000Y-86692619D01*
X173052619Y-86644238D01*
X173028428Y-86547476D01*
X173028428Y-86378142D01*
X173052619Y-86281380D01*
X173101000Y-86233000D01*
X173149380Y-86208809D01*
X173584809Y-86716809D02*
X173584809Y-86208809D01*
X173875095Y-86716809D01*
X173875095Y-86208809D01*
X167343666Y-87555009D02*
X167343666Y-87047009D01*
X167464619Y-87047009D01*
X167537190Y-87071200D01*
X167585571Y-87119580D01*
X167609761Y-87167961D01*
X167633952Y-87264723D01*
X167633952Y-87337295D01*
X167609761Y-87434057D01*
X167585571Y-87482438D01*
X167537190Y-87530819D01*
X167464619Y-87555009D01*
X167343666Y-87555009D01*
X167827476Y-87095390D02*
X167851666Y-87071200D01*
X167900047Y-87047009D01*
X168021000Y-87047009D01*
X168069380Y-87071200D01*
X168093571Y-87095390D01*
X168117761Y-87143771D01*
X168117761Y-87192152D01*
X168093571Y-87264723D01*
X167803285Y-87555009D01*
X168117761Y-87555009D01*
X168432238Y-87047009D02*
X168480619Y-87047009D01*
X168529000Y-87071200D01*
X168553190Y-87095390D01*
X168577380Y-87143771D01*
X168601571Y-87240533D01*
X168601571Y-87361485D01*
X168577380Y-87458247D01*
X168553190Y-87506628D01*
X168529000Y-87530819D01*
X168480619Y-87555009D01*
X168432238Y-87555009D01*
X168383857Y-87530819D01*
X168359666Y-87506628D01*
X168335476Y-87458247D01*
X168311285Y-87361485D01*
X168311285Y-87240533D01*
X168335476Y-87143771D01*
X168359666Y-87095390D01*
X168383857Y-87071200D01*
X168432238Y-87047009D01*
X169085380Y-87555009D02*
X168795095Y-87555009D01*
X168940238Y-87555009D02*
X168940238Y-87047009D01*
X168891857Y-87119580D01*
X168843476Y-87167961D01*
X168795095Y-87192152D01*
X169303095Y-87361485D02*
X169690142Y-87361485D01*
X169907857Y-87095390D02*
X169932047Y-87071200D01*
X169980428Y-87047009D01*
X170101380Y-87047009D01*
X170149761Y-87071200D01*
X170173952Y-87095390D01*
X170198142Y-87143771D01*
X170198142Y-87192152D01*
X170173952Y-87264723D01*
X169883666Y-87555009D01*
X170198142Y-87555009D01*
X170512619Y-87047009D02*
X170561000Y-87047009D01*
X170609380Y-87071200D01*
X170633571Y-87095390D01*
X170657761Y-87143771D01*
X170681952Y-87240533D01*
X170681952Y-87361485D01*
X170657761Y-87458247D01*
X170633571Y-87506628D01*
X170609380Y-87530819D01*
X170561000Y-87555009D01*
X170512619Y-87555009D01*
X170464238Y-87530819D01*
X170440047Y-87506628D01*
X170415857Y-87458247D01*
X170391666Y-87361485D01*
X170391666Y-87240533D01*
X170415857Y-87143771D01*
X170440047Y-87095390D01*
X170464238Y-87071200D01*
X170512619Y-87047009D01*
X171117380Y-87216342D02*
X171117380Y-87555009D01*
X170996428Y-87022819D02*
X170875476Y-87385676D01*
X171189952Y-87385676D01*
X171407666Y-87530819D02*
X171407666Y-87555009D01*
X171383476Y-87603390D01*
X171359285Y-87627580D01*
X172302714Y-87506628D02*
X172278523Y-87530819D01*
X172205952Y-87555009D01*
X172157571Y-87555009D01*
X172085000Y-87530819D01*
X172036619Y-87482438D01*
X172012428Y-87434057D01*
X171988238Y-87337295D01*
X171988238Y-87264723D01*
X172012428Y-87167961D01*
X172036619Y-87119580D01*
X172085000Y-87071200D01*
X172157571Y-87047009D01*
X172205952Y-87047009D01*
X172278523Y-87071200D01*
X172302714Y-87095390D01*
X172496238Y-87095390D02*
X172520428Y-87071200D01*
X172568809Y-87047009D01*
X172689761Y-87047009D01*
X172738142Y-87071200D01*
X172762333Y-87095390D01*
X172786523Y-87143771D01*
X172786523Y-87192152D01*
X172762333Y-87264723D01*
X172472047Y-87555009D01*
X172786523Y-87555009D01*
X173101000Y-87047009D02*
X173149380Y-87047009D01*
X173197761Y-87071200D01*
X173221952Y-87095390D01*
X173246142Y-87143771D01*
X173270333Y-87240533D01*
X173270333Y-87361485D01*
X173246142Y-87458247D01*
X173221952Y-87506628D01*
X173197761Y-87530819D01*
X173149380Y-87555009D01*
X173101000Y-87555009D01*
X173052619Y-87530819D01*
X173028428Y-87506628D01*
X173004238Y-87458247D01*
X172980047Y-87361485D01*
X172980047Y-87240533D01*
X173004238Y-87143771D01*
X173028428Y-87095390D01*
X173052619Y-87071200D01*
X173101000Y-87047009D01*
X173463857Y-87095390D02*
X173488047Y-87071200D01*
X173536428Y-87047009D01*
X173657380Y-87047009D01*
X173705761Y-87071200D01*
X173729952Y-87095390D01*
X173754142Y-87143771D01*
X173754142Y-87192152D01*
X173729952Y-87264723D01*
X173439666Y-87555009D01*
X173754142Y-87555009D01*
X173971857Y-87361485D02*
X174358904Y-87361485D01*
X174576619Y-87095390D02*
X174600809Y-87071200D01*
X174649190Y-87047009D01*
X174770142Y-87047009D01*
X174818523Y-87071200D01*
X174842714Y-87095390D01*
X174866904Y-87143771D01*
X174866904Y-87192152D01*
X174842714Y-87264723D01*
X174552428Y-87555009D01*
X174866904Y-87555009D01*
X175181380Y-87047009D02*
X175229761Y-87047009D01*
X175278142Y-87071200D01*
X175302333Y-87095390D01*
X175326523Y-87143771D01*
X175350714Y-87240533D01*
X175350714Y-87361485D01*
X175326523Y-87458247D01*
X175302333Y-87506628D01*
X175278142Y-87530819D01*
X175229761Y-87555009D01*
X175181380Y-87555009D01*
X175133000Y-87530819D01*
X175108809Y-87506628D01*
X175084619Y-87458247D01*
X175060428Y-87361485D01*
X175060428Y-87240533D01*
X175084619Y-87143771D01*
X175108809Y-87095390D01*
X175133000Y-87071200D01*
X175181380Y-87047009D01*
X175520047Y-87047009D02*
X175834523Y-87047009D01*
X175665190Y-87240533D01*
X175737761Y-87240533D01*
X175786142Y-87264723D01*
X175810333Y-87288914D01*
X175834523Y-87337295D01*
X175834523Y-87458247D01*
X175810333Y-87506628D01*
X175786142Y-87530819D01*
X175737761Y-87555009D01*
X175592619Y-87555009D01*
X175544238Y-87530819D01*
X175520047Y-87506628D01*
X168456428Y-88393209D02*
X168456428Y-87885209D01*
X168698333Y-88393209D02*
X168698333Y-87885209D01*
X168867666Y-88248066D01*
X169037000Y-87885209D01*
X169037000Y-88393209D01*
X169278904Y-88393209D02*
X169278904Y-87885209D01*
X169472428Y-87885209D01*
X169520809Y-87909400D01*
X169545000Y-87933590D01*
X169569190Y-87981971D01*
X169569190Y-88054542D01*
X169545000Y-88102923D01*
X169520809Y-88127114D01*
X169472428Y-88151304D01*
X169278904Y-88151304D01*
X170077190Y-88393209D02*
X169907857Y-88151304D01*
X169786904Y-88393209D02*
X169786904Y-87885209D01*
X169980428Y-87885209D01*
X170028809Y-87909400D01*
X170053000Y-87933590D01*
X170077190Y-87981971D01*
X170077190Y-88054542D01*
X170053000Y-88102923D01*
X170028809Y-88127114D01*
X169980428Y-88151304D01*
X169786904Y-88151304D01*
X170391666Y-87885209D02*
X170488428Y-87885209D01*
X170536809Y-87909400D01*
X170585190Y-87957780D01*
X170609380Y-88054542D01*
X170609380Y-88223876D01*
X170585190Y-88320638D01*
X170536809Y-88369019D01*
X170488428Y-88393209D01*
X170391666Y-88393209D01*
X170343285Y-88369019D01*
X170294904Y-88320638D01*
X170270714Y-88223876D01*
X170270714Y-88054542D01*
X170294904Y-87957780D01*
X170343285Y-87909400D01*
X170391666Y-87885209D01*
X170754523Y-87885209D02*
X170923857Y-88393209D01*
X171093190Y-87885209D01*
X171262523Y-88127114D02*
X171431857Y-88127114D01*
X171504428Y-88393209D02*
X171262523Y-88393209D01*
X171262523Y-87885209D01*
X171504428Y-87885209D01*
X172399476Y-88344828D02*
X172375285Y-88369019D01*
X172302714Y-88393209D01*
X172254333Y-88393209D01*
X172181761Y-88369019D01*
X172133380Y-88320638D01*
X172109190Y-88272257D01*
X172085000Y-88175495D01*
X172085000Y-88102923D01*
X172109190Y-88006161D01*
X172133380Y-87957780D01*
X172181761Y-87909400D01*
X172254333Y-87885209D01*
X172302714Y-87885209D01*
X172375285Y-87909400D01*
X172399476Y-87933590D01*
X172617190Y-88393209D02*
X172617190Y-87885209D01*
X172786523Y-88248066D01*
X172955857Y-87885209D01*
X172955857Y-88393209D01*
X173875095Y-88393209D02*
X173705761Y-88151304D01*
X173584809Y-88393209D02*
X173584809Y-87885209D01*
X173778333Y-87885209D01*
X173826714Y-87909400D01*
X173850904Y-87933590D01*
X173875095Y-87981971D01*
X173875095Y-88054542D01*
X173850904Y-88102923D01*
X173826714Y-88127114D01*
X173778333Y-88151304D01*
X173584809Y-88151304D01*
X174092809Y-88127114D02*
X174262142Y-88127114D01*
X174334714Y-88393209D02*
X174092809Y-88393209D01*
X174092809Y-87885209D01*
X174334714Y-87885209D01*
X174697571Y-87885209D02*
X174697571Y-88248066D01*
X174673380Y-88320638D01*
X174625000Y-88369019D01*
X174552428Y-88393209D01*
X174504047Y-88393209D01*
X102289428Y-78261028D02*
X102265238Y-78285219D01*
X102192666Y-78309409D01*
X102144285Y-78309409D01*
X102071714Y-78285219D01*
X102023333Y-78236838D01*
X101999142Y-78188457D01*
X101974952Y-78091695D01*
X101974952Y-78019123D01*
X101999142Y-77922361D01*
X102023333Y-77873980D01*
X102071714Y-77825600D01*
X102144285Y-77801409D01*
X102192666Y-77801409D01*
X102265238Y-77825600D01*
X102289428Y-77849790D01*
X102507142Y-78309409D02*
X102507142Y-77801409D01*
X102797428Y-78309409D01*
X102797428Y-77801409D01*
X103305428Y-78309409D02*
X103015142Y-78309409D01*
X103160285Y-78309409D02*
X103160285Y-77801409D01*
X103111904Y-77873980D01*
X103063523Y-77922361D01*
X103015142Y-77946552D01*
X103765047Y-77801409D02*
X103523142Y-77801409D01*
X103498952Y-78043314D01*
X103523142Y-78019123D01*
X103571523Y-77994933D01*
X103692476Y-77994933D01*
X103740857Y-78019123D01*
X103765047Y-78043314D01*
X103789238Y-78091695D01*
X103789238Y-78212647D01*
X103765047Y-78261028D01*
X103740857Y-78285219D01*
X103692476Y-78309409D01*
X103571523Y-78309409D01*
X103523142Y-78285219D01*
X103498952Y-78261028D01*
X104273047Y-78309409D02*
X103982761Y-78309409D01*
X104127904Y-78309409D02*
X104127904Y-77801409D01*
X104079523Y-77873980D01*
X104031142Y-77922361D01*
X103982761Y-77946552D01*
X100184857Y-79147609D02*
X100184857Y-78639609D01*
X100378380Y-78639609D01*
X100426761Y-78663800D01*
X100450952Y-78687990D01*
X100475142Y-78736371D01*
X100475142Y-78808942D01*
X100450952Y-78857323D01*
X100426761Y-78881514D01*
X100378380Y-78905704D01*
X100184857Y-78905704D01*
X100958952Y-79147609D02*
X100668666Y-79147609D01*
X100813809Y-79147609D02*
X100813809Y-78639609D01*
X100765428Y-78712180D01*
X100717047Y-78760561D01*
X100668666Y-78784752D01*
X101176666Y-79099228D02*
X101200857Y-79123419D01*
X101176666Y-79147609D01*
X101152476Y-79123419D01*
X101176666Y-79099228D01*
X101176666Y-79147609D01*
X101176666Y-78833133D02*
X101200857Y-78857323D01*
X101176666Y-78881514D01*
X101152476Y-78857323D01*
X101176666Y-78833133D01*
X101176666Y-78881514D01*
X102095904Y-79147609D02*
X101926571Y-78905704D01*
X101805619Y-79147609D02*
X101805619Y-78639609D01*
X101999142Y-78639609D01*
X102047523Y-78663800D01*
X102071714Y-78687990D01*
X102095904Y-78736371D01*
X102095904Y-78808942D01*
X102071714Y-78857323D01*
X102047523Y-78881514D01*
X101999142Y-78905704D01*
X101805619Y-78905704D01*
X102265238Y-78639609D02*
X102603904Y-79147609D01*
X102603904Y-78639609D02*
X102265238Y-79147609D01*
X102676476Y-79195990D02*
X103063523Y-79195990D01*
X103160285Y-79123419D02*
X103232857Y-79147609D01*
X103353809Y-79147609D01*
X103402190Y-79123419D01*
X103426380Y-79099228D01*
X103450571Y-79050847D01*
X103450571Y-79002466D01*
X103426380Y-78954085D01*
X103402190Y-78929895D01*
X103353809Y-78905704D01*
X103257047Y-78881514D01*
X103208666Y-78857323D01*
X103184476Y-78833133D01*
X103160285Y-78784752D01*
X103160285Y-78736371D01*
X103184476Y-78687990D01*
X103208666Y-78663800D01*
X103257047Y-78639609D01*
X103378000Y-78639609D01*
X103450571Y-78663800D01*
X103595714Y-78639609D02*
X103886000Y-78639609D01*
X103740857Y-79147609D02*
X103740857Y-78639609D01*
X104031142Y-79002466D02*
X104273047Y-79002466D01*
X103982761Y-79147609D02*
X104152095Y-78639609D01*
X104321428Y-79147609D01*
X104732666Y-79147609D02*
X104490761Y-79147609D01*
X104490761Y-78639609D01*
X104902000Y-79147609D02*
X104902000Y-78639609D01*
X105192285Y-79147609D02*
X104974571Y-78857323D01*
X105192285Y-78639609D02*
X104902000Y-78929895D01*
X105289047Y-79195990D02*
X105676095Y-79195990D01*
X105797047Y-79147609D02*
X105797047Y-78639609D01*
X105990571Y-78639609D01*
X106038952Y-78663800D01*
X106063142Y-78687990D01*
X106087333Y-78736371D01*
X106087333Y-78808942D01*
X106063142Y-78857323D01*
X106038952Y-78881514D01*
X105990571Y-78905704D01*
X105797047Y-78905704D01*
X100172761Y-79985809D02*
X100172761Y-79477809D01*
X100366285Y-79477809D01*
X100414666Y-79502000D01*
X100438857Y-79526190D01*
X100463047Y-79574571D01*
X100463047Y-79647142D01*
X100438857Y-79695523D01*
X100414666Y-79719714D01*
X100366285Y-79743904D01*
X100172761Y-79743904D01*
X100656571Y-79526190D02*
X100680761Y-79502000D01*
X100729142Y-79477809D01*
X100850095Y-79477809D01*
X100898476Y-79502000D01*
X100922666Y-79526190D01*
X100946857Y-79574571D01*
X100946857Y-79622952D01*
X100922666Y-79695523D01*
X100632380Y-79985809D01*
X100946857Y-79985809D01*
X101164571Y-79937428D02*
X101188761Y-79961619D01*
X101164571Y-79985809D01*
X101140380Y-79961619D01*
X101164571Y-79937428D01*
X101164571Y-79985809D01*
X101164571Y-79671333D02*
X101188761Y-79695523D01*
X101164571Y-79719714D01*
X101140380Y-79695523D01*
X101164571Y-79671333D01*
X101164571Y-79719714D01*
X102083809Y-79985809D02*
X101914476Y-79743904D01*
X101793523Y-79985809D02*
X101793523Y-79477809D01*
X101987047Y-79477809D01*
X102035428Y-79502000D01*
X102059619Y-79526190D01*
X102083809Y-79574571D01*
X102083809Y-79647142D01*
X102059619Y-79695523D01*
X102035428Y-79719714D01*
X101987047Y-79743904D01*
X101793523Y-79743904D01*
X102253142Y-79477809D02*
X102591809Y-79985809D01*
X102591809Y-79477809D02*
X102253142Y-79985809D01*
X102664380Y-80034190D02*
X103051428Y-80034190D01*
X103148190Y-79961619D02*
X103220761Y-79985809D01*
X103341714Y-79985809D01*
X103390095Y-79961619D01*
X103414285Y-79937428D01*
X103438476Y-79889047D01*
X103438476Y-79840666D01*
X103414285Y-79792285D01*
X103390095Y-79768095D01*
X103341714Y-79743904D01*
X103244952Y-79719714D01*
X103196571Y-79695523D01*
X103172380Y-79671333D01*
X103148190Y-79622952D01*
X103148190Y-79574571D01*
X103172380Y-79526190D01*
X103196571Y-79502000D01*
X103244952Y-79477809D01*
X103365904Y-79477809D01*
X103438476Y-79502000D01*
X103583619Y-79477809D02*
X103873904Y-79477809D01*
X103728761Y-79985809D02*
X103728761Y-79477809D01*
X104019047Y-79840666D02*
X104260952Y-79840666D01*
X103970666Y-79985809D02*
X104140000Y-79477809D01*
X104309333Y-79985809D01*
X104720571Y-79985809D02*
X104478666Y-79985809D01*
X104478666Y-79477809D01*
X104889904Y-79985809D02*
X104889904Y-79477809D01*
X105180190Y-79985809D02*
X104962476Y-79695523D01*
X105180190Y-79477809D02*
X104889904Y-79768095D01*
X105276952Y-80034190D02*
X105664000Y-80034190D01*
X105784952Y-79985809D02*
X105784952Y-79477809D01*
X106075238Y-79985809D01*
X106075238Y-79477809D01*
X100233238Y-80824009D02*
X100233238Y-80316009D01*
X100426761Y-80316009D01*
X100475142Y-80340200D01*
X100499333Y-80364390D01*
X100523523Y-80412771D01*
X100523523Y-80485342D01*
X100499333Y-80533723D01*
X100475142Y-80557914D01*
X100426761Y-80582104D01*
X100233238Y-80582104D01*
X100692857Y-80316009D02*
X101007333Y-80316009D01*
X100838000Y-80509533D01*
X100910571Y-80509533D01*
X100958952Y-80533723D01*
X100983142Y-80557914D01*
X101007333Y-80606295D01*
X101007333Y-80727247D01*
X100983142Y-80775628D01*
X100958952Y-80799819D01*
X100910571Y-80824009D01*
X100765428Y-80824009D01*
X100717047Y-80799819D01*
X100692857Y-80775628D01*
X101225047Y-80775628D02*
X101249238Y-80799819D01*
X101225047Y-80824009D01*
X101200857Y-80799819D01*
X101225047Y-80775628D01*
X101225047Y-80824009D01*
X101225047Y-80509533D02*
X101249238Y-80533723D01*
X101225047Y-80557914D01*
X101200857Y-80533723D01*
X101225047Y-80509533D01*
X101225047Y-80557914D01*
X101854000Y-80824009D02*
X101854000Y-80316009D01*
X102047523Y-80316009D01*
X102095904Y-80340200D01*
X102120095Y-80364390D01*
X102144285Y-80412771D01*
X102144285Y-80485342D01*
X102120095Y-80533723D01*
X102095904Y-80557914D01*
X102047523Y-80582104D01*
X101854000Y-80582104D01*
X102313619Y-80316009D02*
X102434571Y-80824009D01*
X102531333Y-80461152D01*
X102628095Y-80824009D01*
X102749047Y-80316009D01*
X102942571Y-80824009D02*
X102942571Y-80316009D01*
X103111904Y-80678866D01*
X103281238Y-80316009D01*
X103281238Y-80824009D01*
X103402190Y-80872390D02*
X103789238Y-80872390D01*
X104200476Y-80775628D02*
X104176285Y-80799819D01*
X104103714Y-80824009D01*
X104055333Y-80824009D01*
X103982761Y-80799819D01*
X103934380Y-80751438D01*
X103910190Y-80703057D01*
X103886000Y-80606295D01*
X103886000Y-80533723D01*
X103910190Y-80436961D01*
X103934380Y-80388580D01*
X103982761Y-80340200D01*
X104055333Y-80316009D01*
X104103714Y-80316009D01*
X104176285Y-80340200D01*
X104200476Y-80364390D01*
X104394000Y-80678866D02*
X104635904Y-80678866D01*
X104345619Y-80824009D02*
X104514952Y-80316009D01*
X104684285Y-80824009D01*
X104853619Y-80824009D02*
X104853619Y-80316009D01*
X105047142Y-80316009D01*
X105095523Y-80340200D01*
X105119714Y-80364390D01*
X105143904Y-80412771D01*
X105143904Y-80485342D01*
X105119714Y-80533723D01*
X105095523Y-80557914D01*
X105047142Y-80582104D01*
X104853619Y-80582104D01*
X105240666Y-80872390D02*
X105627714Y-80872390D01*
X105748666Y-80824009D02*
X105748666Y-80316009D01*
X105942190Y-80316009D01*
X105990571Y-80340200D01*
X106014761Y-80364390D01*
X106038952Y-80412771D01*
X106038952Y-80485342D01*
X106014761Y-80533723D01*
X105990571Y-80557914D01*
X105942190Y-80582104D01*
X105748666Y-80582104D01*
X100221142Y-81662209D02*
X100221142Y-81154209D01*
X100414666Y-81154209D01*
X100463047Y-81178400D01*
X100487238Y-81202590D01*
X100511428Y-81250971D01*
X100511428Y-81323542D01*
X100487238Y-81371923D01*
X100463047Y-81396114D01*
X100414666Y-81420304D01*
X100221142Y-81420304D01*
X100946857Y-81323542D02*
X100946857Y-81662209D01*
X100825904Y-81130019D02*
X100704952Y-81492876D01*
X101019428Y-81492876D01*
X101212952Y-81613828D02*
X101237142Y-81638019D01*
X101212952Y-81662209D01*
X101188761Y-81638019D01*
X101212952Y-81613828D01*
X101212952Y-81662209D01*
X101212952Y-81347733D02*
X101237142Y-81371923D01*
X101212952Y-81396114D01*
X101188761Y-81371923D01*
X101212952Y-81347733D01*
X101212952Y-81396114D01*
X101841904Y-81662209D02*
X101841904Y-81154209D01*
X102035428Y-81154209D01*
X102083809Y-81178400D01*
X102108000Y-81202590D01*
X102132190Y-81250971D01*
X102132190Y-81323542D01*
X102108000Y-81371923D01*
X102083809Y-81396114D01*
X102035428Y-81420304D01*
X101841904Y-81420304D01*
X102301523Y-81154209D02*
X102422476Y-81662209D01*
X102519238Y-81299352D01*
X102616000Y-81662209D01*
X102736952Y-81154209D01*
X102930476Y-81662209D02*
X102930476Y-81154209D01*
X103099809Y-81517066D01*
X103269142Y-81154209D01*
X103269142Y-81662209D01*
X103390095Y-81710590D02*
X103777142Y-81710590D01*
X104188380Y-81613828D02*
X104164190Y-81638019D01*
X104091619Y-81662209D01*
X104043238Y-81662209D01*
X103970666Y-81638019D01*
X103922285Y-81589638D01*
X103898095Y-81541257D01*
X103873904Y-81444495D01*
X103873904Y-81371923D01*
X103898095Y-81275161D01*
X103922285Y-81226780D01*
X103970666Y-81178400D01*
X104043238Y-81154209D01*
X104091619Y-81154209D01*
X104164190Y-81178400D01*
X104188380Y-81202590D01*
X104381904Y-81517066D02*
X104623809Y-81517066D01*
X104333523Y-81662209D02*
X104502857Y-81154209D01*
X104672190Y-81662209D01*
X104841523Y-81662209D02*
X104841523Y-81154209D01*
X105035047Y-81154209D01*
X105083428Y-81178400D01*
X105107619Y-81202590D01*
X105131809Y-81250971D01*
X105131809Y-81323542D01*
X105107619Y-81371923D01*
X105083428Y-81396114D01*
X105035047Y-81420304D01*
X104841523Y-81420304D01*
X105228571Y-81710590D02*
X105615619Y-81710590D01*
X105736571Y-81662209D02*
X105736571Y-81154209D01*
X106026857Y-81662209D01*
X106026857Y-81154209D01*
X170688000Y-100084466D02*
X170929904Y-100084466D01*
X170639619Y-100229609D02*
X170808952Y-99721609D01*
X170978285Y-100229609D01*
X171147619Y-100229609D02*
X171147619Y-99721609D01*
X171316952Y-100084466D01*
X171486285Y-99721609D01*
X171486285Y-100229609D01*
X171704000Y-100084466D02*
X171945904Y-100084466D01*
X171655619Y-100229609D02*
X171824952Y-99721609D01*
X171994285Y-100229609D01*
X172163619Y-100229609D02*
X172163619Y-99721609D01*
X172453904Y-100229609D01*
X172453904Y-99721609D01*
X172695809Y-100229609D02*
X172695809Y-99721609D01*
X172865142Y-99721609D02*
X173155428Y-99721609D01*
X173010285Y-100229609D02*
X173010285Y-99721609D01*
X173300571Y-100084466D02*
X173542476Y-100084466D01*
X173252190Y-100229609D02*
X173421523Y-99721609D01*
X173590857Y-100229609D01*
X174123047Y-100084466D02*
X174364952Y-100084466D01*
X174074666Y-100229609D02*
X174244000Y-99721609D01*
X174413333Y-100229609D01*
X174872952Y-100229609D02*
X174703619Y-99987704D01*
X174582666Y-100229609D02*
X174582666Y-99721609D01*
X174776190Y-99721609D01*
X174824571Y-99745800D01*
X174848761Y-99769990D01*
X174872952Y-99818371D01*
X174872952Y-99890942D01*
X174848761Y-99939323D01*
X174824571Y-99963514D01*
X174776190Y-99987704D01*
X174582666Y-99987704D01*
X175380952Y-100181228D02*
X175356761Y-100205419D01*
X175284190Y-100229609D01*
X175235809Y-100229609D01*
X175163238Y-100205419D01*
X175114857Y-100157038D01*
X175090666Y-100108657D01*
X175066476Y-100011895D01*
X175066476Y-99939323D01*
X175090666Y-99842561D01*
X175114857Y-99794180D01*
X175163238Y-99745800D01*
X175235809Y-99721609D01*
X175284190Y-99721609D01*
X175356761Y-99745800D01*
X175380952Y-99769990D01*
X175574476Y-100084466D02*
X175816380Y-100084466D01*
X175526095Y-100229609D02*
X175695428Y-99721609D01*
X175864761Y-100229609D01*
X176034095Y-100229609D02*
X176034095Y-99721609D01*
X176155047Y-99721609D01*
X176227619Y-99745800D01*
X176276000Y-99794180D01*
X176300190Y-99842561D01*
X176324380Y-99939323D01*
X176324380Y-100011895D01*
X176300190Y-100108657D01*
X176276000Y-100157038D01*
X176227619Y-100205419D01*
X176155047Y-100229609D01*
X176034095Y-100229609D01*
X176542095Y-99963514D02*
X176711428Y-99963514D01*
X176784000Y-100229609D02*
X176542095Y-100229609D01*
X176542095Y-99721609D01*
X176784000Y-99721609D01*
X170736380Y-101043619D02*
X170808952Y-101067809D01*
X170929904Y-101067809D01*
X170978285Y-101043619D01*
X171002476Y-101019428D01*
X171026666Y-100971047D01*
X171026666Y-100922666D01*
X171002476Y-100874285D01*
X170978285Y-100850095D01*
X170929904Y-100825904D01*
X170833142Y-100801714D01*
X170784761Y-100777523D01*
X170760571Y-100753333D01*
X170736380Y-100704952D01*
X170736380Y-100656571D01*
X170760571Y-100608190D01*
X170784761Y-100584000D01*
X170833142Y-100559809D01*
X170954095Y-100559809D01*
X171026666Y-100584000D01*
X171171809Y-100559809D02*
X171462095Y-100559809D01*
X171316952Y-101067809D02*
X171316952Y-100559809D01*
X171607238Y-100922666D02*
X171849142Y-100922666D01*
X171558857Y-101067809D02*
X171728190Y-100559809D01*
X171897523Y-101067809D01*
X172308761Y-101067809D02*
X172066857Y-101067809D01*
X172066857Y-100559809D01*
X172478095Y-101067809D02*
X172478095Y-100559809D01*
X172768380Y-101067809D02*
X172550666Y-100777523D01*
X172768380Y-100559809D02*
X172478095Y-100850095D01*
X173663428Y-101067809D02*
X173494095Y-100825904D01*
X173373142Y-101067809D02*
X173373142Y-100559809D01*
X173566666Y-100559809D01*
X173615047Y-100584000D01*
X173639238Y-100608190D01*
X173663428Y-100656571D01*
X173663428Y-100729142D01*
X173639238Y-100777523D01*
X173615047Y-100801714D01*
X173566666Y-100825904D01*
X173373142Y-100825904D01*
X173881142Y-100801714D02*
X174050476Y-100801714D01*
X174123047Y-101067809D02*
X173881142Y-101067809D01*
X173881142Y-100559809D01*
X174123047Y-100559809D01*
X174631047Y-101019428D02*
X174606857Y-101043619D01*
X174534285Y-101067809D01*
X174485904Y-101067809D01*
X174413333Y-101043619D01*
X174364952Y-100995238D01*
X174340761Y-100946857D01*
X174316571Y-100850095D01*
X174316571Y-100777523D01*
X174340761Y-100680761D01*
X174364952Y-100632380D01*
X174413333Y-100584000D01*
X174485904Y-100559809D01*
X174534285Y-100559809D01*
X174606857Y-100584000D01*
X174631047Y-100608190D01*
X174848761Y-100801714D02*
X175018095Y-100801714D01*
X175090666Y-101067809D02*
X174848761Y-101067809D01*
X174848761Y-100559809D01*
X175090666Y-100559809D01*
X175308380Y-101067809D02*
X175308380Y-100559809D01*
X175477714Y-100559809D02*
X175647047Y-101067809D01*
X175816380Y-100559809D01*
X175985714Y-100801714D02*
X176155047Y-100801714D01*
X176227619Y-101067809D02*
X175985714Y-101067809D01*
X175985714Y-100559809D01*
X176227619Y-100559809D01*
X176735619Y-101067809D02*
X176566285Y-100825904D01*
X176445333Y-101067809D02*
X176445333Y-100559809D01*
X176638857Y-100559809D01*
X176687238Y-100584000D01*
X176711428Y-100608190D01*
X176735619Y-100656571D01*
X176735619Y-100729142D01*
X176711428Y-100777523D01*
X176687238Y-100801714D01*
X176638857Y-100825904D01*
X176445333Y-100825904D01*
X170494476Y-101398009D02*
X170663809Y-101906009D01*
X170833142Y-101398009D01*
X171268571Y-101906009D02*
X170978285Y-101906009D01*
X171123428Y-101906009D02*
X171123428Y-101398009D01*
X171075047Y-101470580D01*
X171026666Y-101518961D01*
X170978285Y-101543152D01*
X171849142Y-101373819D02*
X171413714Y-102026961D01*
X171994285Y-101446390D02*
X172018476Y-101422200D01*
X172066857Y-101398009D01*
X172187809Y-101398009D01*
X172236190Y-101422200D01*
X172260380Y-101446390D01*
X172284571Y-101494771D01*
X172284571Y-101543152D01*
X172260380Y-101615723D01*
X171970095Y-101906009D01*
X172284571Y-101906009D01*
X172599047Y-101398009D02*
X172647428Y-101398009D01*
X172695809Y-101422200D01*
X172720000Y-101446390D01*
X172744190Y-101494771D01*
X172768380Y-101591533D01*
X172768380Y-101712485D01*
X172744190Y-101809247D01*
X172720000Y-101857628D01*
X172695809Y-101881819D01*
X172647428Y-101906009D01*
X172599047Y-101906009D01*
X172550666Y-101881819D01*
X172526476Y-101857628D01*
X172502285Y-101809247D01*
X172478095Y-101712485D01*
X172478095Y-101591533D01*
X172502285Y-101494771D01*
X172526476Y-101446390D01*
X172550666Y-101422200D01*
X172599047Y-101398009D01*
X173252190Y-101906009D02*
X172961904Y-101906009D01*
X173107047Y-101906009D02*
X173107047Y-101398009D01*
X173058666Y-101470580D01*
X173010285Y-101518961D01*
X172961904Y-101543152D01*
X173494095Y-101906009D02*
X173590857Y-101906009D01*
X173639238Y-101881819D01*
X173663428Y-101857628D01*
X173711809Y-101785057D01*
X173736000Y-101688295D01*
X173736000Y-101494771D01*
X173711809Y-101446390D01*
X173687619Y-101422200D01*
X173639238Y-101398009D01*
X173542476Y-101398009D01*
X173494095Y-101422200D01*
X173469904Y-101446390D01*
X173445714Y-101494771D01*
X173445714Y-101615723D01*
X173469904Y-101664104D01*
X173494095Y-101688295D01*
X173542476Y-101712485D01*
X173639238Y-101712485D01*
X173687619Y-101688295D01*
X173711809Y-101664104D01*
X173736000Y-101615723D01*
X173953714Y-101712485D02*
X174340761Y-101712485D01*
X174679428Y-101398009D02*
X174727809Y-101398009D01*
X174776190Y-101422200D01*
X174800380Y-101446390D01*
X174824571Y-101494771D01*
X174848761Y-101591533D01*
X174848761Y-101712485D01*
X174824571Y-101809247D01*
X174800380Y-101857628D01*
X174776190Y-101881819D01*
X174727809Y-101906009D01*
X174679428Y-101906009D01*
X174631047Y-101881819D01*
X174606857Y-101857628D01*
X174582666Y-101809247D01*
X174558476Y-101712485D01*
X174558476Y-101591533D01*
X174582666Y-101494771D01*
X174606857Y-101446390D01*
X174631047Y-101422200D01*
X174679428Y-101398009D01*
X175284190Y-101398009D02*
X175187428Y-101398009D01*
X175139047Y-101422200D01*
X175114857Y-101446390D01*
X175066476Y-101518961D01*
X175042285Y-101615723D01*
X175042285Y-101809247D01*
X175066476Y-101857628D01*
X175090666Y-101881819D01*
X175139047Y-101906009D01*
X175235809Y-101906009D01*
X175284190Y-101881819D01*
X175308380Y-101857628D01*
X175332571Y-101809247D01*
X175332571Y-101688295D01*
X175308380Y-101639914D01*
X175284190Y-101615723D01*
X175235809Y-101591533D01*
X175139047Y-101591533D01*
X175090666Y-101615723D01*
X175066476Y-101639914D01*
X175042285Y-101688295D01*
X175550285Y-101712485D02*
X175937333Y-101712485D01*
X176445333Y-101906009D02*
X176155047Y-101906009D01*
X176300190Y-101906009D02*
X176300190Y-101398009D01*
X176251809Y-101470580D01*
X176203428Y-101518961D01*
X176155047Y-101543152D01*
X176880761Y-101567342D02*
X176880761Y-101906009D01*
X176759809Y-101373819D02*
X176638857Y-101736676D01*
X176953333Y-101736676D01*
D11*
G04 #@! TO.C,C311*
X163120000Y-61971422D02*
X163120000Y-62488578D01*
X164540000Y-61971422D02*
X164540000Y-62488578D01*
G04 #@! TO.C,C202*
X135815000Y-79751422D02*
X135815000Y-80268578D01*
X137235000Y-79751422D02*
X137235000Y-80268578D01*
G04 #@! TO.C,R201*
X132590000Y-80172779D02*
X132590000Y-79847221D01*
X131570000Y-80172779D02*
X131570000Y-79847221D01*
G04 #@! TO.C,TP102*
X98020000Y-71120000D02*
G75*
G03X98020000Y-71120000I-1500000J0D01*
G01*
G04 #@! TO.C,TP151*
X98020000Y-66040000D02*
G75*
G03X98020000Y-66040000I-1500000J0D01*
G01*
G04 #@! TO.C,TP152*
X98020000Y-76200000D02*
G75*
G03X98020000Y-76200000I-1500000J0D01*
G01*
G04 #@! TO.C,TP153*
X98020000Y-93980000D02*
G75*
G03X98020000Y-93980000I-1500000J0D01*
G01*
G04 #@! TO.C,TP201*
X157710000Y-99060000D02*
G75*
G03X157710000Y-99060000I-1500000J0D01*
G01*
G04 #@! TO.C,TP202*
X145010000Y-99060000D02*
G75*
G03X145010000Y-99060000I-1500000J0D01*
G01*
G04 #@! TO.C,TP251*
X164060000Y-99060000D02*
G75*
G03X164060000Y-99060000I-1500000J0D01*
G01*
G04 #@! TO.C,TP301*
X120880000Y-68580000D02*
G75*
G03X120880000Y-68580000I-1500000J0D01*
G01*
G04 #@! TO.C,TP302*
X113260000Y-54610000D02*
G75*
G03X113260000Y-54610000I-1500000J0D01*
G01*
G04 #@! TO.C,TP303*
X103100000Y-54610000D02*
G75*
G03X103100000Y-54610000I-1500000J0D01*
G01*
G04 #@! TO.C,TP311*
X176760000Y-67310000D02*
G75*
G03X176760000Y-67310000I-1500000J0D01*
G01*
G04 #@! TO.C,TP351*
X120880000Y-73660000D02*
G75*
G03X120880000Y-73660000I-1500000J0D01*
G01*
G04 #@! TO.C,TP352*
X108180000Y-54610000D02*
G75*
G03X108180000Y-54610000I-1500000J0D01*
G01*
G04 #@! TO.C,TP361*
X176760000Y-72390000D02*
G75*
G03X176760000Y-72390000I-1500000J0D01*
G01*
G04 #@! TO.C,TP252*
X151360000Y-99060000D02*
G75*
G03X151360000Y-99060000I-1500000J0D01*
G01*
G04 #@! TO.C,TP101*
X98020000Y-60960000D02*
G75*
G03X98020000Y-60960000I-1500000J0D01*
G01*
G04 #@! TO.C,C103*
X123623000Y-89158578D02*
X123623000Y-88641422D01*
X125043000Y-89158578D02*
X125043000Y-88641422D01*
G04 #@! TO.C,C203*
X137870000Y-96261422D02*
X137870000Y-96778578D01*
X136450000Y-96261422D02*
X136450000Y-96778578D01*
G04 #@! TO.C,C204*
X139625000Y-84831422D02*
X139625000Y-85348578D01*
X141045000Y-84831422D02*
X141045000Y-85348578D01*
G04 #@! TO.C,C301*
X128528578Y-73100000D02*
X128011422Y-73100000D01*
X128528578Y-71680000D02*
X128011422Y-71680000D01*
G04 #@! TO.C,C312*
X174700000Y-61971422D02*
X174700000Y-62488578D01*
X173280000Y-61971422D02*
X173280000Y-62488578D01*
G04 #@! TO.C,C101*
X156250000Y-60305000D02*
G75*
G03X156250000Y-60305000I-5120000J0D01*
G01*
X156210000Y-60305000D02*
X146050000Y-60305000D01*
X156210000Y-60345000D02*
X146050000Y-60345000D01*
X156210000Y-60385000D02*
X146050000Y-60385000D01*
X156209000Y-60425000D02*
X146051000Y-60425000D01*
X156208000Y-60465000D02*
X146052000Y-60465000D01*
X156207000Y-60505000D02*
X146053000Y-60505000D01*
X156205000Y-60545000D02*
X152170000Y-60545000D01*
X150090000Y-60545000D02*
X146055000Y-60545000D01*
X156203000Y-60585000D02*
X152170000Y-60585000D01*
X150090000Y-60585000D02*
X146057000Y-60585000D01*
X156200000Y-60625000D02*
X152170000Y-60625000D01*
X150090000Y-60625000D02*
X146060000Y-60625000D01*
X156198000Y-60665000D02*
X152170000Y-60665000D01*
X150090000Y-60665000D02*
X146062000Y-60665000D01*
X156195000Y-60705000D02*
X152170000Y-60705000D01*
X150090000Y-60705000D02*
X146065000Y-60705000D01*
X156192000Y-60745000D02*
X152170000Y-60745000D01*
X150090000Y-60745000D02*
X146068000Y-60745000D01*
X156188000Y-60785000D02*
X152170000Y-60785000D01*
X150090000Y-60785000D02*
X146072000Y-60785000D01*
X156184000Y-60825000D02*
X152170000Y-60825000D01*
X150090000Y-60825000D02*
X146076000Y-60825000D01*
X156180000Y-60865000D02*
X152170000Y-60865000D01*
X150090000Y-60865000D02*
X146080000Y-60865000D01*
X156175000Y-60905000D02*
X152170000Y-60905000D01*
X150090000Y-60905000D02*
X146085000Y-60905000D01*
X156170000Y-60945000D02*
X152170000Y-60945000D01*
X150090000Y-60945000D02*
X146090000Y-60945000D01*
X156165000Y-60985000D02*
X152170000Y-60985000D01*
X150090000Y-60985000D02*
X146095000Y-60985000D01*
X156160000Y-61026000D02*
X152170000Y-61026000D01*
X150090000Y-61026000D02*
X146100000Y-61026000D01*
X156154000Y-61066000D02*
X152170000Y-61066000D01*
X150090000Y-61066000D02*
X146106000Y-61066000D01*
X156148000Y-61106000D02*
X152170000Y-61106000D01*
X150090000Y-61106000D02*
X146112000Y-61106000D01*
X156141000Y-61146000D02*
X152170000Y-61146000D01*
X150090000Y-61146000D02*
X146119000Y-61146000D01*
X156134000Y-61186000D02*
X152170000Y-61186000D01*
X150090000Y-61186000D02*
X146126000Y-61186000D01*
X156127000Y-61226000D02*
X152170000Y-61226000D01*
X148490000Y-61226000D02*
X146133000Y-61226000D01*
X156120000Y-61266000D02*
X152170000Y-61266000D01*
X148490000Y-61266000D02*
X146140000Y-61266000D01*
X156112000Y-61306000D02*
X152170000Y-61306000D01*
X148490000Y-61306000D02*
X146148000Y-61306000D01*
X156104000Y-61346000D02*
X152170000Y-61346000D01*
X148490000Y-61346000D02*
X146156000Y-61346000D01*
X156095000Y-61386000D02*
X152170000Y-61386000D01*
X148490000Y-61386000D02*
X146165000Y-61386000D01*
X156086000Y-61426000D02*
X152170000Y-61426000D01*
X148490000Y-61426000D02*
X146174000Y-61426000D01*
X156077000Y-61466000D02*
X152170000Y-61466000D01*
X148490000Y-61466000D02*
X146183000Y-61466000D01*
X156068000Y-61506000D02*
X152170000Y-61506000D01*
X148490000Y-61506000D02*
X146192000Y-61506000D01*
X156058000Y-61546000D02*
X152170000Y-61546000D01*
X148490000Y-61546000D02*
X146202000Y-61546000D01*
X156048000Y-61586000D02*
X152170000Y-61586000D01*
X148490000Y-61586000D02*
X146212000Y-61586000D01*
X156037000Y-61626000D02*
X152170000Y-61626000D01*
X148490000Y-61626000D02*
X146223000Y-61626000D01*
X156027000Y-61666000D02*
X152170000Y-61666000D01*
X148490000Y-61666000D02*
X146233000Y-61666000D01*
X156015000Y-61706000D02*
X152170000Y-61706000D01*
X148490000Y-61706000D02*
X146245000Y-61706000D01*
X156004000Y-61746000D02*
X152170000Y-61746000D01*
X148490000Y-61746000D02*
X146256000Y-61746000D01*
X155992000Y-61786000D02*
X152170000Y-61786000D01*
X148490000Y-61786000D02*
X146268000Y-61786000D01*
X155980000Y-61826000D02*
X152170000Y-61826000D01*
X148490000Y-61826000D02*
X146280000Y-61826000D01*
X155967000Y-61866000D02*
X152170000Y-61866000D01*
X148490000Y-61866000D02*
X146293000Y-61866000D01*
X155954000Y-61906000D02*
X152170000Y-61906000D01*
X148490000Y-61906000D02*
X146306000Y-61906000D01*
X155941000Y-61946000D02*
X152170000Y-61946000D01*
X148490000Y-61946000D02*
X146319000Y-61946000D01*
X155927000Y-61986000D02*
X152170000Y-61986000D01*
X148490000Y-61986000D02*
X146333000Y-61986000D01*
X155913000Y-62026000D02*
X152170000Y-62026000D01*
X148490000Y-62026000D02*
X146347000Y-62026000D01*
X155898000Y-62066000D02*
X152170000Y-62066000D01*
X148490000Y-62066000D02*
X146362000Y-62066000D01*
X155884000Y-62106000D02*
X152170000Y-62106000D01*
X148490000Y-62106000D02*
X146376000Y-62106000D01*
X155868000Y-62146000D02*
X152170000Y-62146000D01*
X148490000Y-62146000D02*
X146392000Y-62146000D01*
X155853000Y-62186000D02*
X152170000Y-62186000D01*
X148490000Y-62186000D02*
X146407000Y-62186000D01*
X155837000Y-62226000D02*
X152170000Y-62226000D01*
X148490000Y-62226000D02*
X146423000Y-62226000D01*
X155820000Y-62266000D02*
X152170000Y-62266000D01*
X148490000Y-62266000D02*
X146440000Y-62266000D01*
X155804000Y-62306000D02*
X152170000Y-62306000D01*
X148490000Y-62306000D02*
X146456000Y-62306000D01*
X155787000Y-62346000D02*
X152170000Y-62346000D01*
X148490000Y-62346000D02*
X146473000Y-62346000D01*
X155769000Y-62386000D02*
X152170000Y-62386000D01*
X148490000Y-62386000D02*
X146491000Y-62386000D01*
X155751000Y-62426000D02*
X152170000Y-62426000D01*
X148490000Y-62426000D02*
X146509000Y-62426000D01*
X155733000Y-62466000D02*
X152170000Y-62466000D01*
X148490000Y-62466000D02*
X146527000Y-62466000D01*
X155714000Y-62506000D02*
X152170000Y-62506000D01*
X148490000Y-62506000D02*
X146546000Y-62506000D01*
X155694000Y-62546000D02*
X152170000Y-62546000D01*
X148490000Y-62546000D02*
X146566000Y-62546000D01*
X155675000Y-62586000D02*
X152170000Y-62586000D01*
X148490000Y-62586000D02*
X146585000Y-62586000D01*
X155655000Y-62626000D02*
X150570000Y-62626000D01*
X148490000Y-62626000D02*
X146605000Y-62626000D01*
X155634000Y-62666000D02*
X150570000Y-62666000D01*
X148490000Y-62666000D02*
X146626000Y-62666000D01*
X155613000Y-62706000D02*
X150570000Y-62706000D01*
X148490000Y-62706000D02*
X146647000Y-62706000D01*
X155592000Y-62746000D02*
X150570000Y-62746000D01*
X148490000Y-62746000D02*
X146668000Y-62746000D01*
X155570000Y-62786000D02*
X150570000Y-62786000D01*
X148490000Y-62786000D02*
X146690000Y-62786000D01*
X155547000Y-62826000D02*
X150570000Y-62826000D01*
X148490000Y-62826000D02*
X146713000Y-62826000D01*
X155525000Y-62866000D02*
X150570000Y-62866000D01*
X148490000Y-62866000D02*
X146735000Y-62866000D01*
X155501000Y-62906000D02*
X150570000Y-62906000D01*
X148490000Y-62906000D02*
X146759000Y-62906000D01*
X155477000Y-62946000D02*
X150570000Y-62946000D01*
X148490000Y-62946000D02*
X146783000Y-62946000D01*
X155453000Y-62986000D02*
X150570000Y-62986000D01*
X148490000Y-62986000D02*
X146807000Y-62986000D01*
X155428000Y-63026000D02*
X150570000Y-63026000D01*
X148490000Y-63026000D02*
X146832000Y-63026000D01*
X155403000Y-63066000D02*
X150570000Y-63066000D01*
X148490000Y-63066000D02*
X146857000Y-63066000D01*
X155377000Y-63106000D02*
X150570000Y-63106000D01*
X148490000Y-63106000D02*
X146883000Y-63106000D01*
X155351000Y-63146000D02*
X150570000Y-63146000D01*
X148490000Y-63146000D02*
X146909000Y-63146000D01*
X155324000Y-63186000D02*
X150570000Y-63186000D01*
X148490000Y-63186000D02*
X146936000Y-63186000D01*
X155296000Y-63226000D02*
X150570000Y-63226000D01*
X148490000Y-63226000D02*
X146964000Y-63226000D01*
X155268000Y-63266000D02*
X150570000Y-63266000D01*
X148490000Y-63266000D02*
X146992000Y-63266000D01*
X155240000Y-63306000D02*
X147020000Y-63306000D01*
X155210000Y-63346000D02*
X147050000Y-63346000D01*
X155180000Y-63386000D02*
X147080000Y-63386000D01*
X155150000Y-63426000D02*
X147110000Y-63426000D01*
X155119000Y-63466000D02*
X147141000Y-63466000D01*
X155087000Y-63506000D02*
X147173000Y-63506000D01*
X155055000Y-63546000D02*
X147205000Y-63546000D01*
X155022000Y-63586000D02*
X147238000Y-63586000D01*
X154988000Y-63626000D02*
X147272000Y-63626000D01*
X154954000Y-63666000D02*
X147306000Y-63666000D01*
X154919000Y-63706000D02*
X147341000Y-63706000D01*
X154883000Y-63746000D02*
X147377000Y-63746000D01*
X154846000Y-63786000D02*
X147414000Y-63786000D01*
X154809000Y-63826000D02*
X147451000Y-63826000D01*
X154770000Y-63866000D02*
X147490000Y-63866000D01*
X154731000Y-63906000D02*
X147529000Y-63906000D01*
X154691000Y-63946000D02*
X147569000Y-63946000D01*
X154650000Y-63986000D02*
X147610000Y-63986000D01*
X154608000Y-64026000D02*
X147652000Y-64026000D01*
X154566000Y-64066000D02*
X147694000Y-64066000D01*
X154522000Y-64106000D02*
X147738000Y-64106000D01*
X154477000Y-64146000D02*
X147783000Y-64146000D01*
X154431000Y-64186000D02*
X147829000Y-64186000D01*
X154384000Y-64226000D02*
X147876000Y-64226000D01*
X154336000Y-64266000D02*
X147924000Y-64266000D01*
X154286000Y-64306000D02*
X147974000Y-64306000D01*
X154236000Y-64346000D02*
X148024000Y-64346000D01*
X154184000Y-64386000D02*
X148076000Y-64386000D01*
X154130000Y-64426000D02*
X148130000Y-64426000D01*
X154075000Y-64466000D02*
X148185000Y-64466000D01*
X154019000Y-64506000D02*
X148241000Y-64506000D01*
X153960000Y-64546000D02*
X148300000Y-64546000D01*
X153900000Y-64586000D02*
X148360000Y-64586000D01*
X153839000Y-64626000D02*
X148421000Y-64626000D01*
X153775000Y-64666000D02*
X148485000Y-64666000D01*
X153709000Y-64706000D02*
X148551000Y-64706000D01*
X153640000Y-64746000D02*
X148620000Y-64746000D01*
X153569000Y-64786000D02*
X148691000Y-64786000D01*
X153495000Y-64826000D02*
X148765000Y-64826000D01*
X153419000Y-64866000D02*
X148841000Y-64866000D01*
X153339000Y-64906000D02*
X148921000Y-64906000D01*
X153255000Y-64946000D02*
X149005000Y-64946000D01*
X153167000Y-64986000D02*
X149093000Y-64986000D01*
X153074000Y-65026000D02*
X149186000Y-65026000D01*
X152976000Y-65066000D02*
X149284000Y-65066000D01*
X152872000Y-65106000D02*
X149388000Y-65106000D01*
X152760000Y-65146000D02*
X149500000Y-65146000D01*
X152640000Y-65186000D02*
X149620000Y-65186000D01*
X152508000Y-65226000D02*
X149752000Y-65226000D01*
X152360000Y-65266000D02*
X149900000Y-65266000D01*
X152192000Y-65306000D02*
X150068000Y-65306000D01*
X151992000Y-65346000D02*
X150268000Y-65346000D01*
X151729000Y-65386000D02*
X150531000Y-65386000D01*
X154005000Y-54825354D02*
X154005000Y-55825354D01*
X154505000Y-55325354D02*
X153505000Y-55325354D01*
G04 #@! TO.C,C102*
X130128000Y-78847000D02*
G75*
G03X130128000Y-78847000I-2620000J0D01*
G01*
X130088000Y-78847000D02*
X124928000Y-78847000D01*
X130088000Y-78887000D02*
X124928000Y-78887000D01*
X130087000Y-78927000D02*
X124929000Y-78927000D01*
X130086000Y-78967000D02*
X124930000Y-78967000D01*
X130084000Y-79007000D02*
X124932000Y-79007000D01*
X130081000Y-79047000D02*
X124935000Y-79047000D01*
X130077000Y-79087000D02*
X128548000Y-79087000D01*
X126468000Y-79087000D02*
X124939000Y-79087000D01*
X130073000Y-79127000D02*
X128548000Y-79127000D01*
X126468000Y-79127000D02*
X124943000Y-79127000D01*
X130069000Y-79167000D02*
X128548000Y-79167000D01*
X126468000Y-79167000D02*
X124947000Y-79167000D01*
X130064000Y-79207000D02*
X128548000Y-79207000D01*
X126468000Y-79207000D02*
X124952000Y-79207000D01*
X130058000Y-79247000D02*
X128548000Y-79247000D01*
X126468000Y-79247000D02*
X124958000Y-79247000D01*
X130051000Y-79287000D02*
X128548000Y-79287000D01*
X126468000Y-79287000D02*
X124965000Y-79287000D01*
X130044000Y-79327000D02*
X128548000Y-79327000D01*
X126468000Y-79327000D02*
X124972000Y-79327000D01*
X130036000Y-79367000D02*
X128548000Y-79367000D01*
X126468000Y-79367000D02*
X124980000Y-79367000D01*
X130028000Y-79407000D02*
X128548000Y-79407000D01*
X126468000Y-79407000D02*
X124988000Y-79407000D01*
X130019000Y-79447000D02*
X128548000Y-79447000D01*
X126468000Y-79447000D02*
X124997000Y-79447000D01*
X130009000Y-79487000D02*
X128548000Y-79487000D01*
X126468000Y-79487000D02*
X125007000Y-79487000D01*
X129999000Y-79527000D02*
X128548000Y-79527000D01*
X126468000Y-79527000D02*
X125017000Y-79527000D01*
X129988000Y-79568000D02*
X128548000Y-79568000D01*
X126468000Y-79568000D02*
X125028000Y-79568000D01*
X129976000Y-79608000D02*
X128548000Y-79608000D01*
X126468000Y-79608000D02*
X125040000Y-79608000D01*
X129963000Y-79648000D02*
X128548000Y-79648000D01*
X126468000Y-79648000D02*
X125053000Y-79648000D01*
X129950000Y-79688000D02*
X128548000Y-79688000D01*
X126468000Y-79688000D02*
X125066000Y-79688000D01*
X129936000Y-79728000D02*
X128548000Y-79728000D01*
X126468000Y-79728000D02*
X125080000Y-79728000D01*
X129922000Y-79768000D02*
X128548000Y-79768000D01*
X126468000Y-79768000D02*
X125094000Y-79768000D01*
X129906000Y-79808000D02*
X128548000Y-79808000D01*
X126468000Y-79808000D02*
X125110000Y-79808000D01*
X129890000Y-79848000D02*
X128548000Y-79848000D01*
X126468000Y-79848000D02*
X125126000Y-79848000D01*
X129873000Y-79888000D02*
X128548000Y-79888000D01*
X126468000Y-79888000D02*
X125143000Y-79888000D01*
X129856000Y-79928000D02*
X128548000Y-79928000D01*
X126468000Y-79928000D02*
X125160000Y-79928000D01*
X129837000Y-79968000D02*
X128548000Y-79968000D01*
X126468000Y-79968000D02*
X125179000Y-79968000D01*
X129818000Y-80008000D02*
X128548000Y-80008000D01*
X126468000Y-80008000D02*
X125198000Y-80008000D01*
X129798000Y-80048000D02*
X128548000Y-80048000D01*
X126468000Y-80048000D02*
X125218000Y-80048000D01*
X129776000Y-80088000D02*
X128548000Y-80088000D01*
X126468000Y-80088000D02*
X125240000Y-80088000D01*
X129755000Y-80128000D02*
X128548000Y-80128000D01*
X126468000Y-80128000D02*
X125261000Y-80128000D01*
X129732000Y-80168000D02*
X128548000Y-80168000D01*
X126468000Y-80168000D02*
X125284000Y-80168000D01*
X129708000Y-80208000D02*
X128548000Y-80208000D01*
X126468000Y-80208000D02*
X125308000Y-80208000D01*
X129683000Y-80248000D02*
X128548000Y-80248000D01*
X126468000Y-80248000D02*
X125333000Y-80248000D01*
X129657000Y-80288000D02*
X128548000Y-80288000D01*
X126468000Y-80288000D02*
X125359000Y-80288000D01*
X129630000Y-80328000D02*
X128548000Y-80328000D01*
X126468000Y-80328000D02*
X125386000Y-80328000D01*
X129603000Y-80368000D02*
X128548000Y-80368000D01*
X126468000Y-80368000D02*
X125413000Y-80368000D01*
X129573000Y-80408000D02*
X128548000Y-80408000D01*
X126468000Y-80408000D02*
X125443000Y-80408000D01*
X129543000Y-80448000D02*
X128548000Y-80448000D01*
X126468000Y-80448000D02*
X125473000Y-80448000D01*
X129512000Y-80488000D02*
X128548000Y-80488000D01*
X126468000Y-80488000D02*
X125504000Y-80488000D01*
X129479000Y-80528000D02*
X128548000Y-80528000D01*
X126468000Y-80528000D02*
X125537000Y-80528000D01*
X129445000Y-80568000D02*
X128548000Y-80568000D01*
X126468000Y-80568000D02*
X125571000Y-80568000D01*
X129409000Y-80608000D02*
X128548000Y-80608000D01*
X126468000Y-80608000D02*
X125607000Y-80608000D01*
X129372000Y-80648000D02*
X128548000Y-80648000D01*
X126468000Y-80648000D02*
X125644000Y-80648000D01*
X129334000Y-80688000D02*
X128548000Y-80688000D01*
X126468000Y-80688000D02*
X125682000Y-80688000D01*
X129293000Y-80728000D02*
X128548000Y-80728000D01*
X126468000Y-80728000D02*
X125723000Y-80728000D01*
X129251000Y-80768000D02*
X128548000Y-80768000D01*
X126468000Y-80768000D02*
X125765000Y-80768000D01*
X129207000Y-80808000D02*
X128548000Y-80808000D01*
X126468000Y-80808000D02*
X125809000Y-80808000D01*
X129161000Y-80848000D02*
X128548000Y-80848000D01*
X126468000Y-80848000D02*
X125855000Y-80848000D01*
X129113000Y-80888000D02*
X128548000Y-80888000D01*
X126468000Y-80888000D02*
X125903000Y-80888000D01*
X129062000Y-80928000D02*
X128548000Y-80928000D01*
X126468000Y-80928000D02*
X125954000Y-80928000D01*
X129008000Y-80968000D02*
X128548000Y-80968000D01*
X126468000Y-80968000D02*
X126008000Y-80968000D01*
X128951000Y-81008000D02*
X128548000Y-81008000D01*
X126468000Y-81008000D02*
X126065000Y-81008000D01*
X128891000Y-81048000D02*
X128548000Y-81048000D01*
X126468000Y-81048000D02*
X126125000Y-81048000D01*
X128827000Y-81088000D02*
X128548000Y-81088000D01*
X126468000Y-81088000D02*
X126189000Y-81088000D01*
X128759000Y-81128000D02*
X128548000Y-81128000D01*
X126468000Y-81128000D02*
X126257000Y-81128000D01*
X128686000Y-81168000D02*
X126330000Y-81168000D01*
X128606000Y-81208000D02*
X126410000Y-81208000D01*
X128519000Y-81248000D02*
X126497000Y-81248000D01*
X128423000Y-81288000D02*
X126593000Y-81288000D01*
X128313000Y-81328000D02*
X126703000Y-81328000D01*
X128185000Y-81368000D02*
X126831000Y-81368000D01*
X128026000Y-81408000D02*
X126990000Y-81408000D01*
X127792000Y-81448000D02*
X127224000Y-81448000D01*
X128983000Y-76042225D02*
X128983000Y-76542225D01*
X129233000Y-76292225D02*
X128733000Y-76292225D01*
G04 #@! TO.C,CN314*
X173930000Y-59750000D02*
X176590000Y-59750000D01*
X173930000Y-57150000D02*
X173930000Y-59750000D01*
X176590000Y-57150000D02*
X176590000Y-59750000D01*
X173930000Y-57150000D02*
X176590000Y-57150000D01*
X173930000Y-55880000D02*
X173930000Y-54550000D01*
X173930000Y-54550000D02*
X175260000Y-54550000D01*
G04 #@! TO.C,CN313*
X168850000Y-54550000D02*
X170180000Y-54550000D01*
X168850000Y-55880000D02*
X168850000Y-54550000D01*
X168850000Y-57150000D02*
X171510000Y-57150000D01*
X171510000Y-57150000D02*
X171510000Y-59750000D01*
X168850000Y-57150000D02*
X168850000Y-59750000D01*
X168850000Y-59750000D02*
X171510000Y-59750000D01*
G04 #@! TO.C,CN312*
X163770000Y-59750000D02*
X166430000Y-59750000D01*
X163770000Y-57150000D02*
X163770000Y-59750000D01*
X166430000Y-57150000D02*
X166430000Y-59750000D01*
X163770000Y-57150000D02*
X166430000Y-57150000D01*
X163770000Y-55880000D02*
X163770000Y-54550000D01*
X163770000Y-54550000D02*
X165100000Y-54550000D01*
G04 #@! TO.C,CN311*
X158690000Y-54550000D02*
X160020000Y-54550000D01*
X158690000Y-55880000D02*
X158690000Y-54550000D01*
X158690000Y-57150000D02*
X161350000Y-57150000D01*
X161350000Y-57150000D02*
X161350000Y-59750000D01*
X158690000Y-57150000D02*
X158690000Y-59750000D01*
X158690000Y-59750000D02*
X161350000Y-59750000D01*
G04 #@! TO.C,JP101*
X132020000Y-62290000D02*
X134680000Y-62290000D01*
X132020000Y-59690000D02*
X132020000Y-62290000D01*
X134680000Y-59690000D02*
X134680000Y-62290000D01*
X132020000Y-59690000D02*
X134680000Y-59690000D01*
X132020000Y-58420000D02*
X132020000Y-57090000D01*
X132020000Y-57090000D02*
X133350000Y-57090000D01*
G04 #@! TO.C,CN301*
X126940000Y-62290000D02*
X129600000Y-62290000D01*
X126940000Y-57150000D02*
X126940000Y-62290000D01*
X129600000Y-57150000D02*
X129600000Y-62290000D01*
X126940000Y-57150000D02*
X129600000Y-57150000D01*
X126940000Y-55880000D02*
X126940000Y-54550000D01*
X126940000Y-54550000D02*
X128270000Y-54550000D01*
G04 #@! TO.C,CN302*
X121860000Y-54550000D02*
X123190000Y-54550000D01*
X121860000Y-55880000D02*
X121860000Y-54550000D01*
X121860000Y-57150000D02*
X124520000Y-57150000D01*
X124520000Y-57150000D02*
X124520000Y-62290000D01*
X121860000Y-57150000D02*
X121860000Y-62290000D01*
X121860000Y-62290000D02*
X124520000Y-62290000D01*
G04 #@! TO.C,CN303*
X116780000Y-62290000D02*
X119440000Y-62290000D01*
X116780000Y-57150000D02*
X116780000Y-62290000D01*
X119440000Y-57150000D02*
X119440000Y-62290000D01*
X116780000Y-57150000D02*
X119440000Y-57150000D01*
X116780000Y-55880000D02*
X116780000Y-54550000D01*
X116780000Y-54550000D02*
X118110000Y-54550000D01*
G04 #@! TO.C,CN151*
X95190000Y-90230000D02*
X97850000Y-90230000D01*
X95190000Y-82550000D02*
X95190000Y-90230000D01*
X97850000Y-82550000D02*
X97850000Y-90230000D01*
X95190000Y-82550000D02*
X97850000Y-82550000D01*
X95190000Y-81280000D02*
X95190000Y-79950000D01*
X95190000Y-79950000D02*
X96520000Y-79950000D01*
G04 #@! TO.C,D151*
X103085000Y-60225000D02*
X100800000Y-60225000D01*
X103085000Y-61695000D02*
X103085000Y-60225000D01*
X100800000Y-61695000D02*
X103085000Y-61695000D01*
G04 #@! TO.C,D152*
X100800000Y-71855000D02*
X103085000Y-71855000D01*
X103085000Y-71855000D02*
X103085000Y-70385000D01*
X103085000Y-70385000D02*
X100800000Y-70385000D01*
G04 #@! TO.C,D352*
X112815000Y-68045000D02*
X115100000Y-68045000D01*
X112815000Y-66575000D02*
X112815000Y-68045000D01*
X115100000Y-66575000D02*
X112815000Y-66575000D01*
G04 #@! TO.C,D351*
X113500000Y-70585000D02*
X115785000Y-70585000D01*
X115785000Y-70585000D02*
X115785000Y-69115000D01*
X115785000Y-69115000D02*
X113500000Y-69115000D01*
G04 #@! TO.C,D204*
X152150000Y-92860000D02*
X152150000Y-95100000D01*
X152390000Y-92860000D02*
X152390000Y-95100000D01*
X152270000Y-92860000D02*
X152270000Y-95100000D01*
X156440000Y-93980000D02*
X155790000Y-93980000D01*
X150900000Y-93980000D02*
X151550000Y-93980000D01*
X155790000Y-92860000D02*
X151550000Y-92860000D01*
X155790000Y-95100000D02*
X155790000Y-92860000D01*
X151550000Y-95100000D02*
X155790000Y-95100000D01*
X151550000Y-92860000D02*
X151550000Y-95100000D01*
G04 #@! TO.C,D202*
X151550000Y-83970000D02*
X151550000Y-86210000D01*
X151550000Y-86210000D02*
X155790000Y-86210000D01*
X155790000Y-86210000D02*
X155790000Y-83970000D01*
X155790000Y-83970000D02*
X151550000Y-83970000D01*
X150900000Y-85090000D02*
X151550000Y-85090000D01*
X156440000Y-85090000D02*
X155790000Y-85090000D01*
X152270000Y-83970000D02*
X152270000Y-86210000D01*
X152390000Y-83970000D02*
X152390000Y-86210000D01*
X152150000Y-83970000D02*
X152150000Y-86210000D01*
G04 #@! TO.C,D201*
X155190000Y-82400000D02*
X155190000Y-80160000D01*
X154950000Y-82400000D02*
X154950000Y-80160000D01*
X155070000Y-82400000D02*
X155070000Y-80160000D01*
X150900000Y-81280000D02*
X151550000Y-81280000D01*
X156440000Y-81280000D02*
X155790000Y-81280000D01*
X151550000Y-82400000D02*
X155790000Y-82400000D01*
X151550000Y-80160000D02*
X151550000Y-82400000D01*
X155790000Y-80160000D02*
X151550000Y-80160000D01*
X155790000Y-82400000D02*
X155790000Y-80160000D01*
G04 #@! TO.C,D203*
X155790000Y-91290000D02*
X155790000Y-89050000D01*
X155790000Y-89050000D02*
X151550000Y-89050000D01*
X151550000Y-89050000D02*
X151550000Y-91290000D01*
X151550000Y-91290000D02*
X155790000Y-91290000D01*
X156440000Y-90170000D02*
X155790000Y-90170000D01*
X150900000Y-90170000D02*
X151550000Y-90170000D01*
X155070000Y-91290000D02*
X155070000Y-89050000D01*
X154950000Y-91290000D02*
X154950000Y-89050000D01*
X155190000Y-91290000D02*
X155190000Y-89050000D01*
G04 #@! TO.C,JP351*
X132150000Y-69920000D02*
X131850000Y-70220000D01*
X131850000Y-69620000D02*
X131850000Y-70220000D01*
X132150000Y-69920000D02*
X131850000Y-69620000D01*
X133050000Y-69070000D02*
X133650000Y-69070000D01*
X132350000Y-72520000D02*
X132350000Y-69720000D01*
X133650000Y-73170000D02*
X133050000Y-73170000D01*
X134350000Y-69720000D02*
X134350000Y-72520000D01*
X134350000Y-72470000D02*
G75*
G02X133650000Y-73170000I-700000J0D01*
G01*
X133050000Y-73170000D02*
G75*
G02X132350000Y-72470000I0J700000D01*
G01*
X132350000Y-69770000D02*
G75*
G02X133050000Y-69070000I700000J0D01*
G01*
X133650000Y-69070000D02*
G75*
G02X134350000Y-69770000I0J-700000D01*
G01*
D12*
G04 #@! TO.C,U201*
X132545000Y-83825000D02*
X132545000Y-83850000D01*
X136695000Y-83825000D02*
X136695000Y-83930000D01*
X136695000Y-93975000D02*
X136695000Y-93870000D01*
X132545000Y-93975000D02*
X132545000Y-93870000D01*
X132545000Y-83825000D02*
X136695000Y-83825000D01*
X132545000Y-93975000D02*
X136695000Y-93975000D01*
X132545000Y-83850000D02*
X131170000Y-83850000D01*
D11*
G04 #@! TO.C,Q301*
X127310000Y-67820000D02*
X126380000Y-67820000D01*
X124150000Y-67820000D02*
X125080000Y-67820000D01*
X124150000Y-67820000D02*
X124150000Y-69980000D01*
X127310000Y-67820000D02*
X127310000Y-69280000D01*
G04 #@! TO.C,D102*
X128610000Y-89800000D02*
X128610000Y-88000000D01*
X125390000Y-88000000D02*
X125390000Y-90450000D01*
G04 #@! TO.C,Q311*
X162450000Y-62910000D02*
X162450000Y-61500000D01*
X160130000Y-61500000D02*
X160130000Y-63530000D01*
X160130000Y-61500000D02*
X160790000Y-61500000D01*
X161790000Y-61500000D02*
X162450000Y-61500000D01*
G04 #@! TO.C,Q312*
X171950000Y-61500000D02*
X172610000Y-61500000D01*
X170290000Y-61500000D02*
X170950000Y-61500000D01*
X170290000Y-61500000D02*
X170290000Y-63530000D01*
X172610000Y-62910000D02*
X172610000Y-61500000D01*
G04 #@! TO.C,R204*
X131570000Y-96357221D02*
X131570000Y-96682779D01*
X132590000Y-96357221D02*
X132590000Y-96682779D01*
G04 #@! TO.C,R301*
X123950000Y-72552779D02*
X123950000Y-72227221D01*
X124970000Y-72552779D02*
X124970000Y-72227221D01*
G04 #@! TO.C,R202*
X133602000Y-80172779D02*
X133602000Y-79847221D01*
X134622000Y-80172779D02*
X134622000Y-79847221D01*
G04 #@! TO.C,R302*
X130050000Y-69530279D02*
X130050000Y-69204721D01*
X129030000Y-69530279D02*
X129030000Y-69204721D01*
G04 #@! TO.C,R351*
X110327221Y-69340000D02*
X110652779Y-69340000D01*
X110327221Y-70360000D02*
X110652779Y-70360000D01*
G04 #@! TO.C,R352*
X110652779Y-66800000D02*
X110327221Y-66800000D01*
X110652779Y-67820000D02*
X110327221Y-67820000D01*
G04 #@! TO.C,R152*
X101762779Y-69090000D02*
X101437221Y-69090000D01*
X101762779Y-68070000D02*
X101437221Y-68070000D01*
G04 #@! TO.C,R151*
X101762779Y-62990000D02*
X101437221Y-62990000D01*
X101762779Y-64010000D02*
X101437221Y-64010000D01*
G04 #@! TO.C,R203*
X135130000Y-96357221D02*
X135130000Y-96682779D01*
X134110000Y-96357221D02*
X134110000Y-96682779D01*
G04 #@! TO.C,CN102*
X104013000Y-98679000D02*
X109347000Y-98679000D01*
X104013000Y-85471000D02*
X109347000Y-85471000D01*
X118618000Y-85090000D02*
X120142000Y-85090000D01*
X120396000Y-85471000D02*
X120396000Y-98679000D01*
X120396000Y-98679000D02*
X111633000Y-98679000D01*
X104013000Y-98679000D02*
X104013000Y-85471000D01*
X111633000Y-85471000D02*
X120396000Y-85471000D01*
G04 #@! TO.C,D101*
X136975000Y-58940000D02*
X136075000Y-58940000D01*
X136075000Y-58940000D02*
X136075000Y-60140000D01*
X136975000Y-58940000D02*
X136975000Y-60140000D01*
G04 #@! TO.C,C311*
D12*
X165837142Y-63349047D02*
X165884761Y-63396666D01*
X165932380Y-63539523D01*
X165932380Y-63634761D01*
X165884761Y-63777619D01*
X165789523Y-63872857D01*
X165694285Y-63920476D01*
X165503809Y-63968095D01*
X165360952Y-63968095D01*
X165170476Y-63920476D01*
X165075238Y-63872857D01*
X164980000Y-63777619D01*
X164932380Y-63634761D01*
X164932380Y-63539523D01*
X164980000Y-63396666D01*
X165027619Y-63349047D01*
X164932380Y-63015714D02*
X164932380Y-62396666D01*
X165313333Y-62730000D01*
X165313333Y-62587142D01*
X165360952Y-62491904D01*
X165408571Y-62444285D01*
X165503809Y-62396666D01*
X165741904Y-62396666D01*
X165837142Y-62444285D01*
X165884761Y-62491904D01*
X165932380Y-62587142D01*
X165932380Y-62872857D01*
X165884761Y-62968095D01*
X165837142Y-63015714D01*
X165932380Y-61444285D02*
X165932380Y-62015714D01*
X165932380Y-61730000D02*
X164932380Y-61730000D01*
X165075238Y-61825238D01*
X165170476Y-61920476D01*
X165218095Y-62015714D01*
X165932380Y-60491904D02*
X165932380Y-61063333D01*
X165932380Y-60777619D02*
X164932380Y-60777619D01*
X165075238Y-60872857D01*
X165170476Y-60968095D01*
X165218095Y-61063333D01*
G04 #@! TO.C,C202*
X136882142Y-77319047D02*
X136929761Y-77366666D01*
X136977380Y-77509523D01*
X136977380Y-77604761D01*
X136929761Y-77747619D01*
X136834523Y-77842857D01*
X136739285Y-77890476D01*
X136548809Y-77938095D01*
X136405952Y-77938095D01*
X136215476Y-77890476D01*
X136120238Y-77842857D01*
X136025000Y-77747619D01*
X135977380Y-77604761D01*
X135977380Y-77509523D01*
X136025000Y-77366666D01*
X136072619Y-77319047D01*
X136072619Y-76938095D02*
X136025000Y-76890476D01*
X135977380Y-76795238D01*
X135977380Y-76557142D01*
X136025000Y-76461904D01*
X136072619Y-76414285D01*
X136167857Y-76366666D01*
X136263095Y-76366666D01*
X136405952Y-76414285D01*
X136977380Y-76985714D01*
X136977380Y-76366666D01*
X135977380Y-75747619D02*
X135977380Y-75652380D01*
X136025000Y-75557142D01*
X136072619Y-75509523D01*
X136167857Y-75461904D01*
X136358333Y-75414285D01*
X136596428Y-75414285D01*
X136786904Y-75461904D01*
X136882142Y-75509523D01*
X136929761Y-75557142D01*
X136977380Y-75652380D01*
X136977380Y-75747619D01*
X136929761Y-75842857D01*
X136882142Y-75890476D01*
X136786904Y-75938095D01*
X136596428Y-75985714D01*
X136358333Y-75985714D01*
X136167857Y-75938095D01*
X136072619Y-75890476D01*
X136025000Y-75842857D01*
X135977380Y-75747619D01*
X136072619Y-75033333D02*
X136025000Y-74985714D01*
X135977380Y-74890476D01*
X135977380Y-74652380D01*
X136025000Y-74557142D01*
X136072619Y-74509523D01*
X136167857Y-74461904D01*
X136263095Y-74461904D01*
X136405952Y-74509523D01*
X136977380Y-75080952D01*
X136977380Y-74461904D01*
G04 #@! TO.C,R201*
X132532380Y-77573047D02*
X132056190Y-77906380D01*
X132532380Y-78144476D02*
X131532380Y-78144476D01*
X131532380Y-77763523D01*
X131580000Y-77668285D01*
X131627619Y-77620666D01*
X131722857Y-77573047D01*
X131865714Y-77573047D01*
X131960952Y-77620666D01*
X132008571Y-77668285D01*
X132056190Y-77763523D01*
X132056190Y-78144476D01*
X131627619Y-77192095D02*
X131580000Y-77144476D01*
X131532380Y-77049238D01*
X131532380Y-76811142D01*
X131580000Y-76715904D01*
X131627619Y-76668285D01*
X131722857Y-76620666D01*
X131818095Y-76620666D01*
X131960952Y-76668285D01*
X132532380Y-77239714D01*
X132532380Y-76620666D01*
X131532380Y-76001619D02*
X131532380Y-75906380D01*
X131580000Y-75811142D01*
X131627619Y-75763523D01*
X131722857Y-75715904D01*
X131913333Y-75668285D01*
X132151428Y-75668285D01*
X132341904Y-75715904D01*
X132437142Y-75763523D01*
X132484761Y-75811142D01*
X132532380Y-75906380D01*
X132532380Y-76001619D01*
X132484761Y-76096857D01*
X132437142Y-76144476D01*
X132341904Y-76192095D01*
X132151428Y-76239714D01*
X131913333Y-76239714D01*
X131722857Y-76192095D01*
X131627619Y-76144476D01*
X131580000Y-76096857D01*
X131532380Y-76001619D01*
X132532380Y-74715904D02*
X132532380Y-75287333D01*
X132532380Y-75001619D02*
X131532380Y-75001619D01*
X131675238Y-75096857D01*
X131770476Y-75192095D01*
X131818095Y-75287333D01*
G04 #@! TO.C,TP102*
D13*
X93977666Y-72670000D02*
X93977666Y-72270000D01*
X94677666Y-72470000D02*
X93977666Y-72470000D01*
X94677666Y-72036666D02*
X93977666Y-72036666D01*
X93977666Y-71770000D01*
X94011000Y-71703333D01*
X94044333Y-71670000D01*
X94111000Y-71636666D01*
X94211000Y-71636666D01*
X94277666Y-71670000D01*
X94311000Y-71703333D01*
X94344333Y-71770000D01*
X94344333Y-72036666D01*
X94677666Y-70970000D02*
X94677666Y-71370000D01*
X94677666Y-71170000D02*
X93977666Y-71170000D01*
X94077666Y-71236666D01*
X94144333Y-71303333D01*
X94177666Y-71370000D01*
X93977666Y-70536666D02*
X93977666Y-70470000D01*
X94011000Y-70403333D01*
X94044333Y-70370000D01*
X94111000Y-70336666D01*
X94244333Y-70303333D01*
X94411000Y-70303333D01*
X94544333Y-70336666D01*
X94611000Y-70370000D01*
X94644333Y-70403333D01*
X94677666Y-70470000D01*
X94677666Y-70536666D01*
X94644333Y-70603333D01*
X94611000Y-70636666D01*
X94544333Y-70670000D01*
X94411000Y-70703333D01*
X94244333Y-70703333D01*
X94111000Y-70670000D01*
X94044333Y-70636666D01*
X94011000Y-70603333D01*
X93977666Y-70536666D01*
X94044333Y-70036666D02*
X94011000Y-70003333D01*
X93977666Y-69936666D01*
X93977666Y-69770000D01*
X94011000Y-69703333D01*
X94044333Y-69670000D01*
X94111000Y-69636666D01*
X94177666Y-69636666D01*
X94277666Y-69670000D01*
X94677666Y-70070000D01*
X94677666Y-69636666D01*
X93522000Y-72020000D02*
X93522000Y-71486666D01*
X93788666Y-71753333D02*
X93255333Y-71753333D01*
X93088666Y-70820000D02*
X93088666Y-71153333D01*
X93422000Y-71186666D01*
X93388666Y-71153333D01*
X93355333Y-71086666D01*
X93355333Y-70920000D01*
X93388666Y-70853333D01*
X93422000Y-70820000D01*
X93488666Y-70786666D01*
X93655333Y-70786666D01*
X93722000Y-70820000D01*
X93755333Y-70853333D01*
X93788666Y-70920000D01*
X93788666Y-71086666D01*
X93755333Y-71153333D01*
X93722000Y-71186666D01*
X93088666Y-70586666D02*
X93788666Y-70353333D01*
X93088666Y-70120000D01*
G04 #@! TO.C,TP151*
X93977666Y-67590000D02*
X93977666Y-67190000D01*
X94677666Y-67390000D02*
X93977666Y-67390000D01*
X94677666Y-66956666D02*
X93977666Y-66956666D01*
X93977666Y-66690000D01*
X94011000Y-66623333D01*
X94044333Y-66590000D01*
X94111000Y-66556666D01*
X94211000Y-66556666D01*
X94277666Y-66590000D01*
X94311000Y-66623333D01*
X94344333Y-66690000D01*
X94344333Y-66956666D01*
X94677666Y-65890000D02*
X94677666Y-66290000D01*
X94677666Y-66090000D02*
X93977666Y-66090000D01*
X94077666Y-66156666D01*
X94144333Y-66223333D01*
X94177666Y-66290000D01*
X93977666Y-65256666D02*
X93977666Y-65590000D01*
X94311000Y-65623333D01*
X94277666Y-65590000D01*
X94244333Y-65523333D01*
X94244333Y-65356666D01*
X94277666Y-65290000D01*
X94311000Y-65256666D01*
X94377666Y-65223333D01*
X94544333Y-65223333D01*
X94611000Y-65256666D01*
X94644333Y-65290000D01*
X94677666Y-65356666D01*
X94677666Y-65523333D01*
X94644333Y-65590000D01*
X94611000Y-65623333D01*
X94677666Y-64556666D02*
X94677666Y-64956666D01*
X94677666Y-64756666D02*
X93977666Y-64756666D01*
X94077666Y-64823333D01*
X94144333Y-64890000D01*
X94177666Y-64956666D01*
X93122000Y-66573333D02*
X93088666Y-66640000D01*
X93088666Y-66740000D01*
X93122000Y-66840000D01*
X93188666Y-66906666D01*
X93255333Y-66940000D01*
X93388666Y-66973333D01*
X93488666Y-66973333D01*
X93622000Y-66940000D01*
X93688666Y-66906666D01*
X93755333Y-66840000D01*
X93788666Y-66740000D01*
X93788666Y-66673333D01*
X93755333Y-66573333D01*
X93722000Y-66540000D01*
X93488666Y-66540000D01*
X93488666Y-66673333D01*
X93788666Y-66240000D02*
X93088666Y-66240000D01*
X93788666Y-65840000D01*
X93088666Y-65840000D01*
X93788666Y-65506666D02*
X93088666Y-65506666D01*
X93088666Y-65340000D01*
X93122000Y-65240000D01*
X93188666Y-65173333D01*
X93255333Y-65140000D01*
X93388666Y-65106666D01*
X93488666Y-65106666D01*
X93622000Y-65140000D01*
X93688666Y-65173333D01*
X93755333Y-65240000D01*
X93788666Y-65340000D01*
X93788666Y-65506666D01*
G04 #@! TO.C,TP152*
X93977666Y-77750000D02*
X93977666Y-77350000D01*
X94677666Y-77550000D02*
X93977666Y-77550000D01*
X94677666Y-77116666D02*
X93977666Y-77116666D01*
X93977666Y-76850000D01*
X94011000Y-76783333D01*
X94044333Y-76750000D01*
X94111000Y-76716666D01*
X94211000Y-76716666D01*
X94277666Y-76750000D01*
X94311000Y-76783333D01*
X94344333Y-76850000D01*
X94344333Y-77116666D01*
X94677666Y-76050000D02*
X94677666Y-76450000D01*
X94677666Y-76250000D02*
X93977666Y-76250000D01*
X94077666Y-76316666D01*
X94144333Y-76383333D01*
X94177666Y-76450000D01*
X93977666Y-75416666D02*
X93977666Y-75750000D01*
X94311000Y-75783333D01*
X94277666Y-75750000D01*
X94244333Y-75683333D01*
X94244333Y-75516666D01*
X94277666Y-75450000D01*
X94311000Y-75416666D01*
X94377666Y-75383333D01*
X94544333Y-75383333D01*
X94611000Y-75416666D01*
X94644333Y-75450000D01*
X94677666Y-75516666D01*
X94677666Y-75683333D01*
X94644333Y-75750000D01*
X94611000Y-75783333D01*
X94044333Y-75116666D02*
X94011000Y-75083333D01*
X93977666Y-75016666D01*
X93977666Y-74850000D01*
X94011000Y-74783333D01*
X94044333Y-74750000D01*
X94111000Y-74716666D01*
X94177666Y-74716666D01*
X94277666Y-74750000D01*
X94677666Y-75150000D01*
X94677666Y-74716666D01*
X93122000Y-76733333D02*
X93088666Y-76800000D01*
X93088666Y-76900000D01*
X93122000Y-77000000D01*
X93188666Y-77066666D01*
X93255333Y-77100000D01*
X93388666Y-77133333D01*
X93488666Y-77133333D01*
X93622000Y-77100000D01*
X93688666Y-77066666D01*
X93755333Y-77000000D01*
X93788666Y-76900000D01*
X93788666Y-76833333D01*
X93755333Y-76733333D01*
X93722000Y-76700000D01*
X93488666Y-76700000D01*
X93488666Y-76833333D01*
X93788666Y-76400000D02*
X93088666Y-76400000D01*
X93788666Y-76000000D01*
X93088666Y-76000000D01*
X93788666Y-75666666D02*
X93088666Y-75666666D01*
X93088666Y-75500000D01*
X93122000Y-75400000D01*
X93188666Y-75333333D01*
X93255333Y-75300000D01*
X93388666Y-75266666D01*
X93488666Y-75266666D01*
X93622000Y-75300000D01*
X93688666Y-75333333D01*
X93755333Y-75400000D01*
X93788666Y-75500000D01*
X93788666Y-75666666D01*
G04 #@! TO.C,TP153*
X93977666Y-95530000D02*
X93977666Y-95130000D01*
X94677666Y-95330000D02*
X93977666Y-95330000D01*
X94677666Y-94896666D02*
X93977666Y-94896666D01*
X93977666Y-94630000D01*
X94011000Y-94563333D01*
X94044333Y-94530000D01*
X94111000Y-94496666D01*
X94211000Y-94496666D01*
X94277666Y-94530000D01*
X94311000Y-94563333D01*
X94344333Y-94630000D01*
X94344333Y-94896666D01*
X94677666Y-93830000D02*
X94677666Y-94230000D01*
X94677666Y-94030000D02*
X93977666Y-94030000D01*
X94077666Y-94096666D01*
X94144333Y-94163333D01*
X94177666Y-94230000D01*
X93977666Y-93196666D02*
X93977666Y-93530000D01*
X94311000Y-93563333D01*
X94277666Y-93530000D01*
X94244333Y-93463333D01*
X94244333Y-93296666D01*
X94277666Y-93230000D01*
X94311000Y-93196666D01*
X94377666Y-93163333D01*
X94544333Y-93163333D01*
X94611000Y-93196666D01*
X94644333Y-93230000D01*
X94677666Y-93296666D01*
X94677666Y-93463333D01*
X94644333Y-93530000D01*
X94611000Y-93563333D01*
X93977666Y-92930000D02*
X93977666Y-92496666D01*
X94244333Y-92730000D01*
X94244333Y-92630000D01*
X94277666Y-92563333D01*
X94311000Y-92530000D01*
X94377666Y-92496666D01*
X94544333Y-92496666D01*
X94611000Y-92530000D01*
X94644333Y-92563333D01*
X94677666Y-92630000D01*
X94677666Y-92830000D01*
X94644333Y-92896666D01*
X94611000Y-92930000D01*
X93122000Y-94513333D02*
X93088666Y-94580000D01*
X93088666Y-94680000D01*
X93122000Y-94780000D01*
X93188666Y-94846666D01*
X93255333Y-94880000D01*
X93388666Y-94913333D01*
X93488666Y-94913333D01*
X93622000Y-94880000D01*
X93688666Y-94846666D01*
X93755333Y-94780000D01*
X93788666Y-94680000D01*
X93788666Y-94613333D01*
X93755333Y-94513333D01*
X93722000Y-94480000D01*
X93488666Y-94480000D01*
X93488666Y-94613333D01*
X93788666Y-94180000D02*
X93088666Y-94180000D01*
X93788666Y-93780000D01*
X93088666Y-93780000D01*
X93788666Y-93446666D02*
X93088666Y-93446666D01*
X93088666Y-93280000D01*
X93122000Y-93180000D01*
X93188666Y-93113333D01*
X93255333Y-93080000D01*
X93388666Y-93046666D01*
X93488666Y-93046666D01*
X93622000Y-93080000D01*
X93688666Y-93113333D01*
X93755333Y-93180000D01*
X93788666Y-93280000D01*
X93788666Y-93446666D01*
G04 #@! TO.C,TP201*
X154660000Y-100835666D02*
X155060000Y-100835666D01*
X154860000Y-101535666D02*
X154860000Y-100835666D01*
X155293333Y-101535666D02*
X155293333Y-100835666D01*
X155560000Y-100835666D01*
X155626666Y-100869000D01*
X155660000Y-100902333D01*
X155693333Y-100969000D01*
X155693333Y-101069000D01*
X155660000Y-101135666D01*
X155626666Y-101169000D01*
X155560000Y-101202333D01*
X155293333Y-101202333D01*
X155960000Y-100902333D02*
X155993333Y-100869000D01*
X156060000Y-100835666D01*
X156226666Y-100835666D01*
X156293333Y-100869000D01*
X156326666Y-100902333D01*
X156360000Y-100969000D01*
X156360000Y-101035666D01*
X156326666Y-101135666D01*
X155926666Y-101535666D01*
X156360000Y-101535666D01*
X156793333Y-100835666D02*
X156860000Y-100835666D01*
X156926666Y-100869000D01*
X156960000Y-100902333D01*
X156993333Y-100969000D01*
X157026666Y-101102333D01*
X157026666Y-101269000D01*
X156993333Y-101402333D01*
X156960000Y-101469000D01*
X156926666Y-101502333D01*
X156860000Y-101535666D01*
X156793333Y-101535666D01*
X156726666Y-101502333D01*
X156693333Y-101469000D01*
X156660000Y-101402333D01*
X156626666Y-101269000D01*
X156626666Y-101102333D01*
X156660000Y-100969000D01*
X156693333Y-100902333D01*
X156726666Y-100869000D01*
X156793333Y-100835666D01*
X157693333Y-101535666D02*
X157293333Y-101535666D01*
X157493333Y-101535666D02*
X157493333Y-100835666D01*
X157426666Y-100935666D01*
X157360000Y-101002333D01*
X157293333Y-101035666D01*
X155560000Y-102424666D02*
X155326666Y-102091333D01*
X155160000Y-102424666D02*
X155160000Y-101724666D01*
X155426666Y-101724666D01*
X155493333Y-101758000D01*
X155526666Y-101791333D01*
X155560000Y-101858000D01*
X155560000Y-101958000D01*
X155526666Y-102024666D01*
X155493333Y-102058000D01*
X155426666Y-102091333D01*
X155160000Y-102091333D01*
X155793333Y-101724666D02*
X156260000Y-102424666D01*
X156260000Y-101724666D02*
X155793333Y-102424666D01*
X156360000Y-102491333D02*
X156893333Y-102491333D01*
X156960000Y-101724666D02*
X157360000Y-101724666D01*
X157160000Y-102424666D02*
X157160000Y-101724666D01*
G04 #@! TO.C,TP202*
X141960000Y-100835666D02*
X142360000Y-100835666D01*
X142160000Y-101535666D02*
X142160000Y-100835666D01*
X142593333Y-101535666D02*
X142593333Y-100835666D01*
X142860000Y-100835666D01*
X142926666Y-100869000D01*
X142960000Y-100902333D01*
X142993333Y-100969000D01*
X142993333Y-101069000D01*
X142960000Y-101135666D01*
X142926666Y-101169000D01*
X142860000Y-101202333D01*
X142593333Y-101202333D01*
X143260000Y-100902333D02*
X143293333Y-100869000D01*
X143360000Y-100835666D01*
X143526666Y-100835666D01*
X143593333Y-100869000D01*
X143626666Y-100902333D01*
X143660000Y-100969000D01*
X143660000Y-101035666D01*
X143626666Y-101135666D01*
X143226666Y-101535666D01*
X143660000Y-101535666D01*
X144093333Y-100835666D02*
X144160000Y-100835666D01*
X144226666Y-100869000D01*
X144260000Y-100902333D01*
X144293333Y-100969000D01*
X144326666Y-101102333D01*
X144326666Y-101269000D01*
X144293333Y-101402333D01*
X144260000Y-101469000D01*
X144226666Y-101502333D01*
X144160000Y-101535666D01*
X144093333Y-101535666D01*
X144026666Y-101502333D01*
X143993333Y-101469000D01*
X143960000Y-101402333D01*
X143926666Y-101269000D01*
X143926666Y-101102333D01*
X143960000Y-100969000D01*
X143993333Y-100902333D01*
X144026666Y-100869000D01*
X144093333Y-100835666D01*
X144593333Y-100902333D02*
X144626666Y-100869000D01*
X144693333Y-100835666D01*
X144860000Y-100835666D01*
X144926666Y-100869000D01*
X144960000Y-100902333D01*
X144993333Y-100969000D01*
X144993333Y-101035666D01*
X144960000Y-101135666D01*
X144560000Y-101535666D01*
X144993333Y-101535666D01*
X141993333Y-102424666D02*
X141993333Y-101724666D01*
X142260000Y-101724666D01*
X142326666Y-101758000D01*
X142360000Y-101791333D01*
X142393333Y-101858000D01*
X142393333Y-101958000D01*
X142360000Y-102024666D01*
X142326666Y-102058000D01*
X142260000Y-102091333D01*
X141993333Y-102091333D01*
X142626666Y-101724666D02*
X142793333Y-102424666D01*
X142926666Y-101924666D01*
X143060000Y-102424666D01*
X143226666Y-101724666D01*
X143493333Y-102424666D02*
X143493333Y-101724666D01*
X143726666Y-102224666D01*
X143960000Y-101724666D01*
X143960000Y-102424666D01*
X144126666Y-102491333D02*
X144660000Y-102491333D01*
X144726666Y-101724666D02*
X145126666Y-101724666D01*
X144926666Y-102424666D02*
X144926666Y-101724666D01*
G04 #@! TO.C,TP251*
X161010000Y-100835666D02*
X161410000Y-100835666D01*
X161210000Y-101535666D02*
X161210000Y-100835666D01*
X161643333Y-101535666D02*
X161643333Y-100835666D01*
X161910000Y-100835666D01*
X161976666Y-100869000D01*
X162010000Y-100902333D01*
X162043333Y-100969000D01*
X162043333Y-101069000D01*
X162010000Y-101135666D01*
X161976666Y-101169000D01*
X161910000Y-101202333D01*
X161643333Y-101202333D01*
X162310000Y-100902333D02*
X162343333Y-100869000D01*
X162410000Y-100835666D01*
X162576666Y-100835666D01*
X162643333Y-100869000D01*
X162676666Y-100902333D01*
X162710000Y-100969000D01*
X162710000Y-101035666D01*
X162676666Y-101135666D01*
X162276666Y-101535666D01*
X162710000Y-101535666D01*
X163343333Y-100835666D02*
X163010000Y-100835666D01*
X162976666Y-101169000D01*
X163010000Y-101135666D01*
X163076666Y-101102333D01*
X163243333Y-101102333D01*
X163310000Y-101135666D01*
X163343333Y-101169000D01*
X163376666Y-101235666D01*
X163376666Y-101402333D01*
X163343333Y-101469000D01*
X163310000Y-101502333D01*
X163243333Y-101535666D01*
X163076666Y-101535666D01*
X163010000Y-101502333D01*
X162976666Y-101469000D01*
X164043333Y-101535666D02*
X163643333Y-101535666D01*
X163843333Y-101535666D02*
X163843333Y-100835666D01*
X163776666Y-100935666D01*
X163710000Y-101002333D01*
X163643333Y-101035666D01*
X162026666Y-101758000D02*
X161960000Y-101724666D01*
X161860000Y-101724666D01*
X161760000Y-101758000D01*
X161693333Y-101824666D01*
X161660000Y-101891333D01*
X161626666Y-102024666D01*
X161626666Y-102124666D01*
X161660000Y-102258000D01*
X161693333Y-102324666D01*
X161760000Y-102391333D01*
X161860000Y-102424666D01*
X161926666Y-102424666D01*
X162026666Y-102391333D01*
X162060000Y-102358000D01*
X162060000Y-102124666D01*
X161926666Y-102124666D01*
X162360000Y-102424666D02*
X162360000Y-101724666D01*
X162760000Y-102424666D01*
X162760000Y-101724666D01*
X163093333Y-102424666D02*
X163093333Y-101724666D01*
X163260000Y-101724666D01*
X163360000Y-101758000D01*
X163426666Y-101824666D01*
X163460000Y-101891333D01*
X163493333Y-102024666D01*
X163493333Y-102124666D01*
X163460000Y-102258000D01*
X163426666Y-102324666D01*
X163360000Y-102391333D01*
X163260000Y-102424666D01*
X163093333Y-102424666D01*
G04 #@! TO.C,TP301*
X117830000Y-66037666D02*
X118230000Y-66037666D01*
X118030000Y-66737666D02*
X118030000Y-66037666D01*
X118463333Y-66737666D02*
X118463333Y-66037666D01*
X118730000Y-66037666D01*
X118796666Y-66071000D01*
X118830000Y-66104333D01*
X118863333Y-66171000D01*
X118863333Y-66271000D01*
X118830000Y-66337666D01*
X118796666Y-66371000D01*
X118730000Y-66404333D01*
X118463333Y-66404333D01*
X119096666Y-66037666D02*
X119530000Y-66037666D01*
X119296666Y-66304333D01*
X119396666Y-66304333D01*
X119463333Y-66337666D01*
X119496666Y-66371000D01*
X119530000Y-66437666D01*
X119530000Y-66604333D01*
X119496666Y-66671000D01*
X119463333Y-66704333D01*
X119396666Y-66737666D01*
X119196666Y-66737666D01*
X119130000Y-66704333D01*
X119096666Y-66671000D01*
X119963333Y-66037666D02*
X120030000Y-66037666D01*
X120096666Y-66071000D01*
X120130000Y-66104333D01*
X120163333Y-66171000D01*
X120196666Y-66304333D01*
X120196666Y-66471000D01*
X120163333Y-66604333D01*
X120130000Y-66671000D01*
X120096666Y-66704333D01*
X120030000Y-66737666D01*
X119963333Y-66737666D01*
X119896666Y-66704333D01*
X119863333Y-66671000D01*
X119830000Y-66604333D01*
X119796666Y-66471000D01*
X119796666Y-66304333D01*
X119830000Y-66171000D01*
X119863333Y-66104333D01*
X119896666Y-66071000D01*
X119963333Y-66037666D01*
X120863333Y-66737666D02*
X120463333Y-66737666D01*
X120663333Y-66737666D02*
X120663333Y-66037666D01*
X120596666Y-66137666D01*
X120530000Y-66204333D01*
X120463333Y-66237666D01*
X118496666Y-65848666D02*
X118496666Y-65148666D01*
X118896666Y-65848666D01*
X118896666Y-65148666D01*
X119630000Y-65848666D02*
X119396666Y-65515333D01*
X119230000Y-65848666D02*
X119230000Y-65148666D01*
X119496666Y-65148666D01*
X119563333Y-65182000D01*
X119596666Y-65215333D01*
X119630000Y-65282000D01*
X119630000Y-65382000D01*
X119596666Y-65448666D01*
X119563333Y-65482000D01*
X119496666Y-65515333D01*
X119230000Y-65515333D01*
X119863333Y-65148666D02*
X120330000Y-65848666D01*
X120330000Y-65148666D02*
X119863333Y-65848666D01*
G04 #@! TO.C,TP302*
X110210000Y-56385666D02*
X110610000Y-56385666D01*
X110410000Y-57085666D02*
X110410000Y-56385666D01*
X110843333Y-57085666D02*
X110843333Y-56385666D01*
X111110000Y-56385666D01*
X111176666Y-56419000D01*
X111210000Y-56452333D01*
X111243333Y-56519000D01*
X111243333Y-56619000D01*
X111210000Y-56685666D01*
X111176666Y-56719000D01*
X111110000Y-56752333D01*
X110843333Y-56752333D01*
X111476666Y-56385666D02*
X111910000Y-56385666D01*
X111676666Y-56652333D01*
X111776666Y-56652333D01*
X111843333Y-56685666D01*
X111876666Y-56719000D01*
X111910000Y-56785666D01*
X111910000Y-56952333D01*
X111876666Y-57019000D01*
X111843333Y-57052333D01*
X111776666Y-57085666D01*
X111576666Y-57085666D01*
X111510000Y-57052333D01*
X111476666Y-57019000D01*
X112343333Y-56385666D02*
X112410000Y-56385666D01*
X112476666Y-56419000D01*
X112510000Y-56452333D01*
X112543333Y-56519000D01*
X112576666Y-56652333D01*
X112576666Y-56819000D01*
X112543333Y-56952333D01*
X112510000Y-57019000D01*
X112476666Y-57052333D01*
X112410000Y-57085666D01*
X112343333Y-57085666D01*
X112276666Y-57052333D01*
X112243333Y-57019000D01*
X112210000Y-56952333D01*
X112176666Y-56819000D01*
X112176666Y-56652333D01*
X112210000Y-56519000D01*
X112243333Y-56452333D01*
X112276666Y-56419000D01*
X112343333Y-56385666D01*
X112843333Y-56452333D02*
X112876666Y-56419000D01*
X112943333Y-56385666D01*
X113110000Y-56385666D01*
X113176666Y-56419000D01*
X113210000Y-56452333D01*
X113243333Y-56519000D01*
X113243333Y-56585666D01*
X113210000Y-56685666D01*
X112810000Y-57085666D01*
X113243333Y-57085666D01*
X110976666Y-57774666D02*
X111310000Y-57774666D01*
X110910000Y-57974666D02*
X111143333Y-57274666D01*
X111376666Y-57974666D01*
X111443333Y-58041333D02*
X111976666Y-58041333D01*
X112143333Y-57974666D02*
X112143333Y-57274666D01*
X112310000Y-57274666D01*
X112410000Y-57308000D01*
X112476666Y-57374666D01*
X112510000Y-57441333D01*
X112543333Y-57574666D01*
X112543333Y-57674666D01*
X112510000Y-57808000D01*
X112476666Y-57874666D01*
X112410000Y-57941333D01*
X112310000Y-57974666D01*
X112143333Y-57974666D01*
G04 #@! TO.C,TP303*
X100050000Y-56385666D02*
X100450000Y-56385666D01*
X100250000Y-57085666D02*
X100250000Y-56385666D01*
X100683333Y-57085666D02*
X100683333Y-56385666D01*
X100950000Y-56385666D01*
X101016666Y-56419000D01*
X101050000Y-56452333D01*
X101083333Y-56519000D01*
X101083333Y-56619000D01*
X101050000Y-56685666D01*
X101016666Y-56719000D01*
X100950000Y-56752333D01*
X100683333Y-56752333D01*
X101316666Y-56385666D02*
X101750000Y-56385666D01*
X101516666Y-56652333D01*
X101616666Y-56652333D01*
X101683333Y-56685666D01*
X101716666Y-56719000D01*
X101750000Y-56785666D01*
X101750000Y-56952333D01*
X101716666Y-57019000D01*
X101683333Y-57052333D01*
X101616666Y-57085666D01*
X101416666Y-57085666D01*
X101350000Y-57052333D01*
X101316666Y-57019000D01*
X102183333Y-56385666D02*
X102250000Y-56385666D01*
X102316666Y-56419000D01*
X102350000Y-56452333D01*
X102383333Y-56519000D01*
X102416666Y-56652333D01*
X102416666Y-56819000D01*
X102383333Y-56952333D01*
X102350000Y-57019000D01*
X102316666Y-57052333D01*
X102250000Y-57085666D01*
X102183333Y-57085666D01*
X102116666Y-57052333D01*
X102083333Y-57019000D01*
X102050000Y-56952333D01*
X102016666Y-56819000D01*
X102016666Y-56652333D01*
X102050000Y-56519000D01*
X102083333Y-56452333D01*
X102116666Y-56419000D01*
X102183333Y-56385666D01*
X102650000Y-56385666D02*
X103083333Y-56385666D01*
X102850000Y-56652333D01*
X102950000Y-56652333D01*
X103016666Y-56685666D01*
X103050000Y-56719000D01*
X103083333Y-56785666D01*
X103083333Y-56952333D01*
X103050000Y-57019000D01*
X103016666Y-57052333D01*
X102950000Y-57085666D01*
X102750000Y-57085666D01*
X102683333Y-57052333D01*
X102650000Y-57019000D01*
X101200000Y-57908000D02*
X101166666Y-57941333D01*
X101066666Y-57974666D01*
X101000000Y-57974666D01*
X100900000Y-57941333D01*
X100833333Y-57874666D01*
X100800000Y-57808000D01*
X100766666Y-57674666D01*
X100766666Y-57574666D01*
X100800000Y-57441333D01*
X100833333Y-57374666D01*
X100900000Y-57308000D01*
X101000000Y-57274666D01*
X101066666Y-57274666D01*
X101166666Y-57308000D01*
X101200000Y-57341333D01*
X101333333Y-58041333D02*
X101866666Y-58041333D01*
X102033333Y-57974666D02*
X102033333Y-57274666D01*
X102200000Y-57274666D01*
X102300000Y-57308000D01*
X102366666Y-57374666D01*
X102400000Y-57441333D01*
X102433333Y-57574666D01*
X102433333Y-57674666D01*
X102400000Y-57808000D01*
X102366666Y-57874666D01*
X102300000Y-57941333D01*
X102200000Y-57974666D01*
X102033333Y-57974666D01*
G04 #@! TO.C,TP311*
X177035666Y-68860000D02*
X177035666Y-68460000D01*
X177735666Y-68660000D02*
X177035666Y-68660000D01*
X177735666Y-68226666D02*
X177035666Y-68226666D01*
X177035666Y-67960000D01*
X177069000Y-67893333D01*
X177102333Y-67860000D01*
X177169000Y-67826666D01*
X177269000Y-67826666D01*
X177335666Y-67860000D01*
X177369000Y-67893333D01*
X177402333Y-67960000D01*
X177402333Y-68226666D01*
X177035666Y-67593333D02*
X177035666Y-67160000D01*
X177302333Y-67393333D01*
X177302333Y-67293333D01*
X177335666Y-67226666D01*
X177369000Y-67193333D01*
X177435666Y-67160000D01*
X177602333Y-67160000D01*
X177669000Y-67193333D01*
X177702333Y-67226666D01*
X177735666Y-67293333D01*
X177735666Y-67493333D01*
X177702333Y-67560000D01*
X177669000Y-67593333D01*
X177735666Y-66493333D02*
X177735666Y-66893333D01*
X177735666Y-66693333D02*
X177035666Y-66693333D01*
X177135666Y-66760000D01*
X177202333Y-66826666D01*
X177235666Y-66893333D01*
X177735666Y-65826666D02*
X177735666Y-66226666D01*
X177735666Y-66026666D02*
X177035666Y-66026666D01*
X177135666Y-66093333D01*
X177202333Y-66160000D01*
X177235666Y-66226666D01*
X178624666Y-68293333D02*
X177924666Y-68293333D01*
X177924666Y-68026666D01*
X177958000Y-67960000D01*
X177991333Y-67926666D01*
X178058000Y-67893333D01*
X178158000Y-67893333D01*
X178224666Y-67926666D01*
X178258000Y-67960000D01*
X178291333Y-68026666D01*
X178291333Y-68293333D01*
X177924666Y-67660000D02*
X178624666Y-67493333D01*
X178124666Y-67360000D01*
X178624666Y-67226666D01*
X177924666Y-67060000D01*
X178624666Y-66793333D02*
X177924666Y-66793333D01*
X178424666Y-66560000D01*
X177924666Y-66326666D01*
X178624666Y-66326666D01*
G04 #@! TO.C,TP351*
X117830000Y-75435666D02*
X118230000Y-75435666D01*
X118030000Y-76135666D02*
X118030000Y-75435666D01*
X118463333Y-76135666D02*
X118463333Y-75435666D01*
X118730000Y-75435666D01*
X118796666Y-75469000D01*
X118830000Y-75502333D01*
X118863333Y-75569000D01*
X118863333Y-75669000D01*
X118830000Y-75735666D01*
X118796666Y-75769000D01*
X118730000Y-75802333D01*
X118463333Y-75802333D01*
X119096666Y-75435666D02*
X119530000Y-75435666D01*
X119296666Y-75702333D01*
X119396666Y-75702333D01*
X119463333Y-75735666D01*
X119496666Y-75769000D01*
X119530000Y-75835666D01*
X119530000Y-76002333D01*
X119496666Y-76069000D01*
X119463333Y-76102333D01*
X119396666Y-76135666D01*
X119196666Y-76135666D01*
X119130000Y-76102333D01*
X119096666Y-76069000D01*
X120163333Y-75435666D02*
X119830000Y-75435666D01*
X119796666Y-75769000D01*
X119830000Y-75735666D01*
X119896666Y-75702333D01*
X120063333Y-75702333D01*
X120130000Y-75735666D01*
X120163333Y-75769000D01*
X120196666Y-75835666D01*
X120196666Y-76002333D01*
X120163333Y-76069000D01*
X120130000Y-76102333D01*
X120063333Y-76135666D01*
X119896666Y-76135666D01*
X119830000Y-76102333D01*
X119796666Y-76069000D01*
X120863333Y-76135666D02*
X120463333Y-76135666D01*
X120663333Y-76135666D02*
X120663333Y-75435666D01*
X120596666Y-75535666D01*
X120530000Y-75602333D01*
X120463333Y-75635666D01*
X118846666Y-76358000D02*
X118780000Y-76324666D01*
X118680000Y-76324666D01*
X118580000Y-76358000D01*
X118513333Y-76424666D01*
X118480000Y-76491333D01*
X118446666Y-76624666D01*
X118446666Y-76724666D01*
X118480000Y-76858000D01*
X118513333Y-76924666D01*
X118580000Y-76991333D01*
X118680000Y-77024666D01*
X118746666Y-77024666D01*
X118846666Y-76991333D01*
X118880000Y-76958000D01*
X118880000Y-76724666D01*
X118746666Y-76724666D01*
X119180000Y-77024666D02*
X119180000Y-76324666D01*
X119580000Y-77024666D01*
X119580000Y-76324666D01*
X119913333Y-77024666D02*
X119913333Y-76324666D01*
X120080000Y-76324666D01*
X120180000Y-76358000D01*
X120246666Y-76424666D01*
X120280000Y-76491333D01*
X120313333Y-76624666D01*
X120313333Y-76724666D01*
X120280000Y-76858000D01*
X120246666Y-76924666D01*
X120180000Y-76991333D01*
X120080000Y-77024666D01*
X119913333Y-77024666D01*
G04 #@! TO.C,TP352*
X105130000Y-56385666D02*
X105530000Y-56385666D01*
X105330000Y-57085666D02*
X105330000Y-56385666D01*
X105763333Y-57085666D02*
X105763333Y-56385666D01*
X106030000Y-56385666D01*
X106096666Y-56419000D01*
X106130000Y-56452333D01*
X106163333Y-56519000D01*
X106163333Y-56619000D01*
X106130000Y-56685666D01*
X106096666Y-56719000D01*
X106030000Y-56752333D01*
X105763333Y-56752333D01*
X106396666Y-56385666D02*
X106830000Y-56385666D01*
X106596666Y-56652333D01*
X106696666Y-56652333D01*
X106763333Y-56685666D01*
X106796666Y-56719000D01*
X106830000Y-56785666D01*
X106830000Y-56952333D01*
X106796666Y-57019000D01*
X106763333Y-57052333D01*
X106696666Y-57085666D01*
X106496666Y-57085666D01*
X106430000Y-57052333D01*
X106396666Y-57019000D01*
X107463333Y-56385666D02*
X107130000Y-56385666D01*
X107096666Y-56719000D01*
X107130000Y-56685666D01*
X107196666Y-56652333D01*
X107363333Y-56652333D01*
X107430000Y-56685666D01*
X107463333Y-56719000D01*
X107496666Y-56785666D01*
X107496666Y-56952333D01*
X107463333Y-57019000D01*
X107430000Y-57052333D01*
X107363333Y-57085666D01*
X107196666Y-57085666D01*
X107130000Y-57052333D01*
X107096666Y-57019000D01*
X107763333Y-56452333D02*
X107796666Y-56419000D01*
X107863333Y-56385666D01*
X108030000Y-56385666D01*
X108096666Y-56419000D01*
X108130000Y-56452333D01*
X108163333Y-56519000D01*
X108163333Y-56585666D01*
X108130000Y-56685666D01*
X107730000Y-57085666D01*
X108163333Y-57085666D01*
X106146666Y-57308000D02*
X106080000Y-57274666D01*
X105980000Y-57274666D01*
X105880000Y-57308000D01*
X105813333Y-57374666D01*
X105780000Y-57441333D01*
X105746666Y-57574666D01*
X105746666Y-57674666D01*
X105780000Y-57808000D01*
X105813333Y-57874666D01*
X105880000Y-57941333D01*
X105980000Y-57974666D01*
X106046666Y-57974666D01*
X106146666Y-57941333D01*
X106180000Y-57908000D01*
X106180000Y-57674666D01*
X106046666Y-57674666D01*
X106480000Y-57974666D02*
X106480000Y-57274666D01*
X106880000Y-57974666D01*
X106880000Y-57274666D01*
X107213333Y-57974666D02*
X107213333Y-57274666D01*
X107380000Y-57274666D01*
X107480000Y-57308000D01*
X107546666Y-57374666D01*
X107580000Y-57441333D01*
X107613333Y-57574666D01*
X107613333Y-57674666D01*
X107580000Y-57808000D01*
X107546666Y-57874666D01*
X107480000Y-57941333D01*
X107380000Y-57974666D01*
X107213333Y-57974666D01*
G04 #@! TO.C,TP361*
X177035666Y-73940000D02*
X177035666Y-73540000D01*
X177735666Y-73740000D02*
X177035666Y-73740000D01*
X177735666Y-73306666D02*
X177035666Y-73306666D01*
X177035666Y-73040000D01*
X177069000Y-72973333D01*
X177102333Y-72940000D01*
X177169000Y-72906666D01*
X177269000Y-72906666D01*
X177335666Y-72940000D01*
X177369000Y-72973333D01*
X177402333Y-73040000D01*
X177402333Y-73306666D01*
X177035666Y-72673333D02*
X177035666Y-72240000D01*
X177302333Y-72473333D01*
X177302333Y-72373333D01*
X177335666Y-72306666D01*
X177369000Y-72273333D01*
X177435666Y-72240000D01*
X177602333Y-72240000D01*
X177669000Y-72273333D01*
X177702333Y-72306666D01*
X177735666Y-72373333D01*
X177735666Y-72573333D01*
X177702333Y-72640000D01*
X177669000Y-72673333D01*
X177035666Y-71640000D02*
X177035666Y-71773333D01*
X177069000Y-71840000D01*
X177102333Y-71873333D01*
X177202333Y-71940000D01*
X177335666Y-71973333D01*
X177602333Y-71973333D01*
X177669000Y-71940000D01*
X177702333Y-71906666D01*
X177735666Y-71840000D01*
X177735666Y-71706666D01*
X177702333Y-71640000D01*
X177669000Y-71606666D01*
X177602333Y-71573333D01*
X177435666Y-71573333D01*
X177369000Y-71606666D01*
X177335666Y-71640000D01*
X177302333Y-71706666D01*
X177302333Y-71840000D01*
X177335666Y-71906666D01*
X177369000Y-71940000D01*
X177435666Y-71973333D01*
X177735666Y-70906666D02*
X177735666Y-71306666D01*
X177735666Y-71106666D02*
X177035666Y-71106666D01*
X177135666Y-71173333D01*
X177202333Y-71240000D01*
X177235666Y-71306666D01*
X177958000Y-72923333D02*
X177924666Y-72990000D01*
X177924666Y-73090000D01*
X177958000Y-73190000D01*
X178024666Y-73256666D01*
X178091333Y-73290000D01*
X178224666Y-73323333D01*
X178324666Y-73323333D01*
X178458000Y-73290000D01*
X178524666Y-73256666D01*
X178591333Y-73190000D01*
X178624666Y-73090000D01*
X178624666Y-73023333D01*
X178591333Y-72923333D01*
X178558000Y-72890000D01*
X178324666Y-72890000D01*
X178324666Y-73023333D01*
X178624666Y-72590000D02*
X177924666Y-72590000D01*
X178624666Y-72190000D01*
X177924666Y-72190000D01*
X178624666Y-71856666D02*
X177924666Y-71856666D01*
X177924666Y-71690000D01*
X177958000Y-71590000D01*
X178024666Y-71523333D01*
X178091333Y-71490000D01*
X178224666Y-71456666D01*
X178324666Y-71456666D01*
X178458000Y-71490000D01*
X178524666Y-71523333D01*
X178591333Y-71590000D01*
X178624666Y-71690000D01*
X178624666Y-71856666D01*
G04 #@! TO.C,TP252*
X148310000Y-100835666D02*
X148710000Y-100835666D01*
X148510000Y-101535666D02*
X148510000Y-100835666D01*
X148943333Y-101535666D02*
X148943333Y-100835666D01*
X149210000Y-100835666D01*
X149276666Y-100869000D01*
X149310000Y-100902333D01*
X149343333Y-100969000D01*
X149343333Y-101069000D01*
X149310000Y-101135666D01*
X149276666Y-101169000D01*
X149210000Y-101202333D01*
X148943333Y-101202333D01*
X149610000Y-100902333D02*
X149643333Y-100869000D01*
X149710000Y-100835666D01*
X149876666Y-100835666D01*
X149943333Y-100869000D01*
X149976666Y-100902333D01*
X150010000Y-100969000D01*
X150010000Y-101035666D01*
X149976666Y-101135666D01*
X149576666Y-101535666D01*
X150010000Y-101535666D01*
X150643333Y-100835666D02*
X150310000Y-100835666D01*
X150276666Y-101169000D01*
X150310000Y-101135666D01*
X150376666Y-101102333D01*
X150543333Y-101102333D01*
X150610000Y-101135666D01*
X150643333Y-101169000D01*
X150676666Y-101235666D01*
X150676666Y-101402333D01*
X150643333Y-101469000D01*
X150610000Y-101502333D01*
X150543333Y-101535666D01*
X150376666Y-101535666D01*
X150310000Y-101502333D01*
X150276666Y-101469000D01*
X150943333Y-100902333D02*
X150976666Y-100869000D01*
X151043333Y-100835666D01*
X151210000Y-100835666D01*
X151276666Y-100869000D01*
X151310000Y-100902333D01*
X151343333Y-100969000D01*
X151343333Y-101035666D01*
X151310000Y-101135666D01*
X150910000Y-101535666D01*
X151343333Y-101535666D01*
X149326666Y-101758000D02*
X149260000Y-101724666D01*
X149160000Y-101724666D01*
X149060000Y-101758000D01*
X148993333Y-101824666D01*
X148960000Y-101891333D01*
X148926666Y-102024666D01*
X148926666Y-102124666D01*
X148960000Y-102258000D01*
X148993333Y-102324666D01*
X149060000Y-102391333D01*
X149160000Y-102424666D01*
X149226666Y-102424666D01*
X149326666Y-102391333D01*
X149360000Y-102358000D01*
X149360000Y-102124666D01*
X149226666Y-102124666D01*
X149660000Y-102424666D02*
X149660000Y-101724666D01*
X150060000Y-102424666D01*
X150060000Y-101724666D01*
X150393333Y-102424666D02*
X150393333Y-101724666D01*
X150560000Y-101724666D01*
X150660000Y-101758000D01*
X150726666Y-101824666D01*
X150760000Y-101891333D01*
X150793333Y-102024666D01*
X150793333Y-102124666D01*
X150760000Y-102258000D01*
X150726666Y-102324666D01*
X150660000Y-102391333D01*
X150560000Y-102424666D01*
X150393333Y-102424666D01*
G04 #@! TO.C,TP101*
X93977666Y-62510000D02*
X93977666Y-62110000D01*
X94677666Y-62310000D02*
X93977666Y-62310000D01*
X94677666Y-61876666D02*
X93977666Y-61876666D01*
X93977666Y-61610000D01*
X94011000Y-61543333D01*
X94044333Y-61510000D01*
X94111000Y-61476666D01*
X94211000Y-61476666D01*
X94277666Y-61510000D01*
X94311000Y-61543333D01*
X94344333Y-61610000D01*
X94344333Y-61876666D01*
X94677666Y-60810000D02*
X94677666Y-61210000D01*
X94677666Y-61010000D02*
X93977666Y-61010000D01*
X94077666Y-61076666D01*
X94144333Y-61143333D01*
X94177666Y-61210000D01*
X93977666Y-60376666D02*
X93977666Y-60310000D01*
X94011000Y-60243333D01*
X94044333Y-60210000D01*
X94111000Y-60176666D01*
X94244333Y-60143333D01*
X94411000Y-60143333D01*
X94544333Y-60176666D01*
X94611000Y-60210000D01*
X94644333Y-60243333D01*
X94677666Y-60310000D01*
X94677666Y-60376666D01*
X94644333Y-60443333D01*
X94611000Y-60476666D01*
X94544333Y-60510000D01*
X94411000Y-60543333D01*
X94244333Y-60543333D01*
X94111000Y-60510000D01*
X94044333Y-60476666D01*
X94011000Y-60443333D01*
X93977666Y-60376666D01*
X94677666Y-59476666D02*
X94677666Y-59876666D01*
X94677666Y-59676666D02*
X93977666Y-59676666D01*
X94077666Y-59743333D01*
X94144333Y-59810000D01*
X94177666Y-59876666D01*
X93522000Y-62193333D02*
X93522000Y-61660000D01*
X93788666Y-61926666D02*
X93255333Y-61926666D01*
X93788666Y-60960000D02*
X93788666Y-61360000D01*
X93788666Y-61160000D02*
X93088666Y-61160000D01*
X93188666Y-61226666D01*
X93255333Y-61293333D01*
X93288666Y-61360000D01*
X93155333Y-60693333D02*
X93122000Y-60660000D01*
X93088666Y-60593333D01*
X93088666Y-60426666D01*
X93122000Y-60360000D01*
X93155333Y-60326666D01*
X93222000Y-60293333D01*
X93288666Y-60293333D01*
X93388666Y-60326666D01*
X93788666Y-60726666D01*
X93788666Y-60293333D01*
X93088666Y-60093333D02*
X93788666Y-59860000D01*
X93088666Y-59626666D01*
G04 #@! TO.C,C103*
D12*
X124817142Y-86209047D02*
X124864761Y-86256666D01*
X124912380Y-86399523D01*
X124912380Y-86494761D01*
X124864761Y-86637619D01*
X124769523Y-86732857D01*
X124674285Y-86780476D01*
X124483809Y-86828095D01*
X124340952Y-86828095D01*
X124150476Y-86780476D01*
X124055238Y-86732857D01*
X123960000Y-86637619D01*
X123912380Y-86494761D01*
X123912380Y-86399523D01*
X123960000Y-86256666D01*
X124007619Y-86209047D01*
X124912380Y-85256666D02*
X124912380Y-85828095D01*
X124912380Y-85542380D02*
X123912380Y-85542380D01*
X124055238Y-85637619D01*
X124150476Y-85732857D01*
X124198095Y-85828095D01*
X123912380Y-84637619D02*
X123912380Y-84542380D01*
X123960000Y-84447142D01*
X124007619Y-84399523D01*
X124102857Y-84351904D01*
X124293333Y-84304285D01*
X124531428Y-84304285D01*
X124721904Y-84351904D01*
X124817142Y-84399523D01*
X124864761Y-84447142D01*
X124912380Y-84542380D01*
X124912380Y-84637619D01*
X124864761Y-84732857D01*
X124817142Y-84780476D01*
X124721904Y-84828095D01*
X124531428Y-84875714D01*
X124293333Y-84875714D01*
X124102857Y-84828095D01*
X124007619Y-84780476D01*
X123960000Y-84732857D01*
X123912380Y-84637619D01*
X123912380Y-83970952D02*
X123912380Y-83351904D01*
X124293333Y-83685238D01*
X124293333Y-83542380D01*
X124340952Y-83447142D01*
X124388571Y-83399523D01*
X124483809Y-83351904D01*
X124721904Y-83351904D01*
X124817142Y-83399523D01*
X124864761Y-83447142D01*
X124912380Y-83542380D01*
X124912380Y-83828095D01*
X124864761Y-83923333D01*
X124817142Y-83970952D01*
G04 #@! TO.C,C203*
X137517142Y-101449047D02*
X137564761Y-101496666D01*
X137612380Y-101639523D01*
X137612380Y-101734761D01*
X137564761Y-101877619D01*
X137469523Y-101972857D01*
X137374285Y-102020476D01*
X137183809Y-102068095D01*
X137040952Y-102068095D01*
X136850476Y-102020476D01*
X136755238Y-101972857D01*
X136660000Y-101877619D01*
X136612380Y-101734761D01*
X136612380Y-101639523D01*
X136660000Y-101496666D01*
X136707619Y-101449047D01*
X136707619Y-101068095D02*
X136660000Y-101020476D01*
X136612380Y-100925238D01*
X136612380Y-100687142D01*
X136660000Y-100591904D01*
X136707619Y-100544285D01*
X136802857Y-100496666D01*
X136898095Y-100496666D01*
X137040952Y-100544285D01*
X137612380Y-101115714D01*
X137612380Y-100496666D01*
X136612380Y-99877619D02*
X136612380Y-99782380D01*
X136660000Y-99687142D01*
X136707619Y-99639523D01*
X136802857Y-99591904D01*
X136993333Y-99544285D01*
X137231428Y-99544285D01*
X137421904Y-99591904D01*
X137517142Y-99639523D01*
X137564761Y-99687142D01*
X137612380Y-99782380D01*
X137612380Y-99877619D01*
X137564761Y-99972857D01*
X137517142Y-100020476D01*
X137421904Y-100068095D01*
X137231428Y-100115714D01*
X136993333Y-100115714D01*
X136802857Y-100068095D01*
X136707619Y-100020476D01*
X136660000Y-99972857D01*
X136612380Y-99877619D01*
X136612380Y-99210952D02*
X136612380Y-98591904D01*
X136993333Y-98925238D01*
X136993333Y-98782380D01*
X137040952Y-98687142D01*
X137088571Y-98639523D01*
X137183809Y-98591904D01*
X137421904Y-98591904D01*
X137517142Y-98639523D01*
X137564761Y-98687142D01*
X137612380Y-98782380D01*
X137612380Y-99068095D01*
X137564761Y-99163333D01*
X137517142Y-99210952D01*
G04 #@! TO.C,C204*
X142342142Y-86209047D02*
X142389761Y-86256666D01*
X142437380Y-86399523D01*
X142437380Y-86494761D01*
X142389761Y-86637619D01*
X142294523Y-86732857D01*
X142199285Y-86780476D01*
X142008809Y-86828095D01*
X141865952Y-86828095D01*
X141675476Y-86780476D01*
X141580238Y-86732857D01*
X141485000Y-86637619D01*
X141437380Y-86494761D01*
X141437380Y-86399523D01*
X141485000Y-86256666D01*
X141532619Y-86209047D01*
X141532619Y-85828095D02*
X141485000Y-85780476D01*
X141437380Y-85685238D01*
X141437380Y-85447142D01*
X141485000Y-85351904D01*
X141532619Y-85304285D01*
X141627857Y-85256666D01*
X141723095Y-85256666D01*
X141865952Y-85304285D01*
X142437380Y-85875714D01*
X142437380Y-85256666D01*
X141437380Y-84637619D02*
X141437380Y-84542380D01*
X141485000Y-84447142D01*
X141532619Y-84399523D01*
X141627857Y-84351904D01*
X141818333Y-84304285D01*
X142056428Y-84304285D01*
X142246904Y-84351904D01*
X142342142Y-84399523D01*
X142389761Y-84447142D01*
X142437380Y-84542380D01*
X142437380Y-84637619D01*
X142389761Y-84732857D01*
X142342142Y-84780476D01*
X142246904Y-84828095D01*
X142056428Y-84875714D01*
X141818333Y-84875714D01*
X141627857Y-84828095D01*
X141532619Y-84780476D01*
X141485000Y-84732857D01*
X141437380Y-84637619D01*
X141770714Y-83447142D02*
X142437380Y-83447142D01*
X141389761Y-83685238D02*
X142104047Y-83923333D01*
X142104047Y-83304285D01*
G04 #@! TO.C,C301*
X127150952Y-74397142D02*
X127103333Y-74444761D01*
X126960476Y-74492380D01*
X126865238Y-74492380D01*
X126722380Y-74444761D01*
X126627142Y-74349523D01*
X126579523Y-74254285D01*
X126531904Y-74063809D01*
X126531904Y-73920952D01*
X126579523Y-73730476D01*
X126627142Y-73635238D01*
X126722380Y-73540000D01*
X126865238Y-73492380D01*
X126960476Y-73492380D01*
X127103333Y-73540000D01*
X127150952Y-73587619D01*
X127484285Y-73492380D02*
X128103333Y-73492380D01*
X127770000Y-73873333D01*
X127912857Y-73873333D01*
X128008095Y-73920952D01*
X128055714Y-73968571D01*
X128103333Y-74063809D01*
X128103333Y-74301904D01*
X128055714Y-74397142D01*
X128008095Y-74444761D01*
X127912857Y-74492380D01*
X127627142Y-74492380D01*
X127531904Y-74444761D01*
X127484285Y-74397142D01*
X128722380Y-73492380D02*
X128817619Y-73492380D01*
X128912857Y-73540000D01*
X128960476Y-73587619D01*
X129008095Y-73682857D01*
X129055714Y-73873333D01*
X129055714Y-74111428D01*
X129008095Y-74301904D01*
X128960476Y-74397142D01*
X128912857Y-74444761D01*
X128817619Y-74492380D01*
X128722380Y-74492380D01*
X128627142Y-74444761D01*
X128579523Y-74397142D01*
X128531904Y-74301904D01*
X128484285Y-74111428D01*
X128484285Y-73873333D01*
X128531904Y-73682857D01*
X128579523Y-73587619D01*
X128627142Y-73540000D01*
X128722380Y-73492380D01*
X130008095Y-74492380D02*
X129436666Y-74492380D01*
X129722380Y-74492380D02*
X129722380Y-73492380D01*
X129627142Y-73635238D01*
X129531904Y-73730476D01*
X129436666Y-73778095D01*
G04 #@! TO.C,C312*
X175997142Y-63349047D02*
X176044761Y-63396666D01*
X176092380Y-63539523D01*
X176092380Y-63634761D01*
X176044761Y-63777619D01*
X175949523Y-63872857D01*
X175854285Y-63920476D01*
X175663809Y-63968095D01*
X175520952Y-63968095D01*
X175330476Y-63920476D01*
X175235238Y-63872857D01*
X175140000Y-63777619D01*
X175092380Y-63634761D01*
X175092380Y-63539523D01*
X175140000Y-63396666D01*
X175187619Y-63349047D01*
X175092380Y-63015714D02*
X175092380Y-62396666D01*
X175473333Y-62730000D01*
X175473333Y-62587142D01*
X175520952Y-62491904D01*
X175568571Y-62444285D01*
X175663809Y-62396666D01*
X175901904Y-62396666D01*
X175997142Y-62444285D01*
X176044761Y-62491904D01*
X176092380Y-62587142D01*
X176092380Y-62872857D01*
X176044761Y-62968095D01*
X175997142Y-63015714D01*
X176092380Y-61444285D02*
X176092380Y-62015714D01*
X176092380Y-61730000D02*
X175092380Y-61730000D01*
X175235238Y-61825238D01*
X175330476Y-61920476D01*
X175378095Y-62015714D01*
X175187619Y-61063333D02*
X175140000Y-61015714D01*
X175092380Y-60920476D01*
X175092380Y-60682380D01*
X175140000Y-60587142D01*
X175187619Y-60539523D01*
X175282857Y-60491904D01*
X175378095Y-60491904D01*
X175520952Y-60539523D01*
X176092380Y-61110952D01*
X176092380Y-60491904D01*
G04 #@! TO.C,C101*
X150010952Y-66905142D02*
X149963333Y-66952761D01*
X149820476Y-67000380D01*
X149725238Y-67000380D01*
X149582380Y-66952761D01*
X149487142Y-66857523D01*
X149439523Y-66762285D01*
X149391904Y-66571809D01*
X149391904Y-66428952D01*
X149439523Y-66238476D01*
X149487142Y-66143238D01*
X149582380Y-66048000D01*
X149725238Y-66000380D01*
X149820476Y-66000380D01*
X149963333Y-66048000D01*
X150010952Y-66095619D01*
X150963333Y-67000380D02*
X150391904Y-67000380D01*
X150677619Y-67000380D02*
X150677619Y-66000380D01*
X150582380Y-66143238D01*
X150487142Y-66238476D01*
X150391904Y-66286095D01*
X151582380Y-66000380D02*
X151677619Y-66000380D01*
X151772857Y-66048000D01*
X151820476Y-66095619D01*
X151868095Y-66190857D01*
X151915714Y-66381333D01*
X151915714Y-66619428D01*
X151868095Y-66809904D01*
X151820476Y-66905142D01*
X151772857Y-66952761D01*
X151677619Y-67000380D01*
X151582380Y-67000380D01*
X151487142Y-66952761D01*
X151439523Y-66905142D01*
X151391904Y-66809904D01*
X151344285Y-66619428D01*
X151344285Y-66381333D01*
X151391904Y-66190857D01*
X151439523Y-66095619D01*
X151487142Y-66048000D01*
X151582380Y-66000380D01*
X152868095Y-67000380D02*
X152296666Y-67000380D01*
X152582380Y-67000380D02*
X152582380Y-66000380D01*
X152487142Y-66143238D01*
X152391904Y-66238476D01*
X152296666Y-66286095D01*
G04 #@! TO.C,C102*
X126642952Y-82907142D02*
X126595333Y-82954761D01*
X126452476Y-83002380D01*
X126357238Y-83002380D01*
X126214380Y-82954761D01*
X126119142Y-82859523D01*
X126071523Y-82764285D01*
X126023904Y-82573809D01*
X126023904Y-82430952D01*
X126071523Y-82240476D01*
X126119142Y-82145238D01*
X126214380Y-82050000D01*
X126357238Y-82002380D01*
X126452476Y-82002380D01*
X126595333Y-82050000D01*
X126642952Y-82097619D01*
X127595333Y-83002380D02*
X127023904Y-83002380D01*
X127309619Y-83002380D02*
X127309619Y-82002380D01*
X127214380Y-82145238D01*
X127119142Y-82240476D01*
X127023904Y-82288095D01*
X128214380Y-82002380D02*
X128309619Y-82002380D01*
X128404857Y-82050000D01*
X128452476Y-82097619D01*
X128500095Y-82192857D01*
X128547714Y-82383333D01*
X128547714Y-82621428D01*
X128500095Y-82811904D01*
X128452476Y-82907142D01*
X128404857Y-82954761D01*
X128309619Y-83002380D01*
X128214380Y-83002380D01*
X128119142Y-82954761D01*
X128071523Y-82907142D01*
X128023904Y-82811904D01*
X127976285Y-82621428D01*
X127976285Y-82383333D01*
X128023904Y-82192857D01*
X128071523Y-82097619D01*
X128119142Y-82050000D01*
X128214380Y-82002380D01*
X128928666Y-82097619D02*
X128976285Y-82050000D01*
X129071523Y-82002380D01*
X129309619Y-82002380D01*
X129404857Y-82050000D01*
X129452476Y-82097619D01*
X129500095Y-82192857D01*
X129500095Y-82288095D01*
X129452476Y-82430952D01*
X128881047Y-83002380D01*
X129500095Y-83002380D01*
G04 #@! TO.C,CN314*
X173617142Y-53907142D02*
X173569523Y-53954761D01*
X173426666Y-54002380D01*
X173331428Y-54002380D01*
X173188571Y-53954761D01*
X173093333Y-53859523D01*
X173045714Y-53764285D01*
X172998095Y-53573809D01*
X172998095Y-53430952D01*
X173045714Y-53240476D01*
X173093333Y-53145238D01*
X173188571Y-53050000D01*
X173331428Y-53002380D01*
X173426666Y-53002380D01*
X173569523Y-53050000D01*
X173617142Y-53097619D01*
X174045714Y-54002380D02*
X174045714Y-53002380D01*
X174617142Y-54002380D01*
X174617142Y-53002380D01*
X174998095Y-53002380D02*
X175617142Y-53002380D01*
X175283809Y-53383333D01*
X175426666Y-53383333D01*
X175521904Y-53430952D01*
X175569523Y-53478571D01*
X175617142Y-53573809D01*
X175617142Y-53811904D01*
X175569523Y-53907142D01*
X175521904Y-53954761D01*
X175426666Y-54002380D01*
X175140952Y-54002380D01*
X175045714Y-53954761D01*
X174998095Y-53907142D01*
X176569523Y-54002380D02*
X175998095Y-54002380D01*
X176283809Y-54002380D02*
X176283809Y-53002380D01*
X176188571Y-53145238D01*
X176093333Y-53240476D01*
X175998095Y-53288095D01*
X177426666Y-53335714D02*
X177426666Y-54002380D01*
X177188571Y-52954761D02*
X176950476Y-53669047D01*
X177569523Y-53669047D01*
G04 #@! TO.C,CN313*
X168537142Y-53907142D02*
X168489523Y-53954761D01*
X168346666Y-54002380D01*
X168251428Y-54002380D01*
X168108571Y-53954761D01*
X168013333Y-53859523D01*
X167965714Y-53764285D01*
X167918095Y-53573809D01*
X167918095Y-53430952D01*
X167965714Y-53240476D01*
X168013333Y-53145238D01*
X168108571Y-53050000D01*
X168251428Y-53002380D01*
X168346666Y-53002380D01*
X168489523Y-53050000D01*
X168537142Y-53097619D01*
X168965714Y-54002380D02*
X168965714Y-53002380D01*
X169537142Y-54002380D01*
X169537142Y-53002380D01*
X169918095Y-53002380D02*
X170537142Y-53002380D01*
X170203809Y-53383333D01*
X170346666Y-53383333D01*
X170441904Y-53430952D01*
X170489523Y-53478571D01*
X170537142Y-53573809D01*
X170537142Y-53811904D01*
X170489523Y-53907142D01*
X170441904Y-53954761D01*
X170346666Y-54002380D01*
X170060952Y-54002380D01*
X169965714Y-53954761D01*
X169918095Y-53907142D01*
X171489523Y-54002380D02*
X170918095Y-54002380D01*
X171203809Y-54002380D02*
X171203809Y-53002380D01*
X171108571Y-53145238D01*
X171013333Y-53240476D01*
X170918095Y-53288095D01*
X171822857Y-53002380D02*
X172441904Y-53002380D01*
X172108571Y-53383333D01*
X172251428Y-53383333D01*
X172346666Y-53430952D01*
X172394285Y-53478571D01*
X172441904Y-53573809D01*
X172441904Y-53811904D01*
X172394285Y-53907142D01*
X172346666Y-53954761D01*
X172251428Y-54002380D01*
X171965714Y-54002380D01*
X171870476Y-53954761D01*
X171822857Y-53907142D01*
G04 #@! TO.C,CN312*
X163457142Y-53907142D02*
X163409523Y-53954761D01*
X163266666Y-54002380D01*
X163171428Y-54002380D01*
X163028571Y-53954761D01*
X162933333Y-53859523D01*
X162885714Y-53764285D01*
X162838095Y-53573809D01*
X162838095Y-53430952D01*
X162885714Y-53240476D01*
X162933333Y-53145238D01*
X163028571Y-53050000D01*
X163171428Y-53002380D01*
X163266666Y-53002380D01*
X163409523Y-53050000D01*
X163457142Y-53097619D01*
X163885714Y-54002380D02*
X163885714Y-53002380D01*
X164457142Y-54002380D01*
X164457142Y-53002380D01*
X164838095Y-53002380D02*
X165457142Y-53002380D01*
X165123809Y-53383333D01*
X165266666Y-53383333D01*
X165361904Y-53430952D01*
X165409523Y-53478571D01*
X165457142Y-53573809D01*
X165457142Y-53811904D01*
X165409523Y-53907142D01*
X165361904Y-53954761D01*
X165266666Y-54002380D01*
X164980952Y-54002380D01*
X164885714Y-53954761D01*
X164838095Y-53907142D01*
X166409523Y-54002380D02*
X165838095Y-54002380D01*
X166123809Y-54002380D02*
X166123809Y-53002380D01*
X166028571Y-53145238D01*
X165933333Y-53240476D01*
X165838095Y-53288095D01*
X166790476Y-53097619D02*
X166838095Y-53050000D01*
X166933333Y-53002380D01*
X167171428Y-53002380D01*
X167266666Y-53050000D01*
X167314285Y-53097619D01*
X167361904Y-53192857D01*
X167361904Y-53288095D01*
X167314285Y-53430952D01*
X166742857Y-54002380D01*
X167361904Y-54002380D01*
G04 #@! TO.C,CN311*
X158377142Y-53907142D02*
X158329523Y-53954761D01*
X158186666Y-54002380D01*
X158091428Y-54002380D01*
X157948571Y-53954761D01*
X157853333Y-53859523D01*
X157805714Y-53764285D01*
X157758095Y-53573809D01*
X157758095Y-53430952D01*
X157805714Y-53240476D01*
X157853333Y-53145238D01*
X157948571Y-53050000D01*
X158091428Y-53002380D01*
X158186666Y-53002380D01*
X158329523Y-53050000D01*
X158377142Y-53097619D01*
X158805714Y-54002380D02*
X158805714Y-53002380D01*
X159377142Y-54002380D01*
X159377142Y-53002380D01*
X159758095Y-53002380D02*
X160377142Y-53002380D01*
X160043809Y-53383333D01*
X160186666Y-53383333D01*
X160281904Y-53430952D01*
X160329523Y-53478571D01*
X160377142Y-53573809D01*
X160377142Y-53811904D01*
X160329523Y-53907142D01*
X160281904Y-53954761D01*
X160186666Y-54002380D01*
X159900952Y-54002380D01*
X159805714Y-53954761D01*
X159758095Y-53907142D01*
X161329523Y-54002380D02*
X160758095Y-54002380D01*
X161043809Y-54002380D02*
X161043809Y-53002380D01*
X160948571Y-53145238D01*
X160853333Y-53240476D01*
X160758095Y-53288095D01*
X162281904Y-54002380D02*
X161710476Y-54002380D01*
X161996190Y-54002380D02*
X161996190Y-53002380D01*
X161900952Y-53145238D01*
X161805714Y-53240476D01*
X161710476Y-53288095D01*
G04 #@! TO.C,JP101*
X131564285Y-55542380D02*
X131564285Y-56256666D01*
X131516666Y-56399523D01*
X131421428Y-56494761D01*
X131278571Y-56542380D01*
X131183333Y-56542380D01*
X132040476Y-56542380D02*
X132040476Y-55542380D01*
X132421428Y-55542380D01*
X132516666Y-55590000D01*
X132564285Y-55637619D01*
X132611904Y-55732857D01*
X132611904Y-55875714D01*
X132564285Y-55970952D01*
X132516666Y-56018571D01*
X132421428Y-56066190D01*
X132040476Y-56066190D01*
X133564285Y-56542380D02*
X132992857Y-56542380D01*
X133278571Y-56542380D02*
X133278571Y-55542380D01*
X133183333Y-55685238D01*
X133088095Y-55780476D01*
X132992857Y-55828095D01*
X134183333Y-55542380D02*
X134278571Y-55542380D01*
X134373809Y-55590000D01*
X134421428Y-55637619D01*
X134469047Y-55732857D01*
X134516666Y-55923333D01*
X134516666Y-56161428D01*
X134469047Y-56351904D01*
X134421428Y-56447142D01*
X134373809Y-56494761D01*
X134278571Y-56542380D01*
X134183333Y-56542380D01*
X134088095Y-56494761D01*
X134040476Y-56447142D01*
X133992857Y-56351904D01*
X133945238Y-56161428D01*
X133945238Y-55923333D01*
X133992857Y-55732857D01*
X134040476Y-55637619D01*
X134088095Y-55590000D01*
X134183333Y-55542380D01*
X135469047Y-56542380D02*
X134897619Y-56542380D01*
X135183333Y-56542380D02*
X135183333Y-55542380D01*
X135088095Y-55685238D01*
X134992857Y-55780476D01*
X134897619Y-55828095D01*
G04 #@! TO.C,CN301*
X126627142Y-53907142D02*
X126579523Y-53954761D01*
X126436666Y-54002380D01*
X126341428Y-54002380D01*
X126198571Y-53954761D01*
X126103333Y-53859523D01*
X126055714Y-53764285D01*
X126008095Y-53573809D01*
X126008095Y-53430952D01*
X126055714Y-53240476D01*
X126103333Y-53145238D01*
X126198571Y-53050000D01*
X126341428Y-53002380D01*
X126436666Y-53002380D01*
X126579523Y-53050000D01*
X126627142Y-53097619D01*
X127055714Y-54002380D02*
X127055714Y-53002380D01*
X127627142Y-54002380D01*
X127627142Y-53002380D01*
X128008095Y-53002380D02*
X128627142Y-53002380D01*
X128293809Y-53383333D01*
X128436666Y-53383333D01*
X128531904Y-53430952D01*
X128579523Y-53478571D01*
X128627142Y-53573809D01*
X128627142Y-53811904D01*
X128579523Y-53907142D01*
X128531904Y-53954761D01*
X128436666Y-54002380D01*
X128150952Y-54002380D01*
X128055714Y-53954761D01*
X128008095Y-53907142D01*
X129246190Y-53002380D02*
X129341428Y-53002380D01*
X129436666Y-53050000D01*
X129484285Y-53097619D01*
X129531904Y-53192857D01*
X129579523Y-53383333D01*
X129579523Y-53621428D01*
X129531904Y-53811904D01*
X129484285Y-53907142D01*
X129436666Y-53954761D01*
X129341428Y-54002380D01*
X129246190Y-54002380D01*
X129150952Y-53954761D01*
X129103333Y-53907142D01*
X129055714Y-53811904D01*
X129008095Y-53621428D01*
X129008095Y-53383333D01*
X129055714Y-53192857D01*
X129103333Y-53097619D01*
X129150952Y-53050000D01*
X129246190Y-53002380D01*
X130531904Y-54002380D02*
X129960476Y-54002380D01*
X130246190Y-54002380D02*
X130246190Y-53002380D01*
X130150952Y-53145238D01*
X130055714Y-53240476D01*
X129960476Y-53288095D01*
G04 #@! TO.C,CN302*
X121547142Y-53907142D02*
X121499523Y-53954761D01*
X121356666Y-54002380D01*
X121261428Y-54002380D01*
X121118571Y-53954761D01*
X121023333Y-53859523D01*
X120975714Y-53764285D01*
X120928095Y-53573809D01*
X120928095Y-53430952D01*
X120975714Y-53240476D01*
X121023333Y-53145238D01*
X121118571Y-53050000D01*
X121261428Y-53002380D01*
X121356666Y-53002380D01*
X121499523Y-53050000D01*
X121547142Y-53097619D01*
X121975714Y-54002380D02*
X121975714Y-53002380D01*
X122547142Y-54002380D01*
X122547142Y-53002380D01*
X122928095Y-53002380D02*
X123547142Y-53002380D01*
X123213809Y-53383333D01*
X123356666Y-53383333D01*
X123451904Y-53430952D01*
X123499523Y-53478571D01*
X123547142Y-53573809D01*
X123547142Y-53811904D01*
X123499523Y-53907142D01*
X123451904Y-53954761D01*
X123356666Y-54002380D01*
X123070952Y-54002380D01*
X122975714Y-53954761D01*
X122928095Y-53907142D01*
X124166190Y-53002380D02*
X124261428Y-53002380D01*
X124356666Y-53050000D01*
X124404285Y-53097619D01*
X124451904Y-53192857D01*
X124499523Y-53383333D01*
X124499523Y-53621428D01*
X124451904Y-53811904D01*
X124404285Y-53907142D01*
X124356666Y-53954761D01*
X124261428Y-54002380D01*
X124166190Y-54002380D01*
X124070952Y-53954761D01*
X124023333Y-53907142D01*
X123975714Y-53811904D01*
X123928095Y-53621428D01*
X123928095Y-53383333D01*
X123975714Y-53192857D01*
X124023333Y-53097619D01*
X124070952Y-53050000D01*
X124166190Y-53002380D01*
X124880476Y-53097619D02*
X124928095Y-53050000D01*
X125023333Y-53002380D01*
X125261428Y-53002380D01*
X125356666Y-53050000D01*
X125404285Y-53097619D01*
X125451904Y-53192857D01*
X125451904Y-53288095D01*
X125404285Y-53430952D01*
X124832857Y-54002380D01*
X125451904Y-54002380D01*
G04 #@! TO.C,CN303*
X116467142Y-53907142D02*
X116419523Y-53954761D01*
X116276666Y-54002380D01*
X116181428Y-54002380D01*
X116038571Y-53954761D01*
X115943333Y-53859523D01*
X115895714Y-53764285D01*
X115848095Y-53573809D01*
X115848095Y-53430952D01*
X115895714Y-53240476D01*
X115943333Y-53145238D01*
X116038571Y-53050000D01*
X116181428Y-53002380D01*
X116276666Y-53002380D01*
X116419523Y-53050000D01*
X116467142Y-53097619D01*
X116895714Y-54002380D02*
X116895714Y-53002380D01*
X117467142Y-54002380D01*
X117467142Y-53002380D01*
X117848095Y-53002380D02*
X118467142Y-53002380D01*
X118133809Y-53383333D01*
X118276666Y-53383333D01*
X118371904Y-53430952D01*
X118419523Y-53478571D01*
X118467142Y-53573809D01*
X118467142Y-53811904D01*
X118419523Y-53907142D01*
X118371904Y-53954761D01*
X118276666Y-54002380D01*
X117990952Y-54002380D01*
X117895714Y-53954761D01*
X117848095Y-53907142D01*
X119086190Y-53002380D02*
X119181428Y-53002380D01*
X119276666Y-53050000D01*
X119324285Y-53097619D01*
X119371904Y-53192857D01*
X119419523Y-53383333D01*
X119419523Y-53621428D01*
X119371904Y-53811904D01*
X119324285Y-53907142D01*
X119276666Y-53954761D01*
X119181428Y-54002380D01*
X119086190Y-54002380D01*
X118990952Y-53954761D01*
X118943333Y-53907142D01*
X118895714Y-53811904D01*
X118848095Y-53621428D01*
X118848095Y-53383333D01*
X118895714Y-53192857D01*
X118943333Y-53097619D01*
X118990952Y-53050000D01*
X119086190Y-53002380D01*
X119752857Y-53002380D02*
X120371904Y-53002380D01*
X120038571Y-53383333D01*
X120181428Y-53383333D01*
X120276666Y-53430952D01*
X120324285Y-53478571D01*
X120371904Y-53573809D01*
X120371904Y-53811904D01*
X120324285Y-53907142D01*
X120276666Y-53954761D01*
X120181428Y-54002380D01*
X119895714Y-54002380D01*
X119800476Y-53954761D01*
X119752857Y-53907142D01*
G04 #@! TO.C,CN151*
X94877142Y-79307142D02*
X94829523Y-79354761D01*
X94686666Y-79402380D01*
X94591428Y-79402380D01*
X94448571Y-79354761D01*
X94353333Y-79259523D01*
X94305714Y-79164285D01*
X94258095Y-78973809D01*
X94258095Y-78830952D01*
X94305714Y-78640476D01*
X94353333Y-78545238D01*
X94448571Y-78450000D01*
X94591428Y-78402380D01*
X94686666Y-78402380D01*
X94829523Y-78450000D01*
X94877142Y-78497619D01*
X95305714Y-79402380D02*
X95305714Y-78402380D01*
X95877142Y-79402380D01*
X95877142Y-78402380D01*
X96877142Y-79402380D02*
X96305714Y-79402380D01*
X96591428Y-79402380D02*
X96591428Y-78402380D01*
X96496190Y-78545238D01*
X96400952Y-78640476D01*
X96305714Y-78688095D01*
X97781904Y-78402380D02*
X97305714Y-78402380D01*
X97258095Y-78878571D01*
X97305714Y-78830952D01*
X97400952Y-78783333D01*
X97639047Y-78783333D01*
X97734285Y-78830952D01*
X97781904Y-78878571D01*
X97829523Y-78973809D01*
X97829523Y-79211904D01*
X97781904Y-79307142D01*
X97734285Y-79354761D01*
X97639047Y-79402380D01*
X97400952Y-79402380D01*
X97305714Y-79354761D01*
X97258095Y-79307142D01*
X98781904Y-79402380D02*
X98210476Y-79402380D01*
X98496190Y-79402380D02*
X98496190Y-78402380D01*
X98400952Y-78545238D01*
X98305714Y-78640476D01*
X98210476Y-78688095D01*
G04 #@! TO.C,CN101*
X145550142Y-53316142D02*
X145502523Y-53363761D01*
X145359666Y-53411380D01*
X145264428Y-53411380D01*
X145121571Y-53363761D01*
X145026333Y-53268523D01*
X144978714Y-53173285D01*
X144931095Y-52982809D01*
X144931095Y-52839952D01*
X144978714Y-52649476D01*
X145026333Y-52554238D01*
X145121571Y-52459000D01*
X145264428Y-52411380D01*
X145359666Y-52411380D01*
X145502523Y-52459000D01*
X145550142Y-52506619D01*
X145978714Y-53411380D02*
X145978714Y-52411380D01*
X146550142Y-53411380D01*
X146550142Y-52411380D01*
X147550142Y-53411380D02*
X146978714Y-53411380D01*
X147264428Y-53411380D02*
X147264428Y-52411380D01*
X147169190Y-52554238D01*
X147073952Y-52649476D01*
X146978714Y-52697095D01*
X148169190Y-52411380D02*
X148264428Y-52411380D01*
X148359666Y-52459000D01*
X148407285Y-52506619D01*
X148454904Y-52601857D01*
X148502523Y-52792333D01*
X148502523Y-53030428D01*
X148454904Y-53220904D01*
X148407285Y-53316142D01*
X148359666Y-53363761D01*
X148264428Y-53411380D01*
X148169190Y-53411380D01*
X148073952Y-53363761D01*
X148026333Y-53316142D01*
X147978714Y-53220904D01*
X147931095Y-53030428D01*
X147931095Y-52792333D01*
X147978714Y-52601857D01*
X148026333Y-52506619D01*
X148073952Y-52459000D01*
X148169190Y-52411380D01*
X149454904Y-53411380D02*
X148883476Y-53411380D01*
X149169190Y-53411380D02*
X149169190Y-52411380D01*
X149073952Y-52554238D01*
X148978714Y-52649476D01*
X148883476Y-52697095D01*
G04 #@! TO.C,D151*
X99909523Y-62842380D02*
X99909523Y-61842380D01*
X100147619Y-61842380D01*
X100290476Y-61890000D01*
X100385714Y-61985238D01*
X100433333Y-62080476D01*
X100480952Y-62270952D01*
X100480952Y-62413809D01*
X100433333Y-62604285D01*
X100385714Y-62699523D01*
X100290476Y-62794761D01*
X100147619Y-62842380D01*
X99909523Y-62842380D01*
X101433333Y-62842380D02*
X100861904Y-62842380D01*
X101147619Y-62842380D02*
X101147619Y-61842380D01*
X101052380Y-61985238D01*
X100957142Y-62080476D01*
X100861904Y-62128095D01*
X102338095Y-61842380D02*
X101861904Y-61842380D01*
X101814285Y-62318571D01*
X101861904Y-62270952D01*
X101957142Y-62223333D01*
X102195238Y-62223333D01*
X102290476Y-62270952D01*
X102338095Y-62318571D01*
X102385714Y-62413809D01*
X102385714Y-62651904D01*
X102338095Y-62747142D01*
X102290476Y-62794761D01*
X102195238Y-62842380D01*
X101957142Y-62842380D01*
X101861904Y-62794761D01*
X101814285Y-62747142D01*
X103338095Y-62842380D02*
X102766666Y-62842380D01*
X103052380Y-62842380D02*
X103052380Y-61842380D01*
X102957142Y-61985238D01*
X102861904Y-62080476D01*
X102766666Y-62128095D01*
G04 #@! TO.C,D152*
X99909523Y-73002380D02*
X99909523Y-72002380D01*
X100147619Y-72002380D01*
X100290476Y-72050000D01*
X100385714Y-72145238D01*
X100433333Y-72240476D01*
X100480952Y-72430952D01*
X100480952Y-72573809D01*
X100433333Y-72764285D01*
X100385714Y-72859523D01*
X100290476Y-72954761D01*
X100147619Y-73002380D01*
X99909523Y-73002380D01*
X101433333Y-73002380D02*
X100861904Y-73002380D01*
X101147619Y-73002380D02*
X101147619Y-72002380D01*
X101052380Y-72145238D01*
X100957142Y-72240476D01*
X100861904Y-72288095D01*
X102338095Y-72002380D02*
X101861904Y-72002380D01*
X101814285Y-72478571D01*
X101861904Y-72430952D01*
X101957142Y-72383333D01*
X102195238Y-72383333D01*
X102290476Y-72430952D01*
X102338095Y-72478571D01*
X102385714Y-72573809D01*
X102385714Y-72811904D01*
X102338095Y-72907142D01*
X102290476Y-72954761D01*
X102195238Y-73002380D01*
X101957142Y-73002380D01*
X101861904Y-72954761D01*
X101814285Y-72907142D01*
X102766666Y-72097619D02*
X102814285Y-72050000D01*
X102909523Y-72002380D01*
X103147619Y-72002380D01*
X103242857Y-72050000D01*
X103290476Y-72097619D01*
X103338095Y-72192857D01*
X103338095Y-72288095D01*
X103290476Y-72430952D01*
X102719047Y-73002380D01*
X103338095Y-73002380D01*
G04 #@! TO.C,D352*
X112863523Y-66332380D02*
X112863523Y-65332380D01*
X113101619Y-65332380D01*
X113244476Y-65380000D01*
X113339714Y-65475238D01*
X113387333Y-65570476D01*
X113434952Y-65760952D01*
X113434952Y-65903809D01*
X113387333Y-66094285D01*
X113339714Y-66189523D01*
X113244476Y-66284761D01*
X113101619Y-66332380D01*
X112863523Y-66332380D01*
X113768285Y-65332380D02*
X114387333Y-65332380D01*
X114054000Y-65713333D01*
X114196857Y-65713333D01*
X114292095Y-65760952D01*
X114339714Y-65808571D01*
X114387333Y-65903809D01*
X114387333Y-66141904D01*
X114339714Y-66237142D01*
X114292095Y-66284761D01*
X114196857Y-66332380D01*
X113911142Y-66332380D01*
X113815904Y-66284761D01*
X113768285Y-66237142D01*
X115292095Y-65332380D02*
X114815904Y-65332380D01*
X114768285Y-65808571D01*
X114815904Y-65760952D01*
X114911142Y-65713333D01*
X115149238Y-65713333D01*
X115244476Y-65760952D01*
X115292095Y-65808571D01*
X115339714Y-65903809D01*
X115339714Y-66141904D01*
X115292095Y-66237142D01*
X115244476Y-66284761D01*
X115149238Y-66332380D01*
X114911142Y-66332380D01*
X114815904Y-66284761D01*
X114768285Y-66237142D01*
X115720666Y-65427619D02*
X115768285Y-65380000D01*
X115863523Y-65332380D01*
X116101619Y-65332380D01*
X116196857Y-65380000D01*
X116244476Y-65427619D01*
X116292095Y-65522857D01*
X116292095Y-65618095D01*
X116244476Y-65760952D01*
X115673047Y-66332380D01*
X116292095Y-66332380D01*
G04 #@! TO.C,D351*
X112863523Y-71826380D02*
X112863523Y-70826380D01*
X113101619Y-70826380D01*
X113244476Y-70874000D01*
X113339714Y-70969238D01*
X113387333Y-71064476D01*
X113434952Y-71254952D01*
X113434952Y-71397809D01*
X113387333Y-71588285D01*
X113339714Y-71683523D01*
X113244476Y-71778761D01*
X113101619Y-71826380D01*
X112863523Y-71826380D01*
X113768285Y-70826380D02*
X114387333Y-70826380D01*
X114054000Y-71207333D01*
X114196857Y-71207333D01*
X114292095Y-71254952D01*
X114339714Y-71302571D01*
X114387333Y-71397809D01*
X114387333Y-71635904D01*
X114339714Y-71731142D01*
X114292095Y-71778761D01*
X114196857Y-71826380D01*
X113911142Y-71826380D01*
X113815904Y-71778761D01*
X113768285Y-71731142D01*
X115292095Y-70826380D02*
X114815904Y-70826380D01*
X114768285Y-71302571D01*
X114815904Y-71254952D01*
X114911142Y-71207333D01*
X115149238Y-71207333D01*
X115244476Y-71254952D01*
X115292095Y-71302571D01*
X115339714Y-71397809D01*
X115339714Y-71635904D01*
X115292095Y-71731142D01*
X115244476Y-71778761D01*
X115149238Y-71826380D01*
X114911142Y-71826380D01*
X114815904Y-71778761D01*
X114768285Y-71731142D01*
X116292095Y-71826380D02*
X115720666Y-71826380D01*
X116006380Y-71826380D02*
X116006380Y-70826380D01*
X115911142Y-70969238D01*
X115815904Y-71064476D01*
X115720666Y-71112095D01*
G04 #@! TO.C,D204*
X159599523Y-94432380D02*
X159599523Y-93432380D01*
X159837619Y-93432380D01*
X159980476Y-93480000D01*
X160075714Y-93575238D01*
X160123333Y-93670476D01*
X160170952Y-93860952D01*
X160170952Y-94003809D01*
X160123333Y-94194285D01*
X160075714Y-94289523D01*
X159980476Y-94384761D01*
X159837619Y-94432380D01*
X159599523Y-94432380D01*
X160551904Y-93527619D02*
X160599523Y-93480000D01*
X160694761Y-93432380D01*
X160932857Y-93432380D01*
X161028095Y-93480000D01*
X161075714Y-93527619D01*
X161123333Y-93622857D01*
X161123333Y-93718095D01*
X161075714Y-93860952D01*
X160504285Y-94432380D01*
X161123333Y-94432380D01*
X161742380Y-93432380D02*
X161837619Y-93432380D01*
X161932857Y-93480000D01*
X161980476Y-93527619D01*
X162028095Y-93622857D01*
X162075714Y-93813333D01*
X162075714Y-94051428D01*
X162028095Y-94241904D01*
X161980476Y-94337142D01*
X161932857Y-94384761D01*
X161837619Y-94432380D01*
X161742380Y-94432380D01*
X161647142Y-94384761D01*
X161599523Y-94337142D01*
X161551904Y-94241904D01*
X161504285Y-94051428D01*
X161504285Y-93813333D01*
X161551904Y-93622857D01*
X161599523Y-93527619D01*
X161647142Y-93480000D01*
X161742380Y-93432380D01*
X162932857Y-93765714D02*
X162932857Y-94432380D01*
X162694761Y-93384761D02*
X162456666Y-94099047D01*
X163075714Y-94099047D01*
X149598095Y-96210380D02*
X149598095Y-95210380D01*
X150169523Y-96210380D02*
X149740952Y-95638952D01*
X150169523Y-95210380D02*
X149598095Y-95781809D01*
G04 #@! TO.C,D202*
X159599523Y-85542380D02*
X159599523Y-84542380D01*
X159837619Y-84542380D01*
X159980476Y-84590000D01*
X160075714Y-84685238D01*
X160123333Y-84780476D01*
X160170952Y-84970952D01*
X160170952Y-85113809D01*
X160123333Y-85304285D01*
X160075714Y-85399523D01*
X159980476Y-85494761D01*
X159837619Y-85542380D01*
X159599523Y-85542380D01*
X160551904Y-84637619D02*
X160599523Y-84590000D01*
X160694761Y-84542380D01*
X160932857Y-84542380D01*
X161028095Y-84590000D01*
X161075714Y-84637619D01*
X161123333Y-84732857D01*
X161123333Y-84828095D01*
X161075714Y-84970952D01*
X160504285Y-85542380D01*
X161123333Y-85542380D01*
X161742380Y-84542380D02*
X161837619Y-84542380D01*
X161932857Y-84590000D01*
X161980476Y-84637619D01*
X162028095Y-84732857D01*
X162075714Y-84923333D01*
X162075714Y-85161428D01*
X162028095Y-85351904D01*
X161980476Y-85447142D01*
X161932857Y-85494761D01*
X161837619Y-85542380D01*
X161742380Y-85542380D01*
X161647142Y-85494761D01*
X161599523Y-85447142D01*
X161551904Y-85351904D01*
X161504285Y-85161428D01*
X161504285Y-84923333D01*
X161551904Y-84732857D01*
X161599523Y-84637619D01*
X161647142Y-84590000D01*
X161742380Y-84542380D01*
X162456666Y-84637619D02*
X162504285Y-84590000D01*
X162599523Y-84542380D01*
X162837619Y-84542380D01*
X162932857Y-84590000D01*
X162980476Y-84637619D01*
X163028095Y-84732857D01*
X163028095Y-84828095D01*
X162980476Y-84970952D01*
X162409047Y-85542380D01*
X163028095Y-85542380D01*
X149598095Y-87320380D02*
X149598095Y-86320380D01*
X150169523Y-87320380D02*
X149740952Y-86748952D01*
X150169523Y-86320380D02*
X149598095Y-86891809D01*
G04 #@! TO.C,D201*
X159599523Y-81732380D02*
X159599523Y-80732380D01*
X159837619Y-80732380D01*
X159980476Y-80780000D01*
X160075714Y-80875238D01*
X160123333Y-80970476D01*
X160170952Y-81160952D01*
X160170952Y-81303809D01*
X160123333Y-81494285D01*
X160075714Y-81589523D01*
X159980476Y-81684761D01*
X159837619Y-81732380D01*
X159599523Y-81732380D01*
X160551904Y-80827619D02*
X160599523Y-80780000D01*
X160694761Y-80732380D01*
X160932857Y-80732380D01*
X161028095Y-80780000D01*
X161075714Y-80827619D01*
X161123333Y-80922857D01*
X161123333Y-81018095D01*
X161075714Y-81160952D01*
X160504285Y-81732380D01*
X161123333Y-81732380D01*
X161742380Y-80732380D02*
X161837619Y-80732380D01*
X161932857Y-80780000D01*
X161980476Y-80827619D01*
X162028095Y-80922857D01*
X162075714Y-81113333D01*
X162075714Y-81351428D01*
X162028095Y-81541904D01*
X161980476Y-81637142D01*
X161932857Y-81684761D01*
X161837619Y-81732380D01*
X161742380Y-81732380D01*
X161647142Y-81684761D01*
X161599523Y-81637142D01*
X161551904Y-81541904D01*
X161504285Y-81351428D01*
X161504285Y-81113333D01*
X161551904Y-80922857D01*
X161599523Y-80827619D01*
X161647142Y-80780000D01*
X161742380Y-80732380D01*
X163028095Y-81732380D02*
X162456666Y-81732380D01*
X162742380Y-81732380D02*
X162742380Y-80732380D01*
X162647142Y-80875238D01*
X162551904Y-80970476D01*
X162456666Y-81018095D01*
X157218095Y-80081380D02*
X157218095Y-79081380D01*
X157789523Y-80081380D02*
X157360952Y-79509952D01*
X157789523Y-79081380D02*
X157218095Y-79652809D01*
G04 #@! TO.C,D203*
X159599523Y-90622380D02*
X159599523Y-89622380D01*
X159837619Y-89622380D01*
X159980476Y-89670000D01*
X160075714Y-89765238D01*
X160123333Y-89860476D01*
X160170952Y-90050952D01*
X160170952Y-90193809D01*
X160123333Y-90384285D01*
X160075714Y-90479523D01*
X159980476Y-90574761D01*
X159837619Y-90622380D01*
X159599523Y-90622380D01*
X160551904Y-89717619D02*
X160599523Y-89670000D01*
X160694761Y-89622380D01*
X160932857Y-89622380D01*
X161028095Y-89670000D01*
X161075714Y-89717619D01*
X161123333Y-89812857D01*
X161123333Y-89908095D01*
X161075714Y-90050952D01*
X160504285Y-90622380D01*
X161123333Y-90622380D01*
X161742380Y-89622380D02*
X161837619Y-89622380D01*
X161932857Y-89670000D01*
X161980476Y-89717619D01*
X162028095Y-89812857D01*
X162075714Y-90003333D01*
X162075714Y-90241428D01*
X162028095Y-90431904D01*
X161980476Y-90527142D01*
X161932857Y-90574761D01*
X161837619Y-90622380D01*
X161742380Y-90622380D01*
X161647142Y-90574761D01*
X161599523Y-90527142D01*
X161551904Y-90431904D01*
X161504285Y-90241428D01*
X161504285Y-90003333D01*
X161551904Y-89812857D01*
X161599523Y-89717619D01*
X161647142Y-89670000D01*
X161742380Y-89622380D01*
X162409047Y-89622380D02*
X163028095Y-89622380D01*
X162694761Y-90003333D01*
X162837619Y-90003333D01*
X162932857Y-90050952D01*
X162980476Y-90098571D01*
X163028095Y-90193809D01*
X163028095Y-90431904D01*
X162980476Y-90527142D01*
X162932857Y-90574761D01*
X162837619Y-90622380D01*
X162551904Y-90622380D01*
X162456666Y-90574761D01*
X162409047Y-90527142D01*
X157218095Y-88971380D02*
X157218095Y-87971380D01*
X157789523Y-88971380D02*
X157360952Y-88399952D01*
X157789523Y-87971380D02*
X157218095Y-88542809D01*
G04 #@! TO.C,JP351*
X134602380Y-72905714D02*
X135316666Y-72905714D01*
X135459523Y-72953333D01*
X135554761Y-73048571D01*
X135602380Y-73191428D01*
X135602380Y-73286666D01*
X135602380Y-72429523D02*
X134602380Y-72429523D01*
X134602380Y-72048571D01*
X134650000Y-71953333D01*
X134697619Y-71905714D01*
X134792857Y-71858095D01*
X134935714Y-71858095D01*
X135030952Y-71905714D01*
X135078571Y-71953333D01*
X135126190Y-72048571D01*
X135126190Y-72429523D01*
X134602380Y-71524761D02*
X134602380Y-70905714D01*
X134983333Y-71239047D01*
X134983333Y-71096190D01*
X135030952Y-71000952D01*
X135078571Y-70953333D01*
X135173809Y-70905714D01*
X135411904Y-70905714D01*
X135507142Y-70953333D01*
X135554761Y-71000952D01*
X135602380Y-71096190D01*
X135602380Y-71381904D01*
X135554761Y-71477142D01*
X135507142Y-71524761D01*
X134602380Y-70000952D02*
X134602380Y-70477142D01*
X135078571Y-70524761D01*
X135030952Y-70477142D01*
X134983333Y-70381904D01*
X134983333Y-70143809D01*
X135030952Y-70048571D01*
X135078571Y-70000952D01*
X135173809Y-69953333D01*
X135411904Y-69953333D01*
X135507142Y-70000952D01*
X135554761Y-70048571D01*
X135602380Y-70143809D01*
X135602380Y-70381904D01*
X135554761Y-70477142D01*
X135507142Y-70524761D01*
X135602380Y-69000952D02*
X135602380Y-69572380D01*
X135602380Y-69286666D02*
X134602380Y-69286666D01*
X134745238Y-69381904D01*
X134840476Y-69477142D01*
X134888095Y-69572380D01*
G04 #@! TO.C,U201*
X132905714Y-82352380D02*
X132905714Y-83161904D01*
X132953333Y-83257142D01*
X133000952Y-83304761D01*
X133096190Y-83352380D01*
X133286666Y-83352380D01*
X133381904Y-83304761D01*
X133429523Y-83257142D01*
X133477142Y-83161904D01*
X133477142Y-82352380D01*
X133905714Y-82447619D02*
X133953333Y-82400000D01*
X134048571Y-82352380D01*
X134286666Y-82352380D01*
X134381904Y-82400000D01*
X134429523Y-82447619D01*
X134477142Y-82542857D01*
X134477142Y-82638095D01*
X134429523Y-82780952D01*
X133858095Y-83352380D01*
X134477142Y-83352380D01*
X135096190Y-82352380D02*
X135191428Y-82352380D01*
X135286666Y-82400000D01*
X135334285Y-82447619D01*
X135381904Y-82542857D01*
X135429523Y-82733333D01*
X135429523Y-82971428D01*
X135381904Y-83161904D01*
X135334285Y-83257142D01*
X135286666Y-83304761D01*
X135191428Y-83352380D01*
X135096190Y-83352380D01*
X135000952Y-83304761D01*
X134953333Y-83257142D01*
X134905714Y-83161904D01*
X134858095Y-82971428D01*
X134858095Y-82733333D01*
X134905714Y-82542857D01*
X134953333Y-82447619D01*
X135000952Y-82400000D01*
X135096190Y-82352380D01*
X136381904Y-83352380D02*
X135810476Y-83352380D01*
X136096190Y-83352380D02*
X136096190Y-82352380D01*
X136000952Y-82495238D01*
X135905714Y-82590476D01*
X135810476Y-82638095D01*
G04 #@! TO.C,Q301*
X124555380Y-66714619D02*
X124460142Y-66667000D01*
X124364904Y-66571761D01*
X124222047Y-66428904D01*
X124126809Y-66381285D01*
X124031571Y-66381285D01*
X124079190Y-66619380D02*
X123983952Y-66571761D01*
X123888714Y-66476523D01*
X123841095Y-66286047D01*
X123841095Y-65952714D01*
X123888714Y-65762238D01*
X123983952Y-65667000D01*
X124079190Y-65619380D01*
X124269666Y-65619380D01*
X124364904Y-65667000D01*
X124460142Y-65762238D01*
X124507761Y-65952714D01*
X124507761Y-66286047D01*
X124460142Y-66476523D01*
X124364904Y-66571761D01*
X124269666Y-66619380D01*
X124079190Y-66619380D01*
X124841095Y-65619380D02*
X125460142Y-65619380D01*
X125126809Y-66000333D01*
X125269666Y-66000333D01*
X125364904Y-66047952D01*
X125412523Y-66095571D01*
X125460142Y-66190809D01*
X125460142Y-66428904D01*
X125412523Y-66524142D01*
X125364904Y-66571761D01*
X125269666Y-66619380D01*
X124983952Y-66619380D01*
X124888714Y-66571761D01*
X124841095Y-66524142D01*
X126079190Y-65619380D02*
X126174428Y-65619380D01*
X126269666Y-65667000D01*
X126317285Y-65714619D01*
X126364904Y-65809857D01*
X126412523Y-66000333D01*
X126412523Y-66238428D01*
X126364904Y-66428904D01*
X126317285Y-66524142D01*
X126269666Y-66571761D01*
X126174428Y-66619380D01*
X126079190Y-66619380D01*
X125983952Y-66571761D01*
X125936333Y-66524142D01*
X125888714Y-66428904D01*
X125841095Y-66238428D01*
X125841095Y-66000333D01*
X125888714Y-65809857D01*
X125936333Y-65714619D01*
X125983952Y-65667000D01*
X126079190Y-65619380D01*
X127364904Y-66619380D02*
X126793476Y-66619380D01*
X127079190Y-66619380D02*
X127079190Y-65619380D01*
X126983952Y-65762238D01*
X126888714Y-65857476D01*
X126793476Y-65905095D01*
G04 #@! TO.C,D102*
X125309523Y-92273380D02*
X125309523Y-91273380D01*
X125547619Y-91273380D01*
X125690476Y-91321000D01*
X125785714Y-91416238D01*
X125833333Y-91511476D01*
X125880952Y-91701952D01*
X125880952Y-91844809D01*
X125833333Y-92035285D01*
X125785714Y-92130523D01*
X125690476Y-92225761D01*
X125547619Y-92273380D01*
X125309523Y-92273380D01*
X126833333Y-92273380D02*
X126261904Y-92273380D01*
X126547619Y-92273380D02*
X126547619Y-91273380D01*
X126452380Y-91416238D01*
X126357142Y-91511476D01*
X126261904Y-91559095D01*
X127452380Y-91273380D02*
X127547619Y-91273380D01*
X127642857Y-91321000D01*
X127690476Y-91368619D01*
X127738095Y-91463857D01*
X127785714Y-91654333D01*
X127785714Y-91892428D01*
X127738095Y-92082904D01*
X127690476Y-92178142D01*
X127642857Y-92225761D01*
X127547619Y-92273380D01*
X127452380Y-92273380D01*
X127357142Y-92225761D01*
X127309523Y-92178142D01*
X127261904Y-92082904D01*
X127214285Y-91892428D01*
X127214285Y-91654333D01*
X127261904Y-91463857D01*
X127309523Y-91368619D01*
X127357142Y-91321000D01*
X127452380Y-91273380D01*
X128166666Y-91368619D02*
X128214285Y-91321000D01*
X128309523Y-91273380D01*
X128547619Y-91273380D01*
X128642857Y-91321000D01*
X128690476Y-91368619D01*
X128738095Y-91463857D01*
X128738095Y-91559095D01*
X128690476Y-91701952D01*
X128119047Y-92273380D01*
X128738095Y-92273380D01*
G04 #@! TO.C,Q311*
X159887619Y-63327619D02*
X159840000Y-63422857D01*
X159744761Y-63518095D01*
X159601904Y-63660952D01*
X159554285Y-63756190D01*
X159554285Y-63851428D01*
X159792380Y-63803809D02*
X159744761Y-63899047D01*
X159649523Y-63994285D01*
X159459047Y-64041904D01*
X159125714Y-64041904D01*
X158935238Y-63994285D01*
X158840000Y-63899047D01*
X158792380Y-63803809D01*
X158792380Y-63613333D01*
X158840000Y-63518095D01*
X158935238Y-63422857D01*
X159125714Y-63375238D01*
X159459047Y-63375238D01*
X159649523Y-63422857D01*
X159744761Y-63518095D01*
X159792380Y-63613333D01*
X159792380Y-63803809D01*
X158792380Y-63041904D02*
X158792380Y-62422857D01*
X159173333Y-62756190D01*
X159173333Y-62613333D01*
X159220952Y-62518095D01*
X159268571Y-62470476D01*
X159363809Y-62422857D01*
X159601904Y-62422857D01*
X159697142Y-62470476D01*
X159744761Y-62518095D01*
X159792380Y-62613333D01*
X159792380Y-62899047D01*
X159744761Y-62994285D01*
X159697142Y-63041904D01*
X159792380Y-61470476D02*
X159792380Y-62041904D01*
X159792380Y-61756190D02*
X158792380Y-61756190D01*
X158935238Y-61851428D01*
X159030476Y-61946666D01*
X159078095Y-62041904D01*
X159792380Y-60518095D02*
X159792380Y-61089523D01*
X159792380Y-60803809D02*
X158792380Y-60803809D01*
X158935238Y-60899047D01*
X159030476Y-60994285D01*
X159078095Y-61089523D01*
G04 #@! TO.C,Q312*
X170047619Y-63327619D02*
X170000000Y-63422857D01*
X169904761Y-63518095D01*
X169761904Y-63660952D01*
X169714285Y-63756190D01*
X169714285Y-63851428D01*
X169952380Y-63803809D02*
X169904761Y-63899047D01*
X169809523Y-63994285D01*
X169619047Y-64041904D01*
X169285714Y-64041904D01*
X169095238Y-63994285D01*
X169000000Y-63899047D01*
X168952380Y-63803809D01*
X168952380Y-63613333D01*
X169000000Y-63518095D01*
X169095238Y-63422857D01*
X169285714Y-63375238D01*
X169619047Y-63375238D01*
X169809523Y-63422857D01*
X169904761Y-63518095D01*
X169952380Y-63613333D01*
X169952380Y-63803809D01*
X168952380Y-63041904D02*
X168952380Y-62422857D01*
X169333333Y-62756190D01*
X169333333Y-62613333D01*
X169380952Y-62518095D01*
X169428571Y-62470476D01*
X169523809Y-62422857D01*
X169761904Y-62422857D01*
X169857142Y-62470476D01*
X169904761Y-62518095D01*
X169952380Y-62613333D01*
X169952380Y-62899047D01*
X169904761Y-62994285D01*
X169857142Y-63041904D01*
X169952380Y-61470476D02*
X169952380Y-62041904D01*
X169952380Y-61756190D02*
X168952380Y-61756190D01*
X169095238Y-61851428D01*
X169190476Y-61946666D01*
X169238095Y-62041904D01*
X169047619Y-61089523D02*
X169000000Y-61041904D01*
X168952380Y-60946666D01*
X168952380Y-60708571D01*
X169000000Y-60613333D01*
X169047619Y-60565714D01*
X169142857Y-60518095D01*
X169238095Y-60518095D01*
X169380952Y-60565714D01*
X169952380Y-61137142D01*
X169952380Y-60518095D01*
G04 #@! TO.C,R204*
X132532380Y-101195047D02*
X132056190Y-101528380D01*
X132532380Y-101766476D02*
X131532380Y-101766476D01*
X131532380Y-101385523D01*
X131580000Y-101290285D01*
X131627619Y-101242666D01*
X131722857Y-101195047D01*
X131865714Y-101195047D01*
X131960952Y-101242666D01*
X132008571Y-101290285D01*
X132056190Y-101385523D01*
X132056190Y-101766476D01*
X131627619Y-100814095D02*
X131580000Y-100766476D01*
X131532380Y-100671238D01*
X131532380Y-100433142D01*
X131580000Y-100337904D01*
X131627619Y-100290285D01*
X131722857Y-100242666D01*
X131818095Y-100242666D01*
X131960952Y-100290285D01*
X132532380Y-100861714D01*
X132532380Y-100242666D01*
X131532380Y-99623619D02*
X131532380Y-99528380D01*
X131580000Y-99433142D01*
X131627619Y-99385523D01*
X131722857Y-99337904D01*
X131913333Y-99290285D01*
X132151428Y-99290285D01*
X132341904Y-99337904D01*
X132437142Y-99385523D01*
X132484761Y-99433142D01*
X132532380Y-99528380D01*
X132532380Y-99623619D01*
X132484761Y-99718857D01*
X132437142Y-99766476D01*
X132341904Y-99814095D01*
X132151428Y-99861714D01*
X131913333Y-99861714D01*
X131722857Y-99814095D01*
X131627619Y-99766476D01*
X131580000Y-99718857D01*
X131532380Y-99623619D01*
X131865714Y-98433142D02*
X132532380Y-98433142D01*
X131484761Y-98671238D02*
X132199047Y-98909333D01*
X132199047Y-98290285D01*
G04 #@! TO.C,R301*
X123482380Y-73509047D02*
X123006190Y-73842380D01*
X123482380Y-74080476D02*
X122482380Y-74080476D01*
X122482380Y-73699523D01*
X122530000Y-73604285D01*
X122577619Y-73556666D01*
X122672857Y-73509047D01*
X122815714Y-73509047D01*
X122910952Y-73556666D01*
X122958571Y-73604285D01*
X123006190Y-73699523D01*
X123006190Y-74080476D01*
X122482380Y-73175714D02*
X122482380Y-72556666D01*
X122863333Y-72890000D01*
X122863333Y-72747142D01*
X122910952Y-72651904D01*
X122958571Y-72604285D01*
X123053809Y-72556666D01*
X123291904Y-72556666D01*
X123387142Y-72604285D01*
X123434761Y-72651904D01*
X123482380Y-72747142D01*
X123482380Y-73032857D01*
X123434761Y-73128095D01*
X123387142Y-73175714D01*
X122482380Y-71937619D02*
X122482380Y-71842380D01*
X122530000Y-71747142D01*
X122577619Y-71699523D01*
X122672857Y-71651904D01*
X122863333Y-71604285D01*
X123101428Y-71604285D01*
X123291904Y-71651904D01*
X123387142Y-71699523D01*
X123434761Y-71747142D01*
X123482380Y-71842380D01*
X123482380Y-71937619D01*
X123434761Y-72032857D01*
X123387142Y-72080476D01*
X123291904Y-72128095D01*
X123101428Y-72175714D01*
X122863333Y-72175714D01*
X122672857Y-72128095D01*
X122577619Y-72080476D01*
X122530000Y-72032857D01*
X122482380Y-71937619D01*
X123482380Y-70651904D02*
X123482380Y-71223333D01*
X123482380Y-70937619D02*
X122482380Y-70937619D01*
X122625238Y-71032857D01*
X122720476Y-71128095D01*
X122768095Y-71223333D01*
G04 #@! TO.C,R202*
X134564380Y-77573047D02*
X134088190Y-77906380D01*
X134564380Y-78144476D02*
X133564380Y-78144476D01*
X133564380Y-77763523D01*
X133612000Y-77668285D01*
X133659619Y-77620666D01*
X133754857Y-77573047D01*
X133897714Y-77573047D01*
X133992952Y-77620666D01*
X134040571Y-77668285D01*
X134088190Y-77763523D01*
X134088190Y-78144476D01*
X133659619Y-77192095D02*
X133612000Y-77144476D01*
X133564380Y-77049238D01*
X133564380Y-76811142D01*
X133612000Y-76715904D01*
X133659619Y-76668285D01*
X133754857Y-76620666D01*
X133850095Y-76620666D01*
X133992952Y-76668285D01*
X134564380Y-77239714D01*
X134564380Y-76620666D01*
X133564380Y-76001619D02*
X133564380Y-75906380D01*
X133612000Y-75811142D01*
X133659619Y-75763523D01*
X133754857Y-75715904D01*
X133945333Y-75668285D01*
X134183428Y-75668285D01*
X134373904Y-75715904D01*
X134469142Y-75763523D01*
X134516761Y-75811142D01*
X134564380Y-75906380D01*
X134564380Y-76001619D01*
X134516761Y-76096857D01*
X134469142Y-76144476D01*
X134373904Y-76192095D01*
X134183428Y-76239714D01*
X133945333Y-76239714D01*
X133754857Y-76192095D01*
X133659619Y-76144476D01*
X133612000Y-76096857D01*
X133564380Y-76001619D01*
X133659619Y-75287333D02*
X133612000Y-75239714D01*
X133564380Y-75144476D01*
X133564380Y-74906380D01*
X133612000Y-74811142D01*
X133659619Y-74763523D01*
X133754857Y-74715904D01*
X133850095Y-74715904D01*
X133992952Y-74763523D01*
X134564380Y-75334952D01*
X134564380Y-74715904D01*
G04 #@! TO.C,R302*
X129992380Y-67032047D02*
X129516190Y-67365380D01*
X129992380Y-67603476D02*
X128992380Y-67603476D01*
X128992380Y-67222523D01*
X129040000Y-67127285D01*
X129087619Y-67079666D01*
X129182857Y-67032047D01*
X129325714Y-67032047D01*
X129420952Y-67079666D01*
X129468571Y-67127285D01*
X129516190Y-67222523D01*
X129516190Y-67603476D01*
X128992380Y-66698714D02*
X128992380Y-66079666D01*
X129373333Y-66413000D01*
X129373333Y-66270142D01*
X129420952Y-66174904D01*
X129468571Y-66127285D01*
X129563809Y-66079666D01*
X129801904Y-66079666D01*
X129897142Y-66127285D01*
X129944761Y-66174904D01*
X129992380Y-66270142D01*
X129992380Y-66555857D01*
X129944761Y-66651095D01*
X129897142Y-66698714D01*
X128992380Y-65460619D02*
X128992380Y-65365380D01*
X129040000Y-65270142D01*
X129087619Y-65222523D01*
X129182857Y-65174904D01*
X129373333Y-65127285D01*
X129611428Y-65127285D01*
X129801904Y-65174904D01*
X129897142Y-65222523D01*
X129944761Y-65270142D01*
X129992380Y-65365380D01*
X129992380Y-65460619D01*
X129944761Y-65555857D01*
X129897142Y-65603476D01*
X129801904Y-65651095D01*
X129611428Y-65698714D01*
X129373333Y-65698714D01*
X129182857Y-65651095D01*
X129087619Y-65603476D01*
X129040000Y-65555857D01*
X128992380Y-65460619D01*
X129087619Y-64746333D02*
X129040000Y-64698714D01*
X128992380Y-64603476D01*
X128992380Y-64365380D01*
X129040000Y-64270142D01*
X129087619Y-64222523D01*
X129182857Y-64174904D01*
X129278095Y-64174904D01*
X129420952Y-64222523D01*
X129992380Y-64793952D01*
X129992380Y-64174904D01*
G04 #@! TO.C,R351*
X108989952Y-71826380D02*
X108656619Y-71350190D01*
X108418523Y-71826380D02*
X108418523Y-70826380D01*
X108799476Y-70826380D01*
X108894714Y-70874000D01*
X108942333Y-70921619D01*
X108989952Y-71016857D01*
X108989952Y-71159714D01*
X108942333Y-71254952D01*
X108894714Y-71302571D01*
X108799476Y-71350190D01*
X108418523Y-71350190D01*
X109323285Y-70826380D02*
X109942333Y-70826380D01*
X109609000Y-71207333D01*
X109751857Y-71207333D01*
X109847095Y-71254952D01*
X109894714Y-71302571D01*
X109942333Y-71397809D01*
X109942333Y-71635904D01*
X109894714Y-71731142D01*
X109847095Y-71778761D01*
X109751857Y-71826380D01*
X109466142Y-71826380D01*
X109370904Y-71778761D01*
X109323285Y-71731142D01*
X110847095Y-70826380D02*
X110370904Y-70826380D01*
X110323285Y-71302571D01*
X110370904Y-71254952D01*
X110466142Y-71207333D01*
X110704238Y-71207333D01*
X110799476Y-71254952D01*
X110847095Y-71302571D01*
X110894714Y-71397809D01*
X110894714Y-71635904D01*
X110847095Y-71731142D01*
X110799476Y-71778761D01*
X110704238Y-71826380D01*
X110466142Y-71826380D01*
X110370904Y-71778761D01*
X110323285Y-71731142D01*
X111847095Y-71826380D02*
X111275666Y-71826380D01*
X111561380Y-71826380D02*
X111561380Y-70826380D01*
X111466142Y-70969238D01*
X111370904Y-71064476D01*
X111275666Y-71112095D01*
G04 #@! TO.C,R352*
X108989952Y-66365380D02*
X108656619Y-65889190D01*
X108418523Y-66365380D02*
X108418523Y-65365380D01*
X108799476Y-65365380D01*
X108894714Y-65413000D01*
X108942333Y-65460619D01*
X108989952Y-65555857D01*
X108989952Y-65698714D01*
X108942333Y-65793952D01*
X108894714Y-65841571D01*
X108799476Y-65889190D01*
X108418523Y-65889190D01*
X109323285Y-65365380D02*
X109942333Y-65365380D01*
X109609000Y-65746333D01*
X109751857Y-65746333D01*
X109847095Y-65793952D01*
X109894714Y-65841571D01*
X109942333Y-65936809D01*
X109942333Y-66174904D01*
X109894714Y-66270142D01*
X109847095Y-66317761D01*
X109751857Y-66365380D01*
X109466142Y-66365380D01*
X109370904Y-66317761D01*
X109323285Y-66270142D01*
X110847095Y-65365380D02*
X110370904Y-65365380D01*
X110323285Y-65841571D01*
X110370904Y-65793952D01*
X110466142Y-65746333D01*
X110704238Y-65746333D01*
X110799476Y-65793952D01*
X110847095Y-65841571D01*
X110894714Y-65936809D01*
X110894714Y-66174904D01*
X110847095Y-66270142D01*
X110799476Y-66317761D01*
X110704238Y-66365380D01*
X110466142Y-66365380D01*
X110370904Y-66317761D01*
X110323285Y-66270142D01*
X111275666Y-65460619D02*
X111323285Y-65413000D01*
X111418523Y-65365380D01*
X111656619Y-65365380D01*
X111751857Y-65413000D01*
X111799476Y-65460619D01*
X111847095Y-65555857D01*
X111847095Y-65651095D01*
X111799476Y-65793952D01*
X111228047Y-66365380D01*
X111847095Y-66365380D01*
G04 #@! TO.C,R152*
X100480952Y-70462380D02*
X100147619Y-69986190D01*
X99909523Y-70462380D02*
X99909523Y-69462380D01*
X100290476Y-69462380D01*
X100385714Y-69510000D01*
X100433333Y-69557619D01*
X100480952Y-69652857D01*
X100480952Y-69795714D01*
X100433333Y-69890952D01*
X100385714Y-69938571D01*
X100290476Y-69986190D01*
X99909523Y-69986190D01*
X101433333Y-70462380D02*
X100861904Y-70462380D01*
X101147619Y-70462380D02*
X101147619Y-69462380D01*
X101052380Y-69605238D01*
X100957142Y-69700476D01*
X100861904Y-69748095D01*
X102338095Y-69462380D02*
X101861904Y-69462380D01*
X101814285Y-69938571D01*
X101861904Y-69890952D01*
X101957142Y-69843333D01*
X102195238Y-69843333D01*
X102290476Y-69890952D01*
X102338095Y-69938571D01*
X102385714Y-70033809D01*
X102385714Y-70271904D01*
X102338095Y-70367142D01*
X102290476Y-70414761D01*
X102195238Y-70462380D01*
X101957142Y-70462380D01*
X101861904Y-70414761D01*
X101814285Y-70367142D01*
X102766666Y-69557619D02*
X102814285Y-69510000D01*
X102909523Y-69462380D01*
X103147619Y-69462380D01*
X103242857Y-69510000D01*
X103290476Y-69557619D01*
X103338095Y-69652857D01*
X103338095Y-69748095D01*
X103290476Y-69890952D01*
X102719047Y-70462380D01*
X103338095Y-70462380D01*
G04 #@! TO.C,R151*
X100480952Y-65382380D02*
X100147619Y-64906190D01*
X99909523Y-65382380D02*
X99909523Y-64382380D01*
X100290476Y-64382380D01*
X100385714Y-64430000D01*
X100433333Y-64477619D01*
X100480952Y-64572857D01*
X100480952Y-64715714D01*
X100433333Y-64810952D01*
X100385714Y-64858571D01*
X100290476Y-64906190D01*
X99909523Y-64906190D01*
X101433333Y-65382380D02*
X100861904Y-65382380D01*
X101147619Y-65382380D02*
X101147619Y-64382380D01*
X101052380Y-64525238D01*
X100957142Y-64620476D01*
X100861904Y-64668095D01*
X102338095Y-64382380D02*
X101861904Y-64382380D01*
X101814285Y-64858571D01*
X101861904Y-64810952D01*
X101957142Y-64763333D01*
X102195238Y-64763333D01*
X102290476Y-64810952D01*
X102338095Y-64858571D01*
X102385714Y-64953809D01*
X102385714Y-65191904D01*
X102338095Y-65287142D01*
X102290476Y-65334761D01*
X102195238Y-65382380D01*
X101957142Y-65382380D01*
X101861904Y-65334761D01*
X101814285Y-65287142D01*
X103338095Y-65382380D02*
X102766666Y-65382380D01*
X103052380Y-65382380D02*
X103052380Y-64382380D01*
X102957142Y-64525238D01*
X102861904Y-64620476D01*
X102766666Y-64668095D01*
G04 #@! TO.C,R203*
X135072380Y-101195047D02*
X134596190Y-101528380D01*
X135072380Y-101766476D02*
X134072380Y-101766476D01*
X134072380Y-101385523D01*
X134120000Y-101290285D01*
X134167619Y-101242666D01*
X134262857Y-101195047D01*
X134405714Y-101195047D01*
X134500952Y-101242666D01*
X134548571Y-101290285D01*
X134596190Y-101385523D01*
X134596190Y-101766476D01*
X134167619Y-100814095D02*
X134120000Y-100766476D01*
X134072380Y-100671238D01*
X134072380Y-100433142D01*
X134120000Y-100337904D01*
X134167619Y-100290285D01*
X134262857Y-100242666D01*
X134358095Y-100242666D01*
X134500952Y-100290285D01*
X135072380Y-100861714D01*
X135072380Y-100242666D01*
X134072380Y-99623619D02*
X134072380Y-99528380D01*
X134120000Y-99433142D01*
X134167619Y-99385523D01*
X134262857Y-99337904D01*
X134453333Y-99290285D01*
X134691428Y-99290285D01*
X134881904Y-99337904D01*
X134977142Y-99385523D01*
X135024761Y-99433142D01*
X135072380Y-99528380D01*
X135072380Y-99623619D01*
X135024761Y-99718857D01*
X134977142Y-99766476D01*
X134881904Y-99814095D01*
X134691428Y-99861714D01*
X134453333Y-99861714D01*
X134262857Y-99814095D01*
X134167619Y-99766476D01*
X134120000Y-99718857D01*
X134072380Y-99623619D01*
X134072380Y-98956952D02*
X134072380Y-98337904D01*
X134453333Y-98671238D01*
X134453333Y-98528380D01*
X134500952Y-98433142D01*
X134548571Y-98385523D01*
X134643809Y-98337904D01*
X134881904Y-98337904D01*
X134977142Y-98385523D01*
X135024761Y-98433142D01*
X135072380Y-98528380D01*
X135072380Y-98814095D01*
X135024761Y-98909333D01*
X134977142Y-98956952D01*
G04 #@! TO.C,CN102*
X116721142Y-83415142D02*
X116673523Y-83462761D01*
X116530666Y-83510380D01*
X116435428Y-83510380D01*
X116292571Y-83462761D01*
X116197333Y-83367523D01*
X116149714Y-83272285D01*
X116102095Y-83081809D01*
X116102095Y-82938952D01*
X116149714Y-82748476D01*
X116197333Y-82653238D01*
X116292571Y-82558000D01*
X116435428Y-82510380D01*
X116530666Y-82510380D01*
X116673523Y-82558000D01*
X116721142Y-82605619D01*
X117149714Y-83510380D02*
X117149714Y-82510380D01*
X117721142Y-83510380D01*
X117721142Y-82510380D01*
X118721142Y-83510380D02*
X118149714Y-83510380D01*
X118435428Y-83510380D02*
X118435428Y-82510380D01*
X118340190Y-82653238D01*
X118244952Y-82748476D01*
X118149714Y-82796095D01*
X119340190Y-82510380D02*
X119435428Y-82510380D01*
X119530666Y-82558000D01*
X119578285Y-82605619D01*
X119625904Y-82700857D01*
X119673523Y-82891333D01*
X119673523Y-83129428D01*
X119625904Y-83319904D01*
X119578285Y-83415142D01*
X119530666Y-83462761D01*
X119435428Y-83510380D01*
X119340190Y-83510380D01*
X119244952Y-83462761D01*
X119197333Y-83415142D01*
X119149714Y-83319904D01*
X119102095Y-83129428D01*
X119102095Y-82891333D01*
X119149714Y-82700857D01*
X119197333Y-82605619D01*
X119244952Y-82558000D01*
X119340190Y-82510380D01*
X120054476Y-82605619D02*
X120102095Y-82558000D01*
X120197333Y-82510380D01*
X120435428Y-82510380D01*
X120530666Y-82558000D01*
X120578285Y-82605619D01*
X120625904Y-82700857D01*
X120625904Y-82796095D01*
X120578285Y-82938952D01*
X120006857Y-83510380D01*
X120625904Y-83510380D01*
G04 #@! TO.C,D101*
X136977380Y-58586476D02*
X135977380Y-58586476D01*
X135977380Y-58348380D01*
X136025000Y-58205523D01*
X136120238Y-58110285D01*
X136215476Y-58062666D01*
X136405952Y-58015047D01*
X136548809Y-58015047D01*
X136739285Y-58062666D01*
X136834523Y-58110285D01*
X136929761Y-58205523D01*
X136977380Y-58348380D01*
X136977380Y-58586476D01*
X136977380Y-57062666D02*
X136977380Y-57634095D01*
X136977380Y-57348380D02*
X135977380Y-57348380D01*
X136120238Y-57443619D01*
X136215476Y-57538857D01*
X136263095Y-57634095D01*
X135977380Y-56443619D02*
X135977380Y-56348380D01*
X136025000Y-56253142D01*
X136072619Y-56205523D01*
X136167857Y-56157904D01*
X136358333Y-56110285D01*
X136596428Y-56110285D01*
X136786904Y-56157904D01*
X136882142Y-56205523D01*
X136929761Y-56253142D01*
X136977380Y-56348380D01*
X136977380Y-56443619D01*
X136929761Y-56538857D01*
X136882142Y-56586476D01*
X136786904Y-56634095D01*
X136596428Y-56681714D01*
X136358333Y-56681714D01*
X136167857Y-56634095D01*
X136072619Y-56586476D01*
X136025000Y-56538857D01*
X135977380Y-56443619D01*
X136977380Y-55157904D02*
X136977380Y-55729333D01*
X136977380Y-55443619D02*
X135977380Y-55443619D01*
X136120238Y-55538857D01*
X136215476Y-55634095D01*
X136263095Y-55729333D01*
G04 #@! TD*
M02*
