G04 #@! TF.GenerationSoftware,KiCad,Pcbnew,5.0.2-bee76a0~70~ubuntu18.04.1*
G04 #@! TF.CreationDate,2019-06-21T19:34:52-07:00*
G04 #@! TF.ProjectId,aa-stalk-receiver-lvds,61612d73-7461-46c6-9b2d-726563656976,rev?*
G04 #@! TF.SameCoordinates,Original*
G04 #@! TF.FileFunction,Legend,Bot*
G04 #@! TF.FilePolarity,Positive*
%FSLAX46Y46*%
G04 Gerber Fmt 4.6, Leading zero omitted, Abs format (unit mm)*
G04 Created by KiCad (PCBNEW 5.0.2-bee76a0~70~ubuntu18.04.1) date Fri 21 Jun 2019 07:34:52 PM PDT*
%MOMM*%
%LPD*%
G01*
G04 APERTURE LIST*
%ADD10C,0.076200*%
G04 APERTURE END LIST*
D10*
X124901476Y-94209809D02*
X124901476Y-93701809D01*
X124707952Y-93701809D01*
X124659571Y-93726000D01*
X124635380Y-93750190D01*
X124611190Y-93798571D01*
X124611190Y-93871142D01*
X124635380Y-93919523D01*
X124659571Y-93943714D01*
X124707952Y-93967904D01*
X124901476Y-93967904D01*
X124441857Y-93701809D02*
X124320904Y-94209809D01*
X124224142Y-93846952D01*
X124127380Y-94209809D01*
X124006428Y-93701809D01*
X123812904Y-94209809D02*
X123812904Y-93701809D01*
X123643571Y-94064666D01*
X123474238Y-93701809D01*
X123474238Y-94209809D01*
X123353285Y-94258190D02*
X122966238Y-94258190D01*
X122555000Y-94161428D02*
X122579190Y-94185619D01*
X122651761Y-94209809D01*
X122700142Y-94209809D01*
X122772714Y-94185619D01*
X122821095Y-94137238D01*
X122845285Y-94088857D01*
X122869476Y-93992095D01*
X122869476Y-93919523D01*
X122845285Y-93822761D01*
X122821095Y-93774380D01*
X122772714Y-93726000D01*
X122700142Y-93701809D01*
X122651761Y-93701809D01*
X122579190Y-93726000D01*
X122555000Y-93750190D01*
X122361476Y-94064666D02*
X122119571Y-94064666D01*
X122409857Y-94209809D02*
X122240523Y-93701809D01*
X122071190Y-94209809D01*
X121901857Y-94209809D02*
X121901857Y-93701809D01*
X121708333Y-93701809D01*
X121659952Y-93726000D01*
X121635761Y-93750190D01*
X121611571Y-93798571D01*
X121611571Y-93871142D01*
X121635761Y-93919523D01*
X121659952Y-93943714D01*
X121708333Y-93967904D01*
X121901857Y-93967904D01*
X121514809Y-94258190D02*
X121127761Y-94258190D01*
X121006809Y-94209809D02*
X121006809Y-93701809D01*
X120716523Y-94209809D01*
X120716523Y-93701809D01*
X115618380Y-92939809D02*
X115618380Y-92431809D01*
X115424857Y-92431809D01*
X115376476Y-92456000D01*
X115352285Y-92480190D01*
X115328095Y-92528571D01*
X115328095Y-92601142D01*
X115352285Y-92649523D01*
X115376476Y-92673714D01*
X115424857Y-92697904D01*
X115618380Y-92697904D01*
X115158761Y-92431809D02*
X115037809Y-92939809D01*
X114941047Y-92576952D01*
X114844285Y-92939809D01*
X114723333Y-92431809D01*
X114529809Y-92939809D02*
X114529809Y-92431809D01*
X114360476Y-92794666D01*
X114191142Y-92431809D01*
X114191142Y-92939809D01*
X114070190Y-92988190D02*
X113683142Y-92988190D01*
X113271904Y-92891428D02*
X113296095Y-92915619D01*
X113368666Y-92939809D01*
X113417047Y-92939809D01*
X113489619Y-92915619D01*
X113538000Y-92867238D01*
X113562190Y-92818857D01*
X113586380Y-92722095D01*
X113586380Y-92649523D01*
X113562190Y-92552761D01*
X113538000Y-92504380D01*
X113489619Y-92456000D01*
X113417047Y-92431809D01*
X113368666Y-92431809D01*
X113296095Y-92456000D01*
X113271904Y-92480190D01*
X113078380Y-92794666D02*
X112836476Y-92794666D01*
X113126761Y-92939809D02*
X112957428Y-92431809D01*
X112788095Y-92939809D01*
X112618761Y-92939809D02*
X112618761Y-92431809D01*
X112425238Y-92431809D01*
X112376857Y-92456000D01*
X112352666Y-92480190D01*
X112328476Y-92528571D01*
X112328476Y-92601142D01*
X112352666Y-92649523D01*
X112376857Y-92673714D01*
X112425238Y-92697904D01*
X112618761Y-92697904D01*
X112231714Y-92988190D02*
X111844666Y-92988190D01*
X111723714Y-92939809D02*
X111723714Y-92431809D01*
X111530190Y-92431809D01*
X111481809Y-92456000D01*
X111457619Y-92480190D01*
X111433428Y-92528571D01*
X111433428Y-92601142D01*
X111457619Y-92649523D01*
X111481809Y-92673714D01*
X111530190Y-92697904D01*
X111723714Y-92697904D01*
X124659571Y-91669809D02*
X124828904Y-91427904D01*
X124949857Y-91669809D02*
X124949857Y-91161809D01*
X124756333Y-91161809D01*
X124707952Y-91186000D01*
X124683761Y-91210190D01*
X124659571Y-91258571D01*
X124659571Y-91331142D01*
X124683761Y-91379523D01*
X124707952Y-91403714D01*
X124756333Y-91427904D01*
X124949857Y-91427904D01*
X124490238Y-91161809D02*
X124151571Y-91669809D01*
X124151571Y-91161809D02*
X124490238Y-91669809D01*
X124079000Y-91718190D02*
X123691952Y-91718190D01*
X123595190Y-91645619D02*
X123522619Y-91669809D01*
X123401666Y-91669809D01*
X123353285Y-91645619D01*
X123329095Y-91621428D01*
X123304904Y-91573047D01*
X123304904Y-91524666D01*
X123329095Y-91476285D01*
X123353285Y-91452095D01*
X123401666Y-91427904D01*
X123498428Y-91403714D01*
X123546809Y-91379523D01*
X123571000Y-91355333D01*
X123595190Y-91306952D01*
X123595190Y-91258571D01*
X123571000Y-91210190D01*
X123546809Y-91186000D01*
X123498428Y-91161809D01*
X123377476Y-91161809D01*
X123304904Y-91186000D01*
X123159761Y-91161809D02*
X122869476Y-91161809D01*
X123014619Y-91669809D02*
X123014619Y-91161809D01*
X122724333Y-91524666D02*
X122482428Y-91524666D01*
X122772714Y-91669809D02*
X122603380Y-91161809D01*
X122434047Y-91669809D01*
X122022809Y-91669809D02*
X122264714Y-91669809D01*
X122264714Y-91161809D01*
X121853476Y-91669809D02*
X121853476Y-91161809D01*
X121563190Y-91669809D02*
X121780904Y-91379523D01*
X121563190Y-91161809D02*
X121853476Y-91452095D01*
X121466428Y-91718190D02*
X121079380Y-91718190D01*
X120958428Y-91669809D02*
X120958428Y-91161809D01*
X120668142Y-91669809D01*
X120668142Y-91161809D01*
X115376476Y-90399809D02*
X115545809Y-90157904D01*
X115666761Y-90399809D02*
X115666761Y-89891809D01*
X115473238Y-89891809D01*
X115424857Y-89916000D01*
X115400666Y-89940190D01*
X115376476Y-89988571D01*
X115376476Y-90061142D01*
X115400666Y-90109523D01*
X115424857Y-90133714D01*
X115473238Y-90157904D01*
X115666761Y-90157904D01*
X115207142Y-89891809D02*
X114868476Y-90399809D01*
X114868476Y-89891809D02*
X115207142Y-90399809D01*
X114795904Y-90448190D02*
X114408857Y-90448190D01*
X114312095Y-90375619D02*
X114239523Y-90399809D01*
X114118571Y-90399809D01*
X114070190Y-90375619D01*
X114046000Y-90351428D01*
X114021809Y-90303047D01*
X114021809Y-90254666D01*
X114046000Y-90206285D01*
X114070190Y-90182095D01*
X114118571Y-90157904D01*
X114215333Y-90133714D01*
X114263714Y-90109523D01*
X114287904Y-90085333D01*
X114312095Y-90036952D01*
X114312095Y-89988571D01*
X114287904Y-89940190D01*
X114263714Y-89916000D01*
X114215333Y-89891809D01*
X114094380Y-89891809D01*
X114021809Y-89916000D01*
X113876666Y-89891809D02*
X113586380Y-89891809D01*
X113731523Y-90399809D02*
X113731523Y-89891809D01*
X113441238Y-90254666D02*
X113199333Y-90254666D01*
X113489619Y-90399809D02*
X113320285Y-89891809D01*
X113150952Y-90399809D01*
X112739714Y-90399809D02*
X112981619Y-90399809D01*
X112981619Y-89891809D01*
X112570380Y-90399809D02*
X112570380Y-89891809D01*
X112280095Y-90399809D02*
X112497809Y-90109523D01*
X112280095Y-89891809D02*
X112570380Y-90182095D01*
X112183333Y-90448190D02*
X111796285Y-90448190D01*
X111675333Y-90399809D02*
X111675333Y-89891809D01*
X111481809Y-89891809D01*
X111433428Y-89916000D01*
X111409238Y-89940190D01*
X111385047Y-89988571D01*
X111385047Y-90061142D01*
X111409238Y-90109523D01*
X111433428Y-90133714D01*
X111481809Y-90157904D01*
X111675333Y-90157904D01*
M02*
