G04 #@! TF.GenerationSoftware,KiCad,Pcbnew,5.0.2-bee76a0~70~ubuntu18.04.1*
G04 #@! TF.CreationDate,2019-06-19T23:08:53-07:00*
G04 #@! TF.ProjectId,aa-stalk-receiver-lvds,61612d73-7461-46c6-9b2d-726563656976,rev?*
G04 #@! TF.SameCoordinates,Original*
G04 #@! TF.FileFunction,Soldermask,Top*
G04 #@! TF.FilePolarity,Negative*
%FSLAX46Y46*%
G04 Gerber Fmt 4.6, Leading zero omitted, Abs format (unit mm)*
G04 Created by KiCad (PCBNEW 5.0.2-bee76a0~70~ubuntu18.04.1) date Wed 19 Jun 2019 11:08:53 PM PDT*
%MOMM*%
%LPD*%
G01*
G04 APERTURE LIST*
%ADD10C,0.100000*%
G04 APERTURE END LIST*
D10*
G36*
X184175560Y-98622759D02*
X184626084Y-98809372D01*
X184666930Y-98826291D01*
X184686736Y-98839525D01*
X185109153Y-99121775D01*
X185485225Y-99497847D01*
X185485227Y-99497850D01*
X185509167Y-99533678D01*
X185780710Y-99940072D01*
X185984241Y-100431440D01*
X186088000Y-100953072D01*
X186088000Y-101484928D01*
X185984241Y-102006560D01*
X185780710Y-102497928D01*
X185485225Y-102940153D01*
X185109153Y-103316225D01*
X185109150Y-103316227D01*
X184666930Y-103611709D01*
X184666929Y-103611710D01*
X184666928Y-103611710D01*
X184175560Y-103815241D01*
X183653928Y-103919000D01*
X183122072Y-103919000D01*
X182600440Y-103815241D01*
X182109072Y-103611710D01*
X182109071Y-103611710D01*
X182109070Y-103611709D01*
X181666850Y-103316227D01*
X181666847Y-103316225D01*
X181290775Y-102940153D01*
X180995290Y-102497928D01*
X180791759Y-102006560D01*
X180688000Y-101484928D01*
X180688000Y-100953072D01*
X180791759Y-100431440D01*
X180995290Y-99940072D01*
X181266834Y-99533678D01*
X181290773Y-99497850D01*
X181290775Y-99497847D01*
X181666847Y-99121775D01*
X182089264Y-98839525D01*
X182109070Y-98826291D01*
X182149916Y-98809372D01*
X182600440Y-98622759D01*
X183122072Y-98519000D01*
X183653928Y-98519000D01*
X184175560Y-98622759D01*
X184175560Y-98622759D01*
G37*
G36*
X95656560Y-98622759D02*
X96107084Y-98809372D01*
X96147930Y-98826291D01*
X96167736Y-98839525D01*
X96590153Y-99121775D01*
X96966225Y-99497847D01*
X96966227Y-99497850D01*
X96990167Y-99533678D01*
X97261710Y-99940072D01*
X97465241Y-100431440D01*
X97569000Y-100953072D01*
X97569000Y-101484928D01*
X97465241Y-102006560D01*
X97261710Y-102497928D01*
X96966225Y-102940153D01*
X96590153Y-103316225D01*
X96590150Y-103316227D01*
X96147930Y-103611709D01*
X96147929Y-103611710D01*
X96147928Y-103611710D01*
X95656560Y-103815241D01*
X95134928Y-103919000D01*
X94603072Y-103919000D01*
X94081440Y-103815241D01*
X93590072Y-103611710D01*
X93590071Y-103611710D01*
X93590070Y-103611709D01*
X93147850Y-103316227D01*
X93147847Y-103316225D01*
X92771775Y-102940153D01*
X92476290Y-102497928D01*
X92272759Y-102006560D01*
X92169000Y-101484928D01*
X92169000Y-100953072D01*
X92272759Y-100431440D01*
X92476290Y-99940072D01*
X92747834Y-99533678D01*
X92771773Y-99497850D01*
X92771775Y-99497847D01*
X93147847Y-99121775D01*
X93570264Y-98839525D01*
X93590070Y-98826291D01*
X93630916Y-98809372D01*
X94081440Y-98622759D01*
X94603072Y-98519000D01*
X95134928Y-98519000D01*
X95656560Y-98622759D01*
X95656560Y-98622759D01*
G37*
G36*
X162735770Y-98075372D02*
X162851689Y-98098429D01*
X163033678Y-98173811D01*
X163197463Y-98283249D01*
X163336751Y-98422537D01*
X163446189Y-98586322D01*
X163521571Y-98768311D01*
X163560000Y-98961509D01*
X163560000Y-99158491D01*
X163521571Y-99351689D01*
X163446189Y-99533678D01*
X163336751Y-99697463D01*
X163197463Y-99836751D01*
X163033678Y-99946189D01*
X162851689Y-100021571D01*
X162735770Y-100044628D01*
X162658493Y-100060000D01*
X162461507Y-100060000D01*
X162384230Y-100044628D01*
X162268311Y-100021571D01*
X162086322Y-99946189D01*
X161922537Y-99836751D01*
X161783249Y-99697463D01*
X161673811Y-99533678D01*
X161598429Y-99351689D01*
X161560000Y-99158491D01*
X161560000Y-98961509D01*
X161598429Y-98768311D01*
X161673811Y-98586322D01*
X161783249Y-98422537D01*
X161922537Y-98283249D01*
X162086322Y-98173811D01*
X162268311Y-98098429D01*
X162384230Y-98075372D01*
X162461507Y-98060000D01*
X162658493Y-98060000D01*
X162735770Y-98075372D01*
X162735770Y-98075372D01*
G37*
G36*
X143685770Y-98075372D02*
X143801689Y-98098429D01*
X143983678Y-98173811D01*
X144147463Y-98283249D01*
X144286751Y-98422537D01*
X144396189Y-98586322D01*
X144471571Y-98768311D01*
X144510000Y-98961509D01*
X144510000Y-99158491D01*
X144471571Y-99351689D01*
X144396189Y-99533678D01*
X144286751Y-99697463D01*
X144147463Y-99836751D01*
X143983678Y-99946189D01*
X143801689Y-100021571D01*
X143685770Y-100044628D01*
X143608493Y-100060000D01*
X143411507Y-100060000D01*
X143334230Y-100044628D01*
X143218311Y-100021571D01*
X143036322Y-99946189D01*
X142872537Y-99836751D01*
X142733249Y-99697463D01*
X142623811Y-99533678D01*
X142548429Y-99351689D01*
X142510000Y-99158491D01*
X142510000Y-98961509D01*
X142548429Y-98768311D01*
X142623811Y-98586322D01*
X142733249Y-98422537D01*
X142872537Y-98283249D01*
X143036322Y-98173811D01*
X143218311Y-98098429D01*
X143334230Y-98075372D01*
X143411507Y-98060000D01*
X143608493Y-98060000D01*
X143685770Y-98075372D01*
X143685770Y-98075372D01*
G37*
G36*
X150035770Y-98075372D02*
X150151689Y-98098429D01*
X150333678Y-98173811D01*
X150497463Y-98283249D01*
X150636751Y-98422537D01*
X150746189Y-98586322D01*
X150821571Y-98768311D01*
X150860000Y-98961509D01*
X150860000Y-99158491D01*
X150821571Y-99351689D01*
X150746189Y-99533678D01*
X150636751Y-99697463D01*
X150497463Y-99836751D01*
X150333678Y-99946189D01*
X150151689Y-100021571D01*
X150035770Y-100044628D01*
X149958493Y-100060000D01*
X149761507Y-100060000D01*
X149684230Y-100044628D01*
X149568311Y-100021571D01*
X149386322Y-99946189D01*
X149222537Y-99836751D01*
X149083249Y-99697463D01*
X148973811Y-99533678D01*
X148898429Y-99351689D01*
X148860000Y-99158491D01*
X148860000Y-98961509D01*
X148898429Y-98768311D01*
X148973811Y-98586322D01*
X149083249Y-98422537D01*
X149222537Y-98283249D01*
X149386322Y-98173811D01*
X149568311Y-98098429D01*
X149684230Y-98075372D01*
X149761507Y-98060000D01*
X149958493Y-98060000D01*
X150035770Y-98075372D01*
X150035770Y-98075372D01*
G37*
G36*
X156385770Y-98075372D02*
X156501689Y-98098429D01*
X156683678Y-98173811D01*
X156847463Y-98283249D01*
X156986751Y-98422537D01*
X157096189Y-98586322D01*
X157171571Y-98768311D01*
X157210000Y-98961509D01*
X157210000Y-99158491D01*
X157171571Y-99351689D01*
X157096189Y-99533678D01*
X156986751Y-99697463D01*
X156847463Y-99836751D01*
X156683678Y-99946189D01*
X156501689Y-100021571D01*
X156385770Y-100044628D01*
X156308493Y-100060000D01*
X156111507Y-100060000D01*
X156034230Y-100044628D01*
X155918311Y-100021571D01*
X155736322Y-99946189D01*
X155572537Y-99836751D01*
X155433249Y-99697463D01*
X155323811Y-99533678D01*
X155248429Y-99351689D01*
X155210000Y-99158491D01*
X155210000Y-98961509D01*
X155248429Y-98768311D01*
X155323811Y-98586322D01*
X155433249Y-98422537D01*
X155572537Y-98283249D01*
X155736322Y-98173811D01*
X155918311Y-98098429D01*
X156034230Y-98075372D01*
X156111507Y-98060000D01*
X156308493Y-98060000D01*
X156385770Y-98075372D01*
X156385770Y-98075372D01*
G37*
G36*
X110963992Y-95587447D02*
X110963994Y-95587448D01*
X110963995Y-95587448D01*
X111259726Y-95709943D01*
X111259727Y-95709944D01*
X111525880Y-95887782D01*
X111752218Y-96114120D01*
X111752220Y-96114123D01*
X111930057Y-96380274D01*
X112052552Y-96676005D01*
X112052553Y-96676008D01*
X112115000Y-96989950D01*
X112115000Y-97310050D01*
X112053523Y-97619116D01*
X112052552Y-97623995D01*
X111930057Y-97919726D01*
X111810651Y-98098429D01*
X111752218Y-98185880D01*
X111525880Y-98412218D01*
X111525877Y-98412220D01*
X111259726Y-98590057D01*
X110963995Y-98712552D01*
X110963994Y-98712552D01*
X110963992Y-98712553D01*
X110650050Y-98775000D01*
X110329950Y-98775000D01*
X110016008Y-98712553D01*
X110016006Y-98712552D01*
X110016005Y-98712552D01*
X109720274Y-98590057D01*
X109454123Y-98412220D01*
X109454120Y-98412218D01*
X109227782Y-98185880D01*
X109169349Y-98098429D01*
X109049943Y-97919726D01*
X108927448Y-97623995D01*
X108926478Y-97619116D01*
X108865000Y-97310050D01*
X108865000Y-96989950D01*
X108927447Y-96676008D01*
X108927448Y-96676005D01*
X109049943Y-96380274D01*
X109227780Y-96114123D01*
X109227782Y-96114120D01*
X109454120Y-95887782D01*
X109720273Y-95709944D01*
X109720274Y-95709943D01*
X110016005Y-95587448D01*
X110016006Y-95587448D01*
X110016008Y-95587447D01*
X110329950Y-95525000D01*
X110650050Y-95525000D01*
X110963992Y-95587447D01*
X110963992Y-95587447D01*
G37*
G36*
X137713992Y-96974076D02*
X137747883Y-96984357D01*
X137779111Y-97001048D01*
X137806485Y-97023515D01*
X137828952Y-97050889D01*
X137845643Y-97082117D01*
X137855924Y-97116008D01*
X137860000Y-97157391D01*
X137860000Y-97757609D01*
X137855924Y-97798992D01*
X137845643Y-97832883D01*
X137828952Y-97864111D01*
X137806485Y-97891485D01*
X137779111Y-97913952D01*
X137747883Y-97930643D01*
X137713992Y-97940924D01*
X137672609Y-97945000D01*
X136647391Y-97945000D01*
X136606008Y-97940924D01*
X136572117Y-97930643D01*
X136540889Y-97913952D01*
X136513515Y-97891485D01*
X136491048Y-97864111D01*
X136474357Y-97832883D01*
X136464076Y-97798992D01*
X136460000Y-97757609D01*
X136460000Y-97157391D01*
X136464076Y-97116008D01*
X136474357Y-97082117D01*
X136491048Y-97050889D01*
X136513515Y-97023515D01*
X136540889Y-97001048D01*
X136572117Y-96984357D01*
X136606008Y-96974076D01*
X136647391Y-96970000D01*
X137672609Y-96970000D01*
X137713992Y-96974076D01*
X137713992Y-96974076D01*
G37*
G36*
X134969116Y-96873595D02*
X134998313Y-96882452D01*
X135025218Y-96896833D01*
X135048808Y-96916192D01*
X135068167Y-96939782D01*
X135082548Y-96966687D01*
X135091405Y-96995884D01*
X135095000Y-97032390D01*
X135095000Y-97582610D01*
X135091405Y-97619116D01*
X135082548Y-97648313D01*
X135068167Y-97675218D01*
X135048808Y-97698808D01*
X135025218Y-97718167D01*
X134998313Y-97732548D01*
X134969116Y-97741405D01*
X134932610Y-97745000D01*
X134307390Y-97745000D01*
X134270884Y-97741405D01*
X134241687Y-97732548D01*
X134214782Y-97718167D01*
X134191192Y-97698808D01*
X134171833Y-97675218D01*
X134157452Y-97648313D01*
X134148595Y-97619116D01*
X134145000Y-97582610D01*
X134145000Y-97032390D01*
X134148595Y-96995884D01*
X134157452Y-96966687D01*
X134171833Y-96939782D01*
X134191192Y-96916192D01*
X134214782Y-96896833D01*
X134241687Y-96882452D01*
X134270884Y-96873595D01*
X134307390Y-96870000D01*
X134932610Y-96870000D01*
X134969116Y-96873595D01*
X134969116Y-96873595D01*
G37*
G36*
X132429116Y-96873595D02*
X132458313Y-96882452D01*
X132485218Y-96896833D01*
X132508808Y-96916192D01*
X132528167Y-96939782D01*
X132542548Y-96966687D01*
X132551405Y-96995884D01*
X132555000Y-97032390D01*
X132555000Y-97582610D01*
X132551405Y-97619116D01*
X132542548Y-97648313D01*
X132528167Y-97675218D01*
X132508808Y-97698808D01*
X132485218Y-97718167D01*
X132458313Y-97732548D01*
X132429116Y-97741405D01*
X132392610Y-97745000D01*
X131767390Y-97745000D01*
X131730884Y-97741405D01*
X131701687Y-97732548D01*
X131674782Y-97718167D01*
X131651192Y-97698808D01*
X131631833Y-97675218D01*
X131617452Y-97648313D01*
X131608595Y-97619116D01*
X131605000Y-97582610D01*
X131605000Y-97032390D01*
X131608595Y-96995884D01*
X131617452Y-96966687D01*
X131631833Y-96939782D01*
X131651192Y-96916192D01*
X131674782Y-96896833D01*
X131701687Y-96882452D01*
X131730884Y-96873595D01*
X131767390Y-96870000D01*
X132392610Y-96870000D01*
X132429116Y-96873595D01*
X132429116Y-96873595D01*
G37*
G36*
X134969116Y-95298595D02*
X134998313Y-95307452D01*
X135025218Y-95321833D01*
X135048808Y-95341192D01*
X135068167Y-95364782D01*
X135082548Y-95391687D01*
X135091405Y-95420884D01*
X135095000Y-95457390D01*
X135095000Y-96007610D01*
X135091405Y-96044116D01*
X135082548Y-96073313D01*
X135068167Y-96100218D01*
X135048808Y-96123808D01*
X135025218Y-96143167D01*
X134998313Y-96157548D01*
X134969116Y-96166405D01*
X134932610Y-96170000D01*
X134307390Y-96170000D01*
X134270884Y-96166405D01*
X134241687Y-96157548D01*
X134214782Y-96143167D01*
X134191192Y-96123808D01*
X134171833Y-96100218D01*
X134157452Y-96073313D01*
X134148595Y-96044116D01*
X134145000Y-96007610D01*
X134145000Y-95457390D01*
X134148595Y-95420884D01*
X134157452Y-95391687D01*
X134171833Y-95364782D01*
X134191192Y-95341192D01*
X134214782Y-95321833D01*
X134241687Y-95307452D01*
X134270884Y-95298595D01*
X134307390Y-95295000D01*
X134932610Y-95295000D01*
X134969116Y-95298595D01*
X134969116Y-95298595D01*
G37*
G36*
X132429116Y-95298595D02*
X132458313Y-95307452D01*
X132485218Y-95321833D01*
X132508808Y-95341192D01*
X132528167Y-95364782D01*
X132542548Y-95391687D01*
X132551405Y-95420884D01*
X132555000Y-95457390D01*
X132555000Y-96007610D01*
X132551405Y-96044116D01*
X132542548Y-96073313D01*
X132528167Y-96100218D01*
X132508808Y-96123808D01*
X132485218Y-96143167D01*
X132458313Y-96157548D01*
X132429116Y-96166405D01*
X132392610Y-96170000D01*
X131767390Y-96170000D01*
X131730884Y-96166405D01*
X131701687Y-96157548D01*
X131674782Y-96143167D01*
X131651192Y-96123808D01*
X131631833Y-96100218D01*
X131617452Y-96073313D01*
X131608595Y-96044116D01*
X131605000Y-96007610D01*
X131605000Y-95457390D01*
X131608595Y-95420884D01*
X131617452Y-95391687D01*
X131631833Y-95364782D01*
X131651192Y-95341192D01*
X131674782Y-95321833D01*
X131701687Y-95307452D01*
X131730884Y-95298595D01*
X131767390Y-95295000D01*
X132392610Y-95295000D01*
X132429116Y-95298595D01*
X132429116Y-95298595D01*
G37*
G36*
X137713992Y-95099076D02*
X137747883Y-95109357D01*
X137779111Y-95126048D01*
X137806485Y-95148515D01*
X137828952Y-95175889D01*
X137845643Y-95207117D01*
X137855924Y-95241008D01*
X137860000Y-95282391D01*
X137860000Y-95882609D01*
X137855924Y-95923992D01*
X137845643Y-95957883D01*
X137828952Y-95989111D01*
X137806485Y-96016485D01*
X137779111Y-96038952D01*
X137747883Y-96055643D01*
X137713992Y-96065924D01*
X137672609Y-96070000D01*
X136647391Y-96070000D01*
X136606008Y-96065924D01*
X136572117Y-96055643D01*
X136540889Y-96038952D01*
X136513515Y-96016485D01*
X136491048Y-95989111D01*
X136474357Y-95957883D01*
X136464076Y-95923992D01*
X136460000Y-95882609D01*
X136460000Y-95282391D01*
X136464076Y-95241008D01*
X136474357Y-95207117D01*
X136491048Y-95175889D01*
X136513515Y-95148515D01*
X136540889Y-95126048D01*
X136572117Y-95109357D01*
X136606008Y-95099076D01*
X136647391Y-95095000D01*
X137672609Y-95095000D01*
X137713992Y-95099076D01*
X137713992Y-95099076D01*
G37*
G36*
X117061683Y-94519206D02*
X117199992Y-94576495D01*
X117199995Y-94576497D01*
X117307595Y-94648393D01*
X117324476Y-94659673D01*
X117430327Y-94765524D01*
X117513505Y-94890008D01*
X117570794Y-95028317D01*
X117600000Y-95175145D01*
X117600000Y-95324855D01*
X117570794Y-95471683D01*
X117513505Y-95609992D01*
X117430327Y-95734476D01*
X117324476Y-95840327D01*
X117324473Y-95840329D01*
X117324472Y-95840330D01*
X117199995Y-95923503D01*
X117199992Y-95923505D01*
X117061683Y-95980794D01*
X116914855Y-96010000D01*
X116765145Y-96010000D01*
X116618317Y-95980794D01*
X116480008Y-95923505D01*
X116480005Y-95923503D01*
X116355528Y-95840330D01*
X116355527Y-95840329D01*
X116355524Y-95840327D01*
X116249673Y-95734476D01*
X116166495Y-95609992D01*
X116109206Y-95471683D01*
X116080000Y-95324855D01*
X116080000Y-95175145D01*
X116109206Y-95028317D01*
X116166495Y-94890008D01*
X116249673Y-94765524D01*
X116355524Y-94659673D01*
X116372406Y-94648393D01*
X116480005Y-94576497D01*
X116480008Y-94576495D01*
X116618317Y-94519206D01*
X116765145Y-94490000D01*
X116914855Y-94490000D01*
X117061683Y-94519206D01*
X117061683Y-94519206D01*
G37*
G36*
X96695770Y-92995372D02*
X96811689Y-93018429D01*
X96993678Y-93093811D01*
X97157463Y-93203249D01*
X97296751Y-93342537D01*
X97406189Y-93506322D01*
X97481571Y-93688311D01*
X97520000Y-93881509D01*
X97520000Y-94078491D01*
X97481571Y-94271689D01*
X97406189Y-94453678D01*
X97296751Y-94617463D01*
X97157463Y-94756751D01*
X96993678Y-94866189D01*
X96811689Y-94941571D01*
X96695770Y-94964628D01*
X96618493Y-94980000D01*
X96421507Y-94980000D01*
X96344230Y-94964628D01*
X96228311Y-94941571D01*
X96046322Y-94866189D01*
X95882537Y-94756751D01*
X95743249Y-94617463D01*
X95633811Y-94453678D01*
X95558429Y-94271689D01*
X95520000Y-94078491D01*
X95520000Y-93881509D01*
X95558429Y-93688311D01*
X95633811Y-93506322D01*
X95743249Y-93342537D01*
X95882537Y-93203249D01*
X96046322Y-93093811D01*
X96228311Y-93018429D01*
X96344230Y-92995372D01*
X96421507Y-92980000D01*
X96618493Y-92980000D01*
X96695770Y-92995372D01*
X96695770Y-92995372D01*
G37*
G36*
X157597649Y-93187717D02*
X157636827Y-93191576D01*
X157712227Y-93214448D01*
X157787629Y-93237321D01*
X157926608Y-93311608D01*
X158048422Y-93411578D01*
X158148392Y-93533392D01*
X158222679Y-93672371D01*
X158222679Y-93672372D01*
X158268424Y-93823173D01*
X158283870Y-93980000D01*
X158274170Y-94078491D01*
X158268424Y-94136826D01*
X158222679Y-94287629D01*
X158148392Y-94426608D01*
X158048422Y-94548422D01*
X157926608Y-94648392D01*
X157787629Y-94722679D01*
X157712228Y-94745551D01*
X157636827Y-94768424D01*
X157597649Y-94772283D01*
X157519295Y-94780000D01*
X157440705Y-94780000D01*
X157362351Y-94772283D01*
X157323173Y-94768424D01*
X157247772Y-94745551D01*
X157172371Y-94722679D01*
X157033392Y-94648392D01*
X156911578Y-94548422D01*
X156811608Y-94426608D01*
X156737321Y-94287629D01*
X156691576Y-94136826D01*
X156685831Y-94078491D01*
X156676130Y-93980000D01*
X156691576Y-93823173D01*
X156737321Y-93672372D01*
X156737321Y-93672371D01*
X156811608Y-93533392D01*
X156911578Y-93411578D01*
X157033392Y-93311608D01*
X157172371Y-93237321D01*
X157247773Y-93214448D01*
X157323173Y-93191576D01*
X157362351Y-93187717D01*
X157440705Y-93180000D01*
X157519295Y-93180000D01*
X157597649Y-93187717D01*
X157597649Y-93187717D01*
G37*
G36*
X150660000Y-94780000D02*
X149060000Y-94780000D01*
X149060000Y-93180000D01*
X150660000Y-93180000D01*
X150660000Y-94780000D01*
X150660000Y-94780000D01*
G37*
G36*
X119601683Y-93249206D02*
X119739992Y-93306495D01*
X119739995Y-93306497D01*
X119793933Y-93342537D01*
X119864476Y-93389673D01*
X119970327Y-93495524D01*
X120053505Y-93620008D01*
X120110794Y-93758317D01*
X120140000Y-93905145D01*
X120140000Y-94054855D01*
X120110794Y-94201683D01*
X120053505Y-94339992D01*
X119970327Y-94464476D01*
X119864476Y-94570327D01*
X119864473Y-94570329D01*
X119864472Y-94570330D01*
X119793928Y-94617466D01*
X119739992Y-94653505D01*
X119601683Y-94710794D01*
X119454855Y-94740000D01*
X119305145Y-94740000D01*
X119158317Y-94710794D01*
X119020008Y-94653505D01*
X118966072Y-94617466D01*
X118895528Y-94570330D01*
X118895527Y-94570329D01*
X118895524Y-94570327D01*
X118789673Y-94464476D01*
X118706495Y-94339992D01*
X118649206Y-94201683D01*
X118620000Y-94054855D01*
X118620000Y-93905145D01*
X118649206Y-93758317D01*
X118706495Y-93620008D01*
X118789673Y-93495524D01*
X118895524Y-93389673D01*
X118966068Y-93342537D01*
X119020005Y-93306497D01*
X119020008Y-93306495D01*
X119158317Y-93249206D01*
X119305145Y-93220000D01*
X119454855Y-93220000D01*
X119601683Y-93249206D01*
X119601683Y-93249206D01*
G37*
G36*
X138070000Y-93645000D02*
X136570000Y-93645000D01*
X136570000Y-93045000D01*
X138070000Y-93045000D01*
X138070000Y-93645000D01*
X138070000Y-93645000D01*
G37*
G36*
X132670000Y-93645000D02*
X131170000Y-93645000D01*
X131170000Y-93045000D01*
X132670000Y-93045000D01*
X132670000Y-93645000D01*
X132670000Y-93645000D01*
G37*
G36*
X117061683Y-91979206D02*
X117199992Y-92036495D01*
X117324476Y-92119673D01*
X117430327Y-92225524D01*
X117513505Y-92350008D01*
X117570794Y-92488317D01*
X117600000Y-92635145D01*
X117600000Y-92784855D01*
X117570794Y-92931683D01*
X117513505Y-93069992D01*
X117430327Y-93194476D01*
X117324476Y-93300327D01*
X117324473Y-93300329D01*
X117324472Y-93300330D01*
X117307593Y-93311608D01*
X117199992Y-93383505D01*
X117061683Y-93440794D01*
X116914855Y-93470000D01*
X116765145Y-93470000D01*
X116618317Y-93440794D01*
X116480008Y-93383505D01*
X116372407Y-93311608D01*
X116355528Y-93300330D01*
X116355527Y-93300329D01*
X116355524Y-93300327D01*
X116249673Y-93194476D01*
X116166495Y-93069992D01*
X116109206Y-92931683D01*
X116080000Y-92784855D01*
X116080000Y-92635145D01*
X116109206Y-92488317D01*
X116166495Y-92350008D01*
X116249673Y-92225524D01*
X116355524Y-92119673D01*
X116480008Y-92036495D01*
X116618317Y-91979206D01*
X116765145Y-91950000D01*
X116914855Y-91950000D01*
X117061683Y-91979206D01*
X117061683Y-91979206D01*
G37*
G36*
X132670000Y-92375000D02*
X131170000Y-92375000D01*
X131170000Y-91775000D01*
X132670000Y-91775000D01*
X132670000Y-92375000D01*
X132670000Y-92375000D01*
G37*
G36*
X138070000Y-92375000D02*
X136570000Y-92375000D01*
X136570000Y-91775000D01*
X138070000Y-91775000D01*
X138070000Y-92375000D01*
X138070000Y-92375000D01*
G37*
G36*
X119601683Y-90709206D02*
X119739992Y-90766495D01*
X119739995Y-90766497D01*
X119847595Y-90838393D01*
X119864476Y-90849673D01*
X119970327Y-90955524D01*
X120053505Y-91080008D01*
X120110794Y-91218317D01*
X120140000Y-91365145D01*
X120140000Y-91514855D01*
X120110794Y-91661683D01*
X120053505Y-91799992D01*
X119970327Y-91924476D01*
X119864476Y-92030327D01*
X119739992Y-92113505D01*
X119601683Y-92170794D01*
X119454855Y-92200000D01*
X119305145Y-92200000D01*
X119158317Y-92170794D01*
X119020008Y-92113505D01*
X118895524Y-92030327D01*
X118789673Y-91924476D01*
X118706495Y-91799992D01*
X118649206Y-91661683D01*
X118620000Y-91514855D01*
X118620000Y-91365145D01*
X118649206Y-91218317D01*
X118706495Y-91080008D01*
X118789673Y-90955524D01*
X118895524Y-90849673D01*
X118912406Y-90838393D01*
X119020005Y-90766497D01*
X119020008Y-90766495D01*
X119158317Y-90709206D01*
X119305145Y-90680000D01*
X119454855Y-90680000D01*
X119601683Y-90709206D01*
X119601683Y-90709206D01*
G37*
G36*
X132670000Y-91105000D02*
X131170000Y-91105000D01*
X131170000Y-90505000D01*
X132670000Y-90505000D01*
X132670000Y-91105000D01*
X132670000Y-91105000D01*
G37*
G36*
X138070000Y-91105000D02*
X136570000Y-91105000D01*
X136570000Y-90505000D01*
X138070000Y-90505000D01*
X138070000Y-91105000D01*
X138070000Y-91105000D01*
G37*
G36*
X158280000Y-90970000D02*
X156680000Y-90970000D01*
X156680000Y-89370000D01*
X158280000Y-89370000D01*
X158280000Y-90970000D01*
X158280000Y-90970000D01*
G37*
G36*
X149977649Y-89377717D02*
X150016827Y-89381576D01*
X150048154Y-89391079D01*
X150167629Y-89427321D01*
X150306608Y-89501608D01*
X150428422Y-89601578D01*
X150528392Y-89723392D01*
X150602679Y-89862371D01*
X150648424Y-90013174D01*
X150663870Y-90170000D01*
X150648424Y-90326826D01*
X150602679Y-90477629D01*
X150528392Y-90616608D01*
X150428422Y-90738422D01*
X150306608Y-90838392D01*
X150167629Y-90912679D01*
X150092227Y-90935552D01*
X150016827Y-90958424D01*
X149977649Y-90962283D01*
X149899295Y-90970000D01*
X149820705Y-90970000D01*
X149742351Y-90962283D01*
X149703173Y-90958424D01*
X149627773Y-90935552D01*
X149552371Y-90912679D01*
X149413392Y-90838392D01*
X149291578Y-90738422D01*
X149191608Y-90616608D01*
X149117321Y-90477629D01*
X149071576Y-90326826D01*
X149056130Y-90170000D01*
X149071576Y-90013174D01*
X149117321Y-89862371D01*
X149191608Y-89723392D01*
X149291578Y-89601578D01*
X149413392Y-89501608D01*
X149552371Y-89427321D01*
X149671846Y-89391079D01*
X149703173Y-89381576D01*
X149742351Y-89377717D01*
X149820705Y-89370000D01*
X149899295Y-89370000D01*
X149977649Y-89377717D01*
X149977649Y-89377717D01*
G37*
G36*
X117061683Y-89439206D02*
X117199992Y-89496495D01*
X117199995Y-89496497D01*
X117205943Y-89500471D01*
X117324476Y-89579673D01*
X117430326Y-89685523D01*
X117430328Y-89685526D01*
X117430330Y-89685528D01*
X117455631Y-89723394D01*
X117513505Y-89810008D01*
X117570794Y-89948317D01*
X117600000Y-90095145D01*
X117600000Y-90244855D01*
X117570794Y-90391683D01*
X117513505Y-90529992D01*
X117430327Y-90654476D01*
X117324476Y-90760327D01*
X117199992Y-90843505D01*
X117061683Y-90900794D01*
X116914855Y-90930000D01*
X116765145Y-90930000D01*
X116618317Y-90900794D01*
X116480008Y-90843505D01*
X116355524Y-90760327D01*
X116249673Y-90654476D01*
X116166495Y-90529992D01*
X116109206Y-90391683D01*
X116080000Y-90244855D01*
X116080000Y-90095145D01*
X116109206Y-89948317D01*
X116166495Y-89810008D01*
X116224369Y-89723394D01*
X116249670Y-89685528D01*
X116249672Y-89685526D01*
X116249674Y-89685523D01*
X116355524Y-89579673D01*
X116474058Y-89500471D01*
X116480005Y-89496497D01*
X116480008Y-89496495D01*
X116618317Y-89439206D01*
X116765145Y-89410000D01*
X116914855Y-89410000D01*
X117061683Y-89439206D01*
X117061683Y-89439206D01*
G37*
G36*
X126375000Y-90530000D02*
X125725000Y-90530000D01*
X125725000Y-89470000D01*
X126375000Y-89470000D01*
X126375000Y-90530000D01*
X126375000Y-90530000D01*
G37*
G36*
X127325000Y-90530000D02*
X126675000Y-90530000D01*
X126675000Y-89470000D01*
X127325000Y-89470000D01*
X127325000Y-90530000D01*
X127325000Y-90530000D01*
G37*
G36*
X128275000Y-90530000D02*
X127625000Y-90530000D01*
X127625000Y-89470000D01*
X128275000Y-89470000D01*
X128275000Y-90530000D01*
X128275000Y-90530000D01*
G37*
G36*
X124886992Y-89354076D02*
X124920883Y-89364357D01*
X124952111Y-89381048D01*
X124979485Y-89403515D01*
X125001952Y-89430889D01*
X125018643Y-89462117D01*
X125028924Y-89496008D01*
X125033000Y-89537391D01*
X125033000Y-90137609D01*
X125028924Y-90178992D01*
X125018643Y-90212883D01*
X125001952Y-90244111D01*
X124979485Y-90271485D01*
X124952111Y-90293952D01*
X124920883Y-90310643D01*
X124886992Y-90320924D01*
X124845609Y-90325000D01*
X123820391Y-90325000D01*
X123779008Y-90320924D01*
X123745117Y-90310643D01*
X123713889Y-90293952D01*
X123686515Y-90271485D01*
X123664048Y-90244111D01*
X123647357Y-90212883D01*
X123637076Y-90178992D01*
X123633000Y-90137609D01*
X123633000Y-89537391D01*
X123637076Y-89496008D01*
X123647357Y-89462117D01*
X123664048Y-89430889D01*
X123686515Y-89403515D01*
X123713889Y-89381048D01*
X123745117Y-89364357D01*
X123779008Y-89354076D01*
X123820391Y-89350000D01*
X124845609Y-89350000D01*
X124886992Y-89354076D01*
X124886992Y-89354076D01*
G37*
G36*
X138070000Y-89835000D02*
X136570000Y-89835000D01*
X136570000Y-89235000D01*
X138070000Y-89235000D01*
X138070000Y-89835000D01*
X138070000Y-89835000D01*
G37*
G36*
X132670000Y-89835000D02*
X131170000Y-89835000D01*
X131170000Y-89235000D01*
X132670000Y-89235000D01*
X132670000Y-89835000D01*
X132670000Y-89835000D01*
G37*
G36*
X96686630Y-88062299D02*
X96846855Y-88110903D01*
X96994520Y-88189831D01*
X97123949Y-88296051D01*
X97230169Y-88425480D01*
X97309097Y-88573145D01*
X97357701Y-88733370D01*
X97374112Y-88900000D01*
X97357701Y-89066630D01*
X97309097Y-89226855D01*
X97230169Y-89374520D01*
X97123949Y-89503949D01*
X96994520Y-89610169D01*
X96846855Y-89689097D01*
X96686630Y-89737701D01*
X96561752Y-89750000D01*
X96478248Y-89750000D01*
X96353370Y-89737701D01*
X96193145Y-89689097D01*
X96045480Y-89610169D01*
X95916051Y-89503949D01*
X95809831Y-89374520D01*
X95730903Y-89226855D01*
X95682299Y-89066630D01*
X95665888Y-88900000D01*
X95682299Y-88733370D01*
X95730903Y-88573145D01*
X95809831Y-88425480D01*
X95916051Y-88296051D01*
X96045480Y-88189831D01*
X96193145Y-88110903D01*
X96353370Y-88062299D01*
X96478248Y-88050000D01*
X96561752Y-88050000D01*
X96686630Y-88062299D01*
X96686630Y-88062299D01*
G37*
G36*
X120140000Y-89660000D02*
X118620000Y-89660000D01*
X118620000Y-88140000D01*
X120140000Y-88140000D01*
X120140000Y-89660000D01*
X120140000Y-89660000D01*
G37*
G36*
X110963992Y-85427447D02*
X110963994Y-85427448D01*
X110963995Y-85427448D01*
X111259726Y-85549943D01*
X111422076Y-85658422D01*
X111525880Y-85727782D01*
X111752218Y-85954120D01*
X111752220Y-85954123D01*
X111930057Y-86220274D01*
X112052552Y-86516005D01*
X112052553Y-86516008D01*
X112115000Y-86829950D01*
X112115000Y-87150050D01*
X112086168Y-87295000D01*
X112052552Y-87463995D01*
X111930057Y-87759726D01*
X111930056Y-87759727D01*
X111752218Y-88025880D01*
X111525880Y-88252218D01*
X111525877Y-88252220D01*
X111259726Y-88430057D01*
X110963995Y-88552552D01*
X110963994Y-88552552D01*
X110963992Y-88552553D01*
X110650050Y-88615000D01*
X110329950Y-88615000D01*
X110016008Y-88552553D01*
X110016006Y-88552552D01*
X110016005Y-88552552D01*
X109720274Y-88430057D01*
X109454123Y-88252220D01*
X109454120Y-88252218D01*
X109227782Y-88025880D01*
X109049944Y-87759727D01*
X109049943Y-87759726D01*
X108927448Y-87463995D01*
X108893833Y-87295000D01*
X108865000Y-87150050D01*
X108865000Y-86829950D01*
X108927447Y-86516008D01*
X108927448Y-86516005D01*
X109049943Y-86220274D01*
X109227780Y-85954123D01*
X109227782Y-85954120D01*
X109454120Y-85727782D01*
X109557924Y-85658422D01*
X109720274Y-85549943D01*
X110016005Y-85427448D01*
X110016006Y-85427448D01*
X110016008Y-85427447D01*
X110329950Y-85365000D01*
X110650050Y-85365000D01*
X110963992Y-85427447D01*
X110963992Y-85427447D01*
G37*
G36*
X132670000Y-88565000D02*
X131170000Y-88565000D01*
X131170000Y-87965000D01*
X132670000Y-87965000D01*
X132670000Y-88565000D01*
X132670000Y-88565000D01*
G37*
G36*
X138070000Y-88565000D02*
X136570000Y-88565000D01*
X136570000Y-87965000D01*
X138070000Y-87965000D01*
X138070000Y-88565000D01*
X138070000Y-88565000D01*
G37*
G36*
X124886992Y-87479076D02*
X124920883Y-87489357D01*
X124952111Y-87506048D01*
X124979485Y-87528515D01*
X125001952Y-87555889D01*
X125018643Y-87587117D01*
X125028924Y-87621008D01*
X125033000Y-87662391D01*
X125033000Y-88262609D01*
X125028924Y-88303992D01*
X125018643Y-88337883D01*
X125001952Y-88369111D01*
X124979485Y-88396485D01*
X124952111Y-88418952D01*
X124920883Y-88435643D01*
X124886992Y-88445924D01*
X124845609Y-88450000D01*
X123820391Y-88450000D01*
X123779008Y-88445924D01*
X123745117Y-88435643D01*
X123713889Y-88418952D01*
X123686515Y-88396485D01*
X123664048Y-88369111D01*
X123647357Y-88337883D01*
X123637076Y-88303992D01*
X123633000Y-88262609D01*
X123633000Y-87662391D01*
X123637076Y-87621008D01*
X123647357Y-87587117D01*
X123664048Y-87555889D01*
X123686515Y-87528515D01*
X123713889Y-87506048D01*
X123745117Y-87489357D01*
X123779008Y-87479076D01*
X123820391Y-87475000D01*
X124845609Y-87475000D01*
X124886992Y-87479076D01*
X124886992Y-87479076D01*
G37*
G36*
X127325000Y-88330000D02*
X126675000Y-88330000D01*
X126675000Y-87270000D01*
X127325000Y-87270000D01*
X127325000Y-88330000D01*
X127325000Y-88330000D01*
G37*
G36*
X126375000Y-88330000D02*
X125725000Y-88330000D01*
X125725000Y-87270000D01*
X126375000Y-87270000D01*
X126375000Y-88330000D01*
X126375000Y-88330000D01*
G37*
G36*
X128275000Y-88330000D02*
X127625000Y-88330000D01*
X127625000Y-87270000D01*
X128275000Y-87270000D01*
X128275000Y-88330000D01*
X128275000Y-88330000D01*
G37*
G36*
X132670000Y-87295000D02*
X131170000Y-87295000D01*
X131170000Y-86695000D01*
X132670000Y-86695000D01*
X132670000Y-87295000D01*
X132670000Y-87295000D01*
G37*
G36*
X138070000Y-87295000D02*
X136570000Y-87295000D01*
X136570000Y-86695000D01*
X138070000Y-86695000D01*
X138070000Y-87295000D01*
X138070000Y-87295000D01*
G37*
G36*
X96686630Y-85522299D02*
X96846855Y-85570903D01*
X96994520Y-85649831D01*
X97123949Y-85756051D01*
X97230169Y-85885480D01*
X97309097Y-86033145D01*
X97357701Y-86193370D01*
X97374112Y-86360000D01*
X97357701Y-86526630D01*
X97309097Y-86686855D01*
X97230169Y-86834520D01*
X97123949Y-86963949D01*
X96994520Y-87070169D01*
X96846855Y-87149097D01*
X96686630Y-87197701D01*
X96561752Y-87210000D01*
X96478248Y-87210000D01*
X96353370Y-87197701D01*
X96193145Y-87149097D01*
X96045480Y-87070169D01*
X95916051Y-86963949D01*
X95809831Y-86834520D01*
X95730903Y-86686855D01*
X95682299Y-86526630D01*
X95665888Y-86360000D01*
X95682299Y-86193370D01*
X95730903Y-86033145D01*
X95809831Y-85885480D01*
X95916051Y-85756051D01*
X96045480Y-85649831D01*
X96193145Y-85570903D01*
X96353370Y-85522299D01*
X96478248Y-85510000D01*
X96561752Y-85510000D01*
X96686630Y-85522299D01*
X96686630Y-85522299D01*
G37*
G36*
X140888992Y-85544076D02*
X140922883Y-85554357D01*
X140954111Y-85571048D01*
X140981485Y-85593515D01*
X141003952Y-85620889D01*
X141020643Y-85652117D01*
X141030924Y-85686008D01*
X141035000Y-85727391D01*
X141035000Y-86327609D01*
X141030924Y-86368992D01*
X141020643Y-86402883D01*
X141003952Y-86434111D01*
X140981485Y-86461485D01*
X140954111Y-86483952D01*
X140922883Y-86500643D01*
X140888992Y-86510924D01*
X140847609Y-86515000D01*
X139822391Y-86515000D01*
X139781008Y-86510924D01*
X139747117Y-86500643D01*
X139715889Y-86483952D01*
X139688515Y-86461485D01*
X139666048Y-86434111D01*
X139649357Y-86402883D01*
X139639076Y-86368992D01*
X139635000Y-86327609D01*
X139635000Y-85727391D01*
X139639076Y-85686008D01*
X139649357Y-85652117D01*
X139666048Y-85620889D01*
X139688515Y-85593515D01*
X139715889Y-85571048D01*
X139747117Y-85554357D01*
X139781008Y-85544076D01*
X139822391Y-85540000D01*
X140847609Y-85540000D01*
X140888992Y-85544076D01*
X140888992Y-85544076D01*
G37*
G36*
X132670000Y-86025000D02*
X131170000Y-86025000D01*
X131170000Y-85425000D01*
X132670000Y-85425000D01*
X132670000Y-86025000D01*
X132670000Y-86025000D01*
G37*
G36*
X138070000Y-86025000D02*
X136570000Y-86025000D01*
X136570000Y-85425000D01*
X138070000Y-85425000D01*
X138070000Y-86025000D01*
X138070000Y-86025000D01*
G37*
G36*
X157597649Y-84297717D02*
X157636827Y-84301576D01*
X157712227Y-84324448D01*
X157787629Y-84347321D01*
X157926608Y-84421608D01*
X158048422Y-84521578D01*
X158148392Y-84643392D01*
X158222679Y-84782371D01*
X158268424Y-84933174D01*
X158283870Y-85090000D01*
X158268424Y-85246826D01*
X158222679Y-85397629D01*
X158148392Y-85536608D01*
X158048422Y-85658422D01*
X157926608Y-85758392D01*
X157787629Y-85832679D01*
X157712228Y-85855551D01*
X157636827Y-85878424D01*
X157597649Y-85882283D01*
X157519295Y-85890000D01*
X157440705Y-85890000D01*
X157362351Y-85882283D01*
X157323173Y-85878424D01*
X157247772Y-85855551D01*
X157172371Y-85832679D01*
X157033392Y-85758392D01*
X156911578Y-85658422D01*
X156811608Y-85536608D01*
X156737321Y-85397629D01*
X156691576Y-85246826D01*
X156676130Y-85090000D01*
X156691576Y-84933174D01*
X156737321Y-84782371D01*
X156811608Y-84643392D01*
X156911578Y-84521578D01*
X157033392Y-84421608D01*
X157172371Y-84347321D01*
X157247773Y-84324448D01*
X157323173Y-84301576D01*
X157362351Y-84297717D01*
X157440705Y-84290000D01*
X157519295Y-84290000D01*
X157597649Y-84297717D01*
X157597649Y-84297717D01*
G37*
G36*
X150660000Y-85890000D02*
X149060000Y-85890000D01*
X149060000Y-84290000D01*
X150660000Y-84290000D01*
X150660000Y-85890000D01*
X150660000Y-85890000D01*
G37*
G36*
X132670000Y-84755000D02*
X131170000Y-84755000D01*
X131170000Y-84155000D01*
X132670000Y-84155000D01*
X132670000Y-84755000D01*
X132670000Y-84755000D01*
G37*
G36*
X138070000Y-84755000D02*
X136570000Y-84755000D01*
X136570000Y-84155000D01*
X138070000Y-84155000D01*
X138070000Y-84755000D01*
X138070000Y-84755000D01*
G37*
G36*
X96686630Y-82982299D02*
X96846855Y-83030903D01*
X96994520Y-83109831D01*
X97123949Y-83216051D01*
X97230169Y-83345480D01*
X97309097Y-83493145D01*
X97357701Y-83653370D01*
X97374112Y-83820000D01*
X97357701Y-83986630D01*
X97309097Y-84146855D01*
X97230169Y-84294520D01*
X97123949Y-84423949D01*
X96994520Y-84530169D01*
X96846855Y-84609097D01*
X96686630Y-84657701D01*
X96561752Y-84670000D01*
X96478248Y-84670000D01*
X96353370Y-84657701D01*
X96193145Y-84609097D01*
X96045480Y-84530169D01*
X95916051Y-84423949D01*
X95809831Y-84294520D01*
X95730903Y-84146855D01*
X95682299Y-83986630D01*
X95665888Y-83820000D01*
X95682299Y-83653370D01*
X95730903Y-83493145D01*
X95809831Y-83345480D01*
X95916051Y-83216051D01*
X96045480Y-83109831D01*
X96193145Y-83030903D01*
X96353370Y-82982299D01*
X96478248Y-82970000D01*
X96561752Y-82970000D01*
X96686630Y-82982299D01*
X96686630Y-82982299D01*
G37*
G36*
X140888992Y-83669076D02*
X140922883Y-83679357D01*
X140954111Y-83696048D01*
X140981485Y-83718515D01*
X141003952Y-83745889D01*
X141020643Y-83777117D01*
X141030924Y-83811008D01*
X141035000Y-83852391D01*
X141035000Y-84452609D01*
X141030924Y-84493992D01*
X141020643Y-84527883D01*
X141003952Y-84559111D01*
X140981485Y-84586485D01*
X140954111Y-84608952D01*
X140922883Y-84625643D01*
X140888992Y-84635924D01*
X140847609Y-84640000D01*
X139822391Y-84640000D01*
X139781008Y-84635924D01*
X139747117Y-84625643D01*
X139715889Y-84608952D01*
X139688515Y-84586485D01*
X139666048Y-84559111D01*
X139649357Y-84527883D01*
X139639076Y-84493992D01*
X139635000Y-84452609D01*
X139635000Y-83852391D01*
X139639076Y-83811008D01*
X139649357Y-83777117D01*
X139666048Y-83745889D01*
X139688515Y-83718515D01*
X139715889Y-83696048D01*
X139747117Y-83679357D01*
X139781008Y-83669076D01*
X139822391Y-83665000D01*
X140847609Y-83665000D01*
X140888992Y-83669076D01*
X140888992Y-83669076D01*
G37*
G36*
X97370000Y-82130000D02*
X95670000Y-82130000D01*
X95670000Y-80430000D01*
X97370000Y-80430000D01*
X97370000Y-82130000D01*
X97370000Y-82130000D01*
G37*
G36*
X149959035Y-80485884D02*
X150016827Y-80491576D01*
X150048154Y-80501079D01*
X150167629Y-80537321D01*
X150306608Y-80611608D01*
X150428422Y-80711578D01*
X150528392Y-80833392D01*
X150602679Y-80972371D01*
X150602679Y-80972372D01*
X150648424Y-81123173D01*
X150659024Y-81230797D01*
X150663870Y-81280000D01*
X150648424Y-81436826D01*
X150602679Y-81587629D01*
X150528392Y-81726608D01*
X150428422Y-81848422D01*
X150306608Y-81948392D01*
X150167629Y-82022679D01*
X150092227Y-82045552D01*
X150016827Y-82068424D01*
X149977649Y-82072283D01*
X149899295Y-82080000D01*
X149820705Y-82080000D01*
X149742351Y-82072283D01*
X149703173Y-82068424D01*
X149627773Y-82045552D01*
X149552371Y-82022679D01*
X149413392Y-81948392D01*
X149291578Y-81848422D01*
X149191608Y-81726608D01*
X149117321Y-81587629D01*
X149071576Y-81436826D01*
X149056130Y-81280000D01*
X149060976Y-81230797D01*
X149071576Y-81123173D01*
X149117321Y-80972372D01*
X149117321Y-80972371D01*
X149191608Y-80833392D01*
X149291578Y-80711578D01*
X149413392Y-80611608D01*
X149552371Y-80537321D01*
X149671846Y-80501079D01*
X149703173Y-80491576D01*
X149760965Y-80485884D01*
X149820705Y-80480000D01*
X149899295Y-80480000D01*
X149959035Y-80485884D01*
X149959035Y-80485884D01*
G37*
G36*
X158280000Y-82080000D02*
X156680000Y-82080000D01*
X156680000Y-80480000D01*
X158280000Y-80480000D01*
X158280000Y-82080000D01*
X158280000Y-82080000D01*
G37*
G36*
X137078992Y-80464076D02*
X137112883Y-80474357D01*
X137144111Y-80491048D01*
X137171485Y-80513515D01*
X137193952Y-80540889D01*
X137210643Y-80572117D01*
X137220924Y-80606008D01*
X137225000Y-80647391D01*
X137225000Y-81247609D01*
X137220924Y-81288992D01*
X137210643Y-81322883D01*
X137193952Y-81354111D01*
X137171485Y-81381485D01*
X137144111Y-81403952D01*
X137112883Y-81420643D01*
X137078992Y-81430924D01*
X137037609Y-81435000D01*
X136012391Y-81435000D01*
X135971008Y-81430924D01*
X135937117Y-81420643D01*
X135905889Y-81403952D01*
X135878515Y-81381485D01*
X135856048Y-81354111D01*
X135839357Y-81322883D01*
X135829076Y-81288992D01*
X135825000Y-81247609D01*
X135825000Y-80647391D01*
X135829076Y-80606008D01*
X135839357Y-80572117D01*
X135856048Y-80540889D01*
X135878515Y-80513515D01*
X135905889Y-80491048D01*
X135937117Y-80474357D01*
X135971008Y-80464076D01*
X136012391Y-80460000D01*
X137037609Y-80460000D01*
X137078992Y-80464076D01*
X137078992Y-80464076D01*
G37*
G36*
X134461116Y-80363595D02*
X134490313Y-80372452D01*
X134517218Y-80386833D01*
X134540808Y-80406192D01*
X134560167Y-80429782D01*
X134574548Y-80456687D01*
X134583405Y-80485884D01*
X134587000Y-80522390D01*
X134587000Y-81072610D01*
X134583405Y-81109116D01*
X134574548Y-81138313D01*
X134560167Y-81165218D01*
X134540808Y-81188808D01*
X134517218Y-81208167D01*
X134490313Y-81222548D01*
X134461116Y-81231405D01*
X134424610Y-81235000D01*
X133799390Y-81235000D01*
X133762884Y-81231405D01*
X133733687Y-81222548D01*
X133706782Y-81208167D01*
X133683192Y-81188808D01*
X133663833Y-81165218D01*
X133649452Y-81138313D01*
X133640595Y-81109116D01*
X133637000Y-81072610D01*
X133637000Y-80522390D01*
X133640595Y-80485884D01*
X133649452Y-80456687D01*
X133663833Y-80429782D01*
X133683192Y-80406192D01*
X133706782Y-80386833D01*
X133733687Y-80372452D01*
X133762884Y-80363595D01*
X133799390Y-80360000D01*
X134424610Y-80360000D01*
X134461116Y-80363595D01*
X134461116Y-80363595D01*
G37*
G36*
X132429116Y-80363595D02*
X132458313Y-80372452D01*
X132485218Y-80386833D01*
X132508808Y-80406192D01*
X132528167Y-80429782D01*
X132542548Y-80456687D01*
X132551405Y-80485884D01*
X132555000Y-80522390D01*
X132555000Y-81072610D01*
X132551405Y-81109116D01*
X132542548Y-81138313D01*
X132528167Y-81165218D01*
X132508808Y-81188808D01*
X132485218Y-81208167D01*
X132458313Y-81222548D01*
X132429116Y-81231405D01*
X132392610Y-81235000D01*
X131767390Y-81235000D01*
X131730884Y-81231405D01*
X131701687Y-81222548D01*
X131674782Y-81208167D01*
X131651192Y-81188808D01*
X131631833Y-81165218D01*
X131617452Y-81138313D01*
X131608595Y-81109116D01*
X131605000Y-81072610D01*
X131605000Y-80522390D01*
X131608595Y-80485884D01*
X131617452Y-80456687D01*
X131631833Y-80429782D01*
X131651192Y-80406192D01*
X131674782Y-80386833D01*
X131701687Y-80372452D01*
X131730884Y-80363595D01*
X131767390Y-80360000D01*
X132392610Y-80360000D01*
X132429116Y-80363595D01*
X132429116Y-80363595D01*
G37*
G36*
X127741352Y-79327743D02*
X127886941Y-79388048D01*
X128017973Y-79475601D01*
X128129399Y-79587027D01*
X128216952Y-79718059D01*
X128277257Y-79863648D01*
X128308000Y-80018205D01*
X128308000Y-80175795D01*
X128277257Y-80330352D01*
X128216952Y-80475941D01*
X128129399Y-80606973D01*
X128017973Y-80718399D01*
X127886941Y-80805952D01*
X127741352Y-80866257D01*
X127586795Y-80897000D01*
X127429205Y-80897000D01*
X127274648Y-80866257D01*
X127129059Y-80805952D01*
X126998027Y-80718399D01*
X126886601Y-80606973D01*
X126799048Y-80475941D01*
X126738743Y-80330352D01*
X126708000Y-80175795D01*
X126708000Y-80018205D01*
X126738743Y-79863648D01*
X126799048Y-79718059D01*
X126886601Y-79587027D01*
X126998027Y-79475601D01*
X127129059Y-79388048D01*
X127274648Y-79327743D01*
X127429205Y-79297000D01*
X127586795Y-79297000D01*
X127741352Y-79327743D01*
X127741352Y-79327743D01*
G37*
G36*
X134461116Y-78788595D02*
X134490313Y-78797452D01*
X134517218Y-78811833D01*
X134540808Y-78831192D01*
X134560167Y-78854782D01*
X134574548Y-78881687D01*
X134583405Y-78910884D01*
X134587000Y-78947390D01*
X134587000Y-79497610D01*
X134583405Y-79534116D01*
X134574548Y-79563313D01*
X134560167Y-79590218D01*
X134540808Y-79613808D01*
X134517218Y-79633167D01*
X134490313Y-79647548D01*
X134461116Y-79656405D01*
X134424610Y-79660000D01*
X133799390Y-79660000D01*
X133762884Y-79656405D01*
X133733687Y-79647548D01*
X133706782Y-79633167D01*
X133683192Y-79613808D01*
X133663833Y-79590218D01*
X133649452Y-79563313D01*
X133640595Y-79534116D01*
X133637000Y-79497610D01*
X133637000Y-78947390D01*
X133640595Y-78910884D01*
X133649452Y-78881687D01*
X133663833Y-78854782D01*
X133683192Y-78831192D01*
X133706782Y-78811833D01*
X133733687Y-78797452D01*
X133762884Y-78788595D01*
X133799390Y-78785000D01*
X134424610Y-78785000D01*
X134461116Y-78788595D01*
X134461116Y-78788595D01*
G37*
G36*
X132429116Y-78788595D02*
X132458313Y-78797452D01*
X132485218Y-78811833D01*
X132508808Y-78831192D01*
X132528167Y-78854782D01*
X132542548Y-78881687D01*
X132551405Y-78910884D01*
X132555000Y-78947390D01*
X132555000Y-79497610D01*
X132551405Y-79534116D01*
X132542548Y-79563313D01*
X132528167Y-79590218D01*
X132508808Y-79613808D01*
X132485218Y-79633167D01*
X132458313Y-79647548D01*
X132429116Y-79656405D01*
X132392610Y-79660000D01*
X131767390Y-79660000D01*
X131730884Y-79656405D01*
X131701687Y-79647548D01*
X131674782Y-79633167D01*
X131651192Y-79613808D01*
X131631833Y-79590218D01*
X131617452Y-79563313D01*
X131608595Y-79534116D01*
X131605000Y-79497610D01*
X131605000Y-78947390D01*
X131608595Y-78910884D01*
X131617452Y-78881687D01*
X131631833Y-78854782D01*
X131651192Y-78831192D01*
X131674782Y-78811833D01*
X131701687Y-78797452D01*
X131730884Y-78788595D01*
X131767390Y-78785000D01*
X132392610Y-78785000D01*
X132429116Y-78788595D01*
X132429116Y-78788595D01*
G37*
G36*
X137078992Y-78589076D02*
X137112883Y-78599357D01*
X137144111Y-78616048D01*
X137171485Y-78638515D01*
X137193952Y-78665889D01*
X137210643Y-78697117D01*
X137220924Y-78731008D01*
X137225000Y-78772391D01*
X137225000Y-79372609D01*
X137220924Y-79413992D01*
X137210643Y-79447883D01*
X137193952Y-79479111D01*
X137171485Y-79506485D01*
X137144111Y-79528952D01*
X137112883Y-79545643D01*
X137078992Y-79555924D01*
X137037609Y-79560000D01*
X136012391Y-79560000D01*
X135971008Y-79555924D01*
X135937117Y-79545643D01*
X135905889Y-79528952D01*
X135878515Y-79506485D01*
X135856048Y-79479111D01*
X135839357Y-79447883D01*
X135829076Y-79413992D01*
X135825000Y-79372609D01*
X135825000Y-78772391D01*
X135829076Y-78731008D01*
X135839357Y-78697117D01*
X135856048Y-78665889D01*
X135878515Y-78638515D01*
X135905889Y-78616048D01*
X135937117Y-78599357D01*
X135971008Y-78589076D01*
X136012391Y-78585000D01*
X137037609Y-78585000D01*
X137078992Y-78589076D01*
X137078992Y-78589076D01*
G37*
G36*
X128308000Y-78397000D02*
X126708000Y-78397000D01*
X126708000Y-76797000D01*
X128308000Y-76797000D01*
X128308000Y-78397000D01*
X128308000Y-78397000D01*
G37*
G36*
X96695770Y-75215372D02*
X96811689Y-75238429D01*
X96993678Y-75313811D01*
X97157463Y-75423249D01*
X97296751Y-75562537D01*
X97406189Y-75726322D01*
X97481571Y-75908311D01*
X97520000Y-76101509D01*
X97520000Y-76298491D01*
X97481571Y-76491689D01*
X97406189Y-76673678D01*
X97296751Y-76837463D01*
X97157463Y-76976751D01*
X96993678Y-77086189D01*
X96811689Y-77161571D01*
X96695770Y-77184628D01*
X96618493Y-77200000D01*
X96421507Y-77200000D01*
X96344230Y-77184628D01*
X96228311Y-77161571D01*
X96046322Y-77086189D01*
X95882537Y-76976751D01*
X95743249Y-76837463D01*
X95633811Y-76673678D01*
X95558429Y-76491689D01*
X95520000Y-76298491D01*
X95520000Y-76101509D01*
X95558429Y-75908311D01*
X95633811Y-75726322D01*
X95743249Y-75562537D01*
X95882537Y-75423249D01*
X96046322Y-75313811D01*
X96228311Y-75238429D01*
X96344230Y-75215372D01*
X96421507Y-75200000D01*
X96618493Y-75200000D01*
X96695770Y-75215372D01*
X96695770Y-75215372D01*
G37*
G36*
X119555770Y-72675372D02*
X119671689Y-72698429D01*
X119853678Y-72773811D01*
X120017463Y-72883249D01*
X120156751Y-73022537D01*
X120266189Y-73186322D01*
X120341571Y-73368311D01*
X120380000Y-73561509D01*
X120380000Y-73758491D01*
X120341571Y-73951689D01*
X120266189Y-74133678D01*
X120156751Y-74297463D01*
X120017463Y-74436751D01*
X119853678Y-74546189D01*
X119671689Y-74621571D01*
X119555770Y-74644628D01*
X119478493Y-74660000D01*
X119281507Y-74660000D01*
X119204230Y-74644628D01*
X119088311Y-74621571D01*
X118906322Y-74546189D01*
X118742537Y-74436751D01*
X118603249Y-74297463D01*
X118493811Y-74133678D01*
X118418429Y-73951689D01*
X118380000Y-73758491D01*
X118380000Y-73561509D01*
X118418429Y-73368311D01*
X118493811Y-73186322D01*
X118603249Y-73022537D01*
X118742537Y-72883249D01*
X118906322Y-72773811D01*
X119088311Y-72698429D01*
X119204230Y-72675372D01*
X119281507Y-72660000D01*
X119478493Y-72660000D01*
X119555770Y-72675372D01*
X119555770Y-72675372D01*
G37*
G36*
X124809116Y-72743595D02*
X124838313Y-72752452D01*
X124865218Y-72766833D01*
X124888808Y-72786192D01*
X124908167Y-72809782D01*
X124922548Y-72836687D01*
X124931405Y-72865884D01*
X124935000Y-72902390D01*
X124935000Y-73452610D01*
X124931405Y-73489116D01*
X124922548Y-73518313D01*
X124908167Y-73545218D01*
X124888808Y-73568808D01*
X124865218Y-73588167D01*
X124838313Y-73602548D01*
X124809116Y-73611405D01*
X124772610Y-73615000D01*
X124147390Y-73615000D01*
X124110884Y-73611405D01*
X124081687Y-73602548D01*
X124054782Y-73588167D01*
X124031192Y-73568808D01*
X124011833Y-73545218D01*
X123997452Y-73518313D01*
X123988595Y-73489116D01*
X123985000Y-73452610D01*
X123985000Y-72902390D01*
X123988595Y-72865884D01*
X123997452Y-72836687D01*
X124011833Y-72809782D01*
X124031192Y-72786192D01*
X124054782Y-72766833D01*
X124081687Y-72752452D01*
X124110884Y-72743595D01*
X124147390Y-72740000D01*
X124772610Y-72740000D01*
X124809116Y-72743595D01*
X124809116Y-72743595D01*
G37*
G36*
X175435770Y-71405372D02*
X175551689Y-71428429D01*
X175733678Y-71503811D01*
X175897463Y-71613249D01*
X176036751Y-71752537D01*
X176146189Y-71916322D01*
X176221571Y-72098311D01*
X176260000Y-72291509D01*
X176260000Y-72488491D01*
X176221571Y-72681689D01*
X176146189Y-72863678D01*
X176036751Y-73027463D01*
X175897463Y-73166751D01*
X175733678Y-73276189D01*
X175551689Y-73351571D01*
X175435770Y-73374628D01*
X175358493Y-73390000D01*
X175161507Y-73390000D01*
X175084230Y-73374628D01*
X174968311Y-73351571D01*
X174786322Y-73276189D01*
X174622537Y-73166751D01*
X174483249Y-73027463D01*
X174373811Y-72863678D01*
X174298429Y-72681689D01*
X174260000Y-72488491D01*
X174260000Y-72291509D01*
X174298429Y-72098311D01*
X174373811Y-71916322D01*
X174483249Y-71752537D01*
X174622537Y-71613249D01*
X174786322Y-71503811D01*
X174968311Y-71428429D01*
X175084230Y-71405372D01*
X175161507Y-71390000D01*
X175358493Y-71390000D01*
X175435770Y-71405372D01*
X175435770Y-71405372D01*
G37*
G36*
X129548992Y-71694076D02*
X129582883Y-71704357D01*
X129614111Y-71721048D01*
X129641485Y-71743515D01*
X129663952Y-71770889D01*
X129680643Y-71802117D01*
X129690924Y-71836008D01*
X129695000Y-71877391D01*
X129695000Y-72902609D01*
X129690924Y-72943992D01*
X129680643Y-72977883D01*
X129663952Y-73009111D01*
X129641485Y-73036485D01*
X129614111Y-73058952D01*
X129582883Y-73075643D01*
X129548992Y-73085924D01*
X129507609Y-73090000D01*
X128907391Y-73090000D01*
X128866008Y-73085924D01*
X128832117Y-73075643D01*
X128800889Y-73058952D01*
X128773515Y-73036485D01*
X128751048Y-73009111D01*
X128734357Y-72977883D01*
X128724076Y-72943992D01*
X128720000Y-72902609D01*
X128720000Y-71877391D01*
X128724076Y-71836008D01*
X128734357Y-71802117D01*
X128751048Y-71770889D01*
X128773515Y-71743515D01*
X128800889Y-71721048D01*
X128832117Y-71704357D01*
X128866008Y-71694076D01*
X128907391Y-71690000D01*
X129507609Y-71690000D01*
X129548992Y-71694076D01*
X129548992Y-71694076D01*
G37*
G36*
X127673992Y-71694076D02*
X127707883Y-71704357D01*
X127739111Y-71721048D01*
X127766485Y-71743515D01*
X127788952Y-71770889D01*
X127805643Y-71802117D01*
X127815924Y-71836008D01*
X127820000Y-71877391D01*
X127820000Y-72902609D01*
X127815924Y-72943992D01*
X127805643Y-72977883D01*
X127788952Y-73009111D01*
X127766485Y-73036485D01*
X127739111Y-73058952D01*
X127707883Y-73075643D01*
X127673992Y-73085924D01*
X127632609Y-73090000D01*
X127032391Y-73090000D01*
X126991008Y-73085924D01*
X126957117Y-73075643D01*
X126925889Y-73058952D01*
X126898515Y-73036485D01*
X126876048Y-73009111D01*
X126859357Y-72977883D01*
X126849076Y-72943992D01*
X126845000Y-72902609D01*
X126845000Y-71877391D01*
X126849076Y-71836008D01*
X126859357Y-71802117D01*
X126876048Y-71770889D01*
X126898515Y-71743515D01*
X126925889Y-71721048D01*
X126957117Y-71704357D01*
X126991008Y-71694076D01*
X127032391Y-71690000D01*
X127632609Y-71690000D01*
X127673992Y-71694076D01*
X127673992Y-71694076D01*
G37*
G36*
X133612203Y-69321201D02*
X133624453Y-69321803D01*
X133642872Y-69321803D01*
X133655150Y-69323012D01*
X133739232Y-69339737D01*
X133751048Y-69343322D01*
X133830255Y-69376130D01*
X133841140Y-69381947D01*
X133912425Y-69429579D01*
X133921973Y-69437415D01*
X133982585Y-69498027D01*
X133990421Y-69507575D01*
X134038053Y-69578860D01*
X134043870Y-69589745D01*
X134076678Y-69668952D01*
X134080263Y-69680768D01*
X134096988Y-69764850D01*
X134098197Y-69777128D01*
X134098197Y-69795547D01*
X134098799Y-69807797D01*
X134100605Y-69826137D01*
X134100605Y-70363863D01*
X134100001Y-70369999D01*
X134099999Y-70370001D01*
X134093894Y-70370602D01*
X134069860Y-70375382D01*
X134047221Y-70384759D01*
X134026846Y-70398372D01*
X134009519Y-70415699D01*
X133995905Y-70436074D01*
X133986527Y-70458712D01*
X133981746Y-70482746D01*
X133981746Y-70507250D01*
X133986526Y-70531284D01*
X133995903Y-70553923D01*
X134009516Y-70574298D01*
X134026843Y-70591625D01*
X134047218Y-70605239D01*
X134069856Y-70614617D01*
X134093890Y-70619398D01*
X134100000Y-70619698D01*
X134100000Y-71620605D01*
X134081758Y-71622402D01*
X134058309Y-71629515D01*
X134036698Y-71641066D01*
X134017756Y-71656612D01*
X134002210Y-71675554D01*
X133990659Y-71697165D01*
X133983546Y-71720614D01*
X133981144Y-71745000D01*
X133983546Y-71769386D01*
X133990659Y-71792835D01*
X134002210Y-71814446D01*
X134017756Y-71833388D01*
X134036698Y-71848934D01*
X134058309Y-71860485D01*
X134081758Y-71867598D01*
X134093894Y-71869398D01*
X134099999Y-71869999D01*
X134099998Y-71869999D01*
X134100000Y-71870000D01*
X134100001Y-71870001D01*
X134100605Y-71876137D01*
X134100605Y-72413863D01*
X134098799Y-72432203D01*
X134098197Y-72444453D01*
X134098197Y-72462872D01*
X134096988Y-72475150D01*
X134080263Y-72559232D01*
X134076678Y-72571048D01*
X134043870Y-72650255D01*
X134038053Y-72661140D01*
X133990421Y-72732425D01*
X133982585Y-72741973D01*
X133921973Y-72802585D01*
X133912425Y-72810421D01*
X133841140Y-72858053D01*
X133830255Y-72863870D01*
X133751048Y-72896678D01*
X133739232Y-72900263D01*
X133655150Y-72916988D01*
X133642872Y-72918197D01*
X133624453Y-72918197D01*
X133612203Y-72918799D01*
X133593863Y-72920605D01*
X133106137Y-72920605D01*
X133087797Y-72918799D01*
X133075547Y-72918197D01*
X133057128Y-72918197D01*
X133044850Y-72916988D01*
X132960768Y-72900263D01*
X132948952Y-72896678D01*
X132869745Y-72863870D01*
X132858860Y-72858053D01*
X132787575Y-72810421D01*
X132778027Y-72802585D01*
X132717415Y-72741973D01*
X132709579Y-72732425D01*
X132661947Y-72661140D01*
X132656130Y-72650255D01*
X132623322Y-72571048D01*
X132619737Y-72559232D01*
X132603012Y-72475150D01*
X132601803Y-72462872D01*
X132601803Y-72444453D01*
X132601201Y-72432203D01*
X132599395Y-72413863D01*
X132599395Y-71876137D01*
X132599999Y-71870001D01*
X132600000Y-71870000D01*
X132600002Y-71869999D01*
X132600001Y-71869999D01*
X132606106Y-71869398D01*
X132630140Y-71864618D01*
X132652779Y-71855241D01*
X132673154Y-71841628D01*
X132690481Y-71824301D01*
X132704095Y-71803926D01*
X132713473Y-71781288D01*
X132718254Y-71757254D01*
X132718254Y-71732750D01*
X132713474Y-71708716D01*
X132704097Y-71686077D01*
X132690484Y-71665702D01*
X132673157Y-71648375D01*
X132652782Y-71634761D01*
X132630144Y-71625383D01*
X132606110Y-71620602D01*
X132600000Y-71620302D01*
X132600000Y-70619395D01*
X132618242Y-70617598D01*
X132641691Y-70610485D01*
X132663302Y-70598934D01*
X132682244Y-70583388D01*
X132697790Y-70564446D01*
X132709341Y-70542835D01*
X132716454Y-70519386D01*
X132718856Y-70495000D01*
X132716454Y-70470614D01*
X132709341Y-70447165D01*
X132697790Y-70425554D01*
X132682244Y-70406612D01*
X132663302Y-70391066D01*
X132641691Y-70379515D01*
X132618242Y-70372402D01*
X132606106Y-70370602D01*
X132600001Y-70370001D01*
X132599999Y-70369999D01*
X132599395Y-70363863D01*
X132599395Y-69826137D01*
X132601201Y-69807797D01*
X132601803Y-69795547D01*
X132601803Y-69777128D01*
X132603012Y-69764850D01*
X132619737Y-69680768D01*
X132623322Y-69668952D01*
X132656130Y-69589745D01*
X132661947Y-69578860D01*
X132709579Y-69507575D01*
X132717415Y-69498027D01*
X132778027Y-69437415D01*
X132787575Y-69429579D01*
X132858860Y-69381947D01*
X132869745Y-69376130D01*
X132948952Y-69343322D01*
X132960768Y-69339737D01*
X133044850Y-69323012D01*
X133057128Y-69321803D01*
X133075547Y-69321803D01*
X133087797Y-69321201D01*
X133106137Y-69319395D01*
X133593863Y-69319395D01*
X133612203Y-69321201D01*
X133612203Y-69321201D01*
G37*
G36*
X96695770Y-70135372D02*
X96811689Y-70158429D01*
X96993678Y-70233811D01*
X97157463Y-70343249D01*
X97296751Y-70482537D01*
X97406189Y-70646322D01*
X97481571Y-70828311D01*
X97520000Y-71021509D01*
X97520000Y-71218491D01*
X97481571Y-71411689D01*
X97406189Y-71593678D01*
X97296751Y-71757463D01*
X97157463Y-71896751D01*
X96993678Y-72006189D01*
X96811689Y-72081571D01*
X96695770Y-72104628D01*
X96618493Y-72120000D01*
X96421507Y-72120000D01*
X96344230Y-72104628D01*
X96228311Y-72081571D01*
X96046322Y-72006189D01*
X95882537Y-71896751D01*
X95743249Y-71757463D01*
X95633811Y-71593678D01*
X95558429Y-71411689D01*
X95520000Y-71218491D01*
X95520000Y-71021509D01*
X95558429Y-70828311D01*
X95633811Y-70646322D01*
X95743249Y-70482537D01*
X95882537Y-70343249D01*
X96046322Y-70233811D01*
X96228311Y-70158429D01*
X96344230Y-70135372D01*
X96421507Y-70120000D01*
X96618493Y-70120000D01*
X96695770Y-70135372D01*
X96695770Y-70135372D01*
G37*
G36*
X124809116Y-71168595D02*
X124838313Y-71177452D01*
X124865218Y-71191833D01*
X124888808Y-71211192D01*
X124908167Y-71234782D01*
X124922548Y-71261687D01*
X124931405Y-71290884D01*
X124935000Y-71327390D01*
X124935000Y-71877610D01*
X124931405Y-71914116D01*
X124922548Y-71943313D01*
X124908167Y-71970218D01*
X124888808Y-71993808D01*
X124865218Y-72013167D01*
X124838313Y-72027548D01*
X124809116Y-72036405D01*
X124772610Y-72040000D01*
X124147390Y-72040000D01*
X124110884Y-72036405D01*
X124081687Y-72027548D01*
X124054782Y-72013167D01*
X124031192Y-71993808D01*
X124011833Y-71970218D01*
X123997452Y-71943313D01*
X123988595Y-71914116D01*
X123985000Y-71877610D01*
X123985000Y-71327390D01*
X123988595Y-71290884D01*
X123997452Y-71261687D01*
X124011833Y-71234782D01*
X124031192Y-71211192D01*
X124054782Y-71191833D01*
X124081687Y-71177452D01*
X124110884Y-71168595D01*
X124147390Y-71165000D01*
X124772610Y-71165000D01*
X124809116Y-71168595D01*
X124809116Y-71168595D01*
G37*
G36*
X102699116Y-70648595D02*
X102728313Y-70657452D01*
X102755218Y-70671833D01*
X102778808Y-70691192D01*
X102798167Y-70714782D01*
X102812548Y-70741687D01*
X102821405Y-70770884D01*
X102825000Y-70807390D01*
X102825000Y-71432610D01*
X102821405Y-71469116D01*
X102812548Y-71498313D01*
X102798167Y-71525218D01*
X102778808Y-71548808D01*
X102755218Y-71568167D01*
X102728313Y-71582548D01*
X102699116Y-71591405D01*
X102662610Y-71595000D01*
X102112390Y-71595000D01*
X102075884Y-71591405D01*
X102046687Y-71582548D01*
X102019782Y-71568167D01*
X101996192Y-71548808D01*
X101976833Y-71525218D01*
X101962452Y-71498313D01*
X101953595Y-71469116D01*
X101950000Y-71432610D01*
X101950000Y-70807390D01*
X101953595Y-70770884D01*
X101962452Y-70741687D01*
X101976833Y-70714782D01*
X101996192Y-70691192D01*
X102019782Y-70671833D01*
X102046687Y-70657452D01*
X102075884Y-70648595D01*
X102112390Y-70645000D01*
X102662610Y-70645000D01*
X102699116Y-70648595D01*
X102699116Y-70648595D01*
G37*
G36*
X101124116Y-70648595D02*
X101153313Y-70657452D01*
X101180218Y-70671833D01*
X101203808Y-70691192D01*
X101223167Y-70714782D01*
X101237548Y-70741687D01*
X101246405Y-70770884D01*
X101250000Y-70807390D01*
X101250000Y-71432610D01*
X101246405Y-71469116D01*
X101237548Y-71498313D01*
X101223167Y-71525218D01*
X101203808Y-71548808D01*
X101180218Y-71568167D01*
X101153313Y-71582548D01*
X101124116Y-71591405D01*
X101087610Y-71595000D01*
X100537390Y-71595000D01*
X100500884Y-71591405D01*
X100471687Y-71582548D01*
X100444782Y-71568167D01*
X100421192Y-71548808D01*
X100401833Y-71525218D01*
X100387452Y-71498313D01*
X100378595Y-71469116D01*
X100375000Y-71432610D01*
X100375000Y-70807390D01*
X100378595Y-70770884D01*
X100387452Y-70741687D01*
X100401833Y-70714782D01*
X100421192Y-70691192D01*
X100444782Y-70671833D01*
X100471687Y-70657452D01*
X100500884Y-70648595D01*
X100537390Y-70645000D01*
X101087610Y-70645000D01*
X101124116Y-70648595D01*
X101124116Y-70648595D01*
G37*
G36*
X129889116Y-69721095D02*
X129918313Y-69729952D01*
X129945218Y-69744333D01*
X129968808Y-69763692D01*
X129988167Y-69787282D01*
X130002548Y-69814187D01*
X130011405Y-69843384D01*
X130015000Y-69879890D01*
X130015000Y-70430110D01*
X130011405Y-70466616D01*
X130002548Y-70495813D01*
X129988167Y-70522718D01*
X129968808Y-70546308D01*
X129945218Y-70565667D01*
X129918313Y-70580048D01*
X129889116Y-70588905D01*
X129852610Y-70592500D01*
X129227390Y-70592500D01*
X129190884Y-70588905D01*
X129161687Y-70580048D01*
X129134782Y-70565667D01*
X129111192Y-70546308D01*
X129091833Y-70522718D01*
X129077452Y-70495813D01*
X129068595Y-70466616D01*
X129065000Y-70430110D01*
X129065000Y-69879890D01*
X129068595Y-69843384D01*
X129077452Y-69814187D01*
X129091833Y-69787282D01*
X129111192Y-69763692D01*
X129134782Y-69744333D01*
X129161687Y-69729952D01*
X129190884Y-69721095D01*
X129227390Y-69717500D01*
X129852610Y-69717500D01*
X129889116Y-69721095D01*
X129889116Y-69721095D01*
G37*
G36*
X115399116Y-69378595D02*
X115428313Y-69387452D01*
X115455218Y-69401833D01*
X115478808Y-69421192D01*
X115498167Y-69444782D01*
X115512548Y-69471687D01*
X115521405Y-69500884D01*
X115525000Y-69537390D01*
X115525000Y-70162610D01*
X115521405Y-70199116D01*
X115512548Y-70228313D01*
X115498167Y-70255218D01*
X115478808Y-70278808D01*
X115455218Y-70298167D01*
X115428313Y-70312548D01*
X115399116Y-70321405D01*
X115362610Y-70325000D01*
X114812390Y-70325000D01*
X114775884Y-70321405D01*
X114746687Y-70312548D01*
X114719782Y-70298167D01*
X114696192Y-70278808D01*
X114676833Y-70255218D01*
X114662452Y-70228313D01*
X114653595Y-70199116D01*
X114650000Y-70162610D01*
X114650000Y-69537390D01*
X114653595Y-69500884D01*
X114662452Y-69471687D01*
X114676833Y-69444782D01*
X114696192Y-69421192D01*
X114719782Y-69401833D01*
X114746687Y-69387452D01*
X114775884Y-69378595D01*
X114812390Y-69375000D01*
X115362610Y-69375000D01*
X115399116Y-69378595D01*
X115399116Y-69378595D01*
G37*
G36*
X110014116Y-69378595D02*
X110043313Y-69387452D01*
X110070218Y-69401833D01*
X110093808Y-69421192D01*
X110113167Y-69444782D01*
X110127548Y-69471687D01*
X110136405Y-69500884D01*
X110140000Y-69537390D01*
X110140000Y-70162610D01*
X110136405Y-70199116D01*
X110127548Y-70228313D01*
X110113167Y-70255218D01*
X110093808Y-70278808D01*
X110070218Y-70298167D01*
X110043313Y-70312548D01*
X110014116Y-70321405D01*
X109977610Y-70325000D01*
X109427390Y-70325000D01*
X109390884Y-70321405D01*
X109361687Y-70312548D01*
X109334782Y-70298167D01*
X109311192Y-70278808D01*
X109291833Y-70255218D01*
X109277452Y-70228313D01*
X109268595Y-70199116D01*
X109265000Y-70162610D01*
X109265000Y-69537390D01*
X109268595Y-69500884D01*
X109277452Y-69471687D01*
X109291833Y-69444782D01*
X109311192Y-69421192D01*
X109334782Y-69401833D01*
X109361687Y-69387452D01*
X109390884Y-69378595D01*
X109427390Y-69375000D01*
X109977610Y-69375000D01*
X110014116Y-69378595D01*
X110014116Y-69378595D01*
G37*
G36*
X111589116Y-69378595D02*
X111618313Y-69387452D01*
X111645218Y-69401833D01*
X111668808Y-69421192D01*
X111688167Y-69444782D01*
X111702548Y-69471687D01*
X111711405Y-69500884D01*
X111715000Y-69537390D01*
X111715000Y-70162610D01*
X111711405Y-70199116D01*
X111702548Y-70228313D01*
X111688167Y-70255218D01*
X111668808Y-70278808D01*
X111645218Y-70298167D01*
X111618313Y-70312548D01*
X111589116Y-70321405D01*
X111552610Y-70325000D01*
X111002390Y-70325000D01*
X110965884Y-70321405D01*
X110936687Y-70312548D01*
X110909782Y-70298167D01*
X110886192Y-70278808D01*
X110866833Y-70255218D01*
X110852452Y-70228313D01*
X110843595Y-70199116D01*
X110840000Y-70162610D01*
X110840000Y-69537390D01*
X110843595Y-69500884D01*
X110852452Y-69471687D01*
X110866833Y-69444782D01*
X110886192Y-69421192D01*
X110909782Y-69401833D01*
X110936687Y-69387452D01*
X110965884Y-69378595D01*
X111002390Y-69375000D01*
X111552610Y-69375000D01*
X111589116Y-69378595D01*
X111589116Y-69378595D01*
G37*
G36*
X113824116Y-69378595D02*
X113853313Y-69387452D01*
X113880218Y-69401833D01*
X113903808Y-69421192D01*
X113923167Y-69444782D01*
X113937548Y-69471687D01*
X113946405Y-69500884D01*
X113950000Y-69537390D01*
X113950000Y-70162610D01*
X113946405Y-70199116D01*
X113937548Y-70228313D01*
X113923167Y-70255218D01*
X113903808Y-70278808D01*
X113880218Y-70298167D01*
X113853313Y-70312548D01*
X113824116Y-70321405D01*
X113787610Y-70325000D01*
X113237390Y-70325000D01*
X113200884Y-70321405D01*
X113171687Y-70312548D01*
X113144782Y-70298167D01*
X113121192Y-70278808D01*
X113101833Y-70255218D01*
X113087452Y-70228313D01*
X113078595Y-70199116D01*
X113075000Y-70162610D01*
X113075000Y-69537390D01*
X113078595Y-69500884D01*
X113087452Y-69471687D01*
X113101833Y-69444782D01*
X113121192Y-69421192D01*
X113144782Y-69401833D01*
X113171687Y-69387452D01*
X113200884Y-69378595D01*
X113237390Y-69375000D01*
X113787610Y-69375000D01*
X113824116Y-69378595D01*
X113824116Y-69378595D01*
G37*
G36*
X125180000Y-70030000D02*
X124380000Y-70030000D01*
X124380000Y-69130000D01*
X125180000Y-69130000D01*
X125180000Y-70030000D01*
X125180000Y-70030000D01*
G37*
G36*
X127080000Y-70030000D02*
X126280000Y-70030000D01*
X126280000Y-69130000D01*
X127080000Y-69130000D01*
X127080000Y-70030000D01*
X127080000Y-70030000D01*
G37*
G36*
X119555770Y-67595372D02*
X119671689Y-67618429D01*
X119853678Y-67693811D01*
X120017463Y-67803249D01*
X120156751Y-67942537D01*
X120266189Y-68106322D01*
X120341571Y-68288311D01*
X120380000Y-68481509D01*
X120380000Y-68678491D01*
X120341571Y-68871689D01*
X120266189Y-69053678D01*
X120156751Y-69217463D01*
X120017463Y-69356751D01*
X119853678Y-69466189D01*
X119671689Y-69541571D01*
X119555770Y-69564628D01*
X119478493Y-69580000D01*
X119281507Y-69580000D01*
X119204230Y-69564628D01*
X119088311Y-69541571D01*
X118906322Y-69466189D01*
X118742537Y-69356751D01*
X118603249Y-69217463D01*
X118493811Y-69053678D01*
X118418429Y-68871689D01*
X118380000Y-68678491D01*
X118380000Y-68481509D01*
X118418429Y-68288311D01*
X118493811Y-68106322D01*
X118603249Y-67942537D01*
X118742537Y-67803249D01*
X118906322Y-67693811D01*
X119088311Y-67618429D01*
X119204230Y-67595372D01*
X119281507Y-67580000D01*
X119478493Y-67580000D01*
X119555770Y-67595372D01*
X119555770Y-67595372D01*
G37*
G36*
X102699116Y-68108595D02*
X102728313Y-68117452D01*
X102755218Y-68131833D01*
X102778808Y-68151192D01*
X102798167Y-68174782D01*
X102812548Y-68201687D01*
X102821405Y-68230884D01*
X102825000Y-68267390D01*
X102825000Y-68892610D01*
X102821405Y-68929116D01*
X102812548Y-68958313D01*
X102798167Y-68985218D01*
X102778808Y-69008808D01*
X102755218Y-69028167D01*
X102728313Y-69042548D01*
X102699116Y-69051405D01*
X102662610Y-69055000D01*
X102112390Y-69055000D01*
X102075884Y-69051405D01*
X102046687Y-69042548D01*
X102019782Y-69028167D01*
X101996192Y-69008808D01*
X101976833Y-68985218D01*
X101962452Y-68958313D01*
X101953595Y-68929116D01*
X101950000Y-68892610D01*
X101950000Y-68267390D01*
X101953595Y-68230884D01*
X101962452Y-68201687D01*
X101976833Y-68174782D01*
X101996192Y-68151192D01*
X102019782Y-68131833D01*
X102046687Y-68117452D01*
X102075884Y-68108595D01*
X102112390Y-68105000D01*
X102662610Y-68105000D01*
X102699116Y-68108595D01*
X102699116Y-68108595D01*
G37*
G36*
X101124116Y-68108595D02*
X101153313Y-68117452D01*
X101180218Y-68131833D01*
X101203808Y-68151192D01*
X101223167Y-68174782D01*
X101237548Y-68201687D01*
X101246405Y-68230884D01*
X101250000Y-68267390D01*
X101250000Y-68892610D01*
X101246405Y-68929116D01*
X101237548Y-68958313D01*
X101223167Y-68985218D01*
X101203808Y-69008808D01*
X101180218Y-69028167D01*
X101153313Y-69042548D01*
X101124116Y-69051405D01*
X101087610Y-69055000D01*
X100537390Y-69055000D01*
X100500884Y-69051405D01*
X100471687Y-69042548D01*
X100444782Y-69028167D01*
X100421192Y-69008808D01*
X100401833Y-68985218D01*
X100387452Y-68958313D01*
X100378595Y-68929116D01*
X100375000Y-68892610D01*
X100375000Y-68267390D01*
X100378595Y-68230884D01*
X100387452Y-68201687D01*
X100401833Y-68174782D01*
X100421192Y-68151192D01*
X100444782Y-68131833D01*
X100471687Y-68117452D01*
X100500884Y-68108595D01*
X100537390Y-68105000D01*
X101087610Y-68105000D01*
X101124116Y-68108595D01*
X101124116Y-68108595D01*
G37*
G36*
X129889116Y-68146095D02*
X129918313Y-68154952D01*
X129945218Y-68169333D01*
X129968808Y-68188692D01*
X129988167Y-68212282D01*
X130002548Y-68239187D01*
X130011405Y-68268384D01*
X130015000Y-68304890D01*
X130015000Y-68855110D01*
X130011405Y-68891616D01*
X130002548Y-68920813D01*
X129988167Y-68947718D01*
X129968808Y-68971308D01*
X129945218Y-68990667D01*
X129918313Y-69005048D01*
X129889116Y-69013905D01*
X129852610Y-69017500D01*
X129227390Y-69017500D01*
X129190884Y-69013905D01*
X129161687Y-69005048D01*
X129134782Y-68990667D01*
X129111192Y-68971308D01*
X129091833Y-68947718D01*
X129077452Y-68920813D01*
X129068595Y-68891616D01*
X129065000Y-68855110D01*
X129065000Y-68304890D01*
X129068595Y-68268384D01*
X129077452Y-68239187D01*
X129091833Y-68212282D01*
X129111192Y-68188692D01*
X129134782Y-68169333D01*
X129161687Y-68154952D01*
X129190884Y-68146095D01*
X129227390Y-68142500D01*
X129852610Y-68142500D01*
X129889116Y-68146095D01*
X129889116Y-68146095D01*
G37*
G36*
X175435770Y-66325372D02*
X175551689Y-66348429D01*
X175733678Y-66423811D01*
X175897463Y-66533249D01*
X176036751Y-66672537D01*
X176146189Y-66836322D01*
X176221571Y-67018311D01*
X176260000Y-67211509D01*
X176260000Y-67408491D01*
X176221571Y-67601689D01*
X176146189Y-67783678D01*
X176036751Y-67947463D01*
X175897463Y-68086751D01*
X175733678Y-68196189D01*
X175551689Y-68271571D01*
X175435770Y-68294628D01*
X175358493Y-68310000D01*
X175161507Y-68310000D01*
X175084230Y-68294628D01*
X174968311Y-68271571D01*
X174786322Y-68196189D01*
X174622537Y-68086751D01*
X174483249Y-67947463D01*
X174373811Y-67783678D01*
X174298429Y-67601689D01*
X174260000Y-67408491D01*
X174260000Y-67211509D01*
X174298429Y-67018311D01*
X174373811Y-66836322D01*
X174483249Y-66672537D01*
X174622537Y-66533249D01*
X174786322Y-66423811D01*
X174968311Y-66348429D01*
X175084230Y-66325372D01*
X175161507Y-66310000D01*
X175358493Y-66310000D01*
X175435770Y-66325372D01*
X175435770Y-66325372D01*
G37*
G36*
X126130000Y-68030000D02*
X125330000Y-68030000D01*
X125330000Y-67130000D01*
X126130000Y-67130000D01*
X126130000Y-68030000D01*
X126130000Y-68030000D01*
G37*
G36*
X111589116Y-66838595D02*
X111618313Y-66847452D01*
X111645218Y-66861833D01*
X111668808Y-66881192D01*
X111688167Y-66904782D01*
X111702548Y-66931687D01*
X111711405Y-66960884D01*
X111715000Y-66997390D01*
X111715000Y-67622610D01*
X111711405Y-67659116D01*
X111702548Y-67688313D01*
X111688167Y-67715218D01*
X111668808Y-67738808D01*
X111645218Y-67758167D01*
X111618313Y-67772548D01*
X111589116Y-67781405D01*
X111552610Y-67785000D01*
X111002390Y-67785000D01*
X110965884Y-67781405D01*
X110936687Y-67772548D01*
X110909782Y-67758167D01*
X110886192Y-67738808D01*
X110866833Y-67715218D01*
X110852452Y-67688313D01*
X110843595Y-67659116D01*
X110840000Y-67622610D01*
X110840000Y-66997390D01*
X110843595Y-66960884D01*
X110852452Y-66931687D01*
X110866833Y-66904782D01*
X110886192Y-66881192D01*
X110909782Y-66861833D01*
X110936687Y-66847452D01*
X110965884Y-66838595D01*
X111002390Y-66835000D01*
X111552610Y-66835000D01*
X111589116Y-66838595D01*
X111589116Y-66838595D01*
G37*
G36*
X110014116Y-66838595D02*
X110043313Y-66847452D01*
X110070218Y-66861833D01*
X110093808Y-66881192D01*
X110113167Y-66904782D01*
X110127548Y-66931687D01*
X110136405Y-66960884D01*
X110140000Y-66997390D01*
X110140000Y-67622610D01*
X110136405Y-67659116D01*
X110127548Y-67688313D01*
X110113167Y-67715218D01*
X110093808Y-67738808D01*
X110070218Y-67758167D01*
X110043313Y-67772548D01*
X110014116Y-67781405D01*
X109977610Y-67785000D01*
X109427390Y-67785000D01*
X109390884Y-67781405D01*
X109361687Y-67772548D01*
X109334782Y-67758167D01*
X109311192Y-67738808D01*
X109291833Y-67715218D01*
X109277452Y-67688313D01*
X109268595Y-67659116D01*
X109265000Y-67622610D01*
X109265000Y-66997390D01*
X109268595Y-66960884D01*
X109277452Y-66931687D01*
X109291833Y-66904782D01*
X109311192Y-66881192D01*
X109334782Y-66861833D01*
X109361687Y-66847452D01*
X109390884Y-66838595D01*
X109427390Y-66835000D01*
X109977610Y-66835000D01*
X110014116Y-66838595D01*
X110014116Y-66838595D01*
G37*
G36*
X113824116Y-66838595D02*
X113853313Y-66847452D01*
X113880218Y-66861833D01*
X113903808Y-66881192D01*
X113923167Y-66904782D01*
X113937548Y-66931687D01*
X113946405Y-66960884D01*
X113950000Y-66997390D01*
X113950000Y-67622610D01*
X113946405Y-67659116D01*
X113937548Y-67688313D01*
X113923167Y-67715218D01*
X113903808Y-67738808D01*
X113880218Y-67758167D01*
X113853313Y-67772548D01*
X113824116Y-67781405D01*
X113787610Y-67785000D01*
X113237390Y-67785000D01*
X113200884Y-67781405D01*
X113171687Y-67772548D01*
X113144782Y-67758167D01*
X113121192Y-67738808D01*
X113101833Y-67715218D01*
X113087452Y-67688313D01*
X113078595Y-67659116D01*
X113075000Y-67622610D01*
X113075000Y-66997390D01*
X113078595Y-66960884D01*
X113087452Y-66931687D01*
X113101833Y-66904782D01*
X113121192Y-66881192D01*
X113144782Y-66861833D01*
X113171687Y-66847452D01*
X113200884Y-66838595D01*
X113237390Y-66835000D01*
X113787610Y-66835000D01*
X113824116Y-66838595D01*
X113824116Y-66838595D01*
G37*
G36*
X115399116Y-66838595D02*
X115428313Y-66847452D01*
X115455218Y-66861833D01*
X115478808Y-66881192D01*
X115498167Y-66904782D01*
X115512548Y-66931687D01*
X115521405Y-66960884D01*
X115525000Y-66997390D01*
X115525000Y-67622610D01*
X115521405Y-67659116D01*
X115512548Y-67688313D01*
X115498167Y-67715218D01*
X115478808Y-67738808D01*
X115455218Y-67758167D01*
X115428313Y-67772548D01*
X115399116Y-67781405D01*
X115362610Y-67785000D01*
X114812390Y-67785000D01*
X114775884Y-67781405D01*
X114746687Y-67772548D01*
X114719782Y-67758167D01*
X114696192Y-67738808D01*
X114676833Y-67715218D01*
X114662452Y-67688313D01*
X114653595Y-67659116D01*
X114650000Y-67622610D01*
X114650000Y-66997390D01*
X114653595Y-66960884D01*
X114662452Y-66931687D01*
X114676833Y-66904782D01*
X114696192Y-66881192D01*
X114719782Y-66861833D01*
X114746687Y-66847452D01*
X114775884Y-66838595D01*
X114812390Y-66835000D01*
X115362610Y-66835000D01*
X115399116Y-66838595D01*
X115399116Y-66838595D01*
G37*
G36*
X96695770Y-65055372D02*
X96811689Y-65078429D01*
X96993678Y-65153811D01*
X97157463Y-65263249D01*
X97296751Y-65402537D01*
X97406189Y-65566322D01*
X97481571Y-65748311D01*
X97520000Y-65941509D01*
X97520000Y-66138491D01*
X97481571Y-66331689D01*
X97406189Y-66513678D01*
X97296751Y-66677463D01*
X97157463Y-66816751D01*
X96993678Y-66926189D01*
X96811689Y-67001571D01*
X96695770Y-67024628D01*
X96618493Y-67040000D01*
X96421507Y-67040000D01*
X96344230Y-67024628D01*
X96228311Y-67001571D01*
X96046322Y-66926189D01*
X95882537Y-66816751D01*
X95743249Y-66677463D01*
X95633811Y-66513678D01*
X95558429Y-66331689D01*
X95520000Y-66138491D01*
X95520000Y-65941509D01*
X95558429Y-65748311D01*
X95633811Y-65566322D01*
X95743249Y-65402537D01*
X95882537Y-65263249D01*
X96046322Y-65153811D01*
X96228311Y-65078429D01*
X96344230Y-65055372D01*
X96421507Y-65040000D01*
X96618493Y-65040000D01*
X96695770Y-65055372D01*
X96695770Y-65055372D01*
G37*
G36*
X141844989Y-60615538D02*
X141844991Y-60615539D01*
X141844992Y-60615539D01*
X142390909Y-60841665D01*
X142695266Y-61045030D01*
X142882225Y-61169952D01*
X143300048Y-61587775D01*
X143300050Y-61587778D01*
X143628335Y-62079091D01*
X143785818Y-62459289D01*
X143854462Y-62625011D01*
X143969740Y-63204550D01*
X143969740Y-63795450D01*
X143939363Y-63948167D01*
X143854461Y-64374992D01*
X143628335Y-64920909D01*
X143628334Y-64920910D01*
X143300048Y-65412225D01*
X142882225Y-65830048D01*
X142882222Y-65830050D01*
X142390909Y-66158335D01*
X141844992Y-66384461D01*
X141844991Y-66384461D01*
X141844989Y-66384462D01*
X141265450Y-66499740D01*
X140674550Y-66499740D01*
X140095011Y-66384462D01*
X140095009Y-66384461D01*
X140095008Y-66384461D01*
X139549091Y-66158335D01*
X139057778Y-65830050D01*
X139057775Y-65830048D01*
X138639952Y-65412225D01*
X138311666Y-64920910D01*
X138311665Y-64920909D01*
X138085539Y-64374992D01*
X138000638Y-63948167D01*
X137970260Y-63795450D01*
X137970260Y-63204550D01*
X138085538Y-62625011D01*
X138154182Y-62459289D01*
X138311665Y-62079091D01*
X138639950Y-61587778D01*
X138639952Y-61587775D01*
X139057775Y-61169952D01*
X139244734Y-61045030D01*
X139549091Y-60841665D01*
X140095008Y-60615539D01*
X140095009Y-60615539D01*
X140095011Y-60615538D01*
X140674550Y-60500260D01*
X141265450Y-60500260D01*
X141844989Y-60615538D01*
X141844989Y-60615538D01*
G37*
G36*
X101124116Y-63028595D02*
X101153313Y-63037452D01*
X101180218Y-63051833D01*
X101203808Y-63071192D01*
X101223167Y-63094782D01*
X101237548Y-63121687D01*
X101246405Y-63150884D01*
X101250000Y-63187390D01*
X101250000Y-63812610D01*
X101246405Y-63849116D01*
X101237548Y-63878313D01*
X101223167Y-63905218D01*
X101203808Y-63928808D01*
X101180218Y-63948167D01*
X101153313Y-63962548D01*
X101124116Y-63971405D01*
X101087610Y-63975000D01*
X100537390Y-63975000D01*
X100500884Y-63971405D01*
X100471687Y-63962548D01*
X100444782Y-63948167D01*
X100421192Y-63928808D01*
X100401833Y-63905218D01*
X100387452Y-63878313D01*
X100378595Y-63849116D01*
X100375000Y-63812610D01*
X100375000Y-63187390D01*
X100378595Y-63150884D01*
X100387452Y-63121687D01*
X100401833Y-63094782D01*
X100421192Y-63071192D01*
X100444782Y-63051833D01*
X100471687Y-63037452D01*
X100500884Y-63028595D01*
X100537390Y-63025000D01*
X101087610Y-63025000D01*
X101124116Y-63028595D01*
X101124116Y-63028595D01*
G37*
G36*
X102699116Y-63028595D02*
X102728313Y-63037452D01*
X102755218Y-63051833D01*
X102778808Y-63071192D01*
X102798167Y-63094782D01*
X102812548Y-63121687D01*
X102821405Y-63150884D01*
X102825000Y-63187390D01*
X102825000Y-63812610D01*
X102821405Y-63849116D01*
X102812548Y-63878313D01*
X102798167Y-63905218D01*
X102778808Y-63928808D01*
X102755218Y-63948167D01*
X102728313Y-63962548D01*
X102699116Y-63971405D01*
X102662610Y-63975000D01*
X102112390Y-63975000D01*
X102075884Y-63971405D01*
X102046687Y-63962548D01*
X102019782Y-63948167D01*
X101996192Y-63928808D01*
X101976833Y-63905218D01*
X101962452Y-63878313D01*
X101953595Y-63849116D01*
X101950000Y-63812610D01*
X101950000Y-63187390D01*
X101953595Y-63150884D01*
X101962452Y-63121687D01*
X101976833Y-63094782D01*
X101996192Y-63071192D01*
X102019782Y-63051833D01*
X102046687Y-63037452D01*
X102075884Y-63028595D01*
X102112390Y-63025000D01*
X102662610Y-63025000D01*
X102699116Y-63028595D01*
X102699116Y-63028595D01*
G37*
G36*
X174543992Y-62684076D02*
X174577883Y-62694357D01*
X174609111Y-62711048D01*
X174636485Y-62733515D01*
X174658952Y-62760889D01*
X174675643Y-62792117D01*
X174685924Y-62826008D01*
X174690000Y-62867391D01*
X174690000Y-63467609D01*
X174685924Y-63508992D01*
X174675643Y-63542883D01*
X174658952Y-63574111D01*
X174636485Y-63601485D01*
X174609111Y-63623952D01*
X174577883Y-63640643D01*
X174543992Y-63650924D01*
X174502609Y-63655000D01*
X173477391Y-63655000D01*
X173436008Y-63650924D01*
X173402117Y-63640643D01*
X173370889Y-63623952D01*
X173343515Y-63601485D01*
X173321048Y-63574111D01*
X173304357Y-63542883D01*
X173294076Y-63508992D01*
X173290000Y-63467609D01*
X173290000Y-62867391D01*
X173294076Y-62826008D01*
X173304357Y-62792117D01*
X173321048Y-62760889D01*
X173343515Y-62733515D01*
X173370889Y-62711048D01*
X173402117Y-62694357D01*
X173436008Y-62684076D01*
X173477391Y-62680000D01*
X174502609Y-62680000D01*
X174543992Y-62684076D01*
X174543992Y-62684076D01*
G37*
G36*
X164383992Y-62684076D02*
X164417883Y-62694357D01*
X164449111Y-62711048D01*
X164476485Y-62733515D01*
X164498952Y-62760889D01*
X164515643Y-62792117D01*
X164525924Y-62826008D01*
X164530000Y-62867391D01*
X164530000Y-63467609D01*
X164525924Y-63508992D01*
X164515643Y-63542883D01*
X164498952Y-63574111D01*
X164476485Y-63601485D01*
X164449111Y-63623952D01*
X164417883Y-63640643D01*
X164383992Y-63650924D01*
X164342609Y-63655000D01*
X163317391Y-63655000D01*
X163276008Y-63650924D01*
X163242117Y-63640643D01*
X163210889Y-63623952D01*
X163183515Y-63601485D01*
X163161048Y-63574111D01*
X163144357Y-63542883D01*
X163134076Y-63508992D01*
X163130000Y-63467609D01*
X163130000Y-62867391D01*
X163134076Y-62826008D01*
X163144357Y-62792117D01*
X163161048Y-62760889D01*
X163183515Y-62733515D01*
X163210889Y-62711048D01*
X163242117Y-62694357D01*
X163276008Y-62684076D01*
X163317391Y-62680000D01*
X164342609Y-62680000D01*
X164383992Y-62684076D01*
X164383992Y-62684076D01*
G37*
G36*
X172325000Y-63580000D02*
X171875000Y-63580000D01*
X171875000Y-62880000D01*
X172325000Y-62880000D01*
X172325000Y-63580000D01*
X172325000Y-63580000D01*
G37*
G36*
X162165000Y-63580000D02*
X161715000Y-63580000D01*
X161715000Y-62880000D01*
X162165000Y-62880000D01*
X162165000Y-63580000D01*
X162165000Y-63580000D01*
G37*
G36*
X160865000Y-63580000D02*
X160415000Y-63580000D01*
X160415000Y-62880000D01*
X160865000Y-62880000D01*
X160865000Y-63580000D01*
X160865000Y-63580000D01*
G37*
G36*
X171025000Y-63580000D02*
X170575000Y-63580000D01*
X170575000Y-62880000D01*
X171025000Y-62880000D01*
X171025000Y-63580000D01*
X171025000Y-63580000D01*
G37*
G36*
X151363352Y-60785743D02*
X151508941Y-60846048D01*
X151639973Y-60933601D01*
X151751399Y-61045027D01*
X151838952Y-61176059D01*
X151899257Y-61321648D01*
X151930000Y-61476205D01*
X151930000Y-61633795D01*
X151899257Y-61788352D01*
X151838952Y-61933941D01*
X151751399Y-62064973D01*
X151639973Y-62176399D01*
X151508941Y-62263952D01*
X151363352Y-62324257D01*
X151208795Y-62355000D01*
X151051205Y-62355000D01*
X150896648Y-62324257D01*
X150751059Y-62263952D01*
X150620027Y-62176399D01*
X150543388Y-62099760D01*
X150524446Y-62084214D01*
X150502835Y-62072663D01*
X150479386Y-62065550D01*
X150455000Y-62063148D01*
X150430614Y-62065550D01*
X150407165Y-62072663D01*
X150385554Y-62084214D01*
X150366612Y-62099760D01*
X150351066Y-62118702D01*
X150339515Y-62140313D01*
X150332402Y-62163762D01*
X150330000Y-62188148D01*
X150330000Y-62304732D01*
X150299257Y-62459289D01*
X150238952Y-62604878D01*
X150151399Y-62735910D01*
X150039973Y-62847336D01*
X149908941Y-62934889D01*
X149763352Y-62995194D01*
X149608795Y-63025937D01*
X149451205Y-63025937D01*
X149296648Y-62995194D01*
X149151059Y-62934889D01*
X149020027Y-62847336D01*
X148908601Y-62735910D01*
X148821048Y-62604878D01*
X148760743Y-62459289D01*
X148730000Y-62304732D01*
X148730000Y-62147142D01*
X148760743Y-61992585D01*
X148821048Y-61846996D01*
X148908601Y-61715964D01*
X149020027Y-61604538D01*
X149151059Y-61516985D01*
X149296648Y-61456680D01*
X149451205Y-61425937D01*
X149608795Y-61425937D01*
X149763352Y-61456680D01*
X149908941Y-61516985D01*
X150039973Y-61604538D01*
X150116612Y-61681177D01*
X150135554Y-61696723D01*
X150157165Y-61708274D01*
X150180614Y-61715387D01*
X150205000Y-61717789D01*
X150229386Y-61715387D01*
X150252835Y-61708274D01*
X150274446Y-61696723D01*
X150293388Y-61681177D01*
X150308934Y-61662235D01*
X150320485Y-61640624D01*
X150327598Y-61617175D01*
X150330000Y-61592789D01*
X150330000Y-61476205D01*
X150360743Y-61321648D01*
X150421048Y-61176059D01*
X150508601Y-61045027D01*
X150620027Y-60933601D01*
X150751059Y-60846048D01*
X150896648Y-60785743D01*
X151051205Y-60755000D01*
X151208795Y-60755000D01*
X151363352Y-60785743D01*
X151363352Y-60785743D01*
G37*
G36*
X96695770Y-59975372D02*
X96811689Y-59998429D01*
X96993678Y-60073811D01*
X97157463Y-60183249D01*
X97296751Y-60322537D01*
X97406189Y-60486322D01*
X97481571Y-60668311D01*
X97488620Y-60703750D01*
X97520000Y-60861507D01*
X97520000Y-61058493D01*
X97504628Y-61135770D01*
X97481571Y-61251689D01*
X97406189Y-61433678D01*
X97296751Y-61597463D01*
X97157463Y-61736751D01*
X96993678Y-61846189D01*
X96811689Y-61921571D01*
X96695770Y-61944628D01*
X96618493Y-61960000D01*
X96421507Y-61960000D01*
X96344230Y-61944628D01*
X96228311Y-61921571D01*
X96046322Y-61846189D01*
X95882537Y-61736751D01*
X95743249Y-61597463D01*
X95633811Y-61433678D01*
X95558429Y-61251689D01*
X95535372Y-61135770D01*
X95520000Y-61058493D01*
X95520000Y-60861507D01*
X95551380Y-60703750D01*
X95558429Y-60668311D01*
X95633811Y-60486322D01*
X95743249Y-60322537D01*
X95882537Y-60183249D01*
X96046322Y-60073811D01*
X96228311Y-59998429D01*
X96344230Y-59975372D01*
X96421507Y-59960000D01*
X96618493Y-59960000D01*
X96695770Y-59975372D01*
X96695770Y-59975372D01*
G37*
G36*
X123356630Y-60122299D02*
X123516855Y-60170903D01*
X123664520Y-60249831D01*
X123793949Y-60356051D01*
X123900169Y-60485480D01*
X123979097Y-60633145D01*
X124027701Y-60793370D01*
X124044112Y-60960000D01*
X124027701Y-61126630D01*
X123979097Y-61286855D01*
X123900169Y-61434520D01*
X123793949Y-61563949D01*
X123664520Y-61670169D01*
X123516855Y-61749097D01*
X123356630Y-61797701D01*
X123231752Y-61810000D01*
X123148248Y-61810000D01*
X123023370Y-61797701D01*
X122863145Y-61749097D01*
X122715480Y-61670169D01*
X122586051Y-61563949D01*
X122479831Y-61434520D01*
X122400903Y-61286855D01*
X122352299Y-61126630D01*
X122335888Y-60960000D01*
X122352299Y-60793370D01*
X122400903Y-60633145D01*
X122479831Y-60485480D01*
X122586051Y-60356051D01*
X122715480Y-60249831D01*
X122863145Y-60170903D01*
X123023370Y-60122299D01*
X123148248Y-60110000D01*
X123231752Y-60110000D01*
X123356630Y-60122299D01*
X123356630Y-60122299D01*
G37*
G36*
X133516630Y-60122299D02*
X133676855Y-60170903D01*
X133824520Y-60249831D01*
X133953949Y-60356051D01*
X134060169Y-60485480D01*
X134139097Y-60633145D01*
X134187701Y-60793370D01*
X134204112Y-60960000D01*
X134187701Y-61126630D01*
X134139097Y-61286855D01*
X134060169Y-61434520D01*
X133953949Y-61563949D01*
X133824520Y-61670169D01*
X133676855Y-61749097D01*
X133516630Y-61797701D01*
X133391752Y-61810000D01*
X133308248Y-61810000D01*
X133183370Y-61797701D01*
X133023145Y-61749097D01*
X132875480Y-61670169D01*
X132746051Y-61563949D01*
X132639831Y-61434520D01*
X132560903Y-61286855D01*
X132512299Y-61126630D01*
X132495888Y-60960000D01*
X132512299Y-60793370D01*
X132560903Y-60633145D01*
X132639831Y-60485480D01*
X132746051Y-60356051D01*
X132875480Y-60249831D01*
X133023145Y-60170903D01*
X133183370Y-60122299D01*
X133308248Y-60110000D01*
X133391752Y-60110000D01*
X133516630Y-60122299D01*
X133516630Y-60122299D01*
G37*
G36*
X128436630Y-60122299D02*
X128596855Y-60170903D01*
X128744520Y-60249831D01*
X128873949Y-60356051D01*
X128980169Y-60485480D01*
X129059097Y-60633145D01*
X129107701Y-60793370D01*
X129124112Y-60960000D01*
X129107701Y-61126630D01*
X129059097Y-61286855D01*
X128980169Y-61434520D01*
X128873949Y-61563949D01*
X128744520Y-61670169D01*
X128596855Y-61749097D01*
X128436630Y-61797701D01*
X128311752Y-61810000D01*
X128228248Y-61810000D01*
X128103370Y-61797701D01*
X127943145Y-61749097D01*
X127795480Y-61670169D01*
X127666051Y-61563949D01*
X127559831Y-61434520D01*
X127480903Y-61286855D01*
X127432299Y-61126630D01*
X127415888Y-60960000D01*
X127432299Y-60793370D01*
X127480903Y-60633145D01*
X127559831Y-60485480D01*
X127666051Y-60356051D01*
X127795480Y-60249831D01*
X127943145Y-60170903D01*
X128103370Y-60122299D01*
X128228248Y-60110000D01*
X128311752Y-60110000D01*
X128436630Y-60122299D01*
X128436630Y-60122299D01*
G37*
G36*
X118276630Y-60122299D02*
X118436855Y-60170903D01*
X118584520Y-60249831D01*
X118713949Y-60356051D01*
X118820169Y-60485480D01*
X118899097Y-60633145D01*
X118947701Y-60793370D01*
X118964112Y-60960000D01*
X118947701Y-61126630D01*
X118899097Y-61286855D01*
X118820169Y-61434520D01*
X118713949Y-61563949D01*
X118584520Y-61670169D01*
X118436855Y-61749097D01*
X118276630Y-61797701D01*
X118151752Y-61810000D01*
X118068248Y-61810000D01*
X117943370Y-61797701D01*
X117783145Y-61749097D01*
X117635480Y-61670169D01*
X117506051Y-61563949D01*
X117399831Y-61434520D01*
X117320903Y-61286855D01*
X117272299Y-61126630D01*
X117255888Y-60960000D01*
X117272299Y-60793370D01*
X117320903Y-60633145D01*
X117399831Y-60485480D01*
X117506051Y-60356051D01*
X117635480Y-60249831D01*
X117783145Y-60170903D01*
X117943370Y-60122299D01*
X118068248Y-60110000D01*
X118151752Y-60110000D01*
X118276630Y-60122299D01*
X118276630Y-60122299D01*
G37*
G36*
X174543992Y-60809076D02*
X174577883Y-60819357D01*
X174609111Y-60836048D01*
X174636485Y-60858515D01*
X174658952Y-60885889D01*
X174675643Y-60917117D01*
X174685924Y-60951008D01*
X174690000Y-60992391D01*
X174690000Y-61592609D01*
X174685924Y-61633992D01*
X174675643Y-61667883D01*
X174658952Y-61699111D01*
X174636485Y-61726485D01*
X174609111Y-61748952D01*
X174577883Y-61765643D01*
X174543992Y-61775924D01*
X174502609Y-61780000D01*
X173477391Y-61780000D01*
X173436008Y-61775924D01*
X173402117Y-61765643D01*
X173370889Y-61748952D01*
X173343515Y-61726485D01*
X173321048Y-61699111D01*
X173304357Y-61667883D01*
X173294076Y-61633992D01*
X173290000Y-61592609D01*
X173290000Y-60992391D01*
X173294076Y-60951008D01*
X173304357Y-60917117D01*
X173321048Y-60885889D01*
X173343515Y-60858515D01*
X173370889Y-60836048D01*
X173402117Y-60819357D01*
X173436008Y-60809076D01*
X173477391Y-60805000D01*
X174502609Y-60805000D01*
X174543992Y-60809076D01*
X174543992Y-60809076D01*
G37*
G36*
X164383992Y-60809076D02*
X164417883Y-60819357D01*
X164449111Y-60836048D01*
X164476485Y-60858515D01*
X164498952Y-60885889D01*
X164515643Y-60917117D01*
X164525924Y-60951008D01*
X164530000Y-60992391D01*
X164530000Y-61592609D01*
X164525924Y-61633992D01*
X164515643Y-61667883D01*
X164498952Y-61699111D01*
X164476485Y-61726485D01*
X164449111Y-61748952D01*
X164417883Y-61765643D01*
X164383992Y-61775924D01*
X164342609Y-61780000D01*
X163317391Y-61780000D01*
X163276008Y-61775924D01*
X163242117Y-61765643D01*
X163210889Y-61748952D01*
X163183515Y-61726485D01*
X163161048Y-61699111D01*
X163144357Y-61667883D01*
X163134076Y-61633992D01*
X163130000Y-61592609D01*
X163130000Y-60992391D01*
X163134076Y-60951008D01*
X163144357Y-60917117D01*
X163161048Y-60885889D01*
X163183515Y-60858515D01*
X163210889Y-60836048D01*
X163242117Y-60819357D01*
X163276008Y-60809076D01*
X163317391Y-60805000D01*
X164342609Y-60805000D01*
X164383992Y-60809076D01*
X164383992Y-60809076D01*
G37*
G36*
X161515000Y-61580000D02*
X161065000Y-61580000D01*
X161065000Y-60880000D01*
X161515000Y-60880000D01*
X161515000Y-61580000D01*
X161515000Y-61580000D01*
G37*
G36*
X171675000Y-61580000D02*
X171225000Y-61580000D01*
X171225000Y-60880000D01*
X171675000Y-60880000D01*
X171675000Y-61580000D01*
X171675000Y-61580000D01*
G37*
G36*
X101124116Y-60488595D02*
X101153313Y-60497452D01*
X101180218Y-60511833D01*
X101203808Y-60531192D01*
X101223167Y-60554782D01*
X101237548Y-60581687D01*
X101246405Y-60610884D01*
X101250000Y-60647390D01*
X101250000Y-61272610D01*
X101246405Y-61309116D01*
X101237548Y-61338313D01*
X101223167Y-61365218D01*
X101203808Y-61388808D01*
X101180218Y-61408167D01*
X101153313Y-61422548D01*
X101124116Y-61431405D01*
X101087610Y-61435000D01*
X100537390Y-61435000D01*
X100500884Y-61431405D01*
X100471687Y-61422548D01*
X100444782Y-61408167D01*
X100421192Y-61388808D01*
X100401833Y-61365218D01*
X100387452Y-61338313D01*
X100378595Y-61309116D01*
X100375000Y-61272610D01*
X100375000Y-60647390D01*
X100378595Y-60610884D01*
X100387452Y-60581687D01*
X100401833Y-60554782D01*
X100421192Y-60531192D01*
X100444782Y-60511833D01*
X100471687Y-60497452D01*
X100500884Y-60488595D01*
X100537390Y-60485000D01*
X101087610Y-60485000D01*
X101124116Y-60488595D01*
X101124116Y-60488595D01*
G37*
G36*
X102699116Y-60488595D02*
X102728313Y-60497452D01*
X102755218Y-60511833D01*
X102778808Y-60531192D01*
X102798167Y-60554782D01*
X102812548Y-60581687D01*
X102821405Y-60610884D01*
X102825000Y-60647390D01*
X102825000Y-61272610D01*
X102821405Y-61309116D01*
X102812548Y-61338313D01*
X102798167Y-61365218D01*
X102778808Y-61388808D01*
X102755218Y-61408167D01*
X102728313Y-61422548D01*
X102699116Y-61431405D01*
X102662610Y-61435000D01*
X102112390Y-61435000D01*
X102075884Y-61431405D01*
X102046687Y-61422548D01*
X102019782Y-61408167D01*
X101996192Y-61388808D01*
X101976833Y-61365218D01*
X101962452Y-61338313D01*
X101953595Y-61309116D01*
X101950000Y-61272610D01*
X101950000Y-60647390D01*
X101953595Y-60610884D01*
X101962452Y-60581687D01*
X101976833Y-60554782D01*
X101996192Y-60531192D01*
X102019782Y-60511833D01*
X102046687Y-60497452D01*
X102075884Y-60488595D01*
X102112390Y-60485000D01*
X102662610Y-60485000D01*
X102699116Y-60488595D01*
X102699116Y-60488595D01*
G37*
G36*
X136725000Y-60290000D02*
X136325000Y-60290000D01*
X136325000Y-59990000D01*
X136725000Y-59990000D01*
X136725000Y-60290000D01*
X136725000Y-60290000D01*
G37*
G36*
X153530000Y-59184063D02*
X152055000Y-59184063D01*
X152030614Y-59186465D01*
X152007165Y-59193578D01*
X151985554Y-59205129D01*
X151966612Y-59220675D01*
X151951066Y-59239617D01*
X151939515Y-59261228D01*
X151932402Y-59284677D01*
X151930000Y-59309063D01*
X151930000Y-59855000D01*
X150330000Y-59855000D01*
X150330000Y-58255000D01*
X151805000Y-58255000D01*
X151829386Y-58252598D01*
X151852835Y-58245485D01*
X151874446Y-58233934D01*
X151893388Y-58218388D01*
X151908934Y-58199446D01*
X151920485Y-58177835D01*
X151927598Y-58154386D01*
X151930000Y-58130000D01*
X151930000Y-57584063D01*
X153530000Y-57584063D01*
X153530000Y-59184063D01*
X153530000Y-59184063D01*
G37*
G36*
X136725000Y-59390000D02*
X136325000Y-59390000D01*
X136325000Y-59090000D01*
X136725000Y-59090000D01*
X136725000Y-59390000D01*
X136725000Y-59390000D01*
G37*
G36*
X128436630Y-57582299D02*
X128596855Y-57630903D01*
X128744520Y-57709831D01*
X128873949Y-57816051D01*
X128980169Y-57945480D01*
X129059097Y-58093145D01*
X129107701Y-58253370D01*
X129124112Y-58420000D01*
X129107701Y-58586630D01*
X129059097Y-58746855D01*
X128980169Y-58894520D01*
X128873949Y-59023949D01*
X128744520Y-59130169D01*
X128596855Y-59209097D01*
X128436630Y-59257701D01*
X128311752Y-59270000D01*
X128228248Y-59270000D01*
X128103370Y-59257701D01*
X127943145Y-59209097D01*
X127795480Y-59130169D01*
X127666051Y-59023949D01*
X127559831Y-58894520D01*
X127480903Y-58746855D01*
X127432299Y-58586630D01*
X127415888Y-58420000D01*
X127432299Y-58253370D01*
X127480903Y-58093145D01*
X127559831Y-57945480D01*
X127666051Y-57816051D01*
X127795480Y-57709831D01*
X127943145Y-57630903D01*
X128103370Y-57582299D01*
X128228248Y-57570000D01*
X128311752Y-57570000D01*
X128436630Y-57582299D01*
X128436630Y-57582299D01*
G37*
G36*
X134200000Y-59270000D02*
X132500000Y-59270000D01*
X132500000Y-57570000D01*
X134200000Y-57570000D01*
X134200000Y-59270000D01*
X134200000Y-59270000D01*
G37*
G36*
X118276630Y-57582299D02*
X118436855Y-57630903D01*
X118584520Y-57709831D01*
X118713949Y-57816051D01*
X118820169Y-57945480D01*
X118899097Y-58093145D01*
X118947701Y-58253370D01*
X118964112Y-58420000D01*
X118947701Y-58586630D01*
X118899097Y-58746855D01*
X118820169Y-58894520D01*
X118713949Y-59023949D01*
X118584520Y-59130169D01*
X118436855Y-59209097D01*
X118276630Y-59257701D01*
X118151752Y-59270000D01*
X118068248Y-59270000D01*
X117943370Y-59257701D01*
X117783145Y-59209097D01*
X117635480Y-59130169D01*
X117506051Y-59023949D01*
X117399831Y-58894520D01*
X117320903Y-58746855D01*
X117272299Y-58586630D01*
X117255888Y-58420000D01*
X117272299Y-58253370D01*
X117320903Y-58093145D01*
X117399831Y-57945480D01*
X117506051Y-57816051D01*
X117635480Y-57709831D01*
X117783145Y-57630903D01*
X117943370Y-57582299D01*
X118068248Y-57570000D01*
X118151752Y-57570000D01*
X118276630Y-57582299D01*
X118276630Y-57582299D01*
G37*
G36*
X170346630Y-57582299D02*
X170506855Y-57630903D01*
X170654520Y-57709831D01*
X170783949Y-57816051D01*
X170890169Y-57945480D01*
X170969097Y-58093145D01*
X171017701Y-58253370D01*
X171034112Y-58420000D01*
X171017701Y-58586630D01*
X170969097Y-58746855D01*
X170890169Y-58894520D01*
X170783949Y-59023949D01*
X170654520Y-59130169D01*
X170506855Y-59209097D01*
X170346630Y-59257701D01*
X170221752Y-59270000D01*
X170138248Y-59270000D01*
X170013370Y-59257701D01*
X169853145Y-59209097D01*
X169705480Y-59130169D01*
X169576051Y-59023949D01*
X169469831Y-58894520D01*
X169390903Y-58746855D01*
X169342299Y-58586630D01*
X169325888Y-58420000D01*
X169342299Y-58253370D01*
X169390903Y-58093145D01*
X169469831Y-57945480D01*
X169576051Y-57816051D01*
X169705480Y-57709831D01*
X169853145Y-57630903D01*
X170013370Y-57582299D01*
X170138248Y-57570000D01*
X170221752Y-57570000D01*
X170346630Y-57582299D01*
X170346630Y-57582299D01*
G37*
G36*
X165266630Y-57582299D02*
X165426855Y-57630903D01*
X165574520Y-57709831D01*
X165703949Y-57816051D01*
X165810169Y-57945480D01*
X165889097Y-58093145D01*
X165937701Y-58253370D01*
X165954112Y-58420000D01*
X165937701Y-58586630D01*
X165889097Y-58746855D01*
X165810169Y-58894520D01*
X165703949Y-59023949D01*
X165574520Y-59130169D01*
X165426855Y-59209097D01*
X165266630Y-59257701D01*
X165141752Y-59270000D01*
X165058248Y-59270000D01*
X164933370Y-59257701D01*
X164773145Y-59209097D01*
X164625480Y-59130169D01*
X164496051Y-59023949D01*
X164389831Y-58894520D01*
X164310903Y-58746855D01*
X164262299Y-58586630D01*
X164245888Y-58420000D01*
X164262299Y-58253370D01*
X164310903Y-58093145D01*
X164389831Y-57945480D01*
X164496051Y-57816051D01*
X164625480Y-57709831D01*
X164773145Y-57630903D01*
X164933370Y-57582299D01*
X165058248Y-57570000D01*
X165141752Y-57570000D01*
X165266630Y-57582299D01*
X165266630Y-57582299D01*
G37*
G36*
X160186630Y-57582299D02*
X160346855Y-57630903D01*
X160494520Y-57709831D01*
X160623949Y-57816051D01*
X160730169Y-57945480D01*
X160809097Y-58093145D01*
X160857701Y-58253370D01*
X160874112Y-58420000D01*
X160857701Y-58586630D01*
X160809097Y-58746855D01*
X160730169Y-58894520D01*
X160623949Y-59023949D01*
X160494520Y-59130169D01*
X160346855Y-59209097D01*
X160186630Y-59257701D01*
X160061752Y-59270000D01*
X159978248Y-59270000D01*
X159853370Y-59257701D01*
X159693145Y-59209097D01*
X159545480Y-59130169D01*
X159416051Y-59023949D01*
X159309831Y-58894520D01*
X159230903Y-58746855D01*
X159182299Y-58586630D01*
X159165888Y-58420000D01*
X159182299Y-58253370D01*
X159230903Y-58093145D01*
X159309831Y-57945480D01*
X159416051Y-57816051D01*
X159545480Y-57709831D01*
X159693145Y-57630903D01*
X159853370Y-57582299D01*
X159978248Y-57570000D01*
X160061752Y-57570000D01*
X160186630Y-57582299D01*
X160186630Y-57582299D01*
G37*
G36*
X123356630Y-57582299D02*
X123516855Y-57630903D01*
X123664520Y-57709831D01*
X123793949Y-57816051D01*
X123900169Y-57945480D01*
X123979097Y-58093145D01*
X124027701Y-58253370D01*
X124044112Y-58420000D01*
X124027701Y-58586630D01*
X123979097Y-58746855D01*
X123900169Y-58894520D01*
X123793949Y-59023949D01*
X123664520Y-59130169D01*
X123516855Y-59209097D01*
X123356630Y-59257701D01*
X123231752Y-59270000D01*
X123148248Y-59270000D01*
X123023370Y-59257701D01*
X122863145Y-59209097D01*
X122715480Y-59130169D01*
X122586051Y-59023949D01*
X122479831Y-58894520D01*
X122400903Y-58746855D01*
X122352299Y-58586630D01*
X122335888Y-58420000D01*
X122352299Y-58253370D01*
X122400903Y-58093145D01*
X122479831Y-57945480D01*
X122586051Y-57816051D01*
X122715480Y-57709831D01*
X122863145Y-57630903D01*
X123023370Y-57582299D01*
X123148248Y-57570000D01*
X123231752Y-57570000D01*
X123356630Y-57582299D01*
X123356630Y-57582299D01*
G37*
G36*
X175426630Y-57582299D02*
X175586855Y-57630903D01*
X175734520Y-57709831D01*
X175863949Y-57816051D01*
X175970169Y-57945480D01*
X176049097Y-58093145D01*
X176097701Y-58253370D01*
X176114112Y-58420000D01*
X176097701Y-58586630D01*
X176049097Y-58746855D01*
X175970169Y-58894520D01*
X175863949Y-59023949D01*
X175734520Y-59130169D01*
X175586855Y-59209097D01*
X175426630Y-59257701D01*
X175301752Y-59270000D01*
X175218248Y-59270000D01*
X175093370Y-59257701D01*
X174933145Y-59209097D01*
X174785480Y-59130169D01*
X174656051Y-59023949D01*
X174549831Y-58894520D01*
X174470903Y-58746855D01*
X174422299Y-58586630D01*
X174405888Y-58420000D01*
X174422299Y-58253370D01*
X174470903Y-58093145D01*
X174549831Y-57945480D01*
X174656051Y-57816051D01*
X174785480Y-57709831D01*
X174933145Y-57630903D01*
X175093370Y-57582299D01*
X175218248Y-57570000D01*
X175301752Y-57570000D01*
X175426630Y-57582299D01*
X175426630Y-57582299D01*
G37*
G36*
X143969740Y-58879740D02*
X137970260Y-58879740D01*
X137970260Y-52880260D01*
X143969740Y-52880260D01*
X143969740Y-58879740D01*
X143969740Y-58879740D01*
G37*
G36*
X118960000Y-56730000D02*
X117260000Y-56730000D01*
X117260000Y-55030000D01*
X118960000Y-55030000D01*
X118960000Y-56730000D01*
X118960000Y-56730000D01*
G37*
G36*
X176110000Y-56730000D02*
X174410000Y-56730000D01*
X174410000Y-55030000D01*
X176110000Y-55030000D01*
X176110000Y-56730000D01*
X176110000Y-56730000D01*
G37*
G36*
X171030000Y-56730000D02*
X169330000Y-56730000D01*
X169330000Y-55030000D01*
X171030000Y-55030000D01*
X171030000Y-56730000D01*
X171030000Y-56730000D01*
G37*
G36*
X160870000Y-56730000D02*
X159170000Y-56730000D01*
X159170000Y-55030000D01*
X160870000Y-55030000D01*
X160870000Y-56730000D01*
X160870000Y-56730000D01*
G37*
G36*
X124040000Y-56730000D02*
X122340000Y-56730000D01*
X122340000Y-55030000D01*
X124040000Y-55030000D01*
X124040000Y-56730000D01*
X124040000Y-56730000D01*
G37*
G36*
X129120000Y-56730000D02*
X127420000Y-56730000D01*
X127420000Y-55030000D01*
X129120000Y-55030000D01*
X129120000Y-56730000D01*
X129120000Y-56730000D01*
G37*
G36*
X165950000Y-56730000D02*
X164250000Y-56730000D01*
X164250000Y-55030000D01*
X165950000Y-55030000D01*
X165950000Y-56730000D01*
X165950000Y-56730000D01*
G37*
G36*
X95656560Y-50489759D02*
X96107084Y-50676372D01*
X96147930Y-50693291D01*
X96167736Y-50706525D01*
X96590153Y-50988775D01*
X96966225Y-51364847D01*
X97261710Y-51807072D01*
X97465241Y-52298440D01*
X97569000Y-52820072D01*
X97569000Y-53351928D01*
X97465241Y-53873560D01*
X97303969Y-54262906D01*
X97261709Y-54364930D01*
X97030472Y-54711000D01*
X96966225Y-54807153D01*
X96590153Y-55183225D01*
X96590150Y-55183227D01*
X96147930Y-55478709D01*
X96147929Y-55478710D01*
X96147928Y-55478710D01*
X95656560Y-55682241D01*
X95134928Y-55786000D01*
X94603072Y-55786000D01*
X94081440Y-55682241D01*
X93590072Y-55478710D01*
X93590071Y-55478710D01*
X93590070Y-55478709D01*
X93147850Y-55183227D01*
X93147847Y-55183225D01*
X92771775Y-54807153D01*
X92707528Y-54711000D01*
X92476291Y-54364930D01*
X92434031Y-54262906D01*
X92272759Y-53873560D01*
X92169000Y-53351928D01*
X92169000Y-52820072D01*
X92272759Y-52298440D01*
X92476290Y-51807072D01*
X92771775Y-51364847D01*
X93147847Y-50988775D01*
X93570264Y-50706525D01*
X93590070Y-50693291D01*
X93630916Y-50676372D01*
X94081440Y-50489759D01*
X94603072Y-50386000D01*
X95134928Y-50386000D01*
X95656560Y-50489759D01*
X95656560Y-50489759D01*
G37*
G36*
X184175560Y-50489759D02*
X184626084Y-50676372D01*
X184666930Y-50693291D01*
X184686736Y-50706525D01*
X185109153Y-50988775D01*
X185485225Y-51364847D01*
X185780710Y-51807072D01*
X185984241Y-52298440D01*
X186088000Y-52820072D01*
X186088000Y-53351928D01*
X185984241Y-53873560D01*
X185822969Y-54262906D01*
X185780709Y-54364930D01*
X185549472Y-54711000D01*
X185485225Y-54807153D01*
X185109153Y-55183225D01*
X185109150Y-55183227D01*
X184666930Y-55478709D01*
X184666929Y-55478710D01*
X184666928Y-55478710D01*
X184175560Y-55682241D01*
X183653928Y-55786000D01*
X183122072Y-55786000D01*
X182600440Y-55682241D01*
X182109072Y-55478710D01*
X182109071Y-55478710D01*
X182109070Y-55478709D01*
X181666850Y-55183227D01*
X181666847Y-55183225D01*
X181290775Y-54807153D01*
X181226528Y-54711000D01*
X180995291Y-54364930D01*
X180953031Y-54262906D01*
X180791759Y-53873560D01*
X180688000Y-53351928D01*
X180688000Y-52820072D01*
X180791759Y-52298440D01*
X180995290Y-51807072D01*
X181290775Y-51364847D01*
X181666847Y-50988775D01*
X182089264Y-50706525D01*
X182109070Y-50693291D01*
X182149916Y-50676372D01*
X182600440Y-50489759D01*
X183122072Y-50386000D01*
X183653928Y-50386000D01*
X184175560Y-50489759D01*
X184175560Y-50489759D01*
G37*
G36*
X111935770Y-53625372D02*
X112051689Y-53648429D01*
X112233678Y-53723811D01*
X112397463Y-53833249D01*
X112536751Y-53972537D01*
X112646189Y-54136322D01*
X112721571Y-54318311D01*
X112730844Y-54364930D01*
X112760000Y-54511507D01*
X112760000Y-54708493D01*
X112750446Y-54756525D01*
X112721571Y-54901689D01*
X112646189Y-55083678D01*
X112536751Y-55247463D01*
X112397463Y-55386751D01*
X112233678Y-55496189D01*
X112051689Y-55571571D01*
X111935770Y-55594628D01*
X111858493Y-55610000D01*
X111661507Y-55610000D01*
X111584230Y-55594628D01*
X111468311Y-55571571D01*
X111286322Y-55496189D01*
X111122537Y-55386751D01*
X110983249Y-55247463D01*
X110873811Y-55083678D01*
X110798429Y-54901689D01*
X110769554Y-54756525D01*
X110760000Y-54708493D01*
X110760000Y-54511507D01*
X110789156Y-54364930D01*
X110798429Y-54318311D01*
X110873811Y-54136322D01*
X110983249Y-53972537D01*
X111122537Y-53833249D01*
X111286322Y-53723811D01*
X111468311Y-53648429D01*
X111584230Y-53625372D01*
X111661507Y-53610000D01*
X111858493Y-53610000D01*
X111935770Y-53625372D01*
X111935770Y-53625372D01*
G37*
G36*
X101775770Y-53625372D02*
X101891689Y-53648429D01*
X102073678Y-53723811D01*
X102237463Y-53833249D01*
X102376751Y-53972537D01*
X102486189Y-54136322D01*
X102561571Y-54318311D01*
X102570844Y-54364930D01*
X102600000Y-54511507D01*
X102600000Y-54708493D01*
X102590446Y-54756525D01*
X102561571Y-54901689D01*
X102486189Y-55083678D01*
X102376751Y-55247463D01*
X102237463Y-55386751D01*
X102073678Y-55496189D01*
X101891689Y-55571571D01*
X101775770Y-55594628D01*
X101698493Y-55610000D01*
X101501507Y-55610000D01*
X101424230Y-55594628D01*
X101308311Y-55571571D01*
X101126322Y-55496189D01*
X100962537Y-55386751D01*
X100823249Y-55247463D01*
X100713811Y-55083678D01*
X100638429Y-54901689D01*
X100609554Y-54756525D01*
X100600000Y-54708493D01*
X100600000Y-54511507D01*
X100629156Y-54364930D01*
X100638429Y-54318311D01*
X100713811Y-54136322D01*
X100823249Y-53972537D01*
X100962537Y-53833249D01*
X101126322Y-53723811D01*
X101308311Y-53648429D01*
X101424230Y-53625372D01*
X101501507Y-53610000D01*
X101698493Y-53610000D01*
X101775770Y-53625372D01*
X101775770Y-53625372D01*
G37*
G36*
X106855770Y-53625372D02*
X106971689Y-53648429D01*
X107153678Y-53723811D01*
X107317463Y-53833249D01*
X107456751Y-53972537D01*
X107566189Y-54136322D01*
X107641571Y-54318311D01*
X107650844Y-54364930D01*
X107680000Y-54511507D01*
X107680000Y-54708493D01*
X107670446Y-54756525D01*
X107641571Y-54901689D01*
X107566189Y-55083678D01*
X107456751Y-55247463D01*
X107317463Y-55386751D01*
X107153678Y-55496189D01*
X106971689Y-55571571D01*
X106855770Y-55594628D01*
X106778493Y-55610000D01*
X106581507Y-55610000D01*
X106504230Y-55594628D01*
X106388311Y-55571571D01*
X106206322Y-55496189D01*
X106042537Y-55386751D01*
X105903249Y-55247463D01*
X105793811Y-55083678D01*
X105718429Y-54901689D01*
X105689554Y-54756525D01*
X105680000Y-54708493D01*
X105680000Y-54511507D01*
X105709156Y-54364930D01*
X105718429Y-54318311D01*
X105793811Y-54136322D01*
X105903249Y-53972537D01*
X106042537Y-53833249D01*
X106206322Y-53723811D01*
X106388311Y-53648429D01*
X106504230Y-53625372D01*
X106581507Y-53610000D01*
X106778493Y-53610000D01*
X106855770Y-53625372D01*
X106855770Y-53625372D01*
G37*
M02*
