G04 #@! TF.GenerationSoftware,KiCad,Pcbnew,5.0.2-bee76a0~70~ubuntu18.04.1*
G04 #@! TF.CreationDate,2019-06-19T23:08:53-07:00*
G04 #@! TF.ProjectId,aa-stalk-receiver-lvds,61612d73-7461-46c6-9b2d-726563656976,rev?*
G04 #@! TF.SameCoordinates,Original*
G04 #@! TF.FileFunction,Soldermask,Bot*
G04 #@! TF.FilePolarity,Negative*
%FSLAX46Y46*%
G04 Gerber Fmt 4.6, Leading zero omitted, Abs format (unit mm)*
G04 Created by KiCad (PCBNEW 5.0.2-bee76a0~70~ubuntu18.04.1) date Wed 19 Jun 2019 11:08:53 PM PDT*
%MOMM*%
%LPD*%
G01*
G04 APERTURE LIST*
%ADD10C,0.100000*%
G04 APERTURE END LIST*
D10*
G36*
X184175560Y-98622759D02*
X184626084Y-98809372D01*
X184666930Y-98826291D01*
X184686736Y-98839525D01*
X185109153Y-99121775D01*
X185485225Y-99497847D01*
X185485227Y-99497850D01*
X185509167Y-99533678D01*
X185780710Y-99940072D01*
X185984241Y-100431440D01*
X186088000Y-100953072D01*
X186088000Y-101484928D01*
X185984241Y-102006560D01*
X185780710Y-102497928D01*
X185485225Y-102940153D01*
X185109153Y-103316225D01*
X185109150Y-103316227D01*
X184666930Y-103611709D01*
X184666929Y-103611710D01*
X184666928Y-103611710D01*
X184175560Y-103815241D01*
X183653928Y-103919000D01*
X183122072Y-103919000D01*
X182600440Y-103815241D01*
X182109072Y-103611710D01*
X182109071Y-103611710D01*
X182109070Y-103611709D01*
X181666850Y-103316227D01*
X181666847Y-103316225D01*
X181290775Y-102940153D01*
X180995290Y-102497928D01*
X180791759Y-102006560D01*
X180688000Y-101484928D01*
X180688000Y-100953072D01*
X180791759Y-100431440D01*
X180995290Y-99940072D01*
X181266834Y-99533678D01*
X181290773Y-99497850D01*
X181290775Y-99497847D01*
X181666847Y-99121775D01*
X182089264Y-98839525D01*
X182109070Y-98826291D01*
X182149916Y-98809372D01*
X182600440Y-98622759D01*
X183122072Y-98519000D01*
X183653928Y-98519000D01*
X184175560Y-98622759D01*
X184175560Y-98622759D01*
G37*
G36*
X95656560Y-98622759D02*
X96107084Y-98809372D01*
X96147930Y-98826291D01*
X96167736Y-98839525D01*
X96590153Y-99121775D01*
X96966225Y-99497847D01*
X96966227Y-99497850D01*
X96990167Y-99533678D01*
X97261710Y-99940072D01*
X97465241Y-100431440D01*
X97569000Y-100953072D01*
X97569000Y-101484928D01*
X97465241Y-102006560D01*
X97261710Y-102497928D01*
X96966225Y-102940153D01*
X96590153Y-103316225D01*
X96590150Y-103316227D01*
X96147930Y-103611709D01*
X96147929Y-103611710D01*
X96147928Y-103611710D01*
X95656560Y-103815241D01*
X95134928Y-103919000D01*
X94603072Y-103919000D01*
X94081440Y-103815241D01*
X93590072Y-103611710D01*
X93590071Y-103611710D01*
X93590070Y-103611709D01*
X93147850Y-103316227D01*
X93147847Y-103316225D01*
X92771775Y-102940153D01*
X92476290Y-102497928D01*
X92272759Y-102006560D01*
X92169000Y-101484928D01*
X92169000Y-100953072D01*
X92272759Y-100431440D01*
X92476290Y-99940072D01*
X92747834Y-99533678D01*
X92771773Y-99497850D01*
X92771775Y-99497847D01*
X93147847Y-99121775D01*
X93570264Y-98839525D01*
X93590070Y-98826291D01*
X93630916Y-98809372D01*
X94081440Y-98622759D01*
X94603072Y-98519000D01*
X95134928Y-98519000D01*
X95656560Y-98622759D01*
X95656560Y-98622759D01*
G37*
G36*
X150035770Y-98075372D02*
X150151689Y-98098429D01*
X150333678Y-98173811D01*
X150497463Y-98283249D01*
X150636751Y-98422537D01*
X150746189Y-98586322D01*
X150821571Y-98768311D01*
X150860000Y-98961509D01*
X150860000Y-99158491D01*
X150821571Y-99351689D01*
X150746189Y-99533678D01*
X150636751Y-99697463D01*
X150497463Y-99836751D01*
X150333678Y-99946189D01*
X150151689Y-100021571D01*
X150035770Y-100044628D01*
X149958493Y-100060000D01*
X149761507Y-100060000D01*
X149684230Y-100044628D01*
X149568311Y-100021571D01*
X149386322Y-99946189D01*
X149222537Y-99836751D01*
X149083249Y-99697463D01*
X148973811Y-99533678D01*
X148898429Y-99351689D01*
X148860000Y-99158491D01*
X148860000Y-98961509D01*
X148898429Y-98768311D01*
X148973811Y-98586322D01*
X149083249Y-98422537D01*
X149222537Y-98283249D01*
X149386322Y-98173811D01*
X149568311Y-98098429D01*
X149684230Y-98075372D01*
X149761507Y-98060000D01*
X149958493Y-98060000D01*
X150035770Y-98075372D01*
X150035770Y-98075372D01*
G37*
G36*
X143685770Y-98075372D02*
X143801689Y-98098429D01*
X143983678Y-98173811D01*
X144147463Y-98283249D01*
X144286751Y-98422537D01*
X144396189Y-98586322D01*
X144471571Y-98768311D01*
X144510000Y-98961509D01*
X144510000Y-99158491D01*
X144471571Y-99351689D01*
X144396189Y-99533678D01*
X144286751Y-99697463D01*
X144147463Y-99836751D01*
X143983678Y-99946189D01*
X143801689Y-100021571D01*
X143685770Y-100044628D01*
X143608493Y-100060000D01*
X143411507Y-100060000D01*
X143334230Y-100044628D01*
X143218311Y-100021571D01*
X143036322Y-99946189D01*
X142872537Y-99836751D01*
X142733249Y-99697463D01*
X142623811Y-99533678D01*
X142548429Y-99351689D01*
X142510000Y-99158491D01*
X142510000Y-98961509D01*
X142548429Y-98768311D01*
X142623811Y-98586322D01*
X142733249Y-98422537D01*
X142872537Y-98283249D01*
X143036322Y-98173811D01*
X143218311Y-98098429D01*
X143334230Y-98075372D01*
X143411507Y-98060000D01*
X143608493Y-98060000D01*
X143685770Y-98075372D01*
X143685770Y-98075372D01*
G37*
G36*
X162735770Y-98075372D02*
X162851689Y-98098429D01*
X163033678Y-98173811D01*
X163197463Y-98283249D01*
X163336751Y-98422537D01*
X163446189Y-98586322D01*
X163521571Y-98768311D01*
X163560000Y-98961509D01*
X163560000Y-99158491D01*
X163521571Y-99351689D01*
X163446189Y-99533678D01*
X163336751Y-99697463D01*
X163197463Y-99836751D01*
X163033678Y-99946189D01*
X162851689Y-100021571D01*
X162735770Y-100044628D01*
X162658493Y-100060000D01*
X162461507Y-100060000D01*
X162384230Y-100044628D01*
X162268311Y-100021571D01*
X162086322Y-99946189D01*
X161922537Y-99836751D01*
X161783249Y-99697463D01*
X161673811Y-99533678D01*
X161598429Y-99351689D01*
X161560000Y-99158491D01*
X161560000Y-98961509D01*
X161598429Y-98768311D01*
X161673811Y-98586322D01*
X161783249Y-98422537D01*
X161922537Y-98283249D01*
X162086322Y-98173811D01*
X162268311Y-98098429D01*
X162384230Y-98075372D01*
X162461507Y-98060000D01*
X162658493Y-98060000D01*
X162735770Y-98075372D01*
X162735770Y-98075372D01*
G37*
G36*
X156385770Y-98075372D02*
X156501689Y-98098429D01*
X156683678Y-98173811D01*
X156847463Y-98283249D01*
X156986751Y-98422537D01*
X157096189Y-98586322D01*
X157171571Y-98768311D01*
X157210000Y-98961509D01*
X157210000Y-99158491D01*
X157171571Y-99351689D01*
X157096189Y-99533678D01*
X156986751Y-99697463D01*
X156847463Y-99836751D01*
X156683678Y-99946189D01*
X156501689Y-100021571D01*
X156385770Y-100044628D01*
X156308493Y-100060000D01*
X156111507Y-100060000D01*
X156034230Y-100044628D01*
X155918311Y-100021571D01*
X155736322Y-99946189D01*
X155572537Y-99836751D01*
X155433249Y-99697463D01*
X155323811Y-99533678D01*
X155248429Y-99351689D01*
X155210000Y-99158491D01*
X155210000Y-98961509D01*
X155248429Y-98768311D01*
X155323811Y-98586322D01*
X155433249Y-98422537D01*
X155572537Y-98283249D01*
X155736322Y-98173811D01*
X155918311Y-98098429D01*
X156034230Y-98075372D01*
X156111507Y-98060000D01*
X156308493Y-98060000D01*
X156385770Y-98075372D01*
X156385770Y-98075372D01*
G37*
G36*
X110963992Y-95587447D02*
X110963994Y-95587448D01*
X110963995Y-95587448D01*
X111259726Y-95709943D01*
X111259727Y-95709944D01*
X111525880Y-95887782D01*
X111752218Y-96114120D01*
X111752220Y-96114123D01*
X111930057Y-96380274D01*
X112052552Y-96676005D01*
X112115000Y-96989951D01*
X112115000Y-97310049D01*
X112052552Y-97623995D01*
X111930057Y-97919726D01*
X111810651Y-98098429D01*
X111752218Y-98185880D01*
X111525880Y-98412218D01*
X111525877Y-98412220D01*
X111259726Y-98590057D01*
X110963995Y-98712552D01*
X110963994Y-98712552D01*
X110963992Y-98712553D01*
X110650050Y-98775000D01*
X110329950Y-98775000D01*
X110016008Y-98712553D01*
X110016006Y-98712552D01*
X110016005Y-98712552D01*
X109720274Y-98590057D01*
X109454123Y-98412220D01*
X109454120Y-98412218D01*
X109227782Y-98185880D01*
X109169349Y-98098429D01*
X109049943Y-97919726D01*
X108927448Y-97623995D01*
X108865000Y-97310049D01*
X108865000Y-96989951D01*
X108927448Y-96676005D01*
X109049943Y-96380274D01*
X109227780Y-96114123D01*
X109227782Y-96114120D01*
X109454120Y-95887782D01*
X109720273Y-95709944D01*
X109720274Y-95709943D01*
X110016005Y-95587448D01*
X110016006Y-95587448D01*
X110016008Y-95587447D01*
X110329950Y-95525000D01*
X110650050Y-95525000D01*
X110963992Y-95587447D01*
X110963992Y-95587447D01*
G37*
G36*
X117061683Y-94519206D02*
X117199992Y-94576495D01*
X117199995Y-94576497D01*
X117307595Y-94648393D01*
X117324476Y-94659673D01*
X117430327Y-94765524D01*
X117513505Y-94890008D01*
X117570794Y-95028317D01*
X117600000Y-95175145D01*
X117600000Y-95324855D01*
X117570794Y-95471683D01*
X117513505Y-95609992D01*
X117430327Y-95734476D01*
X117324476Y-95840327D01*
X117199992Y-95923505D01*
X117061683Y-95980794D01*
X116914855Y-96010000D01*
X116765145Y-96010000D01*
X116618317Y-95980794D01*
X116480008Y-95923505D01*
X116355524Y-95840327D01*
X116249673Y-95734476D01*
X116166495Y-95609992D01*
X116109206Y-95471683D01*
X116080000Y-95324855D01*
X116080000Y-95175145D01*
X116109206Y-95028317D01*
X116166495Y-94890008D01*
X116249673Y-94765524D01*
X116355524Y-94659673D01*
X116372406Y-94648393D01*
X116480005Y-94576497D01*
X116480008Y-94576495D01*
X116618317Y-94519206D01*
X116765145Y-94490000D01*
X116914855Y-94490000D01*
X117061683Y-94519206D01*
X117061683Y-94519206D01*
G37*
G36*
X96695770Y-92995372D02*
X96811689Y-93018429D01*
X96993678Y-93093811D01*
X97157463Y-93203249D01*
X97296751Y-93342537D01*
X97406189Y-93506322D01*
X97481571Y-93688311D01*
X97520000Y-93881509D01*
X97520000Y-94078491D01*
X97481571Y-94271689D01*
X97406189Y-94453678D01*
X97296751Y-94617463D01*
X97157463Y-94756751D01*
X96993678Y-94866189D01*
X96811689Y-94941571D01*
X96695770Y-94964628D01*
X96618493Y-94980000D01*
X96421507Y-94980000D01*
X96344230Y-94964628D01*
X96228311Y-94941571D01*
X96046322Y-94866189D01*
X95882537Y-94756751D01*
X95743249Y-94617463D01*
X95633811Y-94453678D01*
X95558429Y-94271689D01*
X95520000Y-94078491D01*
X95520000Y-93881509D01*
X95558429Y-93688311D01*
X95633811Y-93506322D01*
X95743249Y-93342537D01*
X95882537Y-93203249D01*
X96046322Y-93093811D01*
X96228311Y-93018429D01*
X96344230Y-92995372D01*
X96421507Y-92980000D01*
X96618493Y-92980000D01*
X96695770Y-92995372D01*
X96695770Y-92995372D01*
G37*
G36*
X150660000Y-94780000D02*
X149060000Y-94780000D01*
X149060000Y-93180000D01*
X150660000Y-93180000D01*
X150660000Y-94780000D01*
X150660000Y-94780000D01*
G37*
G36*
X157597649Y-93187717D02*
X157636827Y-93191576D01*
X157712227Y-93214448D01*
X157787629Y-93237321D01*
X157926608Y-93311608D01*
X158048422Y-93411578D01*
X158148392Y-93533392D01*
X158222679Y-93672371D01*
X158222679Y-93672372D01*
X158268424Y-93823173D01*
X158283870Y-93980000D01*
X158274170Y-94078491D01*
X158268424Y-94136826D01*
X158222679Y-94287629D01*
X158148392Y-94426608D01*
X158048422Y-94548422D01*
X157926608Y-94648392D01*
X157787629Y-94722679D01*
X157712228Y-94745551D01*
X157636827Y-94768424D01*
X157597649Y-94772283D01*
X157519295Y-94780000D01*
X157440705Y-94780000D01*
X157362351Y-94772283D01*
X157323173Y-94768424D01*
X157247772Y-94745551D01*
X157172371Y-94722679D01*
X157033392Y-94648392D01*
X156911578Y-94548422D01*
X156811608Y-94426608D01*
X156737321Y-94287629D01*
X156691576Y-94136826D01*
X156685831Y-94078491D01*
X156676130Y-93980000D01*
X156691576Y-93823173D01*
X156737321Y-93672372D01*
X156737321Y-93672371D01*
X156811608Y-93533392D01*
X156911578Y-93411578D01*
X157033392Y-93311608D01*
X157172371Y-93237321D01*
X157247773Y-93214448D01*
X157323173Y-93191576D01*
X157362351Y-93187717D01*
X157440705Y-93180000D01*
X157519295Y-93180000D01*
X157597649Y-93187717D01*
X157597649Y-93187717D01*
G37*
G36*
X119601683Y-93249206D02*
X119739992Y-93306495D01*
X119739995Y-93306497D01*
X119793933Y-93342537D01*
X119864476Y-93389673D01*
X119970327Y-93495524D01*
X120053505Y-93620008D01*
X120110794Y-93758317D01*
X120140000Y-93905145D01*
X120140000Y-94054855D01*
X120110794Y-94201683D01*
X120053505Y-94339992D01*
X119970327Y-94464476D01*
X119864476Y-94570327D01*
X119864473Y-94570329D01*
X119864472Y-94570330D01*
X119793928Y-94617466D01*
X119739992Y-94653505D01*
X119601683Y-94710794D01*
X119454855Y-94740000D01*
X119305145Y-94740000D01*
X119158317Y-94710794D01*
X119020008Y-94653505D01*
X118966072Y-94617466D01*
X118895528Y-94570330D01*
X118895527Y-94570329D01*
X118895524Y-94570327D01*
X118789673Y-94464476D01*
X118706495Y-94339992D01*
X118649206Y-94201683D01*
X118620000Y-94054855D01*
X118620000Y-93905145D01*
X118649206Y-93758317D01*
X118706495Y-93620008D01*
X118789673Y-93495524D01*
X118895524Y-93389673D01*
X118966068Y-93342537D01*
X119020005Y-93306497D01*
X119020008Y-93306495D01*
X119158317Y-93249206D01*
X119305145Y-93220000D01*
X119454855Y-93220000D01*
X119601683Y-93249206D01*
X119601683Y-93249206D01*
G37*
G36*
X117061683Y-91979206D02*
X117199992Y-92036495D01*
X117324476Y-92119673D01*
X117430327Y-92225524D01*
X117513505Y-92350008D01*
X117570794Y-92488317D01*
X117600000Y-92635145D01*
X117600000Y-92784855D01*
X117570794Y-92931683D01*
X117513505Y-93069992D01*
X117430327Y-93194476D01*
X117324476Y-93300327D01*
X117324473Y-93300329D01*
X117324472Y-93300330D01*
X117307593Y-93311608D01*
X117199992Y-93383505D01*
X117061683Y-93440794D01*
X116914855Y-93470000D01*
X116765145Y-93470000D01*
X116618317Y-93440794D01*
X116480008Y-93383505D01*
X116372407Y-93311608D01*
X116355528Y-93300330D01*
X116355527Y-93300329D01*
X116355524Y-93300327D01*
X116249673Y-93194476D01*
X116166495Y-93069992D01*
X116109206Y-92931683D01*
X116080000Y-92784855D01*
X116080000Y-92635145D01*
X116109206Y-92488317D01*
X116166495Y-92350008D01*
X116249673Y-92225524D01*
X116355524Y-92119673D01*
X116480008Y-92036495D01*
X116618317Y-91979206D01*
X116765145Y-91950000D01*
X116914855Y-91950000D01*
X117061683Y-91979206D01*
X117061683Y-91979206D01*
G37*
G36*
X119601683Y-90709206D02*
X119739992Y-90766495D01*
X119739995Y-90766497D01*
X119847595Y-90838393D01*
X119864476Y-90849673D01*
X119970327Y-90955524D01*
X120053505Y-91080008D01*
X120110794Y-91218317D01*
X120140000Y-91365145D01*
X120140000Y-91514855D01*
X120110794Y-91661683D01*
X120053505Y-91799992D01*
X119970327Y-91924476D01*
X119864476Y-92030327D01*
X119739992Y-92113505D01*
X119601683Y-92170794D01*
X119454855Y-92200000D01*
X119305145Y-92200000D01*
X119158317Y-92170794D01*
X119020008Y-92113505D01*
X118895524Y-92030327D01*
X118789673Y-91924476D01*
X118706495Y-91799992D01*
X118649206Y-91661683D01*
X118620000Y-91514855D01*
X118620000Y-91365145D01*
X118649206Y-91218317D01*
X118706495Y-91080008D01*
X118789673Y-90955524D01*
X118895524Y-90849673D01*
X118912406Y-90838393D01*
X119020005Y-90766497D01*
X119020008Y-90766495D01*
X119158317Y-90709206D01*
X119305145Y-90680000D01*
X119454855Y-90680000D01*
X119601683Y-90709206D01*
X119601683Y-90709206D01*
G37*
G36*
X149977649Y-89377717D02*
X150016827Y-89381576D01*
X150092228Y-89404449D01*
X150167629Y-89427321D01*
X150306608Y-89501608D01*
X150428422Y-89601578D01*
X150528392Y-89723392D01*
X150602679Y-89862371D01*
X150648424Y-90013174D01*
X150663870Y-90170000D01*
X150648424Y-90326826D01*
X150602679Y-90477629D01*
X150528392Y-90616608D01*
X150428422Y-90738422D01*
X150306608Y-90838392D01*
X150167629Y-90912679D01*
X150092227Y-90935552D01*
X150016827Y-90958424D01*
X149977649Y-90962283D01*
X149899295Y-90970000D01*
X149820705Y-90970000D01*
X149742351Y-90962283D01*
X149703173Y-90958424D01*
X149627773Y-90935552D01*
X149552371Y-90912679D01*
X149413392Y-90838392D01*
X149291578Y-90738422D01*
X149191608Y-90616608D01*
X149117321Y-90477629D01*
X149071576Y-90326826D01*
X149056130Y-90170000D01*
X149071576Y-90013174D01*
X149117321Y-89862371D01*
X149191608Y-89723392D01*
X149291578Y-89601578D01*
X149413392Y-89501608D01*
X149552371Y-89427321D01*
X149627772Y-89404449D01*
X149703173Y-89381576D01*
X149742351Y-89377717D01*
X149820705Y-89370000D01*
X149899295Y-89370000D01*
X149977649Y-89377717D01*
X149977649Y-89377717D01*
G37*
G36*
X158280000Y-90970000D02*
X156680000Y-90970000D01*
X156680000Y-89370000D01*
X158280000Y-89370000D01*
X158280000Y-90970000D01*
X158280000Y-90970000D01*
G37*
G36*
X117061683Y-89439206D02*
X117199992Y-89496495D01*
X117324476Y-89579673D01*
X117430326Y-89685523D01*
X117430328Y-89685526D01*
X117430330Y-89685528D01*
X117455631Y-89723394D01*
X117513505Y-89810008D01*
X117570794Y-89948317D01*
X117600000Y-90095145D01*
X117600000Y-90244855D01*
X117570794Y-90391683D01*
X117513505Y-90529992D01*
X117430327Y-90654476D01*
X117324476Y-90760327D01*
X117199992Y-90843505D01*
X117061683Y-90900794D01*
X116914855Y-90930000D01*
X116765145Y-90930000D01*
X116618317Y-90900794D01*
X116480008Y-90843505D01*
X116355524Y-90760327D01*
X116249673Y-90654476D01*
X116166495Y-90529992D01*
X116109206Y-90391683D01*
X116080000Y-90244855D01*
X116080000Y-90095145D01*
X116109206Y-89948317D01*
X116166495Y-89810008D01*
X116224369Y-89723394D01*
X116249670Y-89685528D01*
X116249672Y-89685526D01*
X116249674Y-89685523D01*
X116355524Y-89579673D01*
X116480008Y-89496495D01*
X116618317Y-89439206D01*
X116765145Y-89410000D01*
X116914855Y-89410000D01*
X117061683Y-89439206D01*
X117061683Y-89439206D01*
G37*
G36*
X96686630Y-88062299D02*
X96846855Y-88110903D01*
X96994520Y-88189831D01*
X97123949Y-88296051D01*
X97230169Y-88425480D01*
X97309097Y-88573145D01*
X97357701Y-88733370D01*
X97374112Y-88900000D01*
X97357701Y-89066630D01*
X97309097Y-89226855D01*
X97230169Y-89374520D01*
X97123949Y-89503949D01*
X96994520Y-89610169D01*
X96846855Y-89689097D01*
X96686630Y-89737701D01*
X96561752Y-89750000D01*
X96478248Y-89750000D01*
X96353370Y-89737701D01*
X96193145Y-89689097D01*
X96045480Y-89610169D01*
X95916051Y-89503949D01*
X95809831Y-89374520D01*
X95730903Y-89226855D01*
X95682299Y-89066630D01*
X95665888Y-88900000D01*
X95682299Y-88733370D01*
X95730903Y-88573145D01*
X95809831Y-88425480D01*
X95916051Y-88296051D01*
X96045480Y-88189831D01*
X96193145Y-88110903D01*
X96353370Y-88062299D01*
X96478248Y-88050000D01*
X96561752Y-88050000D01*
X96686630Y-88062299D01*
X96686630Y-88062299D01*
G37*
G36*
X120140000Y-89660000D02*
X118620000Y-89660000D01*
X118620000Y-88140000D01*
X120140000Y-88140000D01*
X120140000Y-89660000D01*
X120140000Y-89660000D01*
G37*
G36*
X110963992Y-85427447D02*
X110963994Y-85427448D01*
X110963995Y-85427448D01*
X111259726Y-85549943D01*
X111409218Y-85649831D01*
X111525880Y-85727782D01*
X111752218Y-85954120D01*
X111752220Y-85954123D01*
X111930057Y-86220274D01*
X111987933Y-86360000D01*
X112052553Y-86516008D01*
X112115000Y-86829950D01*
X112115000Y-87150050D01*
X112105522Y-87197701D01*
X112052552Y-87463995D01*
X111930057Y-87759726D01*
X111930056Y-87759727D01*
X111752218Y-88025880D01*
X111525880Y-88252218D01*
X111525877Y-88252220D01*
X111259726Y-88430057D01*
X110963995Y-88552552D01*
X110963994Y-88552552D01*
X110963992Y-88552553D01*
X110650050Y-88615000D01*
X110329950Y-88615000D01*
X110016008Y-88552553D01*
X110016006Y-88552552D01*
X110016005Y-88552552D01*
X109720274Y-88430057D01*
X109454123Y-88252220D01*
X109454120Y-88252218D01*
X109227782Y-88025880D01*
X109049944Y-87759727D01*
X109049943Y-87759726D01*
X108927448Y-87463995D01*
X108874479Y-87197701D01*
X108865000Y-87150050D01*
X108865000Y-86829950D01*
X108927447Y-86516008D01*
X108992067Y-86360000D01*
X109049943Y-86220274D01*
X109227780Y-85954123D01*
X109227782Y-85954120D01*
X109454120Y-85727782D01*
X109570782Y-85649831D01*
X109720274Y-85549943D01*
X110016005Y-85427448D01*
X110016006Y-85427448D01*
X110016008Y-85427447D01*
X110329950Y-85365000D01*
X110650050Y-85365000D01*
X110963992Y-85427447D01*
X110963992Y-85427447D01*
G37*
G36*
X96686630Y-85522299D02*
X96846855Y-85570903D01*
X96994520Y-85649831D01*
X97123949Y-85756051D01*
X97230169Y-85885480D01*
X97309097Y-86033145D01*
X97357701Y-86193370D01*
X97374112Y-86360000D01*
X97357701Y-86526630D01*
X97309097Y-86686855D01*
X97230169Y-86834520D01*
X97123949Y-86963949D01*
X96994520Y-87070169D01*
X96846855Y-87149097D01*
X96686630Y-87197701D01*
X96561752Y-87210000D01*
X96478248Y-87210000D01*
X96353370Y-87197701D01*
X96193145Y-87149097D01*
X96045480Y-87070169D01*
X95916051Y-86963949D01*
X95809831Y-86834520D01*
X95730903Y-86686855D01*
X95682299Y-86526630D01*
X95665888Y-86360000D01*
X95682299Y-86193370D01*
X95730903Y-86033145D01*
X95809831Y-85885480D01*
X95916051Y-85756051D01*
X96045480Y-85649831D01*
X96193145Y-85570903D01*
X96353370Y-85522299D01*
X96478248Y-85510000D01*
X96561752Y-85510000D01*
X96686630Y-85522299D01*
X96686630Y-85522299D01*
G37*
G36*
X157597649Y-84297717D02*
X157636827Y-84301576D01*
X157712227Y-84324448D01*
X157787629Y-84347321D01*
X157926608Y-84421608D01*
X158048422Y-84521578D01*
X158148392Y-84643392D01*
X158222679Y-84782371D01*
X158268424Y-84933174D01*
X158283870Y-85090000D01*
X158268424Y-85246826D01*
X158222679Y-85397629D01*
X158148392Y-85536608D01*
X158048422Y-85658422D01*
X157926608Y-85758392D01*
X157787629Y-85832679D01*
X157712228Y-85855551D01*
X157636827Y-85878424D01*
X157597649Y-85882283D01*
X157519295Y-85890000D01*
X157440705Y-85890000D01*
X157362351Y-85882283D01*
X157323173Y-85878424D01*
X157247772Y-85855551D01*
X157172371Y-85832679D01*
X157033392Y-85758392D01*
X156911578Y-85658422D01*
X156811608Y-85536608D01*
X156737321Y-85397629D01*
X156691576Y-85246826D01*
X156676130Y-85090000D01*
X156691576Y-84933174D01*
X156737321Y-84782371D01*
X156811608Y-84643392D01*
X156911578Y-84521578D01*
X157033392Y-84421608D01*
X157172371Y-84347321D01*
X157247773Y-84324448D01*
X157323173Y-84301576D01*
X157362351Y-84297717D01*
X157440705Y-84290000D01*
X157519295Y-84290000D01*
X157597649Y-84297717D01*
X157597649Y-84297717D01*
G37*
G36*
X150660000Y-85890000D02*
X149060000Y-85890000D01*
X149060000Y-84290000D01*
X150660000Y-84290000D01*
X150660000Y-85890000D01*
X150660000Y-85890000D01*
G37*
G36*
X96686630Y-82982299D02*
X96846855Y-83030903D01*
X96994520Y-83109831D01*
X97123949Y-83216051D01*
X97230169Y-83345480D01*
X97309097Y-83493145D01*
X97357701Y-83653370D01*
X97374112Y-83820000D01*
X97357701Y-83986630D01*
X97309097Y-84146855D01*
X97230169Y-84294520D01*
X97123949Y-84423949D01*
X96994520Y-84530169D01*
X96846855Y-84609097D01*
X96686630Y-84657701D01*
X96561752Y-84670000D01*
X96478248Y-84670000D01*
X96353370Y-84657701D01*
X96193145Y-84609097D01*
X96045480Y-84530169D01*
X95916051Y-84423949D01*
X95809831Y-84294520D01*
X95730903Y-84146855D01*
X95682299Y-83986630D01*
X95665888Y-83820000D01*
X95682299Y-83653370D01*
X95730903Y-83493145D01*
X95809831Y-83345480D01*
X95916051Y-83216051D01*
X96045480Y-83109831D01*
X96193145Y-83030903D01*
X96353370Y-82982299D01*
X96478248Y-82970000D01*
X96561752Y-82970000D01*
X96686630Y-82982299D01*
X96686630Y-82982299D01*
G37*
G36*
X97370000Y-82130000D02*
X95670000Y-82130000D01*
X95670000Y-80430000D01*
X97370000Y-80430000D01*
X97370000Y-82130000D01*
X97370000Y-82130000D01*
G37*
G36*
X149977649Y-80487717D02*
X150016827Y-80491576D01*
X150092227Y-80514448D01*
X150167629Y-80537321D01*
X150306608Y-80611608D01*
X150428422Y-80711578D01*
X150528392Y-80833392D01*
X150602679Y-80972371D01*
X150648424Y-81123174D01*
X150663870Y-81280000D01*
X150648424Y-81436826D01*
X150602679Y-81587629D01*
X150528392Y-81726608D01*
X150428422Y-81848422D01*
X150306608Y-81948392D01*
X150167629Y-82022679D01*
X150092227Y-82045552D01*
X150016827Y-82068424D01*
X149977649Y-82072283D01*
X149899295Y-82080000D01*
X149820705Y-82080000D01*
X149742351Y-82072283D01*
X149703173Y-82068424D01*
X149627773Y-82045552D01*
X149552371Y-82022679D01*
X149413392Y-81948392D01*
X149291578Y-81848422D01*
X149191608Y-81726608D01*
X149117321Y-81587629D01*
X149071576Y-81436826D01*
X149056130Y-81280000D01*
X149071576Y-81123174D01*
X149117321Y-80972371D01*
X149191608Y-80833392D01*
X149291578Y-80711578D01*
X149413392Y-80611608D01*
X149552371Y-80537321D01*
X149627773Y-80514448D01*
X149703173Y-80491576D01*
X149742351Y-80487717D01*
X149820705Y-80480000D01*
X149899295Y-80480000D01*
X149977649Y-80487717D01*
X149977649Y-80487717D01*
G37*
G36*
X158280000Y-82080000D02*
X156680000Y-82080000D01*
X156680000Y-80480000D01*
X158280000Y-80480000D01*
X158280000Y-82080000D01*
X158280000Y-82080000D01*
G37*
G36*
X127741352Y-79327743D02*
X127886941Y-79388048D01*
X128017973Y-79475601D01*
X128129399Y-79587027D01*
X128216952Y-79718059D01*
X128277257Y-79863648D01*
X128308000Y-80018205D01*
X128308000Y-80175795D01*
X128277257Y-80330352D01*
X128216952Y-80475941D01*
X128129399Y-80606973D01*
X128017973Y-80718399D01*
X127886941Y-80805952D01*
X127741352Y-80866257D01*
X127586795Y-80897000D01*
X127429205Y-80897000D01*
X127274648Y-80866257D01*
X127129059Y-80805952D01*
X126998027Y-80718399D01*
X126886601Y-80606973D01*
X126799048Y-80475941D01*
X126738743Y-80330352D01*
X126708000Y-80175795D01*
X126708000Y-80018205D01*
X126738743Y-79863648D01*
X126799048Y-79718059D01*
X126886601Y-79587027D01*
X126998027Y-79475601D01*
X127129059Y-79388048D01*
X127274648Y-79327743D01*
X127429205Y-79297000D01*
X127586795Y-79297000D01*
X127741352Y-79327743D01*
X127741352Y-79327743D01*
G37*
G36*
X128308000Y-78397000D02*
X126708000Y-78397000D01*
X126708000Y-76797000D01*
X128308000Y-76797000D01*
X128308000Y-78397000D01*
X128308000Y-78397000D01*
G37*
G36*
X96695770Y-75215372D02*
X96811689Y-75238429D01*
X96993678Y-75313811D01*
X97157463Y-75423249D01*
X97296751Y-75562537D01*
X97406189Y-75726322D01*
X97481571Y-75908311D01*
X97520000Y-76101509D01*
X97520000Y-76298491D01*
X97481571Y-76491689D01*
X97406189Y-76673678D01*
X97296751Y-76837463D01*
X97157463Y-76976751D01*
X96993678Y-77086189D01*
X96811689Y-77161571D01*
X96695770Y-77184628D01*
X96618493Y-77200000D01*
X96421507Y-77200000D01*
X96344230Y-77184628D01*
X96228311Y-77161571D01*
X96046322Y-77086189D01*
X95882537Y-76976751D01*
X95743249Y-76837463D01*
X95633811Y-76673678D01*
X95558429Y-76491689D01*
X95520000Y-76298491D01*
X95520000Y-76101509D01*
X95558429Y-75908311D01*
X95633811Y-75726322D01*
X95743249Y-75562537D01*
X95882537Y-75423249D01*
X96046322Y-75313811D01*
X96228311Y-75238429D01*
X96344230Y-75215372D01*
X96421507Y-75200000D01*
X96618493Y-75200000D01*
X96695770Y-75215372D01*
X96695770Y-75215372D01*
G37*
G36*
X119555770Y-72675372D02*
X119671689Y-72698429D01*
X119853678Y-72773811D01*
X120017463Y-72883249D01*
X120156751Y-73022537D01*
X120266189Y-73186322D01*
X120341571Y-73368311D01*
X120380000Y-73561509D01*
X120380000Y-73758491D01*
X120341571Y-73951689D01*
X120266189Y-74133678D01*
X120156751Y-74297463D01*
X120017463Y-74436751D01*
X119853678Y-74546189D01*
X119671689Y-74621571D01*
X119555770Y-74644628D01*
X119478493Y-74660000D01*
X119281507Y-74660000D01*
X119204230Y-74644628D01*
X119088311Y-74621571D01*
X118906322Y-74546189D01*
X118742537Y-74436751D01*
X118603249Y-74297463D01*
X118493811Y-74133678D01*
X118418429Y-73951689D01*
X118380000Y-73758491D01*
X118380000Y-73561509D01*
X118418429Y-73368311D01*
X118493811Y-73186322D01*
X118603249Y-73022537D01*
X118742537Y-72883249D01*
X118906322Y-72773811D01*
X119088311Y-72698429D01*
X119204230Y-72675372D01*
X119281507Y-72660000D01*
X119478493Y-72660000D01*
X119555770Y-72675372D01*
X119555770Y-72675372D01*
G37*
G36*
X175435770Y-71405372D02*
X175551689Y-71428429D01*
X175733678Y-71503811D01*
X175897463Y-71613249D01*
X176036751Y-71752537D01*
X176146189Y-71916322D01*
X176221571Y-72098311D01*
X176260000Y-72291509D01*
X176260000Y-72488491D01*
X176221571Y-72681689D01*
X176146189Y-72863678D01*
X176036751Y-73027463D01*
X175897463Y-73166751D01*
X175733678Y-73276189D01*
X175551689Y-73351571D01*
X175435770Y-73374628D01*
X175358493Y-73390000D01*
X175161507Y-73390000D01*
X175084230Y-73374628D01*
X174968311Y-73351571D01*
X174786322Y-73276189D01*
X174622537Y-73166751D01*
X174483249Y-73027463D01*
X174373811Y-72863678D01*
X174298429Y-72681689D01*
X174260000Y-72488491D01*
X174260000Y-72291509D01*
X174298429Y-72098311D01*
X174373811Y-71916322D01*
X174483249Y-71752537D01*
X174622537Y-71613249D01*
X174786322Y-71503811D01*
X174968311Y-71428429D01*
X175084230Y-71405372D01*
X175161507Y-71390000D01*
X175358493Y-71390000D01*
X175435770Y-71405372D01*
X175435770Y-71405372D01*
G37*
G36*
X96695770Y-70135372D02*
X96811689Y-70158429D01*
X96993678Y-70233811D01*
X97157463Y-70343249D01*
X97296751Y-70482537D01*
X97406189Y-70646322D01*
X97481571Y-70828311D01*
X97520000Y-71021509D01*
X97520000Y-71218491D01*
X97481571Y-71411689D01*
X97406189Y-71593678D01*
X97296751Y-71757463D01*
X97157463Y-71896751D01*
X96993678Y-72006189D01*
X96811689Y-72081571D01*
X96695770Y-72104628D01*
X96618493Y-72120000D01*
X96421507Y-72120000D01*
X96344230Y-72104628D01*
X96228311Y-72081571D01*
X96046322Y-72006189D01*
X95882537Y-71896751D01*
X95743249Y-71757463D01*
X95633811Y-71593678D01*
X95558429Y-71411689D01*
X95520000Y-71218491D01*
X95520000Y-71021509D01*
X95558429Y-70828311D01*
X95633811Y-70646322D01*
X95743249Y-70482537D01*
X95882537Y-70343249D01*
X96046322Y-70233811D01*
X96228311Y-70158429D01*
X96344230Y-70135372D01*
X96421507Y-70120000D01*
X96618493Y-70120000D01*
X96695770Y-70135372D01*
X96695770Y-70135372D01*
G37*
G36*
X119555770Y-67595372D02*
X119671689Y-67618429D01*
X119853678Y-67693811D01*
X120017463Y-67803249D01*
X120156751Y-67942537D01*
X120266189Y-68106322D01*
X120341571Y-68288311D01*
X120380000Y-68481509D01*
X120380000Y-68678491D01*
X120341571Y-68871689D01*
X120266189Y-69053678D01*
X120156751Y-69217463D01*
X120017463Y-69356751D01*
X119853678Y-69466189D01*
X119671689Y-69541571D01*
X119555770Y-69564628D01*
X119478493Y-69580000D01*
X119281507Y-69580000D01*
X119204230Y-69564628D01*
X119088311Y-69541571D01*
X118906322Y-69466189D01*
X118742537Y-69356751D01*
X118603249Y-69217463D01*
X118493811Y-69053678D01*
X118418429Y-68871689D01*
X118380000Y-68678491D01*
X118380000Y-68481509D01*
X118418429Y-68288311D01*
X118493811Y-68106322D01*
X118603249Y-67942537D01*
X118742537Y-67803249D01*
X118906322Y-67693811D01*
X119088311Y-67618429D01*
X119204230Y-67595372D01*
X119281507Y-67580000D01*
X119478493Y-67580000D01*
X119555770Y-67595372D01*
X119555770Y-67595372D01*
G37*
G36*
X175435770Y-66325372D02*
X175551689Y-66348429D01*
X175733678Y-66423811D01*
X175897463Y-66533249D01*
X176036751Y-66672537D01*
X176146189Y-66836322D01*
X176221571Y-67018311D01*
X176260000Y-67211509D01*
X176260000Y-67408491D01*
X176221571Y-67601689D01*
X176146189Y-67783678D01*
X176036751Y-67947463D01*
X175897463Y-68086751D01*
X175733678Y-68196189D01*
X175551689Y-68271571D01*
X175435770Y-68294628D01*
X175358493Y-68310000D01*
X175161507Y-68310000D01*
X175084230Y-68294628D01*
X174968311Y-68271571D01*
X174786322Y-68196189D01*
X174622537Y-68086751D01*
X174483249Y-67947463D01*
X174373811Y-67783678D01*
X174298429Y-67601689D01*
X174260000Y-67408491D01*
X174260000Y-67211509D01*
X174298429Y-67018311D01*
X174373811Y-66836322D01*
X174483249Y-66672537D01*
X174622537Y-66533249D01*
X174786322Y-66423811D01*
X174968311Y-66348429D01*
X175084230Y-66325372D01*
X175161507Y-66310000D01*
X175358493Y-66310000D01*
X175435770Y-66325372D01*
X175435770Y-66325372D01*
G37*
G36*
X96695770Y-65055372D02*
X96811689Y-65078429D01*
X96993678Y-65153811D01*
X97157463Y-65263249D01*
X97296751Y-65402537D01*
X97406189Y-65566322D01*
X97481571Y-65748311D01*
X97520000Y-65941509D01*
X97520000Y-66138491D01*
X97481571Y-66331689D01*
X97406189Y-66513678D01*
X97296751Y-66677463D01*
X97157463Y-66816751D01*
X96993678Y-66926189D01*
X96811689Y-67001571D01*
X96695770Y-67024628D01*
X96618493Y-67040000D01*
X96421507Y-67040000D01*
X96344230Y-67024628D01*
X96228311Y-67001571D01*
X96046322Y-66926189D01*
X95882537Y-66816751D01*
X95743249Y-66677463D01*
X95633811Y-66513678D01*
X95558429Y-66331689D01*
X95520000Y-66138491D01*
X95520000Y-65941509D01*
X95558429Y-65748311D01*
X95633811Y-65566322D01*
X95743249Y-65402537D01*
X95882537Y-65263249D01*
X96046322Y-65153811D01*
X96228311Y-65078429D01*
X96344230Y-65055372D01*
X96421507Y-65040000D01*
X96618493Y-65040000D01*
X96695770Y-65055372D01*
X96695770Y-65055372D01*
G37*
G36*
X141844989Y-60615538D02*
X141844991Y-60615539D01*
X141844992Y-60615539D01*
X142390909Y-60841665D01*
X142695266Y-61045030D01*
X142882225Y-61169952D01*
X143300048Y-61587775D01*
X143300050Y-61587778D01*
X143628335Y-62079091D01*
X143785818Y-62459289D01*
X143854462Y-62625011D01*
X143969740Y-63204550D01*
X143969740Y-63795449D01*
X143854461Y-64374992D01*
X143628335Y-64920909D01*
X143628334Y-64920910D01*
X143300048Y-65412225D01*
X142882225Y-65830048D01*
X142882222Y-65830050D01*
X142390909Y-66158335D01*
X141844992Y-66384461D01*
X141844991Y-66384461D01*
X141844989Y-66384462D01*
X141265450Y-66499740D01*
X140674550Y-66499740D01*
X140095011Y-66384462D01*
X140095009Y-66384461D01*
X140095008Y-66384461D01*
X139549091Y-66158335D01*
X139057778Y-65830050D01*
X139057775Y-65830048D01*
X138639952Y-65412225D01*
X138311666Y-64920910D01*
X138311665Y-64920909D01*
X138085539Y-64374992D01*
X137970260Y-63795449D01*
X137970260Y-63204550D01*
X138085538Y-62625011D01*
X138154182Y-62459289D01*
X138311665Y-62079091D01*
X138639950Y-61587778D01*
X138639952Y-61587775D01*
X139057775Y-61169952D01*
X139244734Y-61045030D01*
X139549091Y-60841665D01*
X140095008Y-60615539D01*
X140095009Y-60615539D01*
X140095011Y-60615538D01*
X140674550Y-60500260D01*
X141265450Y-60500260D01*
X141844989Y-60615538D01*
X141844989Y-60615538D01*
G37*
G36*
X151363352Y-60785743D02*
X151508941Y-60846048D01*
X151639973Y-60933601D01*
X151751399Y-61045027D01*
X151838952Y-61176059D01*
X151899257Y-61321648D01*
X151930000Y-61476205D01*
X151930000Y-61633795D01*
X151899257Y-61788352D01*
X151838952Y-61933941D01*
X151751399Y-62064973D01*
X151639973Y-62176399D01*
X151508941Y-62263952D01*
X151363352Y-62324257D01*
X151208795Y-62355000D01*
X151051205Y-62355000D01*
X150896648Y-62324257D01*
X150751059Y-62263952D01*
X150620027Y-62176399D01*
X150543388Y-62099760D01*
X150524446Y-62084214D01*
X150502835Y-62072663D01*
X150479386Y-62065550D01*
X150455000Y-62063148D01*
X150430614Y-62065550D01*
X150407165Y-62072663D01*
X150385554Y-62084214D01*
X150366612Y-62099760D01*
X150351066Y-62118702D01*
X150339515Y-62140313D01*
X150332402Y-62163762D01*
X150330000Y-62188148D01*
X150330000Y-62304732D01*
X150299257Y-62459289D01*
X150238952Y-62604878D01*
X150151399Y-62735910D01*
X150039973Y-62847336D01*
X149908941Y-62934889D01*
X149763352Y-62995194D01*
X149608795Y-63025937D01*
X149451205Y-63025937D01*
X149296648Y-62995194D01*
X149151059Y-62934889D01*
X149020027Y-62847336D01*
X148908601Y-62735910D01*
X148821048Y-62604878D01*
X148760743Y-62459289D01*
X148730000Y-62304732D01*
X148730000Y-62147142D01*
X148760743Y-61992585D01*
X148821048Y-61846996D01*
X148908601Y-61715964D01*
X149020027Y-61604538D01*
X149151059Y-61516985D01*
X149296648Y-61456680D01*
X149451205Y-61425937D01*
X149608795Y-61425937D01*
X149763352Y-61456680D01*
X149908941Y-61516985D01*
X150039973Y-61604538D01*
X150116612Y-61681177D01*
X150135554Y-61696723D01*
X150157165Y-61708274D01*
X150180614Y-61715387D01*
X150205000Y-61717789D01*
X150229386Y-61715387D01*
X150252835Y-61708274D01*
X150274446Y-61696723D01*
X150293388Y-61681177D01*
X150308934Y-61662235D01*
X150320485Y-61640624D01*
X150327598Y-61617175D01*
X150330000Y-61592789D01*
X150330000Y-61476205D01*
X150360743Y-61321648D01*
X150421048Y-61176059D01*
X150508601Y-61045027D01*
X150620027Y-60933601D01*
X150751059Y-60846048D01*
X150896648Y-60785743D01*
X151051205Y-60755000D01*
X151208795Y-60755000D01*
X151363352Y-60785743D01*
X151363352Y-60785743D01*
G37*
G36*
X96695770Y-59975372D02*
X96811689Y-59998429D01*
X96993678Y-60073811D01*
X97157463Y-60183249D01*
X97296751Y-60322537D01*
X97406189Y-60486322D01*
X97481571Y-60668311D01*
X97498814Y-60755000D01*
X97520000Y-60861507D01*
X97520000Y-61058493D01*
X97504628Y-61135770D01*
X97481571Y-61251689D01*
X97406189Y-61433678D01*
X97296751Y-61597463D01*
X97157463Y-61736751D01*
X96993678Y-61846189D01*
X96811689Y-61921571D01*
X96695770Y-61944628D01*
X96618493Y-61960000D01*
X96421507Y-61960000D01*
X96344230Y-61944628D01*
X96228311Y-61921571D01*
X96046322Y-61846189D01*
X95882537Y-61736751D01*
X95743249Y-61597463D01*
X95633811Y-61433678D01*
X95558429Y-61251689D01*
X95535372Y-61135770D01*
X95520000Y-61058493D01*
X95520000Y-60861507D01*
X95541186Y-60755000D01*
X95558429Y-60668311D01*
X95633811Y-60486322D01*
X95743249Y-60322537D01*
X95882537Y-60183249D01*
X96046322Y-60073811D01*
X96228311Y-59998429D01*
X96344230Y-59975372D01*
X96421507Y-59960000D01*
X96618493Y-59960000D01*
X96695770Y-59975372D01*
X96695770Y-59975372D01*
G37*
G36*
X118276630Y-60122299D02*
X118436855Y-60170903D01*
X118584520Y-60249831D01*
X118713949Y-60356051D01*
X118820169Y-60485480D01*
X118899097Y-60633145D01*
X118947701Y-60793370D01*
X118964112Y-60960000D01*
X118947701Y-61126630D01*
X118899097Y-61286855D01*
X118820169Y-61434520D01*
X118713949Y-61563949D01*
X118584520Y-61670169D01*
X118436855Y-61749097D01*
X118276630Y-61797701D01*
X118151752Y-61810000D01*
X118068248Y-61810000D01*
X117943370Y-61797701D01*
X117783145Y-61749097D01*
X117635480Y-61670169D01*
X117506051Y-61563949D01*
X117399831Y-61434520D01*
X117320903Y-61286855D01*
X117272299Y-61126630D01*
X117255888Y-60960000D01*
X117272299Y-60793370D01*
X117320903Y-60633145D01*
X117399831Y-60485480D01*
X117506051Y-60356051D01*
X117635480Y-60249831D01*
X117783145Y-60170903D01*
X117943370Y-60122299D01*
X118068248Y-60110000D01*
X118151752Y-60110000D01*
X118276630Y-60122299D01*
X118276630Y-60122299D01*
G37*
G36*
X133516630Y-60122299D02*
X133676855Y-60170903D01*
X133824520Y-60249831D01*
X133953949Y-60356051D01*
X134060169Y-60485480D01*
X134139097Y-60633145D01*
X134187701Y-60793370D01*
X134204112Y-60960000D01*
X134187701Y-61126630D01*
X134139097Y-61286855D01*
X134060169Y-61434520D01*
X133953949Y-61563949D01*
X133824520Y-61670169D01*
X133676855Y-61749097D01*
X133516630Y-61797701D01*
X133391752Y-61810000D01*
X133308248Y-61810000D01*
X133183370Y-61797701D01*
X133023145Y-61749097D01*
X132875480Y-61670169D01*
X132746051Y-61563949D01*
X132639831Y-61434520D01*
X132560903Y-61286855D01*
X132512299Y-61126630D01*
X132495888Y-60960000D01*
X132512299Y-60793370D01*
X132560903Y-60633145D01*
X132639831Y-60485480D01*
X132746051Y-60356051D01*
X132875480Y-60249831D01*
X133023145Y-60170903D01*
X133183370Y-60122299D01*
X133308248Y-60110000D01*
X133391752Y-60110000D01*
X133516630Y-60122299D01*
X133516630Y-60122299D01*
G37*
G36*
X128436630Y-60122299D02*
X128596855Y-60170903D01*
X128744520Y-60249831D01*
X128873949Y-60356051D01*
X128980169Y-60485480D01*
X129059097Y-60633145D01*
X129107701Y-60793370D01*
X129124112Y-60960000D01*
X129107701Y-61126630D01*
X129059097Y-61286855D01*
X128980169Y-61434520D01*
X128873949Y-61563949D01*
X128744520Y-61670169D01*
X128596855Y-61749097D01*
X128436630Y-61797701D01*
X128311752Y-61810000D01*
X128228248Y-61810000D01*
X128103370Y-61797701D01*
X127943145Y-61749097D01*
X127795480Y-61670169D01*
X127666051Y-61563949D01*
X127559831Y-61434520D01*
X127480903Y-61286855D01*
X127432299Y-61126630D01*
X127415888Y-60960000D01*
X127432299Y-60793370D01*
X127480903Y-60633145D01*
X127559831Y-60485480D01*
X127666051Y-60356051D01*
X127795480Y-60249831D01*
X127943145Y-60170903D01*
X128103370Y-60122299D01*
X128228248Y-60110000D01*
X128311752Y-60110000D01*
X128436630Y-60122299D01*
X128436630Y-60122299D01*
G37*
G36*
X123356630Y-60122299D02*
X123516855Y-60170903D01*
X123664520Y-60249831D01*
X123793949Y-60356051D01*
X123900169Y-60485480D01*
X123979097Y-60633145D01*
X124027701Y-60793370D01*
X124044112Y-60960000D01*
X124027701Y-61126630D01*
X123979097Y-61286855D01*
X123900169Y-61434520D01*
X123793949Y-61563949D01*
X123664520Y-61670169D01*
X123516855Y-61749097D01*
X123356630Y-61797701D01*
X123231752Y-61810000D01*
X123148248Y-61810000D01*
X123023370Y-61797701D01*
X122863145Y-61749097D01*
X122715480Y-61670169D01*
X122586051Y-61563949D01*
X122479831Y-61434520D01*
X122400903Y-61286855D01*
X122352299Y-61126630D01*
X122335888Y-60960000D01*
X122352299Y-60793370D01*
X122400903Y-60633145D01*
X122479831Y-60485480D01*
X122586051Y-60356051D01*
X122715480Y-60249831D01*
X122863145Y-60170903D01*
X123023370Y-60122299D01*
X123148248Y-60110000D01*
X123231752Y-60110000D01*
X123356630Y-60122299D01*
X123356630Y-60122299D01*
G37*
G36*
X153530000Y-59184063D02*
X152055000Y-59184063D01*
X152030614Y-59186465D01*
X152007165Y-59193578D01*
X151985554Y-59205129D01*
X151966612Y-59220675D01*
X151951066Y-59239617D01*
X151939515Y-59261228D01*
X151932402Y-59284677D01*
X151930000Y-59309063D01*
X151930000Y-59855000D01*
X150330000Y-59855000D01*
X150330000Y-58255000D01*
X151805000Y-58255000D01*
X151829386Y-58252598D01*
X151852835Y-58245485D01*
X151874446Y-58233934D01*
X151893388Y-58218388D01*
X151908934Y-58199446D01*
X151920485Y-58177835D01*
X151927598Y-58154386D01*
X151930000Y-58130000D01*
X151930000Y-57584063D01*
X153530000Y-57584063D01*
X153530000Y-59184063D01*
X153530000Y-59184063D01*
G37*
G36*
X160186630Y-57582299D02*
X160346855Y-57630903D01*
X160494520Y-57709831D01*
X160623949Y-57816051D01*
X160730169Y-57945480D01*
X160809097Y-58093145D01*
X160857701Y-58253370D01*
X160874112Y-58420000D01*
X160857701Y-58586630D01*
X160809097Y-58746855D01*
X160730169Y-58894520D01*
X160623949Y-59023949D01*
X160494520Y-59130169D01*
X160346855Y-59209097D01*
X160186630Y-59257701D01*
X160061752Y-59270000D01*
X159978248Y-59270000D01*
X159853370Y-59257701D01*
X159693145Y-59209097D01*
X159545480Y-59130169D01*
X159416051Y-59023949D01*
X159309831Y-58894520D01*
X159230903Y-58746855D01*
X159182299Y-58586630D01*
X159165888Y-58420000D01*
X159182299Y-58253370D01*
X159230903Y-58093145D01*
X159309831Y-57945480D01*
X159416051Y-57816051D01*
X159545480Y-57709831D01*
X159693145Y-57630903D01*
X159853370Y-57582299D01*
X159978248Y-57570000D01*
X160061752Y-57570000D01*
X160186630Y-57582299D01*
X160186630Y-57582299D01*
G37*
G36*
X175426630Y-57582299D02*
X175586855Y-57630903D01*
X175734520Y-57709831D01*
X175863949Y-57816051D01*
X175970169Y-57945480D01*
X176049097Y-58093145D01*
X176097701Y-58253370D01*
X176114112Y-58420000D01*
X176097701Y-58586630D01*
X176049097Y-58746855D01*
X175970169Y-58894520D01*
X175863949Y-59023949D01*
X175734520Y-59130169D01*
X175586855Y-59209097D01*
X175426630Y-59257701D01*
X175301752Y-59270000D01*
X175218248Y-59270000D01*
X175093370Y-59257701D01*
X174933145Y-59209097D01*
X174785480Y-59130169D01*
X174656051Y-59023949D01*
X174549831Y-58894520D01*
X174470903Y-58746855D01*
X174422299Y-58586630D01*
X174405888Y-58420000D01*
X174422299Y-58253370D01*
X174470903Y-58093145D01*
X174549831Y-57945480D01*
X174656051Y-57816051D01*
X174785480Y-57709831D01*
X174933145Y-57630903D01*
X175093370Y-57582299D01*
X175218248Y-57570000D01*
X175301752Y-57570000D01*
X175426630Y-57582299D01*
X175426630Y-57582299D01*
G37*
G36*
X170346630Y-57582299D02*
X170506855Y-57630903D01*
X170654520Y-57709831D01*
X170783949Y-57816051D01*
X170890169Y-57945480D01*
X170969097Y-58093145D01*
X171017701Y-58253370D01*
X171034112Y-58420000D01*
X171017701Y-58586630D01*
X170969097Y-58746855D01*
X170890169Y-58894520D01*
X170783949Y-59023949D01*
X170654520Y-59130169D01*
X170506855Y-59209097D01*
X170346630Y-59257701D01*
X170221752Y-59270000D01*
X170138248Y-59270000D01*
X170013370Y-59257701D01*
X169853145Y-59209097D01*
X169705480Y-59130169D01*
X169576051Y-59023949D01*
X169469831Y-58894520D01*
X169390903Y-58746855D01*
X169342299Y-58586630D01*
X169325888Y-58420000D01*
X169342299Y-58253370D01*
X169390903Y-58093145D01*
X169469831Y-57945480D01*
X169576051Y-57816051D01*
X169705480Y-57709831D01*
X169853145Y-57630903D01*
X170013370Y-57582299D01*
X170138248Y-57570000D01*
X170221752Y-57570000D01*
X170346630Y-57582299D01*
X170346630Y-57582299D01*
G37*
G36*
X165266630Y-57582299D02*
X165426855Y-57630903D01*
X165574520Y-57709831D01*
X165703949Y-57816051D01*
X165810169Y-57945480D01*
X165889097Y-58093145D01*
X165937701Y-58253370D01*
X165954112Y-58420000D01*
X165937701Y-58586630D01*
X165889097Y-58746855D01*
X165810169Y-58894520D01*
X165703949Y-59023949D01*
X165574520Y-59130169D01*
X165426855Y-59209097D01*
X165266630Y-59257701D01*
X165141752Y-59270000D01*
X165058248Y-59270000D01*
X164933370Y-59257701D01*
X164773145Y-59209097D01*
X164625480Y-59130169D01*
X164496051Y-59023949D01*
X164389831Y-58894520D01*
X164310903Y-58746855D01*
X164262299Y-58586630D01*
X164245888Y-58420000D01*
X164262299Y-58253370D01*
X164310903Y-58093145D01*
X164389831Y-57945480D01*
X164496051Y-57816051D01*
X164625480Y-57709831D01*
X164773145Y-57630903D01*
X164933370Y-57582299D01*
X165058248Y-57570000D01*
X165141752Y-57570000D01*
X165266630Y-57582299D01*
X165266630Y-57582299D01*
G37*
G36*
X118276630Y-57582299D02*
X118436855Y-57630903D01*
X118584520Y-57709831D01*
X118713949Y-57816051D01*
X118820169Y-57945480D01*
X118899097Y-58093145D01*
X118947701Y-58253370D01*
X118964112Y-58420000D01*
X118947701Y-58586630D01*
X118899097Y-58746855D01*
X118820169Y-58894520D01*
X118713949Y-59023949D01*
X118584520Y-59130169D01*
X118436855Y-59209097D01*
X118276630Y-59257701D01*
X118151752Y-59270000D01*
X118068248Y-59270000D01*
X117943370Y-59257701D01*
X117783145Y-59209097D01*
X117635480Y-59130169D01*
X117506051Y-59023949D01*
X117399831Y-58894520D01*
X117320903Y-58746855D01*
X117272299Y-58586630D01*
X117255888Y-58420000D01*
X117272299Y-58253370D01*
X117320903Y-58093145D01*
X117399831Y-57945480D01*
X117506051Y-57816051D01*
X117635480Y-57709831D01*
X117783145Y-57630903D01*
X117943370Y-57582299D01*
X118068248Y-57570000D01*
X118151752Y-57570000D01*
X118276630Y-57582299D01*
X118276630Y-57582299D01*
G37*
G36*
X128436630Y-57582299D02*
X128596855Y-57630903D01*
X128744520Y-57709831D01*
X128873949Y-57816051D01*
X128980169Y-57945480D01*
X129059097Y-58093145D01*
X129107701Y-58253370D01*
X129124112Y-58420000D01*
X129107701Y-58586630D01*
X129059097Y-58746855D01*
X128980169Y-58894520D01*
X128873949Y-59023949D01*
X128744520Y-59130169D01*
X128596855Y-59209097D01*
X128436630Y-59257701D01*
X128311752Y-59270000D01*
X128228248Y-59270000D01*
X128103370Y-59257701D01*
X127943145Y-59209097D01*
X127795480Y-59130169D01*
X127666051Y-59023949D01*
X127559831Y-58894520D01*
X127480903Y-58746855D01*
X127432299Y-58586630D01*
X127415888Y-58420000D01*
X127432299Y-58253370D01*
X127480903Y-58093145D01*
X127559831Y-57945480D01*
X127666051Y-57816051D01*
X127795480Y-57709831D01*
X127943145Y-57630903D01*
X128103370Y-57582299D01*
X128228248Y-57570000D01*
X128311752Y-57570000D01*
X128436630Y-57582299D01*
X128436630Y-57582299D01*
G37*
G36*
X123356630Y-57582299D02*
X123516855Y-57630903D01*
X123664520Y-57709831D01*
X123793949Y-57816051D01*
X123900169Y-57945480D01*
X123979097Y-58093145D01*
X124027701Y-58253370D01*
X124044112Y-58420000D01*
X124027701Y-58586630D01*
X123979097Y-58746855D01*
X123900169Y-58894520D01*
X123793949Y-59023949D01*
X123664520Y-59130169D01*
X123516855Y-59209097D01*
X123356630Y-59257701D01*
X123231752Y-59270000D01*
X123148248Y-59270000D01*
X123023370Y-59257701D01*
X122863145Y-59209097D01*
X122715480Y-59130169D01*
X122586051Y-59023949D01*
X122479831Y-58894520D01*
X122400903Y-58746855D01*
X122352299Y-58586630D01*
X122335888Y-58420000D01*
X122352299Y-58253370D01*
X122400903Y-58093145D01*
X122479831Y-57945480D01*
X122586051Y-57816051D01*
X122715480Y-57709831D01*
X122863145Y-57630903D01*
X123023370Y-57582299D01*
X123148248Y-57570000D01*
X123231752Y-57570000D01*
X123356630Y-57582299D01*
X123356630Y-57582299D01*
G37*
G36*
X134200000Y-59270000D02*
X132500000Y-59270000D01*
X132500000Y-57570000D01*
X134200000Y-57570000D01*
X134200000Y-59270000D01*
X134200000Y-59270000D01*
G37*
G36*
X143969740Y-58879740D02*
X137970260Y-58879740D01*
X137970260Y-52880260D01*
X143969740Y-52880260D01*
X143969740Y-58879740D01*
X143969740Y-58879740D01*
G37*
G36*
X160870000Y-56730000D02*
X159170000Y-56730000D01*
X159170000Y-55030000D01*
X160870000Y-55030000D01*
X160870000Y-56730000D01*
X160870000Y-56730000D01*
G37*
G36*
X176110000Y-56730000D02*
X174410000Y-56730000D01*
X174410000Y-55030000D01*
X176110000Y-55030000D01*
X176110000Y-56730000D01*
X176110000Y-56730000D01*
G37*
G36*
X171030000Y-56730000D02*
X169330000Y-56730000D01*
X169330000Y-55030000D01*
X171030000Y-55030000D01*
X171030000Y-56730000D01*
X171030000Y-56730000D01*
G37*
G36*
X165950000Y-56730000D02*
X164250000Y-56730000D01*
X164250000Y-55030000D01*
X165950000Y-55030000D01*
X165950000Y-56730000D01*
X165950000Y-56730000D01*
G37*
G36*
X129120000Y-56730000D02*
X127420000Y-56730000D01*
X127420000Y-55030000D01*
X129120000Y-55030000D01*
X129120000Y-56730000D01*
X129120000Y-56730000D01*
G37*
G36*
X124040000Y-56730000D02*
X122340000Y-56730000D01*
X122340000Y-55030000D01*
X124040000Y-55030000D01*
X124040000Y-56730000D01*
X124040000Y-56730000D01*
G37*
G36*
X118960000Y-56730000D02*
X117260000Y-56730000D01*
X117260000Y-55030000D01*
X118960000Y-55030000D01*
X118960000Y-56730000D01*
X118960000Y-56730000D01*
G37*
G36*
X184175560Y-50489759D02*
X184626084Y-50676372D01*
X184666930Y-50693291D01*
X184686736Y-50706525D01*
X185109153Y-50988775D01*
X185485225Y-51364847D01*
X185780710Y-51807072D01*
X185984241Y-52298440D01*
X186088000Y-52820072D01*
X186088000Y-53351928D01*
X185984241Y-53873560D01*
X185822969Y-54262906D01*
X185780709Y-54364930D01*
X185549472Y-54711000D01*
X185485225Y-54807153D01*
X185109153Y-55183225D01*
X185109150Y-55183227D01*
X184666930Y-55478709D01*
X184666929Y-55478710D01*
X184666928Y-55478710D01*
X184175560Y-55682241D01*
X183653928Y-55786000D01*
X183122072Y-55786000D01*
X182600440Y-55682241D01*
X182109072Y-55478710D01*
X182109071Y-55478710D01*
X182109070Y-55478709D01*
X181666850Y-55183227D01*
X181666847Y-55183225D01*
X181290775Y-54807153D01*
X181226528Y-54711000D01*
X180995291Y-54364930D01*
X180953031Y-54262906D01*
X180791759Y-53873560D01*
X180688000Y-53351928D01*
X180688000Y-52820072D01*
X180791759Y-52298440D01*
X180995290Y-51807072D01*
X181290775Y-51364847D01*
X181666847Y-50988775D01*
X182089264Y-50706525D01*
X182109070Y-50693291D01*
X182149916Y-50676372D01*
X182600440Y-50489759D01*
X183122072Y-50386000D01*
X183653928Y-50386000D01*
X184175560Y-50489759D01*
X184175560Y-50489759D01*
G37*
G36*
X95656560Y-50489759D02*
X96107084Y-50676372D01*
X96147930Y-50693291D01*
X96167736Y-50706525D01*
X96590153Y-50988775D01*
X96966225Y-51364847D01*
X97261710Y-51807072D01*
X97465241Y-52298440D01*
X97569000Y-52820072D01*
X97569000Y-53351928D01*
X97465241Y-53873560D01*
X97303969Y-54262906D01*
X97261709Y-54364930D01*
X97030472Y-54711000D01*
X96966225Y-54807153D01*
X96590153Y-55183225D01*
X96590150Y-55183227D01*
X96147930Y-55478709D01*
X96147929Y-55478710D01*
X96147928Y-55478710D01*
X95656560Y-55682241D01*
X95134928Y-55786000D01*
X94603072Y-55786000D01*
X94081440Y-55682241D01*
X93590072Y-55478710D01*
X93590071Y-55478710D01*
X93590070Y-55478709D01*
X93147850Y-55183227D01*
X93147847Y-55183225D01*
X92771775Y-54807153D01*
X92707528Y-54711000D01*
X92476291Y-54364930D01*
X92434031Y-54262906D01*
X92272759Y-53873560D01*
X92169000Y-53351928D01*
X92169000Y-52820072D01*
X92272759Y-52298440D01*
X92476290Y-51807072D01*
X92771775Y-51364847D01*
X93147847Y-50988775D01*
X93570264Y-50706525D01*
X93590070Y-50693291D01*
X93630916Y-50676372D01*
X94081440Y-50489759D01*
X94603072Y-50386000D01*
X95134928Y-50386000D01*
X95656560Y-50489759D01*
X95656560Y-50489759D01*
G37*
G36*
X101775770Y-53625372D02*
X101891689Y-53648429D01*
X102073678Y-53723811D01*
X102237463Y-53833249D01*
X102376751Y-53972537D01*
X102486189Y-54136322D01*
X102561571Y-54318311D01*
X102570844Y-54364930D01*
X102600000Y-54511507D01*
X102600000Y-54708493D01*
X102590446Y-54756525D01*
X102561571Y-54901689D01*
X102486189Y-55083678D01*
X102376751Y-55247463D01*
X102237463Y-55386751D01*
X102073678Y-55496189D01*
X101891689Y-55571571D01*
X101775770Y-55594628D01*
X101698493Y-55610000D01*
X101501507Y-55610000D01*
X101424230Y-55594628D01*
X101308311Y-55571571D01*
X101126322Y-55496189D01*
X100962537Y-55386751D01*
X100823249Y-55247463D01*
X100713811Y-55083678D01*
X100638429Y-54901689D01*
X100609554Y-54756525D01*
X100600000Y-54708493D01*
X100600000Y-54511507D01*
X100629156Y-54364930D01*
X100638429Y-54318311D01*
X100713811Y-54136322D01*
X100823249Y-53972537D01*
X100962537Y-53833249D01*
X101126322Y-53723811D01*
X101308311Y-53648429D01*
X101424230Y-53625372D01*
X101501507Y-53610000D01*
X101698493Y-53610000D01*
X101775770Y-53625372D01*
X101775770Y-53625372D01*
G37*
G36*
X106855770Y-53625372D02*
X106971689Y-53648429D01*
X107153678Y-53723811D01*
X107317463Y-53833249D01*
X107456751Y-53972537D01*
X107566189Y-54136322D01*
X107641571Y-54318311D01*
X107650844Y-54364930D01*
X107680000Y-54511507D01*
X107680000Y-54708493D01*
X107670446Y-54756525D01*
X107641571Y-54901689D01*
X107566189Y-55083678D01*
X107456751Y-55247463D01*
X107317463Y-55386751D01*
X107153678Y-55496189D01*
X106971689Y-55571571D01*
X106855770Y-55594628D01*
X106778493Y-55610000D01*
X106581507Y-55610000D01*
X106504230Y-55594628D01*
X106388311Y-55571571D01*
X106206322Y-55496189D01*
X106042537Y-55386751D01*
X105903249Y-55247463D01*
X105793811Y-55083678D01*
X105718429Y-54901689D01*
X105689554Y-54756525D01*
X105680000Y-54708493D01*
X105680000Y-54511507D01*
X105709156Y-54364930D01*
X105718429Y-54318311D01*
X105793811Y-54136322D01*
X105903249Y-53972537D01*
X106042537Y-53833249D01*
X106206322Y-53723811D01*
X106388311Y-53648429D01*
X106504230Y-53625372D01*
X106581507Y-53610000D01*
X106778493Y-53610000D01*
X106855770Y-53625372D01*
X106855770Y-53625372D01*
G37*
G36*
X111935770Y-53625372D02*
X112051689Y-53648429D01*
X112233678Y-53723811D01*
X112397463Y-53833249D01*
X112536751Y-53972537D01*
X112646189Y-54136322D01*
X112721571Y-54318311D01*
X112730844Y-54364930D01*
X112760000Y-54511507D01*
X112760000Y-54708493D01*
X112750446Y-54756525D01*
X112721571Y-54901689D01*
X112646189Y-55083678D01*
X112536751Y-55247463D01*
X112397463Y-55386751D01*
X112233678Y-55496189D01*
X112051689Y-55571571D01*
X111935770Y-55594628D01*
X111858493Y-55610000D01*
X111661507Y-55610000D01*
X111584230Y-55594628D01*
X111468311Y-55571571D01*
X111286322Y-55496189D01*
X111122537Y-55386751D01*
X110983249Y-55247463D01*
X110873811Y-55083678D01*
X110798429Y-54901689D01*
X110769554Y-54756525D01*
X110760000Y-54708493D01*
X110760000Y-54511507D01*
X110789156Y-54364930D01*
X110798429Y-54318311D01*
X110873811Y-54136322D01*
X110983249Y-53972537D01*
X111122537Y-53833249D01*
X111286322Y-53723811D01*
X111468311Y-53648429D01*
X111584230Y-53625372D01*
X111661507Y-53610000D01*
X111858493Y-53610000D01*
X111935770Y-53625372D01*
X111935770Y-53625372D01*
G37*
M02*
