G04 #@! TF.GenerationSoftware,KiCad,Pcbnew,5.0.2-bee76a0~70~ubuntu18.04.1*
G04 #@! TF.CreationDate,2019-06-21T08:31:23-07:00*
G04 #@! TF.ProjectId,aa-daughterboard-lvds,61612d64-6175-4676-9874-6572626f6172,rev?*
G04 #@! TF.SameCoordinates,Original*
G04 #@! TF.FileFunction,Legend,Bot*
G04 #@! TF.FilePolarity,Positive*
%FSLAX46Y46*%
G04 Gerber Fmt 4.6, Leading zero omitted, Abs format (unit mm)*
G04 Created by KiCad (PCBNEW 5.0.2-bee76a0~70~ubuntu18.04.1) date Fri 21 Jun 2019 08:31:23 AM PDT*
%MOMM*%
%LPD*%
G01*
G04 APERTURE LIST*
%ADD10C,0.101600*%
%ADD11C,0.120000*%
%ADD12C,0.150000*%
G04 APERTURE END LIST*
D10*
X210366428Y-66711285D02*
X210402714Y-66820142D01*
X210402714Y-67001571D01*
X210366428Y-67074142D01*
X210330142Y-67110428D01*
X210257571Y-67146714D01*
X210185000Y-67146714D01*
X210112428Y-67110428D01*
X210076142Y-67074142D01*
X210039857Y-67001571D01*
X210003571Y-66856428D01*
X209967285Y-66783857D01*
X209931000Y-66747571D01*
X209858428Y-66711285D01*
X209785857Y-66711285D01*
X209713285Y-66747571D01*
X209677000Y-66783857D01*
X209640714Y-66856428D01*
X209640714Y-67037857D01*
X209677000Y-67146714D01*
X210402714Y-67473285D02*
X209640714Y-67473285D01*
X209640714Y-67763571D01*
X209677000Y-67836142D01*
X209713285Y-67872428D01*
X209785857Y-67908714D01*
X209894714Y-67908714D01*
X209967285Y-67872428D01*
X210003571Y-67836142D01*
X210039857Y-67763571D01*
X210039857Y-67473285D01*
X204560714Y-62901285D02*
X203798714Y-62901285D01*
X203798714Y-63191571D01*
X203835000Y-63264142D01*
X203871285Y-63300428D01*
X203943857Y-63336714D01*
X204052714Y-63336714D01*
X204125285Y-63300428D01*
X204161571Y-63264142D01*
X204197857Y-63191571D01*
X204197857Y-62901285D01*
X204560714Y-63663285D02*
X203798714Y-63663285D01*
X204560714Y-64098714D01*
X203798714Y-64098714D01*
X204270428Y-67600285D02*
X204270428Y-68180857D01*
X204560714Y-67890571D02*
X203980142Y-67890571D01*
X203798714Y-68906571D02*
X203798714Y-68543714D01*
X204161571Y-68507428D01*
X204125285Y-68543714D01*
X204089000Y-68616285D01*
X204089000Y-68797714D01*
X204125285Y-68870285D01*
X204161571Y-68906571D01*
X204234142Y-68942857D01*
X204415571Y-68942857D01*
X204488142Y-68906571D01*
X204524428Y-68870285D01*
X204560714Y-68797714D01*
X204560714Y-68616285D01*
X204524428Y-68543714D01*
X204488142Y-68507428D01*
X203798714Y-69160571D02*
X204560714Y-69414571D01*
X203798714Y-69668571D01*
X204524428Y-65423142D02*
X204560714Y-65532000D01*
X204560714Y-65713428D01*
X204524428Y-65786000D01*
X204488142Y-65822285D01*
X204415571Y-65858571D01*
X204343000Y-65858571D01*
X204270428Y-65822285D01*
X204234142Y-65786000D01*
X204197857Y-65713428D01*
X204161571Y-65568285D01*
X204125285Y-65495714D01*
X204089000Y-65459428D01*
X204016428Y-65423142D01*
X203943857Y-65423142D01*
X203871285Y-65459428D01*
X203835000Y-65495714D01*
X203798714Y-65568285D01*
X203798714Y-65749714D01*
X203835000Y-65858571D01*
X204560714Y-66185142D02*
X203798714Y-66185142D01*
X204560714Y-66620571D01*
X203798714Y-66620571D01*
X210330142Y-64624857D02*
X210366428Y-64588571D01*
X210402714Y-64479714D01*
X210402714Y-64407142D01*
X210366428Y-64298285D01*
X210293857Y-64225714D01*
X210221285Y-64189428D01*
X210076142Y-64153142D01*
X209967285Y-64153142D01*
X209822142Y-64189428D01*
X209749571Y-64225714D01*
X209677000Y-64298285D01*
X209640714Y-64407142D01*
X209640714Y-64479714D01*
X209677000Y-64588571D01*
X209713285Y-64624857D01*
X210402714Y-64951428D02*
X209640714Y-64951428D01*
X209640714Y-65241714D01*
X209677000Y-65314285D01*
X209713285Y-65350571D01*
X209785857Y-65386857D01*
X209894714Y-65386857D01*
X209967285Y-65350571D01*
X210003571Y-65314285D01*
X210039857Y-65241714D01*
X210039857Y-64951428D01*
X209677000Y-61649428D02*
X209640714Y-61576857D01*
X209640714Y-61468000D01*
X209677000Y-61359142D01*
X209749571Y-61286571D01*
X209822142Y-61250285D01*
X209967285Y-61214000D01*
X210076142Y-61214000D01*
X210221285Y-61250285D01*
X210293857Y-61286571D01*
X210366428Y-61359142D01*
X210402714Y-61468000D01*
X210402714Y-61540571D01*
X210366428Y-61649428D01*
X210330142Y-61685714D01*
X210076142Y-61685714D01*
X210076142Y-61540571D01*
X210402714Y-62012285D02*
X209640714Y-62012285D01*
X210402714Y-62447714D01*
X209640714Y-62447714D01*
X210402714Y-62810571D02*
X209640714Y-62810571D01*
X209640714Y-62992000D01*
X209677000Y-63100857D01*
X209749571Y-63173428D01*
X209822142Y-63209714D01*
X209967285Y-63246000D01*
X210076142Y-63246000D01*
X210221285Y-63209714D01*
X210293857Y-63173428D01*
X210366428Y-63100857D01*
X210402714Y-62992000D01*
X210402714Y-62810571D01*
X210330142Y-82404857D02*
X210366428Y-82368571D01*
X210402714Y-82259714D01*
X210402714Y-82187142D01*
X210366428Y-82078285D01*
X210293857Y-82005714D01*
X210221285Y-81969428D01*
X210076142Y-81933142D01*
X209967285Y-81933142D01*
X209822142Y-81969428D01*
X209749571Y-82005714D01*
X209677000Y-82078285D01*
X209640714Y-82187142D01*
X209640714Y-82259714D01*
X209677000Y-82368571D01*
X209713285Y-82404857D01*
X210402714Y-82731428D02*
X209640714Y-82731428D01*
X209640714Y-83021714D01*
X209677000Y-83094285D01*
X209713285Y-83130571D01*
X209785857Y-83166857D01*
X209894714Y-83166857D01*
X209967285Y-83130571D01*
X210003571Y-83094285D01*
X210039857Y-83021714D01*
X210039857Y-82731428D01*
X210366428Y-84491285D02*
X210402714Y-84600142D01*
X210402714Y-84781571D01*
X210366428Y-84854142D01*
X210330142Y-84890428D01*
X210257571Y-84926714D01*
X210185000Y-84926714D01*
X210112428Y-84890428D01*
X210076142Y-84854142D01*
X210039857Y-84781571D01*
X210003571Y-84636428D01*
X209967285Y-84563857D01*
X209931000Y-84527571D01*
X209858428Y-84491285D01*
X209785857Y-84491285D01*
X209713285Y-84527571D01*
X209677000Y-84563857D01*
X209640714Y-84636428D01*
X209640714Y-84817857D01*
X209677000Y-84926714D01*
X210402714Y-85253285D02*
X209640714Y-85253285D01*
X209640714Y-85543571D01*
X209677000Y-85616142D01*
X209713285Y-85652428D01*
X209785857Y-85688714D01*
X209894714Y-85688714D01*
X209967285Y-85652428D01*
X210003571Y-85616142D01*
X210039857Y-85543571D01*
X210039857Y-85253285D01*
X204488142Y-81116714D02*
X204524428Y-81080428D01*
X204560714Y-80971571D01*
X204560714Y-80899000D01*
X204524428Y-80790142D01*
X204451857Y-80717571D01*
X204379285Y-80681285D01*
X204234142Y-80645000D01*
X204125285Y-80645000D01*
X203980142Y-80681285D01*
X203907571Y-80717571D01*
X203835000Y-80790142D01*
X203798714Y-80899000D01*
X203798714Y-80971571D01*
X203835000Y-81080428D01*
X203871285Y-81116714D01*
X204560714Y-81443285D02*
X203798714Y-81443285D01*
X204560714Y-81878714D01*
X203798714Y-81878714D01*
X209677000Y-79429428D02*
X209640714Y-79356857D01*
X209640714Y-79248000D01*
X209677000Y-79139142D01*
X209749571Y-79066571D01*
X209822142Y-79030285D01*
X209967285Y-78994000D01*
X210076142Y-78994000D01*
X210221285Y-79030285D01*
X210293857Y-79066571D01*
X210366428Y-79139142D01*
X210402714Y-79248000D01*
X210402714Y-79320571D01*
X210366428Y-79429428D01*
X210330142Y-79465714D01*
X210076142Y-79465714D01*
X210076142Y-79320571D01*
X210402714Y-79792285D02*
X209640714Y-79792285D01*
X210402714Y-80227714D01*
X209640714Y-80227714D01*
X210402714Y-80590571D02*
X209640714Y-80590571D01*
X209640714Y-80772000D01*
X209677000Y-80880857D01*
X209749571Y-80953428D01*
X209822142Y-80989714D01*
X209967285Y-81026000D01*
X210076142Y-81026000D01*
X210221285Y-80989714D01*
X210293857Y-80953428D01*
X210366428Y-80880857D01*
X210402714Y-80772000D01*
X210402714Y-80590571D01*
X204270428Y-85380285D02*
X204270428Y-85960857D01*
X204560714Y-85670571D02*
X203980142Y-85670571D01*
X203798714Y-86686571D02*
X203798714Y-86323714D01*
X204161571Y-86287428D01*
X204125285Y-86323714D01*
X204089000Y-86396285D01*
X204089000Y-86577714D01*
X204125285Y-86650285D01*
X204161571Y-86686571D01*
X204234142Y-86722857D01*
X204415571Y-86722857D01*
X204488142Y-86686571D01*
X204524428Y-86650285D01*
X204560714Y-86577714D01*
X204560714Y-86396285D01*
X204524428Y-86323714D01*
X204488142Y-86287428D01*
X203798714Y-86940571D02*
X204560714Y-87194571D01*
X203798714Y-87448571D01*
X204524428Y-83203142D02*
X204560714Y-83312000D01*
X204560714Y-83493428D01*
X204524428Y-83566000D01*
X204488142Y-83602285D01*
X204415571Y-83638571D01*
X204343000Y-83638571D01*
X204270428Y-83602285D01*
X204234142Y-83566000D01*
X204197857Y-83493428D01*
X204161571Y-83348285D01*
X204125285Y-83275714D01*
X204089000Y-83239428D01*
X204016428Y-83203142D01*
X203943857Y-83203142D01*
X203871285Y-83239428D01*
X203835000Y-83275714D01*
X203798714Y-83348285D01*
X203798714Y-83529714D01*
X203835000Y-83638571D01*
X204560714Y-83965142D02*
X203798714Y-83965142D01*
X204560714Y-84400571D01*
X203798714Y-84400571D01*
X204524428Y-100983142D02*
X204560714Y-101092000D01*
X204560714Y-101273428D01*
X204524428Y-101346000D01*
X204488142Y-101382285D01*
X204415571Y-101418571D01*
X204343000Y-101418571D01*
X204270428Y-101382285D01*
X204234142Y-101346000D01*
X204197857Y-101273428D01*
X204161571Y-101128285D01*
X204125285Y-101055714D01*
X204089000Y-101019428D01*
X204016428Y-100983142D01*
X203943857Y-100983142D01*
X203871285Y-101019428D01*
X203835000Y-101055714D01*
X203798714Y-101128285D01*
X203798714Y-101309714D01*
X203835000Y-101418571D01*
X204560714Y-101745142D02*
X203798714Y-101745142D01*
X204560714Y-102180571D01*
X203798714Y-102180571D01*
X210366428Y-102271285D02*
X210402714Y-102380142D01*
X210402714Y-102561571D01*
X210366428Y-102634142D01*
X210330142Y-102670428D01*
X210257571Y-102706714D01*
X210185000Y-102706714D01*
X210112428Y-102670428D01*
X210076142Y-102634142D01*
X210039857Y-102561571D01*
X210003571Y-102416428D01*
X209967285Y-102343857D01*
X209931000Y-102307571D01*
X209858428Y-102271285D01*
X209785857Y-102271285D01*
X209713285Y-102307571D01*
X209677000Y-102343857D01*
X209640714Y-102416428D01*
X209640714Y-102597857D01*
X209677000Y-102706714D01*
X210402714Y-103033285D02*
X209640714Y-103033285D01*
X209640714Y-103323571D01*
X209677000Y-103396142D01*
X209713285Y-103432428D01*
X209785857Y-103468714D01*
X209894714Y-103468714D01*
X209967285Y-103432428D01*
X210003571Y-103396142D01*
X210039857Y-103323571D01*
X210039857Y-103033285D01*
X210330142Y-100184857D02*
X210366428Y-100148571D01*
X210402714Y-100039714D01*
X210402714Y-99967142D01*
X210366428Y-99858285D01*
X210293857Y-99785714D01*
X210221285Y-99749428D01*
X210076142Y-99713142D01*
X209967285Y-99713142D01*
X209822142Y-99749428D01*
X209749571Y-99785714D01*
X209677000Y-99858285D01*
X209640714Y-99967142D01*
X209640714Y-100039714D01*
X209677000Y-100148571D01*
X209713285Y-100184857D01*
X210402714Y-100511428D02*
X209640714Y-100511428D01*
X209640714Y-100801714D01*
X209677000Y-100874285D01*
X209713285Y-100910571D01*
X209785857Y-100946857D01*
X209894714Y-100946857D01*
X209967285Y-100910571D01*
X210003571Y-100874285D01*
X210039857Y-100801714D01*
X210039857Y-100511428D01*
X209677000Y-97209428D02*
X209640714Y-97136857D01*
X209640714Y-97028000D01*
X209677000Y-96919142D01*
X209749571Y-96846571D01*
X209822142Y-96810285D01*
X209967285Y-96774000D01*
X210076142Y-96774000D01*
X210221285Y-96810285D01*
X210293857Y-96846571D01*
X210366428Y-96919142D01*
X210402714Y-97028000D01*
X210402714Y-97100571D01*
X210366428Y-97209428D01*
X210330142Y-97245714D01*
X210076142Y-97245714D01*
X210076142Y-97100571D01*
X210402714Y-97572285D02*
X209640714Y-97572285D01*
X210402714Y-98007714D01*
X209640714Y-98007714D01*
X210402714Y-98370571D02*
X209640714Y-98370571D01*
X209640714Y-98552000D01*
X209677000Y-98660857D01*
X209749571Y-98733428D01*
X209822142Y-98769714D01*
X209967285Y-98806000D01*
X210076142Y-98806000D01*
X210221285Y-98769714D01*
X210293857Y-98733428D01*
X210366428Y-98660857D01*
X210402714Y-98552000D01*
X210402714Y-98370571D01*
X204270428Y-103160285D02*
X204270428Y-103740857D01*
X204560714Y-103450571D02*
X203980142Y-103450571D01*
X203798714Y-104466571D02*
X203798714Y-104103714D01*
X204161571Y-104067428D01*
X204125285Y-104103714D01*
X204089000Y-104176285D01*
X204089000Y-104357714D01*
X204125285Y-104430285D01*
X204161571Y-104466571D01*
X204234142Y-104502857D01*
X204415571Y-104502857D01*
X204488142Y-104466571D01*
X204524428Y-104430285D01*
X204560714Y-104357714D01*
X204560714Y-104176285D01*
X204524428Y-104103714D01*
X204488142Y-104067428D01*
X203798714Y-104720571D02*
X204560714Y-104974571D01*
X203798714Y-105228571D01*
X204488142Y-98896714D02*
X204524428Y-98860428D01*
X204560714Y-98751571D01*
X204560714Y-98679000D01*
X204524428Y-98570142D01*
X204451857Y-98497571D01*
X204379285Y-98461285D01*
X204234142Y-98425000D01*
X204125285Y-98425000D01*
X203980142Y-98461285D01*
X203907571Y-98497571D01*
X203835000Y-98570142D01*
X203798714Y-98679000D01*
X203798714Y-98751571D01*
X203835000Y-98860428D01*
X203871285Y-98896714D01*
X204560714Y-99223285D02*
X203798714Y-99223285D01*
X204560714Y-99658714D01*
X203798714Y-99658714D01*
X204488142Y-116676714D02*
X204524428Y-116640428D01*
X204560714Y-116531571D01*
X204560714Y-116459000D01*
X204524428Y-116350142D01*
X204451857Y-116277571D01*
X204379285Y-116241285D01*
X204234142Y-116205000D01*
X204125285Y-116205000D01*
X203980142Y-116241285D01*
X203907571Y-116277571D01*
X203835000Y-116350142D01*
X203798714Y-116459000D01*
X203798714Y-116531571D01*
X203835000Y-116640428D01*
X203871285Y-116676714D01*
X204560714Y-117003285D02*
X203798714Y-117003285D01*
X204560714Y-117438714D01*
X203798714Y-117438714D01*
X204524428Y-118763142D02*
X204560714Y-118872000D01*
X204560714Y-119053428D01*
X204524428Y-119126000D01*
X204488142Y-119162285D01*
X204415571Y-119198571D01*
X204343000Y-119198571D01*
X204270428Y-119162285D01*
X204234142Y-119126000D01*
X204197857Y-119053428D01*
X204161571Y-118908285D01*
X204125285Y-118835714D01*
X204089000Y-118799428D01*
X204016428Y-118763142D01*
X203943857Y-118763142D01*
X203871285Y-118799428D01*
X203835000Y-118835714D01*
X203798714Y-118908285D01*
X203798714Y-119089714D01*
X203835000Y-119198571D01*
X204560714Y-119525142D02*
X203798714Y-119525142D01*
X204560714Y-119960571D01*
X203798714Y-119960571D01*
X204270428Y-120940285D02*
X204270428Y-121520857D01*
X204560714Y-121230571D02*
X203980142Y-121230571D01*
X203798714Y-122246571D02*
X203798714Y-121883714D01*
X204161571Y-121847428D01*
X204125285Y-121883714D01*
X204089000Y-121956285D01*
X204089000Y-122137714D01*
X204125285Y-122210285D01*
X204161571Y-122246571D01*
X204234142Y-122282857D01*
X204415571Y-122282857D01*
X204488142Y-122246571D01*
X204524428Y-122210285D01*
X204560714Y-122137714D01*
X204560714Y-121956285D01*
X204524428Y-121883714D01*
X204488142Y-121847428D01*
X203798714Y-122500571D02*
X204560714Y-122754571D01*
X203798714Y-123008571D01*
X209677000Y-114989428D02*
X209640714Y-114916857D01*
X209640714Y-114808000D01*
X209677000Y-114699142D01*
X209749571Y-114626571D01*
X209822142Y-114590285D01*
X209967285Y-114554000D01*
X210076142Y-114554000D01*
X210221285Y-114590285D01*
X210293857Y-114626571D01*
X210366428Y-114699142D01*
X210402714Y-114808000D01*
X210402714Y-114880571D01*
X210366428Y-114989428D01*
X210330142Y-115025714D01*
X210076142Y-115025714D01*
X210076142Y-114880571D01*
X210402714Y-115352285D02*
X209640714Y-115352285D01*
X210402714Y-115787714D01*
X209640714Y-115787714D01*
X210402714Y-116150571D02*
X209640714Y-116150571D01*
X209640714Y-116332000D01*
X209677000Y-116440857D01*
X209749571Y-116513428D01*
X209822142Y-116549714D01*
X209967285Y-116586000D01*
X210076142Y-116586000D01*
X210221285Y-116549714D01*
X210293857Y-116513428D01*
X210366428Y-116440857D01*
X210402714Y-116332000D01*
X210402714Y-116150571D01*
X210330142Y-117964857D02*
X210366428Y-117928571D01*
X210402714Y-117819714D01*
X210402714Y-117747142D01*
X210366428Y-117638285D01*
X210293857Y-117565714D01*
X210221285Y-117529428D01*
X210076142Y-117493142D01*
X209967285Y-117493142D01*
X209822142Y-117529428D01*
X209749571Y-117565714D01*
X209677000Y-117638285D01*
X209640714Y-117747142D01*
X209640714Y-117819714D01*
X209677000Y-117928571D01*
X209713285Y-117964857D01*
X210402714Y-118291428D02*
X209640714Y-118291428D01*
X209640714Y-118581714D01*
X209677000Y-118654285D01*
X209713285Y-118690571D01*
X209785857Y-118726857D01*
X209894714Y-118726857D01*
X209967285Y-118690571D01*
X210003571Y-118654285D01*
X210039857Y-118581714D01*
X210039857Y-118291428D01*
X210366428Y-120051285D02*
X210402714Y-120160142D01*
X210402714Y-120341571D01*
X210366428Y-120414142D01*
X210330142Y-120450428D01*
X210257571Y-120486714D01*
X210185000Y-120486714D01*
X210112428Y-120450428D01*
X210076142Y-120414142D01*
X210039857Y-120341571D01*
X210003571Y-120196428D01*
X209967285Y-120123857D01*
X209931000Y-120087571D01*
X209858428Y-120051285D01*
X209785857Y-120051285D01*
X209713285Y-120087571D01*
X209677000Y-120123857D01*
X209640714Y-120196428D01*
X209640714Y-120377857D01*
X209677000Y-120486714D01*
X210402714Y-120813285D02*
X209640714Y-120813285D01*
X209640714Y-121103571D01*
X209677000Y-121176142D01*
X209713285Y-121212428D01*
X209785857Y-121248714D01*
X209894714Y-121248714D01*
X209967285Y-121212428D01*
X210003571Y-121176142D01*
X210039857Y-121103571D01*
X210039857Y-120813285D01*
X191098714Y-136991271D02*
X190989857Y-137027557D01*
X190953571Y-137063842D01*
X190917285Y-137136414D01*
X190917285Y-137245271D01*
X190953571Y-137317842D01*
X190989857Y-137354128D01*
X191062428Y-137390414D01*
X191352714Y-137390414D01*
X191352714Y-136628414D01*
X191098714Y-136628414D01*
X191026142Y-136664700D01*
X190989857Y-136700985D01*
X190953571Y-136773557D01*
X190953571Y-136846128D01*
X190989857Y-136918700D01*
X191026142Y-136954985D01*
X191098714Y-136991271D01*
X191352714Y-136991271D01*
X190155285Y-137390414D02*
X190409285Y-137027557D01*
X190590714Y-137390414D02*
X190590714Y-136628414D01*
X190300428Y-136628414D01*
X190227857Y-136664700D01*
X190191571Y-136700985D01*
X190155285Y-136773557D01*
X190155285Y-136882414D01*
X190191571Y-136954985D01*
X190227857Y-136991271D01*
X190300428Y-137027557D01*
X190590714Y-137027557D01*
X189828714Y-137390414D02*
X189828714Y-136628414D01*
X189465857Y-137390414D02*
X189465857Y-136628414D01*
X189284428Y-136628414D01*
X189175571Y-136664700D01*
X189103000Y-136737271D01*
X189066714Y-136809842D01*
X189030428Y-136954985D01*
X189030428Y-137063842D01*
X189066714Y-137208985D01*
X189103000Y-137281557D01*
X189175571Y-137354128D01*
X189284428Y-137390414D01*
X189465857Y-137390414D01*
X188304714Y-136664700D02*
X188377285Y-136628414D01*
X188486142Y-136628414D01*
X188595000Y-136664700D01*
X188667571Y-136737271D01*
X188703857Y-136809842D01*
X188740142Y-136954985D01*
X188740142Y-137063842D01*
X188703857Y-137208985D01*
X188667571Y-137281557D01*
X188595000Y-137354128D01*
X188486142Y-137390414D01*
X188413571Y-137390414D01*
X188304714Y-137354128D01*
X188268428Y-137317842D01*
X188268428Y-137063842D01*
X188413571Y-137063842D01*
X187941857Y-136991271D02*
X187687857Y-136991271D01*
X187579000Y-137390414D02*
X187941857Y-137390414D01*
X187941857Y-136628414D01*
X187579000Y-136628414D01*
X186454142Y-136628414D02*
X186454142Y-137172700D01*
X186490428Y-137281557D01*
X186563000Y-137354128D01*
X186671857Y-137390414D01*
X186744428Y-137390414D01*
X186091285Y-137390414D02*
X186091285Y-136628414D01*
X185801000Y-136628414D01*
X185728428Y-136664700D01*
X185692142Y-136700985D01*
X185655857Y-136773557D01*
X185655857Y-136882414D01*
X185692142Y-136954985D01*
X185728428Y-136991271D01*
X185801000Y-137027557D01*
X186091285Y-137027557D01*
X184966428Y-136628414D02*
X185329285Y-136628414D01*
X185365571Y-136991271D01*
X185329285Y-136954985D01*
X185256714Y-136918700D01*
X185075285Y-136918700D01*
X185002714Y-136954985D01*
X184966428Y-136991271D01*
X184930142Y-137063842D01*
X184930142Y-137245271D01*
X184966428Y-137317842D01*
X185002714Y-137354128D01*
X185075285Y-137390414D01*
X185256714Y-137390414D01*
X185329285Y-137354128D01*
X185365571Y-137317842D01*
X184023000Y-137390414D02*
X184023000Y-136628414D01*
X183406142Y-136991271D02*
X183660142Y-136991271D01*
X183660142Y-137390414D02*
X183660142Y-136628414D01*
X183297285Y-136628414D01*
X182426428Y-136628414D02*
X182426428Y-137245271D01*
X182390142Y-137317842D01*
X182353857Y-137354128D01*
X182281285Y-137390414D01*
X182136142Y-137390414D01*
X182063571Y-137354128D01*
X182027285Y-137317842D01*
X181991000Y-137245271D01*
X181991000Y-136628414D01*
X181664428Y-136700985D02*
X181628142Y-136664700D01*
X181555571Y-136628414D01*
X181374142Y-136628414D01*
X181301571Y-136664700D01*
X181265285Y-136700985D01*
X181229000Y-136773557D01*
X181229000Y-136846128D01*
X181265285Y-136954985D01*
X181700714Y-137390414D01*
X181229000Y-137390414D01*
X190717714Y-138635014D02*
X190717714Y-137873014D01*
X190282285Y-138635014D01*
X190282285Y-137873014D01*
X189774285Y-137873014D02*
X189629142Y-137873014D01*
X189556571Y-137909300D01*
X189484000Y-137981871D01*
X189447714Y-138127014D01*
X189447714Y-138381014D01*
X189484000Y-138526157D01*
X189556571Y-138598728D01*
X189629142Y-138635014D01*
X189774285Y-138635014D01*
X189846857Y-138598728D01*
X189919428Y-138526157D01*
X189955714Y-138381014D01*
X189955714Y-138127014D01*
X189919428Y-137981871D01*
X189846857Y-137909300D01*
X189774285Y-137873014D01*
X189230000Y-137873014D02*
X188794571Y-137873014D01*
X189012285Y-138635014D02*
X189012285Y-137873014D01*
X187960000Y-138635014D02*
X187960000Y-137873014D01*
X187669714Y-137873014D01*
X187597142Y-137909300D01*
X187560857Y-137945585D01*
X187524571Y-138018157D01*
X187524571Y-138127014D01*
X187560857Y-138199585D01*
X187597142Y-138235871D01*
X187669714Y-138272157D01*
X187960000Y-138272157D01*
X187052857Y-137873014D02*
X186907714Y-137873014D01*
X186835142Y-137909300D01*
X186762571Y-137981871D01*
X186726285Y-138127014D01*
X186726285Y-138381014D01*
X186762571Y-138526157D01*
X186835142Y-138598728D01*
X186907714Y-138635014D01*
X187052857Y-138635014D01*
X187125428Y-138598728D01*
X187198000Y-138526157D01*
X187234285Y-138381014D01*
X187234285Y-138127014D01*
X187198000Y-137981871D01*
X187125428Y-137909300D01*
X187052857Y-137873014D01*
X186399714Y-138635014D02*
X186399714Y-137873014D01*
X186109428Y-137873014D01*
X186036857Y-137909300D01*
X186000571Y-137945585D01*
X185964285Y-138018157D01*
X185964285Y-138127014D01*
X186000571Y-138199585D01*
X186036857Y-138235871D01*
X186109428Y-138272157D01*
X186399714Y-138272157D01*
X185637714Y-137873014D02*
X185637714Y-138489871D01*
X185601428Y-138562442D01*
X185565142Y-138598728D01*
X185492571Y-138635014D01*
X185347428Y-138635014D01*
X185274857Y-138598728D01*
X185238571Y-138562442D01*
X185202285Y-138489871D01*
X185202285Y-137873014D01*
X184476571Y-138635014D02*
X184839428Y-138635014D01*
X184839428Y-137873014D01*
X184258857Y-138417300D02*
X183896000Y-138417300D01*
X184331428Y-138635014D02*
X184077428Y-137873014D01*
X183823428Y-138635014D01*
X183678285Y-137873014D02*
X183242857Y-137873014D01*
X183460571Y-138635014D02*
X183460571Y-137873014D01*
X182988857Y-138235871D02*
X182734857Y-138235871D01*
X182626000Y-138635014D02*
X182988857Y-138635014D01*
X182988857Y-137873014D01*
X182626000Y-137873014D01*
X182299428Y-138635014D02*
X182299428Y-137873014D01*
X182118000Y-137873014D01*
X182009142Y-137909300D01*
X181936571Y-137981871D01*
X181900285Y-138054442D01*
X181864000Y-138199585D01*
X181864000Y-138308442D01*
X181900285Y-138453585D01*
X181936571Y-138526157D01*
X182009142Y-138598728D01*
X182118000Y-138635014D01*
X182299428Y-138635014D01*
X178308000Y-127847271D02*
X178199142Y-127883557D01*
X178162857Y-127919842D01*
X178126571Y-127992414D01*
X178126571Y-128101271D01*
X178162857Y-128173842D01*
X178199142Y-128210128D01*
X178271714Y-128246414D01*
X178562000Y-128246414D01*
X178562000Y-127484414D01*
X178308000Y-127484414D01*
X178235428Y-127520700D01*
X178199142Y-127556985D01*
X178162857Y-127629557D01*
X178162857Y-127702128D01*
X178199142Y-127774700D01*
X178235428Y-127810985D01*
X178308000Y-127847271D01*
X178562000Y-127847271D01*
X177364571Y-128246414D02*
X177618571Y-127883557D01*
X177800000Y-128246414D02*
X177800000Y-127484414D01*
X177509714Y-127484414D01*
X177437142Y-127520700D01*
X177400857Y-127556985D01*
X177364571Y-127629557D01*
X177364571Y-127738414D01*
X177400857Y-127810985D01*
X177437142Y-127847271D01*
X177509714Y-127883557D01*
X177800000Y-127883557D01*
X177038000Y-128246414D02*
X177038000Y-127484414D01*
X176675142Y-128246414D02*
X176675142Y-127484414D01*
X176493714Y-127484414D01*
X176384857Y-127520700D01*
X176312285Y-127593271D01*
X176276000Y-127665842D01*
X176239714Y-127810985D01*
X176239714Y-127919842D01*
X176276000Y-128064985D01*
X176312285Y-128137557D01*
X176384857Y-128210128D01*
X176493714Y-128246414D01*
X176675142Y-128246414D01*
X175514000Y-127520700D02*
X175586571Y-127484414D01*
X175695428Y-127484414D01*
X175804285Y-127520700D01*
X175876857Y-127593271D01*
X175913142Y-127665842D01*
X175949428Y-127810985D01*
X175949428Y-127919842D01*
X175913142Y-128064985D01*
X175876857Y-128137557D01*
X175804285Y-128210128D01*
X175695428Y-128246414D01*
X175622857Y-128246414D01*
X175514000Y-128210128D01*
X175477714Y-128173842D01*
X175477714Y-127919842D01*
X175622857Y-127919842D01*
X175151142Y-127847271D02*
X174897142Y-127847271D01*
X174788285Y-128246414D02*
X175151142Y-128246414D01*
X175151142Y-127484414D01*
X174788285Y-127484414D01*
X173663428Y-127484414D02*
X173663428Y-128028700D01*
X173699714Y-128137557D01*
X173772285Y-128210128D01*
X173881142Y-128246414D01*
X173953714Y-128246414D01*
X173300571Y-128246414D02*
X173300571Y-127484414D01*
X173010285Y-127484414D01*
X172937714Y-127520700D01*
X172901428Y-127556985D01*
X172865142Y-127629557D01*
X172865142Y-127738414D01*
X172901428Y-127810985D01*
X172937714Y-127847271D01*
X173010285Y-127883557D01*
X173300571Y-127883557D01*
X172611142Y-127484414D02*
X172103142Y-127484414D01*
X172429714Y-128246414D01*
X170978285Y-127847271D02*
X171232285Y-127847271D01*
X171232285Y-128246414D02*
X171232285Y-127484414D01*
X170869428Y-127484414D01*
X170434000Y-127484414D02*
X170288857Y-127484414D01*
X170216285Y-127520700D01*
X170143714Y-127593271D01*
X170107428Y-127738414D01*
X170107428Y-127992414D01*
X170143714Y-128137557D01*
X170216285Y-128210128D01*
X170288857Y-128246414D01*
X170434000Y-128246414D01*
X170506571Y-128210128D01*
X170579142Y-128137557D01*
X170615428Y-127992414D01*
X170615428Y-127738414D01*
X170579142Y-127593271D01*
X170506571Y-127520700D01*
X170434000Y-127484414D01*
X169345428Y-128246414D02*
X169599428Y-127883557D01*
X169780857Y-128246414D02*
X169780857Y-127484414D01*
X169490571Y-127484414D01*
X169418000Y-127520700D01*
X169381714Y-127556985D01*
X169345428Y-127629557D01*
X169345428Y-127738414D01*
X169381714Y-127810985D01*
X169418000Y-127847271D01*
X169490571Y-127883557D01*
X169780857Y-127883557D01*
X168438285Y-127956128D02*
X167857714Y-127956128D01*
X168148000Y-128246414D02*
X168148000Y-127665842D01*
X167132000Y-127484414D02*
X167494857Y-127484414D01*
X167531142Y-127847271D01*
X167494857Y-127810985D01*
X167422285Y-127774700D01*
X167240857Y-127774700D01*
X167168285Y-127810985D01*
X167132000Y-127847271D01*
X167095714Y-127919842D01*
X167095714Y-128101271D01*
X167132000Y-128173842D01*
X167168285Y-128210128D01*
X167240857Y-128246414D01*
X167422285Y-128246414D01*
X167494857Y-128210128D01*
X167531142Y-128173842D01*
X166878000Y-127484414D02*
X166624000Y-128246414D01*
X166370000Y-127484414D01*
X165644285Y-127484414D02*
X165390285Y-128246414D01*
X165136285Y-127484414D01*
X164882285Y-128246414D02*
X164882285Y-127484414D01*
X164519428Y-128246414D02*
X164519428Y-127484414D01*
X164084000Y-128246414D01*
X164084000Y-127484414D01*
X177473428Y-129491014D02*
X177473428Y-128729014D01*
X177292000Y-128729014D01*
X177183142Y-128765300D01*
X177110571Y-128837871D01*
X177074285Y-128910442D01*
X177038000Y-129055585D01*
X177038000Y-129164442D01*
X177074285Y-129309585D01*
X177110571Y-129382157D01*
X177183142Y-129454728D01*
X177292000Y-129491014D01*
X177473428Y-129491014D01*
X176566285Y-128729014D02*
X176421142Y-128729014D01*
X176348571Y-128765300D01*
X176276000Y-128837871D01*
X176239714Y-128983014D01*
X176239714Y-129237014D01*
X176276000Y-129382157D01*
X176348571Y-129454728D01*
X176421142Y-129491014D01*
X176566285Y-129491014D01*
X176638857Y-129454728D01*
X176711428Y-129382157D01*
X176747714Y-129237014D01*
X176747714Y-128983014D01*
X176711428Y-128837871D01*
X176638857Y-128765300D01*
X176566285Y-128729014D01*
X175332571Y-129491014D02*
X175332571Y-128729014D01*
X174897142Y-129491014D01*
X174897142Y-128729014D01*
X174389142Y-128729014D02*
X174244000Y-128729014D01*
X174171428Y-128765300D01*
X174098857Y-128837871D01*
X174062571Y-128983014D01*
X174062571Y-129237014D01*
X174098857Y-129382157D01*
X174171428Y-129454728D01*
X174244000Y-129491014D01*
X174389142Y-129491014D01*
X174461714Y-129454728D01*
X174534285Y-129382157D01*
X174570571Y-129237014D01*
X174570571Y-128983014D01*
X174534285Y-128837871D01*
X174461714Y-128765300D01*
X174389142Y-128729014D01*
X173844857Y-128729014D02*
X173409428Y-128729014D01*
X173627142Y-129491014D02*
X173627142Y-128729014D01*
X172574857Y-129491014D02*
X172574857Y-128729014D01*
X172284571Y-128729014D01*
X172212000Y-128765300D01*
X172175714Y-128801585D01*
X172139428Y-128874157D01*
X172139428Y-128983014D01*
X172175714Y-129055585D01*
X172212000Y-129091871D01*
X172284571Y-129128157D01*
X172574857Y-129128157D01*
X171667714Y-128729014D02*
X171522571Y-128729014D01*
X171450000Y-128765300D01*
X171377428Y-128837871D01*
X171341142Y-128983014D01*
X171341142Y-129237014D01*
X171377428Y-129382157D01*
X171450000Y-129454728D01*
X171522571Y-129491014D01*
X171667714Y-129491014D01*
X171740285Y-129454728D01*
X171812857Y-129382157D01*
X171849142Y-129237014D01*
X171849142Y-128983014D01*
X171812857Y-128837871D01*
X171740285Y-128765300D01*
X171667714Y-128729014D01*
X171014571Y-129491014D02*
X171014571Y-128729014D01*
X170724285Y-128729014D01*
X170651714Y-128765300D01*
X170615428Y-128801585D01*
X170579142Y-128874157D01*
X170579142Y-128983014D01*
X170615428Y-129055585D01*
X170651714Y-129091871D01*
X170724285Y-129128157D01*
X171014571Y-129128157D01*
X170252571Y-128729014D02*
X170252571Y-129345871D01*
X170216285Y-129418442D01*
X170180000Y-129454728D01*
X170107428Y-129491014D01*
X169962285Y-129491014D01*
X169889714Y-129454728D01*
X169853428Y-129418442D01*
X169817142Y-129345871D01*
X169817142Y-128729014D01*
X169091428Y-129491014D02*
X169454285Y-129491014D01*
X169454285Y-128729014D01*
X168873714Y-129273300D02*
X168510857Y-129273300D01*
X168946285Y-129491014D02*
X168692285Y-128729014D01*
X168438285Y-129491014D01*
X168293142Y-128729014D02*
X167857714Y-128729014D01*
X168075428Y-129491014D02*
X168075428Y-128729014D01*
X167603714Y-129091871D02*
X167349714Y-129091871D01*
X167240857Y-129491014D02*
X167603714Y-129491014D01*
X167603714Y-128729014D01*
X167240857Y-128729014D01*
X166333714Y-128729014D02*
X166333714Y-129345871D01*
X166297428Y-129418442D01*
X166261142Y-129454728D01*
X166188571Y-129491014D01*
X166043428Y-129491014D01*
X165970857Y-129454728D01*
X165934571Y-129418442D01*
X165898285Y-129345871D01*
X165898285Y-128729014D01*
X165608000Y-128729014D02*
X165136285Y-128729014D01*
X165390285Y-129019300D01*
X165281428Y-129019300D01*
X165208857Y-129055585D01*
X165172571Y-129091871D01*
X165136285Y-129164442D01*
X165136285Y-129345871D01*
X165172571Y-129418442D01*
X165208857Y-129454728D01*
X165281428Y-129491014D01*
X165499142Y-129491014D01*
X165571714Y-129454728D01*
X165608000Y-129418442D01*
D11*
G04 #@! TO.C,JP7*
X159828000Y-132350000D02*
G75*
G03X159128000Y-133050000I0J-700000D01*
G01*
X159128000Y-133650000D02*
G75*
G03X159828000Y-134350000I700000J0D01*
G01*
X161228000Y-134350000D02*
G75*
G03X161928000Y-133650000I0J700000D01*
G01*
X161928000Y-133050000D02*
G75*
G03X161228000Y-132350000I-700000J0D01*
G01*
X161928000Y-133650000D02*
X161928000Y-133050000D01*
X159828000Y-134350000D02*
X161228000Y-134350000D01*
X159128000Y-133050000D02*
X159128000Y-133650000D01*
X161228000Y-132350000D02*
X159828000Y-132350000D01*
G04 #@! TO.C,JP5*
X194548000Y-141162000D02*
X194548000Y-139762000D01*
X193848000Y-139062000D02*
X193248000Y-139062000D01*
X192548000Y-139762000D02*
X192548000Y-141162000D01*
X193248000Y-141862000D02*
X193848000Y-141862000D01*
X193848000Y-141862000D02*
G75*
G03X194548000Y-141162000I0J700000D01*
G01*
X192548000Y-141162000D02*
G75*
G03X193248000Y-141862000I700000J0D01*
G01*
X193248000Y-139062000D02*
G75*
G03X192548000Y-139762000I0J-700000D01*
G01*
X194548000Y-139762000D02*
G75*
G03X193848000Y-139062000I-700000J0D01*
G01*
G04 #@! TO.C,JP7*
D12*
X161488333Y-134961380D02*
X161488333Y-135675666D01*
X161535952Y-135818523D01*
X161631190Y-135913761D01*
X161774047Y-135961380D01*
X161869285Y-135961380D01*
X161012142Y-135961380D02*
X161012142Y-134961380D01*
X160631190Y-134961380D01*
X160535952Y-135009000D01*
X160488333Y-135056619D01*
X160440714Y-135151857D01*
X160440714Y-135294714D01*
X160488333Y-135389952D01*
X160535952Y-135437571D01*
X160631190Y-135485190D01*
X161012142Y-135485190D01*
X160107380Y-134961380D02*
X159440714Y-134961380D01*
X159869285Y-135961380D01*
G04 #@! TO.C,JP5*
X191841333Y-139914380D02*
X191841333Y-140628666D01*
X191888952Y-140771523D01*
X191984190Y-140866761D01*
X192127047Y-140914380D01*
X192222285Y-140914380D01*
X191365142Y-140914380D02*
X191365142Y-139914380D01*
X190984190Y-139914380D01*
X190888952Y-139962000D01*
X190841333Y-140009619D01*
X190793714Y-140104857D01*
X190793714Y-140247714D01*
X190841333Y-140342952D01*
X190888952Y-140390571D01*
X190984190Y-140438190D01*
X191365142Y-140438190D01*
X189888952Y-139914380D02*
X190365142Y-139914380D01*
X190412761Y-140390571D01*
X190365142Y-140342952D01*
X190269904Y-140295333D01*
X190031809Y-140295333D01*
X189936571Y-140342952D01*
X189888952Y-140390571D01*
X189841333Y-140485809D01*
X189841333Y-140723904D01*
X189888952Y-140819142D01*
X189936571Y-140866761D01*
X190031809Y-140914380D01*
X190269904Y-140914380D01*
X190365142Y-140866761D01*
X190412761Y-140819142D01*
G04 #@! TD*
M02*
