G04 #@! TF.GenerationSoftware,KiCad,Pcbnew,5.0.2-bee76a0~70~ubuntu18.04.1*
G04 #@! TF.CreationDate,2019-06-19T23:07:38-07:00*
G04 #@! TF.ProjectId,aa-power,61612d70-6f77-4657-922e-6b696361645f,rev?*
G04 #@! TF.SameCoordinates,Original*
G04 #@! TF.FileFunction,Copper,L2,Bot*
G04 #@! TF.FilePolarity,Positive*
%FSLAX46Y46*%
G04 Gerber Fmt 4.6, Leading zero omitted, Abs format (unit mm)*
G04 Created by KiCad (PCBNEW 5.0.2-bee76a0~70~ubuntu18.04.1) date Wed 19 Jun 2019 11:07:38 PM PDT*
%MOMM*%
%LPD*%
G01*
G04 APERTURE LIST*
G04 #@! TA.AperFunction,ComponentPad*
%ADD10R,2.000000X1.905000*%
G04 #@! TD*
G04 #@! TA.AperFunction,ComponentPad*
%ADD11O,2.000000X1.905000*%
G04 #@! TD*
G04 #@! TA.AperFunction,ComponentPad*
%ADD12C,1.600000*%
G04 #@! TD*
G04 #@! TA.AperFunction,ComponentPad*
%ADD13R,1.600000X1.600000*%
G04 #@! TD*
G04 #@! TA.AperFunction,ComponentPad*
%ADD14C,0.800000*%
G04 #@! TD*
G04 #@! TA.AperFunction,ComponentPad*
%ADD15C,5.400000*%
G04 #@! TD*
G04 #@! TA.AperFunction,ComponentPad*
%ADD16C,2.000000*%
G04 #@! TD*
G04 #@! TA.AperFunction,ComponentPad*
%ADD17C,3.500120*%
G04 #@! TD*
G04 #@! TA.AperFunction,ComponentPad*
%ADD18R,3.500120X3.500120*%
G04 #@! TD*
G04 #@! TA.AperFunction,ComponentPad*
%ADD19O,1.600000X1.600000*%
G04 #@! TD*
G04 #@! TA.AperFunction,ComponentPad*
%ADD20C,2.780000*%
G04 #@! TD*
G04 #@! TA.AperFunction,ComponentPad*
%ADD21C,3.400000*%
G04 #@! TD*
G04 #@! TA.AperFunction,ComponentPad*
%ADD22R,3.400000X3.400000*%
G04 #@! TD*
G04 #@! TA.AperFunction,ViaPad*
%ADD23C,0.800000*%
G04 #@! TD*
G04 #@! TA.AperFunction,Conductor*
%ADD24C,0.254000*%
G04 #@! TD*
G04 APERTURE END LIST*
D10*
G04 #@! TO.P,Q1,1*
G04 #@! TO.N,GND*
X181842162Y-102592621D03*
D11*
G04 #@! TO.P,Q1,2*
G04 #@! TO.N,/+12V*
X181842162Y-100052621D03*
G04 #@! TO.P,Q1,3*
G04 #@! TO.N,Net-(D8-Pad2)*
X181842162Y-97512621D03*
G04 #@! TD*
D12*
G04 #@! TO.P,C2,2*
G04 #@! TO.N,GND*
X121920000Y-102910000D03*
D13*
G04 #@! TO.P,C2,1*
G04 #@! TO.N,Net-(C2-Pad1)*
X121920000Y-105410000D03*
G04 #@! TD*
G04 #@! TO.P,C1,1*
G04 #@! TO.N,Net-(C1-Pad1)*
X121920000Y-95250000D03*
D12*
G04 #@! TO.P,C1,2*
G04 #@! TO.N,GND*
X121920000Y-97750000D03*
G04 #@! TD*
D14*
G04 #@! TO.P,H1,1*
G04 #@! TO.N,GND*
X194979891Y-74514109D03*
X193548000Y-73921000D03*
X192116109Y-74514109D03*
X191523000Y-75946000D03*
X192116109Y-77377891D03*
X193548000Y-77971000D03*
X194979891Y-77377891D03*
X195573000Y-75946000D03*
D15*
X193548000Y-75946000D03*
G04 #@! TD*
G04 #@! TO.P,H2,1*
G04 #@! TO.N,GND*
X105029000Y-75946000D03*
D14*
X107054000Y-75946000D03*
X106460891Y-77377891D03*
X105029000Y-77971000D03*
X103597109Y-77377891D03*
X103004000Y-75946000D03*
X103597109Y-74514109D03*
X105029000Y-73921000D03*
X106460891Y-74514109D03*
G04 #@! TD*
G04 #@! TO.P,H3,1*
G04 #@! TO.N,GND*
X106460891Y-122647109D03*
X105029000Y-122054000D03*
X103597109Y-122647109D03*
X103004000Y-124079000D03*
X103597109Y-125510891D03*
X105029000Y-126104000D03*
X106460891Y-125510891D03*
X107054000Y-124079000D03*
D15*
X105029000Y-124079000D03*
G04 #@! TD*
G04 #@! TO.P,H4,1*
G04 #@! TO.N,GND*
X193548000Y-124079000D03*
D14*
X195573000Y-124079000D03*
X194979891Y-125510891D03*
X193548000Y-126104000D03*
X192116109Y-125510891D03*
X191523000Y-124079000D03*
X192116109Y-122647109D03*
X193548000Y-122054000D03*
X194979891Y-122647109D03*
G04 #@! TD*
D16*
G04 #@! TO.P,TP12,1*
G04 #@! TO.N,GND*
X194564000Y-88900000D03*
G04 #@! TD*
G04 #@! TO.P,TP7,1*
G04 #@! TO.N,/+12V*
X194310000Y-114300000D03*
G04 #@! TD*
G04 #@! TO.P,TP8,1*
G04 #@! TO.N,GND*
X194310000Y-109220000D03*
G04 #@! TD*
G04 #@! TO.P,TP9,1*
G04 #@! TO.N,Net-(C4-Pad1)*
X194437000Y-104140000D03*
G04 #@! TD*
G04 #@! TO.P,TP10,1*
G04 #@! TO.N,GND*
X194437000Y-99060000D03*
G04 #@! TD*
G04 #@! TO.P,TP11,1*
G04 #@! TO.N,Net-(D8-Pad2)*
X194437000Y-93980000D03*
G04 #@! TD*
D17*
G04 #@! TO.P,CN1,2*
G04 #@! TO.N,GND*
X110490000Y-96520000D03*
D18*
G04 #@! TO.P,CN1,1*
G04 #@! TO.N,Net-(C1-Pad1)*
X115570000Y-96520000D03*
G04 #@! TD*
G04 #@! TO.P,CN2,1*
G04 #@! TO.N,Net-(C2-Pad1)*
X115570000Y-104140000D03*
D17*
G04 #@! TO.P,CN2,2*
G04 #@! TO.N,GND*
X110490000Y-104140000D03*
G04 #@! TD*
D13*
G04 #@! TO.P,D8,1*
G04 #@! TO.N,Net-(C4-Pad1)*
X190500000Y-105156000D03*
D19*
G04 #@! TO.P,D8,2*
G04 #@! TO.N,Net-(D8-Pad2)*
X190500000Y-97536000D03*
G04 #@! TD*
D16*
G04 #@! TO.P,TP5,1*
G04 #@! TO.N,Net-(D5-Pad1)*
X104140000Y-97790000D03*
G04 #@! TD*
G04 #@! TO.P,TP4,1*
G04 #@! TO.N,GND*
X104140000Y-115570000D03*
G04 #@! TD*
G04 #@! TO.P,TP3,1*
G04 #@! TO.N,Net-(C2-Pad1)*
X104140000Y-110490000D03*
G04 #@! TD*
G04 #@! TO.P,TP2,1*
G04 #@! TO.N,GND*
X104140000Y-85090000D03*
G04 #@! TD*
G04 #@! TO.P,TP1,1*
G04 #@! TO.N,Net-(C1-Pad1)*
X104140000Y-90170000D03*
G04 #@! TD*
G04 #@! TO.P,TP6,1*
G04 #@! TO.N,GND*
X104140000Y-102870000D03*
G04 #@! TD*
D20*
G04 #@! TO.P,F1,2*
G04 #@! TO.N,Net-(D5-Pad1)*
X131699000Y-100330000D03*
X138430000Y-100330000D03*
G04 #@! TO.P,F1,1*
G04 #@! TO.N,/+12V*
X149479000Y-100330000D03*
X156210000Y-100330000D03*
G04 #@! TD*
D21*
G04 #@! TO.P,CN3,8*
G04 #@! TO.N,/+12V*
X115951000Y-86995000D03*
G04 #@! TO.P,CN3,7*
X125476000Y-86995000D03*
G04 #@! TO.P,CN3,6*
X135001000Y-86995000D03*
G04 #@! TO.P,CN3,5*
X144531000Y-86995000D03*
G04 #@! TO.P,CN3,4*
X154051000Y-86995000D03*
G04 #@! TO.P,CN3,3*
X163576000Y-86995000D03*
G04 #@! TO.P,CN3,2*
X173106000Y-86995000D03*
D22*
G04 #@! TO.P,CN3,1*
X182626000Y-86995000D03*
G04 #@! TD*
G04 #@! TO.P,CN4,1*
G04 #@! TO.N,GND*
X115951000Y-113030000D03*
D21*
G04 #@! TO.P,CN4,2*
X125471000Y-113030000D03*
G04 #@! TO.P,CN4,3*
X135001000Y-113030000D03*
G04 #@! TO.P,CN4,4*
X144526000Y-113030000D03*
G04 #@! TO.P,CN4,5*
X154046000Y-113030000D03*
G04 #@! TO.P,CN4,6*
X163576000Y-113030000D03*
G04 #@! TO.P,CN4,7*
X173101000Y-113030000D03*
G04 #@! TO.P,CN4,8*
X182626000Y-113030000D03*
G04 #@! TD*
D23*
G04 #@! TO.N,GND*
X147701000Y-93218000D03*
X147701000Y-94742000D03*
X147066000Y-93980000D03*
X108585000Y-91567000D03*
X189865000Y-115697000D03*
G04 #@! TO.N,/+12V*
X162157162Y-93702621D03*
X167237162Y-93702621D03*
X162157162Y-96242621D03*
X164719000Y-96266000D03*
X167259000Y-96266000D03*
X167259000Y-103886000D03*
X164719000Y-103886000D03*
X163449000Y-97536000D03*
X163449000Y-102616000D03*
X162179000Y-103886000D03*
X162179000Y-101346000D03*
X162179000Y-98806000D03*
X165989000Y-102616000D03*
X165989000Y-97536000D03*
X167259000Y-98806000D03*
X167259000Y-101346000D03*
X162179000Y-106426000D03*
X167259000Y-106553000D03*
X169799000Y-105156000D03*
X169799000Y-95123000D03*
X173609000Y-105156000D03*
X173609000Y-100076000D03*
X173609000Y-95123000D03*
X177419000Y-95123000D03*
X177419000Y-100052621D03*
X177419000Y-105156000D03*
X169799000Y-98171000D03*
X169799000Y-101981000D03*
G04 #@! TD*
D24*
G04 #@! TO.N,/+12V*
G36*
X178562000Y-106934000D02*
X161036000Y-106934000D01*
X161036000Y-100052621D01*
X162750438Y-100052621D01*
X162935542Y-100983201D01*
X163462673Y-101772110D01*
X164251582Y-102299241D01*
X164947265Y-102437621D01*
X165417059Y-102437621D01*
X166112742Y-102299241D01*
X166901651Y-101772110D01*
X167428782Y-100983201D01*
X167613886Y-100052621D01*
X167428782Y-99122041D01*
X166901651Y-98333132D01*
X166112742Y-97806001D01*
X165417059Y-97667621D01*
X164947265Y-97667621D01*
X164251582Y-97806001D01*
X163462673Y-98333132D01*
X162935542Y-99122041D01*
X162750438Y-100052621D01*
X161036000Y-100052621D01*
X161036000Y-93218000D01*
X178562000Y-93218000D01*
X178562000Y-106934000D01*
X178562000Y-106934000D01*
G37*
X178562000Y-106934000D02*
X161036000Y-106934000D01*
X161036000Y-100052621D01*
X162750438Y-100052621D01*
X162935542Y-100983201D01*
X163462673Y-101772110D01*
X164251582Y-102299241D01*
X164947265Y-102437621D01*
X165417059Y-102437621D01*
X166112742Y-102299241D01*
X166901651Y-101772110D01*
X167428782Y-100983201D01*
X167613886Y-100052621D01*
X167428782Y-99122041D01*
X166901651Y-98333132D01*
X166112742Y-97806001D01*
X165417059Y-97667621D01*
X164947265Y-97667621D01*
X164251582Y-97806001D01*
X163462673Y-98333132D01*
X162935542Y-99122041D01*
X162750438Y-100052621D01*
X161036000Y-100052621D01*
X161036000Y-93218000D01*
X178562000Y-93218000D01*
X178562000Y-106934000D01*
G04 #@! TO.N,GND*
G36*
X103084086Y-73591929D02*
X103059364Y-73796759D01*
X103597109Y-74334504D01*
X103611252Y-74320362D01*
X103790857Y-74499967D01*
X103776714Y-74514109D01*
X104314459Y-75051854D01*
X104519289Y-75027132D01*
X104572619Y-74861407D01*
X104907931Y-74969309D01*
X105318318Y-74935842D01*
X105474159Y-74871290D01*
X105538711Y-75027132D01*
X105743541Y-75051854D01*
X106281286Y-74514109D01*
X106267144Y-74499967D01*
X106446749Y-74320362D01*
X106460891Y-74334504D01*
X106998636Y-73796759D01*
X106973914Y-73591929D01*
X106706884Y-73506000D01*
X191810536Y-73506000D01*
X191603086Y-73591929D01*
X191578364Y-73796759D01*
X192116109Y-74334504D01*
X192130252Y-74320362D01*
X192309857Y-74499967D01*
X192295714Y-74514109D01*
X192833459Y-75051854D01*
X193038289Y-75027132D01*
X193091619Y-74861407D01*
X193426931Y-74969309D01*
X193837318Y-74935842D01*
X193993159Y-74871290D01*
X194057711Y-75027132D01*
X194262541Y-75051854D01*
X194800286Y-74514109D01*
X194786144Y-74499967D01*
X194965749Y-74320362D01*
X194979891Y-74334504D01*
X195517636Y-73796759D01*
X195492914Y-73591929D01*
X195225884Y-73506000D01*
X196496000Y-73506000D01*
X196496000Y-75434957D01*
X196495180Y-75432977D01*
X196290350Y-75408255D01*
X195752605Y-75946000D01*
X196290350Y-76483745D01*
X196495180Y-76459023D01*
X196496000Y-76456475D01*
X196496001Y-123567959D01*
X196495180Y-123565977D01*
X196290350Y-123541255D01*
X195752605Y-124079000D01*
X196290350Y-124616745D01*
X196495180Y-124592023D01*
X196496001Y-124589472D01*
X196496001Y-126519000D01*
X195285464Y-126519000D01*
X195492914Y-126433071D01*
X195517636Y-126228241D01*
X194979891Y-125690496D01*
X194965749Y-125704639D01*
X194786144Y-125525034D01*
X194800286Y-125510891D01*
X194262541Y-124973146D01*
X194057711Y-124997868D01*
X194004381Y-125163593D01*
X193669069Y-125055691D01*
X193258682Y-125089158D01*
X193102841Y-125153710D01*
X193038289Y-124997868D01*
X192833459Y-124973146D01*
X192295714Y-125510891D01*
X192309857Y-125525034D01*
X192130252Y-125704639D01*
X192116109Y-125690496D01*
X191578364Y-126228241D01*
X191603086Y-126433071D01*
X191870116Y-126519000D01*
X106766464Y-126519000D01*
X106973914Y-126433071D01*
X106998636Y-126228241D01*
X106460891Y-125690496D01*
X106446749Y-125704639D01*
X106267144Y-125525034D01*
X106281286Y-125510891D01*
X105743541Y-124973146D01*
X105538711Y-124997868D01*
X105485381Y-125163593D01*
X105150069Y-125055691D01*
X104739682Y-125089158D01*
X104583841Y-125153710D01*
X104519289Y-124997868D01*
X104314459Y-124973146D01*
X103776714Y-125510891D01*
X103790857Y-125525034D01*
X103611252Y-125704639D01*
X103597109Y-125690496D01*
X103059364Y-126228241D01*
X103084086Y-126433071D01*
X103351116Y-126519000D01*
X102081000Y-126519000D01*
X102081000Y-124590043D01*
X102081820Y-124592023D01*
X102286650Y-124616745D01*
X102824395Y-124079000D01*
X102286650Y-123541255D01*
X102081820Y-123565977D01*
X102081000Y-123568525D01*
X102081000Y-123361650D01*
X102466255Y-123361650D01*
X103004000Y-123899395D01*
X103018143Y-123885253D01*
X103197748Y-124064858D01*
X103183605Y-124079000D01*
X103197748Y-124093143D01*
X103018143Y-124272748D01*
X103004000Y-124258605D01*
X102466255Y-124796350D01*
X102490977Y-125001180D01*
X102656702Y-125054510D01*
X102548800Y-125389822D01*
X102582267Y-125800209D01*
X102674929Y-126023914D01*
X102879759Y-126048636D01*
X103417504Y-125510891D01*
X103403362Y-125496749D01*
X103582967Y-125317144D01*
X103597109Y-125331286D01*
X104134854Y-124793541D01*
X104110132Y-124588711D01*
X103944407Y-124535381D01*
X104052309Y-124200069D01*
X104018842Y-123789682D01*
X103954290Y-123633841D01*
X104110132Y-123569289D01*
X104134854Y-123364459D01*
X105923146Y-123364459D01*
X105947868Y-123569289D01*
X106113593Y-123622619D01*
X106005691Y-123957931D01*
X106039158Y-124368318D01*
X106103710Y-124524159D01*
X105947868Y-124588711D01*
X105923146Y-124793541D01*
X106460891Y-125331286D01*
X106475034Y-125317144D01*
X106654639Y-125496749D01*
X106640496Y-125510891D01*
X107178241Y-126048636D01*
X107383071Y-126023914D01*
X107509200Y-125631960D01*
X107475733Y-125221573D01*
X107411181Y-125065732D01*
X107567023Y-125001180D01*
X107591745Y-124796350D01*
X107054000Y-124258605D01*
X107039858Y-124272748D01*
X106860253Y-124093143D01*
X106874395Y-124079000D01*
X107233605Y-124079000D01*
X107771350Y-124616745D01*
X107976180Y-124592023D01*
X108102309Y-124200069D01*
X108082563Y-123957931D01*
X190474691Y-123957931D01*
X190508158Y-124368318D01*
X190600820Y-124592023D01*
X190805650Y-124616745D01*
X191343395Y-124079000D01*
X190805650Y-123541255D01*
X190600820Y-123565977D01*
X190474691Y-123957931D01*
X108082563Y-123957931D01*
X108068842Y-123789682D01*
X107976180Y-123565977D01*
X107771350Y-123541255D01*
X107233605Y-124079000D01*
X106874395Y-124079000D01*
X106860253Y-124064858D01*
X107039858Y-123885253D01*
X107054000Y-123899395D01*
X107591745Y-123361650D01*
X190985255Y-123361650D01*
X191523000Y-123899395D01*
X191537143Y-123885253D01*
X191716748Y-124064858D01*
X191702605Y-124079000D01*
X191716748Y-124093143D01*
X191537143Y-124272748D01*
X191523000Y-124258605D01*
X190985255Y-124796350D01*
X191009977Y-125001180D01*
X191175702Y-125054510D01*
X191067800Y-125389822D01*
X191101267Y-125800209D01*
X191193929Y-126023914D01*
X191398759Y-126048636D01*
X191936504Y-125510891D01*
X191922362Y-125496749D01*
X192101967Y-125317144D01*
X192116109Y-125331286D01*
X192653854Y-124793541D01*
X192629132Y-124588711D01*
X192463407Y-124535381D01*
X192571309Y-124200069D01*
X192537842Y-123789682D01*
X192473290Y-123633841D01*
X192629132Y-123569289D01*
X192653854Y-123364459D01*
X194442146Y-123364459D01*
X194466868Y-123569289D01*
X194632593Y-123622619D01*
X194524691Y-123957931D01*
X194558158Y-124368318D01*
X194622710Y-124524159D01*
X194466868Y-124588711D01*
X194442146Y-124793541D01*
X194979891Y-125331286D01*
X194994034Y-125317144D01*
X195173639Y-125496749D01*
X195159496Y-125510891D01*
X195697241Y-126048636D01*
X195902071Y-126023914D01*
X196028200Y-125631960D01*
X195994733Y-125221573D01*
X195930181Y-125065732D01*
X196086023Y-125001180D01*
X196110745Y-124796350D01*
X195573000Y-124258605D01*
X195558858Y-124272748D01*
X195379253Y-124093143D01*
X195393395Y-124079000D01*
X195379253Y-124064858D01*
X195558858Y-123885253D01*
X195573000Y-123899395D01*
X196110745Y-123361650D01*
X196086023Y-123156820D01*
X195920298Y-123103490D01*
X196028200Y-122768178D01*
X195994733Y-122357791D01*
X195902071Y-122134086D01*
X195697241Y-122109364D01*
X195159496Y-122647109D01*
X195173639Y-122661252D01*
X194994034Y-122840857D01*
X194979891Y-122826714D01*
X194442146Y-123364459D01*
X192653854Y-123364459D01*
X192116109Y-122826714D01*
X192101967Y-122840857D01*
X191922362Y-122661252D01*
X191936504Y-122647109D01*
X191398759Y-122109364D01*
X191193929Y-122134086D01*
X191067800Y-122526040D01*
X191101267Y-122936427D01*
X191165819Y-123092268D01*
X191009977Y-123156820D01*
X190985255Y-123361650D01*
X107591745Y-123361650D01*
X107567023Y-123156820D01*
X107401298Y-123103490D01*
X107509200Y-122768178D01*
X107475733Y-122357791D01*
X107383071Y-122134086D01*
X107178241Y-122109364D01*
X106640496Y-122647109D01*
X106654639Y-122661252D01*
X106475034Y-122840857D01*
X106460891Y-122826714D01*
X105923146Y-123364459D01*
X104134854Y-123364459D01*
X103597109Y-122826714D01*
X103582967Y-122840857D01*
X103403362Y-122661252D01*
X103417504Y-122647109D01*
X102879759Y-122109364D01*
X102674929Y-122134086D01*
X102548800Y-122526040D01*
X102582267Y-122936427D01*
X102646819Y-123092268D01*
X102490977Y-123156820D01*
X102466255Y-123361650D01*
X102081000Y-123361650D01*
X102081000Y-121929759D01*
X103059364Y-121929759D01*
X103597109Y-122467504D01*
X103611252Y-122453362D01*
X103790857Y-122632967D01*
X103776714Y-122647109D01*
X104314459Y-123184854D01*
X104519289Y-123160132D01*
X104572619Y-122994407D01*
X104907931Y-123102309D01*
X105318318Y-123068842D01*
X105474159Y-123004290D01*
X105538711Y-123160132D01*
X105743541Y-123184854D01*
X106281286Y-122647109D01*
X106267144Y-122632967D01*
X106446749Y-122453362D01*
X106460891Y-122467504D01*
X106998636Y-121929759D01*
X191578364Y-121929759D01*
X192116109Y-122467504D01*
X192130252Y-122453362D01*
X192309857Y-122632967D01*
X192295714Y-122647109D01*
X192833459Y-123184854D01*
X193038289Y-123160132D01*
X193091619Y-122994407D01*
X193426931Y-123102309D01*
X193837318Y-123068842D01*
X193993159Y-123004290D01*
X194057711Y-123160132D01*
X194262541Y-123184854D01*
X194800286Y-122647109D01*
X194786144Y-122632967D01*
X194965749Y-122453362D01*
X194979891Y-122467504D01*
X195517636Y-121929759D01*
X195492914Y-121724929D01*
X195100960Y-121598800D01*
X194690573Y-121632267D01*
X194534732Y-121696819D01*
X194470180Y-121540977D01*
X194265350Y-121516255D01*
X193727605Y-122054000D01*
X193741748Y-122068143D01*
X193562143Y-122247748D01*
X193548000Y-122233605D01*
X193533858Y-122247748D01*
X193354253Y-122068143D01*
X193368395Y-122054000D01*
X192830650Y-121516255D01*
X192625820Y-121540977D01*
X192572490Y-121706702D01*
X192237178Y-121598800D01*
X191826791Y-121632267D01*
X191603086Y-121724929D01*
X191578364Y-121929759D01*
X106998636Y-121929759D01*
X106973914Y-121724929D01*
X106581960Y-121598800D01*
X106171573Y-121632267D01*
X106015732Y-121696819D01*
X105951180Y-121540977D01*
X105746350Y-121516255D01*
X105208605Y-122054000D01*
X105222748Y-122068143D01*
X105043143Y-122247748D01*
X105029000Y-122233605D01*
X105014858Y-122247748D01*
X104835253Y-122068143D01*
X104849395Y-122054000D01*
X104311650Y-121516255D01*
X104106820Y-121540977D01*
X104053490Y-121706702D01*
X103718178Y-121598800D01*
X103307791Y-121632267D01*
X103084086Y-121724929D01*
X103059364Y-121929759D01*
X102081000Y-121929759D01*
X102081000Y-121336650D01*
X104491255Y-121336650D01*
X105029000Y-121874395D01*
X105566745Y-121336650D01*
X193010255Y-121336650D01*
X193548000Y-121874395D01*
X194085745Y-121336650D01*
X194061023Y-121131820D01*
X193669069Y-121005691D01*
X193258682Y-121039158D01*
X193034977Y-121131820D01*
X193010255Y-121336650D01*
X105566745Y-121336650D01*
X105542023Y-121131820D01*
X105150069Y-121005691D01*
X104739682Y-121039158D01*
X104515977Y-121131820D01*
X104491255Y-121336650D01*
X102081000Y-121336650D01*
X102081000Y-116722532D01*
X103167073Y-116722532D01*
X103265736Y-116989387D01*
X103875461Y-117215908D01*
X104525460Y-117191856D01*
X105014264Y-116989387D01*
X105112927Y-116722532D01*
X104140000Y-115749605D01*
X103167073Y-116722532D01*
X102081000Y-116722532D01*
X102081000Y-115305461D01*
X102494092Y-115305461D01*
X102518144Y-115955460D01*
X102720613Y-116444264D01*
X102987468Y-116542927D01*
X103960395Y-115570000D01*
X104319605Y-115570000D01*
X105292532Y-116542927D01*
X105559387Y-116444264D01*
X105785908Y-115834539D01*
X105761856Y-115184540D01*
X105559387Y-114695736D01*
X105292532Y-114597073D01*
X104319605Y-115570000D01*
X103960395Y-115570000D01*
X102987468Y-114597073D01*
X102720613Y-114695736D01*
X102494092Y-115305461D01*
X102081000Y-115305461D01*
X102081000Y-114417468D01*
X103167073Y-114417468D01*
X104140000Y-115390395D01*
X105112927Y-114417468D01*
X105014264Y-114150613D01*
X104404539Y-113924092D01*
X103754540Y-113948144D01*
X103265736Y-114150613D01*
X103167073Y-114417468D01*
X102081000Y-114417468D01*
X102081000Y-113315750D01*
X113616000Y-113315750D01*
X113616000Y-114856310D01*
X113712673Y-115089699D01*
X113891302Y-115268327D01*
X114124691Y-115365000D01*
X115665250Y-115365000D01*
X115824000Y-115206250D01*
X115824000Y-113157000D01*
X116078000Y-113157000D01*
X116078000Y-115206250D01*
X116236750Y-115365000D01*
X117777309Y-115365000D01*
X118010698Y-115268327D01*
X118189327Y-115089699D01*
X118286000Y-114856310D01*
X118286000Y-114688422D01*
X123992183Y-114688422D01*
X124176371Y-115027970D01*
X125039509Y-115371316D01*
X125968336Y-115358218D01*
X126765629Y-115027970D01*
X126949817Y-114688422D01*
X133522183Y-114688422D01*
X133706371Y-115027970D01*
X134569509Y-115371316D01*
X135498336Y-115358218D01*
X136295629Y-115027970D01*
X136479817Y-114688422D01*
X143047183Y-114688422D01*
X143231371Y-115027970D01*
X144094509Y-115371316D01*
X145023336Y-115358218D01*
X145820629Y-115027970D01*
X146004817Y-114688422D01*
X152567183Y-114688422D01*
X152751371Y-115027970D01*
X153614509Y-115371316D01*
X154543336Y-115358218D01*
X155340629Y-115027970D01*
X155524817Y-114688422D01*
X162097183Y-114688422D01*
X162281371Y-115027970D01*
X163144509Y-115371316D01*
X164073336Y-115358218D01*
X164870629Y-115027970D01*
X165054817Y-114688422D01*
X171622183Y-114688422D01*
X171806371Y-115027970D01*
X172669509Y-115371316D01*
X173598336Y-115358218D01*
X174395629Y-115027970D01*
X174579817Y-114688422D01*
X181147183Y-114688422D01*
X181331371Y-115027970D01*
X182194509Y-115371316D01*
X183123336Y-115358218D01*
X183920629Y-115027970D01*
X184104817Y-114688422D01*
X182626000Y-113209605D01*
X181147183Y-114688422D01*
X174579817Y-114688422D01*
X173101000Y-113209605D01*
X171622183Y-114688422D01*
X165054817Y-114688422D01*
X163576000Y-113209605D01*
X162097183Y-114688422D01*
X155524817Y-114688422D01*
X154046000Y-113209605D01*
X152567183Y-114688422D01*
X146004817Y-114688422D01*
X144526000Y-113209605D01*
X143047183Y-114688422D01*
X136479817Y-114688422D01*
X135001000Y-113209605D01*
X133522183Y-114688422D01*
X126949817Y-114688422D01*
X125471000Y-113209605D01*
X123992183Y-114688422D01*
X118286000Y-114688422D01*
X118286000Y-113315750D01*
X118127250Y-113157000D01*
X116078000Y-113157000D01*
X115824000Y-113157000D01*
X113774750Y-113157000D01*
X113616000Y-113315750D01*
X102081000Y-113315750D01*
X102081000Y-110215302D01*
X102759000Y-110215302D01*
X102759000Y-110764698D01*
X102969245Y-111272273D01*
X103357727Y-111660755D01*
X103865302Y-111871000D01*
X104414698Y-111871000D01*
X104922273Y-111660755D01*
X105310755Y-111272273D01*
X105339163Y-111203690D01*
X113616000Y-111203690D01*
X113616000Y-112744250D01*
X113774750Y-112903000D01*
X115824000Y-112903000D01*
X115824000Y-110853750D01*
X116078000Y-110853750D01*
X116078000Y-112903000D01*
X118127250Y-112903000D01*
X118286000Y-112744250D01*
X118286000Y-112598509D01*
X123129684Y-112598509D01*
X123142782Y-113527336D01*
X123473030Y-114324629D01*
X123812578Y-114508817D01*
X125291395Y-113030000D01*
X125650605Y-113030000D01*
X127129422Y-114508817D01*
X127468970Y-114324629D01*
X127812316Y-113461491D01*
X127800147Y-112598509D01*
X132659684Y-112598509D01*
X132672782Y-113527336D01*
X133003030Y-114324629D01*
X133342578Y-114508817D01*
X134821395Y-113030000D01*
X135180605Y-113030000D01*
X136659422Y-114508817D01*
X136998970Y-114324629D01*
X137342316Y-113461491D01*
X137330147Y-112598509D01*
X142184684Y-112598509D01*
X142197782Y-113527336D01*
X142528030Y-114324629D01*
X142867578Y-114508817D01*
X144346395Y-113030000D01*
X144705605Y-113030000D01*
X146184422Y-114508817D01*
X146523970Y-114324629D01*
X146867316Y-113461491D01*
X146855147Y-112598509D01*
X151704684Y-112598509D01*
X151717782Y-113527336D01*
X152048030Y-114324629D01*
X152387578Y-114508817D01*
X153866395Y-113030000D01*
X154225605Y-113030000D01*
X155704422Y-114508817D01*
X156043970Y-114324629D01*
X156387316Y-113461491D01*
X156375147Y-112598509D01*
X161234684Y-112598509D01*
X161247782Y-113527336D01*
X161578030Y-114324629D01*
X161917578Y-114508817D01*
X163396395Y-113030000D01*
X163755605Y-113030000D01*
X165234422Y-114508817D01*
X165573970Y-114324629D01*
X165917316Y-113461491D01*
X165905147Y-112598509D01*
X170759684Y-112598509D01*
X170772782Y-113527336D01*
X171103030Y-114324629D01*
X171442578Y-114508817D01*
X172921395Y-113030000D01*
X173280605Y-113030000D01*
X174759422Y-114508817D01*
X175098970Y-114324629D01*
X175442316Y-113461491D01*
X175430147Y-112598509D01*
X180284684Y-112598509D01*
X180297782Y-113527336D01*
X180628030Y-114324629D01*
X180967578Y-114508817D01*
X182446395Y-113030000D01*
X182805605Y-113030000D01*
X184284422Y-114508817D01*
X184623970Y-114324629D01*
X184743038Y-114025302D01*
X192929000Y-114025302D01*
X192929000Y-114574698D01*
X193139245Y-115082273D01*
X193527727Y-115470755D01*
X194035302Y-115681000D01*
X194584698Y-115681000D01*
X195092273Y-115470755D01*
X195480755Y-115082273D01*
X195691000Y-114574698D01*
X195691000Y-114025302D01*
X195480755Y-113517727D01*
X195092273Y-113129245D01*
X194584698Y-112919000D01*
X194035302Y-112919000D01*
X193527727Y-113129245D01*
X193139245Y-113517727D01*
X192929000Y-114025302D01*
X184743038Y-114025302D01*
X184967316Y-113461491D01*
X184954218Y-112532664D01*
X184623970Y-111735371D01*
X184284422Y-111551183D01*
X182805605Y-113030000D01*
X182446395Y-113030000D01*
X180967578Y-111551183D01*
X180628030Y-111735371D01*
X180284684Y-112598509D01*
X175430147Y-112598509D01*
X175429218Y-112532664D01*
X175098970Y-111735371D01*
X174759422Y-111551183D01*
X173280605Y-113030000D01*
X172921395Y-113030000D01*
X171442578Y-111551183D01*
X171103030Y-111735371D01*
X170759684Y-112598509D01*
X165905147Y-112598509D01*
X165904218Y-112532664D01*
X165573970Y-111735371D01*
X165234422Y-111551183D01*
X163755605Y-113030000D01*
X163396395Y-113030000D01*
X161917578Y-111551183D01*
X161578030Y-111735371D01*
X161234684Y-112598509D01*
X156375147Y-112598509D01*
X156374218Y-112532664D01*
X156043970Y-111735371D01*
X155704422Y-111551183D01*
X154225605Y-113030000D01*
X153866395Y-113030000D01*
X152387578Y-111551183D01*
X152048030Y-111735371D01*
X151704684Y-112598509D01*
X146855147Y-112598509D01*
X146854218Y-112532664D01*
X146523970Y-111735371D01*
X146184422Y-111551183D01*
X144705605Y-113030000D01*
X144346395Y-113030000D01*
X142867578Y-111551183D01*
X142528030Y-111735371D01*
X142184684Y-112598509D01*
X137330147Y-112598509D01*
X137329218Y-112532664D01*
X136998970Y-111735371D01*
X136659422Y-111551183D01*
X135180605Y-113030000D01*
X134821395Y-113030000D01*
X133342578Y-111551183D01*
X133003030Y-111735371D01*
X132659684Y-112598509D01*
X127800147Y-112598509D01*
X127799218Y-112532664D01*
X127468970Y-111735371D01*
X127129422Y-111551183D01*
X125650605Y-113030000D01*
X125291395Y-113030000D01*
X123812578Y-111551183D01*
X123473030Y-111735371D01*
X123129684Y-112598509D01*
X118286000Y-112598509D01*
X118286000Y-111371578D01*
X123992183Y-111371578D01*
X125471000Y-112850395D01*
X126949817Y-111371578D01*
X133522183Y-111371578D01*
X135001000Y-112850395D01*
X136479817Y-111371578D01*
X143047183Y-111371578D01*
X144526000Y-112850395D01*
X146004817Y-111371578D01*
X152567183Y-111371578D01*
X154046000Y-112850395D01*
X155524817Y-111371578D01*
X162097183Y-111371578D01*
X163576000Y-112850395D01*
X165054817Y-111371578D01*
X171622183Y-111371578D01*
X173101000Y-112850395D01*
X174579817Y-111371578D01*
X181147183Y-111371578D01*
X182626000Y-112850395D01*
X184104817Y-111371578D01*
X183920629Y-111032030D01*
X183057491Y-110688684D01*
X182128664Y-110701782D01*
X181331371Y-111032030D01*
X181147183Y-111371578D01*
X174579817Y-111371578D01*
X174395629Y-111032030D01*
X173532491Y-110688684D01*
X172603664Y-110701782D01*
X171806371Y-111032030D01*
X171622183Y-111371578D01*
X165054817Y-111371578D01*
X164870629Y-111032030D01*
X164007491Y-110688684D01*
X163078664Y-110701782D01*
X162281371Y-111032030D01*
X162097183Y-111371578D01*
X155524817Y-111371578D01*
X155340629Y-111032030D01*
X154477491Y-110688684D01*
X153548664Y-110701782D01*
X152751371Y-111032030D01*
X152567183Y-111371578D01*
X146004817Y-111371578D01*
X145820629Y-111032030D01*
X144957491Y-110688684D01*
X144028664Y-110701782D01*
X143231371Y-111032030D01*
X143047183Y-111371578D01*
X136479817Y-111371578D01*
X136295629Y-111032030D01*
X135432491Y-110688684D01*
X134503664Y-110701782D01*
X133706371Y-111032030D01*
X133522183Y-111371578D01*
X126949817Y-111371578D01*
X126765629Y-111032030D01*
X125902491Y-110688684D01*
X124973664Y-110701782D01*
X124176371Y-111032030D01*
X123992183Y-111371578D01*
X118286000Y-111371578D01*
X118286000Y-111203690D01*
X118189327Y-110970301D01*
X118010698Y-110791673D01*
X117777309Y-110695000D01*
X116236750Y-110695000D01*
X116078000Y-110853750D01*
X115824000Y-110853750D01*
X115665250Y-110695000D01*
X114124691Y-110695000D01*
X113891302Y-110791673D01*
X113712673Y-110970301D01*
X113616000Y-111203690D01*
X105339163Y-111203690D01*
X105521000Y-110764698D01*
X105521000Y-110372532D01*
X193337073Y-110372532D01*
X193435736Y-110639387D01*
X194045461Y-110865908D01*
X194695460Y-110841856D01*
X195184264Y-110639387D01*
X195282927Y-110372532D01*
X194310000Y-109399605D01*
X193337073Y-110372532D01*
X105521000Y-110372532D01*
X105521000Y-110215302D01*
X105310755Y-109707727D01*
X104922273Y-109319245D01*
X104414698Y-109109000D01*
X103865302Y-109109000D01*
X103357727Y-109319245D01*
X102969245Y-109707727D01*
X102759000Y-110215302D01*
X102081000Y-110215302D01*
X102081000Y-108955461D01*
X192664092Y-108955461D01*
X192688144Y-109605460D01*
X192890613Y-110094264D01*
X193157468Y-110192927D01*
X194130395Y-109220000D01*
X194489605Y-109220000D01*
X195462532Y-110192927D01*
X195729387Y-110094264D01*
X195955908Y-109484539D01*
X195931856Y-108834540D01*
X195729387Y-108345736D01*
X195462532Y-108247073D01*
X194489605Y-109220000D01*
X194130395Y-109220000D01*
X193157468Y-108247073D01*
X192890613Y-108345736D01*
X192664092Y-108955461D01*
X102081000Y-108955461D01*
X102081000Y-108067468D01*
X193337073Y-108067468D01*
X194310000Y-109040395D01*
X195282927Y-108067468D01*
X195184264Y-107800613D01*
X194574539Y-107574092D01*
X193924540Y-107598144D01*
X193435736Y-107800613D01*
X193337073Y-108067468D01*
X102081000Y-108067468D01*
X102081000Y-104022532D01*
X103167073Y-104022532D01*
X103265736Y-104289387D01*
X103875461Y-104515908D01*
X104525460Y-104491856D01*
X105014264Y-104289387D01*
X105112927Y-104022532D01*
X104140000Y-103049605D01*
X103167073Y-104022532D01*
X102081000Y-104022532D01*
X102081000Y-102605461D01*
X102494092Y-102605461D01*
X102518144Y-103255460D01*
X102720613Y-103744264D01*
X102987468Y-103842927D01*
X103960395Y-102870000D01*
X104319605Y-102870000D01*
X105292532Y-103842927D01*
X105559387Y-103744264D01*
X105785908Y-103134539D01*
X105761856Y-102484540D01*
X105722672Y-102389940D01*
X113431476Y-102389940D01*
X113431476Y-105890060D01*
X113461046Y-106038719D01*
X113545254Y-106164746D01*
X113671281Y-106248954D01*
X113819940Y-106278524D01*
X117320060Y-106278524D01*
X117468719Y-106248954D01*
X117594746Y-106164746D01*
X117678954Y-106038719D01*
X117708524Y-105890060D01*
X117708524Y-104610000D01*
X120731536Y-104610000D01*
X120731536Y-106210000D01*
X120761106Y-106358659D01*
X120845314Y-106484686D01*
X120971341Y-106568894D01*
X121120000Y-106598464D01*
X122720000Y-106598464D01*
X122868659Y-106568894D01*
X122994686Y-106484686D01*
X123078894Y-106358659D01*
X123108464Y-106210000D01*
X123108464Y-104610000D01*
X123078894Y-104461341D01*
X122994686Y-104335314D01*
X122868659Y-104251106D01*
X122720000Y-104221536D01*
X122534773Y-104221536D01*
X122674005Y-104163864D01*
X122748139Y-103917745D01*
X121920000Y-103089605D01*
X121091861Y-103917745D01*
X121165995Y-104163864D01*
X121326445Y-104221536D01*
X121120000Y-104221536D01*
X120971341Y-104251106D01*
X120845314Y-104335314D01*
X120761106Y-104461341D01*
X120731536Y-104610000D01*
X117708524Y-104610000D01*
X117708524Y-102693223D01*
X120473035Y-102693223D01*
X120500222Y-103263454D01*
X120666136Y-103664005D01*
X120912255Y-103738139D01*
X121740395Y-102910000D01*
X122099605Y-102910000D01*
X122927745Y-103738139D01*
X123173864Y-103664005D01*
X123366965Y-103126777D01*
X123339778Y-102556546D01*
X123173864Y-102155995D01*
X122927745Y-102081861D01*
X122099605Y-102910000D01*
X121740395Y-102910000D01*
X120912255Y-102081861D01*
X120666136Y-102155995D01*
X120473035Y-102693223D01*
X117708524Y-102693223D01*
X117708524Y-102389940D01*
X117678954Y-102241281D01*
X117594746Y-102115254D01*
X117468719Y-102031046D01*
X117320060Y-102001476D01*
X113819940Y-102001476D01*
X113671281Y-102031046D01*
X113545254Y-102115254D01*
X113461046Y-102241281D01*
X113431476Y-102389940D01*
X105722672Y-102389940D01*
X105559387Y-101995736D01*
X105306548Y-101902255D01*
X121091861Y-101902255D01*
X121920000Y-102730395D01*
X122748139Y-101902255D01*
X122674005Y-101656136D01*
X122136777Y-101463035D01*
X121566546Y-101490222D01*
X121165995Y-101656136D01*
X121091861Y-101902255D01*
X105306548Y-101902255D01*
X105292532Y-101897073D01*
X104319605Y-102870000D01*
X103960395Y-102870000D01*
X102987468Y-101897073D01*
X102720613Y-101995736D01*
X102494092Y-102605461D01*
X102081000Y-102605461D01*
X102081000Y-101717468D01*
X103167073Y-101717468D01*
X104140000Y-102690395D01*
X105112927Y-101717468D01*
X105014264Y-101450613D01*
X104404539Y-101224092D01*
X103754540Y-101248144D01*
X103265736Y-101450613D01*
X103167073Y-101717468D01*
X102081000Y-101717468D01*
X102081000Y-99977726D01*
X129928000Y-99977726D01*
X129928000Y-100682274D01*
X130197619Y-101333191D01*
X130695809Y-101831381D01*
X131346726Y-102101000D01*
X132051274Y-102101000D01*
X132702191Y-101831381D01*
X133200381Y-101333191D01*
X133470000Y-100682274D01*
X133470000Y-99977726D01*
X136659000Y-99977726D01*
X136659000Y-100682274D01*
X136928619Y-101333191D01*
X137426809Y-101831381D01*
X138077726Y-102101000D01*
X138782274Y-102101000D01*
X139433191Y-101831381D01*
X139931381Y-101333191D01*
X140201000Y-100682274D01*
X140201000Y-99977726D01*
X147708000Y-99977726D01*
X147708000Y-100682274D01*
X147977619Y-101333191D01*
X148475809Y-101831381D01*
X149126726Y-102101000D01*
X149831274Y-102101000D01*
X150482191Y-101831381D01*
X150980381Y-101333191D01*
X151250000Y-100682274D01*
X151250000Y-99977726D01*
X154439000Y-99977726D01*
X154439000Y-100682274D01*
X154708619Y-101333191D01*
X155206809Y-101831381D01*
X155857726Y-102101000D01*
X156562274Y-102101000D01*
X157213191Y-101831381D01*
X157711381Y-101333191D01*
X157981000Y-100682274D01*
X157981000Y-99977726D01*
X157711381Y-99326809D01*
X157213191Y-98828619D01*
X156562274Y-98559000D01*
X155857726Y-98559000D01*
X155206809Y-98828619D01*
X154708619Y-99326809D01*
X154439000Y-99977726D01*
X151250000Y-99977726D01*
X150980381Y-99326809D01*
X150482191Y-98828619D01*
X149831274Y-98559000D01*
X149126726Y-98559000D01*
X148475809Y-98828619D01*
X147977619Y-99326809D01*
X147708000Y-99977726D01*
X140201000Y-99977726D01*
X139931381Y-99326809D01*
X139433191Y-98828619D01*
X138782274Y-98559000D01*
X138077726Y-98559000D01*
X137426809Y-98828619D01*
X136928619Y-99326809D01*
X136659000Y-99977726D01*
X133470000Y-99977726D01*
X133200381Y-99326809D01*
X132702191Y-98828619D01*
X132051274Y-98559000D01*
X131346726Y-98559000D01*
X130695809Y-98828619D01*
X130197619Y-99326809D01*
X129928000Y-99977726D01*
X102081000Y-99977726D01*
X102081000Y-97515302D01*
X102759000Y-97515302D01*
X102759000Y-98064698D01*
X102969245Y-98572273D01*
X103357727Y-98960755D01*
X103865302Y-99171000D01*
X104414698Y-99171000D01*
X104922273Y-98960755D01*
X105125283Y-98757745D01*
X121091861Y-98757745D01*
X121165995Y-99003864D01*
X121703223Y-99196965D01*
X122273454Y-99169778D01*
X122674005Y-99003864D01*
X122748139Y-98757745D01*
X121920000Y-97929605D01*
X121091861Y-98757745D01*
X105125283Y-98757745D01*
X105310755Y-98572273D01*
X105521000Y-98064698D01*
X105521000Y-97515302D01*
X105310755Y-97007727D01*
X104922273Y-96619245D01*
X104414698Y-96409000D01*
X103865302Y-96409000D01*
X103357727Y-96619245D01*
X102969245Y-97007727D01*
X102759000Y-97515302D01*
X102081000Y-97515302D01*
X102081000Y-94769940D01*
X113431476Y-94769940D01*
X113431476Y-98270060D01*
X113461046Y-98418719D01*
X113545254Y-98544746D01*
X113671281Y-98628954D01*
X113819940Y-98658524D01*
X117320060Y-98658524D01*
X117468719Y-98628954D01*
X117594746Y-98544746D01*
X117678954Y-98418719D01*
X117708524Y-98270060D01*
X117708524Y-97533223D01*
X120473035Y-97533223D01*
X120500222Y-98103454D01*
X120666136Y-98504005D01*
X120912255Y-98578139D01*
X121740395Y-97750000D01*
X122099605Y-97750000D01*
X122927745Y-98578139D01*
X123173864Y-98504005D01*
X123366965Y-97966777D01*
X123339778Y-97396546D01*
X123173864Y-96995995D01*
X122927745Y-96921861D01*
X122099605Y-97750000D01*
X121740395Y-97750000D01*
X120912255Y-96921861D01*
X120666136Y-96995995D01*
X120473035Y-97533223D01*
X117708524Y-97533223D01*
X117708524Y-94769940D01*
X117678954Y-94621281D01*
X117594746Y-94495254D01*
X117527019Y-94450000D01*
X120731536Y-94450000D01*
X120731536Y-96050000D01*
X120761106Y-96198659D01*
X120845314Y-96324686D01*
X120971341Y-96408894D01*
X121120000Y-96438464D01*
X121305227Y-96438464D01*
X121165995Y-96496136D01*
X121091861Y-96742255D01*
X121920000Y-97570395D01*
X122748139Y-96742255D01*
X122674005Y-96496136D01*
X122513555Y-96438464D01*
X122720000Y-96438464D01*
X122868659Y-96408894D01*
X122994686Y-96324686D01*
X123078894Y-96198659D01*
X123108464Y-96050000D01*
X123108464Y-94450000D01*
X123078894Y-94301341D01*
X122994686Y-94175314D01*
X122868659Y-94091106D01*
X122720000Y-94061536D01*
X121120000Y-94061536D01*
X120971341Y-94091106D01*
X120845314Y-94175314D01*
X120761106Y-94301341D01*
X120731536Y-94450000D01*
X117527019Y-94450000D01*
X117468719Y-94411046D01*
X117320060Y-94381476D01*
X113819940Y-94381476D01*
X113671281Y-94411046D01*
X113545254Y-94495254D01*
X113461046Y-94621281D01*
X113431476Y-94769940D01*
X102081000Y-94769940D01*
X102081000Y-93091000D01*
X160274000Y-93091000D01*
X160274000Y-107061000D01*
X160322336Y-107304004D01*
X160459987Y-107510013D01*
X160665996Y-107647664D01*
X160909000Y-107696000D01*
X178689000Y-107696000D01*
X178932004Y-107647664D01*
X179138013Y-107510013D01*
X179275664Y-107304004D01*
X179324000Y-107061000D01*
X179324000Y-104356000D01*
X189311536Y-104356000D01*
X189311536Y-105956000D01*
X189341106Y-106104659D01*
X189425314Y-106230686D01*
X189551341Y-106314894D01*
X189700000Y-106344464D01*
X191300000Y-106344464D01*
X191448659Y-106314894D01*
X191574686Y-106230686D01*
X191658894Y-106104659D01*
X191688464Y-105956000D01*
X191688464Y-104356000D01*
X191658894Y-104207341D01*
X191574686Y-104081314D01*
X191448659Y-103997106D01*
X191300000Y-103967536D01*
X189700000Y-103967536D01*
X189551341Y-103997106D01*
X189425314Y-104081314D01*
X189341106Y-104207341D01*
X189311536Y-104356000D01*
X179324000Y-104356000D01*
X179324000Y-102878371D01*
X180207162Y-102878371D01*
X180207162Y-103671430D01*
X180303835Y-103904819D01*
X180482463Y-104083448D01*
X180715852Y-104180121D01*
X181556412Y-104180121D01*
X181715162Y-104021371D01*
X181715162Y-102719621D01*
X181969162Y-102719621D01*
X181969162Y-104021371D01*
X182127912Y-104180121D01*
X182968472Y-104180121D01*
X183201861Y-104083448D01*
X183380489Y-103904819D01*
X183396857Y-103865302D01*
X193056000Y-103865302D01*
X193056000Y-104414698D01*
X193266245Y-104922273D01*
X193654727Y-105310755D01*
X194162302Y-105521000D01*
X194711698Y-105521000D01*
X195219273Y-105310755D01*
X195607755Y-104922273D01*
X195818000Y-104414698D01*
X195818000Y-103865302D01*
X195607755Y-103357727D01*
X195219273Y-102969245D01*
X194711698Y-102759000D01*
X194162302Y-102759000D01*
X193654727Y-102969245D01*
X193266245Y-103357727D01*
X193056000Y-103865302D01*
X183396857Y-103865302D01*
X183477162Y-103671430D01*
X183477162Y-102878371D01*
X183318412Y-102719621D01*
X181969162Y-102719621D01*
X181715162Y-102719621D01*
X180365912Y-102719621D01*
X180207162Y-102878371D01*
X179324000Y-102878371D01*
X179324000Y-101513812D01*
X180207162Y-101513812D01*
X180207162Y-102306871D01*
X180365912Y-102465621D01*
X181715162Y-102465621D01*
X181715162Y-102445621D01*
X181969162Y-102445621D01*
X181969162Y-102465621D01*
X183318412Y-102465621D01*
X183477162Y-102306871D01*
X183477162Y-101513812D01*
X183380489Y-101280423D01*
X183201861Y-101101794D01*
X182968472Y-101005121D01*
X182857007Y-101005121D01*
X183145791Y-100572927D01*
X183217477Y-100212532D01*
X193464073Y-100212532D01*
X193562736Y-100479387D01*
X194172461Y-100705908D01*
X194822460Y-100681856D01*
X195311264Y-100479387D01*
X195409927Y-100212532D01*
X194437000Y-99239605D01*
X193464073Y-100212532D01*
X183217477Y-100212532D01*
X183249286Y-100052621D01*
X183145791Y-99532315D01*
X182851061Y-99091222D01*
X182409968Y-98796492D01*
X182404785Y-98795461D01*
X192791092Y-98795461D01*
X192815144Y-99445460D01*
X193017613Y-99934264D01*
X193284468Y-100032927D01*
X194257395Y-99060000D01*
X194616605Y-99060000D01*
X195589532Y-100032927D01*
X195856387Y-99934264D01*
X196082908Y-99324539D01*
X196058856Y-98674540D01*
X195856387Y-98185736D01*
X195589532Y-98087073D01*
X194616605Y-99060000D01*
X194257395Y-99060000D01*
X193284468Y-98087073D01*
X193017613Y-98185736D01*
X192791092Y-98795461D01*
X182404785Y-98795461D01*
X182340234Y-98782621D01*
X182409968Y-98768750D01*
X182851061Y-98474020D01*
X183145791Y-98032927D01*
X183244635Y-97536000D01*
X189295863Y-97536000D01*
X189387522Y-97996803D01*
X189648547Y-98387453D01*
X190039197Y-98648478D01*
X190383682Y-98717000D01*
X190616318Y-98717000D01*
X190960803Y-98648478D01*
X191351453Y-98387453D01*
X191612478Y-97996803D01*
X191630247Y-97907468D01*
X193464073Y-97907468D01*
X194437000Y-98880395D01*
X195409927Y-97907468D01*
X195311264Y-97640613D01*
X194701539Y-97414092D01*
X194051540Y-97438144D01*
X193562736Y-97640613D01*
X193464073Y-97907468D01*
X191630247Y-97907468D01*
X191704137Y-97536000D01*
X191612478Y-97075197D01*
X191351453Y-96684547D01*
X190960803Y-96423522D01*
X190616318Y-96355000D01*
X190383682Y-96355000D01*
X190039197Y-96423522D01*
X189648547Y-96684547D01*
X189387522Y-97075197D01*
X189295863Y-97536000D01*
X183244635Y-97536000D01*
X183249286Y-97512621D01*
X183145791Y-96992315D01*
X182851061Y-96551222D01*
X182409968Y-96256492D01*
X182020997Y-96179121D01*
X181663327Y-96179121D01*
X181274356Y-96256492D01*
X180833263Y-96551222D01*
X180538533Y-96992315D01*
X180435038Y-97512621D01*
X180538533Y-98032927D01*
X180833263Y-98474020D01*
X181274356Y-98768750D01*
X181344090Y-98782621D01*
X181274356Y-98796492D01*
X180833263Y-99091222D01*
X180538533Y-99532315D01*
X180435038Y-100052621D01*
X180538533Y-100572927D01*
X180827317Y-101005121D01*
X180715852Y-101005121D01*
X180482463Y-101101794D01*
X180303835Y-101280423D01*
X180207162Y-101513812D01*
X179324000Y-101513812D01*
X179324000Y-93705302D01*
X193056000Y-93705302D01*
X193056000Y-94254698D01*
X193266245Y-94762273D01*
X193654727Y-95150755D01*
X194162302Y-95361000D01*
X194711698Y-95361000D01*
X195219273Y-95150755D01*
X195607755Y-94762273D01*
X195818000Y-94254698D01*
X195818000Y-93705302D01*
X195607755Y-93197727D01*
X195219273Y-92809245D01*
X194711698Y-92599000D01*
X194162302Y-92599000D01*
X193654727Y-92809245D01*
X193266245Y-93197727D01*
X193056000Y-93705302D01*
X179324000Y-93705302D01*
X179324000Y-93091000D01*
X179275664Y-92847996D01*
X179138013Y-92641987D01*
X178932004Y-92504336D01*
X178689000Y-92456000D01*
X160909000Y-92456000D01*
X160665996Y-92504336D01*
X160459987Y-92641987D01*
X160322336Y-92847996D01*
X160274000Y-93091000D01*
X102081000Y-93091000D01*
X102081000Y-89895302D01*
X102759000Y-89895302D01*
X102759000Y-90444698D01*
X102969245Y-90952273D01*
X103357727Y-91340755D01*
X103865302Y-91551000D01*
X104414698Y-91551000D01*
X104922273Y-91340755D01*
X105310755Y-90952273D01*
X105521000Y-90444698D01*
X105521000Y-90052532D01*
X193591073Y-90052532D01*
X193689736Y-90319387D01*
X194299461Y-90545908D01*
X194949460Y-90521856D01*
X195438264Y-90319387D01*
X195536927Y-90052532D01*
X194564000Y-89079605D01*
X193591073Y-90052532D01*
X105521000Y-90052532D01*
X105521000Y-89895302D01*
X105310755Y-89387727D01*
X104922273Y-88999245D01*
X104414698Y-88789000D01*
X103865302Y-88789000D01*
X103357727Y-88999245D01*
X102969245Y-89387727D01*
X102759000Y-89895302D01*
X102081000Y-89895302D01*
X102081000Y-86242532D01*
X103167073Y-86242532D01*
X103265736Y-86509387D01*
X103875461Y-86735908D01*
X104525460Y-86711856D01*
X104841222Y-86581063D01*
X113870000Y-86581063D01*
X113870000Y-87408937D01*
X114186814Y-88173792D01*
X114772208Y-88759186D01*
X115537063Y-89076000D01*
X116364937Y-89076000D01*
X117129792Y-88759186D01*
X117715186Y-88173792D01*
X118032000Y-87408937D01*
X118032000Y-86581063D01*
X123395000Y-86581063D01*
X123395000Y-87408937D01*
X123711814Y-88173792D01*
X124297208Y-88759186D01*
X125062063Y-89076000D01*
X125889937Y-89076000D01*
X126654792Y-88759186D01*
X127240186Y-88173792D01*
X127557000Y-87408937D01*
X127557000Y-86581063D01*
X132920000Y-86581063D01*
X132920000Y-87408937D01*
X133236814Y-88173792D01*
X133822208Y-88759186D01*
X134587063Y-89076000D01*
X135414937Y-89076000D01*
X136179792Y-88759186D01*
X136765186Y-88173792D01*
X137082000Y-87408937D01*
X137082000Y-86581063D01*
X142450000Y-86581063D01*
X142450000Y-87408937D01*
X142766814Y-88173792D01*
X143352208Y-88759186D01*
X144117063Y-89076000D01*
X144944937Y-89076000D01*
X145709792Y-88759186D01*
X146295186Y-88173792D01*
X146612000Y-87408937D01*
X146612000Y-86581063D01*
X151970000Y-86581063D01*
X151970000Y-87408937D01*
X152286814Y-88173792D01*
X152872208Y-88759186D01*
X153637063Y-89076000D01*
X154464937Y-89076000D01*
X155229792Y-88759186D01*
X155815186Y-88173792D01*
X156132000Y-87408937D01*
X156132000Y-86581063D01*
X161495000Y-86581063D01*
X161495000Y-87408937D01*
X161811814Y-88173792D01*
X162397208Y-88759186D01*
X163162063Y-89076000D01*
X163989937Y-89076000D01*
X164754792Y-88759186D01*
X165340186Y-88173792D01*
X165657000Y-87408937D01*
X165657000Y-86581063D01*
X171025000Y-86581063D01*
X171025000Y-87408937D01*
X171341814Y-88173792D01*
X171927208Y-88759186D01*
X172692063Y-89076000D01*
X173519937Y-89076000D01*
X174284792Y-88759186D01*
X174870186Y-88173792D01*
X175187000Y-87408937D01*
X175187000Y-86581063D01*
X174870186Y-85816208D01*
X174348978Y-85295000D01*
X180537536Y-85295000D01*
X180537536Y-88695000D01*
X180567106Y-88843659D01*
X180651314Y-88969686D01*
X180777341Y-89053894D01*
X180926000Y-89083464D01*
X184326000Y-89083464D01*
X184474659Y-89053894D01*
X184600686Y-88969686D01*
X184684894Y-88843659D01*
X184714464Y-88695000D01*
X184714464Y-88635461D01*
X192918092Y-88635461D01*
X192942144Y-89285460D01*
X193144613Y-89774264D01*
X193411468Y-89872927D01*
X194384395Y-88900000D01*
X194743605Y-88900000D01*
X195716532Y-89872927D01*
X195983387Y-89774264D01*
X196209908Y-89164539D01*
X196185856Y-88514540D01*
X195983387Y-88025736D01*
X195716532Y-87927073D01*
X194743605Y-88900000D01*
X194384395Y-88900000D01*
X193411468Y-87927073D01*
X193144613Y-88025736D01*
X192918092Y-88635461D01*
X184714464Y-88635461D01*
X184714464Y-87747468D01*
X193591073Y-87747468D01*
X194564000Y-88720395D01*
X195536927Y-87747468D01*
X195438264Y-87480613D01*
X194828539Y-87254092D01*
X194178540Y-87278144D01*
X193689736Y-87480613D01*
X193591073Y-87747468D01*
X184714464Y-87747468D01*
X184714464Y-85295000D01*
X184684894Y-85146341D01*
X184600686Y-85020314D01*
X184474659Y-84936106D01*
X184326000Y-84906536D01*
X180926000Y-84906536D01*
X180777341Y-84936106D01*
X180651314Y-85020314D01*
X180567106Y-85146341D01*
X180537536Y-85295000D01*
X174348978Y-85295000D01*
X174284792Y-85230814D01*
X173519937Y-84914000D01*
X172692063Y-84914000D01*
X171927208Y-85230814D01*
X171341814Y-85816208D01*
X171025000Y-86581063D01*
X165657000Y-86581063D01*
X165340186Y-85816208D01*
X164754792Y-85230814D01*
X163989937Y-84914000D01*
X163162063Y-84914000D01*
X162397208Y-85230814D01*
X161811814Y-85816208D01*
X161495000Y-86581063D01*
X156132000Y-86581063D01*
X155815186Y-85816208D01*
X155229792Y-85230814D01*
X154464937Y-84914000D01*
X153637063Y-84914000D01*
X152872208Y-85230814D01*
X152286814Y-85816208D01*
X151970000Y-86581063D01*
X146612000Y-86581063D01*
X146295186Y-85816208D01*
X145709792Y-85230814D01*
X144944937Y-84914000D01*
X144117063Y-84914000D01*
X143352208Y-85230814D01*
X142766814Y-85816208D01*
X142450000Y-86581063D01*
X137082000Y-86581063D01*
X136765186Y-85816208D01*
X136179792Y-85230814D01*
X135414937Y-84914000D01*
X134587063Y-84914000D01*
X133822208Y-85230814D01*
X133236814Y-85816208D01*
X132920000Y-86581063D01*
X127557000Y-86581063D01*
X127240186Y-85816208D01*
X126654792Y-85230814D01*
X125889937Y-84914000D01*
X125062063Y-84914000D01*
X124297208Y-85230814D01*
X123711814Y-85816208D01*
X123395000Y-86581063D01*
X118032000Y-86581063D01*
X117715186Y-85816208D01*
X117129792Y-85230814D01*
X116364937Y-84914000D01*
X115537063Y-84914000D01*
X114772208Y-85230814D01*
X114186814Y-85816208D01*
X113870000Y-86581063D01*
X104841222Y-86581063D01*
X105014264Y-86509387D01*
X105112927Y-86242532D01*
X104140000Y-85269605D01*
X103167073Y-86242532D01*
X102081000Y-86242532D01*
X102081000Y-84825461D01*
X102494092Y-84825461D01*
X102518144Y-85475460D01*
X102720613Y-85964264D01*
X102987468Y-86062927D01*
X103960395Y-85090000D01*
X104319605Y-85090000D01*
X105292532Y-86062927D01*
X105559387Y-85964264D01*
X105785908Y-85354539D01*
X105761856Y-84704540D01*
X105559387Y-84215736D01*
X105292532Y-84117073D01*
X104319605Y-85090000D01*
X103960395Y-85090000D01*
X102987468Y-84117073D01*
X102720613Y-84215736D01*
X102494092Y-84825461D01*
X102081000Y-84825461D01*
X102081000Y-83937468D01*
X103167073Y-83937468D01*
X104140000Y-84910395D01*
X105112927Y-83937468D01*
X105014264Y-83670613D01*
X104404539Y-83444092D01*
X103754540Y-83468144D01*
X103265736Y-83670613D01*
X103167073Y-83937468D01*
X102081000Y-83937468D01*
X102081000Y-78688350D01*
X104491255Y-78688350D01*
X104515977Y-78893180D01*
X104907931Y-79019309D01*
X105318318Y-78985842D01*
X105542023Y-78893180D01*
X105566745Y-78688350D01*
X193010255Y-78688350D01*
X193034977Y-78893180D01*
X193426931Y-79019309D01*
X193837318Y-78985842D01*
X194061023Y-78893180D01*
X194085745Y-78688350D01*
X193548000Y-78150605D01*
X193010255Y-78688350D01*
X105566745Y-78688350D01*
X105029000Y-78150605D01*
X104491255Y-78688350D01*
X102081000Y-78688350D01*
X102081000Y-78095241D01*
X103059364Y-78095241D01*
X103084086Y-78300071D01*
X103476040Y-78426200D01*
X103886427Y-78392733D01*
X104042268Y-78328181D01*
X104106820Y-78484023D01*
X104311650Y-78508745D01*
X104849395Y-77971000D01*
X104835253Y-77956858D01*
X105014858Y-77777253D01*
X105029000Y-77791395D01*
X105043143Y-77777253D01*
X105222748Y-77956858D01*
X105208605Y-77971000D01*
X105746350Y-78508745D01*
X105951180Y-78484023D01*
X106004510Y-78318298D01*
X106339822Y-78426200D01*
X106750209Y-78392733D01*
X106973914Y-78300071D01*
X106998636Y-78095241D01*
X191578364Y-78095241D01*
X191603086Y-78300071D01*
X191995040Y-78426200D01*
X192405427Y-78392733D01*
X192561268Y-78328181D01*
X192625820Y-78484023D01*
X192830650Y-78508745D01*
X193368395Y-77971000D01*
X193354253Y-77956858D01*
X193533858Y-77777253D01*
X193548000Y-77791395D01*
X193562143Y-77777253D01*
X193741748Y-77956858D01*
X193727605Y-77971000D01*
X194265350Y-78508745D01*
X194470180Y-78484023D01*
X194523510Y-78318298D01*
X194858822Y-78426200D01*
X195269209Y-78392733D01*
X195492914Y-78300071D01*
X195517636Y-78095241D01*
X194979891Y-77557496D01*
X194965749Y-77571639D01*
X194786144Y-77392034D01*
X194800286Y-77377891D01*
X194262541Y-76840146D01*
X194057711Y-76864868D01*
X194004381Y-77030593D01*
X193669069Y-76922691D01*
X193258682Y-76956158D01*
X193102841Y-77020710D01*
X193038289Y-76864868D01*
X192833459Y-76840146D01*
X192295714Y-77377891D01*
X192309857Y-77392034D01*
X192130252Y-77571639D01*
X192116109Y-77557496D01*
X191578364Y-78095241D01*
X106998636Y-78095241D01*
X106460891Y-77557496D01*
X106446749Y-77571639D01*
X106267144Y-77392034D01*
X106281286Y-77377891D01*
X105743541Y-76840146D01*
X105538711Y-76864868D01*
X105485381Y-77030593D01*
X105150069Y-76922691D01*
X104739682Y-76956158D01*
X104583841Y-77020710D01*
X104519289Y-76864868D01*
X104314459Y-76840146D01*
X103776714Y-77377891D01*
X103790857Y-77392034D01*
X103611252Y-77571639D01*
X103597109Y-77557496D01*
X103059364Y-78095241D01*
X102081000Y-78095241D01*
X102081000Y-76457043D01*
X102081820Y-76459023D01*
X102286650Y-76483745D01*
X102824395Y-75946000D01*
X102286650Y-75408255D01*
X102081820Y-75432977D01*
X102081000Y-75435525D01*
X102081000Y-75228650D01*
X102466255Y-75228650D01*
X103004000Y-75766395D01*
X103018143Y-75752253D01*
X103197748Y-75931858D01*
X103183605Y-75946000D01*
X103197748Y-75960143D01*
X103018143Y-76139748D01*
X103004000Y-76125605D01*
X102466255Y-76663350D01*
X102490977Y-76868180D01*
X102656702Y-76921510D01*
X102548800Y-77256822D01*
X102582267Y-77667209D01*
X102674929Y-77890914D01*
X102879759Y-77915636D01*
X103417504Y-77377891D01*
X103403362Y-77363749D01*
X103582967Y-77184144D01*
X103597109Y-77198286D01*
X104134854Y-76660541D01*
X104110132Y-76455711D01*
X103944407Y-76402381D01*
X104052309Y-76067069D01*
X104018842Y-75656682D01*
X103954290Y-75500841D01*
X104110132Y-75436289D01*
X104134854Y-75231459D01*
X105923146Y-75231459D01*
X105947868Y-75436289D01*
X106113593Y-75489619D01*
X106005691Y-75824931D01*
X106039158Y-76235318D01*
X106103710Y-76391159D01*
X105947868Y-76455711D01*
X105923146Y-76660541D01*
X106460891Y-77198286D01*
X106475034Y-77184144D01*
X106654639Y-77363749D01*
X106640496Y-77377891D01*
X107178241Y-77915636D01*
X107383071Y-77890914D01*
X107509200Y-77498960D01*
X107475733Y-77088573D01*
X107411181Y-76932732D01*
X107567023Y-76868180D01*
X107591745Y-76663350D01*
X107054000Y-76125605D01*
X107039858Y-76139748D01*
X106860253Y-75960143D01*
X106874395Y-75946000D01*
X107233605Y-75946000D01*
X107771350Y-76483745D01*
X107976180Y-76459023D01*
X108102309Y-76067069D01*
X108082563Y-75824931D01*
X190474691Y-75824931D01*
X190508158Y-76235318D01*
X190600820Y-76459023D01*
X190805650Y-76483745D01*
X191343395Y-75946000D01*
X190805650Y-75408255D01*
X190600820Y-75432977D01*
X190474691Y-75824931D01*
X108082563Y-75824931D01*
X108068842Y-75656682D01*
X107976180Y-75432977D01*
X107771350Y-75408255D01*
X107233605Y-75946000D01*
X106874395Y-75946000D01*
X106860253Y-75931858D01*
X107039858Y-75752253D01*
X107054000Y-75766395D01*
X107591745Y-75228650D01*
X190985255Y-75228650D01*
X191523000Y-75766395D01*
X191537143Y-75752253D01*
X191716748Y-75931858D01*
X191702605Y-75946000D01*
X191716748Y-75960143D01*
X191537143Y-76139748D01*
X191523000Y-76125605D01*
X190985255Y-76663350D01*
X191009977Y-76868180D01*
X191175702Y-76921510D01*
X191067800Y-77256822D01*
X191101267Y-77667209D01*
X191193929Y-77890914D01*
X191398759Y-77915636D01*
X191936504Y-77377891D01*
X191922362Y-77363749D01*
X192101967Y-77184144D01*
X192116109Y-77198286D01*
X192653854Y-76660541D01*
X192629132Y-76455711D01*
X192463407Y-76402381D01*
X192571309Y-76067069D01*
X192537842Y-75656682D01*
X192473290Y-75500841D01*
X192629132Y-75436289D01*
X192653854Y-75231459D01*
X194442146Y-75231459D01*
X194466868Y-75436289D01*
X194632593Y-75489619D01*
X194524691Y-75824931D01*
X194558158Y-76235318D01*
X194622710Y-76391159D01*
X194466868Y-76455711D01*
X194442146Y-76660541D01*
X194979891Y-77198286D01*
X194994034Y-77184144D01*
X195173639Y-77363749D01*
X195159496Y-77377891D01*
X195697241Y-77915636D01*
X195902071Y-77890914D01*
X196028200Y-77498960D01*
X195994733Y-77088573D01*
X195930181Y-76932732D01*
X196086023Y-76868180D01*
X196110745Y-76663350D01*
X195573000Y-76125605D01*
X195558858Y-76139748D01*
X195379253Y-75960143D01*
X195393395Y-75946000D01*
X195379253Y-75931858D01*
X195558858Y-75752253D01*
X195573000Y-75766395D01*
X196110745Y-75228650D01*
X196086023Y-75023820D01*
X195920298Y-74970490D01*
X196028200Y-74635178D01*
X195994733Y-74224791D01*
X195902071Y-74001086D01*
X195697241Y-73976364D01*
X195159496Y-74514109D01*
X195173639Y-74528252D01*
X194994034Y-74707857D01*
X194979891Y-74693714D01*
X194442146Y-75231459D01*
X192653854Y-75231459D01*
X192116109Y-74693714D01*
X192101967Y-74707857D01*
X191922362Y-74528252D01*
X191936504Y-74514109D01*
X191398759Y-73976364D01*
X191193929Y-74001086D01*
X191067800Y-74393040D01*
X191101267Y-74803427D01*
X191165819Y-74959268D01*
X191009977Y-75023820D01*
X190985255Y-75228650D01*
X107591745Y-75228650D01*
X107567023Y-75023820D01*
X107401298Y-74970490D01*
X107509200Y-74635178D01*
X107475733Y-74224791D01*
X107383071Y-74001086D01*
X107178241Y-73976364D01*
X106640496Y-74514109D01*
X106654639Y-74528252D01*
X106475034Y-74707857D01*
X106460891Y-74693714D01*
X105923146Y-75231459D01*
X104134854Y-75231459D01*
X103597109Y-74693714D01*
X103582967Y-74707857D01*
X103403362Y-74528252D01*
X103417504Y-74514109D01*
X102879759Y-73976364D01*
X102674929Y-74001086D01*
X102548800Y-74393040D01*
X102582267Y-74803427D01*
X102646819Y-74959268D01*
X102490977Y-75023820D01*
X102466255Y-75228650D01*
X102081000Y-75228650D01*
X102081000Y-73506000D01*
X103291536Y-73506000D01*
X103084086Y-73591929D01*
X103084086Y-73591929D01*
G37*
X103084086Y-73591929D02*
X103059364Y-73796759D01*
X103597109Y-74334504D01*
X103611252Y-74320362D01*
X103790857Y-74499967D01*
X103776714Y-74514109D01*
X104314459Y-75051854D01*
X104519289Y-75027132D01*
X104572619Y-74861407D01*
X104907931Y-74969309D01*
X105318318Y-74935842D01*
X105474159Y-74871290D01*
X105538711Y-75027132D01*
X105743541Y-75051854D01*
X106281286Y-74514109D01*
X106267144Y-74499967D01*
X106446749Y-74320362D01*
X106460891Y-74334504D01*
X106998636Y-73796759D01*
X106973914Y-73591929D01*
X106706884Y-73506000D01*
X191810536Y-73506000D01*
X191603086Y-73591929D01*
X191578364Y-73796759D01*
X192116109Y-74334504D01*
X192130252Y-74320362D01*
X192309857Y-74499967D01*
X192295714Y-74514109D01*
X192833459Y-75051854D01*
X193038289Y-75027132D01*
X193091619Y-74861407D01*
X193426931Y-74969309D01*
X193837318Y-74935842D01*
X193993159Y-74871290D01*
X194057711Y-75027132D01*
X194262541Y-75051854D01*
X194800286Y-74514109D01*
X194786144Y-74499967D01*
X194965749Y-74320362D01*
X194979891Y-74334504D01*
X195517636Y-73796759D01*
X195492914Y-73591929D01*
X195225884Y-73506000D01*
X196496000Y-73506000D01*
X196496000Y-75434957D01*
X196495180Y-75432977D01*
X196290350Y-75408255D01*
X195752605Y-75946000D01*
X196290350Y-76483745D01*
X196495180Y-76459023D01*
X196496000Y-76456475D01*
X196496001Y-123567959D01*
X196495180Y-123565977D01*
X196290350Y-123541255D01*
X195752605Y-124079000D01*
X196290350Y-124616745D01*
X196495180Y-124592023D01*
X196496001Y-124589472D01*
X196496001Y-126519000D01*
X195285464Y-126519000D01*
X195492914Y-126433071D01*
X195517636Y-126228241D01*
X194979891Y-125690496D01*
X194965749Y-125704639D01*
X194786144Y-125525034D01*
X194800286Y-125510891D01*
X194262541Y-124973146D01*
X194057711Y-124997868D01*
X194004381Y-125163593D01*
X193669069Y-125055691D01*
X193258682Y-125089158D01*
X193102841Y-125153710D01*
X193038289Y-124997868D01*
X192833459Y-124973146D01*
X192295714Y-125510891D01*
X192309857Y-125525034D01*
X192130252Y-125704639D01*
X192116109Y-125690496D01*
X191578364Y-126228241D01*
X191603086Y-126433071D01*
X191870116Y-126519000D01*
X106766464Y-126519000D01*
X106973914Y-126433071D01*
X106998636Y-126228241D01*
X106460891Y-125690496D01*
X106446749Y-125704639D01*
X106267144Y-125525034D01*
X106281286Y-125510891D01*
X105743541Y-124973146D01*
X105538711Y-124997868D01*
X105485381Y-125163593D01*
X105150069Y-125055691D01*
X104739682Y-125089158D01*
X104583841Y-125153710D01*
X104519289Y-124997868D01*
X104314459Y-124973146D01*
X103776714Y-125510891D01*
X103790857Y-125525034D01*
X103611252Y-125704639D01*
X103597109Y-125690496D01*
X103059364Y-126228241D01*
X103084086Y-126433071D01*
X103351116Y-126519000D01*
X102081000Y-126519000D01*
X102081000Y-124590043D01*
X102081820Y-124592023D01*
X102286650Y-124616745D01*
X102824395Y-124079000D01*
X102286650Y-123541255D01*
X102081820Y-123565977D01*
X102081000Y-123568525D01*
X102081000Y-123361650D01*
X102466255Y-123361650D01*
X103004000Y-123899395D01*
X103018143Y-123885253D01*
X103197748Y-124064858D01*
X103183605Y-124079000D01*
X103197748Y-124093143D01*
X103018143Y-124272748D01*
X103004000Y-124258605D01*
X102466255Y-124796350D01*
X102490977Y-125001180D01*
X102656702Y-125054510D01*
X102548800Y-125389822D01*
X102582267Y-125800209D01*
X102674929Y-126023914D01*
X102879759Y-126048636D01*
X103417504Y-125510891D01*
X103403362Y-125496749D01*
X103582967Y-125317144D01*
X103597109Y-125331286D01*
X104134854Y-124793541D01*
X104110132Y-124588711D01*
X103944407Y-124535381D01*
X104052309Y-124200069D01*
X104018842Y-123789682D01*
X103954290Y-123633841D01*
X104110132Y-123569289D01*
X104134854Y-123364459D01*
X105923146Y-123364459D01*
X105947868Y-123569289D01*
X106113593Y-123622619D01*
X106005691Y-123957931D01*
X106039158Y-124368318D01*
X106103710Y-124524159D01*
X105947868Y-124588711D01*
X105923146Y-124793541D01*
X106460891Y-125331286D01*
X106475034Y-125317144D01*
X106654639Y-125496749D01*
X106640496Y-125510891D01*
X107178241Y-126048636D01*
X107383071Y-126023914D01*
X107509200Y-125631960D01*
X107475733Y-125221573D01*
X107411181Y-125065732D01*
X107567023Y-125001180D01*
X107591745Y-124796350D01*
X107054000Y-124258605D01*
X107039858Y-124272748D01*
X106860253Y-124093143D01*
X106874395Y-124079000D01*
X107233605Y-124079000D01*
X107771350Y-124616745D01*
X107976180Y-124592023D01*
X108102309Y-124200069D01*
X108082563Y-123957931D01*
X190474691Y-123957931D01*
X190508158Y-124368318D01*
X190600820Y-124592023D01*
X190805650Y-124616745D01*
X191343395Y-124079000D01*
X190805650Y-123541255D01*
X190600820Y-123565977D01*
X190474691Y-123957931D01*
X108082563Y-123957931D01*
X108068842Y-123789682D01*
X107976180Y-123565977D01*
X107771350Y-123541255D01*
X107233605Y-124079000D01*
X106874395Y-124079000D01*
X106860253Y-124064858D01*
X107039858Y-123885253D01*
X107054000Y-123899395D01*
X107591745Y-123361650D01*
X190985255Y-123361650D01*
X191523000Y-123899395D01*
X191537143Y-123885253D01*
X191716748Y-124064858D01*
X191702605Y-124079000D01*
X191716748Y-124093143D01*
X191537143Y-124272748D01*
X191523000Y-124258605D01*
X190985255Y-124796350D01*
X191009977Y-125001180D01*
X191175702Y-125054510D01*
X191067800Y-125389822D01*
X191101267Y-125800209D01*
X191193929Y-126023914D01*
X191398759Y-126048636D01*
X191936504Y-125510891D01*
X191922362Y-125496749D01*
X192101967Y-125317144D01*
X192116109Y-125331286D01*
X192653854Y-124793541D01*
X192629132Y-124588711D01*
X192463407Y-124535381D01*
X192571309Y-124200069D01*
X192537842Y-123789682D01*
X192473290Y-123633841D01*
X192629132Y-123569289D01*
X192653854Y-123364459D01*
X194442146Y-123364459D01*
X194466868Y-123569289D01*
X194632593Y-123622619D01*
X194524691Y-123957931D01*
X194558158Y-124368318D01*
X194622710Y-124524159D01*
X194466868Y-124588711D01*
X194442146Y-124793541D01*
X194979891Y-125331286D01*
X194994034Y-125317144D01*
X195173639Y-125496749D01*
X195159496Y-125510891D01*
X195697241Y-126048636D01*
X195902071Y-126023914D01*
X196028200Y-125631960D01*
X195994733Y-125221573D01*
X195930181Y-125065732D01*
X196086023Y-125001180D01*
X196110745Y-124796350D01*
X195573000Y-124258605D01*
X195558858Y-124272748D01*
X195379253Y-124093143D01*
X195393395Y-124079000D01*
X195379253Y-124064858D01*
X195558858Y-123885253D01*
X195573000Y-123899395D01*
X196110745Y-123361650D01*
X196086023Y-123156820D01*
X195920298Y-123103490D01*
X196028200Y-122768178D01*
X195994733Y-122357791D01*
X195902071Y-122134086D01*
X195697241Y-122109364D01*
X195159496Y-122647109D01*
X195173639Y-122661252D01*
X194994034Y-122840857D01*
X194979891Y-122826714D01*
X194442146Y-123364459D01*
X192653854Y-123364459D01*
X192116109Y-122826714D01*
X192101967Y-122840857D01*
X191922362Y-122661252D01*
X191936504Y-122647109D01*
X191398759Y-122109364D01*
X191193929Y-122134086D01*
X191067800Y-122526040D01*
X191101267Y-122936427D01*
X191165819Y-123092268D01*
X191009977Y-123156820D01*
X190985255Y-123361650D01*
X107591745Y-123361650D01*
X107567023Y-123156820D01*
X107401298Y-123103490D01*
X107509200Y-122768178D01*
X107475733Y-122357791D01*
X107383071Y-122134086D01*
X107178241Y-122109364D01*
X106640496Y-122647109D01*
X106654639Y-122661252D01*
X106475034Y-122840857D01*
X106460891Y-122826714D01*
X105923146Y-123364459D01*
X104134854Y-123364459D01*
X103597109Y-122826714D01*
X103582967Y-122840857D01*
X103403362Y-122661252D01*
X103417504Y-122647109D01*
X102879759Y-122109364D01*
X102674929Y-122134086D01*
X102548800Y-122526040D01*
X102582267Y-122936427D01*
X102646819Y-123092268D01*
X102490977Y-123156820D01*
X102466255Y-123361650D01*
X102081000Y-123361650D01*
X102081000Y-121929759D01*
X103059364Y-121929759D01*
X103597109Y-122467504D01*
X103611252Y-122453362D01*
X103790857Y-122632967D01*
X103776714Y-122647109D01*
X104314459Y-123184854D01*
X104519289Y-123160132D01*
X104572619Y-122994407D01*
X104907931Y-123102309D01*
X105318318Y-123068842D01*
X105474159Y-123004290D01*
X105538711Y-123160132D01*
X105743541Y-123184854D01*
X106281286Y-122647109D01*
X106267144Y-122632967D01*
X106446749Y-122453362D01*
X106460891Y-122467504D01*
X106998636Y-121929759D01*
X191578364Y-121929759D01*
X192116109Y-122467504D01*
X192130252Y-122453362D01*
X192309857Y-122632967D01*
X192295714Y-122647109D01*
X192833459Y-123184854D01*
X193038289Y-123160132D01*
X193091619Y-122994407D01*
X193426931Y-123102309D01*
X193837318Y-123068842D01*
X193993159Y-123004290D01*
X194057711Y-123160132D01*
X194262541Y-123184854D01*
X194800286Y-122647109D01*
X194786144Y-122632967D01*
X194965749Y-122453362D01*
X194979891Y-122467504D01*
X195517636Y-121929759D01*
X195492914Y-121724929D01*
X195100960Y-121598800D01*
X194690573Y-121632267D01*
X194534732Y-121696819D01*
X194470180Y-121540977D01*
X194265350Y-121516255D01*
X193727605Y-122054000D01*
X193741748Y-122068143D01*
X193562143Y-122247748D01*
X193548000Y-122233605D01*
X193533858Y-122247748D01*
X193354253Y-122068143D01*
X193368395Y-122054000D01*
X192830650Y-121516255D01*
X192625820Y-121540977D01*
X192572490Y-121706702D01*
X192237178Y-121598800D01*
X191826791Y-121632267D01*
X191603086Y-121724929D01*
X191578364Y-121929759D01*
X106998636Y-121929759D01*
X106973914Y-121724929D01*
X106581960Y-121598800D01*
X106171573Y-121632267D01*
X106015732Y-121696819D01*
X105951180Y-121540977D01*
X105746350Y-121516255D01*
X105208605Y-122054000D01*
X105222748Y-122068143D01*
X105043143Y-122247748D01*
X105029000Y-122233605D01*
X105014858Y-122247748D01*
X104835253Y-122068143D01*
X104849395Y-122054000D01*
X104311650Y-121516255D01*
X104106820Y-121540977D01*
X104053490Y-121706702D01*
X103718178Y-121598800D01*
X103307791Y-121632267D01*
X103084086Y-121724929D01*
X103059364Y-121929759D01*
X102081000Y-121929759D01*
X102081000Y-121336650D01*
X104491255Y-121336650D01*
X105029000Y-121874395D01*
X105566745Y-121336650D01*
X193010255Y-121336650D01*
X193548000Y-121874395D01*
X194085745Y-121336650D01*
X194061023Y-121131820D01*
X193669069Y-121005691D01*
X193258682Y-121039158D01*
X193034977Y-121131820D01*
X193010255Y-121336650D01*
X105566745Y-121336650D01*
X105542023Y-121131820D01*
X105150069Y-121005691D01*
X104739682Y-121039158D01*
X104515977Y-121131820D01*
X104491255Y-121336650D01*
X102081000Y-121336650D01*
X102081000Y-116722532D01*
X103167073Y-116722532D01*
X103265736Y-116989387D01*
X103875461Y-117215908D01*
X104525460Y-117191856D01*
X105014264Y-116989387D01*
X105112927Y-116722532D01*
X104140000Y-115749605D01*
X103167073Y-116722532D01*
X102081000Y-116722532D01*
X102081000Y-115305461D01*
X102494092Y-115305461D01*
X102518144Y-115955460D01*
X102720613Y-116444264D01*
X102987468Y-116542927D01*
X103960395Y-115570000D01*
X104319605Y-115570000D01*
X105292532Y-116542927D01*
X105559387Y-116444264D01*
X105785908Y-115834539D01*
X105761856Y-115184540D01*
X105559387Y-114695736D01*
X105292532Y-114597073D01*
X104319605Y-115570000D01*
X103960395Y-115570000D01*
X102987468Y-114597073D01*
X102720613Y-114695736D01*
X102494092Y-115305461D01*
X102081000Y-115305461D01*
X102081000Y-114417468D01*
X103167073Y-114417468D01*
X104140000Y-115390395D01*
X105112927Y-114417468D01*
X105014264Y-114150613D01*
X104404539Y-113924092D01*
X103754540Y-113948144D01*
X103265736Y-114150613D01*
X103167073Y-114417468D01*
X102081000Y-114417468D01*
X102081000Y-113315750D01*
X113616000Y-113315750D01*
X113616000Y-114856310D01*
X113712673Y-115089699D01*
X113891302Y-115268327D01*
X114124691Y-115365000D01*
X115665250Y-115365000D01*
X115824000Y-115206250D01*
X115824000Y-113157000D01*
X116078000Y-113157000D01*
X116078000Y-115206250D01*
X116236750Y-115365000D01*
X117777309Y-115365000D01*
X118010698Y-115268327D01*
X118189327Y-115089699D01*
X118286000Y-114856310D01*
X118286000Y-114688422D01*
X123992183Y-114688422D01*
X124176371Y-115027970D01*
X125039509Y-115371316D01*
X125968336Y-115358218D01*
X126765629Y-115027970D01*
X126949817Y-114688422D01*
X133522183Y-114688422D01*
X133706371Y-115027970D01*
X134569509Y-115371316D01*
X135498336Y-115358218D01*
X136295629Y-115027970D01*
X136479817Y-114688422D01*
X143047183Y-114688422D01*
X143231371Y-115027970D01*
X144094509Y-115371316D01*
X145023336Y-115358218D01*
X145820629Y-115027970D01*
X146004817Y-114688422D01*
X152567183Y-114688422D01*
X152751371Y-115027970D01*
X153614509Y-115371316D01*
X154543336Y-115358218D01*
X155340629Y-115027970D01*
X155524817Y-114688422D01*
X162097183Y-114688422D01*
X162281371Y-115027970D01*
X163144509Y-115371316D01*
X164073336Y-115358218D01*
X164870629Y-115027970D01*
X165054817Y-114688422D01*
X171622183Y-114688422D01*
X171806371Y-115027970D01*
X172669509Y-115371316D01*
X173598336Y-115358218D01*
X174395629Y-115027970D01*
X174579817Y-114688422D01*
X181147183Y-114688422D01*
X181331371Y-115027970D01*
X182194509Y-115371316D01*
X183123336Y-115358218D01*
X183920629Y-115027970D01*
X184104817Y-114688422D01*
X182626000Y-113209605D01*
X181147183Y-114688422D01*
X174579817Y-114688422D01*
X173101000Y-113209605D01*
X171622183Y-114688422D01*
X165054817Y-114688422D01*
X163576000Y-113209605D01*
X162097183Y-114688422D01*
X155524817Y-114688422D01*
X154046000Y-113209605D01*
X152567183Y-114688422D01*
X146004817Y-114688422D01*
X144526000Y-113209605D01*
X143047183Y-114688422D01*
X136479817Y-114688422D01*
X135001000Y-113209605D01*
X133522183Y-114688422D01*
X126949817Y-114688422D01*
X125471000Y-113209605D01*
X123992183Y-114688422D01*
X118286000Y-114688422D01*
X118286000Y-113315750D01*
X118127250Y-113157000D01*
X116078000Y-113157000D01*
X115824000Y-113157000D01*
X113774750Y-113157000D01*
X113616000Y-113315750D01*
X102081000Y-113315750D01*
X102081000Y-110215302D01*
X102759000Y-110215302D01*
X102759000Y-110764698D01*
X102969245Y-111272273D01*
X103357727Y-111660755D01*
X103865302Y-111871000D01*
X104414698Y-111871000D01*
X104922273Y-111660755D01*
X105310755Y-111272273D01*
X105339163Y-111203690D01*
X113616000Y-111203690D01*
X113616000Y-112744250D01*
X113774750Y-112903000D01*
X115824000Y-112903000D01*
X115824000Y-110853750D01*
X116078000Y-110853750D01*
X116078000Y-112903000D01*
X118127250Y-112903000D01*
X118286000Y-112744250D01*
X118286000Y-112598509D01*
X123129684Y-112598509D01*
X123142782Y-113527336D01*
X123473030Y-114324629D01*
X123812578Y-114508817D01*
X125291395Y-113030000D01*
X125650605Y-113030000D01*
X127129422Y-114508817D01*
X127468970Y-114324629D01*
X127812316Y-113461491D01*
X127800147Y-112598509D01*
X132659684Y-112598509D01*
X132672782Y-113527336D01*
X133003030Y-114324629D01*
X133342578Y-114508817D01*
X134821395Y-113030000D01*
X135180605Y-113030000D01*
X136659422Y-114508817D01*
X136998970Y-114324629D01*
X137342316Y-113461491D01*
X137330147Y-112598509D01*
X142184684Y-112598509D01*
X142197782Y-113527336D01*
X142528030Y-114324629D01*
X142867578Y-114508817D01*
X144346395Y-113030000D01*
X144705605Y-113030000D01*
X146184422Y-114508817D01*
X146523970Y-114324629D01*
X146867316Y-113461491D01*
X146855147Y-112598509D01*
X151704684Y-112598509D01*
X151717782Y-113527336D01*
X152048030Y-114324629D01*
X152387578Y-114508817D01*
X153866395Y-113030000D01*
X154225605Y-113030000D01*
X155704422Y-114508817D01*
X156043970Y-114324629D01*
X156387316Y-113461491D01*
X156375147Y-112598509D01*
X161234684Y-112598509D01*
X161247782Y-113527336D01*
X161578030Y-114324629D01*
X161917578Y-114508817D01*
X163396395Y-113030000D01*
X163755605Y-113030000D01*
X165234422Y-114508817D01*
X165573970Y-114324629D01*
X165917316Y-113461491D01*
X165905147Y-112598509D01*
X170759684Y-112598509D01*
X170772782Y-113527336D01*
X171103030Y-114324629D01*
X171442578Y-114508817D01*
X172921395Y-113030000D01*
X173280605Y-113030000D01*
X174759422Y-114508817D01*
X175098970Y-114324629D01*
X175442316Y-113461491D01*
X175430147Y-112598509D01*
X180284684Y-112598509D01*
X180297782Y-113527336D01*
X180628030Y-114324629D01*
X180967578Y-114508817D01*
X182446395Y-113030000D01*
X182805605Y-113030000D01*
X184284422Y-114508817D01*
X184623970Y-114324629D01*
X184743038Y-114025302D01*
X192929000Y-114025302D01*
X192929000Y-114574698D01*
X193139245Y-115082273D01*
X193527727Y-115470755D01*
X194035302Y-115681000D01*
X194584698Y-115681000D01*
X195092273Y-115470755D01*
X195480755Y-115082273D01*
X195691000Y-114574698D01*
X195691000Y-114025302D01*
X195480755Y-113517727D01*
X195092273Y-113129245D01*
X194584698Y-112919000D01*
X194035302Y-112919000D01*
X193527727Y-113129245D01*
X193139245Y-113517727D01*
X192929000Y-114025302D01*
X184743038Y-114025302D01*
X184967316Y-113461491D01*
X184954218Y-112532664D01*
X184623970Y-111735371D01*
X184284422Y-111551183D01*
X182805605Y-113030000D01*
X182446395Y-113030000D01*
X180967578Y-111551183D01*
X180628030Y-111735371D01*
X180284684Y-112598509D01*
X175430147Y-112598509D01*
X175429218Y-112532664D01*
X175098970Y-111735371D01*
X174759422Y-111551183D01*
X173280605Y-113030000D01*
X172921395Y-113030000D01*
X171442578Y-111551183D01*
X171103030Y-111735371D01*
X170759684Y-112598509D01*
X165905147Y-112598509D01*
X165904218Y-112532664D01*
X165573970Y-111735371D01*
X165234422Y-111551183D01*
X163755605Y-113030000D01*
X163396395Y-113030000D01*
X161917578Y-111551183D01*
X161578030Y-111735371D01*
X161234684Y-112598509D01*
X156375147Y-112598509D01*
X156374218Y-112532664D01*
X156043970Y-111735371D01*
X155704422Y-111551183D01*
X154225605Y-113030000D01*
X153866395Y-113030000D01*
X152387578Y-111551183D01*
X152048030Y-111735371D01*
X151704684Y-112598509D01*
X146855147Y-112598509D01*
X146854218Y-112532664D01*
X146523970Y-111735371D01*
X146184422Y-111551183D01*
X144705605Y-113030000D01*
X144346395Y-113030000D01*
X142867578Y-111551183D01*
X142528030Y-111735371D01*
X142184684Y-112598509D01*
X137330147Y-112598509D01*
X137329218Y-112532664D01*
X136998970Y-111735371D01*
X136659422Y-111551183D01*
X135180605Y-113030000D01*
X134821395Y-113030000D01*
X133342578Y-111551183D01*
X133003030Y-111735371D01*
X132659684Y-112598509D01*
X127800147Y-112598509D01*
X127799218Y-112532664D01*
X127468970Y-111735371D01*
X127129422Y-111551183D01*
X125650605Y-113030000D01*
X125291395Y-113030000D01*
X123812578Y-111551183D01*
X123473030Y-111735371D01*
X123129684Y-112598509D01*
X118286000Y-112598509D01*
X118286000Y-111371578D01*
X123992183Y-111371578D01*
X125471000Y-112850395D01*
X126949817Y-111371578D01*
X133522183Y-111371578D01*
X135001000Y-112850395D01*
X136479817Y-111371578D01*
X143047183Y-111371578D01*
X144526000Y-112850395D01*
X146004817Y-111371578D01*
X152567183Y-111371578D01*
X154046000Y-112850395D01*
X155524817Y-111371578D01*
X162097183Y-111371578D01*
X163576000Y-112850395D01*
X165054817Y-111371578D01*
X171622183Y-111371578D01*
X173101000Y-112850395D01*
X174579817Y-111371578D01*
X181147183Y-111371578D01*
X182626000Y-112850395D01*
X184104817Y-111371578D01*
X183920629Y-111032030D01*
X183057491Y-110688684D01*
X182128664Y-110701782D01*
X181331371Y-111032030D01*
X181147183Y-111371578D01*
X174579817Y-111371578D01*
X174395629Y-111032030D01*
X173532491Y-110688684D01*
X172603664Y-110701782D01*
X171806371Y-111032030D01*
X171622183Y-111371578D01*
X165054817Y-111371578D01*
X164870629Y-111032030D01*
X164007491Y-110688684D01*
X163078664Y-110701782D01*
X162281371Y-111032030D01*
X162097183Y-111371578D01*
X155524817Y-111371578D01*
X155340629Y-111032030D01*
X154477491Y-110688684D01*
X153548664Y-110701782D01*
X152751371Y-111032030D01*
X152567183Y-111371578D01*
X146004817Y-111371578D01*
X145820629Y-111032030D01*
X144957491Y-110688684D01*
X144028664Y-110701782D01*
X143231371Y-111032030D01*
X143047183Y-111371578D01*
X136479817Y-111371578D01*
X136295629Y-111032030D01*
X135432491Y-110688684D01*
X134503664Y-110701782D01*
X133706371Y-111032030D01*
X133522183Y-111371578D01*
X126949817Y-111371578D01*
X126765629Y-111032030D01*
X125902491Y-110688684D01*
X124973664Y-110701782D01*
X124176371Y-111032030D01*
X123992183Y-111371578D01*
X118286000Y-111371578D01*
X118286000Y-111203690D01*
X118189327Y-110970301D01*
X118010698Y-110791673D01*
X117777309Y-110695000D01*
X116236750Y-110695000D01*
X116078000Y-110853750D01*
X115824000Y-110853750D01*
X115665250Y-110695000D01*
X114124691Y-110695000D01*
X113891302Y-110791673D01*
X113712673Y-110970301D01*
X113616000Y-111203690D01*
X105339163Y-111203690D01*
X105521000Y-110764698D01*
X105521000Y-110372532D01*
X193337073Y-110372532D01*
X193435736Y-110639387D01*
X194045461Y-110865908D01*
X194695460Y-110841856D01*
X195184264Y-110639387D01*
X195282927Y-110372532D01*
X194310000Y-109399605D01*
X193337073Y-110372532D01*
X105521000Y-110372532D01*
X105521000Y-110215302D01*
X105310755Y-109707727D01*
X104922273Y-109319245D01*
X104414698Y-109109000D01*
X103865302Y-109109000D01*
X103357727Y-109319245D01*
X102969245Y-109707727D01*
X102759000Y-110215302D01*
X102081000Y-110215302D01*
X102081000Y-108955461D01*
X192664092Y-108955461D01*
X192688144Y-109605460D01*
X192890613Y-110094264D01*
X193157468Y-110192927D01*
X194130395Y-109220000D01*
X194489605Y-109220000D01*
X195462532Y-110192927D01*
X195729387Y-110094264D01*
X195955908Y-109484539D01*
X195931856Y-108834540D01*
X195729387Y-108345736D01*
X195462532Y-108247073D01*
X194489605Y-109220000D01*
X194130395Y-109220000D01*
X193157468Y-108247073D01*
X192890613Y-108345736D01*
X192664092Y-108955461D01*
X102081000Y-108955461D01*
X102081000Y-108067468D01*
X193337073Y-108067468D01*
X194310000Y-109040395D01*
X195282927Y-108067468D01*
X195184264Y-107800613D01*
X194574539Y-107574092D01*
X193924540Y-107598144D01*
X193435736Y-107800613D01*
X193337073Y-108067468D01*
X102081000Y-108067468D01*
X102081000Y-104022532D01*
X103167073Y-104022532D01*
X103265736Y-104289387D01*
X103875461Y-104515908D01*
X104525460Y-104491856D01*
X105014264Y-104289387D01*
X105112927Y-104022532D01*
X104140000Y-103049605D01*
X103167073Y-104022532D01*
X102081000Y-104022532D01*
X102081000Y-102605461D01*
X102494092Y-102605461D01*
X102518144Y-103255460D01*
X102720613Y-103744264D01*
X102987468Y-103842927D01*
X103960395Y-102870000D01*
X104319605Y-102870000D01*
X105292532Y-103842927D01*
X105559387Y-103744264D01*
X105785908Y-103134539D01*
X105761856Y-102484540D01*
X105722672Y-102389940D01*
X113431476Y-102389940D01*
X113431476Y-105890060D01*
X113461046Y-106038719D01*
X113545254Y-106164746D01*
X113671281Y-106248954D01*
X113819940Y-106278524D01*
X117320060Y-106278524D01*
X117468719Y-106248954D01*
X117594746Y-106164746D01*
X117678954Y-106038719D01*
X117708524Y-105890060D01*
X117708524Y-104610000D01*
X120731536Y-104610000D01*
X120731536Y-106210000D01*
X120761106Y-106358659D01*
X120845314Y-106484686D01*
X120971341Y-106568894D01*
X121120000Y-106598464D01*
X122720000Y-106598464D01*
X122868659Y-106568894D01*
X122994686Y-106484686D01*
X123078894Y-106358659D01*
X123108464Y-106210000D01*
X123108464Y-104610000D01*
X123078894Y-104461341D01*
X122994686Y-104335314D01*
X122868659Y-104251106D01*
X122720000Y-104221536D01*
X122534773Y-104221536D01*
X122674005Y-104163864D01*
X122748139Y-103917745D01*
X121920000Y-103089605D01*
X121091861Y-103917745D01*
X121165995Y-104163864D01*
X121326445Y-104221536D01*
X121120000Y-104221536D01*
X120971341Y-104251106D01*
X120845314Y-104335314D01*
X120761106Y-104461341D01*
X120731536Y-104610000D01*
X117708524Y-104610000D01*
X117708524Y-102693223D01*
X120473035Y-102693223D01*
X120500222Y-103263454D01*
X120666136Y-103664005D01*
X120912255Y-103738139D01*
X121740395Y-102910000D01*
X122099605Y-102910000D01*
X122927745Y-103738139D01*
X123173864Y-103664005D01*
X123366965Y-103126777D01*
X123339778Y-102556546D01*
X123173864Y-102155995D01*
X122927745Y-102081861D01*
X122099605Y-102910000D01*
X121740395Y-102910000D01*
X120912255Y-102081861D01*
X120666136Y-102155995D01*
X120473035Y-102693223D01*
X117708524Y-102693223D01*
X117708524Y-102389940D01*
X117678954Y-102241281D01*
X117594746Y-102115254D01*
X117468719Y-102031046D01*
X117320060Y-102001476D01*
X113819940Y-102001476D01*
X113671281Y-102031046D01*
X113545254Y-102115254D01*
X113461046Y-102241281D01*
X113431476Y-102389940D01*
X105722672Y-102389940D01*
X105559387Y-101995736D01*
X105306548Y-101902255D01*
X121091861Y-101902255D01*
X121920000Y-102730395D01*
X122748139Y-101902255D01*
X122674005Y-101656136D01*
X122136777Y-101463035D01*
X121566546Y-101490222D01*
X121165995Y-101656136D01*
X121091861Y-101902255D01*
X105306548Y-101902255D01*
X105292532Y-101897073D01*
X104319605Y-102870000D01*
X103960395Y-102870000D01*
X102987468Y-101897073D01*
X102720613Y-101995736D01*
X102494092Y-102605461D01*
X102081000Y-102605461D01*
X102081000Y-101717468D01*
X103167073Y-101717468D01*
X104140000Y-102690395D01*
X105112927Y-101717468D01*
X105014264Y-101450613D01*
X104404539Y-101224092D01*
X103754540Y-101248144D01*
X103265736Y-101450613D01*
X103167073Y-101717468D01*
X102081000Y-101717468D01*
X102081000Y-99977726D01*
X129928000Y-99977726D01*
X129928000Y-100682274D01*
X130197619Y-101333191D01*
X130695809Y-101831381D01*
X131346726Y-102101000D01*
X132051274Y-102101000D01*
X132702191Y-101831381D01*
X133200381Y-101333191D01*
X133470000Y-100682274D01*
X133470000Y-99977726D01*
X136659000Y-99977726D01*
X136659000Y-100682274D01*
X136928619Y-101333191D01*
X137426809Y-101831381D01*
X138077726Y-102101000D01*
X138782274Y-102101000D01*
X139433191Y-101831381D01*
X139931381Y-101333191D01*
X140201000Y-100682274D01*
X140201000Y-99977726D01*
X147708000Y-99977726D01*
X147708000Y-100682274D01*
X147977619Y-101333191D01*
X148475809Y-101831381D01*
X149126726Y-102101000D01*
X149831274Y-102101000D01*
X150482191Y-101831381D01*
X150980381Y-101333191D01*
X151250000Y-100682274D01*
X151250000Y-99977726D01*
X154439000Y-99977726D01*
X154439000Y-100682274D01*
X154708619Y-101333191D01*
X155206809Y-101831381D01*
X155857726Y-102101000D01*
X156562274Y-102101000D01*
X157213191Y-101831381D01*
X157711381Y-101333191D01*
X157981000Y-100682274D01*
X157981000Y-99977726D01*
X157711381Y-99326809D01*
X157213191Y-98828619D01*
X156562274Y-98559000D01*
X155857726Y-98559000D01*
X155206809Y-98828619D01*
X154708619Y-99326809D01*
X154439000Y-99977726D01*
X151250000Y-99977726D01*
X150980381Y-99326809D01*
X150482191Y-98828619D01*
X149831274Y-98559000D01*
X149126726Y-98559000D01*
X148475809Y-98828619D01*
X147977619Y-99326809D01*
X147708000Y-99977726D01*
X140201000Y-99977726D01*
X139931381Y-99326809D01*
X139433191Y-98828619D01*
X138782274Y-98559000D01*
X138077726Y-98559000D01*
X137426809Y-98828619D01*
X136928619Y-99326809D01*
X136659000Y-99977726D01*
X133470000Y-99977726D01*
X133200381Y-99326809D01*
X132702191Y-98828619D01*
X132051274Y-98559000D01*
X131346726Y-98559000D01*
X130695809Y-98828619D01*
X130197619Y-99326809D01*
X129928000Y-99977726D01*
X102081000Y-99977726D01*
X102081000Y-97515302D01*
X102759000Y-97515302D01*
X102759000Y-98064698D01*
X102969245Y-98572273D01*
X103357727Y-98960755D01*
X103865302Y-99171000D01*
X104414698Y-99171000D01*
X104922273Y-98960755D01*
X105125283Y-98757745D01*
X121091861Y-98757745D01*
X121165995Y-99003864D01*
X121703223Y-99196965D01*
X122273454Y-99169778D01*
X122674005Y-99003864D01*
X122748139Y-98757745D01*
X121920000Y-97929605D01*
X121091861Y-98757745D01*
X105125283Y-98757745D01*
X105310755Y-98572273D01*
X105521000Y-98064698D01*
X105521000Y-97515302D01*
X105310755Y-97007727D01*
X104922273Y-96619245D01*
X104414698Y-96409000D01*
X103865302Y-96409000D01*
X103357727Y-96619245D01*
X102969245Y-97007727D01*
X102759000Y-97515302D01*
X102081000Y-97515302D01*
X102081000Y-94769940D01*
X113431476Y-94769940D01*
X113431476Y-98270060D01*
X113461046Y-98418719D01*
X113545254Y-98544746D01*
X113671281Y-98628954D01*
X113819940Y-98658524D01*
X117320060Y-98658524D01*
X117468719Y-98628954D01*
X117594746Y-98544746D01*
X117678954Y-98418719D01*
X117708524Y-98270060D01*
X117708524Y-97533223D01*
X120473035Y-97533223D01*
X120500222Y-98103454D01*
X120666136Y-98504005D01*
X120912255Y-98578139D01*
X121740395Y-97750000D01*
X122099605Y-97750000D01*
X122927745Y-98578139D01*
X123173864Y-98504005D01*
X123366965Y-97966777D01*
X123339778Y-97396546D01*
X123173864Y-96995995D01*
X122927745Y-96921861D01*
X122099605Y-97750000D01*
X121740395Y-97750000D01*
X120912255Y-96921861D01*
X120666136Y-96995995D01*
X120473035Y-97533223D01*
X117708524Y-97533223D01*
X117708524Y-94769940D01*
X117678954Y-94621281D01*
X117594746Y-94495254D01*
X117527019Y-94450000D01*
X120731536Y-94450000D01*
X120731536Y-96050000D01*
X120761106Y-96198659D01*
X120845314Y-96324686D01*
X120971341Y-96408894D01*
X121120000Y-96438464D01*
X121305227Y-96438464D01*
X121165995Y-96496136D01*
X121091861Y-96742255D01*
X121920000Y-97570395D01*
X122748139Y-96742255D01*
X122674005Y-96496136D01*
X122513555Y-96438464D01*
X122720000Y-96438464D01*
X122868659Y-96408894D01*
X122994686Y-96324686D01*
X123078894Y-96198659D01*
X123108464Y-96050000D01*
X123108464Y-94450000D01*
X123078894Y-94301341D01*
X122994686Y-94175314D01*
X122868659Y-94091106D01*
X122720000Y-94061536D01*
X121120000Y-94061536D01*
X120971341Y-94091106D01*
X120845314Y-94175314D01*
X120761106Y-94301341D01*
X120731536Y-94450000D01*
X117527019Y-94450000D01*
X117468719Y-94411046D01*
X117320060Y-94381476D01*
X113819940Y-94381476D01*
X113671281Y-94411046D01*
X113545254Y-94495254D01*
X113461046Y-94621281D01*
X113431476Y-94769940D01*
X102081000Y-94769940D01*
X102081000Y-93091000D01*
X160274000Y-93091000D01*
X160274000Y-107061000D01*
X160322336Y-107304004D01*
X160459987Y-107510013D01*
X160665996Y-107647664D01*
X160909000Y-107696000D01*
X178689000Y-107696000D01*
X178932004Y-107647664D01*
X179138013Y-107510013D01*
X179275664Y-107304004D01*
X179324000Y-107061000D01*
X179324000Y-104356000D01*
X189311536Y-104356000D01*
X189311536Y-105956000D01*
X189341106Y-106104659D01*
X189425314Y-106230686D01*
X189551341Y-106314894D01*
X189700000Y-106344464D01*
X191300000Y-106344464D01*
X191448659Y-106314894D01*
X191574686Y-106230686D01*
X191658894Y-106104659D01*
X191688464Y-105956000D01*
X191688464Y-104356000D01*
X191658894Y-104207341D01*
X191574686Y-104081314D01*
X191448659Y-103997106D01*
X191300000Y-103967536D01*
X189700000Y-103967536D01*
X189551341Y-103997106D01*
X189425314Y-104081314D01*
X189341106Y-104207341D01*
X189311536Y-104356000D01*
X179324000Y-104356000D01*
X179324000Y-102878371D01*
X180207162Y-102878371D01*
X180207162Y-103671430D01*
X180303835Y-103904819D01*
X180482463Y-104083448D01*
X180715852Y-104180121D01*
X181556412Y-104180121D01*
X181715162Y-104021371D01*
X181715162Y-102719621D01*
X181969162Y-102719621D01*
X181969162Y-104021371D01*
X182127912Y-104180121D01*
X182968472Y-104180121D01*
X183201861Y-104083448D01*
X183380489Y-103904819D01*
X183396857Y-103865302D01*
X193056000Y-103865302D01*
X193056000Y-104414698D01*
X193266245Y-104922273D01*
X193654727Y-105310755D01*
X194162302Y-105521000D01*
X194711698Y-105521000D01*
X195219273Y-105310755D01*
X195607755Y-104922273D01*
X195818000Y-104414698D01*
X195818000Y-103865302D01*
X195607755Y-103357727D01*
X195219273Y-102969245D01*
X194711698Y-102759000D01*
X194162302Y-102759000D01*
X193654727Y-102969245D01*
X193266245Y-103357727D01*
X193056000Y-103865302D01*
X183396857Y-103865302D01*
X183477162Y-103671430D01*
X183477162Y-102878371D01*
X183318412Y-102719621D01*
X181969162Y-102719621D01*
X181715162Y-102719621D01*
X180365912Y-102719621D01*
X180207162Y-102878371D01*
X179324000Y-102878371D01*
X179324000Y-101513812D01*
X180207162Y-101513812D01*
X180207162Y-102306871D01*
X180365912Y-102465621D01*
X181715162Y-102465621D01*
X181715162Y-102445621D01*
X181969162Y-102445621D01*
X181969162Y-102465621D01*
X183318412Y-102465621D01*
X183477162Y-102306871D01*
X183477162Y-101513812D01*
X183380489Y-101280423D01*
X183201861Y-101101794D01*
X182968472Y-101005121D01*
X182857007Y-101005121D01*
X183145791Y-100572927D01*
X183217477Y-100212532D01*
X193464073Y-100212532D01*
X193562736Y-100479387D01*
X194172461Y-100705908D01*
X194822460Y-100681856D01*
X195311264Y-100479387D01*
X195409927Y-100212532D01*
X194437000Y-99239605D01*
X193464073Y-100212532D01*
X183217477Y-100212532D01*
X183249286Y-100052621D01*
X183145791Y-99532315D01*
X182851061Y-99091222D01*
X182409968Y-98796492D01*
X182404785Y-98795461D01*
X192791092Y-98795461D01*
X192815144Y-99445460D01*
X193017613Y-99934264D01*
X193284468Y-100032927D01*
X194257395Y-99060000D01*
X194616605Y-99060000D01*
X195589532Y-100032927D01*
X195856387Y-99934264D01*
X196082908Y-99324539D01*
X196058856Y-98674540D01*
X195856387Y-98185736D01*
X195589532Y-98087073D01*
X194616605Y-99060000D01*
X194257395Y-99060000D01*
X193284468Y-98087073D01*
X193017613Y-98185736D01*
X192791092Y-98795461D01*
X182404785Y-98795461D01*
X182340234Y-98782621D01*
X182409968Y-98768750D01*
X182851061Y-98474020D01*
X183145791Y-98032927D01*
X183244635Y-97536000D01*
X189295863Y-97536000D01*
X189387522Y-97996803D01*
X189648547Y-98387453D01*
X190039197Y-98648478D01*
X190383682Y-98717000D01*
X190616318Y-98717000D01*
X190960803Y-98648478D01*
X191351453Y-98387453D01*
X191612478Y-97996803D01*
X191630247Y-97907468D01*
X193464073Y-97907468D01*
X194437000Y-98880395D01*
X195409927Y-97907468D01*
X195311264Y-97640613D01*
X194701539Y-97414092D01*
X194051540Y-97438144D01*
X193562736Y-97640613D01*
X193464073Y-97907468D01*
X191630247Y-97907468D01*
X191704137Y-97536000D01*
X191612478Y-97075197D01*
X191351453Y-96684547D01*
X190960803Y-96423522D01*
X190616318Y-96355000D01*
X190383682Y-96355000D01*
X190039197Y-96423522D01*
X189648547Y-96684547D01*
X189387522Y-97075197D01*
X189295863Y-97536000D01*
X183244635Y-97536000D01*
X183249286Y-97512621D01*
X183145791Y-96992315D01*
X182851061Y-96551222D01*
X182409968Y-96256492D01*
X182020997Y-96179121D01*
X181663327Y-96179121D01*
X181274356Y-96256492D01*
X180833263Y-96551222D01*
X180538533Y-96992315D01*
X180435038Y-97512621D01*
X180538533Y-98032927D01*
X180833263Y-98474020D01*
X181274356Y-98768750D01*
X181344090Y-98782621D01*
X181274356Y-98796492D01*
X180833263Y-99091222D01*
X180538533Y-99532315D01*
X180435038Y-100052621D01*
X180538533Y-100572927D01*
X180827317Y-101005121D01*
X180715852Y-101005121D01*
X180482463Y-101101794D01*
X180303835Y-101280423D01*
X180207162Y-101513812D01*
X179324000Y-101513812D01*
X179324000Y-93705302D01*
X193056000Y-93705302D01*
X193056000Y-94254698D01*
X193266245Y-94762273D01*
X193654727Y-95150755D01*
X194162302Y-95361000D01*
X194711698Y-95361000D01*
X195219273Y-95150755D01*
X195607755Y-94762273D01*
X195818000Y-94254698D01*
X195818000Y-93705302D01*
X195607755Y-93197727D01*
X195219273Y-92809245D01*
X194711698Y-92599000D01*
X194162302Y-92599000D01*
X193654727Y-92809245D01*
X193266245Y-93197727D01*
X193056000Y-93705302D01*
X179324000Y-93705302D01*
X179324000Y-93091000D01*
X179275664Y-92847996D01*
X179138013Y-92641987D01*
X178932004Y-92504336D01*
X178689000Y-92456000D01*
X160909000Y-92456000D01*
X160665996Y-92504336D01*
X160459987Y-92641987D01*
X160322336Y-92847996D01*
X160274000Y-93091000D01*
X102081000Y-93091000D01*
X102081000Y-89895302D01*
X102759000Y-89895302D01*
X102759000Y-90444698D01*
X102969245Y-90952273D01*
X103357727Y-91340755D01*
X103865302Y-91551000D01*
X104414698Y-91551000D01*
X104922273Y-91340755D01*
X105310755Y-90952273D01*
X105521000Y-90444698D01*
X105521000Y-90052532D01*
X193591073Y-90052532D01*
X193689736Y-90319387D01*
X194299461Y-90545908D01*
X194949460Y-90521856D01*
X195438264Y-90319387D01*
X195536927Y-90052532D01*
X194564000Y-89079605D01*
X193591073Y-90052532D01*
X105521000Y-90052532D01*
X105521000Y-89895302D01*
X105310755Y-89387727D01*
X104922273Y-88999245D01*
X104414698Y-88789000D01*
X103865302Y-88789000D01*
X103357727Y-88999245D01*
X102969245Y-89387727D01*
X102759000Y-89895302D01*
X102081000Y-89895302D01*
X102081000Y-86242532D01*
X103167073Y-86242532D01*
X103265736Y-86509387D01*
X103875461Y-86735908D01*
X104525460Y-86711856D01*
X104841222Y-86581063D01*
X113870000Y-86581063D01*
X113870000Y-87408937D01*
X114186814Y-88173792D01*
X114772208Y-88759186D01*
X115537063Y-89076000D01*
X116364937Y-89076000D01*
X117129792Y-88759186D01*
X117715186Y-88173792D01*
X118032000Y-87408937D01*
X118032000Y-86581063D01*
X123395000Y-86581063D01*
X123395000Y-87408937D01*
X123711814Y-88173792D01*
X124297208Y-88759186D01*
X125062063Y-89076000D01*
X125889937Y-89076000D01*
X126654792Y-88759186D01*
X127240186Y-88173792D01*
X127557000Y-87408937D01*
X127557000Y-86581063D01*
X132920000Y-86581063D01*
X132920000Y-87408937D01*
X133236814Y-88173792D01*
X133822208Y-88759186D01*
X134587063Y-89076000D01*
X135414937Y-89076000D01*
X136179792Y-88759186D01*
X136765186Y-88173792D01*
X137082000Y-87408937D01*
X137082000Y-86581063D01*
X142450000Y-86581063D01*
X142450000Y-87408937D01*
X142766814Y-88173792D01*
X143352208Y-88759186D01*
X144117063Y-89076000D01*
X144944937Y-89076000D01*
X145709792Y-88759186D01*
X146295186Y-88173792D01*
X146612000Y-87408937D01*
X146612000Y-86581063D01*
X151970000Y-86581063D01*
X151970000Y-87408937D01*
X152286814Y-88173792D01*
X152872208Y-88759186D01*
X153637063Y-89076000D01*
X154464937Y-89076000D01*
X155229792Y-88759186D01*
X155815186Y-88173792D01*
X156132000Y-87408937D01*
X156132000Y-86581063D01*
X161495000Y-86581063D01*
X161495000Y-87408937D01*
X161811814Y-88173792D01*
X162397208Y-88759186D01*
X163162063Y-89076000D01*
X163989937Y-89076000D01*
X164754792Y-88759186D01*
X165340186Y-88173792D01*
X165657000Y-87408937D01*
X165657000Y-86581063D01*
X171025000Y-86581063D01*
X171025000Y-87408937D01*
X171341814Y-88173792D01*
X171927208Y-88759186D01*
X172692063Y-89076000D01*
X173519937Y-89076000D01*
X174284792Y-88759186D01*
X174870186Y-88173792D01*
X175187000Y-87408937D01*
X175187000Y-86581063D01*
X174870186Y-85816208D01*
X174348978Y-85295000D01*
X180537536Y-85295000D01*
X180537536Y-88695000D01*
X180567106Y-88843659D01*
X180651314Y-88969686D01*
X180777341Y-89053894D01*
X180926000Y-89083464D01*
X184326000Y-89083464D01*
X184474659Y-89053894D01*
X184600686Y-88969686D01*
X184684894Y-88843659D01*
X184714464Y-88695000D01*
X184714464Y-88635461D01*
X192918092Y-88635461D01*
X192942144Y-89285460D01*
X193144613Y-89774264D01*
X193411468Y-89872927D01*
X194384395Y-88900000D01*
X194743605Y-88900000D01*
X195716532Y-89872927D01*
X195983387Y-89774264D01*
X196209908Y-89164539D01*
X196185856Y-88514540D01*
X195983387Y-88025736D01*
X195716532Y-87927073D01*
X194743605Y-88900000D01*
X194384395Y-88900000D01*
X193411468Y-87927073D01*
X193144613Y-88025736D01*
X192918092Y-88635461D01*
X184714464Y-88635461D01*
X184714464Y-87747468D01*
X193591073Y-87747468D01*
X194564000Y-88720395D01*
X195536927Y-87747468D01*
X195438264Y-87480613D01*
X194828539Y-87254092D01*
X194178540Y-87278144D01*
X193689736Y-87480613D01*
X193591073Y-87747468D01*
X184714464Y-87747468D01*
X184714464Y-85295000D01*
X184684894Y-85146341D01*
X184600686Y-85020314D01*
X184474659Y-84936106D01*
X184326000Y-84906536D01*
X180926000Y-84906536D01*
X180777341Y-84936106D01*
X180651314Y-85020314D01*
X180567106Y-85146341D01*
X180537536Y-85295000D01*
X174348978Y-85295000D01*
X174284792Y-85230814D01*
X173519937Y-84914000D01*
X172692063Y-84914000D01*
X171927208Y-85230814D01*
X171341814Y-85816208D01*
X171025000Y-86581063D01*
X165657000Y-86581063D01*
X165340186Y-85816208D01*
X164754792Y-85230814D01*
X163989937Y-84914000D01*
X163162063Y-84914000D01*
X162397208Y-85230814D01*
X161811814Y-85816208D01*
X161495000Y-86581063D01*
X156132000Y-86581063D01*
X155815186Y-85816208D01*
X155229792Y-85230814D01*
X154464937Y-84914000D01*
X153637063Y-84914000D01*
X152872208Y-85230814D01*
X152286814Y-85816208D01*
X151970000Y-86581063D01*
X146612000Y-86581063D01*
X146295186Y-85816208D01*
X145709792Y-85230814D01*
X144944937Y-84914000D01*
X144117063Y-84914000D01*
X143352208Y-85230814D01*
X142766814Y-85816208D01*
X142450000Y-86581063D01*
X137082000Y-86581063D01*
X136765186Y-85816208D01*
X136179792Y-85230814D01*
X135414937Y-84914000D01*
X134587063Y-84914000D01*
X133822208Y-85230814D01*
X133236814Y-85816208D01*
X132920000Y-86581063D01*
X127557000Y-86581063D01*
X127240186Y-85816208D01*
X126654792Y-85230814D01*
X125889937Y-84914000D01*
X125062063Y-84914000D01*
X124297208Y-85230814D01*
X123711814Y-85816208D01*
X123395000Y-86581063D01*
X118032000Y-86581063D01*
X117715186Y-85816208D01*
X117129792Y-85230814D01*
X116364937Y-84914000D01*
X115537063Y-84914000D01*
X114772208Y-85230814D01*
X114186814Y-85816208D01*
X113870000Y-86581063D01*
X104841222Y-86581063D01*
X105014264Y-86509387D01*
X105112927Y-86242532D01*
X104140000Y-85269605D01*
X103167073Y-86242532D01*
X102081000Y-86242532D01*
X102081000Y-84825461D01*
X102494092Y-84825461D01*
X102518144Y-85475460D01*
X102720613Y-85964264D01*
X102987468Y-86062927D01*
X103960395Y-85090000D01*
X104319605Y-85090000D01*
X105292532Y-86062927D01*
X105559387Y-85964264D01*
X105785908Y-85354539D01*
X105761856Y-84704540D01*
X105559387Y-84215736D01*
X105292532Y-84117073D01*
X104319605Y-85090000D01*
X103960395Y-85090000D01*
X102987468Y-84117073D01*
X102720613Y-84215736D01*
X102494092Y-84825461D01*
X102081000Y-84825461D01*
X102081000Y-83937468D01*
X103167073Y-83937468D01*
X104140000Y-84910395D01*
X105112927Y-83937468D01*
X105014264Y-83670613D01*
X104404539Y-83444092D01*
X103754540Y-83468144D01*
X103265736Y-83670613D01*
X103167073Y-83937468D01*
X102081000Y-83937468D01*
X102081000Y-78688350D01*
X104491255Y-78688350D01*
X104515977Y-78893180D01*
X104907931Y-79019309D01*
X105318318Y-78985842D01*
X105542023Y-78893180D01*
X105566745Y-78688350D01*
X193010255Y-78688350D01*
X193034977Y-78893180D01*
X193426931Y-79019309D01*
X193837318Y-78985842D01*
X194061023Y-78893180D01*
X194085745Y-78688350D01*
X193548000Y-78150605D01*
X193010255Y-78688350D01*
X105566745Y-78688350D01*
X105029000Y-78150605D01*
X104491255Y-78688350D01*
X102081000Y-78688350D01*
X102081000Y-78095241D01*
X103059364Y-78095241D01*
X103084086Y-78300071D01*
X103476040Y-78426200D01*
X103886427Y-78392733D01*
X104042268Y-78328181D01*
X104106820Y-78484023D01*
X104311650Y-78508745D01*
X104849395Y-77971000D01*
X104835253Y-77956858D01*
X105014858Y-77777253D01*
X105029000Y-77791395D01*
X105043143Y-77777253D01*
X105222748Y-77956858D01*
X105208605Y-77971000D01*
X105746350Y-78508745D01*
X105951180Y-78484023D01*
X106004510Y-78318298D01*
X106339822Y-78426200D01*
X106750209Y-78392733D01*
X106973914Y-78300071D01*
X106998636Y-78095241D01*
X191578364Y-78095241D01*
X191603086Y-78300071D01*
X191995040Y-78426200D01*
X192405427Y-78392733D01*
X192561268Y-78328181D01*
X192625820Y-78484023D01*
X192830650Y-78508745D01*
X193368395Y-77971000D01*
X193354253Y-77956858D01*
X193533858Y-77777253D01*
X193548000Y-77791395D01*
X193562143Y-77777253D01*
X193741748Y-77956858D01*
X193727605Y-77971000D01*
X194265350Y-78508745D01*
X194470180Y-78484023D01*
X194523510Y-78318298D01*
X194858822Y-78426200D01*
X195269209Y-78392733D01*
X195492914Y-78300071D01*
X195517636Y-78095241D01*
X194979891Y-77557496D01*
X194965749Y-77571639D01*
X194786144Y-77392034D01*
X194800286Y-77377891D01*
X194262541Y-76840146D01*
X194057711Y-76864868D01*
X194004381Y-77030593D01*
X193669069Y-76922691D01*
X193258682Y-76956158D01*
X193102841Y-77020710D01*
X193038289Y-76864868D01*
X192833459Y-76840146D01*
X192295714Y-77377891D01*
X192309857Y-77392034D01*
X192130252Y-77571639D01*
X192116109Y-77557496D01*
X191578364Y-78095241D01*
X106998636Y-78095241D01*
X106460891Y-77557496D01*
X106446749Y-77571639D01*
X106267144Y-77392034D01*
X106281286Y-77377891D01*
X105743541Y-76840146D01*
X105538711Y-76864868D01*
X105485381Y-77030593D01*
X105150069Y-76922691D01*
X104739682Y-76956158D01*
X104583841Y-77020710D01*
X104519289Y-76864868D01*
X104314459Y-76840146D01*
X103776714Y-77377891D01*
X103790857Y-77392034D01*
X103611252Y-77571639D01*
X103597109Y-77557496D01*
X103059364Y-78095241D01*
X102081000Y-78095241D01*
X102081000Y-76457043D01*
X102081820Y-76459023D01*
X102286650Y-76483745D01*
X102824395Y-75946000D01*
X102286650Y-75408255D01*
X102081820Y-75432977D01*
X102081000Y-75435525D01*
X102081000Y-75228650D01*
X102466255Y-75228650D01*
X103004000Y-75766395D01*
X103018143Y-75752253D01*
X103197748Y-75931858D01*
X103183605Y-75946000D01*
X103197748Y-75960143D01*
X103018143Y-76139748D01*
X103004000Y-76125605D01*
X102466255Y-76663350D01*
X102490977Y-76868180D01*
X102656702Y-76921510D01*
X102548800Y-77256822D01*
X102582267Y-77667209D01*
X102674929Y-77890914D01*
X102879759Y-77915636D01*
X103417504Y-77377891D01*
X103403362Y-77363749D01*
X103582967Y-77184144D01*
X103597109Y-77198286D01*
X104134854Y-76660541D01*
X104110132Y-76455711D01*
X103944407Y-76402381D01*
X104052309Y-76067069D01*
X104018842Y-75656682D01*
X103954290Y-75500841D01*
X104110132Y-75436289D01*
X104134854Y-75231459D01*
X105923146Y-75231459D01*
X105947868Y-75436289D01*
X106113593Y-75489619D01*
X106005691Y-75824931D01*
X106039158Y-76235318D01*
X106103710Y-76391159D01*
X105947868Y-76455711D01*
X105923146Y-76660541D01*
X106460891Y-77198286D01*
X106475034Y-77184144D01*
X106654639Y-77363749D01*
X106640496Y-77377891D01*
X107178241Y-77915636D01*
X107383071Y-77890914D01*
X107509200Y-77498960D01*
X107475733Y-77088573D01*
X107411181Y-76932732D01*
X107567023Y-76868180D01*
X107591745Y-76663350D01*
X107054000Y-76125605D01*
X107039858Y-76139748D01*
X106860253Y-75960143D01*
X106874395Y-75946000D01*
X107233605Y-75946000D01*
X107771350Y-76483745D01*
X107976180Y-76459023D01*
X108102309Y-76067069D01*
X108082563Y-75824931D01*
X190474691Y-75824931D01*
X190508158Y-76235318D01*
X190600820Y-76459023D01*
X190805650Y-76483745D01*
X191343395Y-75946000D01*
X190805650Y-75408255D01*
X190600820Y-75432977D01*
X190474691Y-75824931D01*
X108082563Y-75824931D01*
X108068842Y-75656682D01*
X107976180Y-75432977D01*
X107771350Y-75408255D01*
X107233605Y-75946000D01*
X106874395Y-75946000D01*
X106860253Y-75931858D01*
X107039858Y-75752253D01*
X107054000Y-75766395D01*
X107591745Y-75228650D01*
X190985255Y-75228650D01*
X191523000Y-75766395D01*
X191537143Y-75752253D01*
X191716748Y-75931858D01*
X191702605Y-75946000D01*
X191716748Y-75960143D01*
X191537143Y-76139748D01*
X191523000Y-76125605D01*
X190985255Y-76663350D01*
X191009977Y-76868180D01*
X191175702Y-76921510D01*
X191067800Y-77256822D01*
X191101267Y-77667209D01*
X191193929Y-77890914D01*
X191398759Y-77915636D01*
X191936504Y-77377891D01*
X191922362Y-77363749D01*
X192101967Y-77184144D01*
X192116109Y-77198286D01*
X192653854Y-76660541D01*
X192629132Y-76455711D01*
X192463407Y-76402381D01*
X192571309Y-76067069D01*
X192537842Y-75656682D01*
X192473290Y-75500841D01*
X192629132Y-75436289D01*
X192653854Y-75231459D01*
X194442146Y-75231459D01*
X194466868Y-75436289D01*
X194632593Y-75489619D01*
X194524691Y-75824931D01*
X194558158Y-76235318D01*
X194622710Y-76391159D01*
X194466868Y-76455711D01*
X194442146Y-76660541D01*
X194979891Y-77198286D01*
X194994034Y-77184144D01*
X195173639Y-77363749D01*
X195159496Y-77377891D01*
X195697241Y-77915636D01*
X195902071Y-77890914D01*
X196028200Y-77498960D01*
X195994733Y-77088573D01*
X195930181Y-76932732D01*
X196086023Y-76868180D01*
X196110745Y-76663350D01*
X195573000Y-76125605D01*
X195558858Y-76139748D01*
X195379253Y-75960143D01*
X195393395Y-75946000D01*
X195379253Y-75931858D01*
X195558858Y-75752253D01*
X195573000Y-75766395D01*
X196110745Y-75228650D01*
X196086023Y-75023820D01*
X195920298Y-74970490D01*
X196028200Y-74635178D01*
X195994733Y-74224791D01*
X195902071Y-74001086D01*
X195697241Y-73976364D01*
X195159496Y-74514109D01*
X195173639Y-74528252D01*
X194994034Y-74707857D01*
X194979891Y-74693714D01*
X194442146Y-75231459D01*
X192653854Y-75231459D01*
X192116109Y-74693714D01*
X192101967Y-74707857D01*
X191922362Y-74528252D01*
X191936504Y-74514109D01*
X191398759Y-73976364D01*
X191193929Y-74001086D01*
X191067800Y-74393040D01*
X191101267Y-74803427D01*
X191165819Y-74959268D01*
X191009977Y-75023820D01*
X190985255Y-75228650D01*
X107591745Y-75228650D01*
X107567023Y-75023820D01*
X107401298Y-74970490D01*
X107509200Y-74635178D01*
X107475733Y-74224791D01*
X107383071Y-74001086D01*
X107178241Y-73976364D01*
X106640496Y-74514109D01*
X106654639Y-74528252D01*
X106475034Y-74707857D01*
X106460891Y-74693714D01*
X105923146Y-75231459D01*
X104134854Y-75231459D01*
X103597109Y-74693714D01*
X103582967Y-74707857D01*
X103403362Y-74528252D01*
X103417504Y-74514109D01*
X102879759Y-73976364D01*
X102674929Y-74001086D01*
X102548800Y-74393040D01*
X102582267Y-74803427D01*
X102646819Y-74959268D01*
X102490977Y-75023820D01*
X102466255Y-75228650D01*
X102081000Y-75228650D01*
X102081000Y-73506000D01*
X103291536Y-73506000D01*
X103084086Y-73591929D01*
G36*
X193741748Y-126089858D02*
X193727605Y-126104000D01*
X193741748Y-126118143D01*
X193562143Y-126297748D01*
X193548000Y-126283605D01*
X193533858Y-126297748D01*
X193354253Y-126118143D01*
X193368395Y-126104000D01*
X193354253Y-126089858D01*
X193533858Y-125910253D01*
X193548000Y-125924395D01*
X193562143Y-125910253D01*
X193741748Y-126089858D01*
X193741748Y-126089858D01*
G37*
X193741748Y-126089858D02*
X193727605Y-126104000D01*
X193741748Y-126118143D01*
X193562143Y-126297748D01*
X193548000Y-126283605D01*
X193533858Y-126297748D01*
X193354253Y-126118143D01*
X193368395Y-126104000D01*
X193354253Y-126089858D01*
X193533858Y-125910253D01*
X193548000Y-125924395D01*
X193562143Y-125910253D01*
X193741748Y-126089858D01*
G36*
X105222748Y-126089858D02*
X105208605Y-126104000D01*
X105222748Y-126118143D01*
X105043143Y-126297748D01*
X105029000Y-126283605D01*
X105014858Y-126297748D01*
X104835253Y-126118143D01*
X104849395Y-126104000D01*
X104835253Y-126089858D01*
X105014858Y-125910253D01*
X105029000Y-125924395D01*
X105043143Y-125910253D01*
X105222748Y-126089858D01*
X105222748Y-126089858D01*
G37*
X105222748Y-126089858D02*
X105208605Y-126104000D01*
X105222748Y-126118143D01*
X105043143Y-126297748D01*
X105029000Y-126283605D01*
X105014858Y-126297748D01*
X104835253Y-126118143D01*
X104849395Y-126104000D01*
X104835253Y-126089858D01*
X105014858Y-125910253D01*
X105029000Y-125924395D01*
X105043143Y-125910253D01*
X105222748Y-126089858D01*
G36*
X105222748Y-73906858D02*
X105208605Y-73921000D01*
X105222748Y-73935143D01*
X105043143Y-74114748D01*
X105029000Y-74100605D01*
X105014858Y-74114748D01*
X104835253Y-73935143D01*
X104849395Y-73921000D01*
X104835253Y-73906858D01*
X105014858Y-73727253D01*
X105029000Y-73741395D01*
X105043143Y-73727253D01*
X105222748Y-73906858D01*
X105222748Y-73906858D01*
G37*
X105222748Y-73906858D02*
X105208605Y-73921000D01*
X105222748Y-73935143D01*
X105043143Y-74114748D01*
X105029000Y-74100605D01*
X105014858Y-74114748D01*
X104835253Y-73935143D01*
X104849395Y-73921000D01*
X104835253Y-73906858D01*
X105014858Y-73727253D01*
X105029000Y-73741395D01*
X105043143Y-73727253D01*
X105222748Y-73906858D01*
G36*
X193741748Y-73906858D02*
X193727605Y-73921000D01*
X193741748Y-73935143D01*
X193562143Y-74114748D01*
X193548000Y-74100605D01*
X193533858Y-74114748D01*
X193354253Y-73935143D01*
X193368395Y-73921000D01*
X193354253Y-73906858D01*
X193533858Y-73727253D01*
X193548000Y-73741395D01*
X193562143Y-73727253D01*
X193741748Y-73906858D01*
X193741748Y-73906858D01*
G37*
X193741748Y-73906858D02*
X193727605Y-73921000D01*
X193741748Y-73935143D01*
X193562143Y-74114748D01*
X193548000Y-74100605D01*
X193533858Y-74114748D01*
X193354253Y-73935143D01*
X193368395Y-73921000D01*
X193354253Y-73906858D01*
X193533858Y-73727253D01*
X193548000Y-73741395D01*
X193562143Y-73727253D01*
X193741748Y-73906858D01*
G04 #@! TD*
M02*
